<?xml version="1.0" encoding="UTF-8"?>
<svg id="_圖層_1" data-name="圖層_1" xmlns="http://www.w3.org/2000/svg" version="1.1" viewBox="0 0 688 18">
  <!-- Generator: Adobe Illustrator 29.4.0, SVG Export Plug-In . SVG Version: 2.1.0 Build 152)  -->
  <defs>
    <style>
      .st0 {
        fill: #a8a8a8;
      }
    </style>
  </defs>
  <path class="st0" d="M264.3.9c0-.2.1-.2.3-.2.6,0,2.1.1,3.6.1h2.9c1.7,0,2.9,0,3.5-.1.2,0,.3,0,.3.2,0,.9-.2,1.9-.2,2.9,0,.2-.3.2-.4,0-.2-1.4-.7-2.2-1.6-2.2h-2.4v8.2c0,3,0,3,1.7,3.1-.1.4-.2.6-.5.6h-4.6c0-.4.1-.5.4-.6,1.2-.2,1.3-.2,1.3-2.7V1.6h-2.5c-.7,0-1.2.8-1.6,2.2,0,.3-.4.2-.4,0,0-.9.1-1.9.1-2.9Z"/>
  <path class="st0" d="M276.4,12.9c.8-.2.8-.2.8-2.7v-6.2c0-2.3,0-2.4-.6-2.5-.4-.1-.5-.2-.5-.7,1.2.2,2.8,0,4.4,0,3.1,0,4.7,1.8,4.7,3.4s-1.5,3.3-3.7,3.5c2.4,1.9,2.8,4.3,5,5.5.2.1.3.3,0,.3-1.2,0-2.2.2-3.1-.8-1.4-1.6-2.1-3.9-4-5.3-.1,0-.1-.3,0-.3,2.6,0,4-.8,3.9-2.8-.1-1.9-1.4-3.1-4.5-2.5v8c0,3,0,3,1.5,3.1-.1.5-.2.6-.5.6h-3.9c0-.4.1-.5.4-.6h0Z"/>
  <path class="st0" d="M298.8,12.9c-.1.4-.2.6-.4.6h-3.8c0-.4,0-.6.3-.6,1.1,0,.9-.5.4-2l-.5-1.5h-4.4l-.9,2.5c-.3.9-.2,1,1,1.1-.1.4-.2.6-.4.6h-3.1c0-.4,0-.5.3-.6.6,0,.8-.3,1.4-2l4-10.2c0-.2.3-.2.4,0l4.2,10.2c.6,1.5.7,1.9,1.5,2h0ZM292.6,3.7l-1.9,4.9h3.8l-1.8-4.9s0,0-.1,0Z"/>
  <path class="st0" d="M302.3.8l7.2,9.3v-6c0-2.4,0-2.7-1.1-2.7-.4,0-.4-.1-.3-.6h3.8c-.1.5-.1.5-.4.6-1,.2-1.1.3-1.1,2.3v9.7c0,.3-.5.2-.6,0l-8-10.5v6.8c0,2.7,0,2.8,1.5,3-.1.4-.2.6-.4.6h-3.4c0-.4,0-.5.3-.6,1-.2,1-.3,1-2.4V2.4c0-.7-.5-1-1.3-1-.3,0-.2-.2-.2-.6h2.9Z"/>
  <path class="st0" d="M332.2,15.9c-1,.9-3,1.9-5.3,1.1-1.8-.7-3-2.5-4.4-3.9-.8.4-1.8.6-3,.6-3.9,0-6.4-2.8-6.4-6.3s2.8-6.8,6.3-6.8,6.5,2.8,6.5,6.5-.8,3.9-2.2,5.1c1.5,1.3,2.7,2.8,4,3.3,2.1.8,3.1.5,4.2.2.2,0,.3,0,.1.2h0ZM315.1,7c0,1.5.4,2.9,1.1,3.9,2.2-1.2,4-1,5.5-.2.5.2.9.5,1.3.8.8-.9,1.2-2.3,1.2-4,0-2.8-1.6-6.1-4.7-6.1s-4.3,2.2-4.3,5.6h0ZM319.7,12.8c.9,0,1.6-.2,2.2-.5-.3-.3-.6-.5-1-.7-1.1-.7-2.6-.9-4.5-.5.8,1,1.9,1.7,3.3,1.7h0Z"/>
  <path class="st0" d="M336.3,1.4c-.4,0-.4-.2-.3-.6h3.9c0,.4-.2.6-.4.6-1,0-1.1.3-1.1,2.2v4.4c0,3.1-1.1,5.6-4.9,5.6s-5.1-1.3-5.1-5.2v-4.4c0-2.5,0-2.6-.9-2.7-.3,0-.3-.2-.2-.6h4c0,.4-.2.5-.3.5-.8.2-.9.3-.9,2.3v4.9c0,2.6,1.1,4.2,3.6,4.2s3.7-1.8,3.7-4.4v-4.1c0-2.5-.2-2.7-1.1-2.7Z"/>
  <path class="st0" d="M341.5,1.4c-.3,0-.2-.2-.2-.6h4c0,.4-.1.6-.4.6-.7,0-.8,0-.8,2.3v6.1c0,3,0,3,1.3,3.1-.1.4-.2.6-.4.6h-3.8c0-.3.1-.5.3-.6.6-.1.9-1,.9-2.7v-6.1c0-2.6,0-2.6-.9-2.7h0Z"/>
  <path class="st0" d="M351.4.8c0,.4-.1.6-.4.6-.8,0-.9,0-.9,2.3v8.6c0,.2,0,.3.3.3.4,0,1.3,0,2,0,2.7-.1,2.9-.7,3.7-2.3,0-.2.4-.1.4.1l-.8,2.9c0,.1,0,.2-.3.2-.5,0-1.5,0-2.8,0h-4.8c-.2,0-.3-.2,0-.3.7-.3.8-.4.8-2.5v-6.6c0-2.7,0-2.7-1-2.7-.2,0-.2-.2-.2-.6h4.1,0Z"/>
  <path class="st0" d="M367,.8c0,.4-.1.6-.4.6-.8,0-.9,0-.9,2.3v8.6c0,.2,0,.3.3.3.4,0,1.3,0,2,0,2.7-.1,2.9-.7,3.7-2.3,0-.2.4-.1.4.1l-.8,2.9c0,.1,0,.2-.3.2-.5,0-1.5,0-2.8,0h-4.7c-.2,0-.3-.2,0-.3.7-.3.8-.4.8-2.5v-6.6c0-2.7,0-2.7-1-2.7-.2,0-.2-.2-.2-.6h4.1,0Z"/>
  <path class="st0" d="M373.5,1.4c-.3,0-.2-.2-.2-.6h4c0,.4-.1.6-.4.6-.7,0-.8,0-.8,2.3v6.1c0,3,0,3,1.3,3.1-.1.4-.2.6-.4.6h-3.8c0-.3.1-.5.3-.6.6-.1.9-1,.9-2.7v-6.1c0-2.6,0-2.6-.9-2.7h0Z"/>
  <path class="st0" d="M380.1,3.4c-.6-1.5-.7-1.9-1.5-2-.3,0-.2-.2-.2-.6h4.4c0,.5-.2.6-.4.6-1.2.1-1.1.3-.5,2l2.8,7.1s0,0,.1,0l2.5-6.4c.9-2.3,1-2.6-.4-2.7-.4,0-.4-.2-.3-.6h4c-.1.4-.2.6-.4.6-.7,0-.9.3-1.6,2l-4,10.2c0,.2-.3.2-.4,0l-4.2-10.2h0Z"/>
  <path class="st0" d="M392,1.4c-.3,0-.2-.2-.2-.6h4c0,.4-.1.6-.4.6-.7,0-.8,0-.8,2.3v6.1c0,3,0,3,1.3,3.1-.1.4-.2.6-.4.6h-3.8c0-.3.1-.5.3-.6.6-.1.9-1,.9-2.7v-6.1c0-2.6,0-2.6-.9-2.7h0Z"/>
  <path class="st0" d="M400.4.8l7.2,9.3v-6c0-2.4,0-2.7-1.1-2.7-.4,0-.4-.1-.3-.6h3.8c-.1.5-.1.5-.4.6-1,.2-1.1.3-1.1,2.3v9.7c0,.3-.5.2-.6,0l-8-10.5v6.8c0,2.7,0,2.8,1.5,3-.1.4-.2.6-.4.6h-3.4c0-.4,0-.5.3-.6,1-.2,1-.3,1-2.4V2.4c0-.7-.5-1-1.3-1-.3,0-.2-.2-.2-.6h2.9Z"/>
  <path class="st0" d="M417.6,1.4c-2.4,0-4.4,2.3-4.4,5.5s2.1,5.9,4.8,5.9,2.2-.3,2.5-.6v-2c0-2.3,0-2.2-1.1-2.3-.2,0-.3-.1-.2-.5h4c0,.4-.2.6-.4.6-.5,0-.5.4-.5,2.6v2.5c0,.2-.1.2-.2.1-1.2-.3-2.6.3-4.3.3-3.8,0-6.4-2.6-6.4-6.4s2.8-6.6,6.2-6.6,3.4.6,4.3.5c.1,0,.2,0,.2.2v2.3c.1.2-.2.3-.3,0-.8-1.9-2.7-2.2-4.1-2.2h0Z"/>
</svg>