<?xml version="1.0" encoding="UTF-8"?>
<svg id="_圖層_1" data-name="圖層_1" xmlns="http://www.w3.org/2000/svg" version="1.1" viewBox="0 0 660 15">
  <!-- Generator: Adobe Illustrator 29.4.0, SVG Export Plug-In . SVG Version: 2.1.0 Build 152)  -->
  <defs>
    <style>
      .st0 {
        fill: #fff;
      }
    </style>
  </defs>
  <path class="st0" d="M228.4.6h5.6v.6l-1.9.2c0,1.8,0,3.6,0,5.5v1.1c0,1.6,0,3.4,0,5.2h4.6l.6-3h.8v3.6h-9.8v-.6l1.8-.2c0-1.8,0-3.6,0-5.2v-1.1c0-1.8,0-3.6,0-5.4h-1.8v-.7Z"/>
  <path class="st0" d="M239.4.6h5.6v.6h-1.8c0,1.9,0,3.7,0,5.6v.9c0,1.8,0,3.6,0,5.4l1.8.2v.6h-5.6v-.6l1.8-.2c0-1.8,0-3.6,0-5.4v-1c0-1.8,0-3.6,0-5.4h-1.8v-.7h0Z"/>
  <path class="st0" d="M254.3.6h4.4v.5l-1.6.2-4.2,12.6h-1l-4.4-12.6h-1.5v-.7h5.5v.6l-2,.2,3.5,10.4,3.4-10.4-2-.2v-.6h0Z"/>
  <path class="st0" d="M259.8.6h5.6v.6h-1.8c0,1.9,0,3.7,0,5.6v.9c0,1.8,0,3.6,0,5.4l1.8.2v.6h-5.6v-.6l1.8-.2c0-1.8,0-3.6,0-5.4v-1c0-1.8,0-3.6,0-5.4h-1.8v-.7h0Z"/>
  <path class="st0" d="M269.5,2.3v6c0,0,0,4.7,0,4.7l2.2.2v.6h-4.7v-.6l1.7-.2V1.3h0c0,0-1.7-.2-1.7-.2v-.6h3.4l7.2,10.5v-4.8s0-5,0-5l-2.2-.2v-.6h4.7v.6l-1.8.2v12.5h-.9l-7.9-11.6h0Z"/>
  <path class="st0" d="M288.3,7.4h5.2v.6h-1.3c0,1.3,0,2.5,0,4v.9c-1.4.8-2.6,1.2-4.2,1.2-4,0-6.7-2.7-6.7-6.9s2.8-6.9,6.8-6.9,2.8.4,3.9,1v3s-.9,0-.9,0l-.6-2.8c-.7-.4-1.3-.5-2.2-.5-2.9,0-5,2.2-5,6.2s2,6.2,4.9,6.2,1.5-.1,2.2-.4v-1.1c0-1.3,0-2.5,0-3.8l-2.1-.2v-.6h0Z"/>
  <path class="st0" d="M299.4,7.2c0-4.3,2.9-7,6.7-7s2.6.3,3.8,1v2.9s-.8,0-.8,0l-.6-2.9c-.7-.3-1.3-.4-2-.4-2.9,0-5,2.2-5,6.3s2.1,6.2,4.9,6.2,1.5-.1,2.2-.5l.7-2.8h.8v2.9c-1.2.7-2.4,1-3.9,1-3.9,0-6.7-2.5-6.7-6.8h0Z"/>
  <path class="st0" d="M311.8,7.2c0-4.3,2.8-6.9,6-6.9s6,2.5,6,6.9-2.7,6.9-6,6.9-6-2.5-6-6.9ZM321.8,7.2c0-3.4-1.3-6.2-4-6.2s-4,2.8-4,6.2,1.4,6.3,4,6.3,4-2.8,4-6.3Z"/>
  <path class="st0" d="M335.7,13.8v-.6l1.8-.2c0-1.8,0-3.6,0-5.2V2c0,0-4.5,11.7-4.5,11.7h-.7l-4.7-11.7v4.9c0,0,0,6.1,0,6.1l1.9.2v.6h-4.5v-.6l1.8-.2V1.3s-1.7-.2-1.7-.2v-.6h3.7l4.3,10.8,4.2-10.8h3.8v.6l-1.8.2c0,1.8,0,3.6,0,5.4v.9c0,1.8,0,3.6,0,5.4l1.8.2v.6h-5.5Z"/>
  <path class="st0" d="M343,.6h5.2c3.4,0,5,1.5,5,3.9s-1.6,4-5.5,4h-1v4.6s2.1.2,2.1.2v.6h-5.8v-.6l1.8-.2c0-1.8,0-3.6,0-5.4v-1c0-1.8,0-3.6,0-5.4h-1.8v-.7h0ZM347.7,7.8c2.6,0,3.7-1.4,3.7-3.3s-1.1-3.2-3.3-3.2h-1.3c0,1.8,0,3.7,0,5.5v1.1h1,0Z"/>
  <path class="st0" d="M354.8,7.2c0-4.3,2.8-6.9,6-6.9s6,2.5,6,6.9-2.7,6.9-6,6.9-6-2.5-6-6.9ZM364.8,7.2c0-3.4-1.3-6.2-4-6.2s-4,2.8-4,6.2,1.4,6.3,4,6.3,4-2.8,4-6.3Z"/>
  <path class="st0" d="M368.7,13v-2.8h.9l.6,2.7c.7.4,1.4.5,2.2.5,1.9,0,3.2-.9,3.2-2.6s-.6-2-2.5-2.7l-.8-.3c-2.2-.9-3.3-2.1-3.3-4s1.9-3.5,4.3-3.5,2.4.4,3.3,1v2.6h-.9l-.6-2.5c-.5-.3-1-.4-1.7-.4-1.7,0-2.8.8-2.8,2.3s.8,2.1,2.2,2.7l.9.3c2.7,1.2,3.6,2.2,3.6,4s-1.8,3.7-4.7,3.7-3-.4-3.9-1h0Z"/>
  <path class="st0" d="M378.9.6h5.6v.6h-1.8c0,1.9,0,3.7,0,5.6v.9c0,1.8,0,3.6,0,5.4l1.8.2v.6h-5.6v-.6l1.8-.2c0-1.8,0-3.6,0-5.4v-1c0-1.8,0-3.6,0-5.4h-1.8v-.7h0Z"/>
  <path class="st0" d="M385.9.6h11v3.5c.1,0-.7,0-.7,0l-.6-2.9h-3.3c0,1.8,0,3.6,0,5.5v.9c0,1.8,0,3.6,0,5.4l2,.2v.6h-6v-.6l2-.2c0-1.8,0-3.6,0-5.4v-.9c0-1.8,0-3.7,0-5.5h-3.3l-.6,2.9h-.8V.6h.2Z"/>
  <path class="st0" d="M398.3.6h5.6v.6h-1.8c0,1.9,0,3.7,0,5.6v.9c0,1.8,0,3.6,0,5.4l1.8.2v.6h-5.6v-.6l1.8-.2c0-1.8,0-3.6,0-5.4v-1c0-1.8,0-3.6,0-5.4h-1.8v-.7h0Z"/>
  <path class="st0" d="M405.3,7.2c0-4.3,2.8-6.9,6-6.9s6,2.5,6,6.9-2.7,6.9-6,6.9-6-2.5-6-6.9ZM415.3,7.2c0-3.4-1.3-6.2-4-6.2s-4,2.8-4,6.2,1.4,6.3,4,6.3,4-2.8,4-6.3Z"/>
  <path class="st0" d="M421.1,2.3v6c0,0,0,4.7,0,4.7l2.2.2v.6h-4.7v-.6l1.7-.2V1.3h0c0,0-1.7-.2-1.7-.2v-.6h3.4l7.2,10.5v-4.8s0-5,0-5l-2.2-.2v-.6h4.7v.6l-1.8.2v12.5h-.9l-7.9-11.6h0Z"/>
</svg>