<?xml version="1.0" encoding="UTF-8"?>
<svg id="_圖層_1" data-name="圖層_1" xmlns="http://www.w3.org/2000/svg" version="1.1" viewBox="0 0 340 43">
  <!-- Generator: Adobe Illustrator 29.4.0, SVG Export Plug-In . SVG Version: 2.1.0 Build 152)  -->
  <defs>
    <style>
      .st0 {
        fill: #3e3a39;
      }
    </style>
  </defs>
  <path class="st0" d="M15.7,26v13.2c0,1.9-1.6,2.6-3.5,2.2v-2.8H3.7v1.2c0,2.2-1.8,2.8-3.6,2.3v-19.8l2.9.5c.5,0,.7.3.8.6h6.3c.9,0,1.6-.5,2.2-1.2l2.9.8c2.1.6.7,2.1.7,2.9ZM12.2,36.3v-10.4H3.7v10.4h8.5ZM7.7,20.1V1.9l2.9.6c.5,0,.7.3.7.5h11c1.1,0,1.7-.4,2.3-1.1l3,1c2.1.7.7,2,.7,2.8v12c0,1.7-1.7,2.5-3.7,2.1v-2.6h-13.3c0,2.2-1.2,3.4-3.7,2.9h0ZM11.3,5.5v9.2h13.3V5.5h-13.3ZM35.9,26.3v13.2c0,1.9-1.6,2.6-3.6,2.2v-3h-8.6v.5c0,2.2-1.8,2.8-3.6,2.4v-19.1l2.8.5c.4,0,.7.4.8.6h6.5c.9,0,1.5-.5,2.1-1.2l3,.9c2.1.6.6,2.2.6,3.1h0ZM32.4,36.3v-10.4h-8.6v10.4h8.6Z"/>
  <path class="st0" d="M57.4,25.4v14.3c0,2-1.8,2.6-3.6,2.2v-16.8h-4.4c-.1,2.6-.5,5.4-1.1,8-.9,3.5-2.4,7-4.8,9.1-.5.5-1.2.1-.8-.5,1.8-3,2.8-7.2,3.2-14.6,0-1.8,0-3.6.1-5.8.1-5.9,0-9.2-.1-18l2.9.6c.5,0,.8.3.8.6v9.1h3.8V1.1l2.8.6c.4,0,.7.3.7.5v10c1.2,1.1,1.7,1.5,1.7,2.1,0,1.1-.9,1.5-2.3,1.5h-6.7v3.5c0,1,0,2,0,3.2h2.4c.7,0,1.2-.3,1.8-1.1l2.9,1c2,.6.7,2,.7,2.9h0ZM84.4,30.8c0,1.1-.8,1.6-2.3,1.6h-7.5v7.7c0,2-1.8,2.8-3.6,2.4v-10.1h-11.5c-.7,0-.8-.5-1.7-2.4h13.1v-6.7l2.7.5c.6.1.9.3.9.6v5.5h6c.9,0,1.3-.4,2.1-1.4,1.1,1,1.7,1.7,1.7,2.2h0ZM60.9,29c2.7-1.5,5.1-3.3,6.9-6.2,0-.2.2-.4.3-.6h-3.5v.3c0,2.1-1.8,2.8-3.5,2.4V4.6l2.8.6c.4,0,.6.3.7.5h1.8c.6-1.6,1.1-3.4,1.6-5.3l2.4,1.3c.8.4.9.8.5,1.3-.7.8-1.5,1.8-2.3,2.7h7.6c.8,0,1.3-.3,1.9-1l3,1c1.5.5.5,1.6.5,2.5v13.7c0,1.8-.9,3-3.5,2.7v-2.3h-6.5c-.2.5-.5,1-.8,1.4-2.5,3.5-5.3,5.3-9.4,6.2-.5,0-1-.5-.4-.8h0ZM64.6,12.9h5c0-1.8,0-3.5,0-5h-5v5h0ZM69,19.9v-.8c.3-1.2.5-2.5.5-3.9h-4.9v4.7h4.4ZM78,19.9v-4.7h-5.1c-.1,1.8-.4,3.3-.7,4.7h5.8ZM73.2,7.9c0,1.8,0,3.4,0,5h4.9v-5h-4.8Z"/>
  <path class="st0" d="M106.7,21.5c0-1.8,1.5-3.1,3.3-3.2,1.8,0,3.2,1.4,3.2,3.2,0,1.7-1.5,3.2-3.2,3.2-1.8,0-3.3-1.5-3.3-3.2Z"/>
  <path class="st0" d="M143.4,7.3v9.1c0,5.6-.5,11-1.7,15.2-1.3,4.5-3.2,7.7-5.8,9.8-.5.4-1-.1-.7-.6,1.6-3,2.9-6.1,3.9-12.7.8-5.6.6-15.9.5-24.4l2.9.5c.5,0,.8.3.9.6h13c-.1,0-.2-.2-.3-.3-1.2-1.5-1.9-2.4-2.6-3.3-.4-.5,0-.8.6-.7,2.1.5,3.8.7,4.8,1.6.9.8.7,2,0,2.7h12.1c.8,0,1.3-.4,2.2-1.4,1,.9,1.8,1.5,1.8,2.2,0,1.1-1,1.6-2.6,1.6h-28.9,0ZM174.5,24.2c-1.7,1.4-4.2,3.6-5.5,4.5-.6.4-1.1,0-.7-.5.8-1.2,1.5-2.5,2.3-4.1h-9.2v15.7c0,2.2-2,3.8-3.9,2.2-1.3-1.2-4-2.3-5.2-2.8-.6-.2-.7-.8,0-.7,1.2,0,4.7.1,4.9,0,.2,0,.2-.2.2-.4v-14h-11.4c-.7,0-1-.5-1.9-2.5h14.6,0c-1.4-1.6-3.5-4.2-5.4-5.9-.5-.4,0-1,.5-.8,2.9,1,4.9,1.9,6.1,2.9,1.8-1.4,3.6-2.9,5.1-4.4h-17.9c-.7,0-1-.6-1.8-2.4h20.3c1,0,1.5-.3,2.2-.9l1.5,1.7c1.1,1.2.9,1.5.3,1.9-3,1.9-5.5,3.5-8.6,5.2.7,1,.6,2.1.2,2.8h9c.7,0,1.2-.2,1.8-1l2.1,1.8c1,.9.9,1.2.2,1.8h0Z"/>
  <path class="st0" d="M218.3,12.8v26.8c0,2.2-1.8,3-3.8,2.7v-4.1h-25.3v1.5c0,2.3-1.8,3.1-3.8,2.7V8.7l2.9.6c.6.1.8.4.8.7h5.9V.7l2.9.7c.5.1.8.5.8.6v8h5.9V.8l2.9.7c.5,0,.8.5.8.6v7.9h4.1c.7,0,1.2-.3,1.9-1.1h0l3.2,1.1c1.8.6.6,1.8.6,2.8h0ZM195.1,12.6h-5.9v9.9h5.9v-9.9ZM189.2,35.5h5.9v-10.4h-5.9v10.4ZM198.9,12.6v9.9h5.9v-9.9h-5.9ZM198.9,25.1v10.4h5.9v-10.4h-5.9ZM208.5,12.6v9.9h6v-9.9h-6ZM214.5,35.5v-10.4h-6v10.4h6Z"/>
</svg>