<?xml version="1.0" encoding="utf-8"?>
<!-- Generator: Adobe Illustrator 27.0.0, SVG Export Plug-In . SVG Version: 6.00 Build 0)  -->
<svg version="1.1" id="圖層_1" xmlns="http://www.w3.org/2000/svg" xmlns:xlink="http://www.w3.org/1999/xlink" x="0px" y="0px"
	 viewBox="0 0 400 118" style="enable-background:new 0 0 400 118;" xml:space="preserve">
<style type="text/css">
	.st0{fill:#FFFFFF;stroke:#FFFFFF;stroke-width:0.2;stroke-miterlimit:10;}
	.st1{fill:#FFFFFF;}
	.st2{fill:url(#SVGID_1_);}
</style>
<path class="st0" d="M120.9,76.6c2.5-0.1,5.1-0.1,7.9-0.1c1.4,0,2.4,0.2,3.3,0.5c1.2,0.8,1.5,1.9,1.1,3.4c-0.2,2.6-0.3,4.9-0.2,7.1
	c0.1,1.3,0,2.2-0.2,2.8c-0.3,0.9-1,1.5-2,1.7c-3.7-0.2-6.4-0.2-8.1,0.2c-1.8,0.7-2.9,0.1-3.4-1.8c-0.1-3.8-0.2-7.7-0.2-11.5
	C118.9,77.7,119.6,76.9,120.9,76.6L120.9,76.6z M128.6,79.1c-1.9-0.1-3.8,0-5.7,0.2c-0.7,0.2-1.1,0.7-1.2,1.6c0,0.2,0,0.5,0,0.8
	c0,0.7,0.4,1.1,1.3,1.1l6,0c0.8,0,1.2-0.4,1.2-1.3l-0.1-1.1C129.9,79.6,129.4,79.2,128.6,79.1L128.6,79.1z M129,85.4
	c-2,0-4.1,0-6.1,0c-0.7,0.1-1.1,0.5-1.1,1.2c0.1,1.2,0.3,2,0.7,2.4c0.6,0.1,1.2,0.1,1.9,0l4.6-0.3c0.6,0,1.1-0.5,1.3-1.4l0.1-1
	C130.3,85.8,129.9,85.5,129,85.4z M136.9,74.1c0.4-0.9,1.3-1.3,2.7-1c3.5-0.1,7-0.2,10.6-0.1c2.4,0.5,3.2,1.8,2.2,3.8
	c-0.5,3.6-0.5,10.5-0.1,20.6c0.1,1.6,0,2.7-0.2,3.3c-0.5,1.3-1.3,1.7-2.3,1.1c-0.5-0.5-0.8-1.1-0.8-1.7l0.1-8.1
	c0-0.8-0.4-1.2-1.3-1.3c-3.4-0.2-5.9-0.2-7.4,0.1c-0.7,0.1-1.2,0.5-1.6,1.3c-2,4-4.6,7.1-7.9,9.1c-1.4,1.1-2.7,0.9-3.8-0.4
	c-0.2-0.5-0.2-1,0.1-1.3c1-0.8,2-1.4,2.9-2c3.9-2.6,6.3-5.8,7.2-9.6c0.7-4.3,0.5-8.4-0.5-12.4C136.8,74.8,136.8,74.4,136.9,74.1
	L136.9,74.1z M147.9,83.3c-2.6-0.1-4.7-0.1-6.3,0.1c-0.7,0-1,0.5-1.1,1.3c0,0.7,0,1.4-0.2,2.2c-0.1,0.6,0.3,0.9,1.2,1
	c2.2,0.1,4.4,0,6.6,0c0.7,0,1.1-0.4,1.1-1v-2.1C149.2,83.9,148.8,83.4,147.9,83.3L147.9,83.3z M147.8,75.5c-1.8,0-3.9,0.1-6.3,0.3
	c-0.6,0.3-1,0.9-0.9,1.7c0.1,0.5,0.1,1.1,0.1,1.8c0,0.8,0.4,1.2,1.1,1.2c2.1,0.1,4.3,0.1,6.6,0c0.6-0.1,1-0.5,1-1.1l-0.1-2.6
	C149.1,76.1,148.6,75.7,147.8,75.5L147.8,75.5z"/>
<path class="st0" d="M160.9,76.6c0.8-0.9,1.9-1.2,3.1-0.9l6.2,0.2c0.5,0,1.1,0.1,1.6,0.2c0.8,0.3,1.1,0.8,0.7,1.6
	c-0.2,0.6-0.7,0.9-1.4,0.9l-1.7,0c-0.7,0-1.1,0.4-1.2,1.2l-0.1,2.8c0,0.7,0.3,1.1,0.9,1.1c1.5-0.1,2.5,0.2,3.1,0.8
	c0.3,0.6,0.2,1.2-0.3,1.6c-0.6,0.3-1.5,0.4-2.6,0.2c-0.7,0-1,0.3-1,1l0.1,3.6c0,0.6,0.5,0.9,1.3,0.8c1.6-0.1,2.6,0,3.2,0.2
	c0.7,0.9,0.4,1.6-1,2.2c-1.1,0.2-2.2,0.4-3.3,0.5c-1.9,0.4-4,0.9-6.5,1.7c-0.7,0.2-1.3,0.1-1.8-0.4c-0.6-0.8-0.2-1.8,1.3-2.9
	c1-0.5,1.9-0.8,2.8-0.8c0.6,0,1-0.5,1.1-1.3l0.1-3.6c0-0.7-0.4-1-1.2-0.9c-1.2,0.2-2.4,0.2-3.4,0c-0.7-0.4-0.9-1-0.8-1.6
	c0.7-1,2.1-1.5,4.3-1.3c0.6,0,1-0.4,1-1.2l-0.1-2.6c0-0.7-0.3-1.1-0.9-1c-1.6,0.3-2.8,0.3-3.6-0.1C160.4,78,160.4,77.3,160.9,76.6
	L160.9,76.6z M184.6,88.4c0.6-0.3,1.2-0.1,1.6,0.7c0.1,0.2,0.5,0.3,1.3,0.3c1.4,0,2.9,0,4.3,0.1c1.2,0.2,1.5,0.8,0.9,1.8
	c-0.4,0.8-1.2,1.2-2.2,1.1c-1.1-0.2-2.1-0.4-3-0.4c-0.6,0-0.9,0.4-1,1.3c0,0.9,0.4,1.3,1.2,1.3c3.3,0.2,6.7,0.7,10.1,1.3
	c0.5,0.4,0.4,1-0.4,1.8c-0.7,1.3-1.6,1.8-2.7,1.5c-2.3-1-4.7-1.7-7.3-1.9c-0.7,0-1.1,0.3-1.1,1.1l0,3.1c-0.2,1.2-0.6,1.9-1.5,1.9
	c-0.9-0.2-1.3-0.9-1.2-2c-0.1-1.1-0.2-2.1-0.2-3.2c0-0.7-0.3-1-1-1c-3.4-0.1-6.3,0.4-8.7,1.6c-0.8,0.4-1.6,0.5-2.2,0.1
	c-1-0.9-0.9-2,0.2-3c0.8-0.6,1.9-0.8,3.4-0.6c0.7,0,1-0.4,1-1.1c0-1.1-0.1-2.1-0.4-2.8c0.8-1.5,1.8-2.2,3.1-1.8h3.7
	c0.8,0,1.2-0.2,1.4-0.5C184.2,88.7,184.4,88.6,184.6,88.4z M181.7,73.1c0.2-1.2,0.7-1.7,1.7-1.6c0.7,0.2,1.1,0.6,1.4,1.3
	c0.1,0.6,0.4,0.9,1,0.9c1.9,0,3.3,0.1,4,0.5c0.9,0.1,1.5,0.7,1.7,1.7c-0.3,0.8-0.5,1.4-0.5,1.8c-0.1,0.4,0.3,0.7,1.1,0.7
	c1.1,0.1,2.3,0.1,3.4,0.1c1,0.1,1.6,0.2,1.7,0.3c0.3,0.6-0.1,1.4-1.1,2.4c-0.8,0.8-1.6,1.1-2.4,0.7c-0.8-0.4-1.9-0.8-3.3-1
	c-5.7-0.6-11-0.3-16,0.8c-0.5,0.1-0.9,0.1-1.1,0c-1.2-0.5-1.4-1.2-0.4-2.4c0.4-0.3,1.1-0.6,2-0.7c1.3-0.2,3.2-0.3,5.7-0.3
	c0.7,0,1-0.3,1.1-1c0-0.7-0.4-1.1-1.2-1.1l-3.5,0.3c-0.8,0.1-1.4-0.3-1.7-1c0.1-0.6,0.6-1.2,1.7-1.8c0.8-0.4,2-0.4,3.6,0
	C181.3,73.7,181.6,73.5,181.7,73.1L181.7,73.1z M183.2,81.6c2.2-0.2,4.4,0,6.6,0.4c0.6,0.2,1,0.7,1.1,1.3c-0.1,2.8-0.9,4.4-2.4,4.8
	c-3.5-0.2-6.6,0-9.3,0.5c-0.6,0.1-1-0.3-1.3-1.1c-0.1-1.1-0.3-2.2-0.5-3.3c-0.2-1.1,0.1-1.8,0.9-2.1
	C179.5,81.8,181.1,81.7,183.2,81.6L183.2,81.6z M182.6,91.9c-0.8,0-1.7,0-2.5,0.1c-0.7,0.1-1.1,0.5-1.1,1.2v0.6c0,0.6,0.4,1,1.2,0.9
	c0.8-0.1,1.6-0.1,2.4-0.1c0.7,0,1-0.4,1.1-1.2v-0.5C183.6,92.2,183.3,91.9,182.6,91.9L182.6,91.9z M186.7,83.9
	c-2.8-0.2-4.9-0.1-6.2,0.2c-0.1,0.1-0.2,0.3-0.2,0.7c-0.2,1,0.3,1.4,1.4,1.1l5.1-0.2c0.7-0.1,1.1-0.3,1.1-0.6
	C188.1,84,187.7,83.6,186.7,83.9L186.7,83.9z M187.2,76.1c-0.6-0.1-1.1-0.2-1.7-0.1c-0.6,0-1,0.4-1.1,1.1c0,0.8,0.2,1.1,0.9,1.1
	l1.7,0c0.6,0,1.1-0.2,1.2-0.5C188.6,76.7,188.3,76.2,187.2,76.1z"/>
<path class="st0" d="M220.9,73.2c0.3-1.1,0.9-1.5,1.8-1.2c0.5,0.3,0.9,0.8,1,1.5c0.1,0.6,0.5,0.9,1.3,0.9c1.1,0.1,2.3,0.1,3.4,0.3
	c2.1,0.3,2.7,1.4,1.8,3.3c0,0.1,0.3,0.2,1,0.2h1.5c1.4-0.1,2.1,0.2,2.2,0.9c-0.9,1.4-2,2-3.2,1.7l-1-0.2c-0.7,0-1.1,0.3-1.3,1.1
	c-0.3,2.5-1.4,3.5-3.4,3c-0.4-0.1-0.9-0.2-1.3-0.2c-0.7,0-1,0.2-1,0.7c0,0.5,0.3,0.8,1,0.8c2.1-0.1,3.7,0,4.7,0.2
	c0.4,0.2,0.7,0.5,0.7,0.9c0.2,0.8-0.2,1.2-1.3,1.5h-3.8c-0.8,0-1.3,0.4-1.3,1.1s0.4,1,1.3,0.9c2.5-0.1,5-0.2,7.6-0.2
	c2.1,0.3,2.3,1.3,0.6,2.9c-0.7,0.4-1.6,0.5-2.6,0.3c-2-0.4-3.9-0.5-5.7-0.5c-0.8,0-1.2,0.4-1.2,1.1l-0.1,1.9
	c-0.2,0.7,0.1,1.1,0.9,1.3c4.9,1.2,9.3,2,13,2.4c0.9,0,1.5,0.2,1.8,0.4c0.6,0.4,0.3,1.1-1,2.1c-2,1.8-4.1,2.1-6.5,0.7
	c-2.4-1.1-4.6-1.9-6.5-2.5c-5.4-1.7-9.6-2.5-12.6-2.6c-1.6-0.1-3.2,0-4.9,0.4c-0.7,0-1.1,0.3-1.5,0.9c-1.7,2.2-3,3.4-4,3.5
	c-0.4,0.1-0.7-0.2-1-0.8c-0.3-0.9-0.1-1.7,0.6-2.4c3.9-3.8,6.2-6.8,6.8-9.2c-0.5-0.7-1.5-0.7-2.9-0.2c-1.4,0.1-2.1-0.6-1.8-2.2
	c0.2-0.4,0.7-0.9,1.4-1.4c1.4-1.7,2.4-3.1,2.8-4.3c0-0.2-0.4-0.3-1.3-0.5l-1.5-0.1c-0.8,0-1.5-0.1-2-0.3c-1.2-0.6-1.4-1.4-0.4-2.2
	c0.9-0.7,1.7-0.9,2.4-0.5c1,0.4,2.7,0.8,4.9,1.2c0.5,0.1,1,0.3,1.3,0.7c0.5,0.9,0.3,1.8-0.5,2.7c-0.8,1-1.6,2.1-2.4,3.2
	c-0.5,0.7-0.4,1.1,0.2,1.2c2.9-0.1,3.6,1,2.4,3.4c-0.4,1-0.9,2.1-1.6,3.2c-0.4,0.7-0.2,1.1,0.6,1.1c4.3,0.5,7.5,0.9,9.6,1.3
	c0.6,0.2,0.9-0.2,0.8-1l-0.1-1.2c0-0.7-0.4-1-1.2-1c-2.2,0.1-4.1,0.3-5.9,0.7c-1.4,0-1.8-0.7-1.3-2c0.1-0.3,0.3-0.6,0.7-0.9
	c0.9-0.6,2.1-0.8,3.5-0.4l3.1,0c0.7,0,1-0.3,1-1s-0.4-1-1.2-1c-0.9,0.1-1.8,0.2-2.7,0.4c-1.2,0.1-2-0.3-2.2-1.1
	c0-0.9,0.5-1.5,1.7-1.8c1.1-0.2,2.2-0.2,3.4-0.2c0.7,0,1-0.2,1-0.7c0-0.5-0.4-0.7-1.2-0.7c-1,0.1-1.9,0.3-2.9,0.5
	c-1.7-0.1-2.4-0.8-1.9-2.1c0.3-0.6,1.1-1,2.3-1.1h2.7c0.7,0,1-0.3,1-0.8c0-0.6-0.4-0.8-1.2-0.8c-1.4,0.1-3.3,0.4-5.7,0.9
	c-1.1,0-1.7-0.5-1.6-1.5c0-0.4,0.4-0.9,1.1-1.4c0.4-0.2,0.8-0.4,1.3-0.5c1.7,0,3.4,0,5.2,0c0.7,0,1-0.2,1-0.6c0-0.4-0.4-0.6-1.2-0.6
	l-4,0.3c-0.9-0.1-1.3-0.5-1.2-1.3c-0.1-0.3,0.1-0.6,0.5-1c0.6-0.5,1.3-0.8,2-0.9c0.5-0.1,1.5,0,2.9,0.2
	C220.3,74.5,220.7,74.1,220.9,73.2L220.9,73.2z M224.5,76.8c-0.6,0.1-0.9,0.3-0.9,0.8c0,0.5,0.3,0.7,1,0.7h1.2c0.7,0,1-0.2,1-0.5
	c0-0.4-0.3-0.7-0.8-0.9C225.5,76.8,225,76.8,224.5,76.8L224.5,76.8z M226.6,81c0-0.3-0.3-0.5-0.9-0.5h-1.1c-0.7,0-1,0.3-1,0.9
	c0,0.5,0.5,0.8,1.4,0.8C226,82.3,226.6,82,226.6,81L226.6,81z"/>
<path class="st0" d="M243,79c0.5-1.5,1.6-2.1,3.3-1.8c1.6,0.1,4.4,0.2,8.4,0.2c0.6,0,1.3,0,2,0.2c1.4,0.1,1.7,0.7,1.1,2
	c-0.5,0.5-1.4,0.7-2.7,0.5c-3.3,0-6.8,0.1-10.4,0.4C243.5,80.5,242.9,80.1,243,79L243,79z M245.2,88.7c0-1.1,0.8-1.7,2.2-1.8
	c2.5,0,5,0,7.6,0c1.2,0.1,1.8,0.6,1.8,1.5c-0.2,1-1,1.4-2.3,1.1c-2.6-0.1-5.2,0-7.9,0.3C245.9,89.9,245.5,89.5,245.2,88.7z
	 M247,82.6c3.6-0.1,6.3-0.1,8.2,0.1c1.1,0.3,1.4,0.9,1.1,1.8c-0.1,0.4-0.4,0.6-0.9,0.7c-3.1-0.1-5.7,0.1-7.7,0.4
	c-1.3,0.2-2.1-0.3-2.3-1.5C245.6,83.2,246.2,82.7,247,82.6L247,82.6z M245.6,92.9c0.5-1,1.4-1.3,2.5-0.9c2-0.1,4-0.1,6.1-0.1
	c2,0.2,2.7,1.1,2.1,2.9v3.2c-0.4,2.2-1.7,3.2-3.8,2.8c-1.5-0.2-3.2-0.1-4.9,0.3c-1.4,0.1-2.1-0.6-2.1-2.2
	C245.3,96,245.4,94,245.6,92.9L245.6,92.9z M246.4,73.8c0.9-1.2,2-1.6,3.2-1.3c1.8,0.3,3.7,0.5,5.6,0.5c0.8,0.2,1.3,0.4,1.4,0.6
	c0.4,0.8,0.1,1.5-0.8,2c-0.8,0.1-1.8,0.1-2.9,0c-2-0.1-3.5,0-4.6,0.2C246.6,75.9,245.9,75.2,246.4,73.8L246.4,73.8z M251.7,94.3
	c-1.4-0.1-2.4,0-3.1,0.2c-0.1,0.1-0.2,0.5-0.3,1.3v0.8c0.1,0.6,0.5,1,1.1,1h2.6c0.6,0,1-0.4,1.1-1.3v-0.9
	C253.1,94.8,252.6,94.4,251.7,94.3L251.7,94.3z M270.5,85.6c0.6-0.6,1.3-0.6,2,0c0.7,0.6,0.8,1.6,0.5,2.9c-0.2,0.8-0.6,1.8-1.4,3.3
	c-0.5,0.8-0.4,1.5,0.4,2.1c2.7,1.8,5.4,3.6,8.2,5.2c0.4,0.4,0.6,0.8,0.5,1.1c-0.4,0.8-1,1.4-1.9,1.6c-1.5,0.7-2.9,0.2-4.2-1.5
	c-1.2-1.5-2.7-3.1-4.4-4.7c-0.6-0.6-1.2-0.5-1.9,0.1c-1.7,1.5-3.9,2.8-6.5,3.8c-1.6,0.9-3.1,0.7-4.5-0.8c-0.6-0.8-0.3-1.5,0.9-2
	c3,0.1,5.7-0.9,8.1-2.7c0.7-0.6,0.7-1.1-0.1-1.7c-1.8-1.2-3.2-2-4.5-2.4c-0.7-0.3-1-0.8-0.9-1.6c0.8-0.8,1.9-1,3.2-0.6
	c0.5,0.2,1.1,0.6,1.6,1.1c0.4,0.5,1.2,1.2,2.3,2c0.7,0.5,1.2,0.4,1.7-0.4c0.6-1,0.8-2,0.7-3.1C270.1,86.7,270.1,86.1,270.5,85.6
	L270.5,85.6z M266.5,73.4c2.5-0.2,4.5,0.2,6.2,1c0.8,0.5,1.2,1.1,1.2,1.8c-0.5,1.4-0.8,2.9-0.9,4.5c-0.1,0.7,0.3,1.1,1.1,1h2.4
	c1.1,0,1.8,0.3,1.9,1c0,0.8-0.4,1.5-1.3,2.2c-0.4,0.2-1,0.1-2-0.2c-5.1-0.9-9.2-0.8-12.5,0.2c-0.9,0.2-1.6,0.2-2.1,0
	c-0.6-0.4-0.8-1.1-0.3-1.9c0.3-0.3,0.6-0.6,1.1-0.9c0.6-0.2,1-0.7,1.3-1.3c0.4-1.4,0.5-2.9,0.3-4.6c-0.2-0.8-0.3-1.5-0.1-1.9
	c0.2-0.5,0.6-0.8,1.2-0.8C264.5,73.6,265.4,73.6,266.5,73.4L266.5,73.4z M269.6,75.9c-1.5-0.4-2.7-0.3-3.5,0.2
	c-0.4,0.2-0.6,0.8-0.6,1.5c-0.1,1-0.2,2-0.3,3c-0.4,1.1,0.1,1.5,1.2,1.2c0.9-0.1,1.9-0.1,2.9-0.1c0.7,0,1-0.4,1.1-1.2
	c0.1-1.1,0.2-2.2,0.1-3.3C270.5,76.7,270.2,76.2,269.6,75.9z"/>
<path class="st1" d="M141.8,111.8h1l1.5,4.5l1.5-4.5h1v5.3h-0.7v-3.2c0-0.1,0-0.3,0-0.5s0-0.5,0-0.8l-1.5,4.5H144l-1.5-4.5v0.2
	c0,0.1,0,0.3,0,0.6c0,0.3,0,0.5,0,0.6v3.2h-0.7L141.8,111.8L141.8,111.8z"/>
<path class="st1" d="M148.5,111.8h0.7v5.3h-0.7V111.8z"/>
<path class="st1" d="M151.4,111.8h0.8l2.6,4.3v-4.3h0.7v5.3h-0.8l-2.6-4.3v4.3h-0.7V111.8z"/>
<path class="st1" d="M160.6,111.9c0.5,0.3,0.8,0.8,0.9,1.5h-0.7c-0.1-0.4-0.3-0.7-0.5-0.8c-0.3-0.2-0.6-0.3-1-0.3
	c-0.5,0-0.9,0.2-1.2,0.6c-0.3,0.4-0.5,0.9-0.5,1.7c0,0.6,0.1,1.2,0.4,1.5c0.3,0.4,0.7,0.6,1.3,0.6c0.5,0,0.9-0.1,1.2-0.4
	s0.5-0.7,0.5-1.4h-1.6v-0.6h2.3v2.8h-0.5l-0.2-0.7c-0.2,0.3-0.4,0.4-0.6,0.6c-0.3,0.2-0.7,0.3-1.2,0.3c-0.6,0-1.1-0.2-1.6-0.6
	c-0.5-0.5-0.7-1.2-0.7-2.1s0.2-1.6,0.7-2.1c0.4-0.5,1-0.8,1.7-0.8C159.8,111.6,160.3,111.7,160.6,111.9z"/>
<path class="st1" d="M167.2,111.8l1,4.3l1.2-4.3h0.8l1.2,4.3l1-4.3h0.8l-1.4,5.3H171l-1.2-4.4l-1.2,4.4h-0.7l-1.4-5.3H167.2z"/>
<path class="st1" d="M174.9,111.8h3.8v0.7h-3.1v1.6h2.9v0.6h-2.9v1.8h3.2v0.6h-3.8V111.8z"/>
<path class="st1" d="M180.8,111.8h0.7v5.3h-0.7V111.8z"/>
<path class="st1" d="M191.3,111.8h1.2l1.9,5.3h-1.2l-0.4-1.1h-1.9l-0.4,1.1h-1.1L191.3,111.8z M191.2,115.1h1.4l-0.7-2.1
	L191.2,115.1L191.2,115.1z"/>
<path class="st1" d="M199.5,111.9c0.2,0.1,0.4,0.2,0.5,0.4c0.1,0.1,0.2,0.3,0.3,0.5c0.1,0.2,0.1,0.3,0.1,0.6c0,0.2-0.1,0.5-0.2,0.8
	s-0.3,0.4-0.6,0.5c0.2,0.1,0.4,0.2,0.5,0.4c0.1,0.2,0.2,0.5,0.2,0.8v0.4c0,0.2,0,0.4,0,0.5c0,0.1,0.1,0.2,0.2,0.3v0.1h-1.2
	c0-0.1-0.1-0.2-0.1-0.3c0-0.2,0-0.3-0.1-0.5v-0.5c0-0.3-0.1-0.6-0.2-0.7c-0.1-0.1-0.3-0.2-0.6-0.2h-1.1v2.1h-1.1v-5.3h2.5
	C199,111.7,199.3,111.8,199.5,111.9L199.5,111.9z M197.2,112.7v1.4h1.2c0.2,0,0.4,0,0.5-0.1c0.2-0.1,0.3-0.3,0.3-0.6
	c0-0.3-0.1-0.5-0.3-0.7c-0.1-0.1-0.3-0.1-0.5-0.1L197.2,112.7L197.2,112.7z"/>
<path class="st1" d="M202.9,112.3c0.4-0.4,1-0.7,1.6-0.7c0.9,0,1.5,0.3,1.9,0.9c0.2,0.3,0.3,0.7,0.4,1h-1.1
	c-0.1-0.3-0.2-0.4-0.3-0.6c-0.2-0.2-0.5-0.4-0.9-0.4c-0.4,0-0.7,0.2-0.9,0.5c-0.2,0.3-0.3,0.8-0.3,1.4s0.1,1,0.4,1.3
	c0.2,0.3,0.5,0.4,0.9,0.4c0.4,0,0.7-0.1,0.9-0.4c0.1-0.1,0.2-0.3,0.3-0.6h1.1c-0.1,0.6-0.3,1.1-0.7,1.4c-0.4,0.4-0.9,0.5-1.5,0.5
	c-0.8,0-1.3-0.2-1.8-0.7c-0.4-0.5-0.6-1.2-0.6-2C202.1,113.5,202.4,112.8,202.9,112.3L202.9,112.3z"/>
<path class="st1" d="M208.7,117.1v-5.3h1.1v2h2v-2h1.1v5.3h-1.1v-2.4h-2v2.4H208.7z"/>
<path class="st1" d="M216,117.1h-1.1v-5.3h1.1V117.1z"/>
<path class="st1" d="M221.9,111.8v0.9h-1.6v4.4h-1.1v-4.4h-1.6v-0.9H221.9z"/>
<path class="st1" d="M227.4,112.7h-2.8v1.1h2.6v0.9h-2.6v1.4h2.9v1h-4v-5.3h3.8V112.7z"/>
<path class="st1" d="M229.9,112.3c0.4-0.4,1-0.7,1.6-0.7c0.9,0,1.5,0.3,1.9,0.9c0.2,0.3,0.3,0.7,0.4,1h-1.1
	c-0.1-0.3-0.2-0.4-0.3-0.6c-0.2-0.2-0.5-0.4-0.9-0.4c-0.4,0-0.7,0.2-0.9,0.5c-0.2,0.3-0.3,0.8-0.3,1.4s0.1,1,0.4,1.3
	s0.5,0.4,0.9,0.4c0.4,0,0.7-0.1,0.9-0.4c0.1-0.1,0.2-0.3,0.3-0.6h1.1c-0.1,0.6-0.3,1.1-0.7,1.4s-0.9,0.5-1.5,0.5
	c-0.8,0-1.3-0.2-1.8-0.7c-0.4-0.5-0.6-1.2-0.6-2C229.2,113.5,229.4,112.8,229.9,112.3L229.9,112.3z"/>
<path class="st1" d="M239.5,111.8v0.9h-1.6v4.4h-1.1v-4.4h-1.6v-0.9H239.5z"/>
<path class="st1" d="M241.2,111.7h1.1v3.3c0,0.4,0,0.6,0.1,0.8c0.1,0.3,0.4,0.5,0.9,0.5c0.4,0,0.7-0.2,0.9-0.5
	c0.1-0.2,0.1-0.4,0.1-0.8v-3.3h1.1v3.3c0,0.6-0.1,1-0.3,1.3c-0.3,0.6-0.9,0.9-1.8,0.9c-0.9,0-1.5-0.3-1.9-0.9
	c-0.2-0.3-0.3-0.8-0.3-1.3L241.2,111.7L241.2,111.7z"/>
<path class="st1" d="M250.8,111.9c0.2,0.1,0.4,0.2,0.5,0.4c0.1,0.1,0.2,0.3,0.3,0.5c0.1,0.2,0.1,0.3,0.1,0.6c0,0.2-0.1,0.5-0.2,0.8
	c-0.1,0.2-0.3,0.4-0.6,0.5c0.2,0.1,0.4,0.2,0.5,0.4c0.1,0.2,0.1,0.5,0.1,0.8v0.4c0,0.2,0,0.4,0,0.5c0,0.1,0.1,0.2,0.2,0.3v0.1h-1.2
	c0-0.1-0.1-0.2-0.1-0.3c0-0.2,0-0.3-0.1-0.5v-0.5c0-0.3-0.1-0.6-0.2-0.7s-0.3-0.2-0.6-0.2h-1.1v2.1h-1.1v-5.3h2.5
	C250.4,111.7,250.6,111.8,250.8,111.9L250.8,111.9z M248.6,112.7v1.4h1.2c0.2,0,0.4,0,0.5-0.1c0.2-0.1,0.3-0.3,0.3-0.6
	c0-0.3-0.1-0.5-0.3-0.7c-0.1-0.1-0.3-0.1-0.5-0.1L248.6,112.7L248.6,112.7z"/>
<path class="st1" d="M257.6,112.7h-2.8v1.1h2.6v0.9h-2.6v1.4h2.9v1h-4v-5.3h3.9V112.7z"/>
<linearGradient id="SVGID_1_" gradientUnits="userSpaceOnUse" x1="176.4713" y1="63.9895" x2="216.9213" y2="107.7095" gradientTransform="matrix(1 0 0 -1 0 120)">
	<stop  offset="0" style="stop-color:#C9C69C"/>
	<stop  offset="4.000000e-02" style="stop-color:#C8C195"/>
	<stop  offset="9.000000e-02" style="stop-color:#C5B583"/>
	<stop  offset="0.15" style="stop-color:#C1A165"/>
	<stop  offset="0.21" style="stop-color:#BC8A42"/>
	<stop  offset="0.25" style="stop-color:#BE8E48"/>
	<stop  offset="0.31" style="stop-color:#C5995A"/>
	<stop  offset="0.37" style="stop-color:#D0AC79"/>
	<stop  offset="0.44" style="stop-color:#DFC7A2"/>
	<stop  offset="0.46" style="stop-color:#E3CDAC"/>
	<stop  offset="0.52" style="stop-color:#E6D3B2"/>
	<stop  offset="0.62" style="stop-color:#F0E5C3"/>
	<stop  offset="0.68" style="stop-color:#FAF6D2"/>
	<stop  offset="0.72" style="stop-color:#F3EAC2"/>
	<stop  offset="0.85" style="stop-color:#DCC28F"/>
	<stop  offset="0.95" style="stop-color:#CEA96F"/>
	<stop  offset="1" style="stop-color:#C9A063"/>
</linearGradient>
<path class="st2" d="M224.3,31.7c-0.1-9.7-5.6-18-13.6-22.3c-0.6-0.3-1.1-0.6-1.7-0.8c-0.8-0.4-1.7-0.7-2.6-1
	c-1.1-0.4-2.3-0.6-3.5-0.8c-0.1,0-0.2,0-0.3,0c-0.7-0.1-1.4-0.2-2.1-0.2c0,0-0.1,0-0.2,0V4.8c-0.7-1.4-1.2-2.9-1.7-4.3
	c-0.5,1.4-1.1,2.9-1.7,4.3v1.6c-13.3,0.9-23.9,12-23.9,25.6s11.5,25.6,25.6,25.6c2.5,0,4.9-0.4,7.2-1c0.8-0.2,1.6-0.5,2.3-0.8
	c2.3-0.9,4.4-2.1,6.2-3.6c1-0.8,2-1.7,2.9-2.6c1.5-1.6,2.7-3.3,3.8-5.2c2-3.7,3.2-7.9,3.2-12.4C224.3,31.9,224.3,31.8,224.3,31.7
	L224.3,31.7z M196.9,7.1c0,0.5,0,1.1,0,1.6v0.7c0,1.8-0.1,3.7-0.1,5.6c-0.4,13-1.8,25.5-3.9,37c0,0,0,0,0,0c0,0,0,0,0,0
	c-0.8-0.2-1.5-0.4-2.2-0.7c2.1-11.3,3.4-23.6,3.9-36.4c0.1-1.7,0.1-3.5,0.1-5.2c0-0.1,0-0.2,0-0.3c-0.1,0.1-0.1,0.2-0.2,0.3
	c-1,1.9-2.2,3.8-3.5,5.7c-1,11.8-3.1,22.9-5.8,32.9c-0.9-0.7-1.8-1.4-2.6-2.2c2.5-8.2,4.4-17.1,5.6-26.7c-0.9,1.2-1.9,2.3-2.8,3.5
	c-1.6,6.9-3.7,13.3-6.1,19c-2.1-3.5-3.4-7.6-3.4-12C175.9,17.8,185.2,8,196.9,7.1z M219.1,40.1c-0.3,0.6-0.6,1.1-1,1.7
	c-2.5-5.8-4.5-12.2-6.1-19c-1-1.1-1.9-2.3-2.8-3.5c1.2,9.6,3.1,18.6,5.6,26.7c-0.5,0.5-1.1,1.1-1.7,1.5c-0.3,0.2-0.6,0.5-0.9,0.7
	c-2.8-10-4.8-21.1-5.8-32.9c-1.3-1.9-2.4-3.8-3.5-5.7c-0.1-0.1-0.1-0.2-0.2-0.3c0,0.1,0,0.2,0,0.3c0,1.7,0.1,3.5,0.1,5.2
	c0.4,12.8,1.8,25.1,3.9,36.4c-0.5,0.2-1.1,0.4-1.6,0.5c-0.2,0-0.4,0.1-0.5,0.1c-2.1-11.5-3.4-24-3.9-37c-0.1-1.9-0.1-3.7-0.1-5.6
	c0-0.2,0-0.4,0-0.7c0-0.5,0-1.1,0-1.6c0,0,0.1,0,0.1,0c0.8,0.1,1.6,0.2,2.3,0.3c0.1,0,0.1,0,0.2,0c1.1,0.2,2.2,0.5,3.2,0.9
	c0.9,0.3,1.7,0.7,2.5,1.1c0.6,0.3,1.2,0.6,1.8,1c6.4,3.9,10.7,10.9,10.9,18.9c0,0.2,0,0.4,0,0.5C221.5,33.5,220.6,37,219.1,40.1
	L219.1,40.1z"/>
</svg>
