<?xml version="1.0" encoding="UTF-8"?>
<svg id="_圖層_1" data-name="圖層_1" xmlns="http://www.w3.org/2000/svg" version="1.1" viewBox="0 0 422 43">
  <!-- Generator: Adobe Illustrator 29.4.0, SVG Export Plug-In . SVG Version: 2.1.0 Build 152)  -->
  <defs>
    <style>
      .st0 {
        fill: #3e3a39;
      }
    </style>
  </defs>
  <path class="st0" d="M41.1,36.9c0,1.2-1.1,1.8-2.8,1.8H2.2c-.8,0-1.1-.6-2.1-2.9h21.8c1.9-5.7,4.3-13.9,5.8-22.6l2.9,1.3c1.1.5,1.2.6,1,1.5-1.4,5-4.9,14.7-7.6,19.8h12.7c1,0,1.5-.5,2.3-1.6,1.2,1.2,2.1,1.8,2.1,2.6ZM3.1,8.6h30.5c.9,0,1.4-.6,2.3-1.5,1.1,1,1.9,1.7,1.9,2.4,0,1.2-1.1,1.7-2.7,1.7H5.1c-.8,0-1.1-.6-1.9-2.7ZM11,15c3.2,4.7,5.9,10.9,6.8,14.2,1.1,4.4-3,6.3-4,2.2-.8-3.4-2.4-10.9-3.7-16-.2-.8.6-.9,1-.4h0ZM16.2,1.3c-.4-.6,0-1.1.5-.8,1.8.8,4.3,1.7,5.9,3.2,3.1,2.9,0,7.1-3.1,2.7-.9-1.3-2.2-3.5-3.3-5.1h0Z"/>
  <path class="st0" d="M86.7,3.9c0,1.1-1,1.6-2.8,1.6h-15.8c-1.4,2.2-2.6,4.1-3.8,5.7h12.6c1,0,1.7-.6,2.3-1.3l3.3,1.1c1.8.6.4,2.2.4,3.2v25.2c0,2.2-1.9,2.6-3.7,2.2v-3.8h-25.2v2.2c0,1.9-1.8,2.7-3.7,2.2V9.9l2.9.6c.6.1.8.4.8.7h7.8c.7-1.6,1.7-3.7,2.3-5.7h-16.2c-.9,0-1.1-.6-2-2.6h36.4c.9,0,1.4-.5,2.3-1.6,1.2,1.2,2,1.7,2,2.6h0ZM54,35.2h6V13.6h-6v21.6ZM69.3,13.6h-5.8v5.8h5.8v-5.8ZM69.3,21.8h-5.8v5.5h5.8v-5.5ZM63.5,35.2h5.8v-5.6h-5.8v5.6ZM72.9,13.6v21.6h6.3V13.6h-6.3Z"/>
  <path class="st0" d="M132.4,39.9c-1.6.9-7.3,1.2-10.9,1-6.3-.4-6.7-1.2-6.7-7.8v-12.9h-5.5c-.5,5.7-1.3,9.8-3.5,13-2.9,4.5-8,7.5-13.2,8.8-.6.1-.8-.7-.5-.9,4.5-2.1,8.7-5.7,10.8-9.9,1.4-2.8,2-6.2,2.4-11h-11c-.9,0-1.1-.6-2.1-2.5h18.4V.9l3.1.6c.6,0,.8.4.8.6v15.5h13.2c.8,0,1.3-.4,2.1-1.4,1.1,1,1.9,1.8,1.9,2.3,0,1-1,1.6-2.6,1.6h-10.3v14.3c0,2.6.5,2.8,3.9,3,2,0,4.4,0,5.9-.4.9-.3,1.1-1.4,1.4-2.6l.4-2.1c0-.4.6-.5.7,0,.5,2.3.7,4,1.7,5,.9.8.8,1.9-.3,2.6h0ZM98.3,5.7c-.3-.5.3-.9.6-.7,2.8,1.8,5.7,4.1,7,6.7,1.8,3.3-1.1,6.4-3.3,2.1-1.2-2.4-3.4-6.3-4.4-8.1h0ZM117.4,15.9c1.8-2.8,4.3-7.7,6-11.6l2.5,1.7c1,.6,1.1.9.3,1.9-1.2,1.4-5.8,6.9-8,8.6-.5.4-1.1,0-.8-.5h0Z"/>
  <path class="st0" d="M138.1,16.8h13.2c-.1-.1-.2-.3-.3-.4-.6-1.1-1.1-2-1.6-3h0c0,0-3.2,0-3.2,0-.2,1.4-1.7,2-3.5,1.8V1.3l2.7.5c.6.1.8.3.8.6h9.5c.8,0,1.3-.3,1.9-1l2.8.8c2,.6.8,1.6.8,2.4v8.1c0,1.7-1.8,2.2-3.5,1.9v-1.4h-5.8c.8.3,1.5.6,2,1.3.6.8.5,1.6,0,2.2h7.6c.7,0,1.1-.3,1.8-1.2,1.1.9,1.7,1.4,1.7,2,0,1-.8,1.4-2.2,1.4h-22.7c-.8,0-1.1-.4-1.9-2.3h0ZM139.2,40.7c-.6.3-1-.4-.6-.7,2.6-2.6,5.8-6.3,7.6-9.7l2.1,1.4c.8.6.9.8.4,1.3-2.4,2.5-6.2,5.9-9.5,7.6h0ZM154.1,28.9v11.2c0,1.8-1.9,2.9-3.5,1.6-1.1-1-3.1-1.8-4.1-2.1-.5-.2-.5-.7.1-.7.6,0,3.4.1,3.7,0,.1,0,.2-.2.2-.5v-9.5h-3.6c-.5,1-1.8,1.5-3.4,1.2v-10.2l2.8.6c.6.1.8.3.8.6h8.6c.8,0,1.3-.2,1.9-1l2.8.9c1.9.6.8,1.6.8,2.5v4.6c0,1.6-1.9,2.2-3.6,1.8v-1.1h-3.5ZM146.2,4.7v2.2h11.5v-2.2h-11.5ZM157.7,11.2v-2.2h-11.5v2.2h11.5ZM147.1,23.4v3.2h10.5v-3.2h-10.5ZM159.1,37.2c-1.3-2-2.7-4.2-3.6-5.5-.4-.6,0-1,.6-.7,1.9,1,4.1,2.1,5.6,3.8,2.2,2.4-.3,5.9-2.6,2.4ZM178.5,28.2c-3.3,4-10.6,11.2-19.6,14.3-.8.3-1.2-.4-.4-.9,5.1-3.2,8.3-5.9,11.8-9.4,2.3-2.3,5-5.7,6.1-7.7l1.8,1.5c1.1.9,1.1,1.2.4,2.2h0ZM174.7,12.4l2,1.7c.8.7,1,1,.4,1.7-1.2,1.5-3,3.6-5.3,5.7-2.6,2.2-4.7,4-8.8,6.1-.6.3-.9-.5-.5-.8,3.7-3.2,5.1-4.7,7.8-7.9,1.7-2,3.7-5,4.5-6.4h0ZM162.9,13.1c4-3.7,8.1-8.6,10.2-12.1l1.6,1.4c1.1,1,1.3,1.1.6,1.9-.7.8-2.1,2.2-3.7,3.7-2.6,2.4-5,4.4-8.1,5.9-.6.3-.9-.4-.5-.8Z"/>
  <path class="st0" d="M214.5,30.5l-6.1-6.4-6.1,6.4-2-2,6.2-6.4-6-6.2,2-2,5.9,6.2,5.9-6.2,2,2-6,6.2,6.2,6.4-2,2h0Z"/>
  <path class="st0" d="M253.4,32.8c-2.1,1.8-8.8,7.1-15.6,9.2-.8.3-.9-.6-.6-.8,4.6-3.2,11.1-8.6,13.6-12l2.2,1.9c1.1,1,1.1,1.2.5,1.7h0ZM277.7,25.6c0,1-1,1.6-2.6,1.6h-36c-.9,0-1.1-.5-2.1-2.5h12.1v-11h-7.2c-.8,0-1-.6-2-2.5h9.2V1.8l2.9.6c.6,0,.9.5.9.6v8h8.8V1.7l3,.6c.6.1.8.3.8.6v8h4.5c.8,0,1.3-.4,2.2-1.3,1,1,1.8,1.7,1.8,2.3,0,1-1,1.6-2.6,1.6h-5.8v11h8.1c.8,0,1.3-.4,2.1-1.3,1.1,1,1.9,1.7,1.9,2.3h0ZM252.9,24.6h8.8v-11h-8.8v11ZM271,40.3c-1.9-2-5.2-5.4-8.9-9.2-.5-.5-.3-1.2.6-.8,4.9,2.2,8.6,4.4,11,6.8,3.3,3.2.8,7-2.8,3.2h0Z"/>
  <path class="st0" d="M324,29.6c0,1.1-1,1.5-2.6,1.5h-15.8v8.6c0,2.2-2.4,3.5-3.8,2-1-1.1-3.7-2.4-5-2.9-.5-.2-.4-.7,0-.7,1.1,0,4.5.2,4.7,0,.2,0,.2-.2.2-.4v-6.7h-17.2c-.8,0-1.1-.6-2-2.5h19.1v-2.9l3.1.6h0c2.2-1.1,4.3-2.3,5.2-2.9h-20c-.7,0-1-.7-1.8-2.4h23.6c.9,0,1.3-.2,2.2-1l1.6,1.8c1.1,1.3.8,1.6.3,1.8-2.1,1-6.7,2.8-10.5,4.1v1h14.5c.8,0,1.3-.3,2.1-1.3.9.9,1.8,1.6,1.8,2.3h0ZM284.2,5.4h19.2c-.3-.2-.6-.5-.9-.8-.8-.9-2.3-2.6-3.2-3.6-.4-.5-.1-1,.5-.8,2.4.6,4.5,1,5.9,2.5.7.8.6,2.1,0,2.8h12.3c.9,0,1.3-.5,2.2-1.4,1,1,1.8,1.7,1.8,2.3,0,1.1-.9,1.5-2.6,1.5h-33.4c-.8,0-1-.6-1.8-2.3h0ZM310.9,19.3v-1.3h-15.5c-.5,1.3-2.1,1.7-3.5,1.4v-10.5l2.9.6c.5,0,.7.3.8.6h13.4c.8,0,1.2-.3,1.9-1.1l3,1c1.8.6.7,1.4.7,2.6v4.6c0,1.9-1.8,2.5-3.7,2.2h0ZM310.9,15.6v-3.4h-15.3v3.4h15.3Z"/>
  <path class="st0" d="M343.8,26.5c-4,2.7-7.5,4.6-11.6,6.6-1.2.6-1.5.5-3.9-2.5,2.2-.6,4.2-1.2,6-1.8v-14.4h-4c-.6,0-.9-.5-1.6-2.3h5.6V1l2.9.7c.5,0,.7.4.7.7v9.7h1.7c.6,0,1.1-.4,1.9-1.3,1,1,1.7,1.6,1.7,2.2s0,.6-.3.9h7.7c-.3-.2-.6-.5-.8-1-.9-1.9-1.4-3.3-1.8-4.1-.2-.5.2-.8.7-.5,1.1.6,2.8,1.2,3.7,2.5,1,1.3.6,2.6-.3,3.1h4.7c.5-1.2,1.5-3.7,2.3-6.1h-14c-.6,0-.8-.3-1.6-2.2h11.1c-.3-.2-.5-.5-.8-1-.8-1.4-1.5-2.9-1.9-3.6-.2-.5,0-.8.6-.6,1.6.6,3.5,1.2,4.4,2.4.7,1.1.5,2.2-.2,2.8h6.8c.8,0,1.2-.4,2-1.2,1.1.9,1.7,1.5,1.7,2.1,0,1-.8,1.4-2.3,1.4h-5.7l2.3,1.4c.8.5,1,.8.5,1.3-.9,1-1.8,1.9-3.3,3.4h6.9c.8,0,1.4-.4,2-1.3,1.1.9,1.7,1.5,1.7,2.1,0,1-.9,1.5-2.3,1.5h-23.8c-.5,0-.8-.4-1.4-1.8-.3,0-.6,0-1.1,0h-2.9v13.2c1.8-.6,3.6-1.2,5.4-2,.5-.2,1,.5.5.8h0ZM369.2,40.5c-1.6.6-3,.8-6.7.7-6.3,0-6.6-1-6.6-6.2v-4.9h-2.4c-.3,2.3-1.1,5.1-2.4,6.7-2.2,2.8-6.4,5.2-13.4,5.3-.7,0-.6-.8,0-1,4.4-1.1,8.6-2.8,10.6-5.8,1.1-1.6,1.5-3.2,1.8-5.3h-1.8c-.1,1.9-2.2,2.4-3.6,2.1v-15l2.9.6c.6,0,.7.4.7.6h11.4c.8,0,1.2-.3,1.8-1l3.1,1c1.7.6.5,1.6.5,2.5v8.8c0,2-1.8,2.5-3.6,2.2v-1.9h-2v6.2c0,1.3.1,1.7,1.5,1.8,1.9.2,4.5,0,5.3-.2.6-.2,1-1.1,1.2-3.2,0-.3.6-.4.7,0,.3,1.7.6,2.7,1.3,3.2,1.2.9.7,2.2-.3,2.5h0ZM348.2,20.8v2.4h13.2v-2.4h-13.2ZM361.5,27.9v-2.4h-13.2v2.4h13.2Z"/>
  <path class="st0" d="M382.3,23.9c-.3,6.1-1.3,14.5-6.9,18.1-.6.4-1.1,0-.7-.7,3.1-5.1,3.8-10.6,4-19.8,0-4.5,0-11.1,0-17.6l3,.6c.3,0,.6.2.6.3,4-1.3,6.7-2.5,9.8-4.3l2,1.9c.7.7.7,1.2-.2,1.5-3.3.9-6.9,1.7-11.5,2.4v5h4.8c1,0,1.5-.4,2.1-1.1l3.1.9c1.8.5.5,1.9.5,2.8v9.2c0,2.1-1.6,2.8-3.6,2.5v-1.9h-7.1ZM382.5,13.9v3.6c0,.8,0,2.6,0,3.9h7v-7.5h-6.9ZM415.8,15.8c0,1.2-1,1.6-2.7,1.6h-3.7v22.7c0,1.7-1.7,2.8-3.6,2.2v-24.8h-6c0,.6,0,1,0,2-.2,6.4-1.5,18.7-13.2,22.7-.6.2-1.1-.4-.5-.9,8.2-6.1,9.8-12.6,9.9-22,0-4.5,0-8.8,0-15.2l2.9.7c.4,0,.7.2.9.4,4.9-1.5,8.3-2.5,12-4.4l1.7,2c.7.8.7,1.3-.2,1.5-3.6.9-8.1,1.8-13.4,2.4v8.5h11.6c.8,0,1.6-.6,2.4-1.6,1.1,1.1,1.9,1.7,1.9,2.4h0Z"/>
</svg>