<svg width="499" height="136" viewBox="0 0 499 136" fill="none" xmlns="http://www.w3.org/2000/svg">
<path d="M498.31 30.6746H0.690506V107.579H498.31V30.6746Z" fill="#F5F1EE"/>
<path d="M210.889 75.438H230.681V77.0891H210.889V75.438ZM219.168 58.2249H220.909V76.3201H219.168V58.2249ZM220.118 65.0332H229.165V66.6844H220.118V65.0332Z" fill="#333333"/>
<path d="M234.232 58.9031H252.621V78.1971H250.993V60.4185H235.815V78.1971H234.232V58.9031ZM235.205 75.6864H251.897V77.1792H235.205V75.6864ZM236.788 72.3162C237.648 72.1804 238.643 72.0221 239.819 71.8185C240.995 71.615 242.194 71.3888 243.438 71.1626L243.506 72.3388C242.352 72.565 241.199 72.7911 240.09 73.0173C238.959 73.2435 237.942 73.4471 237.037 73.6281L236.788 72.3614V72.3162ZM237.014 63.3364H249.907V64.5578H237.014V63.3364ZM237.806 65.9828H242.714V70.2578H237.806V65.9828ZM238.959 66.9781V69.2174H241.493V66.9781H238.959ZM247.668 65.5983L249.002 65.8697C248.437 67.928 247.623 69.7376 246.559 71.2757C245.474 72.8138 244.184 74.0578 242.646 75.0531C242.578 74.9626 242.511 74.8495 242.375 74.7364C242.262 74.6233 242.126 74.4876 242.013 74.3292C241.877 74.1935 241.764 74.0804 241.674 74.0126C243.167 73.1531 244.411 71.9995 245.428 70.5745C246.424 69.1495 247.17 67.4983 247.668 65.5983ZM243.528 60.9614H244.953C245.021 62.5221 245.134 64.0376 245.293 65.4626C245.451 66.8876 245.655 68.1995 245.926 69.3531C246.198 70.5066 246.537 71.434 246.921 72.1578C247.328 72.859 247.781 73.2662 248.324 73.3566C248.482 73.3793 248.618 73.1983 248.708 72.7685C248.799 72.3388 248.889 71.7733 248.98 71.0495C249.07 71.14 249.206 71.2305 249.319 71.3436C249.432 71.4566 249.568 71.5471 249.703 71.6376C249.839 71.7281 249.975 71.7959 250.065 71.8411C249.907 73.0399 249.636 73.8769 249.251 74.3292C248.867 74.7816 248.392 74.9174 247.803 74.6912C247.057 74.5328 246.424 74.0578 245.903 73.2435C245.383 72.4519 244.976 71.4114 244.659 70.1447C244.343 68.878 244.094 67.4531 243.89 65.8924C243.709 64.3316 243.574 62.6805 243.461 60.984L243.528 60.9614ZM246.198 61.5043L246.967 60.7126C247.396 60.8935 247.826 61.1424 248.301 61.4138C248.753 61.6852 249.115 61.9566 249.364 62.2054L248.572 63.0876C248.324 62.8162 247.962 62.5447 247.509 62.2507C247.057 61.9566 246.605 61.7078 246.198 61.5043Z" fill="#333333"/>
<path d="M260.357 68.4712H261.036L261.85 68.7653C261.488 71.0951 260.855 73.0403 259.973 74.601C259.09 76.1617 258.027 77.3605 256.806 78.1974C256.738 78.0843 256.625 77.9486 256.489 77.7903C256.353 77.6546 256.218 77.4962 256.082 77.3605C255.946 77.2248 255.811 77.1117 255.697 77.0665C256.874 76.32 257.869 75.257 258.661 73.8546C259.475 72.4522 260.018 70.7557 260.334 68.7426V68.4486L260.357 68.4712ZM256.444 70.145C256.421 70.0093 256.353 69.851 256.286 69.67C256.195 69.4891 256.127 69.2855 256.059 69.1046C255.992 68.9236 255.924 68.7653 255.833 68.6748C256.014 68.6296 256.195 68.5617 256.353 68.4712C256.534 68.3808 256.715 68.2224 256.896 67.9962C257.077 67.8379 257.326 67.5438 257.643 67.1593C257.959 66.7522 258.299 66.2998 258.683 65.8022C259.045 65.3045 259.407 64.8069 259.724 64.3319C260.063 63.8569 260.312 63.4724 260.515 63.1784V63.1331L261.013 62.9069L262.099 63.4046C261.827 63.7891 261.511 64.2188 261.149 64.7391C260.787 65.2367 260.402 65.7569 259.973 66.2998C259.565 66.8426 259.158 67.3629 258.751 67.8605C258.344 68.3581 258.005 68.7879 257.665 69.1272C257.417 69.2629 257.213 69.376 257.032 69.4891C256.851 69.6022 256.715 69.7153 256.58 69.8284C256.467 69.9414 256.399 70.0546 256.399 70.1677L256.444 70.145ZM256.127 62.9748H260.945V64.3545H256.127V62.9748ZM256.444 70.145V68.8784L257.236 68.4712H260.9V69.8057H257.756C257.484 69.8057 257.213 69.8284 256.964 69.8962C256.715 69.9641 256.534 70.0319 256.444 70.1224V70.145ZM256.919 58.6772L258.163 57.9307C258.502 58.2927 258.842 58.6545 259.203 59.0843C259.565 59.5141 259.905 59.8986 260.199 60.2831C260.515 60.6677 260.764 61.0069 260.945 61.301L259.678 62.2057C259.498 61.8891 259.249 61.5498 258.932 61.12C258.615 60.7129 258.299 60.2831 257.937 59.8534C257.575 59.4236 257.236 59.0391 256.896 58.6772H256.919ZM260.063 73.0629C260.515 74.0355 261.149 74.7593 261.918 75.2117C262.709 75.6867 263.659 75.9808 264.768 76.1165C265.899 76.2522 267.188 76.3426 268.636 76.3426C269.405 76.3426 270.264 76.3426 271.192 76.2974C272.119 76.2748 273.046 76.2296 273.951 76.1843C274.878 76.1391 275.693 76.0938 276.417 76.026C276.349 76.1391 276.281 76.2974 276.19 76.4784C276.1 76.6593 276.055 76.8629 275.987 77.0665C275.919 77.27 275.896 77.451 275.851 77.6093C275.172 77.6319 274.426 77.6772 273.612 77.6998C272.798 77.745 271.961 77.7677 271.101 77.7677C270.242 77.7677 269.427 77.7677 268.613 77.7677C267.324 77.7677 266.17 77.7224 265.152 77.6093C264.134 77.4962 263.23 77.3153 262.461 77.0212C261.692 76.7272 260.99 76.2974 260.425 75.7546C259.837 75.1891 259.339 74.4653 258.932 73.5605L260.063 73.0403V73.0629ZM261.94 60.8034H275.942V62.1831H261.94V60.8034ZM263.772 63.9248H274.064V74.3069H263.772V63.9248ZM264.202 58.4962L265.492 57.976C265.808 58.3379 266.125 58.745 266.419 59.1974C266.713 59.6498 266.917 60.0569 267.052 60.3962L265.718 61.0295C265.582 60.6676 265.378 60.2605 265.084 59.8081C264.79 59.3331 264.496 58.9034 264.202 58.5188V58.4962ZM265.333 65.1915V67.0236H272.436V65.1915H265.333ZM265.333 68.1772V70.0319H272.436V68.1772H265.333ZM265.333 71.1855V73.0629H272.436V71.1855H265.333ZM267.957 61.3915L269.857 61.5498C269.653 62.1153 269.427 62.6581 269.178 63.2236C268.93 63.7891 268.703 64.2867 268.477 64.6939L267.12 64.4676C267.278 64.0153 267.437 63.495 267.618 62.9069C267.776 62.3188 267.912 61.8212 267.98 61.3689L267.957 61.3915ZM271.802 57.9081L273.431 58.3831C273.069 58.926 272.707 59.4689 272.345 60.0343C271.961 60.5998 271.621 61.0748 271.305 61.482L269.993 61.0522C270.219 60.7581 270.445 60.4188 270.671 60.0569C270.897 59.695 271.124 59.3105 271.327 58.926C271.531 58.5415 271.712 58.2022 271.825 57.8855L271.802 57.9081Z" fill="#333333"/>
<path d="M289.151 76.659C288.314 76.659 287.568 76.5459 286.934 76.3423C286.301 76.1388 285.736 75.8673 285.261 75.528C284.786 75.1888 284.356 74.8269 284.017 74.4197L285.057 73.1304C285.532 73.6054 286.075 74.0352 286.708 74.4197C287.342 74.8043 288.111 74.9852 289.038 74.9852C289.694 74.9852 290.259 74.8721 290.734 74.6233C291.232 74.3971 291.616 74.0578 291.888 73.6281C292.159 73.1983 292.318 72.678 292.318 72.0899C292.318 71.4566 292.159 70.9138 291.843 70.4614C291.526 70.009 291.006 69.6471 290.259 69.3757C289.513 69.1042 288.54 68.9911 287.296 68.9911V67.4304C288.405 67.4304 289.287 67.2947 289.943 67.0459C290.599 66.7971 291.051 66.4352 291.345 65.9828C291.639 65.5304 291.775 65.0328 291.775 64.4899C291.775 63.7209 291.526 63.1328 291.051 62.6804C290.576 62.2281 289.897 62.0019 289.038 62.0019C288.382 62.0019 287.794 62.1602 287.228 62.4542C286.663 62.7483 286.165 63.1328 285.69 63.6078L284.605 62.3411C285.215 61.7757 285.894 61.3233 286.618 60.9388C287.342 60.5542 288.178 60.3733 289.083 60.3733C289.988 60.3733 290.802 60.5316 291.526 60.8257C292.25 61.1197 292.793 61.5947 293.2 62.1828C293.607 62.7709 293.811 63.4947 293.811 64.3316C293.811 65.2816 293.539 66.0733 293.019 66.684C292.499 67.2947 291.797 67.7697 290.938 68.0638V68.1542C291.571 68.3126 292.137 68.5614 292.657 68.9233C293.177 69.2852 293.584 69.7149 293.878 70.2578C294.172 70.8007 294.331 71.434 294.331 72.1578C294.331 73.1078 294.105 73.8995 293.63 74.5554C293.155 75.2114 292.544 75.7316 291.752 76.0935C290.983 76.4554 290.101 76.6364 289.128 76.6364L289.151 76.659Z" fill="#333333"/>
<path d="M302.7 66.4127H310.662V67.8603H302.7V66.4127ZM303.763 58.8353H310.142V64.671H303.763V58.8353ZM304.781 67.0008H306.206C306.07 67.7472 305.912 68.5389 305.731 69.3532C305.572 70.1675 305.392 70.8687 305.233 71.4341H303.763C303.944 70.8234 304.125 70.0996 304.306 69.2853C304.487 68.4711 304.645 67.702 304.781 67.0008ZM304.939 70.0996H308.897V71.4567H304.577L304.939 70.0996ZM308.332 70.0996H309.78C309.78 70.4389 309.757 70.6651 309.734 70.7782C309.644 72.2032 309.531 73.3568 309.418 74.2389C309.305 75.1211 309.192 75.7996 309.033 76.2746C308.897 76.7496 308.717 77.0889 308.513 77.3151C308.355 77.4961 308.174 77.6318 307.97 77.7222C307.767 77.8127 307.518 77.858 307.224 77.8806C306.997 77.8806 306.703 77.8806 306.296 77.8806C305.912 77.8806 305.482 77.8806 305.052 77.8579C305.052 77.6318 305.007 77.4056 304.939 77.1342C304.871 76.8627 304.781 76.6365 304.668 76.4556C305.098 76.5008 305.482 76.5234 305.867 76.5234C306.228 76.5234 306.5 76.5234 306.658 76.5234C306.816 76.5234 306.952 76.5234 307.065 76.5234C307.178 76.5008 307.269 76.433 307.359 76.3199C307.495 76.1841 307.631 75.9127 307.744 75.4829C307.857 75.0532 307.948 74.4198 308.061 73.5829C308.174 72.746 308.242 71.6603 308.332 70.3258V70.077V70.0996ZM305.03 60.102V63.427H308.807V60.102H305.03ZM311.612 62.2508H313.082V67.8603C313.082 68.6294 313.059 69.4437 313.014 70.3484C312.969 71.2532 312.856 72.1579 312.697 73.0853C312.539 74.0127 312.313 74.8949 312.019 75.777C311.725 76.6365 311.34 77.4508 310.843 78.1746C310.752 78.0841 310.639 77.9937 310.481 77.8579C310.345 77.7448 310.187 77.6318 310.028 77.5187C309.87 77.4056 309.734 77.3377 309.599 77.2699C310.209 76.3651 310.662 75.3472 310.933 74.2389C311.205 73.1306 311.386 72.0222 311.476 70.9139C311.567 69.8056 311.589 68.7877 311.589 67.8377V62.2282L311.612 62.2508ZM314.846 70.6425H316.249C316.203 71.8187 316.09 72.8818 315.909 73.8318C315.728 74.7818 315.412 75.5961 314.982 76.3199C314.552 77.0211 313.942 77.6318 313.15 78.1294C313.037 77.9484 312.901 77.7448 312.72 77.5413C312.539 77.3151 312.381 77.1568 312.222 77.0437C312.901 76.6365 313.444 76.1389 313.806 75.5282C314.168 74.9175 314.416 74.2163 314.575 73.402C314.733 72.5877 314.824 71.683 314.869 70.6651L314.846 70.6425ZM312.358 62.2508H321.994V63.6079H312.358V62.2508ZM313.534 65.802L320.139 65.146L320.275 66.3449L313.693 67.0234L313.534 65.802ZM315.864 63.7437H317.312V67.4532C317.312 67.7246 317.334 67.9282 317.38 68.0413C317.425 68.1544 317.583 68.2222 317.809 68.2222H320.184C320.365 68.2222 320.614 68.2222 320.886 68.2222C321.157 68.2222 321.383 68.177 321.542 68.1317C321.542 68.3353 321.564 68.5389 321.587 68.7651C321.587 68.9687 321.632 69.1722 321.655 69.3758C321.519 69.421 321.293 69.4437 321.044 69.4663C320.772 69.4663 320.524 69.4663 320.252 69.4663H317.561C317.108 69.4663 316.746 69.3984 316.497 69.2627C316.249 69.127 316.068 68.9008 315.977 68.6068C315.887 68.3127 315.841 67.9282 315.841 67.4532V63.7663L315.864 63.7437ZM315.977 57.908H317.538V62.9746H315.977V57.908ZM316.724 59.4234H321.994V60.7806H316.724V59.4234ZM318.126 70.6425H319.528V75.7544C319.528 75.7544 319.528 75.8901 319.528 75.958C319.528 76.0258 319.596 76.071 319.664 76.0937C319.755 76.1615 319.913 76.2068 320.139 76.2068H320.886C320.999 76.2068 321.112 76.2068 321.225 76.2068C321.338 76.2068 321.406 76.1615 321.451 76.1163C321.609 76.0258 321.7 75.8675 321.745 75.6413C321.768 75.4603 321.79 75.1889 321.813 74.7818C321.813 74.3746 321.813 73.9449 321.813 73.4472C321.949 73.5829 322.13 73.7187 322.378 73.8318C322.627 73.9675 322.853 74.058 323.057 74.1258C323.057 74.6461 323.012 75.1437 322.989 75.6187C322.944 76.0937 322.899 76.433 322.831 76.6365C322.763 76.8401 322.672 77.0211 322.559 77.1342C322.469 77.2699 322.333 77.3829 322.175 77.496C322.039 77.5639 321.858 77.6092 321.655 77.6318C321.428 77.677 321.225 77.677 321.044 77.677H319.822C319.596 77.677 319.347 77.677 319.121 77.6091C318.895 77.5639 318.691 77.4734 318.533 77.3151C318.375 77.1794 318.262 76.9984 318.194 76.7722C318.126 76.5687 318.103 76.2068 318.103 75.7091V70.6425H318.126ZM321.587 62.2508H321.813L322.084 62.183L323.102 62.4544C322.944 63.1103 322.808 63.7663 322.627 64.4901C322.469 65.1913 322.311 65.7794 322.152 66.277L320.908 65.9829C321.044 65.5306 321.18 64.9651 321.315 64.3318C321.451 63.6758 321.542 63.0651 321.632 62.4996V62.2734L321.587 62.2508Z" fill="#333333"/>
<path d="M331.675 71.2079C331.2 70.6424 330.702 70.0543 330.137 69.4662C329.571 68.8781 329.006 68.3127 328.44 67.7698C327.875 67.2269 327.332 66.7519 326.812 66.3222L328.237 65.0781C328.757 65.5079 329.322 65.9829 329.911 66.5483C330.499 67.0912 331.064 67.6793 331.63 68.2674C332.195 68.8555 332.715 69.421 333.168 69.9638L331.675 71.2079Z" fill="#333333"/>
<path d="M338.913 67.0007C338.913 66.8876 338.845 66.7293 338.777 66.5257C338.709 66.3222 338.642 66.1186 338.574 65.915C338.506 65.7114 338.438 65.5305 338.37 65.3722C338.619 65.3269 338.89 65.1912 339.184 64.965C339.478 64.7388 339.818 64.4448 340.18 64.0829C340.361 63.9019 340.655 63.5853 341.062 63.1781C341.446 62.771 341.899 62.2733 342.374 61.7079C342.849 61.1424 343.346 60.5091 343.867 59.8531C344.364 59.1972 344.839 58.5186 345.292 57.8174L346.943 58.5412C346.241 59.5138 345.495 60.4412 344.726 61.3686C343.957 62.296 343.165 63.1329 342.374 63.9472C341.582 64.7388 340.79 65.4626 339.999 66.1186V66.1864C339.795 66.2995 339.614 66.39 339.456 66.4805C339.297 66.571 339.184 66.6614 339.071 66.7519C338.958 66.8424 338.913 66.9329 338.913 67.0234V67.0007ZM338.913 67.0007V65.7114L340.134 65.0781L354.203 64.4448C354.203 64.671 354.249 64.9198 354.271 65.2138C354.317 65.5079 354.339 65.7341 354.362 65.915C352.168 66.0281 350.268 66.1412 348.684 66.2317C347.101 66.3221 345.744 66.39 344.658 66.4579C343.572 66.5257 342.69 66.571 341.989 66.6162C341.288 66.6614 340.768 66.7067 340.361 66.7519C339.953 66.7971 339.659 66.8198 339.456 66.865C339.252 66.9102 339.071 66.9555 338.913 67.0234V67.0007ZM340.089 68.8555H354.226V78.0841H352.462V70.4388H341.763V78.1293H340.089V68.8555ZM340.926 75.3245H353.321V76.9305H340.926V75.3245ZM349.318 61.2555L350.607 60.3733C351.331 61.0067 352.077 61.7079 352.824 62.4543C353.593 63.2233 354.294 63.9698 354.927 64.7388C355.583 65.5079 356.081 66.1864 356.465 66.7971L355.063 67.815C354.701 67.2043 354.203 66.5031 353.57 65.734C352.937 64.965 352.258 64.1734 351.512 63.3817C350.765 62.59 350.019 61.8888 349.295 61.2329L349.318 61.2555Z" fill="#333333"/>
<path d="M371.009 76.6591C370.24 76.6591 369.516 76.5008 368.861 76.2067C368.205 75.8901 367.639 75.4377 367.142 74.8044C366.667 74.171 366.282 73.3793 366.011 72.4293C365.739 71.4793 365.603 70.371 365.603 69.127C365.603 67.5662 365.762 66.2091 366.078 65.1008C366.395 63.9924 366.847 63.0877 367.39 62.3865C367.956 61.6853 368.589 61.1877 369.313 60.871C370.037 60.5543 370.783 60.396 371.552 60.396C372.412 60.396 373.136 60.5543 373.746 60.871C374.357 61.1877 374.9 61.5722 375.33 62.0472L374.199 63.2912C373.882 62.9067 373.497 62.6127 373.045 62.3865C372.593 62.1603 372.118 62.0472 371.62 62.0472C370.874 62.0472 370.172 62.2734 369.539 62.7031C368.906 63.1329 368.408 63.8793 368.024 64.8972C367.639 65.9151 367.458 67.3175 367.458 69.0817C367.458 70.371 367.594 71.4567 367.865 72.3389C368.137 73.221 368.544 73.8996 369.064 74.3519C369.584 74.8043 370.218 75.0305 370.942 75.0305C371.462 75.0305 371.937 74.8948 372.367 74.6008C372.796 74.3067 373.113 73.9222 373.362 73.4019C373.611 72.8817 373.724 72.2936 373.724 71.5925C373.724 70.8913 373.611 70.3031 373.384 69.8055C373.158 69.3079 372.842 68.9234 372.412 68.652C371.982 68.3805 371.439 68.2448 370.806 68.2448C370.286 68.2448 369.743 68.4031 369.132 68.7424C368.521 69.0817 367.956 69.6472 367.413 70.4615L367.345 68.8781C367.684 68.4484 368.046 68.0639 368.476 67.7246C368.906 67.3853 369.336 67.1591 369.788 66.9781C370.24 66.8198 370.693 66.7293 371.122 66.7293C372.027 66.7293 372.819 66.9103 373.497 67.2722C374.176 67.6341 374.696 68.177 375.058 68.9008C375.42 69.6246 375.601 70.5067 375.601 71.5925C375.601 72.5877 375.397 73.4698 374.968 74.2162C374.561 74.9627 373.995 75.5508 373.294 75.9805C372.593 76.4103 371.824 76.6139 370.987 76.6139L371.009 76.6591Z" fill="#333333"/>
<path d="M379.22 76.3877V74.7138H382.839V63.1329H379.944V61.8662C380.668 61.7305 381.301 61.5722 381.821 61.3912C382.364 61.2103 382.839 60.9841 383.291 60.7126H384.83V74.7365H388.064V76.4103H379.22V76.3877Z" fill="#333333"/>
<path d="M397.044 59.3328H416.406V60.9387H397.044V59.3328ZM398.22 64.128H415.411V77.9935H413.759V65.6435H399.826V78.0613H398.22V64.128ZM399.17 75.1435H414.461V76.6816H399.17V75.1435ZM403.581 60.3054H405.074V65.0102C405.074 65.8471 404.961 66.7066 404.757 67.5887C404.553 68.4709 404.146 69.3078 403.536 70.0995C402.925 70.8911 402.02 71.5923 400.799 72.203C400.731 72.0899 400.663 71.9542 400.527 71.7959C400.392 71.6375 400.278 71.4792 400.143 71.3435C400.007 71.1852 399.894 71.0721 399.781 71.0042C400.889 70.484 401.726 69.8733 402.246 69.2173C402.767 68.5614 403.128 67.8602 403.287 67.1364C403.445 66.4126 403.536 65.6887 403.536 64.9875V60.328L403.581 60.3054ZM408.24 60.2828H409.846V69.1268C409.846 69.4209 409.892 69.6018 409.982 69.6923C410.073 69.7828 410.299 69.8054 410.683 69.8054H413.33C413.511 69.8054 413.646 69.8054 413.714 69.8054C413.782 69.8054 413.827 69.7602 413.85 69.7149C414.031 69.828 414.257 69.9411 414.528 70.0542C414.8 70.1673 415.071 70.2578 415.32 70.303C415.207 70.7102 415.026 70.9816 414.755 71.1399C414.483 71.2982 414.053 71.3887 413.488 71.3887H410.502C409.914 71.3887 409.462 71.3209 409.145 71.2078C408.828 71.0947 408.602 70.8685 408.467 70.5292C408.331 70.2126 408.263 69.7376 408.263 69.1495V60.3054L408.24 60.2828Z" fill="#333333"/>
<path d="M419.188 65.3493L420.093 64.1505C420.522 64.3315 420.997 64.5577 421.472 64.8291C421.947 65.1005 422.422 65.372 422.852 65.6434C423.305 65.9148 423.644 66.1863 423.938 66.4124L423.011 67.7696C422.739 67.5208 422.4 67.2494 421.947 66.9553C421.495 66.6613 421.043 66.3898 420.568 66.0958C420.093 65.8017 419.618 65.5529 419.165 65.3267L419.188 65.3493ZM419.776 76.6136C420.138 76.0481 420.545 75.3696 420.997 74.5779C421.45 73.8089 421.902 72.972 422.332 72.1125C422.784 71.2529 423.191 70.3934 423.576 69.5791L424.843 70.6196C424.481 71.3886 424.119 72.1803 423.689 73.0172C423.259 73.8541 422.852 74.6684 422.445 75.4601C422.015 76.2517 421.608 76.9755 421.224 77.6541L419.776 76.591V76.6136ZM420.364 59.4005L421.337 58.2244C421.767 58.4506 422.219 58.6994 422.694 58.9708C423.169 59.2422 423.644 59.5363 424.074 59.8077C424.503 60.0791 424.865 60.3505 425.114 60.622L424.119 61.9339C423.847 61.6625 423.508 61.391 423.078 61.097C422.649 60.8029 422.196 60.4863 421.721 60.1922C421.246 59.8982 420.794 59.6267 420.342 59.3779L420.364 59.4005ZM436.899 63.6756L438.278 64.2863C437.577 64.8743 436.74 65.3946 435.79 65.8696C434.84 66.3446 433.777 66.7517 432.646 67.091C431.515 67.4529 430.362 67.7696 429.186 68.0184C428.009 68.2672 426.856 68.4934 425.725 68.697C425.68 68.5839 425.612 68.4256 425.521 68.2672C425.431 68.1089 425.318 67.9279 425.205 67.7696C425.091 67.6113 424.978 67.4755 424.888 67.3624C425.996 67.2267 427.15 67.0684 428.303 66.8422C429.457 66.6386 430.588 66.3672 431.651 66.0732C432.737 65.7791 433.732 65.4172 434.614 65.0327C435.519 64.6255 436.265 64.1958 436.876 63.6982L436.899 63.6756ZM430.656 74.8267L431.877 75.8672C431.289 76.1613 430.656 76.4553 429.932 76.7267C429.208 76.9982 428.53 77.2922 427.851 77.541C427.172 77.7898 426.516 78.0387 425.906 78.2648C425.838 78.0839 425.725 77.8803 425.612 77.6541C425.476 77.4279 425.363 77.2244 425.25 77.066C425.793 76.8625 426.403 76.6362 427.082 76.3648C427.761 76.116 428.417 75.8446 429.072 75.5732C429.706 75.3017 430.249 75.0529 430.678 74.7815L430.656 74.8267ZM428.778 63.6982L430.022 64.1053C429.593 64.5577 429.027 65.0101 428.371 65.4625C427.715 65.9148 427.059 66.2994 426.426 66.5934C426.336 66.4803 426.177 66.322 425.974 66.1184C425.77 65.9148 425.612 65.7565 425.453 65.6434C426.064 65.4172 426.675 65.1232 427.286 64.7839C427.896 64.4446 428.371 64.1053 428.756 63.7208L428.778 63.6982ZM425.612 59.8529H438.934V62.9517H437.306V61.0517H427.195V62.9517H425.612V59.8529ZM427.24 67.2946H437.622V74.8041H427.24V67.2946ZM428.077 62.1827H436.446V63.3589H428.077V62.1827ZM428.733 68.3577V69.466H436.13V68.3577H428.733ZM428.733 70.4613V71.5922H436.13V70.4613H428.733ZM428.733 72.6101V73.7636H436.13V72.6101H428.733ZM430.95 58.1339L432.533 57.8398C432.692 58.2244 432.85 58.6315 433.008 59.1065C433.167 59.5815 433.302 59.966 433.393 60.3053L431.764 60.6446C431.696 60.3053 431.606 59.8982 431.425 59.4232C431.266 58.9482 431.108 58.5184 430.95 58.1339ZM431.719 62.6577H433.257V66.3898H431.719V62.6577ZM433.596 75.8672L434.162 74.7815C434.818 75.0077 435.451 75.2565 436.107 75.5279C436.763 75.7993 437.374 76.0482 437.962 76.3196C438.55 76.5684 439.07 76.8172 439.5 77.0208L438.844 78.2196C438.188 77.8577 437.374 77.4732 436.424 77.0434C435.474 76.6136 434.546 76.2291 433.596 75.8446V75.8672Z" fill="#333333"/>
<path d="M93.1118 129.836C127.365 129.836 155.133 102.068 155.133 67.8149C155.133 33.5614 127.365 5.79346 93.1118 5.79346C58.8583 5.79346 31.0904 33.5614 31.0904 67.8149C31.0904 102.068 58.8583 129.836 93.1118 129.836Z" fill="#796955"/>
<path d="M149.478 67.8149C149.478 36.6845 124.242 11.4478 93.1119 11.4478C61.9814 11.4478 36.7447 36.6845 36.7447 67.8149C36.7447 98.9454 61.9815 124.181 93.1119 124.181C124.242 124.181 149.478 98.9453 149.478 67.8149ZM160.788 67.8149C160.788 105.191 130.488 135.491 93.1119 135.491C55.7354 135.491 25.4361 105.191 25.4361 67.8149C25.4361 30.4384 55.7353 0.13916 93.1119 0.13916C130.488 0.139212 160.788 30.4384 160.788 67.8149Z" fill="#F5F1EE"/>
<path d="M70.968 73.9898C71.7371 71.9541 73.3431 70.9362 75.2204 70.9362C77.9347 70.9362 79.3823 72.2934 79.9704 76.2065L81.7573 83.5124C83.4537 84.1005 85.1502 84.4398 87.6156 84.4398C96.5502 84.4398 101.979 78.7398 101.979 68.7874C101.979 58.8351 96.7085 53.6553 88.543 53.6553C84.8109 53.6553 81.6668 54.2434 78.4323 55.5327L76.2157 54.3339L78.1609 25.6755H110.212V33.3208H81.2145L79.9478 51.416C83.4311 50.1493 86.9145 49.7196 90.8276 49.7196C103.924 49.7196 112.089 56.0077 112.089 67.8148C112.089 79.6219 102.906 87.1993 89.0406 87.1993C78.8395 87.1993 72.1216 82.2684 70.9454 73.9446L70.968 73.9898Z" fill="white"/>
<path d="M80.0833 97.3327C78.6357 100.228 75.9214 103.598 72.0535 105.476L71.8499 105.227C74.8583 102.829 77.0524 98.9387 77.9798 95.8399L80.9202 96.9934C80.8071 97.2423 80.6035 97.378 80.0833 97.3327ZM86.1 103.915L87.2762 102.739L89.3345 104.503C89.1762 104.684 88.9274 104.82 88.4297 104.865C88.1809 110.09 87.6833 113.302 86.575 114.274C85.8964 114.862 85.0143 115.134 83.7476 115.134C83.7476 114.546 83.6345 113.98 83.2726 113.686C82.8655 113.324 81.8928 113.053 80.8976 112.872V112.533C81.9833 112.646 83.7476 112.759 84.2678 112.759C84.675 112.759 84.8559 112.714 85.0821 112.533C85.7154 111.967 86.1226 108.914 86.3488 104.571H81.7345C81.2821 108.077 79.925 112.239 73.0262 115.27L72.7547 114.93C78.3868 111.492 79.1786 107.602 79.3821 104.548H75.6726L75.469 103.915H86.1226H86.1ZM84.7655 94.7542L86.8464 96.1339C86.5976 96.4506 85.9416 96.5863 85.15 96.6315C86.3035 99.0744 89.1535 101.427 92.7047 102.558L92.6595 102.829C91.7774 103.101 91.0535 103.87 90.8047 104.684C87.7738 102.829 85.5345 99.9792 84.5618 96.5637H82.119L81.9154 95.9304H83.9964L84.7428 94.7542H84.7655Z" fill="white"/>
<path d="M102.001 101.314C101.933 101.562 101.707 101.676 101.413 101.676H99.0381V104.571H99.7618L100.802 103.123C100.802 103.123 101.978 104.141 102.657 104.865C102.589 105.114 102.363 105.227 102.092 105.227H99.0606V111.741L102.634 110.904L102.702 111.198C101.209 112.035 98.9928 113.166 95.8488 114.591C95.7583 114.885 95.5547 115.066 95.3512 115.134L94.0166 112.804C94.7178 112.668 95.9166 112.42 97.319 112.126V105.227H94.4238L94.2428 104.593H97.2964V101.698H95.7131L95.6226 101.382C95.1928 101.857 94.6952 102.309 94.2202 102.671L93.9488 102.49C95.3738 100.499 96.663 97.0387 97.0702 94.8446L99.8071 95.6815C99.7393 95.9303 99.5357 96.1113 98.9702 96.1339C104.421 98.1018 102.273 101.087 100.802 99.9113C100.486 99.0291 99.7619 97.7625 98.744 96.6315C98.1333 98.0565 97.1154 99.6625 95.9166 101.02H99.1285L100.146 99.6399C100.146 99.6399 101.323 100.612 102.024 101.314H102.001ZM95.0345 110.768C95.2154 109.389 94.9214 107.624 94.5821 106.403L94.8988 106.312C98.1559 109.298 96.3012 112.284 95.0571 110.768H95.0345ZM101.73 107.24C101.232 108.393 100.553 109.705 99.8975 110.61L99.5131 110.474C99.7619 109.321 100.011 107.579 100.169 106.086L102.499 106.788C102.408 107.036 102.159 107.217 101.707 107.217L101.73 107.24ZM105.123 102.671H110.913L111.818 101.585L113.718 103.033C113.582 103.214 113.356 103.349 112.903 103.44V108.71C112.903 108.71 112.27 109.162 111.298 109.162H110.958V108.371H108.855V110.723H110.664L111.773 109.411C111.773 109.411 113.039 110.339 113.831 111.017C113.763 111.266 113.537 111.379 113.243 111.379H108.877V113.799H111.298L112.451 112.329C112.451 112.329 113.74 113.347 114.532 114.093C114.464 114.342 114.261 114.455 113.967 114.455H101.752L101.571 113.822H107V111.402H102.974L102.793 110.768H107V108.416H104.942V109.072C104.942 109.208 104.354 109.547 103.381 109.547H103.064V101.857L105.145 102.693L105.123 102.671ZM114.306 101.087C114.261 101.336 114.035 101.449 113.74 101.449H102.386L102.205 100.816H108.787L109.488 97.8756L112.157 98.4863C112.089 98.7803 111.818 98.9387 111.343 98.9387C110.868 99.4815 110.144 100.183 109.465 100.816H111.071L112.225 99.4363C112.225 99.4363 113.492 100.409 114.306 101.11V101.087ZM108.538 97.2196H110.755L111.908 95.7268C111.908 95.7268 113.22 96.7672 114.012 97.5137C113.944 97.7625 113.718 97.8756 113.424 97.8756H102.77L102.589 97.2423H107.249L107.068 97.1292C107.023 96.3149 106.502 95.4101 105.914 94.9125L106.118 94.7542C109.262 94.9803 109.352 96.6768 108.515 97.2423L108.538 97.2196ZM105.168 100.318C105.213 99.5042 104.874 98.5541 104.602 97.9661L104.829 97.8529C108.923 99.097 106.638 101.789 105.19 100.318H105.168ZM106.932 103.304H104.874V105.249H106.932V103.304ZM104.896 105.883V107.737H106.955V105.883H104.896ZM110.936 105.249V103.304H108.832V105.249H110.936ZM108.832 107.737H110.936V105.883H108.832V107.737Z" fill="white"/>
</svg>
