<svg width="499" height="136" viewBox="0 0 499 136" fill="none" xmlns="http://www.w3.org/2000/svg">
<path d="M498.5 30.6746H0.880981V107.579H498.5V30.6746Z" fill="#F5F1EE"/>
<path d="M235.35 57.8849L237.069 58.2468C236.752 59.5361 236.368 60.8028 235.938 62.0016C235.508 63.2004 235.033 64.354 234.513 65.4171C233.993 66.4802 233.427 67.4302 232.817 68.2444C232.726 68.154 232.59 68.0409 232.41 67.9052C232.229 67.7695 232.025 67.6564 231.844 67.5206C231.663 67.3849 231.482 67.2944 231.369 67.2266C231.98 66.4802 232.523 65.598 233.02 64.6028C233.518 63.6075 233.97 62.5218 234.377 61.3683C234.785 60.2147 235.124 59.0385 235.373 57.8623L235.35 57.8849ZM234.671 62.3635H241.774V64.0147H233.835L234.671 62.3635ZM236.21 63.0873H237.861V78.129H236.21V63.0873ZM243.855 57.8849L245.506 58.2242C245.189 59.4909 244.827 60.7576 244.42 61.979C243.99 63.2004 243.538 64.354 243.018 65.4171C242.498 66.4802 241.955 67.4075 241.344 68.2218C241.254 68.1314 241.118 68.0182 240.96 67.8825C240.779 67.7468 240.598 67.6337 240.439 67.498C240.258 67.3849 240.1 67.2945 239.964 67.204C240.552 66.4576 241.095 65.5754 241.593 64.5802C242.09 63.5849 242.52 62.5218 242.905 61.3683C243.289 60.2147 243.606 59.0611 243.877 57.8623L243.855 57.8849ZM243.629 62.3635H251.93V64.0147H242.814L243.629 62.3635ZM246.886 62.9968H248.582V75.9575C248.582 76.4778 248.514 76.8849 248.379 77.179C248.243 77.4504 247.994 77.6766 247.61 77.8123C247.27 77.948 246.795 78.0385 246.185 78.0611C245.574 78.0837 244.827 78.1063 243.968 78.1063C243.923 77.8575 243.855 77.5635 243.742 77.2468C243.629 76.9302 243.516 76.6135 243.38 76.3647C243.855 76.3647 244.285 76.3873 244.692 76.4099C245.099 76.4099 245.461 76.4099 245.777 76.4099C246.094 76.4099 246.298 76.4099 246.433 76.4099C246.614 76.4099 246.75 76.3647 246.818 76.2968C246.886 76.229 246.908 76.1159 246.908 75.9575V63.0194L246.886 62.9968Z" fill="#333333"/>
<path d="M258.195 64.6939L259.236 65.1236C259.009 65.8927 258.738 66.7069 258.421 67.5438C258.105 68.3807 257.743 69.195 257.381 70.0093C256.996 70.8236 256.612 71.5927 256.182 72.2939C255.775 72.995 255.345 73.6057 254.915 74.1034C254.825 73.8772 254.689 73.6284 254.531 73.3343C254.373 73.0403 254.214 72.7915 254.056 72.5879C254.463 72.1581 254.87 71.6153 255.277 71.0046C255.684 70.3938 256.069 69.7153 256.431 68.9915C256.815 68.2676 257.155 67.5438 257.449 66.7974C257.765 66.051 258.014 65.3498 258.195 64.6712V64.6939ZM254.395 64.1057H262.99V65.6438H254.395V64.1057ZM261.633 58.2022L262.651 59.5141C261.973 59.7855 261.203 60.0117 260.367 60.2379C259.507 60.4641 258.625 60.645 257.72 60.826C256.815 60.9843 255.933 61.1427 255.074 61.2557C255.051 61.0748 254.983 60.8712 254.893 60.6224C254.802 60.3736 254.712 60.17 254.621 59.9891C255.436 59.8534 256.295 59.6724 257.155 59.5141C258.037 59.3331 258.851 59.1296 259.643 58.9034C260.435 58.6772 261.091 58.451 261.633 58.2022ZM258.105 59.7177H259.733V78.0843H258.105V59.7177ZM259.62 65.9379C259.779 66.0962 259.982 66.3676 260.299 66.7296C260.593 67.0915 260.909 67.476 261.249 67.9058C261.588 68.3129 261.905 68.72 262.176 69.1046C262.47 69.4891 262.674 69.7379 262.787 69.9188L261.769 71.1855C261.633 70.9141 261.452 70.5748 261.181 70.1677C260.932 69.7605 260.638 69.3081 260.344 68.8557C260.05 68.4034 259.756 67.9736 259.485 67.5891C259.213 67.1819 258.987 66.8879 258.828 66.6843L259.598 65.9831L259.62 65.9379ZM262.719 72.2034L274.436 70.326L274.684 71.8414L262.968 73.7867L262.719 72.2034ZM263.624 66.1188L264.664 65.1462C265.139 65.4177 265.614 65.7569 266.135 66.1188C266.655 66.4807 267.13 66.8653 267.56 67.2272C267.989 67.6117 268.351 67.951 268.623 68.2677L267.514 69.3534C267.243 69.0367 266.904 68.6748 266.474 68.2903C266.044 67.9057 265.569 67.5212 265.071 67.1367C264.574 66.7522 264.099 66.4129 263.624 66.1188ZM264.506 60.3962L265.569 59.4236C265.999 59.695 266.451 60.0117 266.926 60.3736C267.379 60.7355 267.808 61.0748 268.215 61.4593C268.6 61.8212 268.939 62.1605 269.188 62.4772L268.034 63.5403C267.808 63.2462 267.514 62.907 267.13 62.5451C266.745 62.1605 266.316 61.7986 265.863 61.4141C265.411 61.0296 264.958 60.7129 264.529 60.4189L264.506 60.3962ZM270.206 57.8855H271.834V78.1069H270.206V57.8855Z" fill="#333333"/>
<path d="M280.679 57.8854L282.398 58.2473C282.081 59.5366 281.696 60.8033 281.267 62.0021C280.837 63.2009 280.362 64.3545 279.842 65.4175C279.321 66.4806 278.756 67.4306 278.145 68.2449C278.055 68.1545 277.919 68.0414 277.738 67.9057C277.557 67.7699 277.354 67.6569 277.173 67.5211C276.992 67.3854 276.811 67.2949 276.698 67.2271C277.308 66.4806 277.851 65.5985 278.349 64.6033C278.846 63.608 279.299 62.5223 279.706 61.3688C280.113 60.2152 280.452 59.039 280.701 57.8628L280.679 57.8854ZM280 62.364H287.102V64.0152H279.163L280 62.364ZM281.538 63.0878H283.189V78.1295H281.538V63.0878ZM289.183 57.8854L290.835 58.2247C290.518 59.4914 290.156 60.758 289.749 61.9795C289.319 63.2009 288.867 64.3545 288.346 65.4175C287.826 66.4806 287.283 67.408 286.673 68.2223C286.582 68.1318 286.446 68.0187 286.288 67.883C286.107 67.7473 285.926 67.6342 285.768 67.4985C285.587 67.3854 285.429 67.2949 285.293 67.2045C285.881 66.458 286.424 65.5759 286.921 64.5807C287.419 63.5854 287.849 62.5223 288.233 61.3688C288.618 60.2152 288.934 59.0616 289.206 57.8628L289.183 57.8854ZM288.957 62.364H297.258V64.0152H288.143L288.957 62.364ZM292.214 62.9973H293.911V75.958C293.911 76.4783 293.843 76.8854 293.707 77.1794C293.571 77.4509 293.323 77.6771 292.938 77.8128C292.599 77.9485 292.124 78.039 291.513 78.0616C290.902 78.0842 290.156 78.1068 289.296 78.1068C289.251 77.858 289.183 77.564 289.07 77.2473C288.957 76.9307 288.844 76.614 288.708 76.3652C289.183 76.3652 289.613 76.3878 290.02 76.4104C290.427 76.4104 290.789 76.4104 291.106 76.4104C291.423 76.4104 291.626 76.4104 291.762 76.4104C291.943 76.4104 292.079 76.3652 292.146 76.2973C292.214 76.2294 292.237 76.1164 292.237 75.958V63.0199L292.214 62.9973Z" fill="#333333"/>
<path d="M300.086 60.102H319.47V61.6627H300.086V60.102ZM301.285 63.9925H317.186V65.508H302.958V78.1068H301.285V63.9698V63.9925ZM304.157 72.5198H315.444V73.8996H304.157V72.5198ZM304.745 68.946H314.924V70.2806H304.745V68.946ZM305.741 66.2544L307.03 65.8472C307.324 66.2318 307.595 66.6615 307.867 67.1591C308.138 67.6568 308.319 68.0865 308.432 68.4484L307.052 68.9234C306.939 68.5615 306.781 68.1318 306.532 67.6115C306.283 67.0913 306.012 66.6615 305.741 66.2544ZM308.862 57.908H310.694V65.0103H308.862V57.908ZM308.93 69.5794H310.513V77.7222H308.93V69.5794ZM312.458 65.802L313.883 66.2318C313.612 66.8425 313.295 67.4306 312.979 68.0413C312.662 68.652 312.345 69.1722 312.051 69.6246L310.83 69.2175C311.011 68.9008 311.214 68.5389 311.418 68.1317C311.621 67.7246 311.802 67.3175 311.983 66.9103C312.164 66.5032 312.323 66.1187 312.436 65.7794L312.458 65.802ZM316.643 63.9925H318.317V76.2068C318.317 76.6818 318.249 77.0663 318.113 77.3151C317.977 77.5639 317.729 77.7675 317.367 77.8806C317.005 77.9937 316.507 78.0615 315.874 78.1068C315.241 78.1294 314.471 78.152 313.589 78.152C313.567 77.9258 313.476 77.677 313.363 77.4056C313.25 77.1341 313.137 76.8853 313.001 76.6818C313.476 76.6818 313.929 76.7044 314.336 76.7044C314.766 76.7044 315.127 76.7044 315.467 76.7044C315.783 76.7044 316.01 76.7044 316.123 76.7044C316.326 76.7044 316.462 76.6591 316.53 76.5913C316.598 76.5234 316.62 76.4103 316.62 76.2294V64.0151L316.643 63.9925Z" fill="#333333"/>
<path d="M324.22 67.0007C324.22 66.8876 324.152 66.7293 324.085 66.5257C324.017 66.3222 323.949 66.1186 323.881 65.915C323.813 65.7114 323.745 65.5305 323.677 65.3722C323.926 65.3269 324.198 65.1912 324.492 64.965C324.786 64.7388 325.125 64.4448 325.487 64.0829C325.668 63.9019 325.962 63.5853 326.369 63.1781C326.754 62.771 327.206 62.2733 327.681 61.7079C328.156 61.1424 328.654 60.5091 329.174 59.8531C329.672 59.1972 330.147 58.5186 330.599 57.8174L332.25 58.5412C331.549 59.5138 330.802 60.4412 330.033 61.3686C329.264 62.296 328.473 63.1329 327.681 63.9472C326.889 64.7388 326.098 65.4626 325.306 66.1186V66.1864C325.102 66.2995 324.921 66.39 324.763 66.4805C324.605 66.571 324.492 66.6614 324.379 66.7519C324.266 66.8424 324.22 66.9329 324.22 67.0234V67.0007ZM324.22 67.0007V65.7114L325.442 65.0781L339.511 64.4448C339.511 64.671 339.556 64.9198 339.579 65.2138C339.624 65.5079 339.647 65.7341 339.669 65.915C337.475 66.0281 335.575 66.1412 333.992 66.2317C332.408 66.3221 331.051 66.39 329.966 66.4579C328.88 66.5257 327.998 66.571 327.296 66.6162C326.595 66.6614 326.075 66.7067 325.668 66.7519C325.261 66.7971 324.967 66.8198 324.763 66.865C324.56 66.9102 324.379 66.9555 324.22 67.0234V67.0007ZM325.374 68.8555H339.511V78.0841H337.746V70.4388H327.048V78.1293H325.374V68.8555ZM326.211 75.3245H338.606V76.9305H326.211V75.3245ZM334.625 61.2555L335.914 60.3733C336.638 61.0067 337.385 61.7079 338.131 62.4543C338.9 63.2233 339.601 63.9698 340.235 64.7388C340.891 65.5079 341.388 66.1864 341.773 66.7971L340.37 67.815C340.008 67.2043 339.511 66.5031 338.877 65.734C338.244 64.965 337.566 64.1734 336.819 63.3817C336.073 62.59 335.326 61.8888 334.602 61.2329L334.625 61.2555Z" fill="#333333"/>
<path d="M348.717 64.6937L349.757 65.1008C349.531 65.8698 349.26 66.6841 348.966 67.5211C348.649 68.358 348.31 69.1722 347.925 69.9865C347.54 70.8008 347.156 71.5698 346.726 72.271C346.319 72.9722 345.889 73.5829 345.482 74.0806C345.369 73.8544 345.256 73.6056 345.075 73.3115C344.917 73.0175 344.758 72.7687 344.623 72.5651C345.007 72.1353 345.414 71.5925 345.821 70.9818C346.229 70.3711 346.613 69.6925 346.975 68.9687C347.36 68.2449 347.676 67.521 347.97 66.7746C348.264 66.0282 348.513 65.327 348.717 64.6484V64.6937ZM351.861 58.202L353.014 59.4687C352.358 59.7401 351.635 59.9663 350.798 60.1925C349.961 60.396 349.101 60.5996 348.196 60.7353C347.292 60.8711 346.432 61.0068 345.595 61.1199C345.573 60.9389 345.505 60.7353 345.392 60.4865C345.279 60.2377 345.188 60.0342 345.098 59.8532C345.889 59.7175 346.704 59.5818 347.541 59.4234C348.377 59.2651 349.192 59.0841 349.938 58.8806C350.685 58.677 351.318 58.4508 351.838 58.2246L351.861 58.202ZM345.211 64.0151H352.72V65.5532H345.211V64.0151ZM348.604 59.7175H350.21V78.0841H348.604V59.7175ZM350.074 66.8199C350.21 66.933 350.413 67.1365 350.707 67.4306C351.001 67.7246 351.295 68.0187 351.635 68.3579C351.974 68.6972 352.29 69.0139 352.562 69.3079C352.833 69.602 353.037 69.8056 353.127 69.9413L352.132 71.2306C351.996 71.0044 351.815 70.7329 351.567 70.3936C351.318 70.0544 351.046 69.6925 350.775 69.3079C350.481 68.9234 350.21 68.5841 349.938 68.2448C349.689 67.9056 349.463 67.6568 349.282 67.4532L350.051 66.7972L350.074 66.8199ZM356.565 74.7139L357.968 75.5508C357.538 75.9127 357.018 76.252 356.407 76.5913C355.819 76.9306 355.186 77.2472 354.552 77.5187C353.919 77.7901 353.286 78.0389 352.698 78.2199C352.562 78.0615 352.404 77.8806 352.177 77.677C351.951 77.4734 351.77 77.2925 351.612 77.1568C352.223 76.9758 352.833 76.7496 353.467 76.4782C354.1 76.2067 354.688 75.9127 355.231 75.6187C355.774 75.3246 356.204 75.0079 356.543 74.7139H356.565ZM352.63 63.6306H365.229V64.8068H352.63V63.6306ZM353.286 59.1068H364.686V60.2603H353.286V59.1068ZM353.783 61.3687H364.098V62.4544H353.783V61.3687ZM354.077 65.8925H363.962V74.6234H354.077V65.8925ZM355.593 67.0234V68.4258H362.401V67.0234H355.593ZM355.593 69.5115V70.9365H362.401V69.5115H355.593ZM355.593 72.0222V73.4698H362.401V72.0222H355.593ZM358.013 57.908H359.642V64.6032H358.013V57.908ZM360.049 75.6187L361.18 74.7817C361.677 75.0532 362.175 75.3472 362.695 75.6639C363.216 75.9806 363.713 76.2746 364.188 76.5687C364.663 76.8627 365.07 77.1341 365.409 77.3603L363.962 78.1746C363.645 77.9484 363.283 77.6996 362.854 77.4056C362.424 77.1115 361.971 76.8175 361.496 76.5008C361.021 76.1842 360.546 75.8901 360.071 75.6413L360.049 75.6187Z" fill="#333333"/>
<path d="M368.305 61.346H387.259V65.9829H385.744V62.5222H369.797V65.9829H368.327V61.346H368.305ZM369.413 58.79H386.106V59.9888H369.413V58.79ZM370.295 66.5031C371.019 66.4127 371.878 66.2996 372.806 66.1638C373.756 66.0281 374.728 65.8924 375.769 65.7341L375.837 66.8877C374.932 67.046 374.027 67.2043 373.145 67.3626C372.263 67.521 371.426 67.6567 370.68 67.7924L370.295 66.5257V66.5031ZM370.408 68.7424H371.992V76.1388H370.408V68.7424ZM370.838 64.015L371.336 63.0424C371.833 63.1103 372.353 63.2233 372.919 63.3591C373.484 63.4948 374.005 63.6305 374.525 63.7888C375.045 63.9245 375.475 64.0829 375.792 64.2186L375.294 65.3043C374.977 65.146 374.547 64.9877 374.05 64.8293C373.53 64.671 372.987 64.5127 372.421 64.3769C371.856 64.2412 371.336 64.1055 370.815 64.015H370.838ZM371.2 71.321H384.409V72.4067H371.2V71.321ZM371.245 68.7424H385.246V74.8722H371.245V73.6734H383.618V69.9186H371.245V68.7198V68.7424ZM376.9 59.0841H378.506V67.0007H376.9V59.0841ZM376.923 67.5888H378.506V75.5508C378.506 75.9579 378.619 76.2067 378.823 76.3424C379.026 76.4781 379.478 76.546 380.157 76.546H385.043C385.427 76.546 385.699 76.4781 385.902 76.3424C386.083 76.2067 386.242 75.9579 386.332 75.596C386.422 75.2341 386.468 74.6912 386.513 73.9674C386.694 74.0805 386.943 74.1936 387.214 74.3067C387.486 74.4198 387.734 74.5103 387.961 74.5555C387.893 75.415 387.757 76.071 387.599 76.5686C387.44 77.0436 387.146 77.3829 386.784 77.5639C386.4 77.7448 385.857 77.8353 385.179 77.8353H380.112C379.297 77.8353 378.664 77.7674 378.212 77.6543C377.737 77.5186 377.42 77.2924 377.239 76.9531C377.058 76.6138 376.968 76.1388 376.968 75.5281V67.5662L376.923 67.5888ZM379.456 66.7293L379.931 65.6662C380.496 65.7341 381.13 65.8246 381.786 65.9377C382.442 66.0734 383.098 66.2091 383.708 66.3448C384.319 66.4805 384.839 66.6388 385.269 66.7746L384.817 67.9508C384.409 67.815 383.889 67.6567 383.278 67.4984C382.668 67.34 382.034 67.2043 381.356 67.046C380.7 66.9103 380.067 66.7972 379.456 66.7067V66.7293ZM384.048 62.9745L384.794 63.9924C384.364 64.1734 383.867 64.3317 383.346 64.49C382.826 64.6483 382.283 64.7841 381.74 64.9198C381.198 65.0555 380.722 65.146 380.27 65.2138L379.659 64.3317C380.089 64.2412 380.587 64.1281 381.13 63.9472C381.673 63.7888 382.193 63.6079 382.713 63.4496C383.233 63.2686 383.686 63.1103 384.048 62.9972V62.9745Z" fill="#333333"/>
<path d="M94.5917 129.836C128.845 129.836 156.613 102.068 156.613 67.8149C156.613 33.5614 128.845 5.79346 94.5917 5.79346C60.3382 5.79346 32.5703 33.5614 32.5703 67.8149C32.5703 102.068 60.3382 129.836 94.5917 129.836Z" fill="#796955"/>
<path d="M150.958 67.8149C150.958 36.6845 125.722 11.4478 94.5918 11.4478C63.4613 11.4478 38.2246 36.6845 38.2246 67.8149C38.2246 98.9454 63.4614 124.181 94.5918 124.181C125.722 124.181 150.958 98.9453 150.958 67.8149ZM162.268 67.8149C162.268 105.191 131.968 135.491 94.5918 135.491C57.2153 135.491 26.916 105.191 26.916 67.8149C26.916 30.4384 57.2153 0.13916 94.5918 0.13916C131.968 0.139212 162.268 30.4384 162.268 67.8149Z" fill="#F5F1EE"/>
<path d="M58.5596 85.91V83.4445L71.5655 82.1778L71.7464 66.1183V30.9231L60.2786 32.4612V29.6564L80.5001 24.8159L81.6989 25.7433L81.3595 39.2695V66.1409C81.3595 71.4112 81.4501 76.7719 81.6084 82.2004L93.9358 83.4671V85.9326H58.5822L58.5596 85.91Z" fill="white"/>
<path d="M96.3108 80.2101C101.581 74.4196 106.942 68.6517 111.104 64.1505C120.038 54.6279 124.2 48.0005 124.2 39.9255C124.2 31.8505 119.857 27.0779 112.732 27.0779C110.945 27.0779 109.249 27.3267 107.462 28.0053L105.494 35.922C104.635 40.1743 102.78 41.3731 100.473 41.3731C98.5953 41.3731 96.9894 40.2648 96.3108 38.3196C97.3286 29.2267 106.082 24.3862 115.786 24.3862C127.932 24.3862 133.971 30.6743 133.971 40.2874C133.971 48.4529 128.272 55.4196 113.908 67.2267C111.194 69.5112 106.354 73.8541 101.581 78.2874H136.098V85.9327H96.3108V80.2327V80.2101Z" fill="white"/>
<path d="M80.9072 97.3327C79.4596 100.228 76.7452 103.598 72.8774 105.476L72.6738 105.227C75.6822 102.829 77.8763 98.9387 78.8036 95.8399L81.7441 96.9934C81.631 97.2423 81.4274 97.378 80.9072 97.3327ZM86.9239 103.915L88.1 102.739L90.1584 104.503C90 104.684 89.7512 104.82 89.2536 104.865C89.0048 110.09 88.5072 113.302 87.3989 114.274C86.7203 114.862 85.8381 115.134 84.5715 115.134C84.5715 114.546 84.4584 113.98 84.0965 113.686C83.6893 113.324 82.7167 113.053 81.7214 112.872V112.533C82.8072 112.646 84.5715 112.759 85.0917 112.759C85.4989 112.759 85.6798 112.714 85.906 112.533C86.5393 111.967 86.9465 108.914 87.1501 104.571H82.5358C82.0834 108.077 80.7262 112.239 73.8048 115.27L73.5334 114.93C79.1655 111.492 79.9572 107.602 80.1607 104.548H76.4739L76.2702 103.915H86.9239ZM85.5667 94.7542L87.6476 96.1339C87.3988 96.4506 86.7429 96.5863 85.9512 96.6315C87.1048 99.0744 89.9548 101.427 93.506 102.558L93.4607 102.829C92.5786 103.101 91.8548 103.87 91.606 104.684C88.575 102.829 86.3358 99.9792 85.3632 96.5637H82.9203L82.7167 95.9304H84.7977L85.5441 94.7542H85.5667Z" fill="white"/>
<path d="M102.825 101.314C102.757 101.562 102.531 101.676 102.237 101.676H99.862V104.571H100.586L101.626 103.123C101.626 103.123 102.802 104.141 103.481 104.865C103.413 105.114 103.187 105.227 102.916 105.227H99.8846V111.741L103.458 110.904L103.526 111.198C102.033 112.035 99.8394 113.166 96.6727 114.591C96.5822 114.885 96.3786 115.066 96.1751 115.134L94.8406 112.804C95.5418 112.668 96.7405 112.42 98.1429 112.126V105.227H95.2477L95.0668 104.593H98.1203V101.698H96.537L96.4465 101.382C96.0167 101.857 95.5191 102.309 95.0441 102.671L94.7727 102.49C96.1977 100.499 97.487 97.0387 97.8941 94.8446L100.631 95.6815C100.563 95.9303 100.36 96.1113 99.7941 96.1339C105.245 98.1018 103.097 101.087 101.626 99.9113C101.31 99.0291 100.586 97.7625 99.5679 96.6315C98.9572 98.0565 97.9394 99.6625 96.7406 101.02H99.9524L100.97 99.6399C100.97 99.6399 102.146 100.612 102.848 101.314H102.825ZM95.8358 110.768C96.0168 109.389 95.7227 107.624 95.3834 106.403L95.7001 106.312C98.9572 109.298 97.1024 112.284 95.8584 110.768H95.8358ZM102.531 107.24C102.033 108.393 101.355 109.705 100.699 110.61L100.314 110.474C100.563 109.321 100.812 107.579 100.97 106.086L103.3 106.788C103.21 107.036 102.961 107.217 102.508 107.217L102.531 107.24ZM105.924 102.671H111.714L112.619 101.585L114.519 103.033C114.383 103.214 114.157 103.349 113.705 103.44V108.71C113.705 108.71 113.072 109.162 112.099 109.162H111.76V108.371H109.656V110.723H111.466L112.574 109.411C112.574 109.411 113.818 110.339 114.632 111.017C114.564 111.266 114.338 111.379 114.044 111.379H109.679V113.799H112.099L113.252 112.329C113.252 112.329 114.542 113.347 115.333 114.093C115.266 114.342 115.062 114.455 114.768 114.455H102.554L102.373 113.822H107.801V111.402H103.775L103.594 110.768H107.801V108.416H105.743V109.072C105.743 109.208 105.155 109.547 104.182 109.547H103.866V101.857L105.947 102.693L105.924 102.671ZM115.13 101.087C115.085 101.336 114.858 101.449 114.564 101.449H103.21L103.029 100.816H109.611L110.312 97.8756L112.981 98.4863C112.913 98.7803 112.642 98.9387 112.167 98.9387C111.692 99.4815 110.968 100.183 110.289 100.816H111.895L113.049 99.4363C113.049 99.4363 114.316 100.409 115.13 101.11V101.087ZM109.362 97.2196H111.579L112.732 95.7268C112.732 95.7268 114.044 96.7672 114.836 97.5137C114.768 97.7625 114.542 97.8756 114.248 97.8756H103.594L103.413 97.2423H108.073L107.892 97.1292C107.846 96.3149 107.326 95.4101 106.738 94.9125L106.942 94.7542C110.086 94.9803 110.176 96.6768 109.339 97.2423L109.362 97.2196ZM105.992 100.318C106.037 99.5042 105.698 98.5541 105.426 97.9661L105.652 97.8529C109.747 99.097 107.462 101.789 106.014 100.318H105.992ZM107.756 103.304H105.698V105.249H107.756V103.304ZM105.698 105.883V107.737H107.756V105.883H105.698ZM111.76 105.249V103.304H109.656V105.249H111.76ZM109.656 107.737H111.76V105.883H109.656V107.737Z" fill="white"/>
</svg>
