<?xml version="1.0" encoding="UTF-8"?>
<svg id="_圖層_1" data-name="圖層_1" xmlns="http://www.w3.org/2000/svg" version="1.1" viewBox="0 0 420 44">
  <!-- Generator: Adobe Illustrator 29.4.0, SVG Export Plug-In . SVG Version: 2.1.0 Build 152)  -->
  <defs>
    <style>
      .st0 {
        fill: #3e3a39;
      }
    </style>
  </defs>
  <path class="st0" d="M15.4,27.8c-1.8,1.5-6.4,4-10.5,6.1-1.2.6-1.4.5-3.9-2.4,2.3-.6,4.2-1.1,5.9-1.7v-13.9h-3.7c-.7,0-1-.6-1.6-2.5h5.3V2l2.8.6c.5,0,.7.4.7.8v10.1h1.3c.7,0,1.3-.5,2-1.3,1,.9,1.8,1.5,1.8,2.2,0,1-.9,1.7-2.4,1.7h-2.7v12.7c1.4-.5,2.8-1,4.4-1.6.5-.2,1,.4.5.8h0ZM40.1,42.5c-2.4-1.1-5.5-3.9-7.8-7.9-3,3.2-6.9,6.2-11.4,7.5-.5.1-1.1-.5-.5-.8,4.7-3,8.1-6,10.6-9.4,0-.1-.1-.3-.2-.5-1.1-3.1-2-9.6-2.2-18.9h-8.6v6.2h1.8c.7,0,1.1-.2,1.7-.9h0c0,0,2.3.7,2.3.7,2.4.8,1.3,1.6,1.2,2.5-.1,2.2.3,13.8-4.5,15.5-1.8.6-2-1-4.1-2.5-.5-.3,0-.7.3-.6,2.8.3,2.9.2,3.5-1.4.8-1.8,1.2-6.5,1.3-10.9h-3.6c-.1,4.5-.9,9.7-2.5,12.9-2,4-5,7.2-8.9,8.9-.5.2-1-.4-.6-.7,3.4-2.9,5.7-6.2,7.1-10.8,1.8-5.6,1.5-13.9,1.3-22.2l2.9.6c.4,0,.8.4.8.6h0c0,0,8.5,0,8.5,0h0c0-2.7,0-5.8,0-9.2l2.9.7c.5.1.7.4.7.7,0,2.8,0,5.4,0,7.5v.3h5.8c.9,0,1.4-.6,2.1-1.4,1,1,1.7,1.5,1.7,2.2,0,1.2-1,1.5-2.5,1.5h-7.1c.2,7.7.6,12.6,1.3,15.4,1.6-3,2.8-6.5,3.8-10.8l2.1,1.1c.9.5,1.1.6.7,1.8-.9,2.9-2.4,7.6-5.3,11.5,1.1,2.2,2.5,4.4,4.4,5.7.3.2.4,0,.5-.1.3-.3.6-1.5,1.7-4.3.1-.4.7-.1.7.2-.2,4.4-.3,5.5.4,7.5.5,1.6,0,3-2.2,1.9h0ZM33.3,4c-.3-.3,0-.9.6-.7,2,.6,3.5,1.2,4.5,2.2,2.1,2-.4,5-2.1,2.8-1.1-1.4-1.8-2.8-3-4.3h0Z"/>
  <path class="st0" d="M57,32.7c-1.3.2-1.9-1-3.4-2.5-.4-.4-.2-.7.3-.6,1.7.3,2.2.3,2.6-.2.7-.8,1.1-1.8,1-4.5,0-2.8-1.3-5.1-3.4-7.8-.3-.3-.3-.6,0-1.4,1.3-3.1,2.2-6.3,3.3-10.1h-4.7v34.7c0,2.2-1.7,2.7-3.5,2.4V2.1l2.7.6c.5.1.8.4.8.5h0c0,0,3.8,0,3.8,0,.8,0,1-.2,1.8-1l2.2,1.5c.9.6.9.9.4,1.8-1.8,3.5-4,8.2-5.6,10.8,8,6.3,5.8,15.8,1.8,16.3h0ZM69,33.3c-1.6,1.7-6.2,6.4-10.9,8.4-.7.3-1.2-.3-.5-.8,3-2.7,6.4-6.4,8.9-10.4l2,1.4c.8.6,1,.8.5,1.4h0ZM58.5,14.7c2.7-3.8,5.2-8.1,7-13.5l1.9,1.2c1.2.7,1.2.8.7,1.8l-.4.6h2.7c.7,0,1.2,0,1.8-.8l1.8,1.3c.8.6.9.7.6,1.6-1.9,6.3-6.4,13.3-13.3,16.8-.6.3-1-.4-.6-.7,2.3-2.1,4.9-4.9,6.3-7.1,1.8-2.9,3.3-6.1,4-9h-4.6c-.3.5-.6,1-1,1.5,1.7.6,2.6,1,3.1,1.5,1.4,1.4-.1,4.1-1.8,2.1-.5-.6-1.2-1.6-2.1-2.6-.6.9-1.3,1.7-2,2.5,1.7.9,2.5,1.3,3.3,2.4,1.1,1.4-.7,4.1-2.2,1.8-.7-1-1.4-2.4-1.9-3.4-.9.9-1.8,1.8-2.8,2.4-.6.5-.9-.2-.6-.7h0ZM76.2,28.2v12.4c0,2-1.8,2.6-3.6,2.4v-14.7h-8.5c-.8,0-1-.5-1.8-2.4h20.6c.8,0,1.2-.5,2.1-1.4.9,1,1.7,1.5,1.7,2.2,0,1.1-1,1.6-2.5,1.6h-7.9ZM67.4,19.8h10.1c.7,0,1.2-.4,2-1.3,1,1,1.7,1.5,1.7,2.1,0,1.1-.9,1.6-2.3,1.6h-9.6c-.7,0-.9-.6-1.8-2.4h0ZM89.2,21c-2.7,1.7-2.9,1.8-4.2.8-1.8-1.3-3.2-2.9-4.9-5.3-2.8-3.8-4.2-9.3-5-13.7,1.2-.2,2,0,2.2.6.7,2.6,1.6,5.8,3,8.5,1-1.5,2.1-3.2,2.9-4.9h-3.4c-.6,0-.9-.5-1.7-2.2h4.6c.7,0,1.1-.2,1.8-.9l2,1.8c.8.7.7.9.2,1.4-1.3,1.5-3.4,4-5.7,6,.3.5.6,1,1,1.4,1.8,2.2,4.3,4,7.1,5.7.3.1.6.4,0,.7h0ZM87.5,37.6c1.7,2.3-.4,5.4-2.7,2.3-2.4-3.1-4-5.5-5.7-7.7-.4-.5-.1-1.2.7-.6,2.9,1.7,5.9,3.6,7.7,6.1h0Z"/>
  <path class="st0" d="M103,13.4v3.2c1.6,1.3,3.2,2.5,4.1,3.9,1.8,2.7-.7,5.9-2.5,2.2-.7-1.4-1.2-2.8-1.7-3.9v22c0,1.7-1.7,2.4-3.4,1.9v-22c-1.1,4-2.8,8.1-5.4,10.7-.6.6-1.1.1-.8-.4,2.5-5.2,4.2-10.9,5.2-17.6h-3.3c-.7,0-1-.4-1.8-2.4h6.1V1.1l2.7.5c.4,0,.7.3.7.5v8.9h1.3c.8,0,1.2-.4,2.1-1.3,1.1,1,1.7,1.5,1.7,2.1,0,1.1-.9,1.6-2.6,1.6h-2.5,0ZM134.1,40.4c-2.5,1.2-11,1.4-17.6,1-7.7-.5-8.1-1.2-8.1-8.6V6.3h-.5c-.8,0-1-.5-1.8-2.5h23.8c.9,0,1.3-.5,2.2-1.4,1,1,1.8,1.7,1.8,2.3,0,1.2-1,1.6-2.6,1.6h-19.5v27.5c0,4,.1,4.4,3.5,4.6,7.1.4,10.4.4,14.4,0,1.6-.2,2.1-.5,2.4-1l.3-.5c.2-.3.6-.2.7,0,.3.5.5.8,1.1,1.3.8.6,1,1.7-.1,2.2h0ZM119,35.5v-1.8h-2.8v.4c0,1.2-.8,2.2-2.9,1.9v-14l2.2.5c.4,0,.6.3.7.5h1.2c.7,0,1.1-.2,1.6-.8l2.3.8c1.6.5.6,1.7.6,2.4v8.5c0,1-1,2-2.9,1.7h0ZM119,31.4v-6.2h-2.8v6.2h2.8ZM125.5,18.6h-5.5c0,1.1-1.2,2.2-3.4,1.8V8l2.6.5c.5,0,.8.3.9.6h3.7c.8,0,1.3-.4,1.8-1l2.7.8c1.8.6.8,1.5.8,2.5v7.1c0,1.4-1.7,2.2-3.5,1.8v-1.8ZM125.5,16.3v-4.9h-5.5v4.9h5.5ZM129.3,35.7v-2.1h-2.8v.2c0,1.2-.4,2.4-2.9,2.1v-14l2.3.5c.4,0,.6.3.6.5h1.2c.7,0,1.1-.2,1.6-.8l2.4.8c1.5.5.6,1.8.6,2.5v8.5c0,1.3-.8,2.2-2.9,1.9ZM129.3,31.4v-6.2h-2.8v6.2h2.8Z"/>
  <path class="st0" d="M150.3,22.8v17.5c0,1.8-1.6,2.7-3.5,2.3v-18.6c-1.3.4-2.5.8-3.7,1.2-1.3.5-1.5.3-3.4-2.7,1.4-.2,2.7-.4,3.9-.5,3.1-3.8,5.8-7.9,8.1-13.5l2.1,1.6c.9.6.9.8.5,1.4-2.2,3.3-5.4,7.3-8.6,10.2,2.4-.3,4.5-.7,6.3-1.1-.3-1.1-.6-2.1-.9-2.9-.2-.5.4-.9.7-.6,1.9,1.7,3.4,3.4,4.1,4.9,1.3,2.9-1.5,5.1-2.8,1.9-.3-.7-.5-1.4-.7-2.1-.7.2-1.4.5-2.1.7h0ZM145.4,29.3c-1.2,3.1-2.7,7.5-4.7,10.4-.4.5-1,0-.8-.5,1-3.8,1.8-7.8,2.6-12.4l2.2.9c1.1.5,1.1.6.7,1.6ZM140.8,9.2c-.3-.6,0-1,.6-.7,1,.6,1.8,1.1,2.7,1.7,1.4-2.4,2.8-5.4,3.9-9l2,1.2c1.2.7,1.2.9.7,1.7-1.8,2.7-3.4,4.8-5.4,7,.6.5,1,1,1.4,1.5,2,2.6-.7,5.4-2.8,2.2-1-1.6-2.3-4.1-3.1-5.6h0ZM181.1,39.8c0,1.1-1,1.6-2.8,1.6h-25.1c-.8,0-.9-.6-1.8-2.5h8.5l.9-15.4h-2.4c-.7,0-.9-.6-1.7-2.4h4.3l.9-13.9h-4.7c-.8,0-1-.6-1.8-2.5h14.6c.9,0,1.4-.4,2.1-1.2l3,1.2c1.9.8.6,1.7.5,2.6l-.7,13.7h1c.9,0,1.3-.5,2.2-1.4,1,.9,1.8,1.6,1.8,2.4s-.9,1.5-2.5,1.5h-2.6l-.8,15.4h3c.8,0,1.4-.6,2.2-1.5,1,1,1.8,1.5,1.8,2.4h0ZM152.5,27.1c1.5,1.8,2.8,3.5,3.5,5.6,1,2.9-2.2,5-3,1.9-.6-2.2-1.1-5.1-1.4-7.1,0-.6.4-.9.8-.4h0ZM163.5,38.9h6.8l.7-15.4h-6.6l-1,15.4ZM164.6,21.1h6.5l.6-13.9h-6.3l-.9,13.9Z"/>
  <path class="st0" d="M216.2,31.1l-6.1-6.4-6.1,6.4-2-2,6.2-6.4-6-6.2,2-2,5.9,6.2,5.9-6.2,2,2-6,6.2,6.2,6.4-2,2h0Z"/>
  <path class="st0" d="M240,14.9c-.6,0-.7-.3-1.5-1.9h5.2c.5-1.8.8-3.6,1.2-5.8-1.7,1.4-3.4,2.5-5.1,3.4-.7.4-1.1-.3-.6-.7,2.7-2.6,5.7-6.1,7-8.9l2.1,1.1c1.1.5,1.1.7.7,1.2l-.8,1h9.8c.7,0,1.1-.4,1.8-1.2.8.7,1.6,1.2,1.6,1.9,0,1.1-.9,1.3-2.2,1.3h-13l-.8.7,1.5.6c.7.3,1.1.5,1.2.8h6.3c.8,0,1.2-.3,1.7-.8l2.4.8c2,.6.7,1.6.6,2.2-.1,1-.3,1.8-.4,2.6h1.5c.7,0,1-.4,1.7-1.1.8.7,1.4,1.2,1.4,1.8,0,.9-.8,1.2-2,1.2h-2.8c-.1.8-.3,1.6-.6,2.4,0,.2-.1.5-.2.7h1.2c.6,0,.9-.3,1.7-1.1.8.8,1.4,1.3,1.5,1.8,0,.9-.8,1.1-2.1,1.1h-2.9c-.7,1.8-1.6,2.9-2.8,3.4-1.3.5-2-.8-4.5-1.8-.5-.2-.5-.7.2-.7,2.5.2,2.9.1,3.5-.8h-8.2c0,.1-.1.3-.2.4-.4,1-1.8,1.6-3.7.7.8-2.4,1.5-4.4,2-6.2h-3.2ZM253.9,37.4c-2.6,1.5-8,4.1-13.7,5.2-.7.1-1-.5-.3-.9,3.8-1.9,9.2-5.2,11.6-7.2l2,1.6c.8.6,1,.9.4,1.3h0ZM261.5,32.8v7.8c0,1.8-1.6,2.8-3.9,2.3v-9.6c-4.4.5-8.7.9-11.4,1.2-1.1.1-1.4-.3-3-3,3.2,0,7.1,0,10.9-.1,1.4-.9,3.1-2.2,5-3.6,1.7-1.4,4.2-3.6,5.8-5.4l1.9,1.5c1,.8,1,1.1.3,1.6-2,1.5-5.5,4-9.6,5.8,4-.2,7.7-.5,10.4-.7-.9-.8-1.7-1.5-2.3-2-.6-.6,0-1,.4-.9,3.9,1.1,6.6,2.2,8.1,3.5,2.6,2.1.6,5.2-2,3-.6-.6-1.8-1.5-2.9-2.5-2.1.4-4.8.8-7.8,1.2h0ZM245.7,18h4.9c-.2,0-.4-.3-.6-.5-.5-.5-1.1-1.6-1.7-2.4,0-.1-.1-.2-.1-.3h-1.6c-.3,1-.6,2.1-.9,3.2ZM247.1,12.9h4.4c-.1,0-.2-.2-.3-.3-.4-.5-1.1-1.5-1.6-2.2,0,0,0-.2,0-.3h-1.8c-.1.8-.3,1.8-.6,2.9h0ZM260,22.9c-1.7,1.1-3.7,2.2-6,3.5.4.2.7.5,1,.7,2.2,1.9.2,4.5-2,2.7-1.7-1.4-3.5-3.1-5.1-4.6-.6-.5-.2-1,.5-.8,1.8.5,3,.9,4.1,1.3,1.8-1.6,4.2-4,5.4-5.7l2,1.6c.7.6.9.9.2,1.3h0ZM254.9,14.9h-5c.9.3,1.6.6,2.1,1.1.7.8.6,1.7,0,2.1h2.1c.3-.9.6-2,.8-3.2ZM251.6,10.1c.6.2,1.1.4,1.5.8.6.6.6,1.5.2,2h2c.2-1,.3-1.9.4-2.9h-4.1ZM279.3,20.9l-1.6.9c-1.1.6-1.5,1-2.9,0-2-1.2-3.7-2.3-5.5-4.3-1.9,1.8-3.7,2.9-7.6,4.2-.5.2-1-.5-.4-.8,2.8-1.8,4.5-3,6.4-5.3-1.6-2-2.8-4.3-3.6-7-.9.9-2,1.7-3.1,2.5-.5.3-.9-.2-.5-.6,2.5-3.4,3.8-6.1,5.2-9.3l2,1c1.1.5,1.3.7.7,1.4l-1.2,1.6h8c.6,0,1-.4,1.8-1.2.8.9,1.6,1.2,1.6,2s-.9,1.3-2.2,1.3h-1.1c-.7,2.9-2,5.7-4,8.1,2.2,1.8,4.6,3.2,8.1,4.7.4.1.4.5,0,.7h0ZM273.3,41.8c-2.3-1.4-6.7-4.3-8.8-6-.5-.4-.3-1,.5-.8,5.3,1.3,8.1,2.3,10,3.6,3.1,2.1,1.6,5.2-1.7,3.2ZM271.6,7.4h-6.4c1,2.4,2.2,4.6,3.8,6.2,1.1-1.8,2.1-4,2.6-6.2Z"/>
  <path class="st0" d="M325.2,20.4c0,.9-.9,1.4-2.4,1.4h-7.2v4.8h2.9c.8,0,1.1-.4,1.9-1.2,1,.9,1.8,1.4,1.8,2,0,1-1,1.5-2.6,1.5h-12.5v3.8h10.5c.8,0,1.2-.4,2-1.2.9.9,1.7,1.4,1.7,2.1,0,1-.9,1.5-2.5,1.5h-11.7v5.5c0,2.2-1.7,2.8-3.7,2.4v-8h-12.3c-.7,0-.9-.5-1.8-2.3h14.1v-3.8h-13.9c-.7,0-.9-.5-1.8-2.4h7.2v-4.8h-8.3c-.7,0-.9-.5-1.8-2.4h10.1v-5.2h-5.1c-.6,0-.8-.5-1.7-2.3h29.2c.8,0,1.2-.4,1.9-1.2,1,.9,1.7,1.5,1.7,2.1,0,1-.8,1.4-2.4,1.4h-2.9v5.2h6c.8,0,1.2-.4,1.9-1.2.9.9,1.7,1.5,1.7,2.2h0ZM285,5.3h11.7V1.4l2.9.5c.6.1.8.5.8.6v2.8h9.2V1.4l2.9.5c.6.1.8.4.8.6v2.8h8c1,0,1.3-.4,2.2-1.3,1,1,1.6,1.6,1.6,2.2,0,1-.9,1.5-2.4,1.5h-9.5v1.3c0,1.8-1.9,2.4-3.7,2v-3.3h-9.2v.7c0,2.3-1.7,2.9-3.7,2.5v-3.3h-10c-.7,0-.9-.5-1.8-2.4h0ZM298.5,19.4h4.8v-5.2h-4.8v5.2ZM303.3,26.6v-4.8h-4.8v4.8h4.8ZM311.9,14.2h-4.9v5.2h4.9v-5.2ZM311.9,21.8h-4.9v4.8h4.9v-4.8Z"/>
  <path class="st0" d="M350.3,32c0,1-.7,1.5-2.2,1.5h-6.1v7.1c0,1.9-1.6,2.5-3.4,2.2v-9.3h-6.6c-.9,0-1.1-.4-1.8-2.3h8.4v-4.2h-3.3c-.2,1.5-1.6,2.2-3.3,1.9V11.4l2.6.5c.5.1.7.4.7.6h3.2v-3.3h-6.4c-.8,0-1.1-.4-1.8-2.3h8.2V1.3l2.6.6c.5.1.8.4.8.5v4.5h4.2c.8,0,1.1-.3,1.9-1.2,1,.8,1.7,1.3,1.7,2.1s-.8,1.4-2.3,1.4h-5.5v3.3h1.3c.9,0,1.3-.3,1.9-1l2.5.7c1.8.5.8,1.7.8,2.5v11.5c0,1.8-1.6,2.5-3.3,2.1v-1.5h-3.2v4.2h4.6c.8,0,1.3-.3,2-1.2,1,.9,1.7,1.4,1.7,2.1h0ZM335.4,14.8v3.8h3.2v-3.8h-3.2ZM338.6,24.7v-3.9h-3.2v3.9h3.2ZM342,14.8v3.8h3.2v-3.8h-3.2ZM345.2,24.7v-3.9h-3.2v3.9h3.2ZM370.2,13.2v27.1c0,1.8-1.6,2.3-3.4,2v-3.5h-12.1v1.5c0,2-1.7,2.5-3.4,2.2V9.6l2.7.5c.5,0,.7.5.7.6h4.3V1.7l2.8.6c.4,0,.6.4.6.5v7.9h2.6c.6,0,1.2-.2,1.8-1l2.8,1c1.7.6.6,1.7.6,2.6h0ZM354.7,13.1v10.1h4.3v-10.1h-4.3ZM354.7,36.2h4.3v-10.5h-4.3v10.5ZM362.5,13.1v10.1h4.4v-10.1h-4.4ZM366.8,36.2v-10.5h-4.4v10.5h4.4Z"/>
  <path class="st0" d="M377.1,29.3c2.7-3.8,5-7.5,6.8-12.6.2-.6,1.1-.5,1,0-.5,5.4-2.3,12-3.9,14.3-2.4,3.4-5.8,1.1-3.9-1.7ZM398.9,41.1c-9.5-.2-9.8-1-9.8-8.9V10.4l3.1.7c.6.1.7.4.7,1v21.9c0,2.9.4,3.2,3.9,3.4,3.6.2,6.7,0,8.3-.5.9-.3,1.3-1.4,1.5-2.4l.6-2.9c0-.4.6-.4.7,0,.5,2.7.7,4.3,1.8,5.3,1.4,1.2.8,2.2-.2,2.8-1.9,1.1-6.9,1.6-10.5,1.5h0ZM399.6,11.6c-2.6-3.1-4.6-5.4-8.2-8.9-.5-.5-.2-1.2.5-.9,5.5,2.3,8.4,4.3,10,6.1,2.7,3,.3,6.7-2.2,3.7h0ZM414.4,28.9c-2.2-4.7-4.1-9.5-5.9-12.6-.2-.4.2-1.1.8-.6,4.1,3.5,7.5,8,8.4,10.3,1.8,4.2-1.8,6.2-3.3,3h0Z"/>
</svg>