<?xml version="1.0" encoding="UTF-8"?>
<svg id="_圖層_1" data-name="圖層_1" xmlns="http://www.w3.org/2000/svg" version="1.1" viewBox="0 0 600 34">
  <!-- Generator: Adobe Illustrator 29.4.0, SVG Export Plug-In . SVG Version: 2.1.0 Build 152)  -->
  <defs>
    <style>
      .st0 {
        fill: #3d3a39;
      }

      .st1 {
        fill: #3e3a39;
      }

      .st2 {
        fill: #731620;
      }
    </style>
  </defs>
  <path class="st2" d="M30.5,29.4c5.1-5.3,8.5-9.1,10.3-11.6,1.8-2.5,2.7-4.9,2.7-7.2s-.6-3.6-1.7-4.7c-1.1-1.1-2.4-1.6-4-1.6s-3.4.7-4.6,2.1c-.6.8-1.3,1.9-1.9,3.5l-.9-.2c.7-3.2,1.9-5.4,3.5-6.6,1.7-1.2,3.4-1.9,5.3-1.9s4.2.7,5.7,2.2c1.5,1.5,2.2,3.3,2.2,5.4s-.8,4.5-2.4,6.6c-1.6,2.1-5,5.8-10.2,11.2h9.5c1.3,0,2.3-.2,2.8-.5.5-.3,1.2-1.1,1.8-2.3l.5.2-2.3,5.8h-16.6v-.5h0Z"/>
  <path class="st2" d="M52.2,15.4h10.5v2.7h-10.5v-2.7Z"/>
  <path class="st2" d="M71,27.4c1.2.8,2.3,1.2,3.2,1.2,1.9,0,3.4-.7,4.3-2s1.4-2.7,1.4-4.3-.4-2.8-1.1-3.9c-1.3-1.9-3.5-2.8-6.5-2.8s-.3,0-.5,0c-.2,0-.4,0-.6,0v-.5c2.2-.8,3.9-1.7,5.2-2.8,1.3-1,1.9-2.4,1.9-4.1s-.5-2.7-1.5-3.4c-1-.8-2.1-1.2-3.4-1.2s-2.9.6-4,1.7c-.6.6-1.3,1.5-2.1,2.8h-.6c.5-2.3,1.6-3.9,3.1-5.2,1.5-1.3,3.3-1.9,5.2-1.9s3.8.6,4.9,1.8c1.2,1.2,1.7,2.5,1.7,4s-.5,2.6-1.4,3.7c-.5.6-1.4,1.4-2.5,2.1,1.3.6,2.4,1.2,3.2,2,1.5,1.5,2.3,3.3,2.3,5.5s-1,5-3.1,7c-2.1,2-5,3-8.9,3s-2.9-.2-3.6-.8c-.7-.5-1-1-1-1.6s.1-.7.3-1,.6-.5,1.1-.5c.8,0,1.8.4,3,1.2h0Z"/>
  <path class="st1" d="M101.2,31c0-.6-.1-1.1-.4-1.4-.3-.3-1.1-.5-2.2-.8v-.3c1.7.1,2.7.2,3.1.2s.6,0,.8-.2c.4-.3.7-1.6.9-4h-5.1c-.5,1.3-1.3,2.5-2.5,3.5-1.4,1.1-3.2,2.1-5.6,2.9l-.3-.3c2.5-1.2,4.3-2.7,5.4-4.4.7-1.2,1.1-2.7,1.2-4.5h-4.6c-.5,4-2.1,7-4.8,9l-.3-.2c1.2-1.7,2.1-3.8,2.6-6.2.3-1.7.5-3.9.5-6.4v-5.2l2.5,1h11.4l1-1.2,2.3,1.7c-.2.2-.5.4-.9.5v3.9c0,0-.2.2-.7.4-.4.2-.8.2-1.2.2h-.3v-1.1h-12c0,1.1,0,2.1-.1,2.9h5.7v-2.7l2.8.3c0,.3-.3.5-.6.5v1.9h5.1l1.2-1.5c.3.2.5.4.8.6.6.5,1.1.9,1.4,1.2,0,.2-.3.4-.6.4h-8.7c-.1.8-.3,1.6-.4,2.3h4.7l1.1-1.1,2.2,1.8c-.2.2-.5.3-.9.4-.2,3-.8,4.8-1.7,5.5-.6.4-1.5.6-2.7.6h0ZM87.8,11.5l-.2-.7h16.7l1.3-1.6c.3.2.6.4.8.6.6.5,1.1.9,1.5,1.2,0,.2-.3.4-.6.4h-19.6,0ZM92,17.4h12v-3.1h-12v3.1Z"/>
  <path class="st0" d="M117.5,33.8V.9h1.3v32.9h-1.3Z"/>
  <path class="st1" d="M134.8,31.6V10.7h-1.1c-1.5,2.7-3.3,5-5.3,6.8l-.4-.3c1.2-1.9,2.3-4.1,3.3-6.7,1-2.7,1.7-5.4,2.2-8.2l4.3,1.2c-.2.5-.6.7-1.2.7-.7,2-1.4,3.9-2.3,5.7h4.4l1.7-2.2c.4.3.7.6,1.1.9.8.7,1.5,1.3,1.9,1.7,0,.3-.4.5-.8.5h-4.6v20.1c0,.1-.2.3-.7.5-.5.2-1.2.4-1.9.4h-.6ZM148.1,31.6c0-1-.3-1.8-.7-2.2-.5-.5-1.5-.9-2.8-1.1v-.4c1.3,0,2.7.1,4,.2.5,0,.7-.2.7-.6V10.7h-3.2c-1.6,2.6-3.5,4.8-5.7,6.4l-.4-.3c1.3-1.8,2.5-4,3.5-6.5,1.1-2.6,1.9-5.4,2.4-8.1l4.5,1.4c-.2.4-.6.7-1.2.6-.8,2.1-1.6,4-2.5,5.6h6.3l1.8-2.3c.4.3.8.6,1.1.9.8.7,1.5,1.3,2,1.8,0,.3-.3.5-.8.5h-4.6v16.9c0,1.2-.2,2.2-.7,2.7-.6.7-1.8,1.1-3.5,1.3h0Z"/>
  <path class="st1" d="M182.7,31.7c-.1-1-.4-1.7-.8-2.1-.6-.5-1.5-.9-2.9-1v-.5c1.4,0,2.8.2,4.2.2.5,0,.7-.2.7-.7v-15.2h-18.8v18.2c0,.2-.3.4-.8.7-.6.2-1.1.4-1.7.4h-.5V10.1l3.3,1.4h7.4v-3.8h-12.8l-.2-.9h13V2.4l4.2.4c0,.5-.5.8-1.2.9v3.1h7.8l2-2.5c.4.3.8.7,1.3,1,1,.8,1.7,1.4,2.3,1.9,0,.3-.4.5-.9.5h-12.4v3.8h7.7l1.5-1.7,3.2,2.5c-.3.3-.8.5-1.3.6v15c0,1.2-.2,2-.7,2.5-.6.6-1.8,1-3.6,1.2h0ZM172.8,30.9v-7h-6.2l-.2-.9h6.5v-3.9h-5.9l-.2-.9h8.6c.6-1.5,1.2-3.3,1.7-5.4l3.8,1.1c-.1.4-.6.6-1.2.6-.9,1.2-2.1,2.5-3.4,3.7h2.2l1.4-1.7c.3.2.6.5,1,.7.7.6,1.3,1,1.7,1.4,0,.3-.4.5-.8.5h-6v3.9h2.6l1.6-1.9c.4.2.7.5,1,.8.8.6,1.4,1.1,1.9,1.6,0,.3-.4.5-.9.5h-6.3v6.3c0,.1-.2.2-.6.4-.5.2-1.1.3-1.8.3h-.6ZM170.2,17.5c0-.7-.2-1.5-.6-2.3-.3-.8-.7-1.5-1.1-2l.4-.2c1.5.4,2.6,1,3.2,1.8.6.6.8,1.3.7,2,0,.6-.4,1-.9,1.2-.5.2-1.1.1-1.7-.4h0Z"/>
  <path class="st1" d="M191.7,9.3l-.3-.9h10.2c-.3,0-.6-.2-1-.4-.2-.9-.5-1.8-1.2-2.9-.6-.9-1.2-1.8-2-2.5l.3-.2c2.1.4,3.6,1.1,4.6,2.1.8.8,1.2,1.6,1,2.5-.1.8-.6,1.3-1.4,1.4h6.1c1-1.9,1.9-3.9,2.7-6.1l4.4,1.2c-.1.4-.5.6-1.2.6-1.3,1.4-2.9,2.9-4.9,4.3h6.4l1.9-2.4c1.2.9,2.3,1.9,3.5,2.8,0,.3-.4.5-.9.5h-28.4ZM201.3,31.7c0-.9-.2-1.6-.5-2-.4-.5-1-.8-2-.9v-.5c.9,0,1.8,0,2.6.2.4,0,.5-.2.5-.6v-4.6h-5v7.4c0,.2-.2.4-.7.6-.5.2-1.1.4-1.7.4h-.4V11.3l3,1.3h4.6l1.4-1.6,3.1,2.4c-.2.3-.6.5-1.3.6v14.2c0,1.1-.2,1.9-.6,2.4-.5.6-1.5,1-3,1.1h0ZM197,17.3h5v-3.9h-5v3.9ZM197,22.4h5v-4.2h-5v4.2ZM208.5,26.3v-14.4l3.9.4c0,.5-.5.8-1.2.8v12.3c0,.2-.2.3-.7.5-.5.2-1,.3-1.5.3h-.5,0ZM214,31.6c-.1-.9-.4-1.6-.8-2-.5-.5-1.5-.8-2.8-1v-.5c1.4,0,2.7.1,4.1.2.2,0,.4,0,.5-.1,0,0,.1-.2.1-.5V11.1l4.1.4c-.1.5-.5.8-1.1.8v15.6c0,1.2-.2,2-.7,2.5-.6.6-1.7,1-3.4,1.1h0Z"/>
  <path class="st1" d="M235.9,31.6v-8.9c-3.1,2-6.7,4.1-10.6,6-.1.5-.4.8-.7.9l-1.6-3.5c1.5-.4,3.8-1,6.7-1.9.8-4.4,1.4-8.7,1.7-13l4.1.9c-.1.5-.5.7-1.2.8-1.1,4.1-2.3,7.8-3.8,11,1.2-.4,3-.9,5.4-1.7v-5.6l3.3,1.3h2V2.3l4.3.4c-.1.5-.5.8-1.2.9v6.5h2.9l1.8-2.6c.4.3.8.7,1.2,1,.9.8,1.5,1.5,2,2,0,.3-.4.5-.9.5h-7v7h2.9l1.5-1.7,3,2.2c-.2.3-.6.5-1.2.6v11.4c0,.1-.2.2-.7.4-.6.2-1.2.3-1.9.3h-.6v-2.1h-8.5v1.7c0,.1-.2.3-.6.5-.5.2-1.1.3-1.8.3h-.5,0ZM223.5,10.1l-.2-.9h4.8V2.6l4.1.4c0,.5-.4.8-1.1.9v5.3h1.2l1.7-2.4c.4.3.7.6,1.1,1,.8.7,1.5,1.4,1.9,1.8,0,.3-.4.5-.9.5h-12.5ZM227.3,23.2c-.6.3-1.1,0-1.5-.7.1-1.5.1-3.2,0-5-.2-2.2-.5-4.1-1-5.6l.5-.2c1.5,1.8,2.5,3.6,3,5.4.4,1.5.5,2.8.2,4-.2,1.1-.7,1.7-1.3,2h0ZM238.9,28.2h8.5v-9.3h-8.5v9.3Z"/>
  <path class="st1" d="M260.8,27l-1.1-1.1,8.7-8.6-8.7-8.7,1-1,8.7,8.7,8.7-8.7,1,1-8.7,8.7,8.7,8.6-1.1,1.1-8.6-8.7-8.6,8.7h0Z"/>
  <path class="st1" d="M313.5,31.2c-.8-.4-1.5-1-2.1-1.8-.9-1.3-1.7-2.7-2.4-4.3-2.2,2.6-5.1,4.7-8.6,6.3l-.3-.5c3.4-2.1,6.1-4.9,8-8.1-1.1-3.5-1.8-7.9-2.1-13.2h-6.8v4.9h2.8l1.4-1.4,2.7,2.2c-.2.3-.6.4-1.2.5,0,3.2-.2,5.5-.4,6.8-.2,1.5-.6,2.5-1.1,3-.6.5-1.4.8-2.5.8,0-.7-.2-1.2-.5-1.6-.3-.4-1-.6-2-.9v-.5c1.4.1,2.2.2,2.5.2s.4,0,.5-.2c.2-.3.4-1.1.5-2.4.1-1.1.2-3,.2-5.7h-3.1v.3c0,3.3-.4,6.1-1.2,8.3-1.2,3.1-3.2,5.6-6.3,7.5l-.4-.3c2.8-2.8,4.4-6.4,4.8-10.9-2.4,1.8-5,3.5-7.8,5.3-.1.4-.3.7-.7.9l-1.7-3.6c.8-.2,2-.6,3.7-1.1v-9.7h-3.1l-.2-.9h3.4V2.9l4,.4c0,.5-.4.8-1.2.8v7.1h.2l1.5-2.2c.7.7,1.4,1.5,2.1,2.2v-3.8l3.3,1.2h6.3c0-1.7-.1-3.8-.1-6.1l4,.4c0,.2,0,.3-.2.5,1.4,0,2.5.4,3.3.8.6.4,1,.9,1,1.5,0,.5-.1.9-.5,1.3,0,0,.2.2.4.3.9.7,1.6,1.3,2,1.6,0,.3-.4.5-.9.5h-6.2c.1,3.8.5,6.9,1.1,9.6.8-1.9,1.5-4.2,2.1-6.8l3.7,1.2c-.2.4-.6.6-1.3.5-1,3.3-2.2,6.1-3.6,8.3.6,1.7,1.4,3.1,2.3,4.2.2.3.3.4.4.4.1,0,.2-.1.4-.4.5-.9.9-2.1,1.4-3.6h.4c0,0-.6,5.2-.6,5.2.8,1.6,1,2.6.5,3-.6.5-1.4.4-2.3,0h0ZM292.6,21c1.2-.4,2.4-.8,3.7-1.2.1-1.1.2-2.4.2-3.9v-3.7c-.2,0-.3,0-.4,0h-3.4v8.8h0ZM308.8,8.7h2.5l1.1-1.3c-.2,0-.5-.1-.7-.2-.1-.6-.5-1.1-1-1.8-.4-.6-.9-1.1-1.4-1.5-.1,0-.3,0-.5.1,0,1.6,0,3.2,0,4.8h0Z"/>
  <path class="st1" d="M331.1,31.3V13.5h-6.3v13.4c0,.2-.3.4-.8.6-.6.2-1.1.4-1.7.4h-.5V11.2l3.2,1.4h6.1v-4.6h-12.8l-.3-.9h13V2.3l4.3.4c0,.5-.5.8-1.2.9v3.6h7.6l2-2.5c.4.3.8.7,1.3,1,1,.8,1.7,1.4,2.3,1.9,0,.3-.4.5-.9.5h-12.1.9c-.1.5-.4.8-1,.9v3.7h6.1l1.4-1.6,3.3,2.4c-.3.3-.7.5-1.3.6v10.2c0,1.2-.2,2-.7,2.5-.6.6-1.8,1-3.5,1.2-.1-1-.3-1.7-.7-2.1-.6-.5-1.5-.9-2.7-1v-.5c1.3,0,2.5.1,3.8.2.5,0,.7-.2.7-.6v-10.4h-6.4v16.8c0,.2-.3.4-.8.7-.6.3-1.2.4-1.7.4h-.6Z"/>
  <path class="st1" d="M353.8,12.4c-.5.3-1.1.2-1.7-.2-.1-.7-.5-1.5-1-2.4-.5-.8-1-1.5-1.6-2l.3-.2c.9.2,1.8.5,2.5.9.7-2.1,1.4-4.2,1.9-6.2l4,1.4c-.1.4-.5.6-1.2.6-1.4,2-2.7,3.6-3.9,4.7.8.6,1.2,1.3,1.3,2,0,.7-.1,1.1-.6,1.4h0ZM354.6,31.7v-10.1c-.2.2-.5.4-.9.4-.9,3.2-2.1,5.6-3.6,7.3l-.5-.2c.9-2.3,1.4-5.1,1.7-8.5l3.4.7v-3.5c-.9.2-1.9.5-3,.8-.2.4-.5.6-.8.7l-1.1-3c.4,0,1.2,0,2.5,0,.4,0,.7,0,.9,0,2-3.6,3.7-7,4.9-10l3.8,1.5c-.2.4-.6.6-1.3.5-1.7,2.5-3.8,5.2-6.4,8,.8,0,2.2-.1,4.2-.2.2,0,.3,0,.4,0-.4-.9-.8-1.8-1.2-2.5h.4c1.5.5,2.6,1.3,3.3,2.2.6.8.9,1.5.8,2.3,0,.6-.4,1.1-.9,1.3-.5.2-1.1,0-1.6-.4,0-.6-.2-1.3-.4-2.1-.2,0-.5.2-1,.3-.3,0-.5.1-.6.2v13.9c0,.1-.2.3-.6.5-.5.2-1,.3-1.6.3h-.5ZM359.5,25c0-1.4-.5-3-1.4-4.9l.4-.2c1.3.7,2.3,1.4,2.9,2.3.5.7.7,1.4.6,2.1-.1.6-.4,1-.9,1.2-.5.2-1,0-1.5-.4ZM367.1,31.6c0-1-.2-1.6-.4-1.9-.4-.5-1.1-.8-2.1-.9v-.4c.9,0,1.9,0,2.8.2.4,0,.6-.2.6-.5v-5.7c-.2.3-.6.8-1.1,1.5-1.5,2-2.8,3.6-3.8,4.8,0,.5-.1.8-.4,1l-2.6-2.6c1-.5,3.6-2.3,8-5.3v-7.4h-7l-.2-.9h10.7l.5-3h-5.8c0,.2-.1.5-.2.9,0,.4-.2.6-.2.8-.7.5-1.6.5-2.9.1.4-1.2.8-2.8,1.2-4.9.4-2.1.7-3.7.8-4.8l3.9.4c-.1.5-.5.8-1.2.8,0,.1,0,.3,0,.6,0,.4-.1.7-.2.9h5.2l1.2-1.4,2.8,2.2c-.2.2-.6.4-1.1.4l-1.1,7h.9l1.5-2.2c.3.3.7.6,1,.9.8.7,1.3,1.2,1.7,1.7,0,.3-.3.5-.8.5h-7.5c.5,2.5,1.2,4.6,2.1,6.3,1.1-1.8,2-3.5,2.7-5.2l3.4,2.1c0,.1-.2.2-.4.3-.2,0-.5,0-.8,0-1.1,1-2.6,2.1-4.5,3.4,1.4,2.4,3.5,4.2,6.2,5.6v.3c-1.3.3-2.1,1.2-2.5,2.8-1.8-1.5-3.1-3.3-4.1-5.3-1-2.1-1.8-5-2.3-8.4v11.9c0,1.1-.2,1.9-.6,2.4-.5.6-1.5,1-3.1,1.2h0ZM364.4,20.8c-.1-1.5-.8-3.1-2.1-4.8l.4-.2c1.5.5,2.6,1.2,3.4,2,.6.7.9,1.4.9,2.1,0,.6-.3,1.1-.8,1.3-.5.2-1.1,0-1.6-.4h0ZM366.3,9.3h5.7l.5-3.4h-5.5c-.1.8-.4,2-.7,3.4h0Z"/>
  <path class="st1" d="M384,14.5c-.1-.7-.5-1.5-1-2.4-.5-.8-1.1-1.4-1.7-2l.3-.2c1.7.2,3,.7,3.9,1.5.8.6,1.1,1.2,1.2,2,0,.6-.2,1.1-.8,1.4-.6.3-1.2.2-1.8-.2h0ZM384.9,31.6c-.8,0-1.2-.5-1.4-1.6.2-1.7.3-3.1.3-4.4,0-1.2-.3-2-.6-2.2-.4-.3-.9-.4-1.6-.5v-.6h1.4c.2,0,.4,0,.5,0s.2-.2.4-.5c.4-.8,2.4-5.4,6-13.9l.6.2c-2.1,6.5-3.4,10.7-3.9,12.7-.3,1.2-.5,2.1-.5,2.9s.1,1.1.4,1.9c.4,1.4.6,2.6.6,3.7,0,.7-.2,1.3-.6,1.8-.4.4-.9.6-1.5.6h0ZM386.5,7.4c-.2-.7-.6-1.6-1.2-2.4-.5-.8-1.1-1.5-1.8-2.1l.3-.2c1.8.3,3.1.8,4.1,1.5.8.6,1.2,1.3,1.2,2,0,.7-.2,1.2-.7,1.4-.6.3-1.2.2-1.8-.2h0ZM401,31.6c0-.8-.2-1.4-.6-1.8-.5-.4-1.5-.8-3-1v-.5c2.2.2,3.6.3,4.1.3s.9-.1,1.2-.4c.4-.4.7-1.1.9-2.3h-10.4c0,.1,0,.3-.1.6-.2.8-.2,1.4-.3,1.7-.7.4-1.7.4-3,.1.6-2.9,1.2-6,1.8-9.5h-3.4l-.2-.9h3.8c.4-2.7.8-5,1-6.8-1.1,1.2-2.2,2.2-3.5,2.9l-.4-.3c1.1-1.4,2.1-3.1,3-5.1,1-2.1,1.7-4.2,2.3-6.4l4.2,1.5c-.1.4-.6.6-1.2.6-.4.9-.9,1.9-1.4,2.8h9.8l1.7-2.3c.4.3.8.6,1.1.9.8.7,1.5,1.3,2,1.8,0,.3-.3.5-.8.5h-14.3c-.5.8-1,1.5-1.5,2.1l2.4,1.1h8.3l1.6-1.6,2.8,2.5c-.2.3-.7.4-1.3.5,0,2.3-.2,4.1-.2,5.4h0l1.5-2.1c.9.8,1.7,1.7,2.6,2.5,0,.3-.3.5-.8.5h-3.3c-.2,2.6-.4,4.6-.6,6.1h.2l1.6-2.3c.3.3.7.6,1,.9.8.7,1.3,1.3,1.7,1.8,0,.3-.3.5-.8.5h-3.9c-.4,2.2-.9,3.7-1.6,4.4-.9.9-2.2,1.4-4,1.4h0ZM393.5,25h3.8c.4-2.4.6-4.4.9-6.1h-3.6c0,.4-.2,1-.3,1.8-.3,2-.6,3.4-.8,4.4ZM394.7,17.9h3.5c.2-2,.5-3.9.6-5.8h-3.3c-.1,1.2-.4,3.2-.9,5.8ZM400.1,25h3.8c.2-1.4.5-3.4.6-6.1h-3.7c-.3,2.9-.6,4.9-.7,6.1ZM400.9,17.9h3.7c.1-2.2.2-4.1.2-5.8h-3.4c-.2,2.4-.4,4.3-.6,5.8h0Z"/>
  <path class="st1" d="M419,27l-1.1-1.1,8.7-8.6-8.7-8.7,1-1,8.7,8.7,8.7-8.7,1,1-8.7,8.7,8.7,8.6-1.1,1.1-8.6-8.7-8.6,8.7h0Z"/>
  <path class="st1" d="M446.2,31.7V3l3.1,1.3h19.9l1.5-1.7,3,2.4c-.2.3-.7.5-1.3.7v24.7c0,.2-.3.4-.9.6-.6.2-1.1.4-1.6.4h-.4v-2.1h-20.4v1.2c0,.2-.2.4-.7.7-.5.3-1.1.4-1.7.4h-.5ZM449.1,28.4h20.4V5.2h-20.4v23.2ZM451.4,25.5l-1.6-3.1c2.1-.2,5.3-.8,9.6-1.5v.4c-1.8,1-4.2,2.1-7.3,3.5-.1.4-.4.7-.7.8ZM466.5,27.1c-.7-.2-1.3-.6-2-1.2-1-1-1.8-2.1-2.5-3.3-2,2-4.3,3.6-7.1,4.7l-.3-.4c2.5-1.6,4.7-3.6,6.5-6.2-1-2.5-1.7-5.8-2-9.8h-9l-.2-.9h9.2c0-.9,0-2.4-.1-4.3l3.7.7c0,.4-.4.7-1.1.8,0,.6,0,1.6,0,2.8h3.3l.7-.9c-.1,0-.3,0-.5-.2-.2-.5-.5-1-.9-1.6-.4-.6-.9-1-1.3-1.3l.3-.3c1.1,0,2.1.3,2.8.7.6.3.9.7,1.1,1.2.1.4,0,.8-.2,1.1.9.7,1.5,1.3,2,1.7,0,.3-.4.5-.8.5h-6.3c.2,2.8.6,5.1,1.2,7.1,1-1.9,1.7-3.8,2.2-5.8l3.5,1.4c-.2.4-.6.6-1.3.5-.9,2.4-2,4.6-3.5,6.4.6,1.1,1.3,2.1,2.1,2.9.2.2.3.3.4.3.1,0,.2-.1.3-.4.4-.8.8-1.8,1.2-3.1h.3c0,0-.4,4.3-.4,4.3.4.6.6,1.1.7,1.5,0,.4,0,.6-.2.8-.4.5-1,.6-1.8.3h0ZM451.3,20.5v-8.2l2.3.9h2.2l1.1-1.1,2.4,1.7c-.2.2-.5.4-1,.5v4.8c0,.1-.2.3-.7.5-.5.2-.9.3-1.2.3h-.4v-1h-2.6v.9c0,.1-.2.2-.6.4-.4.2-.9.3-1.3.3h-.4ZM453.5,18h2.6v-3.8h-2.6v3.8Z"/>
  <path class="st1" d="M477.9,31.7l-1.8-3.5c1.1-.4,2.6-1.1,4.5-1.9v-9.3h-4.2l-.2-.9h4l1.5-2,3.4,2.8c-.3.3-.9.5-1.6.6v8.1c1.1,1.1,2.3,1.9,3.7,2.2,1.3.3,3.4.5,6.3.5,5.6,0,9.8,0,12.3-.1v.4c-1.2.2-1.9,1.1-2.1,2.6h-10.2c-3,0-5.2-.3-6.6-1-1.5-.7-2.8-2-3.9-4-1.4,1.7-3,3.4-4.7,4.9,0,.3-.1.6-.4.8h0ZM480.8,9.4c-.2-.9-.6-2-1.3-3.1-.6-1-1.3-1.9-2.1-2.7l.3-.2c2,.5,3.5,1.2,4.6,2.1.9.8,1.3,1.6,1.4,2.5,0,.8-.2,1.4-.8,1.7-.6.4-1.3.3-2-.2h0ZM487.5,26.8V10.1l3.1,1.3h1.8c0-.1,0-.3,0-.6.1-1.1.2-1.8.2-2.3h-7.7l-.2-.9h11.3c.6-1.8,1.1-3.6,1.4-5.4l4.4,1c-.1.4-.6.7-1.2.7-1,1.2-2.2,2.5-3.7,3.7h3.9l1.8-2.3c.4.3.8.6,1.1.9.8.7,1.5,1.3,2,1.8,0,.3-.4.5-.9.5h-8.9c-.7,1.1-1.3,2.1-1.9,2.9h4.9l1.5-1.6,3.1,2.4c-.2.3-.6.5-1.2.6v12.9c0,.1-.3.3-.9.5-.6.2-1.1.3-1.6.3h-.5v-2h-8.8v1.2c0,.2-.2.4-.8.6-.6.2-1.1.4-1.7.4h-.5ZM490.2,6.9c0-1.5-.7-2.9-1.9-4.4l.3-.2c1.6.4,2.8,1,3.5,1.7.6.6.9,1.3.8,2,0,.7-.4,1.1-1,1.3-.6.2-1.2,0-1.8-.4ZM490.4,15.4h8.8v-3.1h-8.8v3.1ZM490.4,19.5h8.8v-3.2h-8.8v3.2ZM490.4,23.7h8.8v-3.3h-8.8v3.3Z"/>
  <path class="st1" d="M508.2,28.8l-.2-.9h23.8l2.1-2.6c.4.3.9.7,1.4,1,1,.8,1.8,1.5,2.4,2,0,.3-.4.5-.9.5h-28.5ZM509.9,7l-.2-.9h20.5l2-2.5c.4.3.9.7,1.3,1,1,.8,1.8,1.4,2.4,1.9,0,.3-.4.5-.9.5h-25.1ZM512.1,17.3l-.2-.9h15.7l2-2.4c1.2,1,2.4,1.9,3.6,2.9,0,.3-.4.5-.9.5h-20.1Z"/>
  <path class="st1" d="M544.2,31.6c0-.9-.2-1.5-.5-1.8-.4-.4-1.1-.7-2.2-.9v-.5c.2,0,.4,0,.7,0,1.3,0,2.1.1,2.4.1.4,0,.8,0,1-.3.8-.6,1.3-3.2,1.6-7.8h-3.3l-.4,1.6c-.7.5-1.6.5-2.8.1.6-1.7,1.2-3.7,1.6-6.2h-2.4l-.2-.9h8l1.5-2c.3.3.7.6,1,.8.7.6,1.3,1.2,1.7,1.6,0,.3-.3.5-.8.5h-6c-.2,1.1-.5,2.3-.9,3.5h2.9l1.4-1.4,2.7,2.2c-.2.2-.6.4-1.3.5-.2,2.9-.4,5.1-.8,6.6-.4,1.5-.9,2.5-1.6,3.1-.9.6-1.9.9-3.2.9h0ZM541,13.8V3.2l2.7,1.1h3.3l1.4-1.4,2.9,2.2c-.2.3-.7.5-1.3.7v6.8c0,.1-.3.3-.8.4-.5.2-1,.3-1.4.3h-.4v-1.3h-3.8v1.1c0,.1-.2.3-.7.5-.5.2-1,.3-1.5.3h-.4,0ZM543.6,11h3.8v-5.8h-3.8v5.8ZM549.5,31.6l-.4-.3c1.3-2,2.2-4.4,2.7-7.2.3-2,.5-4.5.5-7.8V7.9l3.2,1.2h2.8V2.3l3.9.4c0,.5-.4.7-1.1.8v2.4h2.9l1.5-2c.3.3.7.6,1,.8.8.6,1.4,1.2,1.8,1.6,0,.3-.4.5-.8.5h-6.5v2.3h4l1.4-1.4,2.6,2.4c-.2.2-.6.3-1.2.3-.9.8-1.8,1.5-2.8,2.1l-.4-.2c.2-.6.4-1.3.6-2.3h-10.2v4.3l3.2-.3v-3.4l3.3.3c0,.4-.3.7-.9.8v2l2.2-.2,1-1.6c.8.5,1.6,1.1,2.4,1.6,0,.4-.3.6-.7.6l-4.9.5v1.6c0,.2,0,.3.1.4,0,0,.3,0,.7,0h2c1,0,1.6,0,1.8,0,.2,0,.4,0,.6-.2.2-.2.5-.9.8-1.9h.3v1.9c.7.2,1,.6,1,1s-.3.9-1,1c-.7.2-1.9.3-3.8.3h-2.3c-1.1,0-1.8-.1-2.1-.4-.3-.3-.5-.8-.5-1.6v-1.9l-3.1.3v-.3c-.1,0-.1,1.5-.1,1.5,0,3.2-.3,5.9-.8,7.9-.9,3.1-2.5,5.5-4.8,7.4h0ZM553.2,31.6l-.2-.4c2.9-2.2,4.3-5.9,4.2-11l3.8.6c0,.5-.5.7-1.2.8-.2,2.2-.8,4.1-1.6,5.6-1.1,1.9-2.8,3.4-5,4.4ZM563.9,31.3c-1,0-1.6-.2-1.9-.5-.2-.3-.4-.9-.4-1.7v-9l3.5.4c0,.4-.3.7-.9.8v7.1c0,.2,0,.3,0,.4s.2,0,.4,0h.9c.5,0,.7,0,.8,0,.2,0,.3-.1.4-.3.2-.3.5-1.5.9-3.4h.4v3.5c.6.2.9.6.9,1.1,0,1-1.2,1.6-3.7,1.6h-1.5,0Z"/>
</svg>