<svg width="74" height="519" viewBox="0 0 74 519" fill="none" xmlns="http://www.w3.org/2000/svg">
<path d="M30.3321 458.678H4.66892C2.173 458.678 0.125071 459.36 -1.47488 460.704C-3.07482 462.048 -3.86413 464.16 -3.86413 466.997H-4.7601V442.572H-3.86413C-3.86413 445.409 -3.07482 447.499 -1.49621 448.822C0.0824059 450.145 2.15167 450.806 4.66892 450.806H62.6937C68.3255 450.806 71.1414 448.054 71.1414 442.572H71.9734V466.997H71.1414C71.1414 464.395 70.4374 462.347 69.0295 460.875C67.6215 459.403 65.5523 458.656 62.8003 458.656H32.7V502.623H62.6937C65.3603 502.623 67.4509 501.876 68.9228 500.362C70.3948 498.847 71.1414 496.82 71.1414 494.303H71.9734V518.729H71.1414C71.1414 516.084 70.3948 514.057 68.9228 512.671C67.4509 511.263 65.3816 510.559 62.6937 510.559H4.66892C-1.02689 510.559 -3.86413 513.289 -3.86413 518.729H-4.7601V494.303H-3.86413C-3.86413 497.183 -3.07482 499.295 -1.49621 500.639C0.0824059 501.983 2.15167 502.644 4.66892 502.644H30.3534V458.678H30.3321Z" fill="black"/>
<path d="M33.6813 352.484C40.8704 352.484 47.5475 354.254 53.734 357.817C59.9205 361.379 64.827 366.222 68.4962 372.366C72.1654 378.51 74 385.315 74 392.781C74 400.248 72.1654 407.159 68.4962 413.41C64.827 419.66 59.8991 424.588 53.67 428.172C47.4622 431.777 40.6784 433.569 33.3613 433.569C27.7295 433.569 22.4604 432.502 17.5112 430.369C12.562 428.236 8.25283 425.249 4.56229 421.409C0.871741 417.57 -1.9655 413.196 -3.97077 408.29C-5.97603 403.383 -7 398.242 -7 392.909C-7 387.576 -6.04003 382.627 -4.12009 377.806C-2.20016 372.984 0.594417 368.654 4.2423 364.814C7.89018 360.974 12.2207 357.966 17.2125 355.769C22.2044 353.572 27.7082 352.484 33.66 352.484H33.6813ZM33.8947 361.635C23.6763 361.635 15.6979 363.449 9.93811 367.054C4.1783 370.659 0.317092 374.84 -1.64551 379.555C-3.60811 384.269 -4.58941 388.728 -4.58941 392.888C-4.58941 396.109 -4.0561 399.458 -3.0108 402.935C-1.94417 406.413 -0.0242294 409.783 2.79168 413.068C5.60759 416.354 9.55412 419.042 14.674 421.175C19.7725 423.287 26.0869 424.353 33.5747 424.353C40.1664 424.353 45.9263 423.479 50.8328 421.729C55.7393 419.98 59.7498 417.57 62.8644 414.498C65.9789 411.426 68.2189 408.034 69.5841 404.343C70.9494 400.653 71.6321 396.792 71.6321 392.802C71.6321 389.219 70.9921 385.613 69.7335 381.944C68.4749 378.275 66.4056 374.926 63.5257 371.896C60.6671 368.867 56.7632 366.393 51.8567 364.494C46.9502 362.595 40.9558 361.657 33.852 361.657L33.8947 361.635Z" fill="black"/>
<path d="M-3.67214 342.116V343.161H-4.7601V316.602C-4.7601 312.336 -4.09879 308.709 -2.77617 305.744C-1.45354 302.779 0.210402 300.475 2.25833 298.811C4.28493 297.168 6.43953 295.974 8.70079 295.27C10.962 294.566 13.1806 294.203 15.3566 294.203C18.1298 294.203 20.7964 294.779 23.3563 295.952C25.9162 297.104 28.1135 298.896 29.9481 301.307C31.7827 303.717 33.0413 306.725 33.7026 310.352H33.916C36.1346 305.765 40.5504 301.541 47.1422 297.638L58.8538 290.705C64.1016 287.59 67.4082 285.073 68.7948 283.174C70.1814 281.275 70.9707 279.42 71.1414 277.585H71.9734V291.537C71.2054 292.134 70.4801 292.688 69.7548 293.2C69.0508 293.712 68.2828 294.267 67.4935 294.864C66.9815 295.206 66.1922 295.718 65.1256 296.4C64.059 297.083 63.4616 297.488 63.3337 297.616L48.1875 306.789C45.0943 308.624 42.5983 310.523 40.6571 312.442C38.7371 314.362 37.3505 316.176 36.5185 317.84C35.6866 319.504 35.1746 321.018 34.9613 322.341C34.7479 323.685 34.6413 325.242 34.6413 327.055H62.715C68.1762 327.055 70.9707 324.282 71.1627 318.714H71.9947V343.14H71.1627C71.0987 341.604 70.8001 340.26 70.3094 339.087C69.7974 337.914 68.9441 336.932 67.7068 336.143C66.4695 335.354 64.8269 334.97 62.7363 334.97H4.66892C1.61835 334.97 -0.536241 335.716 -1.79487 337.21C-3.05349 338.703 -3.67214 340.324 -3.67214 342.095V342.116ZM32.572 327.055V322.682C32.572 318.096 31.9107 314.341 30.5881 311.397C29.2654 308.453 27.3882 306.341 24.9349 305.019C22.4817 303.696 19.4951 303.035 15.9539 303.035C13.01 303.035 10.1087 303.632 7.29283 304.805C4.45559 305.979 2.08767 307.984 0.167736 310.821C-1.7522 313.658 -2.71217 317.456 -2.71217 322.255C-2.71217 324.197 -2.56284 325.797 -2.24285 327.055H32.5933H32.572Z" fill="black"/>
<path d="M-4.76007 248.573H-3.8641C-3.8641 250.855 -3.22412 252.818 -1.94416 254.397C-0.664205 255.996 1.46906 256.786 4.45563 256.786H62.6724C65.6163 256.786 67.7709 255.932 69.1148 254.226C70.4588 252.519 71.1201 250.642 71.1201 248.551H71.9521V272.871H71.1201C71.1201 270.652 70.4588 268.732 69.1575 267.111C67.8562 265.49 65.7016 264.679 62.6724 264.679H4.45563C1.25573 264.679 -0.920196 265.49 -2.11482 267.111C-3.28812 268.732 -3.88543 270.652 -3.88543 272.871H-4.7814V248.551L-4.76007 248.573Z" fill="black"/>
<path d="M-1.83753 190.142V226.856C-1.83753 229.906 -1.49621 232.402 -0.813564 234.301C-0.13092 236.221 0.999709 237.735 2.59966 238.887C4.1996 240.039 6.4182 240.871 9.25544 241.383V242.215H-4.7601V179.412H-3.24548L69.0935 232.53V195.71C69.0935 191.614 68.6668 188.414 67.7922 186.111C66.9175 183.807 65.8296 182.143 64.5283 181.14C63.227 180.137 61.4351 179.092 59.1311 178.025V177.193L71.952 180.777V243.175H70.3308L-1.83753 190.142Z" fill="black"/>
<path d="M33.6813 89.1537C40.8704 89.1537 47.5475 90.9243 53.734 94.4868C59.9205 98.0494 64.827 102.892 68.4962 109.036C72.1654 115.179 74 121.985 74 129.451C74 136.917 72.1654 143.829 68.4962 150.08C64.827 156.33 59.8991 161.258 53.67 164.842C47.4622 168.447 40.6784 170.239 33.3613 170.239C27.7295 170.239 22.4604 169.172 17.5112 167.039C12.562 164.906 8.25283 161.919 4.56229 158.079C0.871741 154.24 -1.9655 149.866 -3.97077 144.96C-5.97603 140.053 -7 134.912 -7 129.579C-7 124.246 -6.04003 119.297 -4.12009 114.476C-2.20016 109.654 0.594417 105.324 4.2423 101.484C7.89018 97.6441 12.2207 94.6362 17.2125 92.4389C22.2044 90.2417 27.7082 89.1537 33.66 89.1537H33.6813ZM33.8947 98.3267C23.6763 98.3267 15.6979 100.14 9.93811 103.745C4.1783 107.35 0.317092 111.532 -1.64551 116.246C-3.60811 120.961 -4.58941 125.419 -4.58941 129.579C-4.58941 132.8 -4.0561 136.149 -3.0108 139.627C-1.94417 143.104 -0.0242294 146.474 2.79168 149.76C5.60759 153.045 9.55412 155.733 14.674 157.866C19.7725 159.978 26.0869 161.045 33.5747 161.045C40.1664 161.045 45.9263 160.17 50.8328 158.421C55.7393 156.671 59.7498 154.261 62.8644 151.189C65.9789 148.117 68.2189 144.725 69.5841 141.035C70.9494 137.344 71.6321 133.483 71.6321 129.494C71.6321 125.91 70.9921 122.305 69.7335 118.635C68.4749 114.966 66.4056 111.617 63.5257 108.588C60.6671 105.558 56.7632 103.084 51.8567 101.185C46.9502 99.2867 40.9558 98.348 33.852 98.348L33.8947 98.3267Z" fill="black"/>
<path d="M-4.76007 0.196777H-3.8641C-3.62944 2.13805 -3.24545 3.674 -2.7548 4.80463C-2.24282 5.93526 -1.26152 6.80989 0.210433 7.42854C1.68238 8.04719 3.81565 8.36717 6.58889 8.36717H73.872V8.87916L8.14617 67.7999H55.334C59.2592 67.7999 62.1817 67.6506 64.0803 67.3306C65.9789 67.0106 67.3656 66.5626 68.1975 65.9866C70.0108 64.7067 70.9708 62.4667 71.1201 59.2668H71.9521V78.4875H71.1201C71.0134 76.3329 70.5655 74.669 69.7335 73.453C68.9228 72.2584 67.4295 71.4051 65.2536 70.8931C63.0777 70.3811 59.8138 70.1465 55.4406 70.1465H5.39426L2.53569 72.7064C-0.0242263 74.9677 -1.66684 76.7596 -2.32815 78.1249C-2.98946 79.4902 -3.52278 81.1541 -3.8641 83.1807H-4.76007V68.7599L60.2405 10.7138H10.7061C6.99421 10.7138 4.22097 10.8631 2.36503 11.1617C0.530422 11.4604 -0.941529 12.2284 -2.07216 13.5083C-3.18146 14.767 -3.8001 16.7722 -3.88543 19.4815H-4.7814V0.196777H-4.76007Z" fill="black"/>
</svg>
