<?xml version="1.0" encoding="UTF-8"?>
<svg id="_圖層_1" data-name="圖層_1" xmlns="http://www.w3.org/2000/svg" version="1.1" viewBox="0 0 412 14">
  <!-- Generator: Adobe Illustrator 29.4.0, SVG Export Plug-In . SVG Version: 2.1.0 Build 152)  -->
  <defs>
    <style>
      .st0 {
        fill: #a8a8a8;
      }
    </style>
  </defs>
  <path class="st0" d="M171.8,0h5.7c2.9,0,4.6,1.2,4.6,3.4s-1.1,2.9-3.5,3.3c1.6.3,2.1,1,2.5,2.5l.9,3.3h1.7v.7c-.5.1-1,.2-1.7.2-1.3,0-1.8-.4-2-1.4l-.8-2.9c-.4-1.5-.8-2.1-2.4-2.1h-1.3c0,1.9,0,3.7,0,5.5l1.8.2v.6h-5.6v-.6l1.8-.2c0-1.8,0-3.6,0-5.4v-1c0-1.8,0-3.6,0-5.4h-1.8V0h0ZM175.5,6.4h1.7c2,0,3.1-1.3,3.1-3s-1-2.8-3.1-2.8h-1.6c0,1.8,0,3.6,0,5.8h0Z"/>
  <path class="st0" d="M184.5,8.5c0-3.1,2.1-5,4.6-5s3.8,1.7,3.8,3.8,0,.8-.1,1.1h-6.4c0,2.8,1.5,4.1,3.4,4.1s2.2-.5,2.9-1.3l.3.2c-.8,1.3-2,2-3.7,2-2.7,0-4.7-1.7-4.7-5ZM190.4,7.8c.7,0,.9-.3.9-1.1,0-1.6-.8-2.6-2.2-2.6s-2.5,1.3-2.6,3.7h4Z"/>
  <path class="st0" d="M194.6,12.7v-2.2h.9l.4,2c.5.2,1,.4,1.8.4,1.6,0,2.4-.7,2.4-1.7s-.4-1.4-1.9-1.8l-1-.3c-1.5-.5-2.4-1.3-2.4-2.7s1.3-2.8,3.5-2.8,1.9.3,2.8.8v2h-.8l-.4-1.8c-.5-.3-1-.4-1.6-.4-1.3,0-2,.7-2,1.6s.5,1.3,1.8,1.8l.9.3c1.8.6,2.6,1.5,2.6,2.8s-1.3,2.9-3.8,2.9-2.1-.2-3.1-.8h0Z"/>
  <path class="st0" d="M203.2,8.5c0-3.1,2.1-5,4.6-5s3.8,1.7,3.8,3.8,0,.8-.1,1.1h-6.4c0,2.8,1.5,4.1,3.4,4.1s2.2-.5,2.9-1.3l.3.2c-.8,1.3-2,2-3.7,2-2.7,0-4.7-1.7-4.7-5ZM209,7.8c.7,0,.9-.3.9-1.1,0-1.6-.8-2.6-2.2-2.6s-2.5,1.3-2.7,3.7h4Z"/>
  <path class="st0" d="M216.3,9v3.5s1.8.2,1.8.2v.5h-5v-.5l1.4-.2v-3.5s0-1.2,0-1.2c0-1.2,0-2.1,0-3h-1.5v-.6l3-.8h.2c0,.1.1,2.6.1,2.6.6-1.7,1.8-2.7,3-2.7s1.3.3,1.5.9c0,.7-.3,1.1-1,1.1s-.8-.3-1.3-.8l-.2-.2c-.9.5-1.5,1.4-2,2.8v1.6h0Z"/>
  <path class="st0" d="M227.5,3.8h3.5v.5l-1.3.2-3.3,8.8h-.8l-3.5-8.8h-1.2v-.7h4.7v.5h-1.6c0,.1,2.6,7.1,2.6,7.1l2.4-6.9-1.6-.2v-.5h0Z"/>
  <path class="st0" d="M231.5,8.5c0-3.1,2.1-5,4.6-5s3.8,1.7,3.8,3.8,0,.8-.1,1.1h-6.4c0,2.8,1.5,4.1,3.4,4.1s2.2-.5,2.9-1.3l.3.2c-.8,1.3-2,2-3.7,2-2.7,0-4.7-1.7-4.7-5ZM237.3,7.8c.7,0,.9-.3.9-1.1,0-1.6-.8-2.6-2.2-2.6s-2.5,1.3-2.7,3.7h4Z"/>
</svg>