<?xml version="1.0" encoding="UTF-8"?>
<svg id="_圖層_1" data-name="圖層_1" xmlns="http://www.w3.org/2000/svg" version="1.1" viewBox="0 0 660 44">
  <!-- Generator: Adobe Illustrator 29.4.0, SVG Export Plug-In . SVG Version: 2.1.0 Build 152)  -->
  <defs>
    <style>
      .st0 {
        fill: #3e3a39;
      }
    </style>
  </defs>
  <path class="st0" d="M137.2,24.9c-3.7,2.9-7.5,5.1-12,7.7-1,.5-1.2.4-3.7-2.3,2.1-.8,4.1-1.5,6-2.2v-13.4h-4c-.7,0-.9-.5-1.6-2.4h5.7V1.4l2.9.6c.4,0,.7.3.7.6v9.7h2.6c.6,0,1.1-.4,1.8-1.3,1,1,1.7,1.4,1.7,2.1s-.7,1.5-2.2,1.5h-3.8v12c2-.8,3.8-1.6,5.6-2.4.5-.2,1.1.3.5.7h0ZM145.1,21.3c-.5,1-1.3,2.1-2.2,3.2h12.2c1.1,0,1.6-.3,2.2-1l2.8,1.2c1.8.8.6,1.6.5,2.4,0,1.1-1.3,13.2-5.8,15.3-1.3.6-1.9.4-2.9-.5-.9-.8-2.2-1.4-3.2-1.9-.5-.2-.2-.7.2-.7,4.5.4,4.7.4,5.8-2.2,1-2.1,1.9-5.9,2.3-10.4h-2.5c-2.5,6.6-8.3,13.3-17.3,15.8-.8.2-1.2-.5-.5-.8,6.4-3.6,11.4-8.5,14.2-15h-3c-2.7,4.9-8,9.7-14.1,11.6-.7.2-1-.5-.5-.8,4.8-3.2,8.4-6.7,10.9-10.8h-3.3c-2.5,2.6-5.7,5.1-9,6.3-.7.3-1-.4-.6-.7,4.5-3.5,7.6-6.7,10-11h-5.7c-.7,0-1.1-.4-1.8-2.3h25.6c.7,0,1.2-.5,2-1.3.9.9,1.7,1.5,1.7,2.2,0,1.1-.9,1.5-2.4,1.5h-15.5ZM139.5,18V1.9l2.9.6c.4,0,.7.3.7.6h0s8.5,0,8.5,0c.8,0,1.2-.3,1.8-1.1l3,1c1.7.5.6,1.5.6,2.4v10.4c0,1.7-1.7,2.2-3.6,2v-1.8h-10.3c-.3,1.7-2.1,2-3.6,1.8ZM143.1,5.4v3.1h10.3v-3.1h-10.3ZM153.5,13.9v-3.1h-10.3v3.1h10.3Z"/>
  <path class="st0" d="M181.6,28c-1.8,1.3-6.4,3.9-10.5,5.9-1.2.6-1.6.5-3.8-2.3,2.5-.6,4.5-1.2,6.3-1.8v-14.5h-4.2c-.7,0-.9-.4-1.6-2.3h5.8V1.6l2.9.7c.5,0,.7.4.7.8v10.1h.9c.7,0,1.2-.4,1.9-1.3,1,.9,1.6,1.6,1.6,2.1,0,1-.7,1.5-2.2,1.5h-2.2v13.3c1.3-.5,2.6-.9,4-1.5.5-.2,1.1.4.5.8h0ZM194.6,31.3c-3.9,2.2-7.2,3.6-12.9,5.9-1.3.5-1.7.3-3.9-2.5,6.2-1.2,10.5-2.4,16.3-4.2.6-.2,1.1.5.4.8h0ZM206.3,41.8c-2.6-1.8-5.3-4.9-7.4-8.8-3,4-7.2,8-13.2,10.2-.6.2-1.1-.4-.6-.8,5.7-3.8,9.7-8.1,12.3-12.5-.6-1.5-1.1-3.1-1.5-4.7-1-4.1-1.2-8.7-1.4-13h-12c-.7,0-1-.5-1.8-2.4h13.8c0-2.6-.1-6-.2-8.9l2.8.6c.5.1.8.5.8,1,0,2.4,0,5.1,0,7.2h7.2c.8,0,1.2-.3,2.1-1.3,1,1,1.7,1.6,1.7,2.3,0,1.1-1,1.5-2.4,1.5h-8.5c0,3.5.2,7.5,1,11.1.2.8.4,1.6.6,2.3,1.4-3.5,2.2-7.2,2.7-10.9l2.4,1.1c1,.4.9.7.6,1.9-.6,2.8-1.8,7.5-4.2,12,1.2,2.6,2.7,4.6,4.4,6.3.3.3.5.3.7.2.5-.3,1.2-1.8,1.8-3.2.1-.4.7-.2.6.2-.3,2.3,0,5.1.3,6.4.5,1.7.1,4.2-2.5,2.4h0ZM188.8,29v-1.8h-3.4v.9c0,2.1-1.7,2.7-3.4,2.4v-15.4l2.7.6c.5,0,.8.4.8.6h1.6c.7,0,1.2-.3,1.8-1l2.8.9c1.8.5.6,1.7.6,2.4v8.1c0,1.8-1.5,2.7-3.5,2.2h0ZM188.8,24.9v-6.4h-3.4v6.4h3.4ZM199.9,3.3c-.3-.6,0-.8.7-.6,1.2.4,2.8.9,3.9,2.2,1.9,2.1-.7,5.2-2.4,2.3l-2.2-3.9h0Z"/>
  <path class="st0" d="M254.7,33.7c0,1.1-.9,1.6-2.5,1.6h-15.5v4.9c0,2-2.1,2.8-3.9,2.4v-7.2h-16.8c-.8,0-1-.5-1.8-2.4h18.6v-3.3h-7.2c-.4,1.5-2,1.9-3.7,1.8v-15.3l3,.6c.5,0,.7.4.7.5h15.9c.8,0,1.3-.3,1.9-1l3.2,1.1c1.6.5.6,1.6.6,2.2v9.5c0,1.7-1.8,2.3-3.8,2.1v-1.5h-6.9v3.3h14.1c.8,0,1.3-.5,2.2-1.4,1,1,1.8,1.6,1.8,2.2h0ZM214.4,12.3h13.9s-.1-.1-.2-.2c-.9-1.4-1.7-2.9-2.4-4.1-.3-.5,0-.9.6-.7,2.3.8,4.1,1.6,4.6,2.4.7,1.1.3,2-.4,2.6h7.2c.8-1.5,1.9-3.5,2.5-5.2h-20.6c-.8,0-1-.5-1.8-2.3h16.2c-.2-.1-.4-.4-.6-.6-.9-1.1-1.7-2.2-2.2-2.9-.4-.5-.3-1,.5-.8,2.2.5,3.8.7,4.7,1.6.9.9.6,2.1,0,2.7h11c.7,0,1.2-.4,2-1.3.9,1,1.7,1.5,1.7,2.2,0,1.1-.9,1.4-2.3,1.4h-7.5l1.7,1.1c.9.6,1,.9.5,1.3-.9.8-2.1,1.8-3.3,2.7h10.6c.8,0,1.3-.4,2.1-1.3,1.1,1,1.8,1.5,1.8,2.2,0,1-.8,1.5-2.4,1.5h-36.1c-.9,0-1.1-.5-1.8-2.3h0ZM225.8,19.5v2.9h17.9v-2.9h-17.9ZM243.6,27.4v-2.8h-17.9v2.8h17.9Z"/>
  <path class="st0" d="M260.6,14.5c-.6.4-.9-.3-.6-.7,2.8-3.4,5.5-8.1,7.4-12.7l2.2,1.3c.9.5,1.2.8.6,1.6l-1.1,1.5h7.7c.8,0,1.2-.4,2-1.2,1,.9,1.7,1.5,1.7,2.1,0,.9-.8,1.4-2.4,1.4h-5.8c1.1.7,1.9,1.3,2.4,2,1.5,2.3-1.2,5.3-2.9,2.1-.6-1.2-1.2-2.9-1.8-4.1h-2.7c-1.8,2.3-4,4.8-6.8,6.7h0ZM279.1,36.5c1.5,2.8-1,5.4-2.8,2.4-.5-.8-1-1.8-1.6-3-2.6,1.6-7.1,4.1-10.2,5.6-1.2.6-1.3.6-3.8-2.3,1.1-.3,2.2-.6,3.4-1V13.4l2.8.6c.5,0,.7.3.7.5h5.8c.6,0,1.1-.3,1.7-.9l3,.9c1.8.6.6,1.7.6,2.3v11.7c0,1.8-1.9,2.4-3.6,2.2v-2.1h-7.5v8.4c2.4-.8,4.7-1.6,6.4-2.2-.7-1.3-1.5-2.7-2.2-3.8-.3-.4,0-1.1.7-.6,2.7,1.8,5.5,4.2,6.4,6.1h0ZM267.7,16.7v3.8h7.5v-3.8h-7.5ZM275.2,26.5v-3.8h-7.5v3.8h7.5ZM299.7,6.4c0,.9-.8,1.4-2.4,1.4h-7.6c1.5.9,2.2,1.4,2.8,2.2,1.7,2.2-1.1,5.1-2.8,2.1-.7-1.3-1.5-3-2.1-4.2h-3.2c-1.5,1.8-3.3,3.6-5.4,5.2-.6.4-1-.2-.7-.7,2.6-3.6,4.4-6.7,6.4-11.4l2.2,1.4c.9.5,1.1.8.5,1.7l-1.1,1.5h9.8c.8,0,1.2-.4,2-1.2.9.9,1.6,1.5,1.6,2.1h0ZM296.9,17v18.9c0,1.8-1.7,3.3-3.8,1.7-.8-.6-3.3-1.8-4.4-2.2-.4-.1-.4-.7.1-.7,1.4,0,4.1.1,4.4,0,.2-.1.1-.4.1-.5v-17.2h-6.7v23.8c0,1.9-1.8,2.5-3.6,2.2V13.3l2.8.6c.5,0,.8.4.8.6h5c.7,0,1.2-.4,1.8-1l3.1,1c1.8.6.5,1.9.5,2.6h0Z"/>
  <path class="st0" d="M336.4,30.9l-6.1-6.4-6.1,6.4-2-2,6.2-6.4-6-6.2,2-2,5.9,6.2,5.9-6.2,2,2-6,6.2,6.2,6.4-2,2h0Z"/>
  <path class="st0" d="M398.4,40.3c-3.1,2.1-3.3,2.2-5.3,1-4.6-2.8-10.3-7.2-14.2-14.6-1.5-2.8-2.5-5.8-3.3-8.7h-5.7c-.1,5.5-.6,9.1-1.6,12.1-1.9,6.1-5.5,10.2-8.7,12.3-.5.3-1.3,0-.6-.8,2.2-2.8,4.6-6.3,5.9-11.3,1.9-6.9,1.3-15.8,1-27.7l3.1.5c.6.1.9.3,1,.8h16c1,0,1.7-.4,2.4-1.2l3.2,1c2.2.7.7,2,.7,2.9v11.7c0,1.4-2,2.2-3.9,1.8v-2.3h-10.4c1.1,3.2,2.4,6,4.1,8.5,4.3,6.3,9.8,10.3,16.2,13.2.5.2.6.4.2.7h0ZM369.9,6.4v8.9h18.4V6.4h-18.4Z"/>
  <path class="st0" d="M413,16.7c0,6.1-.5,13.2-2,17.6-1.2,3.5-3.1,6.2-5.9,8.5-.5.4-1.1-.1-.8-.6,2.5-3.9,3.9-8.2,4.5-14.9.6-5.6.3-13.9.2-22.5l3.1.6c.5,0,.9.4.9.6h13.8c-.3-.2-.5-.5-.8-.8-.8-1.1-1.7-2.4-2.6-3.6-.4-.5,0-.9.6-.7,2.2.6,3.9,1,5,2.2.9,1,.6,2.3-.2,2.9h12.1c.8,0,1.3-.3,2.2-1.3,1,1.1,1.7,1.5,1.7,2.2,0,1.1-.9,1.6-2.5,1.6h-29.3v8.2h0ZM445.4,40.4c-3,2.5-3.2,2.5-4.8,2.1-1.9-.5-7.3-2.1-11.7-5.2-5.5,3.4-13.1,5-16.9,5.3-.9,0-1.1-.7-.4-1,3.2-.9,9.8-3.1,14.8-6.3-2.4-2.2-4-4.9-5.5-7.9h-3.1c-.7,0-.9-.7-1.6-2.3h18.3c.7,0,1.2,0,2-.7l1.7,1.6c1,.9,1.1,1.1.6,1.8-1.8,2.8-4.2,5.3-6.9,7.5,4.2,2.2,9.4,3.9,13.3,4.5.7,0,.5.4.2.7h0ZM432.4,23.4v-1.8h-8.5c0,1.9-1.8,2.3-3.7,2.2v-7.6h-5.1c-.7,0-1-.5-1.8-2.4h6.9v-4.7l2.7.6c.8.2,1,.4,1,.7v3.4h8.5v-4.6l2.7.5c.9.2,1,.4,1,.8v3.3h4.5c.9,0,1.3-.5,2.1-1.3,1.1,1,1.8,1.4,1.8,2.1,0,1.1-.8,1.6-2.4,1.6h-5.9v5.1c0,1.6-1.5,2.5-3.7,2.1h0ZM428.9,33.5c2.2-1.8,4.2-3.9,5.5-6h-11.1c1.4,2.2,3.2,4.3,5.6,6ZM432.4,19.2v-3.1h-8.5v3.1h8.5Z"/>
  <path class="st0" d="M492.3,10.8c-2.7,2.3-2.7,2.3-4.6,1.8-2.4-.6-6.1-1.9-9.7-3.8.2.2.3.5.3.7,0,.9-.9,1.4-2.2,1.4h-11.3c-.5,0-.8-.3-1.3-1.3-3.5,1.6-7.7,2.9-12.6,3.7-.5,0-.8-.7-.2-1,4.3-1.5,8.7-3.3,12.3-5.5,3.1-1.9,5.6-4.2,7.7-6.4l2.2,1.6c1,.6,1,1,.3,1.6,1.8,1.2,4,2.4,6.6,3.4,3.4,1.2,7.6,2.5,12.3,3.1.5,0,.5.4.1.7h0ZM491.3,33.2c0,.9-.9,1.4-2.2,1.4h-15.3v5.6c0,2.2-2.3,3.4-4.2,1.8-1.2-1-3.2-1.9-4.4-2.3-.6-.2-.5-.7,0-.7,1.2,0,4,0,4.3,0,.3-.1.3-.2.3-.4v-4h-16.8c-.8,0-1.1-.5-1.9-2.3h18.6v-2.7h-11.7c-.8,0-1-.6-1.9-2.4h13.6v-2.4c-4.6.2-9.2.3-12.8,0-.9,0-.8-.9,0-.9,4.7-.3,9.6-.7,14.8-1.4,4.3-.5,8-1.1,11.4-2.2l1.4,1.5c1,1.1.7,1.6-.2,1.8-2.9.4-6.6.8-10.5,1.1v2.6h8.9c.7,0,1.2-.3,1.9-1.1.9.9,1.7,1.3,1.7,2,0,1-.9,1.5-2.4,1.5h-10.1v2.7h14c.7,0,1.2-.4,1.9-1.2.9.9,1.6,1.5,1.6,2.1h0ZM478.4,20.8v-1.1h-13.9c-.3,1.7-2,1.9-3.6,1.8v-9.8l2.9.6c.5,0,.7.3.7.6h12c.8,0,1.2-.3,1.8-1l2.9.9c1.9.6.8,1.5.8,2.5v3.6c0,1.6-1.6,2.3-3.7,2h0ZM478.4,17.6v-2.5h-13.8v2.5h13.8ZM476.5,8c-1.6-1-3.1-2.1-4.4-3.3-1.6,1.2-3.8,2.7-6.7,4.1h9.6c.6,0,1-.2,1.6-.8h0Z"/>
  <path class="st0" d="M507.2,21.7v18.4c0,2.1-2.3,3.4-3.9,1.9-1.3-1.2-3.6-2.4-5-2.9-.5-.2-.5-.7,0-.7,1.1,0,4.5,0,4.8,0,.2-.1.2-.2.2-.4v-13.6c-1.1.7-2,1.4-2.9,1.9-.9.6-1.3.6-2.5-.5l-1.6-1.5c2.5-1,4.8-2,6.9-3v-9.4h-4.4c-.9,0-1.1-.4-1.9-2.4h6.3V1.2l2.9.6c.5,0,.8.4.8.7v6.9h2.4c.8,0,1.2-.4,2.2-1.4,1.1,1.1,1.8,1.5,1.8,2.2,0,1.1-.9,1.6-2.8,1.6h-3.6v7.6c1.8-.9,3.5-1.8,5.1-2.6.6-.3,1.1.2.5.7-1.3,1.2-3.4,2.8-5.6,4.3h0ZM538.1,39.6c0,1.1-1,1.7-2.5,1.7h-23.9c-.8,0-1-.5-1.9-2.5h12.6v-6.8h-7.6c-.7,0-1-.5-1.8-2.4h9.4v-6.4l3,.6c.6.1.8.3.8.6v5.2h4.9c.9,0,1.4-.5,2.2-1.4,1.1.9,1.9,1.5,1.9,2.2,0,1.1-1.1,1.7-2.6,1.7h-6.3v6.8h7.7c1,0,1.6-.7,2.4-1.6.9.9,1.9,1.6,1.9,2.4h0ZM514.9,24.3V2.7l2.9.5c.6,0,.8.4.8.7h0s9.9,0,9.9,0c.8,0,1.3-.4,2-1.1l3.1,1c1.8.5.6,1.8.6,2.8v15.1c0,1.9-1.8,2.6-3.7,2.3v-2.6h-11.9v.3c0,2.1-1.8,2.8-3.7,2.6h0ZM518.6,6.3v5.2h11.9v-5.2h-11.9ZM530.5,19v-5.2h-11.9v5.2h11.9Z"/>
</svg>