<?xml version="1.0" encoding="utf-8"?>
<!-- Generator: Adobe Illustrator 27.0.0, SVG Export Plug-In . SVG Version: 6.00 Build 0)  -->
<svg version="1.1" id="圖層_1" xmlns="http://www.w3.org/2000/svg" xmlns:xlink="http://www.w3.org/1999/xlink" x="0px" y="0px"
	 viewBox="0 0 400 29" style="enable-background:new 0 0 400 29;" xml:space="preserve">
<style type="text/css">
	.st0{fill:#FFFFFF;}
</style>
<path class="st0" d="M36.5,28.1c11.2-7.8,11-17.9,11-27.2l3.7,0.4c0,0.4-0.3,0.6-1.2,0.7c0.7,9.5,3.5,18.4,13,24.2L63,26.5
	c-1.2,0.1-2,0.8-2.4,2.1C53.3,23.2,50.9,15,49.9,6.8h0c-0.5,7.8-2.4,15.9-13.1,21.8L36.5,28.1L36.5,28.1z"/>
<path class="st0" d="M94,6.8c-0.2,0.4-0.6,0.6-1.4,0.6H89c-1.4,5.1-3.5,9.5-6.7,13c3.2,2.7,7.2,4.6,11.7,5.7l-0.1,0.4
	c-1.2,0.1-2.1,0.9-2.6,2.1c-4.2-1.5-7.8-3.6-10.7-6.6c-3.3,2.9-7.5,5.2-13,6.6l-0.1-0.5c5-1.7,9-4.2,11.9-7.5
	c-2.7-3.4-4.7-7.7-5.8-13.2h-5.9l-0.2-0.7h11.9V0l3.6,0.4c0,0.5-0.3,0.7-1.3,0.8v5.5h7.5L91,4.4L94,6.8L94,6.8z M74.3,7.4
	c1.2,4.8,3.5,8.7,6.5,11.7c2.6-3.3,4.3-7.2,5.3-11.7H74.3z"/>
<path class="st0" d="M122.1,3.1l3,2.3c-0.2,0.4-0.5,0.6-1.4,0.6H114c-0.1,0.4-0.3,0.6-1,0.7V11h6.3l1-1.4l2.8,2.2
	c-0.2,0.2-0.6,0.5-1.2,0.6v9.4c0,1.6-0.3,2.8-3.4,3.1c0-1.7-0.9-2.1-3-2.4v-0.4h3.6c0.4,0,0.6-0.1,0.6-0.5v-9.9h-6.6v15.9
	c0,0.1-0.4,1-2.4,1V11.7H104V24c0,0.1-0.3,0.9-2.3,0.9V9.9l2.5,1.2h6.4V6H98.7l-0.2-0.7h12V0.1l3.7,0.3c0,0.5-0.3,0.7-1.3,0.8v4.1
	h7.5L122.1,3.1L122.1,3.1z"/>
<path class="st0" d="M156.2,7.1c-0.2,0.4-0.6,0.6-1.4,0.6h-0.7c-0.7,5.3-2.1,9.7-4.5,13.2c1.7,2.2,3.9,4,6.7,5.2l-0.1,0.3
	c-1.2,0.2-1.9,1-2.2,2.2c-2.5-1.5-4.4-3.6-5.8-6c-2.3,2.6-5.3,4.6-9.5,6l-0.1-0.5c4-1.8,6.8-4.2,8.8-7.2c-1.3-2.8-2.1-6.1-2.7-9.7
	c-0.9,1.7-1.9,3.2-3,4.4l-0.4-0.3c0.4-0.7,0.8-1.6,1.2-2.6c-0.2,0-0.4,0.1-0.7,0.1h-3.8v9c2-0.3,4.1-0.7,6.4-1l0.1,0.5
	c-3,1.1-7.1,2.6-13,4.3c-0.2,0.4-0.5,0.6-0.7,0.7l-1.3-3.2l1.7-0.2V8.8l3,0.3c0,0.4-0.3,0.5-1,0.6v12.8l2.6-0.4V3.8h-5.9l-0.2-0.7
	h10.1l1.5-2l2.7,2.1c-0.2,0.4-0.6,0.6-1.3,0.6h-4.7v8.4h1.4l1.3-2l2.1,1.8c1.2-3.3,2-7.6,2.4-11.9l3.6,0.7c-0.1,0.4-0.3,0.6-1,0.7
	c-0.4,2-0.8,3.8-1.4,5.6h5.6l1.5-2.1L156.2,7.1L156.2,7.1z M146.1,7.7c-0.3,0.9-0.6,1.8-1,2.6c0.7,3.3,1.7,6.3,3.3,8.8
	c1.7-3.2,2.7-7,3.2-11.5H146.1z"/>
<path class="st0" d="M164.9,12.4c0.5,1.7,0.7,3.2,0.7,4.6c0,4.1-1.9,6.8-3.8,6.8c-0.9,0-1.1-0.6-1.1-1.1c0-0.5,0.3-1,0.7-1.4
	c1.7-1.4,3.2-4.8,3.1-8.8L164.9,12.4z M167.9,1.1c7.5,0.1,9.9,2.9,9.9,4.6c0,0.7-0.5,1.2-1.1,1.2c-0.2,0-0.4,0-0.6-0.1
	c-1.1-1.7-4-4-8.2-5.2L167.9,1.1z M168.5,9l3.4,0.3c-0.1,0.4-0.2,0.6-1.1,0.8v14.4c0,1,0.1,1.1,1.2,1.1h5.6c0.5,0,0.8-0.1,1.1-0.5
	c0.3-0.5,0.7-2.3,1.2-4.5h0.3l0,4.7c1,0.4,1.1,0.5,1.1,0.9c0,1-0.9,1.6-3.7,1.6H172c-2.9,0-3.5-0.6-3.5-3.3L168.5,9L168.5,9z
	 M180.7,11.1c4.9,3,6.4,6.8,6.4,9.4c0,1.8-0.7,3.1-1.6,3.1c-0.3,0-0.7-0.2-1-0.7c0.1-3.1-0.9-8.1-4.1-11.4L180.7,11.1z"/>
<path class="st0" d="M218.7,8.1v3.8c2.9,1.3,3.8,2.9,3.8,4c0,0.8-0.5,1.4-1.1,1.4c-0.3,0-0.6-0.1-0.9-0.5c-0.2-1.3-1-3.1-1.9-4.3
	v15.2c0,0.1-0.3,0.8-2.2,0.8V15.2c-1,2.3-2.3,4.4-3.9,6.2l-0.4-0.4c2.1-3.6,3.4-8.2,4.1-12.9h-3.8l-0.1-0.7h4.2V0.1l3.4,0.3
	c0,0.5-0.3,0.7-1.2,0.8v6.2h0.7l1.3-1.9l2.4,2c-0.3-0.7-0.6-1.4-1-2l0.3-0.2c2.7,1.5,3.6,3.3,3.6,4.6c0,1.2-0.6,2-1.4,2
	c-0.3,0-0.7-0.2-1-0.6c0-0.3,0.1-0.6,0.1-0.8c0-1-0.2-2-0.5-3c-0.2,0.4-0.6,0.6-1.3,0.6L218.7,8.1L218.7,8.1z M220.7,18.4
	c1-0.4,3.3-1.6,5.7-2.8c0-0.5,0-1,0-1.6v-14l3.3,0.3c-0.1,0.5-0.3,0.7-1.2,0.8V14c0,6.5-1.8,11.5-8,14.7l-0.3-0.4
	c4.2-2.9,5.8-6.7,6.2-11.6c-0.9,1-2,2.3-3.3,3.7c0,0.4-0.2,0.7-0.5,0.9L220.7,18.4L220.7,18.4z M238.1,21.8l0,3.8
	c0.8,0.4,1,0.5,1,0.9c0,1-0.7,1.5-2.9,1.5h-2.6c-2.3,0-2.7-0.8-2.7-3.6V0.1l3.4,0.3c-0.1,0.5-0.3,0.7-1.2,0.8v13.8
	c3.9,1,5.1,2.9,5.1,4.3c0,0.9-0.5,1.5-1.1,1.5c-0.3,0-0.6-0.1-0.9-0.4c-0.3-1.7-1.6-3.6-3.1-4.7v8.8c0,1.2,0,1.3,0.6,1.3h2.5
	c0.3,0,0.5,0,0.8-0.3c0.2-0.3,0.7-2.1,0.9-3.6L238.1,21.8L238.1,21.8z M238.7,6.7c-0.1,0.2-0.2,0.3-0.5,0.3c-0.1,0-0.2,0-0.3,0
	c-0.9,1.3-2.7,3.6-4.2,5.1l-0.3-0.2c0.8-2.1,1.9-5.3,2.3-6.9L238.7,6.7L238.7,6.7z"/>
<path class="st0" d="M266.8,0.7l2.7,2.1c-0.2,0.3-0.6,0.5-1.2,0.6v23.8c0,0.1-0.6,0.9-2.2,0.9v-1.7h-19v1.1c0,0.1-0.2,1-2.2,1V1
	l2.4,1.2h18.4L266.8,0.7z M247.1,25.8h19V2.9h-19V25.8z M262.8,7.9l2.3,1.7c-0.2,0.5-0.6,0.6-1.3,0.6h-15.5l-0.2-0.7h7.3V7.1h-5.6
	l-0.2-0.7h5.7V3.7l3.1,0.3c0,0.4-0.3,0.5-1,0.6v1.7h2.7l1.2-1.6l2.2,1.7c-0.2,0.4-0.6,0.6-1.3,0.6h-4.8v2.5h4L262.8,7.9L262.8,7.9z
	 M262.7,16.6L262.7,16.6l1.9,1.7c-0.1,0.1-0.2,0.2-0.4,0.2c-0.1,0-0.3,0-0.5-0.1c-0.6,0.4-1.7,1.1-2.5,1.6c0.8,0.3,3,1.3,3,2.9
	c0,0.5-0.3,0.9-0.7,0.9c-0.3,0-0.6-0.1-0.9-0.4c-0.9-1.3-2.9-2.9-5-3.8v4.6c0,0.2-0.7,0.7-1.8,0.7h-0.3V19c-1.8,2-4.2,3.6-6.9,4.8
	l-0.3-0.5c2.6-1.7,4.9-4,6.4-6.5h-2.2v0.6c0,0.1-0.3,0.7-2,0.7v-6.8l2.1,1h7.8l0.8-1.1l2.4,1.7c-0.1,0.2-0.5,0.4-0.9,0.5L262.7,16.6
	L262.7,16.6z M252.5,16.1h8.2V13h-8.2V16.1z M257.6,16.8V19c1.1,0.2,2,0.4,2.9,0.7c0.5-0.6,1-1.4,1.5-2.1c-0.5,0.2-0.9,0.2-1.4,0.2
	v-1.1H257.6z"/>
<path class="st0" d="M297.4,14.5l2.4,2.3c-0.2,0.3-0.5,0.3-1.1,0.4c-0.7,2.3-1.9,4.4-3.5,6.2c1.7,1.2,3.6,2,5.6,2.6l-0.1,0.3
	c-1,0.2-1.6,0.9-2,2.1c-2-0.9-3.7-2.1-5.1-3.5c-1.6,1.4-3.6,2.6-6,3.5l-0.2-0.5c2.1-1.1,3.8-2.5,5.1-4.2c-1.5-1.9-2.7-4.2-3.4-7.1
	h-2.5v11.2c0,0.1-0.7,0.7-1.9,0.7h-0.4v-5c-1.9,0.7-4.5,1.6-8,2.8c-0.1,0.4-0.4,0.6-0.7,0.7l-1.6-2.9c0.8-0.1,1.9-0.2,3.2-0.3V13.1
	h-2.9l-0.2-0.7h22.2l1.5-2.1l2.7,2.2c-0.2,0.4-0.5,0.6-1.4,0.6h-12.8V16h9.3L297.4,14.5L297.4,14.5z M280.9,9.6v0.6
	c0,0.1-0.4,0.9-2.3,0.9V0.8l2.5,1.1h13l1-1.4l2.8,2.1c-0.2,0.2-0.6,0.5-1.2,0.6v6.8c0,0.1-0.7,0.7-2.3,0.7V9.6L280.9,9.6L280.9,9.6z
	 M284.5,13.1h-4.8V16h4.8V13.1z M279.7,16.6v2.9h4.8v-2.9H279.7z M279.7,20.2v3.3c1.5-0.1,3.2-0.4,4.8-0.6v-2.8L279.7,20.2
	L279.7,20.2z M294.4,2.6h-13.5v2.8h13.5V2.6z M280.9,8.9h13.5V6h-13.5V8.9z M289.9,16.7c0.9,2.2,2.2,4.1,3.9,5.6
	c1.1-1.7,1.9-3.5,2.4-5.6H289.9z"/>
<path class="st0" d="M312,8.2v4.2c3,1.2,4,2.8,4,3.9c0,0.8-0.5,1.4-1,1.4c-0.3,0-0.6-0.1-0.9-0.5c-0.2-1.3-1.1-3.1-2-4.3v14.8
	c0,0.1-0.3,0.8-2.2,0.8V14.9c-1.1,2.4-2.5,4.6-4.2,6.5l-0.4-0.4c2.2-3.6,3.5-8.2,4.2-12.9h-3.8l-0.2-0.7h4.3V0.1l3.4,0.3
	c0,0.4-0.3,0.7-1.2,0.8v6.2h0.8l1.3-2l2.4,2.1c-0.2,0.4-0.6,0.6-1.3,0.6L312,8.2L312,8.2z M332,15.7c-0.1,0.2-0.3,0.3-0.7,0.3
	c-0.1,0-0.3,0-0.5-0.1c-1.3,2.1-2.7,4-4.3,5.5c4,1.7,5.4,4,5.4,5.5c0,1-0.5,1.6-1.2,1.6c-0.3,0-0.6-0.1-1-0.5c-0.5-2-2-4.4-3.6-6.1
	c-3.3,3.1-7.1,5.1-11.5,6.5l-0.2-0.5c6-2.8,10.9-6.7,14.5-14.1L332,15.7L332,15.7z M329.4,10.9c-0.1,0.2-0.3,0.4-0.6,0.4
	c-0.1,0-0.3,0-0.5-0.1c-3.3,5.3-7.6,8.8-12.7,11.1l-0.3-0.5c4.5-2.8,8.2-6.8,11-12.6L329.4,10.9L329.4,10.9z M329.5,3.3l2.7,2.1
	c-0.3,0.4-0.6,0.6-1.4,0.6h-8.4l3,1.4c-0.1,0.3-0.4,0.5-1.1,0.4c-1.2,1.7-2.7,3.3-4.1,4.4c0.9,0.7,1.2,1.6,1.2,2.2
	c0,0.9-0.5,1.5-1.2,1.5c-0.3,0-0.6-0.1-0.9-0.4c-0.3-1.6-1.5-3.6-2.9-4.7l0.2-0.2c1.2,0.3,2.2,0.7,2.9,1.1c0.9-1.5,1.9-3.6,2.6-5.7
	h-6.2l-0.2-0.7h7V0.1l3.4,0.3c-0.1,0.4-0.3,0.6-1.1,0.7v4.2h3.1L329.5,3.3L329.5,3.3z"/>
<path class="st0" d="M340.8,12.4c0.5,1.7,0.7,3.2,0.7,4.6c0,4.1-1.9,6.8-3.8,6.8c-0.9,0-1.1-0.6-1.1-1.1c0-0.5,0.3-1,0.7-1.4
	c1.7-1.4,3.2-4.8,3.1-8.8L340.8,12.4z M343.8,1.1c7.5,0.1,9.9,2.9,9.9,4.6c0,0.7-0.5,1.2-1.1,1.2c-0.2,0-0.4,0-0.6-0.1
	c-1.1-1.7-4-4-8.2-5.2L343.8,1.1z M344.4,9l3.4,0.3c-0.1,0.4-0.2,0.6-1.1,0.8v14.4c0,1,0.1,1.1,1.2,1.1h5.6c0.5,0,0.8-0.1,1.1-0.5
	c0.3-0.5,0.7-2.3,1.2-4.5h0.3l0,4.7c1,0.4,1.1,0.5,1.1,0.9c0,1-0.9,1.6-3.7,1.6h-5.6c-2.9,0-3.5-0.6-3.5-3.3L344.4,9L344.4,9z
	 M356.6,11.1c4.9,3,6.4,6.8,6.4,9.4c0,1.8-0.7,3.1-1.6,3.1c-0.3,0-0.7-0.2-1.1-0.7c0.1-3.1-0.8-8.1-4.1-11.4L356.6,11.1z"/>
</svg>
