<?xml version="1.0" encoding="UTF-8"?>
<svg id="_圖層_1" data-name="圖層_1" xmlns="http://www.w3.org/2000/svg" version="1.1" viewBox="0 0 600 56">
  <!-- Generator: Adobe Illustrator 29.4.0, SVG Export Plug-In . SVG Version: 2.1.0 Build 152)  -->
  <defs>
    <style>
      .st0 {
        fill: #fff;
      }

      .st1 {
        fill: #701520;
      }

      .st2 {
        fill: gold;
      }
    </style>
  </defs>
  <path class="st1" d="M541,.3H59.2v55.2h481.8V.3Z"/>
  <path class="st2" d="M160.2,44.7c6.5-6.7,10.9-11.7,13.2-14.8,2.3-3.2,3.5-6.2,3.5-9.2s-.7-4.6-2.1-6c-1.4-1.4-3.1-2.1-5.1-2.1s-4.4.9-5.9,2.7c-.8,1-1.6,2.5-2.4,4.5l-1.1-.2c.9-4.1,2.4-6.9,4.5-8.5,2.1-1.6,4.4-2.4,6.8-2.4s5.4.9,7.3,2.8c1.8,1.9,2.8,4.2,2.8,6.9s-1,5.7-3,8.4c-2,2.7-6.4,7.5-13.1,14.4h12.2c1.7,0,2.9-.2,3.6-.6.7-.4,1.5-1.4,2.3-3l.7.3-3,7.4h-21.2v-.6h0Z"/>
  <path class="st2" d="M208.3,15.1c1.8,3.5,2.7,7.4,2.7,11.9s-.6,6.9-1.7,10c-2.1,5.9-5.7,8.8-10.8,8.8s-6.4-1.6-8.6-4.8c-2.4-3.4-3.6-8-3.6-13.8s.8-8.5,2.4-11.8c2.2-4.5,5.5-6.7,10.1-6.7s7.2,2.1,9.5,6.4h0ZM204.2,40c1-2.8,1.5-7,1.5-12.4s-.3-7.7-.9-10.3c-1.1-4.8-3.2-7.2-6.2-7.2s-5.1,2.5-6.2,7.4c-.6,2.6-.9,6.1-.9,10.4s.3,7.2.9,9.6c1.1,4.5,3.3,6.8,6.4,6.8s4.4-1.4,5.4-4.3h0Z"/>
  <path class="st0" d="M220.2,29l-.4-.5c2.1-2.1,4.2-4.7,6.1-7.9,1.7-2.9,3.1-5.7,4-8.4l5.2,2.4c-.2.5-.7.7-1.6.6-1.5,2.6-3.3,5-5.4,7.2-2.5,2.7-5.1,4.9-7.9,6.6h0ZM221.9,47.4l-.4-.6c4.6-2.8,7.8-6.1,9.7-9.8,1.3-2.6,2-5.7,2.3-9.5h-7.4l-.4-1.2h20.6l2.2-2.2,3.8,3.3c-.4.4-.9.6-1.6.7-.2,5.1-.6,9-1.2,11.9-.6,3-1.4,5-2.4,5.9-1.3,1.1-3,1.6-5.3,1.6,0-1.3-.3-2.2-.9-2.7-.7-.6-2.2-1.1-4.5-1.5v-.6c3.4.3,5.5.4,6.3.4s1.2-.2,1.6-.5c1.1-1,1.9-6,2.3-15h-8.8c-.5,4.2-1.6,7.7-3.4,10.4-2.5,3.9-6.7,7.1-12.4,9.6h0ZM255.5,28.1c-2.6-1.9-5-4.2-7-7-2.1-2.8-3.6-5.8-4.6-8.8h-8.8l-.4-1.2h8.1l1.4-2.2,3.9,2.6c-.4.4-1.5.8-3.1.9,1.2,2.3,3,4.5,5.6,6.7,2.6,2.2,5.4,4,8.4,5.2v.5c-.9.2-1.6.6-2.2,1.2-.6.6-1.1,1.3-1.3,2.1h0Z"/>
  <path class="st0" d="M267.7,47.2l-2.5-4.4c1.9-.4,4.1-.8,6.5-1.4v-12.8h-5.7l-.3-1.2h6v-5.2h-3l-.3-1.2c-1.1,1.2-2.2,2.2-3.4,3.1l-.5-.4c1.5-1.8,2.9-4.2,4.2-7.2,1.3-2.8,2.2-5.3,2.7-7.6l5.1,1.7c-.1.5-.7.8-1.6.8,2.3.7,4.1,1.6,5.3,2.7,1,.9,1.4,1.8,1.4,2.6,0,.8-.4,1.4-1.1,1.7-.7.3-1.4.2-2-.3-.8-1.9-2.2-3.9-4.1-5.9-1.6,3.3-3.6,6.2-6,8.7h6.7l1.9-2.6c1.2,1,2.3,2.1,3.5,3.1-.1.4-.5.7-1.1.7h-4.4v5.2h1.5l1.9-2.7c1.2,1.1,2.3,2.2,3.5,3.3-.1.4-.5.7-1.1.7h-5.7v12.1c1.2-.3,3-.7,5.6-1.3.6-.1,1.1-.2,1.4-.3v.5c-3.9,2.1-8.4,4.3-13.3,6.6-.2.5-.5.8-.9,1h0ZM269.3,39.7c-.6.2-1.2,0-1.8-.7.3-2.3,0-5.1-.8-8.2h.5c1.4,1.2,2.4,2.5,3,3.9.5,1.2.6,2.3.4,3.3-.2.9-.6,1.5-1.3,1.7h0ZM276.6,38.9l-.7-.3c.5-2.3.9-5,1.3-8.3l4.4,1.3c-.2.5-.8.8-1.5.9-1.2,2.6-2.3,4.8-3.4,6.4ZM279.9,46.4l-.3-1.2h10.6v-4.6h-7.8l-.3-1.2h8.1v-4h-4v1.1c0,.2-.3.4-.8.6-.6.2-1.3.4-2.1.4h-.6v-15l3.9,1.5h11.1l1.8-2,3.5,2.7c-.4.4-.9.6-1.5.7v10.5c0,.1-.3.3-.8.5-.7.2-1.4.4-2.2.4h-.7v-1.4h-4.2v4h3.3l2.1-2.5c1.3,1,2.5,2,3.8,3.1-.1.4-.5.7-1.1.7h-8.1v4.6h4.2l2.1-2.8c.5.4.9.8,1.4,1.2,1.1.9,1.9,1.6,2.5,2.2,0,.4-.4.7-1.1.7h-23.1ZM281.4,21.2l-.3-1.2h6.7c-.4-.1-.8-.4-1.2-.7,0-1.6-.2-3.2-1-4.9h-3.5l-.3-1.2h8.5v-3.9l4.9.5c0,.5-.5.9-1.3,1v2.4h3.4l2.2-2.8c.5.4.9.8,1.4,1.2,1.1.8,1.9,1.6,2.5,2.1,0,.4-.4.7-1.1.7h-5.7l3.6.9c-.1.6-.6.9-1.5.9-.8,1-2.1,2.3-3.8,3.9h3l2.1-2.6c1.3,1,2.6,2.1,4,3.1-.1.4-.5.7-1.1.7h-21.4,0ZM286.2,29.1h4v-4h-4v4ZM286.2,34.2h4v-3.9h-4v3.9ZM288.9,20h4.8c0-.3.2-.8.4-1.5.5-2,.8-3.4,1-4.2h-8.5c1.5.6,2.6,1.4,3.2,2.3.5.7.6,1.5.4,2.2-.2.6-.6,1-1.3,1.2h0ZM293.7,29.1h4.2v-4h-4.2v4ZM293.7,34.2h4.2v-3.9h-4.2v3.9Z"/>
  <path class="st0" d="M313,46.9l-2.1-4.9c2-.2,5.1-.7,9.1-1.3v-7.6h-7.9l-.3-1.2h8.3v-5.9l5.3.5c0,.6-.6.9-1.4,1.1v4.3h2.8l2.2-3c.5.4.9.8,1.4,1.2,1.1.9,1.9,1.7,2.5,2.3,0,.4-.5.7-1.1.7h-7.9v7c2.1-.3,5.4-.9,9.9-1.7v.6c-4.8,2-11.5,4.2-19.8,6.9-.2.5-.6.8-1.1,1h0ZM312.9,27l-1.6-4.7c1.1,0,2.9,0,5.4-.2.7-2.4,1.2-5.1,1.7-8.1h-7.1l-.3-1.2h16.8l2.2-2.9c.5.4,1,.8,1.5,1.2,1.1.9,2,1.7,2.6,2.3-.1.4-.5.7-1.1.7h-9.9c-1.7,3.3-3.2,6-4.6,8.1.4,0,1.1,0,2.1-.1,3.2-.2,5.6-.3,7.3-.5-1-1.6-2-2.9-3.2-4l.4-.3c2.5.8,4.4,1.9,5.8,3.2,1.1,1.1,1.7,2.2,1.8,3.4,0,1.1-.2,1.8-.9,2.2-.7.4-1.5.3-2.3-.4-.1-1-.5-2-1-3.2-2.6.7-7.4,2-14.3,3.8-.2.5-.6.8-1.2.9h0ZM335.8,38.6V12.5l5.1.5c0,.6-.6,1-1.5,1.1v23.3c0,.2-.3.5-1,.7-.7.3-1.3.4-2,.4h-.7ZM342.1,47.5c-.1-1.3-.4-2.2-.9-2.7-.7-.7-1.8-1.1-3.5-1.4v-.6c1.6,0,3.3.2,5,.3.4,0,.6,0,.7-.2.1-.1.2-.3.2-.6V9.6l5.2.5c0,.6-.6,1-1.4,1.2v31.2c0,1.6-.3,2.7-.9,3.3-.7.8-2.2,1.4-4.4,1.6h0Z"/>
  <path class="st0" d="M364.8,47.3v-27.3h-1.5c-2,3.6-4.2,6.5-6.9,8.8l-.6-.4c1.6-2.4,3-5.3,4.2-8.8,1.3-3.5,2.3-7.1,2.9-10.7l5.6,1.5c-.2.6-.7.9-1.6.9-.8,2.6-1.9,5.1-3.1,7.4h5.7l2.2-2.9c.5.4.9.8,1.4,1.2,1.1.9,1.9,1.7,2.5,2.3-.1.4-.5.7-1.1.7h-6v26.2c0,.2-.3.4-.9.6-.7.3-1.5.5-2.4.5h-.7,0ZM382.2,47.4c0-1.3-.4-2.3-.9-2.9-.7-.7-1.9-1.2-3.7-1.4v-.6c1.8,0,3.5.2,5.3.3.6,0,.9-.3.9-.8v-21.9h-4.2c-2.1,3.4-4.6,6.2-7.4,8.4l-.5-.4c1.7-2.4,3.2-5.2,4.5-8.5,1.4-3.4,2.5-7,3.1-10.6l5.9,1.8c-.2.6-.7.9-1.6.8-1,2.8-2.1,5.2-3.3,7.3h8.3l2.3-3c.5.4,1,.8,1.4,1.2,1.1.9,2,1.7,2.6,2.3,0,.4-.5.7-1.1.7h-6v22c0,1.6-.3,2.8-1,3.5-.8.9-2.4,1.5-4.6,1.7h0Z"/>
  <path class="st0" d="M409,47.4v-16.4c-1.9,3.2-4.4,6-7.4,8.6l-.5-.5c1.6-2.1,3.1-4.6,4.4-7.6,1.2-2.7,2.2-5.6,2.9-8.6h-6l-.3-1.2h7v-6.8c-2.2.4-4.5.7-6.9.9l-.2-.6c2.3-.7,4.7-1.6,7.2-2.8,2.4-1.1,4.4-2.2,5.8-3.2l4.5,3.9c-.5.4-1.3.4-2.4,0-1.2.4-2.6.7-4.1,1.1v7.5h1.3l2-2.8c1.2,1.1,2.5,2.2,3.7,3.3-.1.4-.5.7-1.1.7h-5.9v2.5c2.1.8,3.7,1.7,4.8,2.8.9.9,1.4,1.9,1.4,2.8s-.3,1.4-1,1.7c-.6.3-1.4.2-2.1-.4-.4-1.7-1.4-3.6-3-5.8v19.8c0,.2-.3.4-.9.7-.7.3-1.5.5-2.3.5h-.6,0ZM430.6,47.3v-12.3l-13.6,2.6-.6-1.1,14.2-2.7V9.9l5.3.6c0,.7-.6,1.1-1.5,1.2v21.4l1-.2,1.8-3.5c1.3,1,2.5,1.9,3.8,2.9,0,.5-.3.8-.9.9l-5.7,1.1v11.7c0,.2-.3.5-1,.8-.7.3-1.4.5-2.1.5h-.8ZM424.2,30.1c-.3-1-.9-2.2-1.9-3.4-.9-1.1-1.8-2.1-2.8-2.9l.4-.3c2.5.4,4.5,1,5.8,2.1,1.1.8,1.8,1.8,1.9,2.8,0,.9-.2,1.6-.9,2-.7.5-1.6.4-2.5-.2h0ZM424.9,20.2c-.3-1.1-.9-2.2-1.8-3.5-.9-1.2-1.8-2.2-2.8-3l.4-.3c2.5.4,4.4,1.2,5.7,2.2,1.1.9,1.7,1.8,1.8,2.9,0,.9-.2,1.6-.9,2-.7.4-1.5.3-2.4-.3h0Z"/>
</svg>