<svg width="499" height="46" viewBox="0 0 499 46" fill="none" xmlns="http://www.w3.org/2000/svg">
<path d="M18.0899 10.5V11.32H20.3599C20.6199 11.32 20.7899 11.19 21.0499 10.87C21.3699 11.19 21.6399 11.38 21.6399 11.62C21.6399 11.96 21.2999 12.15 20.8099 12.15H18.0899V14.65C18.0899 15.37 17.3399 15.74 16.7599 15.29C16.3599 14.97 15.4799 14.67 15.0899 14.51C14.9299 14.45 14.9499 14.27 15.1199 14.27C15.4899 14.27 16.5799 14.29 16.6599 14.25C16.7399 14.22 16.7399 14.19 16.7399 14.12V12.15H8.41995C8.14995 12.15 8.09995 11.96 7.82995 11.32H16.7499V10.47C14.2199 10.41 11.9799 10.29 10.5999 8.42001C10.0999 9.00001 9.58995 9.64002 9.26995 10.02C8.73995 10.64 8.64995 10.63 7.56995 9.80002C8.52995 9.26002 9.51995 8.60002 9.96995 8.13002V6.79001H8.31995C8.09995 6.79001 8.02995 6.58002 7.77995 5.99002H9.47995C9.74995 5.99002 9.90995 5.86002 10.0399 5.69002L10.9499 5.99002C11.6499 6.23002 11.2199 6.50001 11.2199 6.76001V8.09001C12.3999 9.64001 15.3699 9.58001 17.6899 9.51001C19.4199 9.46001 20.8599 9.32002 21.5999 9.19002C21.7899 9.16002 21.8199 9.30001 21.7599 9.37001C21.5199 9.61001 21.3399 9.83001 21.1199 10.09C20.9599 10.28 20.8599 10.33 20.4599 10.36C19.7199 10.42 18.9099 10.52 18.0899 10.5ZM8.22995 3.58002C8.11995 3.47002 8.19995 3.24002 8.43995 3.32002C9.02995 3.51002 9.76995 3.67001 10.2799 4.15001C10.8699 4.71001 10.2499 5.80002 9.41995 4.97002C9.01995 4.57002 8.66995 4.06002 8.23995 3.58002H8.22995ZM8.97995 1.48001C8.86995 1.37001 8.94995 1.18002 9.18995 1.24002C9.80995 1.40002 10.3299 1.51002 10.8399 1.85002C11.6699 2.39002 10.8999 3.58001 10.1199 2.76001C9.66995 2.30001 9.42995 1.93001 8.97995 1.48001ZM13.6199 13.39C14.2799 14.06 13.3999 15.23 12.6399 14.29C12.2699 13.84 11.7699 13.12 11.3899 12.61C11.2299 12.4 11.3599 12.26 11.5799 12.34C12.4899 12.64 13.2399 13.01 13.6099 13.4L13.6199 13.39ZM11.5599 2.59001H14.7599C14.6599 2.54001 14.5699 2.46002 14.4899 2.33002C14.3099 2.07002 14.0099 1.50001 13.7899 1.15001C13.6899 0.990009 13.8099 0.860019 13.9699 0.910019C14.6299 1.10002 15.2799 1.33001 15.5199 1.73001C15.7299 2.07001 15.5699 2.43001 15.2999 2.59001H17.0099C17.2799 2.11001 17.6499 1.31002 17.8899 0.77002L18.6699 1.31001C18.8799 1.45001 18.9399 1.57002 18.7999 1.69002C18.5799 1.87002 18.0899 2.28001 17.6599 2.59001H19.9999C20.2599 2.59001 20.4499 2.43002 20.6999 2.16002C21.0199 2.46002 21.2399 2.62002 21.2399 2.86002C21.2399 3.15002 20.9199 3.31001 20.4699 3.31001H16.6899C16.4999 3.53001 16.2399 3.81002 15.9999 4.05002H17.9499C18.2499 4.05002 18.3999 3.94001 18.6099 3.70001L19.6499 4.00002C20.2599 4.18002 19.8599 4.48002 19.8599 4.77002V8.42001C19.8599 8.98001 19.2199 9.12002 18.6099 9.08002V8.63002H13.8999C13.7399 9.01002 13.2399 9.13002 12.7199 9.05002V3.69002L13.7299 3.88002C13.8899 3.91002 13.9499 3.96001 13.9699 4.06001H15.2999C15.3799 3.82001 15.4599 3.56002 15.5199 3.32002H12.1599C11.9199 3.32002 11.8399 3.19002 11.5499 2.60002L11.5599 2.59001ZM13.9799 4.77002V5.33002H18.6199V4.77002H13.9799ZM13.9799 6.61002H18.6199V6.05002H13.9799V6.61002ZM18.6199 7.89001V7.33002H13.9799V7.89001H18.6199Z" fill="white"/>
<path d="M37.93 14.39C36.57 15.09 36.54 15.16 35.9 14.57C33.96 12.81 32.31 10.23 31.07 6.92999C30.57 8.67999 29.66 10.2 28.54 11.51C27.26 13.03 25.23 14.55 23.75 15.05C23.56 15.11 23.35 14.87 23.56 14.73C25.27 13.47 26.78 11.99 27.98 10.22C28.81 8.99 29.93 7.05 30.24 4.39C30.1 3.91 29.97 3.40999 29.84 2.89999C29.68 2.23999 29.39 1.7 29.1 1.27C29 1.13 28.99 1.09 29.23 1.06C29.53 1.01 29.82 1.03 30.11 1.06C30.35 1.09 30.57 1.2 30.62 1.44C31.28 4.71 32.92 10.74 37.89 14.15C38.07 14.26 38.05 14.33 37.94 14.39H37.93Z" fill="white"/>
<path d="M38.84 3.20996H43C42.92 3.63996 42.89 3.63996 42.68 3.65996C41.37 3.73996 41.61 4.11996 42.47 5.57996L44.34 8.71996C44.34 8.71996 44.39 8.71995 44.4 8.69995L45.89 6.06996C46.99 4.11996 46.82 3.71995 45.6 3.64995C45.28 3.62995 45.31 3.54995 45.36 3.19995H49.03C48.92 3.64995 48.85 3.61995 48.68 3.64995C48.12 3.75995 48.07 3.85996 47.13 5.48996L44.78 9.55995V10.7C44.78 13.74 44.92 13.8099 46.14 13.8999C46.04 14.2799 45.96 14.41 45.76 14.41H41.92C41.98 14.11 42.03 13.9499 42.24 13.8999C43.25 13.6899 43.25 13.63 43.25 11.34V9.86995L40.66 5.46996C39.83 4.05996 39.83 3.73996 39.11 3.65996C38.82 3.62996 38.79 3.60996 38.85 3.20996H38.84Z" fill="white"/>
<path d="M49.96 3.65991C49.7 3.63991 49.72 3.4499 49.8 3.1499H53.48C53.42 3.5199 53.35 3.65991 53.14 3.65991C52.53 3.65991 52.42 3.70991 52.42 5.73991V11.1499C52.42 13.8099 52.44 13.8099 53.49 13.8999C53.39 14.2799 53.31 14.4099 53.11 14.4099H49.75C49.81 14.1099 49.83 13.9499 50.04 13.8999C50.9 13.7099 50.89 13.7199 50.89 11.4999V6.06992C50.89 3.72992 50.87 3.7199 49.96 3.6499V3.65991ZM53.03 8.5099L56.15 4.51991C56.71 3.79991 56.68 3.69991 55.91 3.65991C55.67 3.63991 55.57 3.5799 55.67 3.1499H59.05C58.99 3.5199 58.97 3.62991 58.67 3.65991C57.92 3.73991 57.87 3.81991 56.65 5.30991L54.3 8.15991L57.52 12.2699C58.34 13.3299 59.2 13.9699 59.74 14.1599C59.96 14.2399 59.96 14.4199 59.71 14.4199C58.06 14.4199 57.16 14.4799 55.85 12.6599L53.03 8.74991C52.97 8.64991 52.97 8.5899 53.03 8.5099Z" fill="white"/>
<path d="M60.82 3.65991C60.56 3.63991 60.58 3.4499 60.66 3.1499H64.34C64.28 3.5199 64.21 3.65991 64 3.65991C63.39 3.65991 63.28 3.70991 63.28 5.73991V11.1499C63.28 13.8099 63.3 13.8099 64.35 13.8999C64.25 14.2799 64.17 14.4099 63.97 14.4099H60.61C60.67 14.1099 60.69 13.9499 60.9 13.8999C61.76 13.7099 61.75 13.7199 61.75 11.4999V6.06992C61.75 3.72992 61.73 3.7199 60.82 3.6499V3.65991ZM63.89 8.5099L67.01 4.51991C67.57 3.79991 67.54 3.69991 66.77 3.65991C66.53 3.63991 66.43 3.5799 66.53 3.1499H69.91C69.85 3.5199 69.83 3.62991 69.53 3.65991C68.78 3.73991 68.73 3.81991 67.51 5.30991L65.16 8.15991L68.38 12.2699C69.2 13.3299 70.06 13.9699 70.6 14.1599C70.82 14.2399 70.82 14.4199 70.57 14.4199C68.92 14.4199 68.02 14.4799 66.71 12.6599L63.89 8.74991C63.83 8.64991 63.83 8.5899 63.89 8.5099Z" fill="white"/>
<path d="M76.6099 6.24001C76.4199 6.37001 76.2899 6.11 76.3999 5.98C77.8099 4.36 79.0199 2.41 79.6799 1L80.3799 1.38C80.8299 1.62 80.9099 1.67001 80.6799 1.99001L80.4399 2.33H87.8699C88.1399 2.33 88.3199 2.14 88.6099 1.83C88.9899 2.18 89.2499 2.36 89.2499 2.63C89.2499 2.98 88.9299 3.16 88.3499 3.16H79.7999C78.9999 4.15 77.8299 5.42 76.5999 6.23L76.6099 6.24001ZM86.5699 10.26C86.5699 10.63 86.2499 10.79 85.6599 10.79H82.5599V11.4C83.8999 12.04 85.2499 12.65 85.8099 13.19C86.3999 13.78 86.0199 15.01 84.9599 14.12C84.0599 13.35 83.1499 12.5 82.5599 11.96V14.67C82.5599 15.33 81.8599 15.61 81.3099 15.44V11.71C80.3499 12.81 78.2399 14.46 76.9199 14.88C76.6199 14.98 76.5499 14.74 76.7399 14.59C78.1999 13.49 79.7199 12.01 80.6099 10.8H77.5399C77.2499 10.8 77.1699 10.66 76.8999 10H81.2999V6.94L82.3099 7.14999C82.4699 7.17999 82.5499 7.26 82.5499 7.36V10H83.0799C83.4499 9.34 83.8999 8.29 84.2499 7.36L85.0499 7.87C85.3499 8.06 85.3999 8.13999 85.1599 8.39999C84.7899 8.79999 84.1499 9.52 83.6199 10H85.2199C85.4899 10 85.6399 9.82001 85.9399 9.49001C86.2899 9.84001 86.5599 10.03 86.5599 10.27L86.5699 10.26ZM89.9299 15.44C86.9999 14.13 86.7899 9.24999 86.7799 6.75999H78.4899C78.2299 6.75999 78.1399 6.49 77.9099 5.91H86.1399C86.3999 5.91 86.5599 5.81 86.7799 5.56L87.8199 5.94C88.5199 6.2 88.0799 6.61001 88.0799 6.85001C88.0799 10.03 88.4799 12.37 89.5199 13.38C89.5699 13.43 89.6199 13.41 89.6499 13.4C89.7299 13.35 89.9399 12.74 90.1799 11.96C90.2299 11.82 90.3999 11.86 90.3999 11.98C90.3199 13.61 90.3399 14.17 90.5599 14.65C90.8299 15.24 90.5099 15.69 89.9399 15.43L89.9299 15.44ZM79.3299 9.31C78.9799 8.7 78.7199 8.14001 78.4799 7.71001C78.3999 7.57001 78.5299 7.39001 78.7199 7.49001C79.4699 7.86001 79.9699 8.1 80.2699 8.5C80.9099 9.35 79.8999 10.31 79.3299 9.32001V9.31ZM87.1399 3.66C87.4899 3.98 87.7599 4.17 87.7599 4.41C87.7599 4.73 87.4899 4.95 86.9299 4.95H80.0799C79.8199 4.95 79.7799 4.73999 79.4899 4.14999H86.4099C86.6699 4.14999 86.8599 3.95999 87.1499 3.64999L87.1399 3.66Z" fill="white"/>
<path d="M96.9999 8.83002C95.5099 9.47002 94.0099 9.92002 92.7399 10.11C92.3999 10.16 92.4399 9.85002 92.6399 9.77002C94.0199 9.29002 95.3599 8.75002 96.7199 8.06002C96.6899 7.80002 96.6899 7.47003 96.6899 7.07003V4.88002L97.6499 5.14002C97.8399 5.19002 97.87 5.28002 97.87 5.35002V7.46003C98.11 7.32003 98.3499 7.17002 98.5899 7.03002C100.05 6.13002 101.39 4.98002 102.24 3.81002L102.94 4.27002C103.23 4.46002 103.28 4.57002 103.07 4.80002C102.17 5.73002 100.65 6.93002 99.2099 7.75002C98.9199 7.91002 98.6199 8.07001 98.3099 8.23001C98.4899 8.26001 98.7399 8.29002 99.0899 8.31002C99.8599 8.36002 101.2 8.31002 101.83 8.17002C102.15 8.09002 102.29 7.96002 102.36 7.69002L102.5 7.00002C102.52 6.89002 102.71 6.87002 102.74 7.00002C102.9 7.67002 102.98 7.91002 103.19 8.09001C103.51 8.38001 103.48 8.76002 103.03 8.94002C102.41 9.18002 101.06 9.32002 99.9599 9.31002C98.1699 9.28002 97.35 9.25002 96.98 8.85003L96.9999 8.83002ZM92.9499 4.49002C93.4099 4.04002 94.13 3.31002 94.37 2.42002C94.42 2.24002 94.6899 2.29002 94.7099 2.44002C94.7299 2.52002 94.73 2.58002 94.73 2.66002H99.4999C99.3999 2.60002 99.3099 2.48002 99.2099 2.36002C98.9999 2.07002 98.5499 1.38002 98.3299 1.08002C98.1999 0.920021 98.3299 0.760026 98.5399 0.820026C99.3199 1.04003 99.8699 1.20002 100.25 1.59002C100.57 1.91002 100.49 2.41002 100.23 2.66002H104.54C104.88 2.66002 105.07 2.60002 105.32 2.36002L105.94 2.95002C106.29 3.27002 106.26 3.40002 106.07 3.56002C105.59 3.98002 104.93 4.55001 104.52 4.84001C104.34 4.95002 104.18 4.84001 104.28 4.62001C104.42 4.30001 104.63 3.84001 104.78 3.48001H94.7099C94.6799 3.88001 94.5999 4.28003 94.4699 4.60002C93.7699 6.31003 92.0499 5.35002 92.9499 4.49002ZM95.73 5.31002C95.67 6.29002 95.5399 7.07002 95.1099 7.69002C94.2299 8.97002 92.8499 8.01003 93.8099 7.21003C94.6399 6.52003 95.11 5.93002 95.41 5.27002C95.49 5.08002 95.75 5.13002 95.73 5.30002V5.31002ZM104.6 10.64V14.59C104.6 15.17 103.94 15.52 103.3 15.34V14.38H96.05V14.46C96.05 15.1 95.3799 15.36 94.7499 15.21V10.2L95.7899 10.44C95.9999 10.49 96.05 10.58 96.05 10.71V13.5H99.0099V9.48001L100.08 9.70002C100.3 9.75002 100.34 9.86002 100.34 9.99002V13.5H103.3V10.12L104.32 10.34C104.54 10.39 104.59 10.5 104.59 10.63L104.6 10.64ZM98.4399 3.76001C98.82 3.87001 99.5099 4.14002 99.8999 4.53002C100.67 5.30002 99.6899 6.35002 99.0999 5.38002C98.7299 4.77002 98.4599 4.32002 98.2499 4.02002C98.1199 3.83002 98.28 3.72001 98.4399 3.76001ZM105 7.68001C104.5 7.07001 103.86 6.26002 103.32 5.69002C103.22 5.59002 103.29 5.35002 103.54 5.45002C104.52 5.83002 105.36 6.25003 105.86 6.71003C106.88 7.67003 106 8.90002 105 7.67002V7.68001Z" fill="white"/>
<path d="M121.54 5.58008C120.87 5.82008 119.78 5.90007 118.8 5.87007C116.22 5.79007 116.19 5.58007 116.19 4.01007V3.32008H114.8C114.35 4.09008 113.7 4.82007 112.8 5.42007C111.55 6.25007 110.24 6.78008 108.88 7.00007C108.69 7.03008 108.59 6.78007 108.85 6.68007C109.76 6.31007 110.61 5.86007 111.38 5.34007C112.26 4.73007 112.98 4.01008 113.45 3.32008H110.81C110.76 3.74008 110.65 4.15008 110.49 4.41008C109.67 5.67008 108.51 4.83007 109.18 4.12007C109.69 3.59007 110.35 2.78008 110.56 2.21008C110.62 2.02008 110.9 2.07007 110.9 2.23007C110.9 2.33007 110.9 2.42008 110.88 2.52008H115.54C115.44 2.47008 115.36 2.41007 115.27 2.31007C115.01 2.05007 114.61 1.59007 114.31 1.29007C114.13 1.11007 114.23 0.95008 114.44 0.99008C115.18 1.10008 115.7 1.17008 116.18 1.44008C116.66 1.71008 116.56 2.30007 116.21 2.53007H120.26C120.55 2.53007 120.72 2.47007 121.01 2.23007L121.65 2.79007C121.97 3.08007 121.94 3.19008 121.71 3.35008C121.13 3.77008 120.62 4.10008 120.19 4.36008C120.03 4.46008 119.79 4.38007 119.92 4.17007C120.11 3.85007 120.27 3.55007 120.37 3.34007H117.44V4.17007C117.44 4.65007 117.46 4.79007 118.03 4.87007C118.72 4.97007 119.9 4.93007 120.53 4.81007C120.83 4.75007 120.91 4.65008 121.03 4.38008C121.08 4.27008 121.19 4.25008 121.27 4.38008C121.38 4.56008 121.46 4.68007 121.62 4.78007C122.07 5.05007 121.92 5.47008 121.56 5.60008L121.54 5.58008ZM120.52 7.76007V14.6101C120.52 15.2801 119.9 15.5201 119.27 15.4101V14.5101H111.94V14.6201C111.94 15.2601 111.33 15.5601 110.69 15.4401V6.52008L111.7 6.71008C111.84 6.74008 111.92 6.81007 111.94 6.90007H113.73C114.08 6.31007 114.39 5.49007 114.64 4.90007L115.39 5.41008C115.74 5.65008 115.74 5.76008 115.53 5.94008C115.24 6.20008 114.76 6.63007 114.41 6.90007H118.54C118.88 6.90007 119.07 6.77007 119.26 6.53007L120.35 6.90007C120.93 7.09007 120.51 7.46007 120.51 7.75007L120.52 7.76007ZM119.27 13.7001V7.71008H111.94V13.7001H119.27ZM118.06 11.9701C118.83 12.7401 118.24 13.7201 117.42 12.9301C117.08 12.6101 116.65 12.2101 116.16 11.7601C115.22 12.4301 114.19 13.0601 113.09 13.4901C112.9 13.5701 112.74 13.3301 112.93 13.2001C113.91 12.5301 114.75 11.8701 115.51 11.1801L114.66 10.4001C114.02 10.9001 113.33 11.3601 112.66 11.7301C112.45 11.8401 112.28 11.6301 112.45 11.4701C112.95 11.0201 113.51 10.4601 114.05 9.87007C113.65 9.52007 113.25 9.17008 112.85 8.80008C112.61 8.59008 112.83 8.43007 113.03 8.53007C113.51 8.79007 114.01 9.06008 114.5 9.35008C114.95 8.84008 115.33 8.33007 115.6 7.89007L116.29 8.37007C116.58 8.56007 116.63 8.66008 116.45 8.83008C116.13 9.15008 115.75 9.50008 115.33 9.85008C115.63 10.0601 115.95 10.2701 116.24 10.4701C116.7 9.99008 117.15 9.51007 117.57 8.98007L118.18 9.46008C118.53 9.73008 118.55 9.81008 118.32 10.0001C117.94 10.3401 117.52 10.7001 117.06 11.0601C117.44 11.3601 117.78 11.6701 118.07 11.9601L118.06 11.9701Z" fill="white"/>
<path d="M129.3 6.61992C129.09 6.35992 129.17 5.97992 129.59 6.19992C131.16 7.02992 132.42 7.87993 133.18 8.85993C134.09 10.0299 132.91 11.7299 131.87 10.2199C130.85 8.75993 130.19 7.67992 129.31 6.61992H129.3Z" fill="white"/>
<path d="M145.62 12.6101C145.62 11.7501 146.18 11.51 147.11 11.51C147.08 12.28 147.13 12.6501 147.35 13.0301C147.69 13.6101 148.37 13.8101 149.02 13.8101C150.84 13.8101 151.2 12.3501 151.2 10.8301C151.2 8.48006 149.04 7.65006 146.51 8.49006C146.33 8.38006 146.16 8.31005 146.19 8.14005L147.1 3.35006H150.73C151.74 3.35006 151.88 3.16005 152.09 2.95005C152.2 2.84005 152.36 2.93005 152.31 3.06005C152.12 3.56005 151.86 4.28005 151.83 4.47005C151.81 4.55005 151.72 4.58006 151.61 4.58006H147.62L147.01 7.78005C149.7 7.00005 152.87 7.59005 152.87 10.8101C152.87 12.8401 150.9 14.5601 148.72 14.5601C147.1 14.5601 145.61 13.9201 145.61 12.6101H145.62Z" fill="white"/>
<path d="M161.25 8.85013H158.74V11.5701H157.65V8.85013H155.12V7.89012H157.65V5.38013H158.74V7.89012H161.25V8.85013Z" fill="white"/>
<path d="M168.13 14.51C164.96 15.17 163.14 13.17 163.18 9.38998C163.21 6.59998 164.38 2.98999 167.28 2.98999C168.8 2.98999 169.92 3.41999 170.4 4.45999C170.7 5.12999 170.3 5.78999 169.04 5.71999C169.01 4.40999 168.43 3.58998 167.34 3.58998C165.71 3.58998 164.94 5.66998 164.84 8.69998C165.54 7.86998 166.65 7.39999 167.69 7.43999C169.45 7.48999 170.83 8.92999 170.89 10.77C170.97 12.9 169.66 14.2 168.12 14.52L168.13 14.51ZM169.24 10.9C169.1 9.21998 168.54 8.20999 167.21 8.10999C166.38 8.04999 165.48 8.66998 164.84 9.24998C164.81 12.64 165.91 14.37 167.91 13.89C169.03 13.62 169.35 12.22 169.24 10.9Z" fill="white"/>
<path d="M179.08 8.85013H176.57V11.5701H175.48V8.85013H172.95V7.89012H175.48V5.38013H176.57V7.89012H179.08V8.85013Z" fill="white"/>
<path d="M186.07 12.6101C186.07 11.7501 186.63 11.51 187.56 11.51C187.53 12.28 187.58 12.6501 187.8 13.0301C188.14 13.6101 188.82 13.8101 189.47 13.8101C191.29 13.8101 191.65 12.3501 191.65 10.8301C191.65 8.48006 189.49 7.65006 186.96 8.49006C186.78 8.38006 186.61 8.31005 186.64 8.14005L187.55 3.35006H191.18C192.19 3.35006 192.33 3.16005 192.54 2.95005C192.65 2.84005 192.81 2.93005 192.76 3.06005C192.57 3.56005 192.31 4.28005 192.28 4.47005C192.26 4.55005 192.17 4.58006 192.06 4.58006H188.07L187.46 7.78005C190.15 7.00005 193.32 7.59005 193.32 10.8101C193.32 12.8401 191.35 14.5601 189.17 14.5601C187.55 14.5601 186.06 13.9201 186.06 12.6101H186.07Z" fill="white"/>
<path d="M203.57 8.77013V14.6301C203.57 15.3801 203.03 15.6401 202.35 15.5101V8.84012C201.77 9.43012 201.09 10.0201 200.27 10.5201C200.06 10.6501 199.92 10.4201 200.08 10.2601C201.3 9.03012 201.92 8.18012 202.66 7.06012C203.28 6.10012 203.59 5.40012 203.73 5.01012H200.72C200.48 5.01012 200.43 4.88013 200.14 4.21013H203.52C203.86 4.21013 204.03 4.08012 204.26 3.86012L204.9 4.36012C205.2 4.60012 205.22 4.78013 205.08 5.05013C204.89 5.42013 204.66 5.91012 203.59 7.37012L203.57 7.39012V8.14012L203.92 8.35013C204.32 7.82013 204.72 7.07013 205.04 6.38013L205.68 6.84012C206 7.08012 206 7.19013 205.79 7.38013C205.39 7.75013 204.94 8.13012 204.3 8.58012C204.78 8.88012 205.13 9.14013 205.37 9.46013C206.03 10.3401 205.31 11.3001 204.68 10.4401C204.25 9.85012 203.93 9.29013 203.56 8.77013H203.57ZM202.04 1.20012C201.98 1.04012 202.09 0.860128 202.3 0.990128C202.83 1.31013 203.44 1.89013 203.71 2.35013C204.29 3.36013 203.25 4.35012 202.77 3.12012C202.59 2.67012 202.27 1.73012 202.05 1.20012H202.04ZM214.49 14.6701C214.07 14.9301 213.9 15.0401 213.67 15.1701C213.41 15.3101 213.33 15.3601 212.82 15.1701C211.91 14.8301 210.87 14.2601 210.08 13.5901L209.89 13.7301C208.48 14.7401 206.56 15.3001 204.8 15.4901C204.48 15.5201 204.45 15.2501 204.72 15.1701C206.51 14.6701 207.87 14.0001 208.99 13.2201C209.12 13.1201 209.26 13.0301 209.39 12.9201C208.94 12.4201 208.51 11.8201 208.16 11.1601L208.11 11.2101C207.21 12.1401 206.27 12.8601 205.34 13.3201C205.15 13.4201 204.92 13.2401 205.18 13.0301C206 12.3301 206.73 11.5601 207.36 10.7301C207.89 10.0301 208.29 9.39012 208.61 8.62012H208.21C208.1 9.13012 207.54 9.29013 207.03 9.21013V4.31012C206.58 4.90012 206.05 5.49012 205.48 5.98012C205.34 6.09012 205.1 5.98013 205.27 5.74013C205.8 4.97013 206.17 4.30012 206.55 3.47012C206.92 2.69012 207.3 1.73013 207.53 0.880127L208.25 1.30013C208.57 1.48013 208.63 1.57012 208.55 1.76012C208.45 2.00012 208.29 2.30013 208.1 2.66013H212.77C213.07 2.66013 213.22 2.50012 213.51 2.20012C213.83 2.52012 214.09 2.73012 214.09 2.95012C214.09 3.33012 213.79 3.48012 213.21 3.48012H207.61C207.55 3.59012 207.48 3.69013 207.4 3.80013C207.34 3.91013 207.26 4.01012 207.18 4.12012L208 4.30013C208.16 4.33013 208.26 4.40013 208.26 4.49013V4.54012H211.3C211.57 4.54012 211.72 4.43012 211.94 4.19012L212.93 4.51012C213.47 4.69012 213.15 5.04013 213.15 5.38013V8.40012C213.15 9.02012 212.59 9.22012 211.93 9.09012V8.64012H209.51L209.54 8.66013C209.83 8.84013 209.86 8.92012 209.7 9.19012C209.59 9.38012 209.46 9.59013 209.32 9.80013H211.34C211.71 9.80013 211.84 9.74013 212.11 9.46013L212.77 10.0201C213.04 10.2401 213.06 10.4001 212.88 10.6601C212.32 11.4901 211.71 12.2601 210.86 13.0001C211.8 13.6201 212.97 14.1201 214.44 14.4701C214.57 14.5001 214.68 14.6001 214.49 14.7101V14.6701ZM208.25 5.29012V6.17012H211.93V5.29012H208.25ZM208.25 7.81012H211.93V6.96013H208.25V7.81012ZM210.04 12.3401C210.6 11.8001 211.1 11.1701 211.45 10.5601H208.7C208.7 10.5601 208.64 10.6401 208.59 10.6901C209.05 11.3501 209.58 11.9101 210.05 12.3401H210.04Z" fill="white"/>
<path d="M229.15 2.50993V4.18994C229.15 4.84994 228.53 5.00993 227.9 4.89993V4.27994H226.06L226.65 4.64993C226.92 4.80993 227 4.91994 226.81 5.10994C226.49 5.42994 226.06 5.82994 225.64 6.16994H226.98C227.2 6.16994 227.41 6.05995 227.59 5.81995L228.57 6.15994C229.16 6.36994 228.79 6.77993 228.79 7.03993V9.72993C228.79 10.3499 228.15 10.5499 227.59 10.4199V9.88994H220.95C220.93 10.0999 220.82 10.2599 220.68 10.3699L221.51 10.5099C221.77 10.5599 221.85 10.6099 221.85 10.7199H225.82C226.12 10.7199 226.27 10.6099 226.51 10.3499L227.42 10.6399C228.09 10.8499 227.72 11.1199 227.72 11.5399V14.7099C227.72 15.3799 227.16 15.5599 226.5 15.4599V14.7099H221.84V14.7599C221.84 15.3699 221.3 15.5799 220.62 15.5099V10.3999C220.38 10.5399 220.04 10.5599 219.74 10.5099V5.76994L220.69 5.94994C220.88 5.97994 220.93 6.10994 220.95 6.16994H222.49C222.43 6.10994 222.36 6.02994 222.3 5.90994C222.16 5.66994 221.82 5.13995 221.5 4.59995C221.4 4.43994 221.5 4.27994 221.71 4.35994C222.37 4.59994 222.93 4.91994 223.13 5.29994C223.31 5.61994 223.26 5.96994 223.1 6.15994H225.02C225.32 5.62994 225.66 4.89994 225.9 4.26994H219.13V6.01994C219.13 8.28994 218.89 10.0199 218.62 11.1699C218.2 12.8999 217.55 14.3999 216.33 15.3499C216.17 15.4799 215.93 15.3999 216.09 15.1299C216.79 13.9499 217.21 12.4899 217.5 11.0999C217.92 9.10995 217.92 5.95994 217.84 1.18994L218.83 1.37994C219.04 1.42994 219.13 1.51993 219.13 1.61993V1.64993H227.21C227.51 1.64993 227.67 1.53994 227.9 1.27994L228.84 1.51994C229.53 1.69994 229.14 2.17993 229.14 2.50993H229.15ZM227.9 3.46994V2.44994H219.13V3.46994H227.9ZM220.95 9.08994H223.67V6.94994H220.95V9.08994ZM222.1 8.55994C221.97 8.33994 221.7 7.75994 221.46 7.35994C221.36 7.19994 221.46 7.03994 221.67 7.13994C222.18 7.37994 222.74 7.66993 222.95 8.03993C223.33 8.72993 222.65 9.50995 222.1 8.56995V8.55994ZM221.85 11.4899V12.3099H226.51V11.4899H221.85ZM226.5 13.8899V13.0899H221.84V13.8899H226.5ZM224.87 6.93994V9.07994H225.29C225.63 8.53994 226.03 7.73994 226.27 7.02994L226.91 7.45995C227.17 7.63995 227.21 7.75994 227.04 7.93994C226.61 8.33994 226.21 8.73994 225.79 9.07994H227.6V6.93994H224.88H224.87Z" fill="white"/>
<path d="M245.05 4.91014V9.41014C245.05 10.1101 244.39 10.4201 243.71 10.2901V9.36014H240V14.6101C240 15.4101 239.3 15.6701 238.62 15.5101V9.36014H234.89V9.73013C234.89 10.4201 234.22 10.7401 233.55 10.5901V3.53014L234.62 3.77014C234.8 3.80014 234.89 3.91013 234.89 3.98013V4.00014H238.62V0.890137L239.72 1.11014C239.9 1.14014 239.99 1.27014 239.99 1.32014V3.99014H242.92C243.29 3.99014 243.51 3.77013 243.71 3.51013L244.85 3.86014C245.46 4.05014 245.06 4.61013 245.06 4.90013L245.05 4.91014ZM238.61 8.51013V4.84013H234.88V8.51013H238.61ZM243.7 8.51013V4.84013H239.99V8.51013H243.7Z" fill="white"/>
<path d="M262.38 14.4C262.38 14.78 262.01 14.98 261.4 14.98H249.08C248.76 14.98 248.7 14.8 248.34 14.07H254.63V10.47H251.38C251.11 10.47 251.03 10.28 250.72 9.59004H258.45C258.79 9.59004 258.93 9.43004 259.27 9.09004C259.64 9.44004 259.88 9.65004 259.88 9.89004C259.88 10.27 259.53 10.47 258.95 10.47H256.05V14.07H260.82C261.12 14.07 261.35 13.85 261.68 13.51C262.08 13.88 262.37 14.12 262.37 14.41L262.38 14.4ZM248.76 4.75004C249.29 4.27004 250.02 3.60005 250.34 2.77005C250.42 2.56005 250.68 2.61003 250.68 2.79003V3.09004H255.51C255.33 3.03004 255.14 2.88005 254.92 2.63005C254.58 2.25005 254.22 1.73005 253.88 1.32005C253.7 1.11005 253.86 1.00004 254.06 1.05004C255.28 1.34004 255.68 1.47004 256.08 1.92004C256.43 2.30004 256.34 2.93005 255.97 3.10005H260.31C260.61 3.10005 260.84 3.00004 261.13 2.76004L261.72 3.34004C262.07 3.69004 262.06 3.80004 261.88 3.95004C261.24 4.46004 260.31 5.17004 259.93 5.45004C259.75 5.58004 259.56 5.45004 259.69 5.23004C259.9 4.88004 260.15 4.38004 260.36 3.95004H257.41V6.38005C257.41 7.12005 257.46 7.26003 257.94 7.29003C258.64 7.34003 259.64 7.31005 259.97 7.21005C260.19 7.15005 260.31 7.02004 260.39 6.84004L260.55 6.50004C260.6 6.39004 260.71 6.36004 260.79 6.50004C260.92 6.72004 261.05 6.98004 261.24 7.14004C261.72 7.54004 261.56 7.97005 261.08 8.13005C260.26 8.40005 259.19 8.40004 258.52 8.39004C256.3 8.34004 256.12 8.26004 256.12 6.05004V3.94004H250.6C250.54 4.34004 250.42 4.74004 250.25 5.01004C249.23 6.68004 247.9 5.55004 248.78 4.75004H248.76ZM254.1 4.49005C254.48 4.65005 254.58 4.73004 254.44 5.08004C254.07 6.01004 253.56 6.65003 252.71 7.40003C251.88 8.12004 250.6 8.78005 249.24 9.07005C249 9.12005 248.9 8.86004 249.06 8.78004C250.34 8.14004 251.36 7.37004 252.02 6.59004C252.63 5.87004 253.01 5.26004 253.32 4.16004L254.1 4.50004V4.49005Z" fill="white"/>
<path d="M272.66 3.15013C272.58 3.55013 272.53 3.65014 272.32 3.66014C271.62 3.71014 271.54 3.69014 271.54 5.74014V13.3801C271.54 13.5201 271.56 13.6401 271.78 13.6501C272.15 13.6801 272.95 13.7101 273.56 13.6801C275.99 13.5501 276.17 13.0901 276.84 11.6301C276.92 11.4501 277.22 11.5301 277.16 11.7401L276.41 14.3301C276.38 14.4301 276.33 14.5101 276.12 14.4901C275.66 14.4601 274.81 14.4101 273.61 14.4101H269.38C269.19 14.4101 269.12 14.2701 269.33 14.1701C269.91 13.9101 270 13.7701 270 11.9301V6.07014C270 3.69014 269.97 3.72013 269.14 3.65013C268.93 3.63013 268.92 3.44014 268.98 3.14014H272.66V3.15013Z" fill="white"/>
<path d="M289.59 8.69992C289.59 11.8399 287.62 14.6199 283.83 14.6199C280.34 14.6199 278.13 12.1099 278.13 8.93993C278.13 5.23993 280.64 2.91992 283.78 2.91992C287.13 2.91992 289.59 5.37992 289.59 8.69992ZM279.81 8.61992C279.81 11.5999 281.46 13.8699 283.88 13.8699C286.6 13.8699 287.87 12.1599 287.87 9.04993C287.87 6.54993 286.43 3.63992 283.68 3.63992C281.33 3.63992 279.82 5.55992 279.82 8.61992H279.81Z" fill="white"/>
<path d="M304.29 5.43999L301.15 14.5C301.09 14.69 300.86 14.69 300.8 14.5L297.82 6.33998C297.82 6.33998 297.74 6.28998 297.72 6.33998L294.9 14.5C294.84 14.69 294.61 14.69 294.55 14.5L291.52 5.40999C291.07 4.06999 291.07 3.69998 290.37 3.66998C290.08 3.64998 290.05 3.48999 290.1 3.15999H294.02C293.91 3.58999 293.86 3.65998 293.67 3.66998C292.66 3.74998 292.68 3.93999 293.16 5.45999L295.05 11.35C295.05 11.35 295.13 11.41 295.15 11.35L297.84 3.05998C297.9 2.86998 298.16 2.86998 298.22 3.05998L301.25 11.35C301.25 11.35 301.33 11.4 301.35 11.35L303.13 6.07998C303.8 4.07998 303.71 3.70999 302.59 3.65999C302.21 3.63999 302.21 3.49998 302.3 3.14998H305.97C305.89 3.48998 305.81 3.65999 305.59 3.65999C304.97 3.65999 304.87 3.83999 304.31 5.43999H304.29Z" fill="white"/>
<path d="M306.99 9.70996H311.7V10.8H306.99V9.70996Z" fill="white"/>
<path d="M320.74 14.4999C320.28 14.4699 319.4 14.4199 318.34 14.4199H313.73C313.54 14.4199 313.47 14.2399 313.68 14.1599C314.22 13.9499 314.24 13.7899 314.24 12.0099V6.05991C314.24 3.97991 314.29 3.83992 313.81 3.73992C313.57 3.68992 313.51 3.59991 313.39 3.14991H318.11C319.07 3.14991 320.19 3.14992 320.73 3.04992C320.83 3.02992 320.91 3.06991 320.91 3.22991L320.99 5.40992C320.99 5.61992 320.77 5.70992 320.67 5.45992C320.25 4.35992 320.08 3.87992 318.62 3.87992H315.77V8.21992H316.89C318.94 8.21992 319.03 7.87991 319.32 7.44991C319.42 7.30991 319.59 7.34991 319.54 7.52991C319.41 8.02991 319.51 9.17992 319.57 9.81992C319.59 9.99992 319.46 10.0899 319.35 9.92991C318.84 9.18991 318.2 8.93992 316.85 8.93992H315.76V13.3099C315.76 13.5699 315.82 13.6599 316.02 13.6799C316.71 13.7299 317.44 13.7399 318.29 13.7099C320.51 13.6299 320.77 13.0099 321.38 11.6799C321.46 11.4999 321.76 11.5799 321.7 11.7899L321 14.3199C320.97 14.4499 320.94 14.5299 320.73 14.5099L320.74 14.4999Z" fill="white"/>
<path d="M332.95 11.0201C331.67 11.7201 330.08 12.4001 328.88 12.8801C328.42 13.0701 328.3 12.9801 327.55 11.9801C328.33 11.8201 329.12 11.6401 329.86 11.4801V7.97009H328.5C328.26 7.97009 328.21 7.79009 327.88 7.12009H329.87V3.98009H328.33C328.07 3.98009 328.01 3.8001 327.74 3.1301H331.85C332.14 3.1301 332.3 2.99009 332.57 2.70009C332.89 2.99009 333.15 3.20009 333.15 3.45009C333.15 3.79009 332.83 3.98009 332.3 3.98009H331.12V7.12009H331.7C331.99 7.12009 332.13 6.98009 332.42 6.67009C332.76 6.99009 333.03 7.23009 333.03 7.45009C333.03 7.77009 332.71 7.9601 332.13 7.9601H331.12V11.1601L332.82 10.7101C333.06 10.6501 333.19 10.8701 332.96 11.0001L332.95 11.0201ZM342.12 14.6101C341.11 15.2501 341.06 15.2801 340.44 14.9301C339.78 14.5601 338.58 13.7301 337.67 12.7401C336.31 14.0401 334.2 15.1601 332.52 15.5101C332.3 15.5601 332.17 15.2901 332.41 15.1701C333.77 14.5101 335.88 13.2201 337.05 11.9401C336.25 10.7701 335.8 9.4901 335.5 8.0201H334.88C334.82 9.1901 334.66 10.2301 334.38 11.0501C333.58 13.4701 331.85 14.8801 330.57 15.4501C330.39 15.5301 330.19 15.3101 330.36 15.1601C331.62 14.0601 332.98 12.4101 333.32 10.6101C333.7 8.53009 333.66 6.46009 333.61 2.98009L334.59 3.19009C334.8 3.24009 334.91 3.33008 334.91 3.43008H336.8V1.09009L337.74 1.28009C337.98 1.33009 338.04 1.42008 338.04 1.54008V3.43008H340.14C340.46 3.43008 340.6 3.3701 340.86 3.1601L341.37 3.67009C341.69 3.99009 341.74 4.05009 341.51 4.28009C341.16 4.62009 340.37 5.3401 339.86 5.7401C339.67 5.9001 339.52 5.68009 339.57 5.58009C339.73 5.28009 340.1 4.5601 340.21 4.2401H338.03V7.23009H338.91C339.2 7.23009 339.39 7.17009 339.63 6.94009L340.24 7.44009C340.53 7.68009 340.59 7.7801 340.46 8.1001C339.88 9.5401 339.29 10.8401 338.38 11.9701C339.34 12.9501 340.52 13.7101 342.05 14.3901C342.26 14.4901 342.24 14.5501 342.11 14.6301L342.12 14.6101ZM334.9 7.2101H336.79V4.22009H334.9V7.2101ZM336.16 8.0201C336.51 9.2501 336.98 10.2601 337.65 11.1301C338.27 10.1801 338.82 9.1301 339.14 8.0201H336.16Z" fill="white"/>
<path d="M346.98 7.56999V11.09C347.54 10.93 348.07 10.77 348.6 10.59C348.78 10.53 348.92 10.77 348.78 10.86C347.55 11.64 346.31 12.19 344.94 12.86C344.51 13.07 344.38 12.91 343.63 11.96C344.4 11.77 345.1 11.58 345.76 11.42V7.55998H344.48C344.24 7.55998 344.14 7.39999 343.84 6.70999H345.76V3.53998H344.34C344.12 3.53998 344 3.35999 343.72 2.68999H347.55C347.84 2.68999 348.01 2.54999 348.3 2.23999C348.64 2.55999 348.89 2.79999 348.89 3.01999C348.89 3.35999 348.57 3.52998 348.01 3.52998H347V6.69998H347.56C347.86 6.69998 348.02 6.58999 348.31 6.26999C348.66 6.58999 348.9 6.77998 348.9 7.03998C348.9 7.37998 348.6 7.54999 348 7.54999H346.99L346.98 7.56999ZM357.5 10.08V14.63C357.5 15.33 356.73 15.88 356.19 15.33C355.81 14.96 355.12 14.64 354.67 14.5C354.53 14.45 354.51 14.26 354.73 14.26C355.21 14.26 356.09 14.31 356.22 14.23C356.27 14.2 356.25 14.15 356.25 14.12V10.04H353.16C352.89 10.66 352.58 11.29 352.28 11.8C353.06 11.69 353.77 11.58 354.38 11.46C354.25 11.12 354.12 10.8 354.04 10.64C353.98 10.5 354.07 10.32 354.31 10.46C354.76 10.73 355.49 11.28 355.8 11.9C356.22 12.75 355.38 13.68 354.84 12.54C354.78 12.4 354.68 12.19 354.58 11.95C353.6 12.33 352.48 12.73 351.56 13.01C351.18 13.12 351.08 13.01 350.47 12.02C350.84 11.97 351.21 11.94 351.57 11.89C351.78 11.41 351.99 10.72 352.18 10.03H350.34V14.66C350.34 15.24 349.92 15.62 349.09 15.48V8.88999L349.91 9.02998C350.17 9.07998 350.31 9.12999 350.34 9.23999H352.39C352.52 8.72999 352.61 8.24999 352.69 7.85999H350.93C350.8 8.31999 350.39 8.51999 349.75 8.46999V3.88999L350.65 4.09999C350.87 4.14999 350.99 4.23998 350.99 4.33998V7.08998H355.7V3.89998L356.61 4.08998C356.82 4.13998 356.93 4.18999 356.93 4.32999V7.47998C356.93 8.21998 356.45 8.40999 355.7 8.29999V7.84999H354C353.89 8.19999 353.71 8.67998 353.5 9.22998H355.6C355.87 9.22998 356.05 9.14999 356.26 8.87999L357.27 9.21999C357.88 9.42999 357.51 9.72999 357.51 10.08H357.5ZM358.04 3.04999C358.04 3.44999 357.72 3.57999 357.21 3.57999H349.72C349.5 3.57999 349.43 3.43998 349.14 2.77998H353.21C353.1 2.71998 352.99 2.59999 352.87 2.43999C352.61 2.05999 352.31 1.45998 352.15 1.17998C352.04 0.989978 352.13 0.879992 352.39 0.959992C352.95 1.11999 353.56 1.38998 353.86 1.75998C354.15 2.10998 354.02 2.58998 353.73 2.77998H356.69C356.99 2.77998 357.15 2.58998 357.44 2.27998C357.76 2.59998 358.03 2.80999 358.03 3.04999H358.04ZM352.85 5.25998C352.4 4.85998 352.02 4.51999 351.75 4.32999C351.51 4.14999 351.72 3.97999 351.96 4.06999C352.42 4.24999 352.9 4.44999 353.35 4.68999C353.64 4.34999 353.91 3.96998 354.12 3.58998L354.76 3.98999C355.08 4.17999 355.1 4.28999 354.9 4.48999C354.74 4.64999 354.47 4.90998 354.15 5.17998C354.47 5.39998 354.74 5.62998 354.95 5.86998C355.48 6.42998 355.08 7.51999 354.33 6.71999C354.03 6.39999 353.72 6.09998 353.43 5.80998C352.92 6.20998 352.31 6.58998 351.62 6.92998C351.4 7.02998 351.22 6.82998 351.41 6.66998C351.92 6.24998 352.32 5.83998 352.85 5.25998Z" fill="white"/>
<path d="M364.75 6.61992C364.54 6.35992 364.62 5.97992 365.04 6.19992C366.61 7.02992 367.87 7.87993 368.63 8.85993C369.54 10.0299 368.36 11.7299 367.32 10.2199C366.3 8.75993 365.64 7.67992 364.76 6.61992H364.75Z" fill="white"/>
<path d="M378.47 10.8601C378.31 10.7201 378.42 10.62 378.61 10.65C379.36 10.75 379.51 10.7501 379.7 10.4701C379.92 10.1501 380.02 9.65005 379.99 9.01005C379.96 7.97005 379.41 7.14006 378.65 6.32006C378.54 6.21006 378.55 6.10005 378.65 5.86005C379.08 4.84005 379.32 3.99006 379.59 2.85006H378.05V14.5301C378.05 15.3101 377.41 15.5201 376.82 15.4101V1.60006L377.78 1.79005C377.97 1.82005 378.05 1.93005 378.05 2.00005V2.02006H379.19C379.46 2.02006 379.64 1.94005 379.85 1.68005L380.55 2.11006C381.01 2.40006 380.98 2.51006 380.81 2.86006C380.2 4.09005 379.63 5.18005 379.1 6.06005C382.35 8.37005 381.21 11.61 379.79 11.79C379.29 11.85 378.99 11.2901 378.48 10.8501L378.47 10.8601ZM389.91 4.27006C389.91 4.64006 389.59 4.81005 388.98 4.81005H384.58C384.56 5.47005 384.55 6.11005 384.52 6.73005H386.46C386.78 6.73005 386.96 6.60006 387.16 6.33006L388.11 6.71006C388.93 7.05006 388.43 7.48005 388.43 7.67005C388.41 9.49005 388.27 11.6101 388.08 12.5201C387.78 13.9901 387.2 15.1001 386.37 15.3501C385.78 15.5401 385.51 14.97 384.35 14.29C384.22 14.21 384.32 14.0501 384.45 14.0701C385.6 14.2001 385.87 14.2301 386.07 14.0201C386.44 13.6201 386.63 13.1401 386.82 12.2101C387.01 11.3101 387.14 9.22005 387.17 7.59005H384.48C384.16 11.2201 383.12 13.9601 379.63 15.2201C379.33 15.3301 379.26 15.0601 379.47 14.9201C381.05 13.7701 382.01 12.6001 382.56 11.0301C383.15 9.32005 383.3 7.30006 383.31 4.80006H381.21C380.92 4.80006 380.84 4.59006 380.52 3.94006H388.48C388.78 3.94006 388.96 3.80006 389.26 3.41006C389.66 3.83006 389.92 4.02005 389.92 4.26005L389.91 4.27006ZM383.41 1.18005C383.31 0.970047 383.49 0.880056 383.68 0.970056C384.46 1.40006 385.18 1.96006 385.49 2.55006C385.94 3.41006 384.99 4.53006 384.32 3.21006C383.98 2.55006 383.71 1.80005 383.41 1.18005Z" fill="white"/>
<path d="M393.89 11.26C394.1 12.32 394.24 13.13 394.23 13.71C394.2 14.57 393.78 15.23 393.19 15.25C392.71 15.27 392.45 14.82 392.6 14.26C392.79 13.52 393.37 12.56 393.32 11.62C393.29 11.08 392.7 10.9 391.88 10.85C391.64 10.83 391.61 10.53 391.86 10.51C392.66 10.46 392.9 10.27 393.12 9.75998C393.73 8.36998 394.43 5.92999 394.99 4.26999C395.09 3.96999 395.37 4.05999 395.31 4.34999C394.3 8.65999 393.71 10.39 393.89 11.27V11.26ZM391.79 5.04999C391.68 4.82999 391.81 4.66998 392.01 4.77998C392.6 5.09998 393.13 5.35999 393.48 5.71999C394.33 6.59999 393.34 7.82998 392.66 6.69998C392.24 5.99998 392.05 5.59999 391.78 5.04999H391.79ZM392.64 1.65999C392.51 1.43999 392.64 1.30998 392.88 1.39998C393.5 1.66998 393.97 1.89998 394.35 2.24998C395.15 2.96998 394.25 4.19998 393.61 3.28998C393.15 2.62998 392.84 2.02999 392.63 1.65999H392.64ZM398.55 11.92V14.66C398.55 15.33 397.96 15.54 397.37 15.41V11.92H395.1C394.8 11.92 394.72 11.78 394.41 11.1H397.37V9.59999H396.78C396.75 10.11 396.24 10.42 395.6 10.29V4.61998L396.53 4.79999C396.72 4.84999 396.77 4.92999 396.79 5.01999H397.38V3.83998H395.67C395.38 3.83998 395.32 3.69998 395.01 3.03998H397.38V0.98999L398.32 1.16998C398.5 1.19998 398.56 1.29998 398.56 1.38998V3.03998H399.79C400.03 3.03998 400.17 2.90999 400.45 2.60999C400.79 2.92999 401.03 3.10999 401.03 3.32999C401.03 3.67999 400.76 3.83998 400.23 3.83998H398.56V5.01999H398.59C398.86 5.01999 399.02 4.93998 399.25 4.67998L400.18 4.96999C400.84 5.17999 400.44 5.52999 400.44 5.84999V9.39998C400.44 9.97998 399.86 10.18 399.26 10.07V9.58998H398.57V11.09H399.67C399.93 11.09 400.07 10.98 400.33 10.64C400.7 10.99 400.92 11.15 400.92 11.39C400.92 11.74 400.65 11.9 400.12 11.9H398.57L398.55 11.92ZM396.77 5.81999V6.87999H399.23V5.81999H396.77ZM399.24 8.79999V7.67998H396.78V8.79999H399.24ZM405.33 3.20999V14.53C405.33 15.3 404.71 15.73 404.13 15.25C403.59 14.8 403.01 14.59 402.53 14.42C402.35 14.36 402.34 14.18 402.58 14.18C403.11 14.18 403.86 14.24 404.05 14.16C404.13 14.13 404.13 14.05 404.13 13.97V9.65999H402.53C402.34 12.09 401.68 14.37 399.52 15.29C399.33 15.37 399.09 15.27 399.33 15.03C400.77 13.54 401.24 12.18 401.36 9.50998C401.46 7.56998 401.41 4.99999 401.36 1.85999L402.35 2.06999C402.54 2.11999 402.61 2.17998 402.61 2.28998V2.30998H403.44C403.71 2.30998 403.9 2.19998 404.13 1.92998L405.09 2.27998C405.81 2.53998 405.33 2.88999 405.33 3.20999ZM404.13 8.84999V6.36998H402.61V6.92998C402.61 7.54998 402.61 8.20999 402.58 8.84999H404.13ZM402.61 3.12999V5.54999H404.13V3.12999H402.61Z" fill="white"/>
<path d="M421.51 2.64003C421.51 3.04003 421.11 3.23003 420.55 3.23003H414.93C414.53 4.70003 413.89 6.10003 413.03 7.31003H417.53C417.87 7.31003 418.12 7.18004 418.38 6.88004L419.44 7.23003C420.19 7.49003 419.73 7.85003 419.73 8.22003V14.45C419.73 15.19 419.03 15.43 418.39 15.27V13.56H413.12V14.57C413.12 15.19 412.46 15.56 411.78 15.39V8.84003C410.66 10.04 409.4 11.03 407.97 11.74C407.75 11.85 407.59 11.6 407.78 11.45C409.49 10.09 410.77 8.68003 411.89 6.94003C412.61 5.82003 413.17 4.52004 413.51 3.24004H408.84C408.52 3.24004 408.44 3.03003 408.14 2.34003H419.95C420.29 2.34003 420.48 2.15003 420.8 1.78003C421.22 2.16003 421.54 2.37003 421.54 2.64003H421.51ZM413.11 8.18002V12.65H418.38V8.18002H413.11Z" fill="white"/>
<path d="M437.38 6.96003C436.76 7.49003 436.2 7.95003 435.84 8.19003C435.7 8.29003 435.47 8.21003 435.58 8.00003C435.74 7.70003 435.93 7.25003 436.11 6.88003H425.8C425.77 7.10003 425.74 7.31002 425.66 7.54002C425.1 9.21002 423.32 8.39002 424.28 7.51002C424.68 7.14002 425.22 6.52003 425.53 5.85003C425.61 5.66003 425.85 5.71002 425.85 5.87002V6.17002H435.97C436.29 6.17002 436.45 6.09002 436.68 5.87002L437.24 6.38003C437.58 6.68003 437.58 6.81003 437.38 6.97003V6.96003ZM424.48 2.27003H430.64C430.58 2.22003 430.51 2.16002 430.46 2.09002C430.17 1.72002 430 1.40003 429.77 1.10003C429.64 0.920032 429.71 0.780022 429.96 0.840022C430.68 1.00002 431.27 1.16002 431.51 1.45002C431.75 1.74002 431.69 2.07003 431.48 2.27003H436.03C436.3 2.27003 436.48 2.09003 436.72 1.82003C437.01 2.09003 437.28 2.27003 437.28 2.52003C437.28 2.86003 436.94 2.98002 436.54 2.98002H425.06C424.8 2.98002 424.77 2.85002 424.47 2.26002L424.48 2.27003ZM435.33 10.78V14.67C435.33 15.34 434.56 15.74 434.05 15.39C433.44 14.97 433.07 14.81 432.66 14.65C432.47 14.57 432.55 14.41 432.69 14.41C433.11 14.41 433.81 14.44 433.95 14.38C434.01 14.35 434.01 14.27 434.01 14.22V13.58H427.62C427.59 13.66 427.57 13.74 427.54 13.82C427.25 14.56 426.77 15.12 425.83 15.55C425.59 15.66 425.41 15.52 425.57 15.33C425.97 14.82 426.21 14.39 426.35 13.47C426.43 12.96 426.45 12.33 426.46 11.85C426.48 11.06 426.46 10.63 426.44 9.62002L427.53 9.83003C427.71 9.86003 427.79 9.94003 427.79 10.02H433.34C433.64 10.02 433.84 9.89002 434 9.70002L435.07 9.97003C435.74 10.15 435.31 10.51 435.31 10.77L435.33 10.78ZM433.06 5.98002V5.63003H428.37C428.15 5.98003 427.63 6.06002 427.19 5.98002V3.23002L428.21 3.41003C428.39 3.44003 428.45 3.52003 428.47 3.60003H432.46C432.7 3.60003 432.88 3.49002 433.07 3.26002L434.11 3.58003C434.72 3.77003 434.35 4.01003 434.35 4.32003V5.31002C434.35 5.90002 433.74 6.11002 433.07 5.98002H433.06ZM433.03 9.71003V9.36003H428.4C428.19 9.73003 427.66 9.82002 427.22 9.73002V6.99003L428.23 7.18002C428.39 7.21002 428.47 7.29002 428.49 7.37002H432.43C432.67 7.37002 432.81 7.27003 433.04 7.02003L434.1 7.29002C434.69 7.43002 434.31 7.75002 434.31 8.06002V9.05003C434.31 9.64003 433.72 9.82003 433.05 9.71003H433.03ZM434.02 12.86V12.17H427.79C427.77 12.39 427.77 12.63 427.74 12.86H434.01H434.02ZM427.81 10.72V11.47H434.02V10.72H427.81ZM433.06 4.97003V4.25003H428.47V4.97003H433.06ZM433.03 8.70002V8.01002H428.48V8.70002H433.03Z" fill="white"/>
<path d="M444.67 7.33992V12.9399C444.67 13.6299 444.03 13.8799 443.47 13.7699V12.7499H442.29V13.9499C442.29 14.6399 441.6 14.8899 441.09 14.7699V8.48993C440.69 9.09993 440.26 9.63992 439.92 9.92992C439.7 10.1199 439.55 9.92993 439.7 9.68993C440.23 8.80993 440.76 7.61992 441.06 6.69992C441.41 5.63992 441.7 4.67992 441.91 3.25992H440.28C440.02 3.25992 439.94 3.09992 439.7 2.47992H443.77C444.03 2.47992 444.19 2.31992 444.46 2.02992C444.76 2.31992 445.02 2.53992 445.02 2.74992C445.02 3.11992 444.72 3.25992 444.22 3.25992H443.15C442.93 4.42992 442.57 5.57992 442.19 6.50992H442.91C443.17 6.50992 443.31 6.40993 443.49 6.18993L444.53 6.50992C445.07 6.66992 444.69 7.03992 444.69 7.33992H444.67ZM443.47 11.9499V7.31993H442.29V11.9499H443.47ZM454.1 11.0099C454.1 11.3899 453.8 11.5399 453.25 11.5399H451.42V14.5999C451.42 15.3499 450.68 15.7399 450.11 15.2899C449.76 15.0199 448.99 14.6799 448.61 14.5099C448.47 14.4499 448.48 14.2499 448.64 14.2499C449.02 14.2499 450.02 14.2999 450.11 14.2499C450.17 14.2199 450.17 14.1999 450.17 14.1399V11.5499H445.45C445.19 11.5499 445.11 11.4099 444.83 10.7199H450.18V9.80992L451.19 10.0299C451.38 10.0799 451.43 10.1599 451.43 10.2499V10.7099H452.77C453.07 10.7099 453.23 10.5999 453.52 10.2499C453.9 10.6199 454.1 10.7899 454.1 11.0199V11.0099ZM445.11 2.19992H448.73V0.919922L449.69 1.13992C449.88 1.18992 449.95 1.26993 449.95 1.32993V2.18993H452.59C452.85 2.18993 452.99 2.05992 453.25 1.75992C453.6 2.07992 453.79 2.25992 453.79 2.47992C453.79 2.79992 453.55 2.97992 453.04 2.97992H449.95V3.80992H451.02C451.29 3.80992 451.44 3.69993 451.66 3.43993L452.62 3.73993C453.29 3.94993 452.86 4.35992 452.86 4.61992V7.40993C452.86 7.94993 452.27 8.20993 451.66 8.06993V7.56993H449.95V8.90993C450.4 8.87993 450.83 8.82992 451.26 8.77992C451.1 8.59992 450.94 8.43993 450.8 8.29993C450.62 8.11993 450.75 7.95992 450.98 8.02992C451.94 8.29992 452.58 8.52992 453.03 8.96992C453.65 9.58992 452.98 10.5399 452.26 9.79993C452.07 9.58993 451.86 9.37993 451.64 9.15993C449.97 9.58993 448.26 9.77992 446.31 10.1399C445.8 10.2399 445.78 10.1099 445.29 9.19992C446.63 9.11992 447.74 9.06992 448.75 9.00992V7.56993H447.05V7.59993C447.05 8.15993 446.51 8.47993 445.85 8.31993V3.38992L446.79 3.59993C447 3.64993 447.05 3.70992 447.05 3.80992H448.75V2.97992H445.72C445.5 2.97992 445.42 2.83992 445.13 2.19992H445.11ZM448.36 12.8199C448.87 13.5699 447.88 14.6599 447.29 13.4299C447.1 13.0499 446.79 12.2899 446.65 11.9899C446.54 11.7499 446.68 11.6499 446.84 11.7299C447.4 11.9999 448.01 12.2899 448.36 12.8199ZM447.03 4.56993V5.33992H448.73V4.56993H447.03ZM448.72 6.82993V6.08992H447.02V6.82993H448.72ZM449.94 4.56993V5.33992H451.65V4.56993H449.94ZM451.65 6.82993V6.08992H449.94V6.82993H451.65Z" fill="white"/>
<path d="M460.16 1.46996V14.77C460.16 15.41 459.49 15.59 458.96 15.47V9.30995H458.02C457.97 10.37 457.83 11.36 457.67 12.16C457.41 13.39 456.84 14.75 456.05 15.41C455.86 15.57 455.71 15.39 455.79 15.22C456.16 14.45 456.49 13.2199 456.64 12.1499C456.75 11.3299 456.8 10.36 456.82 9.31996H456.28C456.01 9.31996 455.93 9.13996 455.69 8.51996H458.97V6.17995H457.74C457.66 6.78995 457.08 6.94995 456.56 6.83995V1.90996L457.49 2.11995C457.68 2.16995 457.75 2.22995 457.75 2.38995V5.37996H458.98V1.02995L459.93 1.23996C460.07 1.26996 460.19 1.31995 460.19 1.47995L460.16 1.46996ZM470.13 7.46996C470.13 7.83996 469.87 7.96996 469.35 7.96996H460.87C460.61 7.96996 460.53 7.80995 460.26 7.16995H464.42V3.09996H461.22C460.96 3.09996 460.92 2.93996 460.63 2.31996H464.42V0.959961L465.35 1.14995C465.56 1.17995 465.62 1.25995 465.62 1.36995V2.30995H468.21C468.43 2.30995 468.61 2.19996 468.85 1.90996C469.15 2.17996 469.41 2.36995 469.41 2.60995C469.41 2.90995 469.15 3.08995 468.64 3.08995H465.61V7.15996H468.92C469.18 7.15996 469.3 7.02996 469.58 6.73996C469.87 7.02996 470.12 7.18996 470.12 7.45996L470.13 7.46996ZM463.22 4.02995C463.12 4.23995 463 4.47996 462.84 4.73996C463.32 4.94996 463.67 5.15995 463.94 5.47995C464.52 6.14995 463.78 7.18995 463.24 6.30995C463.03 5.95995 462.79 5.53996 462.55 5.18996C462.1 5.84996 461.49 6.51995 460.88 6.89995C460.69 6.99995 460.53 6.83995 460.66 6.67995C461.41 5.66995 461.97 4.41996 462.28 3.18996L462.99 3.56996C463.29 3.74996 463.29 3.86995 463.23 4.02995H463.22ZM468.73 9.61995V14.63C468.73 15.25 468.15 15.5099 467.59 15.3699V14.46H462.56V14.6499C462.56 15.3399 462.06 15.56 461.42 15.45V8.38995L462.28 8.54996C462.49 8.59996 462.54 8.65996 462.55 8.76996H466.86C467.15 8.76996 467.34 8.65995 467.58 8.39995L468.44 8.68996C469.18 8.92996 468.71 9.27995 468.71 9.61995H468.73ZM467.59 13.6799V9.52995H462.56V13.6799H467.59ZM466.73 10.99V12.45C466.73 13.09 466.22 13.2699 465.67 13.1499V12.7H464.44C464.36 13.08 464.09 13.34 463.42 13.24V9.84996L464.19 10.0399C464.41 10.0899 464.46 10.18 464.48 10.25H465.04C465.33 10.25 465.49 10.1399 465.68 9.89995L466.48 10.1199C467.17 10.3099 466.74 10.7 466.74 10.9799L466.73 10.99ZM465.67 12.03V10.9299H464.47V12.03H465.67ZM468.26 4.00995C468.16 4.21995 468.02 4.46995 467.84 4.75995C468.35 4.97995 468.74 5.20995 468.99 5.52995C469.55 6.21995 468.78 7.15995 468.24 6.27995C468.03 5.93995 467.82 5.52996 467.57 5.18996C467.15 5.82996 466.63 6.48995 466.08 6.88995C465.89 7.01995 465.74 6.80995 465.86 6.64995C466.53 5.63995 466.96 4.41996 467.27 3.18996L467.96 3.55995C468.3 3.73995 468.34 3.84995 468.26 4.00995Z" fill="white"/>
<path d="M481.55 6.61992C481.34 6.35992 481.42 5.97992 481.84 6.19992C483.41 7.02992 484.67 7.87993 485.43 8.85993C486.34 10.0299 485.16 11.7299 484.12 10.2199C483.1 8.75993 482.44 7.67992 481.56 6.61992H481.55Z" fill="white"/>
<path d="M0.209998 33.6599C-0.0500017 33.6399 -0.0300017 33.4499 0.0499983 33.1499H3.73C3.67 33.5199 3.6 33.6599 3.39 33.6599C2.78 33.6599 2.67 33.7099 2.67 35.7399V41.1499C2.67 43.8099 2.69 43.8099 3.74 43.8999C3.64 44.2799 3.56 44.4099 3.36 44.4099H-1.65659e-06C0.0599983 44.1099 0.0799983 43.9499 0.289998 43.8999C1.15 43.7099 1.14 43.7199 1.14 41.4999V36.0699C1.14 33.7299 1.12 33.7199 0.209998 33.6499V33.6599ZM3.29 38.5099L6.41 34.5199C6.97 33.7999 6.94 33.6999 6.17 33.6599C5.93 33.6399 5.83 33.5799 5.93 33.1499H9.31C9.25 33.5199 9.23 33.6299 8.93 33.6599C8.18 33.7399 8.13 33.8199 6.91 35.3099L4.56 38.1599L7.78 42.2699C8.6 43.3299 9.46 43.9699 10 44.1599C10.22 44.2399 10.22 44.4199 9.97 44.4199C8.32 44.4199 7.42 44.4799 6.11 42.6599L3.29 38.7499C3.23 38.6499 3.23 38.5899 3.29 38.5099Z" fill="white"/>
<path d="M11.16 43.9101C11.88 43.7501 11.91 43.73 11.91 41.52V36.05C11.91 33.97 11.89 33.9501 11.4 33.7901C11.05 33.6801 10.97 33.5801 10.98 33.1501C12.08 33.3401 13.48 33.1701 14.9 33.1501C17.64 33.1201 19.05 34.8001 19.05 36.2101C19.05 37.7501 17.75 39.11 15.74 39.3C17.87 41 18.2 43.1601 20.22 44.1701C20.44 44.2801 20.46 44.4301 20.19 44.4301C19.15 44.4301 18.24 44.6101 17.47 43.7401C16.19 42.3001 15.6 40.2801 13.9 39.0701C13.79 38.9901 13.8 38.83 13.95 38.83C16.24 38.83 17.5 38.08 17.41 36.3C17.31 34.6 16.16 33.5501 13.46 34.0701V41.1601C13.46 43.8201 13.46 43.8301 14.77 43.9101C14.64 44.3301 14.56 44.4201 14.34 44.4201H10.83C10.89 44.0401 10.94 43.9601 11.17 43.9101H11.16Z" fill="white"/>
<path d="M32.46 38.6999C32.46 41.8399 30.49 44.6199 26.7 44.6199C23.21 44.6199 21 42.1099 21 38.9399C21 35.2399 23.51 32.9199 26.65 32.9199C30 32.9199 32.46 35.3799 32.46 38.6999ZM22.68 38.6199C22.68 41.5999 24.33 43.8699 26.75 43.8699C29.47 43.8699 30.74 42.1599 30.74 39.0499C30.74 36.5499 29.3 33.6399 26.55 33.6399C24.2 33.6399 22.69 35.5599 22.69 38.6199H22.68Z" fill="white"/>
<path d="M36.23 33.1501L42.62 41.3901V36.0801C42.62 33.9401 42.56 33.7101 41.64 33.6601C41.32 33.6401 41.3 33.5301 41.38 33.1501H44.73C44.62 33.6001 44.62 33.6301 44.41 33.6601C43.51 33.8001 43.47 33.9601 43.47 35.7201V44.3801C43.47 44.6401 43.02 44.5701 42.94 44.4601L35.85 35.1601V41.2301C35.85 43.6101 35.82 43.7601 37.15 43.9001C37.02 44.2801 37.01 44.4101 36.8 44.4101H33.77C33.83 44.0701 33.85 43.9501 34.07 43.9001C34.97 43.7201 35 43.6101 35 41.7401V34.5801C35 33.9401 34.52 33.7301 33.88 33.6501C33.64 33.6201 33.66 33.4601 33.7 33.1401H36.23V33.1501Z" fill="white"/>
<path d="M57.34 38.6999C57.34 41.8399 55.37 44.6199 51.58 44.6199C48.09 44.6199 45.88 42.1099 45.88 38.9399C45.88 35.2399 48.39 32.9199 51.53 32.9199C54.88 32.9199 57.34 35.3799 57.34 38.6999ZM47.56 38.6199C47.56 41.5999 49.21 43.8699 51.63 43.8699C54.35 43.8699 55.62 42.1599 55.62 39.0499C55.62 36.5499 54.18 33.6399 51.43 33.6399C49.08 33.6399 47.57 35.5599 47.57 38.6199H47.56Z" fill="white"/>
<path d="M58.95 43.9099C59.64 43.7999 59.62 43.7299 59.62 41.5199V36.0499C59.62 33.9699 59.6 33.9499 59.11 33.7899C58.76 33.6799 58.68 33.5799 58.69 33.1499C59.79 33.3399 61.44 33.1499 62.87 33.1499C65.14 33.1499 66.82 34.7499 66.82 36.2999C66.82 39.2499 64.05 40.1599 61.68 39.7599C61.54 39.7299 61.49 39.5399 61.71 39.5199C63.97 39.4099 65.23 38.3799 65.15 36.3799C65.09 34.7099 63.84 33.4999 61.15 34.0599V41.1499C61.15 42.9232 61.64 43.8399 62.62 43.8999C62.51 44.3199 62.41 44.4099 62.19 44.4099H58.6C58.66 44.1099 58.71 43.9299 58.94 43.8999L58.95 43.9099Z" fill="white"/>
<path d="M79.5299 38.6999C79.5299 41.8399 77.5599 44.6199 73.7699 44.6199C70.2799 44.6199 68.0699 42.1099 68.0699 38.9399C68.0699 35.2399 70.5799 32.9199 73.7199 32.9199C77.0699 32.9199 79.5299 35.3799 79.5299 38.6999ZM69.7499 38.6199C69.7499 41.5999 71.3999 43.8699 73.8199 43.8699C76.5399 43.8699 77.8099 42.1599 77.8099 39.0499C77.8099 36.5499 76.3699 33.6399 73.6199 33.6399C71.2699 33.6399 69.7599 35.5599 69.7599 38.6199H69.7499Z" fill="white"/>
<path d="M84.52 33.1501C84.44 33.5501 84.39 33.6501 84.18 33.6601C83.48 33.7101 83.4 33.6901 83.4 35.7401V43.3801C83.4 43.5201 83.42 43.6401 83.64 43.6501C84.01 43.6801 84.81 43.7101 85.42 43.6801C87.85 43.5501 88.03 43.0901 88.7 41.6301C88.78 41.4501 89.08 41.5301 89.02 41.7401L88.27 44.3301C88.24 44.4301 88.19 44.5101 87.98 44.4901C87.52 44.4601 86.67 44.4101 85.47 44.4101H81.24C81.05 44.4101 80.98 44.2701 81.19 44.1701C81.77 43.9101 81.86 43.7701 81.86 41.9301V36.0701C81.86 33.6901 81.83 33.7201 81 33.6501C80.79 33.6301 80.78 33.4401 80.84 33.1401H84.52V33.1501Z" fill="white"/>
<path d="M109.19 43.9201C108.81 44.3501 108.74 44.4001 108.45 44.7701C108.27 44.9901 108.16 45.1101 107.73 45.1201C105.52 45.2301 101.49 45.3901 99.0201 44.1801C98.0401 43.7001 97.2301 42.9801 96.6701 41.9601L96.4801 42.58C96.0501 43.83 95.5001 44.8001 94.9101 45.3701C94.7201 45.5501 94.5701 45.3401 94.6201 45.2301C95.0201 44.3301 95.3601 43.1201 95.5801 41.8701C95.7901 40.6901 95.9201 39.1301 95.9301 38.0401L96.8101 38.2601C97.0801 38.3201 97.2101 38.4201 97.1801 38.7101C97.1201 39.4601 97.0001 40.3101 96.8601 41.0901C97.1501 41.5701 97.5001 41.9901 97.9301 42.3201V37.0701H95.2901C95.0301 37.0701 94.9501 36.9101 94.6701 36.2501H97.7601V34.2201H95.7401C95.5201 34.2201 95.4501 34.0601 95.1601 33.4201H97.7501V31.0701L98.7401 31.2801C98.9201 31.3101 99.0001 31.3801 99.0001 31.4901V33.4301H99.9901C100.28 33.4301 100.41 33.3201 100.68 33.0101C101.02 33.3301 101.24 33.5201 101.24 33.7301C101.24 34.0501 100.95 34.2301 100.44 34.2301H99.0001V36.2601H100.39C100.66 36.2601 100.82 36.1301 101.09 35.8101C101.43 36.1301 101.68 36.34 101.68 36.58C101.68 36.9 101.39 37.08 100.86 37.08H99.1601V39.3201H100.14C100.41 39.3201 100.57 39.1801 100.86 38.8901C101.18 39.1901 101.42 39.4201 101.42 39.6401C101.42 39.9401 101.13 40.1501 100.59 40.1501H99.1701V43.1001C99.3601 43.2001 99.5701 43.2801 99.7801 43.3401C102.5 44.2401 106.07 44.0301 109.02 43.7601C109.21 43.7401 109.26 43.8601 109.18 43.9401L109.19 43.9201ZM101.37 31.8501H105.84C106.14 31.8501 106.35 31.7401 106.56 31.4701L107.39 31.7701C108.25 32.09 107.77 32.5701 107.76 32.7801C107.63 34.5301 107.55 36.5701 106.38 36.9101C105.72 37.1001 105.71 36.5601 104.75 36.0301C104.62 35.9701 104.65 35.8101 104.86 35.8201C106 35.9001 106.08 35.7701 106.25 35.2001C106.41 34.6701 106.49 33.6301 106.52 32.6901H104.85C104.74 33.6501 104.42 34.9601 103.95 35.7001C103.49 36.4501 102.94 37.0101 102.25 37.4501L103.05 37.61C103.29 37.66 103.34 37.7701 103.34 37.8501H105.68C106.03 37.8501 106.29 37.6601 106.48 37.4001L107.52 37.7401C108.23 37.9601 107.73 38.54 107.73 38.8V42.4701C107.73 43.0601 107.11 43.3301 106.48 43.1601V42.1001H103.34V42.61C103.34 43.28 102.78 43.5701 102.09 43.4001V37.5601C101.72 37.7801 101.32 37.9801 100.87 38.1401C100.61 38.2401 100.5 38.0101 100.66 37.9001C101.91 36.9901 102.57 36.3001 103.06 35.1001C103.38 34.3201 103.51 33.5801 103.59 32.7201H101.89C101.68 32.7201 101.57 32.3701 101.35 31.8901L101.37 31.8501ZM103.35 38.6701V41.2301H106.49V38.6701H103.35Z" fill="white"/>
<path d="M118.74 36.09V44.38C118.74 45.2 118.12 45.56 117.56 45.16C117.08 44.81 116.54 44.52 115.99 44.33C115.8 44.27 115.81 44.09 116.05 44.09C116.55 44.09 117.35 44.14 117.49 44.07C117.55 44.04 117.55 43.97 117.55 43.89V35.9H116.72V42.51C116.72 43.17 116.19 43.39 115.55 43.23V35.9H114.69V42.78C114.69 43.45 114.16 43.74 113.52 43.58V35.9H112.62V44.56C112.62 45.17 112.08 45.49 111.44 45.33V34.7L112.35 34.88C112.56 34.93 112.61 34.99 112.62 35.1H113.66C113.88 34.49 114.11 33.5 114.25 32.86H111.13C110.91 32.86 110.83 32.7 110.57 32.06H118.09C118.38 32.06 118.52 31.9 118.83 31.6C119.18 31.92 119.44 32.14 119.44 32.37C119.44 32.72 119.12 32.87 118.56 32.87H115.62C115.32 33.51 114.8 34.5 114.47 35.11H116.82C117.17 35.11 117.33 35.01 117.56 34.74L118.5 35.06C119.22 35.3 118.74 35.73 118.74 36.08V36.09ZM125.13 35.04C125.13 35.44 124.83 35.58 124.28 35.58H123.27V44.54C123.27 45.32 122.57 45.71 121.96 45.18C121.5 44.78 120.78 44.41 120.33 44.25C120.15 44.19 120.17 44.01 120.36 44.01C120.74 44.01 121.86 44.07 121.96 44.03C122.04 43.98 122.04 43.95 122.04 43.89V35.58H119.77C119.53 35.58 119.47 35.4 119.19 34.75H122.04V30.97L123.02 31.18C123.21 31.23 123.28 31.31 123.28 31.42V34.75H123.86C124.13 34.75 124.28 34.59 124.55 34.25C124.93 34.62 125.14 34.84 125.14 35.03L125.13 35.04ZM120.2 39.73C119.96 38.75 119.77 37.97 119.48 37.09C119.43 36.96 119.59 36.79 119.78 36.96C120.5 37.63 121.16 38.51 121.32 39.2C121.61 40.48 120.52 41.02 120.2 39.73Z" fill="white"/>
<path d="M128.81 40.9601C128.51 42.6901 127.91 44.2901 126.98 45.2501C126.77 45.4601 126.61 45.2301 126.68 45.0901C127.29 43.7001 127.67 41.7901 127.8 40.0801C127.96 37.8701 127.93 35.5501 127.85 31.9201L128.86 32.1301C129.02 32.1601 129.13 32.2301 129.13 32.3201H134.06L134.01 32.2701C133.69 31.9201 133.4 31.6001 133.03 31.1801C132.9 31.0201 133.01 30.8801 133.22 30.9101C133.96 31.0201 134.6 31.1701 134.9 31.4401C135.2 31.7101 135.16 32.1001 134.95 32.3201H139.16C139.43 32.3201 139.59 32.2101 139.88 31.8901C140.22 32.2301 140.44 32.4001 140.44 32.6101C140.44 32.9601 140.15 33.1101 139.66 33.1101H129.13V35.9801C129.13 37.6001 129.07 39.5301 128.81 40.9701V40.9601ZM140.15 39.5201C140.15 39.8401 139.86 40.0201 139.33 40.0201H133.82C133.58 40.3601 133.23 40.7701 132.78 41.2201H136.86C137.12 41.2201 137.26 41.1101 137.48 40.8701L138.62 41.2401C139.2 41.4301 138.76 41.7501 138.76 42.0701V44.6301C138.76 45.2701 138.1 45.4801 137.48 45.3801V44.4201H132.65V44.6001C132.65 45.2901 131.99 45.4801 131.37 45.4001V42.4701C130.49 43.1301 129.48 43.6701 128.94 43.8101C128.72 43.8701 128.57 43.6501 128.81 43.5101C129.51 43.0601 130.33 42.4101 131.03 41.7201C131.61 41.1801 132.12 40.5701 132.49 40.0201H129.82C129.55 40.0201 129.48 39.8101 129.2 39.2201H138.88C139.15 39.2201 139.31 39.0401 139.57 38.7701C139.86 39.0601 140.15 39.3001 140.15 39.5201ZM133.65 35.1301H132.53V38.0801C132.53 38.6901 132.02 38.9301 131.44 38.8201V35.1401H129.9C129.58 35.1401 129.5 35.0101 129.29 34.4201H131.43V33.2801L132.28 33.4601C132.44 33.4901 132.52 33.5701 132.52 33.6701V34.4201H133.26C133.47 34.4201 133.63 34.3101 133.88 34.0001C134.18 34.3001 134.39 34.4801 134.39 34.6701C134.39 35.0101 134.15 35.1301 133.64 35.1301H133.65ZM129.51 38.5301C129.91 37.7801 130.07 36.6701 130.05 35.4401L130.75 35.5801C131.05 35.6401 131.07 35.7201 131.07 35.9001C131.07 36.9101 130.59 38.0001 129.79 38.6701C129.61 38.8101 129.41 38.7001 129.5 38.5301H129.51ZM132.66 42.0301V43.5801H137.49V42.0301H132.66ZM133.83 35.6001C133.99 35.6301 134.04 35.7401 134.04 35.8201V37.5501C134.04 38.0901 133.59 38.2901 133.02 38.2101V35.4201L133.84 35.6001H133.83ZM135.75 35.5201C136.04 35.5701 136.09 35.6301 136.09 35.8101C136.09 36.9901 135.55 38.0301 134.79 38.5301C134.61 38.6401 134.42 38.5101 134.52 38.3501C135.03 37.5001 135.06 36.5201 135.06 35.3901L135.75 35.5201ZM136.47 38.8101V35.0501H135.14C134.9 35.0501 134.84 34.9201 134.6 34.3501H136.47V33.2901L137.32 33.4801C137.5 33.5101 137.56 33.5901 137.56 33.6701V34.3401H138.6C138.81 34.3401 138.95 34.2101 139.22 33.9101C139.56 34.2101 139.76 34.3701 139.76 34.5801C139.76 34.9001 139.49 35.0401 138.96 35.0401H137.55V38.1101C137.55 38.7001 137.01 38.9301 136.46 38.8001L136.47 38.8101ZM140.39 37.8701C140.12 38.0001 139.68 38.0801 139.19 38.0501C138.1 37.9901 138.02 37.8601 138.02 36.3701V35.4201L138.8 35.5801C138.98 35.6101 139.01 35.6901 139.01 35.8001V36.6801C139.01 37.0001 139.04 37.1101 139.25 37.1301C139.57 37.1601 139.73 37.1301 139.81 36.9201L139.91 36.6501C139.94 36.5501 140.05 36.5501 140.1 36.6501C140.21 36.8701 140.29 37.0701 140.47 37.2101C140.73 37.4201 140.63 37.7501 140.39 37.8701Z" fill="white"/>
<path d="M156.95 42.5899C155.8 43.2599 155.7 43.3799 155.21 42.9699C153.26 41.3999 151.58 39.0199 150.62 36.4999V44.5699C150.62 45.3499 149.95 45.5799 149.26 45.4499V36.8599C148.03 39.7899 145.64 42.3999 142.99 43.5799C142.77 43.6799 142.59 43.4399 142.78 43.2899C145.37 41.2599 147.44 38.4599 148.57 35.4499H143.9C143.61 35.4499 143.53 35.2599 143.24 34.5699H149.26V30.9199L150.33 31.1399C150.55 31.1899 150.62 31.2799 150.62 31.3799V34.5699H155.05C155.34 34.5699 155.53 34.3799 155.79 34.0699C156.16 34.4199 156.41 34.6299 156.41 34.8999C156.41 35.2499 156.09 35.4399 155.55 35.4399H150.94C152.14 38.2699 154.27 40.6699 156.88 42.3199C157.07 42.4299 157.14 42.4799 156.96 42.5799L156.95 42.5899Z" fill="white"/>
<path d="M164.18 41.46C162.87 42.37 161.31 43.19 159.89 44C159.44 44.26 159.38 44.14 158.43 43.2C159.26 42.93 160.06 42.66 160.8 42.38V36.63H159.28C158.94 36.63 158.85 36.45 158.61 35.78H160.8V31.11L161.82 31.3C161.96 31.33 162.08 31.43 162.08 31.49V35.78H162.9C163.14 35.78 163.3 35.64 163.56 35.32C163.93 35.66 164.14 35.88 164.14 36.07C164.14 36.42 163.88 36.63 163.36 36.63H162.1V41.91C162.79 41.64 163.43 41.38 164.02 41.16C164.2 41.1 164.39 41.32 164.2 41.45L164.18 41.46ZM172.78 44.55C171.92 45.09 169.61 45.17 167.72 45.06C164.65 44.88 164.66 44.68 164.66 41.54V38.15L163.68 38.63C163.34 38.79 163.12 38.63 162.62 38.18L164.65 37.16V33.06L165.61 33.3C165.9 33.36 165.88 33.51 165.88 33.68V36.55L167.45 35.77V31.03L168.41 31.24C168.57 31.27 168.67 31.32 168.67 31.42V35.17L169.87 34.56C170.14 34.42 170.25 34.21 170.35 33.97L171.15 34.19C172.06 34.45 171.63 34.86 171.65 35.05C171.55 37.96 171.63 40.14 170.82 41.12C170.48 41.54 170.08 41.49 169.8 41.23C169.5 40.96 169.29 40.78 168.98 40.62C168.85 40.56 168.84 40.41 169.06 40.41C169.99 40.41 170.02 40.36 170.23 39.4C170.41 38.62 170.47 36.69 170.44 35.27L168.68 36.13V41.7C168.68 42.4 168.09 42.66 167.46 42.52V36.74L165.89 37.53V42.46C165.89 43.68 166.05 43.84 167.7 43.9C168.9 43.95 170.57 43.92 171.32 43.69C171.62 43.59 171.78 43.37 171.88 42.89L172.04 42.04C172.07 41.86 172.25 41.86 172.28 42.04C172.44 42.9 172.52 43.35 172.87 43.66C173.25 44 173.01 44.4 172.77 44.56L172.78 44.55Z" fill="white"/>
<path d="M178.36 37.01V44.6C178.36 45.37 177.77 45.59 177.13 45.45V37.51C176.65 39.16 175.9 40.74 174.84 41.78C174.66 41.94 174.5 41.73 174.58 41.59C175.62 39.59 176.31 37.6 176.65 35.36H175.29C175.02 35.36 174.95 35.17 174.67 34.5H177.14V30.96L178.08 31.17C178.27 31.22 178.37 31.28 178.37 31.38V34.5H179.12C179.41 34.5 179.57 34.39 179.86 34.05C180.21 34.4 180.45 34.63 180.45 34.83C180.45 35.17 180.15 35.36 179.6 35.36H178.37V36.3C179.25 36.94 179.75 37.29 180.18 37.97C180.84 38.98 179.97 40.02 179.44 39.03C179.02 38.25 178.66 37.54 178.37 37.01H178.36ZM188.94 44.63C188.57 44.79 188.38 44.9 188.09 45.01C187.8 45.12 187.59 45.14 187.32 44.95C186.5 44.36 185.56 43.48 184.81 42.45C183.82 43.6 181.96 44.95 180.31 45.3C180.1 45.35 179.96 45.12 180.17 45.01C181.77 44.23 183.4 42.8 184.24 41.57C183.41 40.11 182.96 38.27 182.7 36.42H182.24C182.24 37.59 182.16 39.24 181.79 40.92C181.37 42.78 180.06 44.7 178.83 45.35C178.64 45.45 178.4 45.32 178.62 45.09C179.71 43.97 180.41 42.32 180.7 40.7C181.12 38.38 180.97 35.48 180.92 31.54L181.98 31.76C182.14 31.79 182.24 31.9 182.24 31.97V32H186.74C187.04 32 187.27 31.81 187.54 31.47C187.94 31.85 188.18 32.03 188.18 32.27C188.18 32.67 187.81 32.85 187.28 32.85H182.24V35.59H185.81C186.18 35.59 186.34 35.49 186.56 35.24L187.09 35.61C187.54 35.91 187.55 36.11 187.49 36.43C187.25 37.55 186.75 39.63 185.52 41.5C186.32 42.54 187.43 43.5 188.93 44.37C189.09 44.47 189.12 44.55 188.95 44.63H188.94ZM183.38 36.41C183.75 37.95 184.15 39.31 184.84 40.51C185.56 39.09 185.93 37.71 186.14 36.41H183.39H183.38Z" fill="white"/>
<path d="M197.03 40.83C197.94 40.25 198.36 39.45 198.39 38.89C198.41 38.62 198.21 38.47 197.88 38.46C197.24 38.43 196.79 37.98 196.79 37.28C196.79 36.51 197.4 36.03 198.05 36.03C198.85 36.03 199.67 36.67 199.63 37.73C199.58 39.27 198.81 40.64 197.24 41.23C196.82 41.39 196.73 41.02 197.02 40.83H197.03Z" fill="white"/>
<path d="M213.16 36.59C212.74 36.93 211.72 37.55 210.68 38.16V44.43C210.68 45.18 209.99 45.71 209.35 45.15C208.71 44.59 208.18 44.37 207.73 44.21C207.55 44.15 207.57 43.95 207.78 43.97C208.2 44 209.17 44.02 209.3 43.97C209.38 43.94 209.38 43.89 209.38 43.84V38.91L208 39.71C207.65 39.92 207.52 39.93 207.04 39.45L206.48 38.89C207.38 38.59 208.4 38.2 209.38 37.82V34.95H207.23C206.97 34.95 206.86 34.84 206.62 34.1H209.37V31.03L210.39 31.25C210.58 31.3 210.66 31.39 210.66 31.51V34.1H211.61C211.87 34.1 212.07 33.94 212.41 33.54C212.81 33.94 213.07 34.15 213.07 34.39C213.07 34.79 212.7 34.95 212.11 34.95H210.67V37.29C211.58 36.92 212.38 36.57 212.96 36.3C213.15 36.2 213.41 36.4 213.15 36.59H213.16ZM221.02 33C221.02 33.37 220.7 33.54 220.14 33.54H217.85V44.44C217.85 45.21 217.11 45.82 216.36 45.19C215.78 44.71 214.86 44.42 214.42 44.25C214.26 44.19 214.28 43.99 214.45 43.99C214.88 43.99 216.31 44.04 216.4 44.01C216.5 43.98 216.5 43.95 216.5 43.9V33.54H213.23C212.96 33.54 212.88 33.33 212.56 32.66H219.63C219.92 32.66 220.08 32.52 220.38 32.18C220.76 32.53 221 32.71 221 33H221.02Z" fill="white"/>
<path d="M237.19 43.8401C236.9 44.1601 236.71 44.3401 236.34 44.7201C236.15 44.9301 236.08 45.0101 235.67 45.0401C234.79 45.1001 233.77 45.1701 232.8 45.1701C229.77 45.1701 227.33 45.1401 225.61 42.6901C225.16 43.3601 224.6 44.1601 224.14 44.7401C223.76 45.2201 223.61 45.2201 222.6 44.3701C223.48 43.7501 224.36 43.1101 224.95 42.4201V39.0901H223.32C223.06 39.0901 223 38.9001 222.73 38.2901H224.46C224.72 38.2901 224.84 38.1801 225.04 37.9701L225.92 38.2701C226.66 38.5301 226.24 38.8601 226.24 39.2001V42.4001C228.13 44.1801 230.47 44.0501 232.85 44.0001C234.64 43.9701 236.24 43.7901 237.03 43.6601C237.22 43.6301 237.25 43.7701 237.19 43.8401ZM223.2 34.8501C223.12 34.7501 223.17 34.5001 223.41 34.5901C224.05 34.8501 224.91 35.1 225.51 35.7701C226.23 36.5901 225.4 37.6001 224.68 36.7301C224.18 36.1401 223.66 35.3901 223.21 34.8401L223.2 34.8501ZM223.99 32.08C223.83 31.89 223.96 31.7301 224.15 31.7901C225.03 32.0801 225.59 32.2701 226.12 32.7001C227.06 33.4701 226.25 34.7601 225.38 33.7601C224.98 33.3001 224.39 32.56 223.99 32.08ZM227.24 35.8501C227.5 35.2901 227.8 34.5401 228.06 33.7501C228.28 33.0601 228.44 32.4401 228.59 31.8101L229.45 32.2301C229.77 32.3901 229.8 32.4701 229.66 32.7701C229.5 33.11 229.39 33.3301 229.24 33.6001H230.92V31.0601L231.93 31.2701C232.12 31.3001 232.19 31.4001 232.19 31.4801V33.61H234.3C234.57 33.61 234.76 33.4301 235.02 33.1601C235.34 33.4501 235.61 33.6701 235.61 33.9101C235.61 34.2101 235.27 34.4201 234.78 34.4201H232.19V36.4201H235.5C235.79 36.4201 235.95 36.2801 236.25 35.9701C236.57 36.2701 236.86 36.5001 236.86 36.7401C236.86 37.0601 236.6 37.2501 236.01 37.2501H227.16C226.87 37.2501 226.81 37.0901 226.49 36.4201H230.92V34.4201H228.74C228.32 35.0801 227.89 35.67 227.48 36.05C227.3 36.21 227.16 36.0201 227.24 35.8401V35.8501ZM233.7 43.2301V42.3701H229.51V42.4501C229.51 43.1501 228.89 43.39 228.25 43.2701V38.0401L229.27 38.2301C229.45 38.2601 229.51 38.3701 229.51 38.4401H233.05C233.32 38.4401 233.48 38.3401 233.71 38.1001L234.78 38.4401C235.36 38.6201 234.97 39.0201 234.97 39.2701V42.5401C234.97 43.1501 234.33 43.3701 233.71 43.2401L233.7 43.2301ZM233.7 41.55V39.2301H229.51V41.55H233.7Z" fill="white"/>
<path d="M253.05 37.25C252.62 37.47 252.38 37.59 252.14 37.7C251.74 37.91 251.6 37.83 251.08 37.54C250.25 37.08 248.12 35.41 246.15 33.33C245.17 34.5 243.91 35.73 242.36 36.77H248.28C248.57 36.77 248.71 36.64 249.03 36.29C249.4 36.66 249.62 36.83 249.62 37.06C249.62 37.48 249.3 37.62 248.77 37.62H246.59V40.31H249.02C249.29 40.31 249.47 40.13 249.77 39.8C250.14 40.15 250.39 40.34 250.39 40.6C250.39 41.02 250.05 41.16 249.51 41.16H246.58V44.11H251.09C251.41 44.11 251.57 43.95 251.87 43.58C252.27 43.95 252.56 44.16 252.56 44.41C252.56 44.84 252.19 45.03 251.63 45.03H239.86C239.56 45.03 239.51 44.84 239.16 44.1H245.2V41.15H241.9C241.63 41.15 241.55 41.01 241.24 40.3H245.19V37.61H242.84C242.6 37.61 242.52 37.48 242.25 36.83C241.26 37.47 240.17 38.05 238.97 38.48C238.78 38.54 238.65 38.27 238.86 38.14C241.24 36.64 243.71 34.49 245.25 32.33L245.15 32.23C244.88 31.91 244.43 31.59 244.09 31.41C243.96 31.35 243.87 31.27 244.09 31.17C244.23 31.11 244.54 31.04 244.7 31.04C245.04 31.04 245.2 31.12 245.31 31.22C245.85 31.68 246.32 32.28 246.93 32.85C248.96 34.77 250.77 36.02 252.96 37C253.15 37.08 253.14 37.18 253.02 37.24L253.05 37.25Z" fill="white"/>
<path d="M268.97 44.4499C268.97 44.8499 268.62 45.0299 268.06 45.0299H255.5C255.18 45.0299 255.12 44.8399 254.78 44.1499H261.17V42.1999H257.31C256.99 42.1999 256.93 42.0199 256.62 41.3499H261.17V39.5099L262.26 39.6999C262.47 39.7299 262.55 39.8399 262.55 39.9399V41.3499H265.34C265.64 41.3499 265.84 41.1699 266.09 40.8899C266.43 41.1899 266.7 41.3999 266.7 41.6299C266.7 42.0299 266.38 42.2099 265.84 42.2099H262.56V44.1599H267.57C267.87 44.1599 268.05 43.9799 268.34 43.6599C268.69 43.9999 269 44.1899 269 44.4599L268.97 44.4499ZM255.27 34.5899C255.7 34.2099 256.45 33.4699 256.76 32.5299C256.82 32.3399 257.06 32.3899 257.08 32.5499C257.08 32.6599 257.1 32.7699 257.1 32.8999H261.92C261.78 32.8199 261.63 32.6899 261.47 32.4799C261.15 32.0599 260.8 31.5799 260.49 31.1999C260.36 31.0199 260.47 30.8799 260.68 30.9299C261.51 31.1399 262.09 31.3299 262.51 31.6799C262.94 32.0499 262.88 32.6599 262.56 32.8999H266.77C267.12 32.8999 267.35 32.8399 267.62 32.5599L268.31 33.2499C268.63 33.5699 268.61 33.6799 268.44 33.8099C267.75 34.3199 267.03 34.8299 266.66 35.0699C266.5 35.1699 266.28 35.0999 266.39 34.8799C266.55 34.5799 266.84 34.0799 267.01 33.7299H257.04C256.99 34.1599 256.9 34.5799 256.75 34.8499C255.9 36.5299 254.29 35.4699 255.28 34.5899H255.27ZM260.34 36.0799H257.38C257.11 36.0799 257.03 35.9199 256.72 35.2799H264.9C265.19 35.2799 265.33 35.1399 265.62 34.8199C266 35.1599 266.23 35.3299 266.23 35.5599C266.23 35.9099 265.91 36.0899 265.41 36.0899H261.87C261.26 36.8599 260.29 37.8499 259.37 38.4899C261.18 38.3799 262.99 38.2299 264.28 38.0699C263.86 37.7199 263.46 37.3699 263.05 36.9999C262.81 36.7899 262.97 36.6199 263.21 36.6999C264.91 37.3199 266.09 37.9599 266.59 38.4499C267.53 39.3599 266.88 40.5799 265.82 39.5199C265.45 39.1499 265.1 38.8199 264.76 38.5099C262.41 39.1699 259.13 39.4699 257.53 39.7599C257 39.8599 256.92 39.6999 256.38 38.6599L258.3 38.5599C259.1 37.8099 259.8 36.9099 260.33 36.0899L260.34 36.0799Z" fill="white"/>
<path d="M271.32 42.61C271.32 41.75 271.88 41.51 272.81 41.51C272.78 42.28 272.83 42.65 273.05 43.03C273.39 43.61 274.07 43.81 274.71 43.81C276.58 43.81 276.92 42.61 276.92 41.28C276.92 39.49 275.67 38.78 273.51 38.77C273.38 38.43 273.45 38.18 273.69 38.16C274.91 38.08 276.38 37.31 276.38 35.47C276.38 34.57 275.76 33.61 274.43 33.61C272.94 33.61 272.78 34.84 272.97 36.11C271.88 36.35 271.3 36.01 271.42 35.15C271.6 33.74 273.2 32.99 274.67 32.99C276.97 32.99 278.03 34.24 278.03 35.44C278.03 36.64 277.21 37.87 274.97 38.35C277.21 38.45 278.6 39.6 278.6 41.26C278.6 43.32 276.68 44.56 274.42 44.56C272.8 44.56 271.31 43.92 271.31 42.61H271.32Z" fill="white"/>
<path d="M280.82 44.4199C280.66 44.4499 280.58 44.3099 280.76 44.1799C281.11 43.9399 281.3 43.7199 281.3 41.9399V35.9199C281.3 34.2099 281.35 33.9999 280.96 33.8199C280.7 33.7099 280.61 33.5799 280.61 33.1499C281.07 33.2299 281.49 33.2899 281.92 33.2899C283.01 33.3099 283.81 33.1499 284.88 33.1499C288.5 33.1699 290.56 35.3899 290.56 39.0099C290.56 42.2799 288.58 44.4699 284.73 44.4199C284.06 44.3999 283.31 44.3399 282.38 44.3099C281.8 44.2899 281.44 44.3299 280.81 44.4199H280.82ZM284.74 33.8999C283.83 33.8999 283.27 33.9799 282.84 34.1199V43.4799C283.46 43.6199 284.31 43.6699 285.16 43.6199C287.87 43.4399 288.89 41.8899 288.89 39.0699C288.89 35.3099 287.31 33.8799 284.74 33.8799V33.8999Z" fill="white"/>
<path d="M299.16 41.15C299.38 42.13 299.53 42.91 299.53 43.47C299.53 44.27 299.07 44.96 298.55 44.97C298.04 44.99 297.7 44.57 297.86 43.99C298.07 43.22 298.63 42.2 298.56 41.45C298.51 40.92 297.94 40.71 297.06 40.63C296.82 40.61 296.79 40.31 297.04 40.29C297.87 40.23 298.13 40.08 298.38 39.6C299 38.43 300.01 35.68 300.6 33.97C300.7 33.68 301.03 33.78 300.95 34.05C299.75 38.34 298.92 40.13 299.14 41.14L299.16 41.15ZM296.98 34.89C296.87 34.7 296.96 34.52 297.19 34.63C297.93 35 298.45 35.25 298.85 35.69C299.64 36.54 298.64 37.72 298.05 36.79C297.62 36.12 297.3 35.45 296.98 34.89ZM298.08 31.56C297.95 31.35 298.03 31.16 298.29 31.27C298.99 31.57 299.57 31.88 299.94 32.25C300.68 32.99 299.86 34.28 299.17 33.34C298.71 32.7 298.34 31.98 298.08 31.56ZM310.39 45.43C309.59 45.05 308.55 44.12 307.8 42.68C307 43.78 305.97 44.78 304.63 45.4C304.47 45.48 304.26 45.27 304.45 45.11C305.65 44.04 306.66 42.76 307.33 41.6C307.31 41.57 307.31 41.54 307.3 41.5C306.93 40.41 306.71 37.83 306.68 34.57H302.44V37.16C302.44 41.03 301.53 44.2 299.85 45.32C299.66 45.45 299.48 45.27 299.56 45.13C300.1 44.15 300.6 42.89 300.84 41.62C301.24 39.52 301.24 36.55 301.19 33.31L302.17 33.52C302.35 33.55 302.44 33.63 302.44 33.73H306.68C306.68 32.85 306.7 32.16 306.7 31.01L307.69 31.25C307.87 31.3 307.93 31.38 307.93 31.51C307.9 32.52 307.88 32.97 307.88 33.73H309.69C309.96 33.73 310.14 33.55 310.41 33.22C310.78 33.57 311.05 33.76 311.05 34.04C311.05 34.42 310.7 34.57 310.14 34.57H307.88C307.91 36.99 307.98 38.81 308.14 39.95C308.59 38.83 308.99 37.47 309.29 36.06L310.07 36.44C310.39 36.6 310.39 36.68 310.33 36.94C310.06 37.95 309.45 39.95 308.57 41.49C308.91 42.34 309.39 43.12 309.99 43.63C310.09 43.71 310.13 43.69 310.2 43.63C310.31 43.5 310.49 42.8 310.63 42.19C310.66 42.05 310.87 42.06 310.87 42.22C310.89 42.88 310.92 44.16 311.13 44.64C311.35 45.15 311.24 45.82 310.39 45.43ZM302.57 36.19H305.07C305.34 36.19 305.5 36.03 305.77 35.71C306.14 36.08 306.38 36.25 306.38 36.49C306.38 36.86 306.08 37 305.56 37H303.14C302.92 37 302.84 36.86 302.56 36.18L302.57 36.19ZM303.88 42.15V42.6C303.88 43.27 303.21 43.42 302.76 43.32V38.13L303.59 38.29C303.77 38.32 303.85 38.39 303.88 38.47H304.42C304.64 38.47 304.8 38.37 304.96 38.15L305.94 38.49C306.48 38.68 306.08 39 306.08 39.31V42.21C306.08 42.79 305.58 43.03 304.96 42.91V42.16H303.87L303.88 42.15ZM303.88 39.22V41.36H304.97V39.22H303.88ZM308.41 31.48C308.35 31.37 308.41 31.14 308.65 31.26C309.18 31.5 309.71 31.72 310.01 32.06C310.68 32.81 309.67 33.81 309.15 32.91C308.83 32.37 308.61 31.82 308.41 31.49V31.48Z" fill="white"/>
<path d="M327.18 36.81C327.18 37.19 326.86 37.37 326.3 37.37H313.49C313.17 37.37 313.09 37.19 312.79 36.49H321.05C321.4 35.83 321.96 34.36 322.19 33.61L323.09 34.17C323.44 34.39 323.47 34.49 323.28 34.71C322.98 35.08 322.3 35.93 321.78 36.49H325.78C326.08 36.49 326.24 36.33 326.53 35.99C326.91 36.36 327.19 36.55 327.19 36.81H327.18ZM314.05 32.72H320C319.87 32.66 319.74 32.54 319.62 32.38C319.28 31.96 318.93 31.44 318.71 31.1C318.58 30.92 318.66 30.78 318.9 30.84C319.73 31.05 320.4 31.26 320.68 31.58C321.05 32.01 320.94 32.52 320.62 32.72H324.24C324.51 32.72 324.69 32.58 324.99 32.22C325.34 32.59 325.6 32.78 325.6 33C325.6 33.4 325.28 33.56 324.75 33.56H314.75C314.46 33.56 314.38 33.42 314.06 32.71L314.05 32.72ZM324.07 39.52V44.63C324.07 45.24 323.49 45.51 322.74 45.41V44.43H317.28V44.59C317.28 45.31 316.64 45.53 315.95 45.47V38.14L316.99 38.36C317.2 38.41 317.28 38.49 317.28 38.55V38.57H321.97C322.29 38.57 322.51 38.44 322.74 38.17L323.91 38.52C324.5 38.7 324.07 39.24 324.07 39.51V39.52ZM318.81 35.09C319.39 36.11 318.25 36.8 317.79 36C317.5 35.5 317.07 34.43 316.88 33.93C316.82 33.75 316.94 33.64 317.14 33.74C317.89 34.12 318.58 34.65 318.82 35.08L318.81 35.09ZM317.29 39.42V41.09H322.75V39.42H317.29ZM322.74 43.57V41.94H317.28V43.57H322.74Z" fill="white"/>
<path d="M342.1 44.72C341.22 45.09 339.64 45.2 337.43 45.1C334.45 44.97 334.4 44.62 334.4 42.59V40.4899H329.77C329.5 40.4899 329.42 40.3299 329.1 39.5799H334.4V37.2399C332.9 37.4599 331.29 37.59 330.25 37.59C329.98 37.59 329.96 37.3 330.19 37.25C331.49 37.01 333.02 36.71 334.5 36.35C336.29 35.92 338.01 35.3899 338.79 35.0199L339.25 35.6099C339.59 36.0299 339.52 36.14 339.2 36.25C338.7 36.43 337.09 36.76 335.76 37V39.56H340.69C341.07 39.56 341.27 39.35 341.55 39.03C341.9 39.37 342.24 39.64 342.24 39.89C342.24 40.29 341.92 40.47 341.31 40.47H335.76V43.13C335.76 43.59 335.82 43.83 336.78 43.9C338.89 44.04 340.17 43.96 340.85 43.79C341.15 43.71 341.27 43.5199 341.31 43.2099L341.47 42.25C341.5 42.11 341.69 42.11 341.73 42.25L341.92 43.19C341.98 43.48 342.06 43.62 342.27 43.81C342.64 44.15 342.43 44.55 342.09 44.69L342.1 44.72ZM329.7 34.85C330.21 34.26 330.74 33.6999 331.08 32.7099C331.14 32.5199 331.4 32.57 331.42 32.73C331.44 32.87 331.44 33.02 331.44 33.16H336.16C336 33.06 335.81 32.89 335.63 32.62C335.34 32.17 334.97 31.5999 334.73 31.2399C334.6 31.0599 334.7 30.92 334.91 30.97C335.68 31.18 336.3 31.4499 336.69 31.7999C337.17 32.2299 337.07 32.92 336.72 33.16H340.74C341.14 33.16 341.3 33.11 341.54 32.87L342.18 33.4599C342.55 33.7999 342.48 33.91 342.31 34.07C341.69 34.66 340.95 35.4 340.56 35.69C340.4 35.8 340.22 35.69 340.32 35.47C340.46 35.15 340.7 34.5599 340.94 34.0499H331.38C331.32 34.4699 331.22 34.8499 331.09 35.1099C330.39 36.5199 329.03 35.64 329.7 34.87V34.85Z" fill="white"/>
<path d="M351.17 40.83C352.08 40.25 352.5 39.45 352.53 38.89C352.55 38.62 352.35 38.47 352.02 38.46C351.38 38.43 350.93 37.98 350.93 37.28C350.93 36.51 351.54 36.03 352.19 36.03C352.99 36.03 353.81 36.67 353.77 37.73C353.72 39.27 352.95 40.64 351.38 41.23C350.96 41.39 350.87 41.02 351.16 40.83H351.17Z" fill="white"/>
<path d="M365.21 34.8101H361.19C360.95 34.8101 360.89 34.6701 360.65 33.9801H364.68C365 33.9801 365.14 33.8701 365.45 33.5301C365.8 33.8501 366.03 34.0701 366.03 34.2701C366.03 34.6501 365.76 34.8101 365.21 34.8101ZM361.24 36.0301H364.07C364.37 36.0301 364.52 35.9001 364.79 35.5701C365.17 35.9101 365.38 36.1101 365.38 36.3201C365.38 36.7001 365.08 36.8501 364.56 36.8501H361.81C361.55 36.8501 361.51 36.7101 361.23 36.0301H361.24ZM361.3 38.0201H364.05C364.34 38.0201 364.5 37.8801 364.75 37.5701C365.13 37.9101 365.34 38.1001 365.34 38.3101C365.34 38.6801 365.02 38.8401 364.51 38.8401H361.85C361.63 38.8401 361.58 38.6801 361.29 38.0201H361.3ZM365.21 41.0701V44.0601C365.21 44.7701 364.76 44.9901 364.04 44.9101V44.1701H362.58V44.2801C362.58 45.0601 362.13 45.2901 361.41 45.2201V39.7601L362.31 39.9701C362.45 40.0001 362.57 40.1001 362.58 40.1601H363.41C363.7 40.1601 363.84 40.0201 364.03 39.7601L364.99 40.0801C365.65 40.3001 365.2 40.6901 365.2 41.0601L365.21 41.0701ZM362.16 31.2101C362.1 31.0301 362.22 30.8901 362.42 31.0001C363.04 31.3501 363.6 31.8501 363.84 32.3001C364.37 33.2801 363.36 34.2701 362.85 33.0701C362.66 32.6201 362.29 31.6001 362.16 31.2101ZM364.04 43.3501V40.9801H362.58V43.3501H364.04ZM375.19 44.7701L374.58 45.1101C374.2 45.3201 374.13 45.3501 373.64 45.0601C373.29 44.8501 372.73 44.5201 371.94 43.7301C371.33 43.1201 370.55 41.8601 370.24 40.7001H369.82C369.63 40.9601 369.4 41.2001 369.18 41.4201V43.6601C369.76 43.4001 370.24 43.1601 370.72 42.9201C370.91 42.8201 371.06 43.0601 370.91 43.1801C370.19 43.7401 368.77 44.7801 367.74 45.4201C367.44 45.6101 367.29 45.4801 366.48 44.6801C367.07 44.4901 367.58 44.3001 368.03 44.1201V42.3701C367.21 42.9101 366.24 43.3601 365.58 43.5501C365.32 43.6301 365.21 43.3701 365.45 43.2501C366.17 42.8701 367.1 42.1601 367.74 41.5501C368 41.3101 368.27 40.9901 368.51 40.6901H366.19C365.97 40.6901 365.92 40.5601 365.65 39.9701H368.16V39.2501H367.1C366.88 39.2501 366.81 39.1501 366.56 38.5601H368.16V37.8101H366.54C366.3 37.8101 366.25 37.7101 366 37.1201H368.16V36.3001L369.09 36.4601C369.25 36.4901 369.33 36.5601 369.33 36.6201V37.1201H370.96V36.3501C370.9 36.3501 370.82 36.3501 370.74 36.3301V33.5301L371.52 33.7101C371.66 33.7401 371.74 33.8201 371.74 33.8501V33.8701H372.44C372.66 33.8701 372.78 33.7901 372.94 33.5801L373.74 33.8201C374.32 34.0001 373.96 34.3001 373.96 34.5701V35.7501C373.96 36.3101 373.5 36.4902 372.94 36.3902V35.9901H371.68C371.57 36.2301 371.31 36.3401 370.96 36.3401L371.9 36.5201C372.06 36.5501 372.12 36.6301 372.12 36.7101V37.1101H373.16C373.42 37.1101 373.58 37.0001 373.82 36.7301C374.12 37.0201 374.33 37.1602 374.33 37.3902C374.33 37.6902 374.06 37.8101 373.58 37.8101H372.12V38.5601H372.82C373.11 38.5601 373.25 38.4301 373.48 38.1801C373.8 38.4701 373.99 38.6301 373.99 38.8201C373.99 39.1201 373.75 39.2501 373.25 39.2501H372.11V39.9701H373.95C374.24 39.9701 374.37 39.8401 374.62 39.5401C374.92 39.8601 375.15 40.0501 375.15 40.2401C375.15 40.5601 374.86 40.6901 374.38 40.6901H370.92C371.16 41.2701 371.5 41.7901 371.86 42.2401C372.4 41.8101 373 41.2601 373.32 40.8301L373.91 41.3401C374.18 41.5601 374.18 41.6801 373.99 41.7901C373.72 41.9501 372.89 42.3301 372.2 42.6101C372.26 42.6601 372.31 42.7201 372.38 42.7701C373.24 43.5501 374.09 44.0801 375.13 44.5201C375.29 44.5801 375.27 44.7001 375.16 44.7601L375.19 44.7701ZM365.64 32.4601H370.11C370.11 32.4601 370.01 32.3601 369.97 32.3001C369.65 31.8801 369.41 31.5001 369.15 31.1501C369.05 31.0201 369.13 30.8101 369.34 30.8801C370.04 31.0701 370.48 31.2001 370.84 31.5501C371.13 31.8201 371.08 32.2401 370.87 32.4601H373.83C374.1 32.4601 374.25 32.3301 374.49 32.0601C374.81 32.3601 375.03 32.5201 375.03 32.7301C375.03 33.0501 374.76 33.2301 374.26 33.2301H366.22C365.98 33.2301 365.9 33.0701 365.63 32.4601H365.64ZM368.9 36.4001V36.0301H367.64C367.58 36.4801 367.18 36.7001 366.62 36.5901V33.5501L367.44 33.7301C367.6 33.7601 367.65 33.8301 367.65 33.8701V33.8902H368.42C368.64 33.8902 368.76 33.7801 368.92 33.6001V33.5801H368.95L369.7 33.8001C370.28 33.9601 369.92 34.3401 369.92 34.6001V35.7401C369.92 36.3301 369.49 36.4601 368.91 36.4001H368.9ZM368.9 35.3902V34.5301H367.64V35.3902H368.9ZM369.33 38.5701H370.96V37.8201H369.33V38.5701ZM369.33 39.9801H370.96V39.2601H369.33V39.9801ZM371.75 34.5301V35.3801H372.95V34.5301H371.75Z" fill="white"/>
<path d="M391 43.38L390.06 43.89C389.77 44.05 389.64 44.07 389.13 43.73C387.85 42.88 386.62 41.63 385.66 40.34C385.69 40.44 385.71 40.5299 385.72 40.6099C386.18 42.8499 385.4 44.7199 384.73 45.2699C384.19 45.7199 383.8 45.65 383.45 45.29C383.15 44.97 382.86 44.76 382.28 44.44C382.14 44.36 382.18 44.2 382.38 44.22C383.6 44.32 383.71 44.35 383.96 44.04C384.42 43.48 384.7 42.02 384.57 40.84C384.06 41.38 383.39 41.99 382.68 42.47C381.3 43.4 379.75 44.39 377.41 44.98C377.09 45.06 377.06 44.77 377.25 44.68C379.11 43.78 380.56 42.89 382.02 41.65C382.92 40.9 383.65 40.1599 384.24 39.4899C384.16 39.1999 384.05 38.93 383.92 38.66C382.82 39.7 380.58 41.41 377.81 42.1C377.57 42.16 377.51 41.89 377.67 41.81C379.5 40.85 380.33 40.2599 381.5 39.3299C382.17 38.7899 382.83 38.15 383.31 37.62C383.17 37.44 383.02 37.27 382.86 37.09C382.68 37.23 382.49 37.39 382.27 37.54C381.05 38.39 379.48 39.1099 377.96 39.4899C377.67 39.5699 377.66 39.28 377.82 39.2C379.08 38.58 380.12 37.94 380.97 37.28C381.77 36.66 382.27 36.21 382.64 35.81H379.98C379.72 35.81 379.64 35.6699 379.36 34.9899H386.77C387.11 34.9899 387.23 34.86 387.56 34.51C387.94 34.88 388.17 35.01 388.17 35.26C388.17 35.63 387.88 35.7999 387.29 35.7999H384.17C383.96 36.0599 383.71 36.34 383.39 36.63C383.9 37.05 384.3 37.46 384.61 37.88C384.77 38.1 384.93 38.33 385.12 38.57C386.37 37.85 387.7 36.95 388.43 36.14L389.09 36.75C389.44 37.09 389.39 37.18 389.15 37.31C388.56 37.65 386.93 38.4299 385.47 38.9899C385.66 39.2099 385.87 39.45 386.09 39.68C387.27 40.91 388.84 42.19 390.96 43.14C391.15 43.22 391.17 43.3 391.02 43.38H391ZM377.72 34.35C378.14 33.97 378.76 33.25 379.1 32.38C379.16 32.2 379.44 32.24 379.44 32.4V32.82H384.19C384.08 32.76 383.95 32.64 383.82 32.48C383.5 32.1 383.21 31.65 382.86 31.2C382.72 31.01 382.84 30.88 383.05 30.93C383.88 31.12 384.44 31.31 384.83 31.67C385.21 32.02 385.15 32.58 384.86 32.82H388.93C389.3 32.82 389.54 32.77 389.83 32.5L390.47 33.16C390.76 33.45 390.69 33.58 390.53 33.7C389.92 34.18 389.31 34.69 388.91 34.95C388.75 35.06 388.56 34.95 388.65 34.76C388.83 34.44 389.03 33.99 389.18 33.64H379.35C379.29 34.01 379.21 34.3399 379.09 34.5799C378.35 36.1999 376.8 35.1899 377.71 34.3599L377.72 34.35Z" fill="white"/>
<path d="M406.04 33.1299V44.5099C406.04 45.2199 405.34 45.4699 404.73 45.3099V43.42H395.43V44.4899C395.43 45.1899 394.82 45.4999 394.12 45.3399V31.7299L395.14 31.92C395.38 31.97 395.43 32.0599 395.43 32.1599H403.87C404.22 32.1599 404.51 31.98 404.73 31.7L405.83 32.0399C406.55 32.2599 406.04 32.7299 406.04 33.1299ZM404.73 42.4999V33.0599H395.43V42.4999H404.73ZM402.92 36.0799V40.0199C402.92 40.7599 402.28 40.9799 401.66 40.7899V40.0199H398.6V40.1799C398.6 40.8399 398.02 41.1699 397.34 41.0099V34.7199L398.33 34.9099C398.57 34.9599 398.6 35.0699 398.6 35.1499H400.94C401.26 35.1499 401.44 35.0099 401.66 34.7499L402.68 35.0699C403.37 35.2799 402.92 35.7599 402.92 36.0799ZM401.65 39.1499V35.9999H398.59V39.1499H401.65Z" fill="white"/>
<path d="M415.16 42.6201C414.39 43.1301 411.21 44.3801 410.21 44.7501C409.83 44.8901 409.71 44.9101 409.43 44.5901L408.84 43.9301C409.16 43.8701 409.5 43.8001 409.86 43.7201V40.1001L410.74 40.2901C410.92 40.3201 410.98 40.4201 410.98 40.5301V43.4601L411.75 43.2701V38.7401H411C410.94 39.3301 410.36 39.5201 409.82 39.4301V31.9901L410.76 32.1701C410.94 32.2001 411 32.2701 411 32.3601V32.3801H411.34C411.52 31.9001 411.64 31.4501 411.77 30.8401L412.52 31.2201C412.82 31.3801 412.87 31.4801 412.66 31.7001C412.45 31.9101 412.26 32.1501 412.05 32.3701H412.72C412.98 32.3701 413.12 32.2901 413.33 32.0501L414.35 32.3901C414.81 32.5501 414.49 32.9201 414.49 33.1601V34.8401C414.49 35.3801 413.88 35.5901 413.32 35.4801V35.0501H410.98V36.1101H412.77C413.04 36.1101 413.2 36.0101 413.38 35.7901L414.32 36.0901C414.86 36.2701 414.53 36.6001 414.53 36.9401V38.4601C414.53 39.0401 413.94 39.2601 413.38 39.1501V38.7501H412.9V40.4001H413.91C414.15 40.4001 414.29 40.2701 414.55 39.9801C414.87 40.2801 415.09 40.5101 415.09 40.6801C415.09 41.0201 414.82 41.1601 414.32 41.1601H412.9V42.9701C413.7 42.7501 414.42 42.5401 414.95 42.3601C415.13 42.3001 415.33 42.4901 415.14 42.6201H415.16ZM411 33.1301V34.3001H413.34V33.1301H411ZM411 36.8601V38.0001H413.4V36.8601H411ZM422.86 37.5801C422.32 38.1201 421.87 38.4601 421.5 38.7501C421.36 38.8601 421.16 38.7701 421.23 38.5901C421.34 38.2701 421.5 37.8901 421.6 37.5801H419.45V39.1501H420.12C420.39 39.1501 420.52 39.0401 420.73 38.8101L421.66 39.1301C422.28 39.3401 421.9 39.7401 421.9 39.9801V43.2901C421.9 43.8701 421.4 44.3601 420.84 43.9901C420.41 43.7001 420.02 43.4601 419.66 43.3001C419.55 43.2501 419.53 43.0601 419.71 43.0601C420.19 43.0601 420.56 43.0901 420.69 43.0301C420.75 43.0001 420.74 42.9301 420.74 42.8901V39.9401H419.46V44.7401C419.46 45.3501 418.88 45.5901 418.28 45.4601V39.9401H417.1V43.1701C417.1 43.8401 416.54 44.0501 415.93 43.9101V38.8801C415.23 39.5401 414.33 38.7501 415.19 37.9801C415.65 37.6001 415.97 37.1601 416.25 36.4001C416.31 36.2201 416.57 36.2701 416.57 36.4201V36.7901H421.48C421.75 36.7901 421.91 36.6901 422.14 36.4501L422.73 36.9801C423.08 37.2801 423.03 37.4101 422.87 37.5701L422.86 37.5801ZM423.19 33.6001C423.19 33.9501 422.89 34.1101 422.39 34.1101H421.61V35.5301C421.61 36.1701 421.02 36.3001 420.41 36.2201V35.7101H416.68C416.36 35.7101 416.31 35.4901 416.1 34.9201H420.41V34.1001H415.7C415.46 34.1001 415.38 33.9201 415.11 33.3201H420.41V32.4701H416.68C416.39 32.4701 416.31 32.2601 416.1 31.6801H419.7C419.99 31.6801 420.21 31.6201 420.41 31.3401L421.35 31.6401C422.01 31.8501 421.61 32.1001 421.61 32.4901V33.3101H421.91C422.18 33.3101 422.36 33.1801 422.63 32.8601C422.95 33.1801 423.19 33.3401 423.19 33.5801V33.6001ZM418.26 37.5801H416.48C416.46 37.6901 416.45 37.8001 416.42 37.9201C416.32 38.3001 416.18 38.5801 416.02 38.7801L416.8 38.9401C416.98 38.9901 417.06 39.0501 417.07 39.1501H418.25V37.5801H418.26Z" fill="white"/>
<path d="M439.05 37.5699C439.05 37.9999 438.75 38.1599 438.09 38.1599H435.48C435.16 39.4099 434.54 40.9099 433.65 41.9699C434.99 42.5099 436.15 43.0699 436.96 43.6399C438.16 44.4599 437.94 46.2599 436.22 44.9499C435.28 44.2299 434.01 43.4499 432.83 42.7899C431.45 44.0199 429.24 45.1899 425.93 45.4299C425.55 45.4599 425.61 45.1399 425.8 45.0899C428.54 44.3199 430.47 43.3799 431.74 42.2199C430.84 41.7599 430.06 41.3899 429.44 41.1499C429.12 41.6299 428.9 41.7399 428.58 41.7699C428.31 41.7999 427.99 41.6599 427.65 41.4699C428.23 40.7699 428.9 39.4999 429.52 38.1599H425.61C425.27 38.1599 425.19 38.0299 424.91 37.2799H429.9C430.36 36.1799 430.76 35.0899 431 34.2499L431.78 34.5999C432.18 34.7799 432.23 34.9199 432.15 35.1599C431.96 35.7399 431.67 36.4699 431.33 37.2699H437.56C437.86 37.2699 438.02 37.0899 438.36 36.7099C438.78 37.1299 439.03 37.2999 439.03 37.5599L439.05 37.5699ZM425.8 34.5699C426.36 33.9899 426.97 33.3099 427.22 32.4699C427.27 32.2899 427.56 32.3299 427.56 32.4899V32.9099H432.06C431.93 32.8299 431.79 32.6999 431.64 32.5099C431.34 32.1099 430.98 31.5999 430.65 31.1799C430.51 30.9999 430.62 30.8599 430.83 30.9099C431.68 31.0999 432.27 31.2899 432.69 31.6799C433.09 32.0599 433.04 32.6599 432.74 32.9099H436.44C436.81 32.9099 436.97 32.7799 437.24 32.5399L438.01 33.1799C438.36 33.4799 438.33 33.6399 438.12 33.8199C437.56 34.2999 436.71 35.0499 436.26 35.3599C436.1 35.4699 435.89 35.3599 436 35.1499C436.18 34.8099 436.42 34.2699 436.61 33.7899H427.5C427.45 34.2099 427.37 34.5899 427.24 34.8599C426.49 36.3499 425.05 35.3599 425.8 34.5699ZM434.05 38.1599H430.98C430.56 39.0699 430.13 39.9699 429.75 40.6399C430.44 40.8299 431.37 41.0999 432.44 41.4899C433.02 40.7699 433.67 39.5799 434.06 38.1599H434.05Z" fill="white"/>
<path d="M446.92 36.9901H441.29C441.08 36.9901 441.02 36.8001 440.75 36.1901H443.58V35.2601H441.87C441.65 35.2601 441.61 35.1201 441.33 34.4901H443.59V33.5101H441.49C441.3 33.5101 441.23 33.3301 440.95 32.7401H443.59V31.0801L444.55 31.2701C444.73 31.3001 444.82 31.4101 444.82 31.5401V32.7401H446.1C446.4 32.7401 446.53 32.6101 446.79 32.3101C447.11 32.6301 447.33 32.8101 447.33 33.0101C447.33 33.3301 447.04 33.5101 446.56 33.5101H444.81V34.4901H445.77C446.04 34.4901 446.19 34.3501 446.44 34.0401C446.81 34.3601 447.02 34.5401 447.02 34.7601C447.02 35.1001 446.73 35.2601 446.22 35.2601H444.81V36.1901H446.48C446.75 36.1901 446.88 36.0501 447.15 35.7401C447.49 36.0401 447.73 36.2801 447.73 36.4601C447.73 36.8301 447.44 36.9901 446.93 36.9901H446.92ZM446.69 38.7501V44.5301C446.69 45.1201 446.15 45.7501 445.47 45.3101C444.97 44.9901 444.09 44.5601 443.74 44.4501C443.53 44.3901 443.58 44.2101 443.79 44.2101C444.27 44.2301 445.28 44.2901 445.41 44.1901C445.47 44.1401 445.47 44.0801 445.47 44.0001V42.4601H443.12C443.07 42.7201 443.02 42.9601 442.96 43.2101C442.77 43.9601 442.21 44.9401 441.44 45.4501C441.25 45.5801 441.09 45.4001 441.2 45.2301C441.42 44.8601 441.76 44.0601 441.87 43.3201C441.97 42.7001 442 42.0601 442.01 41.0801C442.03 40.2001 442.01 38.6201 442.01 37.4801L442.97 37.6901C443.15 37.7201 443.24 37.8301 443.24 37.8801H444.76C445.08 37.8801 445.22 37.7701 445.46 37.5101L446.45 37.8301C447.12 38.0401 446.67 38.4501 446.67 38.7401L446.69 38.7501ZM445.48 41.6501V40.5801H443.26C443.26 40.9601 443.24 41.3201 443.23 41.6501H445.49H445.48ZM443.25 38.6901V39.7801H445.47V38.6901H443.25ZM455.29 38.5401C455.29 38.9101 455 39.0501 454.52 39.0501H453.86V41.2601C453.86 41.9001 453.25 42.0901 452.64 41.9601V41.3001H451.26V44.5501C451.26 45.3201 450.54 45.7501 449.98 45.3701C449.56 45.0801 448.65 44.7001 448.22 44.5201C448.06 44.4601 448.08 44.2801 448.25 44.2801C448.63 44.3001 449.85 44.3401 449.96 44.3001C450.04 44.2701 450.02 44.2401 450.02 44.1701V41.3001H448.18C447.96 41.3001 447.89 41.0401 447.65 40.4801H450.02V39.0401H447.83C447.61 39.0401 447.53 38.8801 447.22 38.2401H450.02V36.8301H448.44C448.17 36.8301 448.09 36.5901 447.9 36.0301H451.95C452.29 36.0301 452.45 35.9001 452.64 35.6501L453.65 35.9901C454.24 36.1801 453.86 36.6501 453.86 36.9301V38.2401H454.08C454.35 38.2401 454.48 38.1101 454.75 37.8201C455.04 38.1101 455.28 38.3001 455.28 38.5301L455.29 38.5401ZM447.73 32.6501C450.07 32.1901 451.59 31.7901 453.08 31.0801L453.5 31.5901C453.84 32.0101 453.87 32.1201 453.34 32.2601C452.11 32.6001 449.24 33.0001 447.75 32.9601C447.57 32.9601 447.48 32.6901 447.73 32.6401V32.6501ZM449.62 34.5701C450.1 35.4201 449.14 36.4401 448.74 35.2301C448.61 34.8501 448.23 33.9001 448.1 33.5501C448.05 33.4101 448.15 33.2301 448.34 33.3601C448.72 33.6301 449.32 34.0301 449.62 34.5801V34.5701ZM451.58 34.6401C451.77 35.5201 450.81 36.1301 450.57 35.0101C450.49 34.6301 450.28 33.7101 450.11 33.1901C450.06 33.0501 450.21 32.9201 450.4 33.0601C450.82 33.4001 451.44 34.0001 451.58 34.6401ZM451.27 38.2601H452.65V36.8501H451.27V38.2601ZM452.65 39.0601H451.27V40.5001H452.65V39.0601ZM453.62 33.0201C454 33.2401 454.04 33.3401 453.88 33.5801C453.42 34.2701 452.82 35.0701 452.21 35.6801C452.07 35.8201 451.83 35.7401 451.95 35.4901C452.24 34.8801 452.69 33.4401 452.89 32.5901L453.61 33.0201H453.62Z" fill="white"/>
<path d="M471.21 41.89C470.14 42.53 470.04 42.58 469.3 42.02C468.72 41.59 468.04 41 467.41 40.24C466.59 39.26 465.41 37.62 464.75 35.89V41.01H466.11C466.41 41.01 466.61 40.82 466.93 40.45C467.33 40.82 467.62 40.99 467.62 41.31C467.62 41.68 467.27 41.87 466.64 41.87H464.75V44.59C464.75 45.41 464.13 45.6 463.44 45.47V41.87H460.94C460.62 41.87 460.56 41.66 460.23 41.01H463.43V36.16C463.03 37.15 462.41 38.21 461.64 39.15C460.34 40.73 458.61 42.21 456.97 42.98C456.71 43.09 456.62 42.82 456.76 42.71C458.33 41.46 459.96 39.8 461.1 38.02C461.79 36.98 462.3 35.92 462.65 34.87H458.06C457.76 34.87 457.69 34.69 457.4 34.01H463.44V31L464.46 31.21C464.67 31.26 464.75 31.39 464.75 31.43V34.01H469.17C469.46 34.01 469.67 33.83 469.92 33.55C470.27 33.87 470.54 34.09 470.54 34.34C470.54 34.68 470.22 34.88 469.69 34.88H465.1C465.47 35.79 466.17 37.04 467.2 38.32C468.29 39.7 469.73 40.9 471.12 41.65C471.293 41.7433 471.32 41.83 471.2 41.91L471.21 41.89Z" fill="white"/>
<path d="M473.11 37.5999C472.92 37.6599 472.82 37.4099 472.95 37.3099C473.99 36.4599 474.26 35.6599 474.44 34.8099C474.58 34.0399 474.54 32.7299 474.54 31.6599L475.47 31.8499C475.68 31.8999 475.76 31.9899 475.79 32.1099C476.89 31.8499 477.93 31.5299 478.85 30.9599L479.49 31.5699C479.76 31.8299 479.71 31.9399 479.49 32.0199C478.55 32.3699 477.25 32.56 475.81 32.64C475.81 32.94 475.81 33.2299 475.79 33.5199H478.9C479.14 33.5199 479.32 33.4099 479.57 33.0899C479.92 33.4299 480.13 33.6199 480.13 33.8299C480.13 34.1699 479.84 34.3299 479.31 34.3299H478.41V35.8499C478.41 36.4599 477.79 36.6299 477.16 36.5199V34.3299H475.74C475.69 34.6999 475.61 35.0299 475.5 35.3099C475.07 36.3299 474.28 37.2199 473.12 37.6199L473.11 37.5999ZM479.13 43.89C478.57 44.23 476.49 45.1499 473.9 45.4099C473.61 45.4399 473.64 45.1499 473.82 45.0899C475.85 44.3899 477.52 43.5899 478.45 42.8299L479.04 43.39C479.38 43.71 479.3 43.79 479.14 43.89H479.13ZM483.16 43.1899V42.6799H477.14C477.12 43.3399 476.45 43.5599 475.83 43.4699V36.64L476.89 36.8499C477.05 36.8799 477.15 36.9799 477.15 37.0399H482.48C482.78 37.0399 482.98 36.9299 483.17 36.6899L484.26 37.0099C484.87 37.1899 484.48 37.5899 484.48 37.8299V42.42C484.48 43.14 483.87 43.32 483.17 43.2L483.16 43.1899ZM477.14 37.7699V38.67H483.16V37.7699H477.14ZM477.14 40.2999H483.16V39.42H477.14V40.2999ZM483.16 41.8999V41.0499H477.14V41.8999H483.16ZM486.71 33.8199C486.71 34.1699 486.44 34.3199 485.91 34.3199H484.5V35.7C484.5 36.31 483.86 36.5 483.25 36.39V34.3299H481.75C481.73 34.4599 481.7 34.57 481.69 34.67C481.4 35.69 480.49 36.4499 479.42 36.7699C479.21 36.8299 479.08 36.61 479.28 36.4799C480.06 35.9799 480.38 35.2599 480.51 34.4899C480.59 33.9799 480.61 32.8299 480.61 31.7499L481.52 31.9399C481.79 31.9899 481.84 32.0499 481.86 32.1799C483 31.8899 484.04 31.5599 485 30.9299L485.62 31.5699C485.89 31.8399 485.84 31.9999 485.62 32.0499C484.64 32.2699 483.35 32.5299 481.86 32.6899C481.86 32.9899 481.84 33.2699 481.83 33.5199H485.48C485.72 33.5199 485.9 33.4099 486.15 33.0899C486.5 33.4299 486.73 33.5999 486.73 33.8299L486.71 33.8199ZM484.65 45.2199C483.37 44.4499 482.38 44.0399 481.24 43.4699C481.05 43.3699 481.11 43.1499 481.38 43.1799C483.2 43.4199 484.49 43.7199 485.24 44.1099C486.58 44.7999 486.17 46.1299 484.65 45.2099V45.2199Z" fill="white"/>
<path d="M494.18 38.3C494.18 37.16 495.08 36.27 496.21 36.27C497.34 36.27 498.24 37.17 498.24 38.3C498.24 39.43 497.34 40.33 496.21 40.33C495.08 40.33 494.18 39.43 494.18 38.3ZM497.46 38.3C497.46 37.61 496.9 37.05 496.21 37.05C495.52 37.05 494.96 37.61 494.96 38.3C494.96 38.99 495.52 39.55 496.21 39.55C496.9 39.55 497.46 38.99 497.46 38.3Z" fill="white"/>
</svg>
