<svg width="80" height="419" viewBox="0 0 80 419" fill="none" xmlns="http://www.w3.org/2000/svg">
<path d="M3.03326 418.297H2.14856V373.135H14.0709V373.851C7.68846 373.851 4.50776 378.106 4.50776 386.595V402.393H38.9057V388.512C38.9057 385.774 38.4634 383.309 37.5787 381.16C36.694 378.991 34.6507 377.769 31.449 377.453V376.674H48.6164V377.453C46.6574 377.769 45.1618 378.338 44.1086 379.201C43.0554 380.065 42.3603 380.908 42.0232 381.75C41.6862 382.593 41.5177 383.33 41.5177 383.983C41.3071 385.226 41.2017 386.511 41.2017 387.838V402.393H68.1008C70.123 402.393 71.8713 402.014 73.3458 401.235C74.8203 400.455 75.5576 398.665 75.5576 395.863V384.594C75.5576 381.877 75.1574 379.665 74.378 377.917C73.5986 376.168 72.4822 374.778 71.0919 373.767C69.6806 372.756 67.9955 371.913 65.9944 371.218V370.502L77.8746 373.135V418.297H77.0531V417.265C77.0531 415.664 76.4001 414.084 75.0942 412.525C73.7882 410.987 71.6607 410.208 68.7117 410.208H11.6907C9.35254 410.208 7.33037 410.735 5.62417 411.788C3.91796 412.841 3.05432 414.653 3.05432 417.265V418.297H3.03326Z" fill="black"/>
<path d="M2.16962 286.076H3.05432C3.28603 287.993 3.66519 289.51 4.14967 290.626C4.65521 291.742 5.62417 292.606 7.0776 293.217C8.53104 293.828 10.6375 294.144 13.3758 294.144H79.8126V294.649L14.9135 352.808H61.5077C65.3835 352.808 68.2693 352.66 70.144 352.344C72.0398 352.028 73.3879 351.586 74.2095 351.017C75.9999 349.753 76.9478 347.542 77.0953 344.382H77.9168V363.361H77.0953C76.9899 361.234 76.5476 359.591 75.7261 358.39C74.9256 357.21 73.4511 356.368 71.3026 355.862C69.154 355.357 65.9312 355.125 61.613 355.125H12.1962L9.37361 357.653C6.84589 359.885 5.22394 361.655 4.57095 363.003C3.91796 364.351 3.39135 365.994 3.05432 367.995H2.16962V353.756L66.3525 296.461H17.4412C13.776 296.461 11.0377 296.608 9.20509 296.903C7.39356 297.198 5.94013 297.956 4.82372 299.22C3.72838 300.463 3.11752 302.443 3.03326 305.118H2.14856V286.097L2.16962 286.076Z" fill="black"/>
<path d="M17.9046 209.593V210.414C12.9756 211.51 9.1419 214.417 6.40354 219.156C3.66518 223.895 2.31707 229.288 2.31707 235.354C2.31707 238.514 2.80155 241.884 3.79157 245.507C4.76053 249.131 6.55099 252.648 9.12083 256.082C11.6907 259.515 15.4191 262.359 20.306 264.613C25.1929 266.867 31.3436 268.004 38.7372 268.004C50.5332 268.004 59.97 265.245 67.0265 259.747C74.0831 254.249 77.6219 245.402 77.6219 233.248C77.6219 228.445 77.3059 224.907 76.6529 222.653C75.9999 220.399 75.1152 218.945 73.9777 218.313C72.8403 217.682 71.3237 217.366 69.4068 217.366H55.5254C52.2394 217.366 50.0487 218.082 48.9955 219.493C47.9423 220.904 47.2261 223.053 46.8891 225.897H46.0044V201.272H46.8891C47.1208 203.526 47.6263 205.275 48.3636 206.517C49.1008 207.76 50.0487 208.582 51.2073 208.982C52.3658 209.403 53.9246 209.593 55.8414 209.593H76.9267C78.9489 217.134 79.96 224.928 79.96 232.932C79.96 237.082 79.623 241.189 78.9279 245.213C78.2327 249.257 76.7161 253.47 74.3569 257.872C71.9977 262.254 68.501 266.129 63.8669 269.5C56.9157 274.534 49.0376 277.062 40.2538 277.062C35.1563 277.062 30.164 276.114 25.3403 274.218C20.5166 272.322 16.1774 269.563 12.3647 265.982C8.5521 262.401 5.51884 258.02 3.30709 252.838C1.09534 247.656 0 241.927 0 235.607C0 233.164 0.168514 230.784 0.484478 228.466C0.800443 226.128 1.4745 222.653 2.46452 218.019C2.88581 216.207 3.07538 214.901 3.07538 214.101C3.07538 212.415 2.23281 211.194 0.547671 210.393V209.572H17.9257L17.9046 209.593Z" fill="black"/>
<path d="M1.24268 162.136L66.1417 139.449C69.512 138.249 71.9344 137.111 73.451 136.058C74.9676 135.005 75.9155 133.973 76.2947 133.004C76.6949 132.035 76.9477 130.792 77.0951 129.275H77.9166V154.005H77.0951C77.0951 151.477 76.8634 149.518 76.3789 148.149C75.8945 146.78 74.5885 146.085 72.461 146.085C71.3025 146.085 69.7437 146.422 67.7847 147.054C67.5109 147.201 67.3002 147.264 67.1739 147.264L47.0575 154.005V180.23L65.6783 186.254C68.206 187.076 70.2492 187.497 71.808 187.497C73.9355 187.497 75.3468 186.97 76.0419 185.896C76.737 184.843 77.0951 183.326 77.0951 181.367H77.9166V199.167H77.0951C76.8634 196.639 75.8945 194.596 74.1883 193.079C72.4821 191.562 69.9122 190.235 66.4577 189.098L1.24268 167.697V162.136ZM44.3402 179.366V155.248L8.38347 167.591V167.802L44.3402 179.366Z" fill="black"/>
<path d="M17.9046 60.8155V61.637C12.9756 62.7324 9.1419 65.6392 6.40354 70.3787C3.66518 75.1182 2.31707 80.5106 2.31707 86.5771C2.31707 89.7368 2.80155 93.1071 3.79157 96.7301C4.76053 100.353 6.55099 103.871 9.12083 107.304C11.6907 110.738 15.4191 113.582 20.306 115.835C25.1929 118.089 31.3436 119.227 38.7372 119.227C50.5332 119.227 59.97 116.467 67.0265 110.97C74.0831 105.472 77.6219 96.6248 77.6219 84.4707C77.6219 79.668 77.3059 76.1292 76.6529 73.8754C75.9999 71.6215 75.1152 70.168 73.9777 69.5361C72.8403 68.9042 71.3237 68.5882 69.4068 68.5882H55.5254C52.2394 68.5882 50.0487 69.3044 48.9955 70.7157C47.9423 72.127 47.2261 74.2756 46.8891 77.1193H46.0044V52.4951H46.8891C47.1208 54.749 47.6263 56.4973 48.3636 57.7401C49.1008 58.9829 50.0487 59.8044 51.2073 60.2046C52.3658 60.6259 53.9246 60.8155 55.8414 60.8155H76.9267C78.9489 68.3565 79.96 76.1503 79.96 84.1547C79.96 88.3044 79.623 92.4119 78.9279 96.4352C78.2327 100.48 76.7161 104.692 74.3569 109.095C71.9977 113.476 68.501 117.352 63.8669 120.722C56.9157 125.757 49.0376 128.284 40.2538 128.284C35.1563 128.284 30.164 127.336 25.3403 125.441C20.5166 123.545 16.1774 120.786 12.3647 117.205C8.5521 113.624 5.51884 109.242 3.30709 104.06C1.09534 98.8787 0 93.1492 0 86.8299C0 84.3864 0.168514 82.0062 0.484478 79.6891C0.800443 77.351 1.4745 73.8754 2.46452 69.2412C2.88581 67.4297 3.07538 66.1237 3.07538 65.3233C3.07538 63.6381 2.23281 62.4164 0.547671 61.6159V60.7944H17.9257L17.9046 60.8155Z" fill="black"/>
<path d="M3.03326 47.9662H2.14856V2.82542H14.0709V3.5416C7.73059 3.5416 4.52882 7.79659 4.52882 16.2855V32.0837H38.9268V18.2023C38.9268 15.464 38.4844 12.9995 37.5997 10.8509C36.715 8.68129 34.6718 7.45956 31.47 7.14359V6.36422H48.6374V7.14359C46.6784 7.45956 45.1829 8.02829 44.1297 8.89193C43.0765 9.75557 42.3813 10.5981 42.0443 11.4407C41.7073 12.2833 41.5388 13.0205 41.5388 13.6735C41.3281 14.9163 41.2228 16.2012 41.2228 17.5283V32.0837H68.1219C70.1441 32.0837 71.8924 31.7045 73.3669 30.9252C74.8414 30.1458 75.5786 28.3553 75.5786 25.5538V14.2844C75.5786 11.5671 75.1784 9.35534 74.399 7.60701C73.6197 5.85867 72.5032 4.46843 71.113 3.45735C69.7017 2.44626 68.0166 1.60369 66.0155 0.908568V0.192383L77.8957 2.82542V47.9872H77.0742V46.9551C77.0742 45.3542 76.4212 43.7744 75.1152 42.2156C73.8092 40.6779 71.6817 39.8985 68.7327 39.8985H11.6907C9.35254 39.8985 7.33037 40.4252 5.62417 41.4784C3.91796 42.5316 3.05432 44.3431 3.05432 46.9551V47.9872L3.03326 47.9662Z" fill="black"/>
</svg>
