<?xml version="1.0" encoding="UTF-8"?>
<svg id="_圖層_1" data-name="圖層_1" xmlns="http://www.w3.org/2000/svg" version="1.1" viewBox="0 0 420 15">
  <!-- Generator: Adobe Illustrator 29.4.0, SVG Export Plug-In . SVG Version: 2.1.0 Build 152)  -->
  <defs>
    <style>
      .st0 {
        fill: #fff;
      }
    </style>
  </defs>
  <path class="st0" d="M160.4,13.6c3.9-2.3,7.7-6.8,8.9-10.4h0c0,0,0-.2-.2-.2-.3,0-2.9.3-4.4.6-.4,0-.5,0-.7.3-.1.1-.3.2-.5.2-.6,0-1.5-.9-1.5-1.6s.3-.7.4-.7c.1.9,1,.9,1.7.9s3.6-.2,4.8-.4c.3,0,.3,0,.5-.2.2-.2.3-.3.5-.3.3,0,1.5.9,1.5,1.2s-.2.3-.5.4c-.2,0-.4.3-.4.4-.5,1-1.7,3.1-2.7,4.3,1.5.7,3.3,1.9,4.2,2.7.7.7,1.3,1.4,1.3,2s-.3.9-.8.9-.7-.5-1.2-1.4c-.6-1-2.3-2.9-3.8-3.9-1.5,1.8-4.1,4.1-6.9,5.4l-.2-.2h0Z"/>
  <path class="st0" d="M175.5,8.3c3-2.5,4.5-5.8,4.5-6.5s-.6-.6-1-.6c.1-.3.3-.5.8-.5s2.1.6,2.1,1.1-.2.3-.3.4c-.1,0-.3.2-.4.6-.1.3-.2.5-.4.8h.4c.5,0,2.3,0,3.2-.2.3,0,.4,0,.6-.3.1,0,.3-.3.4-.3.3,0,1.5,1,1.5,1.3s-.2.3-.4.4-.4.2-.5.4c-.4,1-1.3,2.7-1.9,3.6.6.4,1.7,1.1,1.7,1.9s-.3.7-.7.7-.7-.4-.9-.7-.6-.5-.9-.7c-1.4,1.8-4,3.8-7.2,4.9l-.2-.3c2.7-1.2,5.1-3.4,6.4-5.3-.8-.5-1.9-1.1-3.4-1.6v-.3c1.6.2,3.1.6,3.9,1,1.3-2,1.9-3.8,1.9-3.9s0,0-.1,0c-.6,0-3.3.5-3.7.5s-.5,0-.7-.2c-1.1,1.6-2.4,3.1-4.6,4.4v-.5h-.1Z"/>
  <path class="st0" d="M189.6,5.7c1.2.5,2.1,1.6,2.1,2.5s-.2.8-.6.8-.6-.2-.6-.6c-.1-.8-.5-1.8-1.2-2.5l.3-.2h0ZM191.5,14.3c5.3-2.6,6.5-7.7,6.5-8.2s-.5-.6-.9-.6c0,0,.3-.4.7-.4.7,0,1.7.8,1.7,1.2s-.1.3-.3.4c-.1,0-.1,0-.2.3-1.1,3.4-3.4,6.2-7.4,7.8v-.5h-.1ZM193.2,4.9c1.2.8,1.8,1.8,1.8,2.6s-.3,1-.6,1-.6-.2-.6-.7c0-.8-.1-1.8-.9-2.8h.3Z"/>
  <path class="st0" d="M203.4,14c5.5-2.1,7.8-6.8,8.7-10.6h0c0-.2-.1-.2-.2-.2-.2,0-6.4.4-7.5.8-.4.1-.4.2-.8.2-.6,0-1.5-1-1.5-1.7s.2-.6.4-.7h0c.1.3.3.7.6.8s.7.2,1.1.2c1.4,0,6.3-.2,7.3-.3.5,0,.7-.6,1-.6s1.7,1,1.7,1.3-.2.3-.4.4c-.2,0-.3.2-.4.4-1.3,4.3-3.7,8.5-9.9,10.3v-.3h-.1Z"/>
  <path class="st0" d="M224.4,6.5c.9,0,1.9,0,2.5-.2.7,0,1,0,1.5-.5.8,0,1.9.6,1.9,1s-.3.4-.8.4-1.2,0-1.8,0-.8,0-1.3,0-1.3,0-2.1,0c-.4,3.3-1.5,5.8-5.5,7.4l-.2-.3c3-1.7,4.2-4.1,4.4-7-.7,0-3.6.3-4.3.6-.3,0-.5.3-.7.3-.7,0-1.6-.8-1.6-1.4s.1-.6.3-.7h.1c.1.8.8.8,1.8.8s2.6-.2,4.4-.3c.1-.5.1-1,.1-1.5,0-1.1,0-1.4-.2-1.6-1.7.3-3.8.6-5.6.7v-.3c2.8-.5,5.9-1.3,7.4-1.9.6-.2.7-.3.7-.5s-.3-.3-.7-.4h0c0-.1.3-.3.6-.3.8,0,2.1.9,2.1,1.5s-.5.2-.9.3c-.7.2-1.6.4-2.5.6.3.2.5.4.5.6s-.1.3-.1.3c-.1.1-.1.3-.1.6v1.9h.1Z"/>
  <path class="st0" d="M242,7c1.1,0,1.7,0,1.9,0,.8,0,1.9.3,1.9.7s-.4.5-1,.5-3.4-.1-4.1-.1c-1.8,0-5.7,0-6.5.3-.2.1-.4.2-.7.2-.7,0-1.8-1.1-1.8-1.7s.1-.7.3-.9h.1c.2.9.9,1,2.5,1h7.4Z"/>
  <path class="st0" d="M255.7,7.8c2.6,1.3,4.8,3.8,4.8,5.1s-.2,1.1-.8,1.1-.7-.5-.9-1.2c-.1-.2-.1-.5-.2-.7-2.5.4-6.4,1-8.4,1.3-.5.1-.7.4-1.2.4s-1.5-1.1-1.5-1.7.1-.7.4-.8c.1.4.2.6.6.8.1.1.3.1.5.1h.7c1.3-3.4,2.8-8.9,2.8-9.7s-1-.8-1.2-.8h0c.1-.4.6-.7,1-.7.8,0,2.1.6,2.1,1.3s-.2.3-.4.4c-.1,0-.2.3-.3.5-.9,2.7-2.1,6-3.5,8.8,1.5-.1,5.6-.4,8-.6-.6-1.2-1.7-2.7-2.8-3.6h.3Z"/>
</svg>