<?xml version="1.0" encoding="UTF-8"?>
<svg id="_圖層_1" data-name="圖層_1" xmlns="http://www.w3.org/2000/svg" version="1.1" viewBox="0 0 688 46">
  <!-- Generator: Adobe Illustrator 29.4.0, SVG Export Plug-In . SVG Version: 2.1.0 Build 152)  -->
  <defs>
    <style>
      .st0 {
        fill: #fff;
      }
    </style>
  </defs>
  <path class="st0" d="M11.6,10.5v.8h2.3c.3,0,.4-.1.7-.5.3.3.6.5.6.8,0,.3-.3.5-.8.5h-2.7v2.5c0,.7-.8,1.1-1.3.6-.4-.3-1.3-.6-1.7-.8-.2,0-.1-.2,0-.2.4,0,1.5,0,1.5,0,0,0,0,0,0-.1v-2H1.9c-.3,0-.3-.2-.6-.8h8.9v-.9c-2.5,0-4.8-.2-6.1-2.1-.5.6-1,1.2-1.3,1.6-.5.6-.6.6-1.7-.2,1-.5,1.9-1.2,2.4-1.7v-1.3h-1.7c-.2,0-.3-.2-.5-.8h1.7c.3,0,.4-.1.6-.3l.9.3c.7.2.3.5.3.8v1.3c1.2,1.6,4.2,1.5,6.5,1.4,1.7,0,3.2-.2,3.9-.3.2,0,.2.1.2.2-.2.2-.4.5-.6.7-.2.2-.3.2-.7.3-.7,0-1.5.2-2.4.1ZM1.7,3.6c-.1-.1,0-.3.2-.3.6.2,1.3.3,1.8.8.6.6,0,1.7-.9.8s-.8-.9-1.2-1.4h0ZM2.5,1.5c-.1-.1,0-.3.2-.2.6.2,1.1.3,1.6.6.8.5,0,1.7-.7.9-.4-.5-.7-.8-1.1-1.3ZM7.1,13.4c.7.7-.2,1.8-1,.9-.4-.4-.9-1.2-1.2-1.7-.2-.2,0-.4.2-.3.9.3,1.7.7,2,1.1h0ZM5.1,2.6h3.2c0,0-.2-.1-.3-.3-.2-.3-.5-.8-.7-1.2,0-.2,0-.3.2-.2.7.2,1.3.4,1.6.8.2.3,0,.7-.2.9h1.7c.3-.5.6-1.3.9-1.8l.8.5c.2.1.3.3.1.4-.2.2-.7.6-1.1.9h2.3c.3,0,.5-.2.7-.4.3.3.5.5.5.7s-.3.4-.8.4h-3.8c-.2.2-.4.5-.7.7h2c.3,0,.4-.1.7-.4l1,.3c.6.2.2.5.2.8v3.6c0,.6-.6.7-1.2.7v-.4h-4.7c-.2.4-.7.5-1.2.4V3.7l1,.2c.2,0,.2,0,.2.2h1.3c0-.2.2-.5.2-.7h-3.4c-.2,0-.3-.1-.6-.7h0ZM7.5,4.8v.6h4.6v-.6h-4.6ZM7.5,6.6h4.6v-.6h-4.6v.6ZM12.1,7.9v-.6h-4.6v.6h4.6Z"/>
  <path class="st0" d="M31.4,14.4c-1.4.7-1.4.8-2,.2-1.9-1.8-3.6-4.3-4.8-7.6-.5,1.8-1.4,3.3-2.5,4.6-1.3,1.5-3.3,3-4.8,3.5-.2,0-.4-.2-.2-.3,1.7-1.3,3.2-2.7,4.4-4.5.8-1.2,2-3.2,2.3-5.8-.1-.5-.3-1-.4-1.5-.2-.7-.5-1.2-.7-1.6-.1-.1-.1-.2.1-.2.3,0,.6,0,.9,0,.2,0,.5.1.5.4.7,3.3,2.3,9.3,7.3,12.7.2.1.2.2,0,.2h0Z"/>
  <path class="st0" d="M32.3,3.2h4.2c0,.4-.1.4-.3.5-1.3,0-1.1.5-.2,1.9l1.9,3.1s0,0,0,0l1.5-2.6c1.1-1.9.9-2.4-.3-2.4-.3,0-.3,0-.2-.5h3.7c-.1.5-.2.4-.3.5-.6.1-.6.2-1.5,1.8l-2.4,4.1v1.1c0,3,.1,3.1,1.4,3.2,0,.4-.2.5-.4.5h-3.8c0-.3.1-.5.3-.5,1-.2,1-.3,1-2.6v-1.5l-2.6-4.4c-.8-1.4-.8-1.7-1.5-1.8-.3,0-.3,0-.3-.5h0Z"/>
  <path class="st0" d="M43.5,3.6c-.3,0-.2-.2-.2-.5h3.7c0,.4-.1.5-.3.5-.6,0-.7,0-.7,2.1v5.4c0,2.7,0,2.7,1.1,2.8,0,.4-.2.5-.4.5h-3.4c0-.3,0-.5.3-.5.9-.2.8-.2.8-2.4v-5.4c0-2.3,0-2.4-.9-2.4h0ZM46.5,8.5l3.1-4c.6-.7.5-.8-.2-.9-.2,0-.3,0-.2-.5h3.4c0,.4,0,.5-.4.5-.8,0-.8.2-2,1.7l-2.3,2.9,3.2,4.1c.8,1.1,1.7,1.7,2.2,1.9.2,0,.2.3,0,.3-1.6,0-2.5,0-3.9-1.8l-2.8-3.9c0,0,0-.2,0-.2Z"/>
  <path class="st0" d="M54.3,3.6c-.3,0-.2-.2-.2-.5h3.7c0,.4-.1.5-.3.5-.6,0-.7,0-.7,2.1v5.4c0,2.7,0,2.7,1.1,2.8,0,.4-.2.5-.4.5h-3.4c0-.3,0-.5.3-.5.9-.2.9-.2.9-2.4v-5.4c0-2.3,0-2.4-.9-2.4h0ZM57.4,8.5l3.1-4c.6-.7.5-.8-.2-.9-.2,0-.3,0-.2-.5h3.4c0,.4,0,.5-.4.5-.8,0-.8.2-2,1.7l-2.3,2.9,3.2,4.1c.8,1.1,1.7,1.7,2.2,1.9.2,0,.2.3,0,.3-1.7,0-2.5,0-3.9-1.8l-2.8-3.9c0,0,0-.2,0-.2Z"/>
  <path class="st0" d="M70.1,6.2c-.2.1-.3-.1-.2-.3,1.4-1.6,2.6-3.6,3.3-5l.7.4c.4.2.5.3.3.6l-.2.3h7.4c.3,0,.4-.2.7-.5.4.4.6.5.6.8s-.3.5-.9.5h-8.6c-.8,1-2,2.3-3.2,3.1h0ZM80.1,10.2c0,.4-.3.5-.9.5h-3.1v.6c1.3.6,2.7,1.2,3.2,1.8.6.6.2,1.8-.8.9-.9-.8-1.8-1.6-2.4-2.2v2.7c0,.7-.7.9-1.2.8v-3.7c-1,1.1-3.1,2.8-4.4,3.2-.3.1-.4-.1-.2-.3,1.5-1.1,3-2.6,3.9-3.8h-3.1c-.3,0-.4-.1-.6-.8h4.4v-3.1l1,.2c.2,0,.2.1.2.2v2.6h.5c.4-.7.8-1.7,1.2-2.6l.8.5c.3.2.3.3.1.5-.4.4-1,1.1-1.5,1.6h1.6c.3,0,.4-.2.7-.5.3.4.6.5.6.8h0ZM83.4,15.4c-2.9-1.3-3.1-6.2-3.1-8.7h-8.3c-.3,0-.3-.3-.6-.8h8.2c.3,0,.4,0,.6-.3l1,.4c.7.3.3.7.3.9,0,3.2.4,5.5,1.4,6.5,0,0,0,0,.1,0,0,0,.3-.7.5-1.4,0-.1.2,0,.2,0,0,1.6,0,2.2.2,2.7.3.6,0,1-.6.8h0ZM72.8,9.3c-.3-.6-.6-1.2-.8-1.6,0-.1,0-.3.2-.2.8.4,1.2.6,1.6,1,.6.8-.4,1.8-.9.8h0ZM80.6,3.6c.3.3.6.5.6.8s-.3.5-.8.5h-6.8c-.3,0-.3-.2-.6-.8h6.9c.3,0,.4-.2.7-.5h0Z"/>
  <path class="st0" d="M90.5,8.8c-1.5.6-3,1.1-4.3,1.3-.3,0-.3-.3,0-.3,1.4-.5,2.7-1,4.1-1.7,0-.3,0-.6,0-1v-2.2l1,.3c.2,0,.2.1.2.2v2.1c.2-.1.5-.3.7-.4,1.5-.9,2.8-2.1,3.7-3.2l.7.5c.3.2.3.3.1.5-.9.9-2.4,2.1-3.9,2.9-.3.2-.6.3-.9.5.2,0,.4,0,.8,0,.8,0,2.1,0,2.7-.1.3,0,.5-.2.5-.5v-.7c.2-.1.4-.1.4,0,.2.7.2.9.4,1.1.3.3.3.7-.2.8-.6.2-2,.4-3.1.4-1.8,0-2.6,0-3-.5h0ZM86.5,4.5c.5-.4,1.2-1.2,1.4-2.1,0-.2.3-.1.3,0,0,0,0,.1,0,.2h4.8c0,0-.2-.2-.3-.3-.2-.3-.7-1-.9-1.3-.1-.2,0-.3.2-.3.8.2,1.3.4,1.7.8.3.3.2.8,0,1.1h4.3c.3,0,.5,0,.8-.3l.6.6c.3.3.3.5.1.6-.5.4-1.1,1-1.5,1.3-.2.1-.3,0-.2-.2.1-.3.3-.8.5-1.1h-10.1c0,.4-.1.8-.2,1.1-.7,1.7-2.4.7-1.5-.1ZM89.2,5.3c0,1-.2,1.8-.6,2.4-.9,1.3-2.3.3-1.3-.5.8-.7,1.3-1.3,1.6-1.9,0-.2.3-.1.3,0h0ZM98.1,10.6v3.9c0,.6-.7.9-1.3.8v-1h-7.2c0,.7-.7,1-1.3.8v-5l1,.2c.2,0,.3.1.3.3v2.8h3v-4l1.1.2c.2,0,.3.2.3.3v3.5h3v-3.4l1,.2c.2,0,.3.2.3.3h0ZM91.9,3.7c.4.1,1.1.4,1.5.8.8.8-.2,1.8-.8.8-.4-.6-.6-1.1-.9-1.4-.1-.2,0-.3.2-.3ZM98.5,7.7c-.5-.6-1.1-1.4-1.7-2,0,0,0-.3.2-.2,1,.4,1.8.8,2.3,1.3,1,1,.1,2.2-.9,1h0Z"/>
  <path class="st0" d="M115,5.6c-.7.2-1.8.3-2.7.3-2.6,0-2.6-.3-2.6-1.9v-.7h-1.4c-.5.8-1.1,1.5-2,2.1-1.2.8-2.6,1.4-3.9,1.6-.2,0-.3-.2,0-.3.9-.4,1.8-.8,2.5-1.3.9-.6,1.6-1.3,2.1-2h-2.6c0,.4-.2.8-.3,1.1-.8,1.3-2,.4-1.3-.3.5-.5,1.2-1.3,1.4-1.9,0-.2.3-.1.3,0s0,.2,0,.3h4.7c0,0-.2-.1-.3-.2-.3-.3-.7-.7-1-1-.2-.2,0-.3.1-.3.7.1,1.3.2,1.7.4.5.3.4.9,0,1.1h4.1c.3,0,.5,0,.8-.3l.6.6c.3.3.3.4,0,.6-.6.4-1.1.7-1.5,1-.2,0-.4,0-.3-.2.2-.3.4-.6.5-.8h-2.9v.8c0,.5,0,.6.6.7.7,0,1.9,0,2.5,0,.3,0,.4-.2.5-.4,0-.1.2-.1.2,0,.1.2.2.3.3.4.4.3.3.7,0,.8h0ZM114,7.7v6.9c0,.7-.6.9-1.2.8v-.9h-7.3c0,.8-.6,1.1-1.2.9V6.5l1,.2c.1,0,.2,0,.2.2h1.8c.3-.6.7-1.4.9-2l.8.5c.3.2.3.3.1.5-.3.3-.8.7-1.1,1h4.1c.3,0,.5-.1.7-.4l1.1.4c.6.2.2.6.2.9h0ZM112.8,13.7v-6h-7.3v6h7.3ZM111.6,12c.8.8.2,1.8-.6,1-.3-.3-.8-.7-1.3-1.2-.9.7-2,1.3-3.1,1.7-.2,0-.4-.2-.2-.3,1-.7,1.8-1.3,2.6-2l-.8-.8c-.6.5-1.3,1-2,1.3-.2.1-.4-.1-.2-.3.5-.4,1.1-1,1.6-1.6-.4-.3-.8-.7-1.2-1.1-.2-.2,0-.4.2-.3.5.3,1,.5,1.5.8.5-.5.8-1,1.1-1.5l.7.5c.3.2.3.3.2.5-.3.3-.7.7-1.1,1,.3.2.6.4.9.6.5-.5.9-1,1.3-1.5l.6.5c.3.3.4.3.1.5-.4.3-.8.7-1.3,1.1.4.3.7.6,1,.9h0Z"/>
  <path class="st0" d="M122.8,6.6c-.2-.3-.1-.6.3-.4,1.6.8,2.8,1.7,3.6,2.7.9,1.2-.3,2.9-1.3,1.4-1-1.5-1.7-2.5-2.6-3.6h0Z"/>
  <path class="st0" d="M139.1,12.6c0-.9.6-1.1,1.5-1.1,0,.8,0,1.1.2,1.5.3.6,1,.8,1.7.8,1.8,0,2.2-1.5,2.2-3,0-2.3-2.2-3.2-4.7-2.3-.2-.1-.4-.2-.3-.4l.9-4.8h3.6c1,0,1.1-.2,1.4-.4.1-.1.3,0,.2.1-.2.5-.4,1.2-.5,1.4,0,0-.1.1-.2.1h-4l-.6,3.2c2.7-.8,5.9-.2,5.9,3s-2,3.8-4.1,3.8-3.1-.6-3.1-1.9h0Z"/>
  <path class="st0" d="M154.8,8.8h-2.5v2.7h-1.1v-2.7h-2.5v-1h2.5v-2.5h1.1v2.5h2.5v1Z"/>
  <path class="st0" d="M161.6,14.5c-3.2.7-5-1.3-4.9-5.1,0-2.8,1.2-6.4,4.1-6.4s2.6.4,3.1,1.5c.3.7-.1,1.3-1.4,1.3,0-1.3-.6-2.1-1.7-2.1-1.6,0-2.4,2.1-2.5,5.1.7-.8,1.8-1.3,2.8-1.3,1.8,0,3.1,1.5,3.2,3.3,0,2.1-1.2,3.4-2.8,3.8h0ZM162.7,10.9c-.1-1.7-.7-2.7-2-2.8-.8,0-1.7.6-2.4,1.1,0,3.4,1.1,5.1,3.1,4.6,1.1-.3,1.4-1.7,1.3-3Z"/>
  <path class="st0" d="M172.6,8.8h-2.5v2.7h-1.1v-2.7h-2.5v-1h2.5v-2.5h1.1v2.5h2.5v1Z"/>
  <path class="st0" d="M179.6,12.6c0-.9.6-1.1,1.5-1.1,0,.8,0,1.1.2,1.5.3.6,1,.8,1.7.8,1.8,0,2.2-1.5,2.2-3,0-2.3-2.2-3.2-4.7-2.3-.2-.1-.3-.2-.3-.4l.9-4.8h3.6c1,0,1.1-.2,1.4-.4.1-.1.3,0,.2.1-.2.5-.4,1.2-.5,1.4,0,0-.1.1-.2.1h-4l-.6,3.2c2.7-.8,5.9-.2,5.9,3s-2,3.8-4.1,3.8-3.1-.6-3.1-1.9h0Z"/>
  <path class="st0" d="M198.1,8.8v5.9c0,.8-.5,1-1.2.9v-6.7c-.6.6-1.3,1.2-2.1,1.7-.2.1-.3-.1-.2-.3,1.2-1.2,1.8-2.1,2.6-3.2.6-1,.9-1.7,1.1-2h-3c-.2,0-.3-.1-.6-.8h3.4c.3,0,.5-.1.7-.4l.6.5c.3.2.3.4.2.7-.2.4-.4.9-1.5,2.3h0v.8l.4.2c.4-.5.8-1.3,1.1-2l.6.5c.3.2.3.4.1.5-.4.4-.9.7-1.5,1.2.5.3.8.6,1.1.9.7.9,0,1.8-.7,1-.4-.6-.8-1.1-1.1-1.7h0ZM196.5,1.2c0-.2,0-.3.3-.2.5.3,1.1.9,1.4,1.4.6,1-.5,2-.9.8-.2-.5-.5-1.4-.7-1.9h0ZM209,14.7c-.4.3-.6.4-.8.5-.3.1-.3.2-.9,0-.9-.3-1.9-.9-2.7-1.6h-.2c-1.4,1.1-3.3,1.7-5.1,1.9-.3,0-.3-.2,0-.3,1.8-.5,3.1-1.2,4.3-1.9.1-.1.3-.2.4-.3-.5-.5-.9-1.1-1.2-1.8h0c-.9,1-1.8,1.7-2.8,2.2-.2.1-.4,0-.2-.3.8-.7,1.6-1.5,2.2-2.3.5-.7.9-1.3,1.2-2.1h-.4c-.1.5-.7.7-1.2.6v-4.9c-.5.6-1,1.2-1.6,1.7-.1.1-.4,0-.2-.2.5-.8.9-1.4,1.3-2.3.4-.8.8-1.7,1-2.6l.7.4c.3.2.4.3.3.5,0,.2-.3.5-.4.9h4.7c.3,0,.5-.2.7-.5.3.3.6.5.6.8,0,.4-.3.5-.9.5h-5.6c0,.1-.1.2-.2.3,0,.1-.1.2-.2.3l.8.2c.2,0,.3,0,.3.2h0s3,0,3,0c.3,0,.4-.1.6-.3l1,.3c.5.2.2.5.2.9v3c0,.6-.6.8-1.2.7v-.4h-2.4,0c.3.2.3.3.2.6-.1.2-.2.4-.4.6h2c.4,0,.5,0,.8-.3l.7.6c.3.2.3.4.1.6-.6.8-1.2,1.6-2,2.3.9.6,2.1,1.1,3.6,1.5.1,0,.2.1,0,.2h0ZM202.8,5.3v.9h3.7v-.9h-3.7ZM202.8,7.8h3.7v-.8h-3.7v.8ZM204.5,12.3c.6-.5,1.1-1.2,1.4-1.8h-2.8s0,0-.1.1c.5.7,1,1.2,1.5,1.6h0Z"/>
  <path class="st0" d="M225.7,2.5v1.7c0,.7-.6.8-1.2.7v-.6h-1.8l.6.4c.3.2.4.3.2.5-.3.3-.8.7-1.2,1.1h1.3c.2,0,.4-.1.6-.3l1,.3c.6.2.2.6.2.9v2.7c0,.6-.6.8-1.2.7v-.5h-6.6c0,.2-.1.4-.3.5h.8c.3.2.3.2.3.3h4c.3,0,.4-.1.7-.4l.9.3c.7.2.3.5.3.9v3.2c0,.7-.6.9-1.2.8v-.8h-4.7c0,.7-.5.9-1.2.8v-5.1c-.2.1-.6.2-.9.1v-4.7l.9.2c.2,0,.2.2.3.2h1.5c0,0-.1-.1-.2-.3-.1-.2-.5-.8-.8-1.3-.1-.2,0-.3.2-.2.7.2,1.2.6,1.4.9.2.3.1.7,0,.9h1.9c.3-.5.6-1.3.9-1.9h-6.8v1.8c0,2.3-.2,4-.5,5.1-.4,1.7-1.1,3.2-2.3,4.2-.2.1-.4,0-.2-.2.7-1.2,1.1-2.6,1.4-4,.4-2,.4-5.1.3-9.9l1,.2c.2,0,.3.1.3.2h0s8.1,0,8.1,0c.3,0,.5-.1.7-.4l.9.2c.7.2.3.7.3,1h0ZM224.4,3.5v-1h-8.8v1h8.8ZM217.5,9.1h2.7v-2.1h-2.7v2.1ZM218.6,8.5c-.1-.2-.4-.8-.6-1.2,0-.2,0-.3.2-.2.5.2,1.1.5,1.3.9.4.7-.3,1.5-.9.5h0ZM218.4,11.5v.8h4.7v-.8h-4.7ZM223,13.9v-.8h-4.7v.8h4.7ZM221.4,6.9v2.1h.4c.3-.5.7-1.3,1-2.1l.6.4c.3.2.3.3.1.5-.4.4-.8.8-1.2,1.1h1.8v-2.1h-2.7Z"/>
  <path class="st0" d="M242.6,4.9v4.5c0,.7-.7,1-1.3.9v-.9h-3.7v5.3c0,.8-.7,1.1-1.4.9v-6.2h-3.7v.4c0,.7-.7,1-1.3.9V3.5l1.1.2c.2,0,.3.1.3.2h0s3.7,0,3.7,0V.9l1.1.2c.2,0,.3.2.3.2v2.7h2.9c.4,0,.6-.2.8-.5l1.1.3c.6.2.2.8.2,1h0ZM236.1,8.5v-3.7h-3.7v3.7h3.7ZM241.2,8.5v-3.7h-3.7v3.7h3.7Z"/>
  <path class="st0" d="M261.9,14.4c0,.4-.4.6-1,.6h-12.3c-.3,0-.4-.2-.7-.9h6.3v-3.6h-3.2c-.3,0-.3-.2-.7-.9h7.7c.3,0,.5-.2.8-.5.4.3.6.6.6.8,0,.4-.4.6-.9.6h-2.9v3.6h4.8c.3,0,.5-.2.9-.6.4.4.7.6.7.9h0ZM248.3,4.7c.5-.5,1.3-1.1,1.6-2,0-.2.3-.2.3,0v.3h4.8c-.2,0-.4-.2-.6-.5-.3-.4-.7-.9-1-1.3-.2-.2,0-.3.2-.3,1.2.3,1.6.4,2,.9.4.4.3,1-.1,1.2h4.3c.3,0,.5-.1.8-.3l.6.6c.4.4.3.5.2.6-.6.5-1.6,1.2-1.9,1.5-.2.1-.4,0-.2-.2.2-.3.5-.8.7-1.3h-3v2.4c0,.7,0,.9.5.9.7,0,1.7,0,2,0,.2,0,.3-.2.4-.4l.2-.3c0-.1.2-.1.2,0,.1.2.3.5.5.6.5.4.3.8-.2,1-.8.3-1.9.3-2.6.3-2.2,0-2.4-.1-2.4-2.3v-2.1h-5.5c0,.4-.2.8-.3,1.1-1,1.7-2.4.5-1.5-.3h0ZM253.6,4.5c.4.2.5.2.3.6-.4.9-.9,1.6-1.7,2.3-.8.7-2.1,1.4-3.5,1.7-.2,0-.3-.2-.2-.3,1.3-.6,2.3-1.4,3-2.2.6-.7,1-1.3,1.3-2.4l.8.3h0Z"/>
  <path class="st0" d="M271.2,3.1c0,.4-.1.5-.3.5-.7,0-.8,0-.8,2.1v7.6c0,.1,0,.3.2.3.4,0,1.2,0,1.8,0,2.4-.1,2.6-.6,3.3-2.1,0-.2.4,0,.3.1l-.8,2.6c0,.1,0,.2-.3.2-.5,0-1.3,0-2.5,0h-4.2c-.2,0-.3-.1,0-.2.6-.3.7-.4.7-2.2v-5.9c0-2.4,0-2.4-.9-2.4-.2,0-.2-.2-.2-.5h3.7Z"/>
  <path class="st0" d="M289.1,8.7c0,3.1-2,5.9-5.8,5.9s-5.7-2.5-5.7-5.7,2.5-6,5.6-6,5.8,2.5,5.8,5.8ZM279.3,8.6c0,3,1.7,5.2,4.1,5.2s4-1.7,4-4.8-1.4-5.4-4.2-5.4-3.9,1.9-3.9,5h0Z"/>
  <path class="st0" d="M303.8,5.4l-3.1,9.1c0,.2-.3.2-.4,0l-3-8.2s0,0-.1,0l-2.8,8.2c0,.2-.3.2-.4,0l-3-9.1c-.5-1.3-.5-1.7-1.2-1.7-.3,0-.3-.2-.3-.5h3.9c-.1.4-.2.5-.4.5-1,0-1,.3-.5,1.8l1.9,5.9s0,0,.1,0l2.7-8.3c0-.2.3-.2.4,0l3,8.3s0,0,.1,0l1.8-5.3c.7-2,.6-2.4-.5-2.4-.4,0-.4-.2-.3-.5h3.7c0,.3-.2.5-.4.5-.6,0-.7.2-1.3,1.8h0Z"/>
  <path class="st0" d="M305.5,9.7h4.7v1.1h-4.7v-1.1Z"/>
  <path class="st0" d="M320.2,14.5c-.5,0-1.3,0-2.4,0h-4.6c-.2,0-.3-.2,0-.3.5-.2.6-.4.6-2.2v-5.9c0-2.1,0-2.2-.4-2.3-.2,0-.3-.1-.4-.6h4.7c1,0,2.1,0,2.6,0,.1,0,.2,0,.2.2v2.2c0,.2-.1.3-.2,0-.4-1.1-.6-1.6-2.1-1.6h-2.8v4.3h1.1c2,0,2.1-.3,2.4-.8.1-.1.3,0,.2,0-.1.5,0,1.7,0,2.3,0,.2-.1.3-.2.1-.5-.7-1.1-1-2.5-1h-1.1v4.4c0,.3,0,.4.3.4.7,0,1.4,0,2.3,0,2.2,0,2.5-.7,3.1-2,0-.2.4-.1.3.1l-.7,2.5c0,.1,0,.2-.3.2h0Z"/>
  <path class="st0" d="M330.5,11c-1.3.7-2.9,1.4-4.1,1.9-.5.2-.6.1-1.3-.9.8-.2,1.6-.3,2.3-.5v-3.5h-1.4c-.2,0-.3-.2-.6-.9h2v-3.1h-1.5c-.3,0-.3-.2-.6-.8h4.1c.3,0,.5-.1.7-.4.3.3.6.5.6.8s-.3.5-.9.5h-1.2v3.1h.6c.3,0,.4-.1.7-.4.3.3.6.6.6.8,0,.3-.3.5-.9.5h-1v3.2l1.7-.4c.2,0,.4.2.1.3h0ZM339.6,14.6c-1,.6-1.1.7-1.7.3-.7-.4-1.9-1.2-2.8-2.2-1.4,1.3-3.5,2.4-5.1,2.8-.2,0-.4-.2-.1-.3,1.4-.7,3.5-1.9,4.6-3.2-.8-1.2-1.2-2.5-1.6-3.9h-.6c0,1.2-.2,2.2-.5,3-.8,2.4-2.5,3.8-3.8,4.4-.2,0-.4-.1-.2-.3,1.3-1.1,2.6-2.8,3-4.6.4-2.1.3-4.2.3-7.6l1,.2c.2,0,.3.1.3.2h1.9V1.1l.9.2c.2,0,.3.1.3.3v1.9h2.1c.3,0,.5,0,.7-.3l.5.5c.3.3.4.4.1.6-.4.3-1.1,1.1-1.6,1.5-.2.2-.3,0-.3-.2.2-.3.5-1,.6-1.3h-2.2v3h.9c.3,0,.5,0,.7-.3l.6.5c.3.2.3.3.2.7-.6,1.4-1.2,2.7-2.1,3.9,1,1,2.1,1.7,3.7,2.4.2,0,.2.2,0,.2h0ZM332.4,7.2h1.9v-3h-1.9v3ZM333.7,8c.4,1.2.8,2.2,1.5,3.1.6-.9,1.2-2,1.5-3.1h-3Z"/>
  <path class="st0" d="M346.5,7.6v3.5c.6-.2,1.1-.3,1.6-.5.2,0,.3.2.2.3-1.2.8-2.5,1.3-3.8,2-.4.2-.6,0-1.3-.9.8-.2,1.5-.4,2.1-.5v-3.9h-1.3c-.2,0-.3-.2-.6-.8h1.9v-3.2h-1.4c-.2,0-.3-.2-.6-.8h3.8c.3,0,.5-.1.8-.5.3.3.6.6.6.8,0,.3-.3.5-.9.5h-1v3.2h.6c.3,0,.5-.1.8-.4.4.3.6.5.6.8s-.3.5-.9.5h-1ZM357,10.1v4.6c0,.7-.8,1.2-1.3.7-.4-.4-1.1-.7-1.5-.8-.1,0-.2-.2,0-.2.5,0,1.4,0,1.5,0,0,0,0,0,0-.1v-4.1h-3.1c-.3.6-.6,1.2-.9,1.8.8-.1,1.5-.2,2.1-.3-.1-.3-.3-.7-.3-.8,0-.1,0-.3.3-.2.5.3,1.2.8,1.5,1.4.4.8-.4,1.8-1,.6,0-.1-.2-.3-.3-.6-1,.4-2.1.8-3,1.1-.4.1-.5,0-1.1-1,.4,0,.7,0,1.1-.1.2-.5.4-1.2.6-1.9h-1.8v4.6c0,.6-.4,1-1.2.8v-6.6h.8c.3.2.4.2.4.4h2.1c.1-.5.2-1,.3-1.4h-1.8c-.1.5-.5.7-1.2.6V3.9l.9.2c.2,0,.3.1.3.2v2.8h4.7v-3.2l.9.2c.2,0,.3.1.3.2v3.1c0,.7-.5.9-1.2.8v-.4h-1.7c-.1.3-.3.8-.5,1.4h2.1c.3,0,.5,0,.7-.3l1,.3c.6.2.2.5.2.9h0ZM357.5,3c0,.4-.3.5-.8.5h-7.5c-.2,0-.3-.1-.6-.8h4.1c-.1,0-.2-.2-.3-.3-.3-.4-.6-1-.7-1.3-.1-.2,0-.3.2-.2.6.2,1.2.4,1.5.8.3.4.2.8-.1,1h3c.3,0,.5-.2.8-.5.3.3.6.5.6.8h0ZM352.4,5.2c-.4-.4-.8-.7-1.1-.9-.2-.2,0-.4.2-.3.5.2.9.4,1.4.6.3-.3.6-.7.8-1.1l.6.4c.3.2.3.3.1.5-.2.2-.4.4-.8.7.3.2.6.4.8.7.5.6.1,1.7-.6.9-.3-.3-.6-.6-.9-.9-.5.4-1.1.8-1.8,1.1-.2,0-.4,0-.2-.3.5-.4.9-.8,1.4-1.4Z"/>
  <path class="st0" d="M364.3,6.6c-.2-.3-.1-.6.3-.4,1.6.8,2.8,1.7,3.6,2.7.9,1.2-.3,2.9-1.3,1.4-1-1.5-1.7-2.5-2.6-3.6h0Z"/>
  <path class="st0" d="M376,10.8c-.2-.1,0-.2.1-.2.8,0,.9,0,1.1-.2.2-.3.3-.8.3-1.5,0-1-.6-1.9-1.3-2.7-.1-.1-.1-.2,0-.5.4-1,.7-1.9.9-3h-1.5v11.7c0,.8-.6,1-1.2.9V1.6l1,.2c.2,0,.3.1.3.2h0s1.1,0,1.1,0c.3,0,.5,0,.7-.3l.7.4c.5.3.4.4.3.8-.6,1.2-1.2,2.3-1.7,3.2,3.2,2.3,2.1,5.5.7,5.7-.5,0-.8-.5-1.3-.9h0ZM387.4,4.3c0,.4-.3.5-.9.5h-4.4c0,.7,0,1.3,0,1.9h1.9c.3,0,.5-.1.7-.4l1,.4c.8.3.3.8.3,1,0,1.8-.2,3.9-.4,4.8-.3,1.5-.9,2.6-1.7,2.8-.6.2-.9-.4-2-1.1-.1,0,0-.2.1-.2,1.1.1,1.4.2,1.6,0,.4-.4.6-.9.8-1.8.2-.9.3-3,.4-4.6h-2.7c-.3,3.6-1.4,6.4-4.9,7.6-.3.1-.4-.2-.2-.3,1.6-1.1,2.5-2.3,3.1-3.9.6-1.7.7-3.7.8-6.2h-2.1c-.3,0-.4-.2-.7-.9h8c.3,0,.5-.1.8-.5.4.4.7.6.7.8h0ZM380.9,1.2c-.1-.2,0-.3.3-.2.8.4,1.5,1,1.8,1.6.4.9-.5,2-1.2.7-.3-.7-.6-1.4-.9-2Z"/>
  <path class="st0" d="M392.4,11.2c.2,1.1.4,1.9.3,2.4,0,.9-.5,1.5-1,1.5-.5,0-.7-.4-.6-1,.2-.7.8-1.7.7-2.6,0-.5-.6-.7-1.4-.8-.2,0-.3-.3,0-.3.8,0,1-.2,1.3-.8.6-1.4,1.3-3.8,1.9-5.5,0-.3.4-.2.3,0-1,4.3-1.6,6-1.4,6.9h0ZM390.3,5c-.1-.2,0-.4.2-.3.6.3,1.1.6,1.5.9.9.9-.1,2.1-.8,1-.4-.7-.6-1.1-.9-1.6h0ZM391.1,1.6c-.1-.2,0-.4.2-.3.6.3,1.1.5,1.5.9.8.7-.1,2-.7,1-.5-.7-.8-1.3-1-1.6h0ZM397.1,11.9v2.7c0,.7-.6.9-1.2.8v-3.5h-2.3c-.3,0-.4-.1-.7-.8h3v-1.5h-.6c0,.5-.5.8-1.2.7v-5.7l.9.2c.2,0,.2.1.3.2h.6v-1.2h-1.7c-.3,0-.4-.1-.7-.8h2.4V1l.9.2c.2,0,.2.1.2.2v1.6h1.2c.2,0,.4-.1.7-.4.3.3.6.5.6.7,0,.4-.3.5-.8.5h-1.7v1.2h0c.3,0,.4,0,.7-.3l.9.3c.7.2.3.6.3.9v3.5c0,.6-.6.8-1.2.7v-.5h-.7v1.5h1.1c.3,0,.4-.1.7-.4.4.3.6.5.6.8,0,.3-.3.5-.8.5h-1.6ZM395.3,5.8v1.1h2.5v-1.1h-2.5ZM397.7,8.8v-1.1h-2.5v1.1h2.5ZM403.8,3.2v11.3c0,.8-.6,1.2-1.2.7-.5-.4-1.1-.7-1.6-.8-.2,0-.2-.2,0-.2.5,0,1.3,0,1.5,0,0,0,0-.1,0-.2v-4.3h-1.6c-.2,2.4-.8,4.7-3,5.6-.2,0-.4,0-.2-.3,1.4-1.5,1.9-2.9,2-5.5.1-1.9,0-4.5,0-7.6l1,.2c.2,0,.3.1.3.2h0s.8,0,.8,0c.3,0,.5-.1.7-.4l1,.3c.7.3.2.6.2.9ZM402.6,8.8v-2.5h-1.5v.6c0,.6,0,1.3,0,1.9h1.5ZM401.1,3.1v2.4h1.5v-2.4h-1.5Z"/>
  <path class="st0" d="M422,2.6c0,.4-.4.6-1,.6h-5.6c-.4,1.5-1,2.9-1.9,4.1h4.5c.3,0,.6-.1.9-.4l1.1.3c.8.3.3.6.3,1v6.2c0,.7-.7,1-1.3.8v-1.7h-5.3v1c0,.6-.7,1-1.3.8v-6.5c-1.1,1.2-2.4,2.2-3.8,2.9-.2.1-.4-.1-.2-.3,1.7-1.4,3-2.8,4.1-4.5.7-1.1,1.3-2.4,1.6-3.7h-4.7c-.3,0-.4-.2-.7-.9h11.8c.3,0,.5-.2.9-.6.4.4.7.6.7.9h0ZM413.6,8.2v4.5h5.3v-4.5h-5.3Z"/>
  <path class="st0" d="M436.9,6.9c-.6.5-1.2,1-1.5,1.2-.1,0-.4,0-.3-.2.2-.3.4-.8.5-1.1h-10.3c0,.2,0,.4-.1.7-.6,1.7-2.3.8-1.4,0,.4-.4.9-1,1.2-1.7,0-.2.3-.1.3,0v.3h10.1c.3,0,.5,0,.7-.3l.6.5c.3.3.3.4.1.6h0ZM424,2.3h6.2c0,0-.1-.1-.2-.2-.3-.4-.5-.7-.7-1-.1-.2,0-.3.2-.3.7.2,1.3.3,1.5.6.2.3.2.6,0,.8h4.5c.3,0,.5-.2.7-.5.3.3.6.5.6.7s-.3.5-.7.5h-11.5c-.3,0-.3-.1-.6-.7h0ZM434.8,10.8v3.9c0,.7-.8,1.1-1.3.7-.6-.4-1-.6-1.4-.7-.2,0-.1-.2,0-.2.4,0,1.1,0,1.3,0,0,0,0-.1,0-.2v-.6h-6.4c0,0,0,.2,0,.2-.3.7-.8,1.3-1.7,1.7-.2.1-.4,0-.3-.2.4-.5.6-.9.8-1.9,0-.5.1-1.1.1-1.6,0-.8,0-1.2,0-2.2l1.1.2c.2,0,.3.1.3.2h5.5c.3,0,.5-.1.7-.3l1.1.3c.7.2.2.5.2.8h0ZM432.6,6v-.3h-4.7c-.2.3-.7.4-1.2.3v-2.7l1,.2c.2,0,.2.1.3.2h4c.2,0,.4-.1.6-.3l1,.3c.6.2.2.4.2.7v1c0,.6-.6.8-1.3.7h0ZM432.5,9.7v-.3h-4.6c-.2.4-.7.5-1.2.4v-2.7l1,.2c.2,0,.2.1.3.2h3.9c.2,0,.4,0,.6-.3l1.1.3c.6.1.2.5.2.8v1c0,.6-.6.8-1.3.7h0ZM433.5,12.8v-.7h-6.2c0,.2,0,.5,0,.7h6.3ZM427.3,10.7v.8h6.2v-.8h-6.2ZM432.6,5v-.7h-4.6v.7h4.6ZM432.5,8.7v-.7h-4.5v.7h4.5Z"/>
  <path class="st0" d="M444.2,7.3v5.6c0,.7-.6.9-1.2.8v-1h-1.2v1.2c0,.7-.7.9-1.2.8v-6.3c-.4.6-.8,1.1-1.2,1.4-.2.2-.4,0-.2-.2.5-.9,1.1-2.1,1.4-3,.4-1.1.6-2,.9-3.4h-1.6c-.3,0-.3-.2-.6-.8h4.1c.3,0,.4-.2.7-.4.3.3.6.5.6.7,0,.4-.3.5-.8.5h-1.1c-.2,1.2-.6,2.3-1,3.2h.7c.3,0,.4,0,.6-.3l1,.3c.5.2.2.5.2.8h0ZM443,11.9v-4.6h-1.2v4.6h1.2ZM453.6,11c0,.4-.3.5-.9.5h-1.8v3.1c0,.8-.7,1.1-1.3.7-.4-.3-1.1-.6-1.5-.8-.1,0-.1-.3,0-.3.4,0,1.4,0,1.5,0,0,0,0,0,0-.1v-2.6h-4.7c-.3,0-.3-.1-.6-.8h5.4v-.9l1,.2c.2,0,.2.1.2.2v.5h1.3c.3,0,.5-.1.8-.5.4.4.6.5.6.8h0ZM444.6,2.2h3.6V.9l1,.2c.2,0,.3.1.3.2v.9h2.6c.3,0,.4-.1.7-.4.4.3.5.5.5.7,0,.3-.2.5-.8.5h-3.1v.8h1.1c.3,0,.4-.1.6-.4l1,.3c.7.2.2.6.2.9v2.8c0,.5-.6.8-1.2.7v-.5h-1.7v1.3c.5,0,.9,0,1.3-.1-.2-.2-.3-.3-.5-.5-.2-.2,0-.3.2-.3,1,.3,1.6.5,2,.9.6.6,0,1.6-.8.8-.2-.2-.4-.4-.6-.6-1.7.4-3.4.6-5.3,1-.5.1-.5,0-1-.9,1.3,0,2.5-.1,3.5-.2v-1.4h-1.7c0,.6-.5.9-1.2.8V3.4l.9.2c.2,0,.3.1.3.2h1.7v-.8h-3c-.2,0-.3-.1-.6-.8h0ZM447.9,12.8c.5.8-.5,1.8-1.1.6-.2-.4-.5-1.1-.6-1.4-.1-.2,0-.3.2-.3.6.3,1.2.6,1.5,1.1ZM446.5,4.6v.8h1.7v-.8h-1.7ZM448.2,6.8v-.7h-1.7v.7h1.7ZM449.4,4.6v.8h1.7v-.8h-1.7ZM451.2,6.8v-.7h-1.7v.7h1.7Z"/>
  <path class="st0" d="M459.7,1.5v13.3c0,.6-.7.8-1.2.7v-6.2h-.9c0,1.1-.2,2-.4,2.8-.3,1.2-.8,2.6-1.6,3.2-.2.2-.3,0-.3-.2.4-.8.7-2,.9-3.1.1-.8.2-1.8.2-2.8h-.5c-.3,0-.3-.2-.6-.8h3.3v-2.3h-1.2c0,.6-.7.8-1.2.7V1.9l.9.2c.2,0,.3.1.3.3v3h1.2V1l1,.2c.1,0,.3,0,.3.2h0ZM469.6,7.5c0,.4-.3.5-.8.5h-8.5c-.3,0-.3-.2-.6-.8h4.2V3.1h-3.2c-.3,0-.3-.2-.6-.8h3.8V.9l.9.2c.2,0,.3.1.3.2v.9h2.6c.2,0,.4-.1.6-.4.3.3.6.5.6.7s-.3.5-.8.5h-3v4.1h3.3c.3,0,.4-.1.7-.4.3.3.5.5.5.7h0ZM462.7,4c-.1.2-.2.5-.4.7.5.2.8.4,1.1.7.6.7-.2,1.7-.7.8-.2-.3-.5-.8-.7-1.1-.5.7-1.1,1.3-1.7,1.7-.2.1-.4,0-.2-.2.8-1,1.3-2.3,1.6-3.5l.7.4c.3.2.3.3.2.5h0ZM468.2,9.6v5c0,.6-.6.9-1.1.7v-.9h-5v.2c0,.7-.5.9-1.1.8v-7.1l.9.2c.2,0,.3.1.3.2h4.3c.3,0,.5-.1.7-.4l.9.3c.7.2.3.6.3.9h0ZM467.1,13.7v-4.1h-5v4.1h5ZM466.2,11v1.5c0,.6-.5.8-1.1.7v-.4h-1.2c0,.4-.4.6-1,.5v-3.4l.8.2c.2,0,.3.1.3.2h.6c.3,0,.5-.1.6-.3l.8.2c.7.2.3.6.3.9h0ZM465.2,12v-1.1h-1.2v1.1h1.2ZM467.8,4c-.1.2-.2.5-.4.8.5.2.9.5,1.2.8.6.7-.2,1.6-.8.8-.2-.3-.4-.7-.7-1.1-.4.6-.9,1.3-1.5,1.7-.2.1-.3,0-.2-.2.7-1,1.1-2.2,1.4-3.5l.7.4c.3.2.4.3.3.4Z"/>
  <path class="st0" d="M481.1,6.6c-.2-.3-.1-.6.3-.4,1.6.8,2.8,1.7,3.6,2.7.9,1.2-.3,2.9-1.3,1.4-1-1.5-1.7-2.5-2.6-3.6h0Z"/>
  <path class="st0" d="M497.7,3.6c-.3,0-.2-.2-.2-.5h3.7c0,.4-.1.5-.3.5-.6,0-.7,0-.7,2.1v5.4c0,2.7,0,2.7,1.1,2.8-.1.4-.2.5-.4.5h-3.4c0-.3,0-.5.3-.5.9-.2.9-.2.9-2.4v-5.4c0-2.3,0-2.4-.9-2.4h0ZM500.8,8.5l3.1-4c.6-.7.5-.8-.2-.9-.2,0-.3,0-.2-.5h3.4c0,.4,0,.5-.4.5-.8,0-.8.2-2,1.6l-2.4,2.9,3.2,4.1c.8,1.1,1.7,1.7,2.2,1.9.2,0,.2.3,0,.3-1.6,0-2.5,0-3.9-1.8l-2.8-3.9c0,0,0-.2,0-.2Z"/>
  <path class="st0" d="M508.7,13.9c.7-.2.8-.2.8-2.4v-5.5c0-2.1,0-2.1-.5-2.3-.4-.1-.4-.2-.4-.6,1.1.2,2.5,0,3.9,0,2.7,0,4.1,1.7,4.1,3.1s-1.3,2.9-3.3,3.1c2.1,1.7,2.5,3.9,4.5,4.9.2.1.2.3,0,.3-1,0-2,.2-2.7-.7-1.3-1.4-1.9-3.5-3.6-4.7-.1,0-.1-.2,0-.2,2.3,0,3.5-.8,3.5-2.5-.1-1.7-1.2-2.7-4-2.2v7.1c0,2.7,0,2.7,1.3,2.8-.1.4-.2.5-.4.5h-3.5c0-.4.1-.5.3-.5h0Z"/>
  <path class="st0" d="M530,8.7c0,3.1-2,5.9-5.8,5.9s-5.7-2.5-5.7-5.7,2.5-6,5.7-6,5.8,2.5,5.8,5.8ZM520.2,8.6c0,3,1.7,5.2,4.1,5.2s4-1.7,4-4.8-1.4-5.4-4.2-5.4-3.9,1.9-3.9,5h0Z"/>
  <path class="st0" d="M533.7,3.1l6.4,8.2v-5.3c0-2.1,0-2.4-1-2.4-.3,0-.3-.1-.3-.5h3.3c-.1.5-.1.5-.3.5-.9.1-.9.3-.9,2.1v8.7c0,.3-.5.2-.5,0l-7.1-9.3v6.1c0,2.4,0,2.5,1.3,2.7-.1.4-.1.5-.4.5h-3c0-.3,0-.5.3-.5.9-.2.9-.3.9-2.2v-7.2c0-.6-.5-.8-1.1-.9-.2,0-.2-.2-.2-.5h2.5Z"/>
  <path class="st0" d="M554.8,8.7c0,3.1-2,5.9-5.8,5.9s-5.7-2.5-5.7-5.7,2.5-6,5.7-6,5.8,2.5,5.8,5.8ZM545.1,8.6c0,3,1.7,5.2,4.1,5.2s4-1.7,4-4.8-1.4-5.4-4.2-5.4-3.9,1.9-3.9,5h0Z"/>
  <path class="st0" d="M556.5,13.9c.7-.1.7-.2.7-2.4v-5.5c0-2.1,0-2.1-.5-2.3-.3-.1-.4-.2-.4-.6,1.1.2,2.8,0,4.2,0,2.3,0,4,1.6,4,3.1,0,3-2.8,3.9-5.1,3.5-.1,0-.2-.2,0-.2,2.3-.1,3.5-1.1,3.4-3.1,0-1.7-1.3-2.9-4-2.3v7.1c0,1.8.5,2.7,1.5,2.8-.1.4-.2.5-.4.5h-3.6c0-.3.1-.5.3-.5h0Z"/>
  <path class="st0" d="M577,8.7c0,3.1-2,5.9-5.8,5.9s-5.7-2.5-5.7-5.7,2.5-6,5.7-6,5.8,2.5,5.8,5.8ZM567.3,8.6c0,3,1.7,5.2,4.1,5.2s4-1.7,4-4.8-1.4-5.4-4.2-5.4-3.9,1.9-3.9,5h0Z"/>
  <path class="st0" d="M582,3.1c0,.4-.1.5-.3.5-.7,0-.8,0-.8,2.1v7.6c0,.1,0,.3.2.3.4,0,1.2,0,1.8,0,2.4-.1,2.6-.6,3.3-2.1,0-.2.4,0,.3.1l-.8,2.6c0,.1,0,.2-.3.2-.5,0-1.3,0-2.5,0h-4.2c-.2,0-.3-.1,0-.2.6-.3.7-.4.7-2.2v-5.9c0-2.4,0-2.4-.9-2.4-.2,0-.2-.2-.2-.5h3.7Z"/>
  <path class="st0" d="M606.7,13.9c-.4.4-.5.5-.7.8-.2.2-.3.3-.7.3-2.2.1-6.2.3-8.7-.9-1-.5-1.8-1.2-2.4-2.2l-.2.6c-.4,1.2-1,2.2-1.6,2.8-.2.2-.3,0-.3-.1.4-.9.7-2.1,1-3.4.2-1.2.3-2.7.3-3.8l.9.2c.3,0,.4.2.4.4,0,.8-.2,1.6-.3,2.4.3.5.6.9,1.1,1.2v-5.3h-2.6c-.3,0-.3-.2-.6-.8h3.1v-2h-2c-.2,0-.3-.2-.6-.8h2.6V1.1l1,.2c.2,0,.3,0,.3.2v1.9h1c.3,0,.4-.1.7-.4.3.3.6.5.6.7,0,.3-.3.5-.8.5h-1.4v2h1.4c.3,0,.4-.1.7-.5.3.3.6.5.6.8s-.3.5-.8.5h-1.7v2.2h1c.3,0,.4-.1.7-.4.3.3.6.5.6.8s-.3.5-.8.5h-1.4v3c.2,0,.4.2.6.2,2.7.9,6.3.7,9.2.4.2,0,.2,0,.2.2h0ZM598.9,1.8h4.5c.3,0,.5-.1.7-.4l.8.3c.9.3.4.8.4,1-.1,1.8-.2,3.8-1.4,4.1-.7.2-.7-.4-1.6-.9-.1,0,0-.2.1-.2,1.1,0,1.2,0,1.4-.6.2-.5.2-1.6.3-2.5h-1.7c-.1,1-.4,2.3-.9,3-.5.8-1,1.3-1.7,1.8l.8.2c.2,0,.3.2.3.2h2.3c.4,0,.6-.2.8-.5l1,.3c.7.2.2.8.2,1.1v3.7c0,.6-.6.9-1.2.7v-1.1h-3.1v.5c0,.7-.6,1-1.2.8v-5.8c-.4.2-.8.4-1.2.6-.3.1-.4-.1-.2-.2,1.2-.9,1.9-1.6,2.4-2.8.3-.8.5-1.5.5-2.4h-1.7c-.2,0-.3-.3-.5-.8h0ZM600.9,8.7v2.6h3.1v-2.6h-3.1Z"/>
  <path class="st0" d="M616.2,6.1v8.3c0,.8-.6,1.2-1.2.8-.5-.3-1-.6-1.6-.8-.2,0-.2-.2,0-.2.5,0,1.3,0,1.4,0,0,0,0-.1,0-.2v-8h-.8v6.6c0,.7-.5.9-1.2.7v-7.3h-.9v6.9c0,.7-.5,1-1.2.8v-7.7h-.9v8.7c0,.6-.5.9-1.2.8V4.7l.9.2c.2,0,.3.1.3.2h1c.2-.6.4-1.6.6-2.2h-3.1c-.2,0-.3-.2-.6-.8h7.5c.3,0,.4-.2.7-.5.3.3.6.5.6.8,0,.3-.3.5-.9.5h-2.9c-.3.6-.8,1.6-1.1,2.2h2.3c.3,0,.5,0,.7-.4l.9.3c.7.2.2.7.2,1h0ZM622.6,5c0,.4-.3.5-.8.5h-1v9c0,.8-.7,1.2-1.3.6-.5-.4-1.2-.8-1.6-.9-.2,0-.2-.2,0-.2.4,0,1.5,0,1.6,0,0,0,0,0,0-.1V5.6h-2.3c-.2,0-.3-.2-.6-.8h2.9V1l1,.2c.2,0,.3.1.3.2v3.3h.6c.3,0,.4-.2.7-.5.4.4.6.6.6.8h0ZM617.7,9.7c-.2-1-.4-1.8-.7-2.6,0-.1.1-.3.3-.1.7.7,1.4,1.6,1.5,2.2.3,1.3-.8,1.8-1.1.5Z"/>
  <path class="st0" d="M626.3,11c-.3,1.7-.9,3.3-1.8,4.3-.2.2-.4,0-.3-.2.6-1.4,1-3.3,1.1-5,.2-2.2.1-4.5,0-8.2l1,.2c.2,0,.3,0,.3.2h4.9,0c-.3-.4-.6-.7-1-1.1-.1-.2,0-.3.2-.3.7.1,1.4.3,1.7.5.3.3.3.7,0,.9h4.2c.3,0,.4-.1.7-.4.3.3.6.5.6.7,0,.3-.3.5-.8.5h-10.5v2.9c0,1.6,0,3.5-.3,5h0ZM637.7,9.5c0,.3-.3.5-.8.5h-5.5c-.2.3-.6.8-1,1.2h4.1c.3,0,.4-.1.6-.4l1.1.4c.6.2.1.5.1.8v2.6c0,.6-.7.9-1.3.8v-1h-4.8v.2c0,.7-.7.9-1.3.8v-2.9c-.9.7-1.9,1.2-2.4,1.3-.2,0-.4-.2-.1-.3.7-.4,1.5-1.1,2.2-1.8.6-.5,1.1-1.2,1.5-1.7h-2.7c-.3,0-.3-.2-.6-.8h9.7c.3,0,.4-.2.7-.5.3.3.6.5.6.8ZM631.2,5.1h-1.1v2.9c0,.6-.5.9-1.1.7v-3.7h-1.5c-.3,0-.4-.1-.6-.7h2.1v-1.1l.9.2c.2,0,.2.1.2.2v.8h.7c.2,0,.4-.1.6-.4.3.3.5.5.5.7,0,.3-.2.5-.8.5h0ZM627,8.5c.4-.8.6-1.9.5-3.1h.7c.3.2.3.3.3.5,0,1-.5,2.1-1.3,2.8-.2.1-.4,0-.3-.1h0ZM630.2,12v1.6h4.8v-1.6h-4.8ZM631.3,5.6c.2,0,.2.1.2.2v1.7c0,.5-.5.7-1,.7v-2.8l.8.2h0ZM633.3,5.5c.3,0,.3.1.3.3,0,1.2-.5,2.2-1.3,2.7-.2.1-.4,0-.3-.2.5-.9.5-1.8.5-3h.7ZM634,8.8v-3.8h-1.3c-.2,0-.3-.1-.5-.7h1.9v-1.1l.8.2c.2,0,.2.1.2.2v.7h1c.2,0,.3-.1.6-.4.3.3.5.5.5.7,0,.3-.3.5-.8.5h-1.4v3.1c0,.6-.5.8-1.1.7h0ZM637.9,7.9c-.3.1-.7.2-1.2.2-1.1,0-1.2-.2-1.2-1.7v-.9l.8.2c.2,0,.2.1.2.2v.9c0,.3,0,.4.2.5.3,0,.5,0,.6-.2v-.3c.1,0,.2,0,.3,0,.1.2.2.4.4.6.3.2.2.5,0,.7Z"/>
  <path class="st0" d="M654.5,12.6c-1.2.7-1.2.8-1.7.4-2-1.6-3.6-3.9-4.6-6.5v8.1c0,.8-.7,1-1.4.9V6.9c-1.2,2.9-3.6,5.5-6.3,6.7-.2.1-.4-.1-.2-.3,2.6-2,4.7-4.8,5.8-7.8h-4.7c-.3,0-.4-.2-.7-.9h6V.9l1.1.2c.2,0,.3.1.3.2v3.2h4.4c.3,0,.5-.2.7-.5.4.3.6.6.6.8s-.3.5-.9.5h-4.6c1.2,2.8,3.3,5.2,5.9,6.9.2.1.3.2,0,.3h0Z"/>
  <path class="st0" d="M661.7,11.4c-1.3.9-2.9,1.7-4.3,2.5-.5.3-.5.1-1.5-.8.8-.3,1.6-.5,2.4-.8v-5.7h-1.5c-.3,0-.4-.2-.7-.9h2.2V1.1l1,.2c.1,0,.3.1.3.2v4.3h.8c.2,0,.4-.1.7-.5.4.3.6.6.6.8,0,.3-.3.6-.8.6h-1.3v5.3c.7-.3,1.3-.5,1.9-.8.2,0,.4.2.2.3h0ZM670.3,14.5c-.9.5-3.2.6-5.1.5-3.1-.2-3.1-.4-3.1-3.5v-3.4l-1,.5c-.3.2-.6,0-1.1-.5l2-1V3l1,.2c.3,0,.3.2.3.4v2.9l1.6-.8V1l1,.2c.2,0,.3,0,.3.2v3.7l1.2-.6c.3-.1.4-.4.5-.6l.8.2c.9.3.5.7.5.9-.1,2.9,0,5.1-.8,6.1-.3.4-.7.4-1,.1-.3-.3-.5-.4-.8-.6-.1,0-.1-.2,0-.2.9,0,1,0,1.2-1,.2-.8.2-2.7.2-4.1l-1.8.9v5.6c0,.7-.6,1-1.2.8v-5.8l-1.6.8v4.9c0,1.2.2,1.4,1.8,1.4,1.2,0,2.9,0,3.6-.2.3-.1.5-.3.6-.8l.2-.9c0-.2.2-.2.2,0,.2.9.2,1.3.6,1.6.4.3.1.7,0,.9h0Z"/>
  <path class="st0" d="M675.9,7v7.6c0,.8-.6,1-1.2.8v-7.9c-.5,1.7-1.2,3.2-2.3,4.3-.2.2-.3,0-.3-.2,1-2,1.7-4,2.1-6.2h-1.4c-.3,0-.3-.2-.6-.9h2.5V1l.9.2c.2,0,.3.1.3.2v3.1h.8c.3,0,.5-.1.7-.5.4.3.6.6.6.8,0,.3-.3.5-.8.5h-1.2v.9c.9.6,1.4,1,1.8,1.7.7,1-.2,2-.7,1.1-.4-.8-.8-1.5-1.1-2h0ZM686.4,14.6c-.4.2-.6.3-.8.4-.3.1-.5.1-.8,0-.8-.6-1.8-1.5-2.5-2.5-1,1.2-2.8,2.5-4.5,2.9-.2,0-.3-.2-.1-.3,1.6-.8,3.2-2.2,4.1-3.4-.8-1.5-1.3-3.3-1.5-5.1h-.5c0,1.2,0,2.8-.4,4.5-.4,1.9-1.7,3.8-3,4.4-.2,0-.4,0-.2-.3,1.1-1.1,1.8-2.8,2.1-4.4.4-2.3.3-5.2.2-9.2l1.1.2c.2,0,.3.1.3.2h0s4.5,0,4.5,0c.3,0,.5-.2.8-.5.4.4.6.6.6.8,0,.4-.4.6-.9.6h-5v2.7h3.6c.4,0,.5-.1.8-.4l.5.4c.5.3.5.5.4.8-.2,1.1-.7,3.2-2,5.1.8,1,1.9,2,3.4,2.9.2.1.2.2,0,.3h0ZM680.9,6.4c.4,1.5.8,2.9,1.5,4.1.7-1.4,1.1-2.8,1.3-4.1h-2.8Z"/>
  <path class="st0" d="M201.7,36.6c-.4.3-1.4,1-2.5,1.6v6.3c0,.8-.7,1.3-1.3.7-.6-.6-1.2-.8-1.6-.9-.2,0-.2-.3,0-.2.4,0,1.4,0,1.5,0,0,0,0,0,0-.1v-4.9l-1.4.8c-.4.2-.5.2-1-.3l-.6-.6c.9-.3,1.9-.7,2.9-1.1v-2.9h-2.1c-.3,0-.4-.1-.6-.8h2.8v-3.1l1,.2c.2,0,.3.1.3.3v2.6h1c.3,0,.5-.2.8-.6.4.4.7.6.7.9,0,.4-.4.6-1,.6h-1.4v2.3c.9-.4,1.7-.7,2.3-1,.2-.1.4,0,.2.3h0ZM209.5,33c0,.4-.3.5-.9.5h-2.3v10.9c0,.8-.7,1.4-1.5.8-.6-.5-1.5-.8-1.9-.9-.2,0-.1-.3,0-.3.4,0,1.9,0,1.9,0,.1,0,.1,0,.1-.1v-10.4h-3.3c-.3,0-.4-.2-.7-.9h7.1c.3,0,.4-.1.8-.5.4.4.6.5.6.8h0Z"/>
  <path class="st0" d="M225.7,43.8c-.3.3-.5.5-.8.9-.2.2-.3.3-.7.3-.9,0-1.9.1-2.9.1-3,0-5.5,0-7.2-2.5-.5.7-1,1.5-1.5,2-.4.5-.5.5-1.5-.4.9-.6,1.8-1.3,2.4-1.9v-3.3h-1.6c-.3,0-.3-.2-.6-.8h1.7c.3,0,.4-.1.6-.3l.9.3c.7.3.3.6.3.9v3.2c1.9,1.8,4.2,1.7,6.6,1.6,1.8,0,3.4-.2,4.2-.3.2,0,.2.1.2.2ZM211.7,34.8c0,0,0-.4.2-.3.6.3,1.5.5,2.1,1.2.7.8-.1,1.8-.8,1-.5-.6-1-1.3-1.5-1.9h0ZM212.5,32.1c-.2-.2,0-.3.2-.3.9.3,1.4.5,2,.9.9.8.1,2.1-.7,1.1-.4-.5-1-1.2-1.4-1.7ZM215.7,35.8c.3-.6.6-1.3.8-2.1.2-.7.4-1.3.5-1.9l.9.4c.3.2.3.2.2.5-.2.3-.3.6-.4.8h1.7v-2.5l1,.2c.2,0,.3.1.3.2v2.1h2.1c.3,0,.5-.2.7-.4.3.3.6.5.6.8s-.3.5-.8.5h-2.6v2h3.3c.3,0,.4-.1.8-.5.3.3.6.5.6.8s-.3.5-.9.5h-8.9c-.3,0-.3-.2-.7-.8h4.4v-2h-2.2c-.4.7-.8,1.2-1.3,1.6-.2.2-.3,0-.2-.2h0ZM222.2,43.2v-.9h-4.2c0,.8-.6,1-1.3.9v-5.2l1,.2c.2,0,.2.1.2.2h3.5c.3,0,.4,0,.7-.3l1.1.3c.6.2.2.6.2.8v3.3c0,.6-.6.8-1.3.7h0ZM222.2,41.5v-2.3h-4.2v2.3h4.2Z"/>
  <path class="st0" d="M241.6,37.2c-.4.2-.7.3-.9.4-.4.2-.5.1-1.1-.2-.8-.5-3-2.1-4.9-4.2-1,1.2-2.2,2.4-3.8,3.4h5.9c.3,0,.4-.1.8-.5.4.4.6.5.6.8,0,.4-.3.6-.9.6h-2.2v2.7h2.4c.3,0,.5-.2.8-.5.4.3.6.5.6.8,0,.4-.3.6-.9.6h-2.9v2.9h4.5c.3,0,.5-.2.8-.5.4.4.7.6.7.8,0,.4-.4.6-.9.6h-11.8c-.3,0-.4-.2-.7-.9h6v-3h-3.3c-.3,0-.4-.1-.7-.8h3.9v-2.7h-2.3c-.2,0-.3-.1-.6-.8-1,.6-2.1,1.2-3.3,1.7-.2,0-.3-.2-.1-.3,2.4-1.5,4.8-3.7,6.4-5.8h-.1c-.3-.4-.7-.7-1.1-.9-.1,0-.2-.1,0-.2.1,0,.4-.1.6-.1.3,0,.5,0,.6.2.5.5,1,1.1,1.6,1.6,2,1.9,3.8,3.2,6,4.2.2,0,.2.2,0,.2h0Z"/>
  <path class="st0" d="M257.5,44.4c0,.4-.4.6-.9.6h-12.6c-.3,0-.4-.2-.7-.9h6.4v-2h-3.9c-.3,0-.4-.2-.7-.8h4.6v-1.8l1.1.2c.2,0,.3.1.3.2v1.4h2.8c.3,0,.5-.2.8-.5.3.3.6.5.6.7,0,.4-.3.6-.9.6h-3.3v1.9h5c.3,0,.5-.2.8-.5.4.3.7.5.7.8h0ZM243.8,34.6c.4-.4,1.2-1.1,1.5-2.1,0-.2.3-.1.3,0,0,.1,0,.2,0,.3h4.8c-.1,0-.3-.2-.4-.4-.3-.4-.7-.9-1-1.3-.1-.2,0-.3.2-.3.8.2,1.4.4,1.8.8.4.4.4,1,0,1.2h4.2c.4,0,.6,0,.9-.3l.7.7c.3.3.3.4.1.6-.7.5-1.4,1-1.8,1.3-.2.1-.4,0-.3-.2.2-.3.4-.8.6-1.2h-10c0,.4-.1.9-.3,1.1-.9,1.7-2.5.6-1.5-.3h0ZM248.8,36.1h-3c-.3,0-.3-.2-.7-.8h8.2c.3,0,.4-.1.7-.5.4.3.6.5.6.7,0,.3-.3.5-.8.5h-3.5c-.6.8-1.6,1.8-2.5,2.4,1.8-.1,3.6-.3,4.9-.4-.4-.3-.8-.7-1.2-1.1-.2-.2,0-.4.2-.3,1.7.6,2.9,1.3,3.4,1.8.9.9.3,2.1-.8,1.1-.4-.4-.7-.7-1.1-1-2.4.7-5.6,1-7.2,1.2-.5,0-.6,0-1.2-1.1h1.9c.8-.8,1.5-1.8,2-2.6h0Z"/>
  <path class="st0" d="M259.8,42.6c0-.9.6-1.1,1.5-1.1,0,.8,0,1.1.2,1.5.3.6,1,.8,1.7.8,1.9,0,2.2-1.2,2.2-2.5s-1.2-2.5-3.4-2.5c-.1-.3,0-.6.2-.6,1.2,0,2.7-.9,2.7-2.7s-.6-1.9-1.9-1.9-1.7,1.2-1.5,2.5c-1.1.2-1.7,0-1.5-1,.2-1.4,1.8-2.2,3.2-2.2,2.3,0,3.4,1.2,3.4,2.5s-.8,2.4-3.1,2.9c2.2,0,3.6,1.2,3.6,2.9s-1.9,3.3-4.2,3.3-3.1-.6-3.1-2h0Z"/>
  <path class="st0" d="M269.3,44.4c-.2,0-.2-.1,0-.2.4-.2.5-.5.5-2.2v-6c0-1.7,0-1.9-.3-2.1-.3-.1-.4-.2-.4-.7.5,0,.9.1,1.3.1,1.1,0,1.9-.1,3-.1,3.6,0,5.7,2.2,5.7,5.9s-2,5.5-5.8,5.4c-.7,0-1.4,0-2.4-.1-.6,0-.9,0-1.6.1h0ZM273.2,33.9c-.9,0-1.5,0-1.9.2v9.4c.6.1,1.5.2,2.3.1,2.7-.2,3.7-1.7,3.7-4.6s-1.6-5.2-4.1-5.2h0Z"/>
  <path class="st0" d="M287.7,41.1c.2,1,.4,1.8.4,2.3,0,.8-.5,1.5-1,1.5-.5,0-.9-.4-.7-1,.2-.8.8-1.8.7-2.5,0-.5-.6-.7-1.5-.8-.2,0-.3-.3,0-.3.8,0,1.1-.2,1.3-.7.6-1.2,1.6-3.9,2.2-5.6.1-.3.4-.2.4,0-1.2,4.3-2,6.1-1.8,7.1h0ZM285.5,34.9c-.1-.2,0-.4.2-.3.7.4,1.3.6,1.7,1.1.8.8-.2,2-.8,1.1-.4-.7-.8-1.3-1.1-1.9ZM286.6,31.5c-.1-.2,0-.4.2-.3.7.3,1.3.6,1.6,1,.7.7,0,2-.8,1.1-.5-.6-.8-1.4-1.1-1.8ZM298.9,45.4c-.8-.4-1.8-1.3-2.6-2.8-.8,1.1-1.8,2.1-3.2,2.7-.2,0-.4-.1-.2-.3,1.2-1.1,2.2-2.3,2.9-3.5,0,0,0,0,0,0-.4-1.1-.6-3.7-.6-6.9h-4.2v2.6c0,3.9-.9,7-2.6,8.2-.2.1-.4,0-.3-.2.5-1,1-2.2,1.3-3.5.4-2.1.4-5.1.4-8.3l1,.2c.2,0,.3.1.3.2h4.2c0-.9,0-1.6,0-2.7l1,.2c.2,0,.2.1.2.3,0,1,0,1.5,0,2.2h1.8c.3,0,.5-.2.7-.5.4.4.6.5.6.8s-.4.5-.9.5h-2.3c0,2.4.1,4.2.3,5.4.4-1.1.9-2.5,1.1-3.9l.8.4c.3.2.3.2.3.5-.3,1-.9,3-1.8,4.5.3.9.8,1.6,1.4,2.1,0,0,.1,0,.2,0,.1-.1.3-.8.4-1.4,0-.1.2-.1.2,0,0,.7,0,1.9.3,2.4.2.5.1,1.2-.7.8ZM291.1,36.2h2.5c.3,0,.4-.2.7-.5.4.4.6.5.6.8,0,.4-.3.5-.8.5h-2.4c-.2,0-.3-.1-.6-.8h0ZM292.4,42.1v.5c0,.7-.7.8-1.1.7v-5.2l.8.2c.2,0,.3.1.3.2h.5c.2,0,.4,0,.5-.3l1,.3c.5.2.1.5.1.8v2.9c0,.6-.5.8-1.1.7v-.8h-1.1,0ZM292.4,39.2v2.1h1.1v-2.1h-1.1ZM296.9,31.5c0-.1,0-.3.2-.2.5.2,1.1.5,1.4.8.7.8-.3,1.8-.9.9-.3-.5-.5-1.1-.7-1.4h0Z"/>
  <path class="st0" d="M315.7,36.8c0,.4-.3.6-.9.6h-12.8c-.3,0-.4-.2-.7-.9h8.3c.4-.7.9-2.1,1.1-2.9l.9.6c.4.2.4.3.2.5-.3.4-1,1.2-1.5,1.8h4c.3,0,.5-.2.8-.5.4.4.7.6.7.8h0ZM302.6,32.7h5.9c-.1,0-.3-.2-.4-.3-.3-.4-.7-.9-.9-1.3-.1-.2,0-.3.2-.3.8.2,1.5.4,1.8.7.4.4.3.9,0,1.1h3.6c.3,0,.4-.1.8-.5.3.4.6.6.6.8,0,.4-.3.6-.9.6h-10c-.3,0-.4-.1-.7-.8h0ZM312.6,39.5v5.1c0,.6-.6.9-1.3.8v-1h-5.5v.2c0,.7-.6.9-1.3.9v-7.3l1,.2c.2,0,.3.1.3.2h0s4.7,0,4.7,0c.3,0,.5-.1.8-.4l1.2.3c.6.2.2.7.2,1h0ZM307.3,35.1c.6,1-.6,1.7-1,.9-.3-.5-.7-1.6-.9-2.1,0-.2,0-.3.3-.2.8.4,1.4.9,1.7,1.3h0ZM305.8,39.4v1.7h5.5v-1.7h-5.5ZM311.2,43.6v-1.6h-5.5v1.6h5.5Z"/>
  <path class="st0" d="M330.6,44.7c-.9.4-2.5.5-4.7.4-3-.1-3-.5-3-2.5v-2.1h-4.6c-.3,0-.4-.2-.7-.9h5.3v-2.3c-1.5.2-3.1.3-4.2.3s-.3-.3,0-.3c1.3-.2,2.8-.5,4.3-.9,1.8-.4,3.5-1,4.3-1.3l.5.6c.3.4.3.5,0,.6-.5.2-2.1.5-3.4.8v2.6h4.9c.4,0,.6-.2.9-.5.4.3.7.6.7.9,0,.4-.3.6-.9.6h-5.5v2.7c0,.5,0,.7,1,.8,2.1.1,3.4,0,4.1-.1.3,0,.4-.3.5-.6l.2-1c0-.1.2-.1.3,0l.2.9c0,.3.1.4.4.6.4.3.2.7-.2.9h0ZM318.2,34.8c.5-.6,1-1.2,1.4-2.1,0-.2.3-.1.3,0,0,.1,0,.3,0,.4h4.7c-.2-.1-.4-.3-.5-.5-.3-.5-.7-1-.9-1.4-.1-.2,0-.3.2-.3.8.2,1.4.5,1.8.8.5.4.4,1.1,0,1.4h4c.4,0,.6,0,.8-.3l.6.6c.4.3.3.5.1.6-.6.6-1.4,1.3-1.8,1.6-.2.1-.3,0-.2-.2.1-.3.4-.9.6-1.4h-9.6c0,.4-.2.8-.3,1.1-.7,1.4-2.1.5-1.4-.2h0Z"/>
  <path class="st0" d="M339.7,40.8c.9-.6,1.3-1.4,1.4-1.9,0-.3-.2-.4-.5-.4-.6,0-1.1-.5-1.1-1.2s.6-1.2,1.3-1.2,1.6.6,1.6,1.7c0,1.5-.8,2.9-2.4,3.5-.4.2-.5-.2-.2-.4h0Z"/>
  <path class="st0" d="M353.7,34.8h-4c-.2,0-.3-.1-.5-.8h4c.3,0,.5-.1.8-.5.4.3.6.5.6.7,0,.4-.3.5-.8.5ZM349.7,36h2.8c.3,0,.5-.1.7-.5.4.3.6.5.6.8,0,.4-.3.5-.8.5h-2.8c-.3,0-.3-.1-.6-.8h0ZM349.8,38h2.8c.3,0,.4-.1.7-.5.4.3.6.5.6.7,0,.4-.3.5-.8.5h-2.7c-.2,0-.3-.2-.6-.8h0ZM353.7,41.1v3c0,.7-.5.9-1.2.9v-.7h-1.5c0,.9-.5,1.1-1.2,1v-5.5l.9.2c.1,0,.3.1.3.2h.8c.3,0,.4-.1.6-.4l1,.3c.7.2.2.6.2,1h0ZM350.7,31.2c0-.2,0-.3.3-.2.6.3,1.2.8,1.4,1.3.5,1-.5,2-1,.8-.2-.5-.6-1.5-.7-1.9ZM352.5,43.3v-2.4h-1.5v2.4h1.5ZM363.7,44.8l-.6.3c-.4.2-.5.2-.9,0-.4-.2-.9-.5-1.7-1.3-.6-.6-1.4-1.9-1.7-3h-.4c-.2.3-.4.5-.6.7v2.2c.6-.3,1.1-.5,1.5-.7.2,0,.3.1.2.3-.7.6-2.1,1.6-3.2,2.2-.3.2-.5,0-1.3-.7.6-.2,1.1-.4,1.5-.6v-1.8c-.8.5-1.8,1-2.4,1.2-.3,0-.4-.2-.1-.3.7-.4,1.6-1.1,2.3-1.7.3-.2.5-.6.8-.9h-2.3c-.2,0-.3-.1-.5-.7h2.5v-.7h-1.1c-.2,0-.3-.1-.5-.7h1.6v-.8h-1.6c-.2,0-.3,0-.5-.7h2.2v-.8l.9.2c.2,0,.2,0,.2.2v.5h1.6v-.8c0,0-.1,0-.2,0v-2.8l.8.2c.1,0,.2.1.2.1h0s.7,0,.7,0c.2,0,.3,0,.5-.3l.8.2c.6.2.2.5.2.8v1.2c0,.6-.5.7-1,.6v-.4h-1.3c-.1.2-.4.4-.7.4l.9.2c.2,0,.2.1.2.2v.4h1c.3,0,.4-.1.7-.4.3.3.5.4.5.7s-.3.4-.8.4h-1.5v.8h.7c.3,0,.4-.1.7-.4.3.3.5.4.5.6,0,.3-.2.4-.7.4h-1.1v.7h1.8c.3,0,.4-.1.7-.4.3.3.5.5.5.7,0,.3-.3.5-.8.5h-3.5c.2.6.6,1.1.9,1.5.5-.4,1.1-1,1.5-1.4l.6.5c.3.2.3.3,0,.5-.3.2-1.1.5-1.8.8,0,0,.1.1.2.2.9.8,1.7,1.3,2.8,1.8.2,0,.1.2,0,.2h0ZM354.1,32.5h4.5s-.1,0-.1-.2c-.3-.4-.6-.8-.8-1.1-.1-.1,0-.3.2-.3.7.2,1.1.3,1.5.7.3.3.2.7,0,.9h3c.3,0,.4-.1.7-.4.3.3.5.5.5.7,0,.3-.3.5-.8.5h-8c-.2,0-.3-.2-.6-.8h0ZM357.4,36.4v-.4h-1.3c0,.5-.5.7-1,.6v-3l.8.2c.2,0,.2,0,.2.1h0s.8,0,.8,0c.2,0,.3-.1.5-.3h0s0,0,0,0l.8.2c.6.2.2.5.2.8v1.1c0,.6-.4.7-1,.7h0ZM357.4,35.4v-.9h-1.3v.9h1.3ZM357.8,38.6h1.6v-.8h-1.6v.8ZM357.8,40h1.6v-.7h-1.6v.7ZM360.3,34.5v.8h1.2v-.8h-1.2Z"/>
  <path class="st0" d="M379.5,43.4l-.9.5c-.3.2-.4.2-.9-.2-1.3-.9-2.5-2.1-3.5-3.4,0,.1,0,.2,0,.3.5,2.2-.3,4.1-1,4.7-.5.5-.9.4-1.3,0-.3-.3-.6-.5-1.2-.8-.1,0,0-.2.1-.2,1.2,0,1.3.1,1.6-.2.5-.6.7-2,.6-3.2-.5.5-1.2,1.2-1.9,1.6-1.4.9-2.9,1.9-5.3,2.5-.3,0-.4-.2-.2-.3,1.9-.9,3.3-1.8,4.8-3,.9-.8,1.6-1.5,2.2-2.2,0-.3-.2-.6-.3-.8-1.1,1-3.3,2.8-6.1,3.4-.2,0-.3-.2-.1-.3,1.8-1,2.7-1.5,3.8-2.5.7-.5,1.3-1.2,1.8-1.7-.1-.2-.3-.4-.4-.5-.2.1-.4.3-.6.5-1.2.9-2.8,1.6-4.3,1.9-.3,0-.3-.2-.1-.3,1.3-.6,2.3-1.3,3.1-1.9.8-.6,1.3-1.1,1.7-1.5h-2.7c-.3,0-.3-.1-.6-.8h7.4c.3,0,.5-.1.8-.5.4.4.6.5.6.8,0,.4-.3.5-.9.5h-3.1c-.2.3-.5.5-.8.8.5.4.9.8,1.2,1.2.2.2.3.5.5.7,1.2-.7,2.6-1.6,3.3-2.4l.7.6c.4.3.3.4,0,.6-.6.3-2.2,1.1-3.7,1.7.2.2.4.5.6.7,1.2,1.2,2.8,2.5,4.9,3.5.2,0,.2.2,0,.2h0ZM366.2,34.3c.4-.4,1-1.1,1.4-2,0-.2.3-.1.3,0v.4h4.8c-.1,0-.2-.2-.4-.3-.3-.4-.6-.8-1-1.3-.1-.2,0-.3.2-.3.8.2,1.4.4,1.8.7.4.3.3.9,0,1.2h4.1c.4,0,.6,0,.9-.3l.6.7c.3.3.2.4,0,.5-.6.5-1.2,1-1.6,1.2-.2.1-.4,0-.3-.2.2-.3.4-.8.5-1.1h-9.8c0,.4-.1.7-.3.9-.7,1.6-2.3.6-1.4-.2h0Z"/>
  <path class="st0" d="M394.5,33.1v11.4c0,.7-.7,1-1.3.8v-1.9h-9.3v1.1c0,.7-.6,1-1.3.8v-13.6l1,.2c.2,0,.3.1.3.2h8.4c.4,0,.6-.2.9-.5l1.1.3c.7.2.2.7.2,1.1ZM393.2,42.5v-9.4h-9.3v9.4h9.3ZM391.4,36.1v3.9c0,.7-.6,1-1.3.8v-.8h-3.1v.2c0,.7-.6,1-1.3.8v-6.3l1,.2c.2,0,.3.2.3.2h2.3c.3,0,.5-.1.7-.4l1,.3c.7.2.2.7.2,1ZM390.2,39.1v-3.2h-3.1v3.2h3.1Z"/>
  <path class="st0" d="M403.7,42.6c-.8.5-3.9,1.8-4.9,2.1-.4.1-.5.2-.8-.2l-.6-.7c.3,0,.7-.1,1-.2v-3.6l.9.2c.2,0,.2.1.2.2v2.9l.8-.2v-4.5h-.8c0,.6-.6.8-1.2.7v-7.4l.9.2c.2,0,.2.1.2.2h0s.3,0,.3,0c.2-.5.3-.9.4-1.5l.8.4c.3.2.3.3.1.5-.2.2-.4.4-.6.7h.7c.3,0,.4,0,.6-.3l1,.3c.5.2.1.5.1.8v1.7c0,.5-.6.8-1.2.6v-.4h-2.3v1.1h1.8c.3,0,.4-.1.6-.3l.9.3c.5.2.2.5.2.8v1.5c0,.6-.6.8-1.1.7v-.4h-.5v1.6h1c.2,0,.4-.1.6-.4.3.3.5.5.5.7,0,.3-.3.5-.8.5h-1.4v1.8c.8-.2,1.5-.4,2-.6.2,0,.4.1.2.3h0ZM399.5,33.1v1.2h2.3v-1.2h-2.3ZM399.5,36.9v1.1h2.4v-1.1h-2.4ZM411.4,37.6c-.5.5-1,.9-1.4,1.2-.1.1-.3,0-.3-.2.1-.3.3-.7.4-1h-2.1v1.6h.7c.3,0,.4-.1.6-.3l.9.3c.6.2.2.6.2.9v3.3c0,.6-.5,1.1-1.1.7-.4-.3-.8-.5-1.2-.7-.1,0-.1-.2,0-.2.5,0,.8,0,1,0,0,0,0,0,0-.1v-3h-1.3v4.8c0,.6-.6.9-1.2.7v-5.5h-1.2v3.2c0,.7-.6.9-1.2.7v-5c-.7.7-1.6-.1-.7-.9.5-.4.8-.8,1.1-1.6,0-.2.3-.1.3,0v.4h4.9c.3,0,.4-.1.7-.3l.6.5c.4.3.3.4.1.6h0ZM411.7,33.6c0,.4-.3.5-.8.5h-.8v1.4c0,.6-.6.8-1.2.7v-.5h-3.7c-.3,0-.4-.2-.6-.8h4.3v-.8h-4.7c-.2,0-.3-.2-.6-.8h5.3v-.9h-3.7c-.3,0-.4-.2-.6-.8h3.6c.3,0,.5,0,.7-.3l.9.3c.7.2.3.5.3.8v.8h.3c.3,0,.5-.1.7-.4.3.3.6.5.6.7h0ZM406.8,37.6h-1.8c0,.1,0,.2,0,.3-.1.4-.2.7-.4.9l.8.2c.2,0,.3.1.3.2h1.2v-1.6h0Z"/>
  <path class="st0" d="M427.6,37.6c0,.4-.3.6-1,.6h-2.6c-.3,1.2-.9,2.8-1.8,3.8,1.3.5,2.5,1.1,3.3,1.7,1.2.8,1,2.6-.7,1.3-.9-.7-2.2-1.5-3.4-2.2-1.4,1.2-3.6,2.4-6.9,2.6-.4,0-.3-.3-.1-.3,2.7-.8,4.7-1.7,5.9-2.9-.9-.5-1.7-.8-2.3-1.1-.3.5-.5.6-.9.6-.3,0-.6-.1-.9-.3.6-.7,1.2-2,1.9-3.3h-3.9c-.3,0-.4-.1-.7-.9h5c.5-1.1.9-2.2,1.1-3l.8.4c.4.2.5.3.4.6-.2.6-.5,1.3-.8,2.1h6.2c.3,0,.5-.2.8-.6.4.4.7.6.7.8h0ZM414.3,34.6c.6-.6,1.2-1.3,1.4-2.1,0-.2.3-.1.3,0v.4h4.5c-.1,0-.3-.2-.4-.4-.3-.4-.7-.9-1-1.3-.1-.2,0-.3.2-.3.9.2,1.4.4,1.9.8.4.4.4,1,0,1.2h3.7c.4,0,.5-.1.8-.4l.8.6c.4.3.3.5.1.6-.6.5-1.4,1.2-1.9,1.5-.2.1-.4,0-.3-.2.2-.3.4-.9.6-1.4h-9.1c0,.4-.1.8-.3,1.1-.8,1.5-2.2.5-1.4-.3ZM422.6,38.1h-3.1c-.4.9-.9,1.8-1.2,2.5.7.2,1.6.5,2.7.8.6-.7,1.2-1.9,1.6-3.3h0Z"/>
  <path class="st0" d="M435.4,37h-5.6c-.2,0-.3-.2-.5-.8h2.8v-.9h-1.7c-.2,0-.3-.1-.5-.8h2.3v-1h-2.1c-.2,0-.3-.2-.5-.8h2.6v-1.7l1,.2c.2,0,.3.1.3.3v1.2h1.3c.3,0,.4-.1.7-.4.3.3.5.5.5.7,0,.3-.3.5-.8.5h-1.8v1h1c.3,0,.4-.1.7-.4.4.3.6.5.6.7,0,.3-.3.5-.8.5h-1.4v.9h1.7c.3,0,.4-.1.7-.5.3.3.6.5.6.7,0,.4-.3.5-.8.5h0ZM435.2,38.7v5.8c0,.6-.5,1.2-1.2.8-.5-.3-1.4-.8-1.7-.9-.2,0-.2-.2,0-.2.5,0,1.5,0,1.6,0,0,0,0-.1,0-.2v-1.5h-2.4c0,.3,0,.5-.2.8-.2.8-.8,1.7-1.5,2.2-.2.1-.4,0-.2-.2.2-.4.6-1.2.7-1.9.1-.6.1-1.3.1-2.2,0-.9,0-2.5,0-3.6l1,.2c.2,0,.3.1.3.2h1.5c.3,0,.5-.1.7-.4l1,.3c.7.2.2.6.2.9h0ZM434,41.6v-1.1h-2.2c0,.4,0,.7,0,1.1h2.3,0ZM431.8,38.7v1.1h2.2v-1.1h-2.2ZM443.8,38.5c0,.4-.3.5-.8.5h-.7v2.2c0,.6-.6.8-1.2.7v-.7h-1.4v3.2c0,.8-.7,1.2-1.3.8-.4-.3-1.3-.7-1.8-.8-.2,0-.1-.2,0-.2.4,0,1.6,0,1.7,0,0,0,0,0,0-.1v-2.9h-1.8c-.2,0-.3-.3-.5-.8h2.4v-1.4h-2.2c-.2,0-.3-.2-.6-.8h2.8v-1.4h-1.6c-.3,0-.4-.2-.5-.8h4c.3,0,.5-.1.7-.4l1,.3c.6.2.2.7.2.9v1.3h.2c.3,0,.4-.1.7-.4.3.3.5.5.5.7h0ZM436.2,32.6c2.3-.5,3.9-.9,5.4-1.6l.4.5c.3.4.4.5-.2.7-1.2.3-4.1.7-5.6.7-.2,0-.3-.3,0-.3h0ZM438.1,34.6c.5.8-.5,1.9-.9.7-.1-.4-.5-1.3-.6-1.7,0-.1,0-.3.2-.2.4.3,1,.7,1.3,1.2h0ZM440.1,34.6c.2.9-.8,1.5-1,.4,0-.4-.3-1.3-.5-1.8,0-.1.1-.3.3-.1.4.3,1,.9,1.2,1.6ZM439.8,38.3h1.4v-1.4h-1.4v1.4ZM441.2,39.1h-1.4v1.4h1.4v-1.4ZM442.1,33c.4.2.4.3.3.6-.5.7-1.1,1.5-1.7,2.1-.1.1-.4,0-.3-.2.3-.6.7-2,.9-2.9l.7.4h0Z"/>
  <path class="st0" d="M459.7,41.9c-1.1.6-1.2.7-1.9.1-.6-.4-1.3-1-1.9-1.8-.8-1-2-2.6-2.7-4.3v5.1h1.4c.3,0,.5-.2.8-.6.4.4.7.5.7.9s-.3.6-1,.6h-1.9v2.7c0,.8-.6,1-1.3.9v-3.6h-2.5c-.3,0-.4-.2-.7-.9h3.2v-4.8c-.4,1-1,2-1.8,3-1.3,1.6-3,3.1-4.7,3.8-.3.1-.4-.2-.2-.3,1.6-1.2,3.2-2.9,4.3-4.7.7-1,1.2-2.1,1.6-3.1h-4.6c-.3,0-.4-.2-.7-.9h6v-3l1,.2c.2,0,.3.2.3.2v2.6h4.4c.3,0,.5-.2.8-.5.4.3.6.5.6.8s-.3.5-.9.5h-4.6c.4.9,1.1,2.2,2.1,3.4,1.1,1.4,2.5,2.6,3.9,3.3.2,0,.2.2,0,.3h0Z"/>
  <path class="st0" d="M461.6,37.6c-.2,0-.3-.2-.2-.3,1-.8,1.3-1.7,1.5-2.5.1-.8.1-2.1.1-3.1l.9.2c.2,0,.3.1.3.3,1.1-.3,2.1-.6,3.1-1.1l.6.6c.3.3.2.4,0,.4-.9.4-2.2.5-3.7.6,0,.3,0,.6,0,.9h3.1c.2,0,.4-.1.7-.4.4.3.6.5.6.7,0,.3-.3.5-.8.5h-.9v1.5c0,.6-.6.8-1.2.7v-2.2h-1.4c0,.4-.1.7-.2,1-.4,1-1.2,1.9-2.4,2.3h0ZM467.6,43.9c-.6.3-2.6,1.3-5.2,1.5-.3,0-.3-.3,0-.3,2-.7,3.7-1.5,4.6-2.3l.6.6c.3.3.3.4.1.5h0ZM471.7,43.2v-.5h-6c0,.7-.7.9-1.3.8v-6.8l1.1.2c.2,0,.3.1.3.2h5.3c.3,0,.5-.1.7-.3l1.1.3c.6.2.2.6.2.8v4.6c0,.7-.6.9-1.3.8h0ZM465.6,37.8v.9h6v-.9h-6ZM465.6,40.3h6v-.9h-6v.9ZM471.7,41.9v-.8h-6v.8h6ZM475.2,33.8c0,.4-.3.5-.8.5h-1.4v1.4c0,.6-.6.8-1.2.7v-2.1h-1.5c0,.1,0,.2,0,.3-.3,1-1.2,1.8-2.3,2.1-.2,0-.3-.2-.1-.3.8-.5,1.1-1.2,1.2-2,0-.5.1-1.7.1-2.7l.9.2c.3,0,.3.1.3.2,1.1-.3,2.2-.6,3.1-1.2l.6.6c.3.3.2.4,0,.5-1,.2-2.3.5-3.8.6,0,.3,0,.6,0,.8h3.6c.2,0,.4-.1.7-.4.3.3.6.5.6.7h0ZM473.2,45.2c-1.3-.8-2.3-1.2-3.4-1.8-.2,0-.1-.3.1-.3,1.8.2,3.1.5,3.9.9,1.3.7.9,2-.6,1.1h0Z"/>
  <path class="st0" d="M482.7,38.3c0-1.1.9-2,2-2s2,.9,2,2-.9,2-2,2-2-.9-2-2ZM486,38.3c0-.7-.6-1.2-1.2-1.2s-1.2.6-1.2,1.2.6,1.2,1.2,1.2,1.2-.6,1.2-1.2Z"/>
</svg>