<?xml version="1.0" encoding="UTF-8"?>
<svg id="_圖層_1" data-name="圖層_1" xmlns="http://www.w3.org/2000/svg" version="1.1" viewBox="0 0 660 17">
  <!-- Generator: Adobe Illustrator 29.4.0, SVG Export Plug-In . SVG Version: 2.1.0 Build 152)  -->
  <defs>
    <style>
      .st0 {
        fill: #333;
      }
    </style>
  </defs>
  <path class="st0" d="M2.1,14.8v-.9c1.2-1.2,2.2-2.2,3-3.1.8-.9,1.4-1.7,1.9-2.4.4-.7.6-1.4.6-2s0-.8-.2-1.2c-.2-.3-.4-.6-.7-.8-.3-.2-.7-.3-1.2-.3s-.9.1-1.4.4c-.4.3-.8.6-1.1,1l-.9-.8c.5-.5,1-1,1.5-1.3.6-.3,1.2-.5,2-.5s1.3.1,1.9.4c.5.3.9.7,1.2,1.2.3.5.4,1.1.4,1.8s-.2,1.5-.6,2.2c-.4.8-1,1.5-1.7,2.4-.7.8-1.5,1.7-2.4,2.7.3,0,.6,0,1,0,.3,0,.7,0,1,0h3.4v1.3H2.1h0Z"/>
  <path class="st0" d="M15.3,15c-.6,0-1.1-.1-1.6-.3-.5-.2-.9-.6-1.3-1-.4-.5-.6-1-.8-1.8-.2-.7-.3-1.5-.3-2.5s.1-2.1.4-3c.2-.8.6-1.5,1-2,.4-.5.9-.9,1.4-1.1.5-.2,1.1-.3,1.7-.3s1.2.1,1.6.3c.5.2.8.5,1.2.9l-.8.9c-.2-.3-.5-.5-.9-.7-.3-.2-.7-.2-1-.2-.6,0-1.1.2-1.5.5-.5.3-.8.9-1.1,1.6-.3.8-.4,1.8-.4,3.1s.1,1.8.3,2.4c.2.7.5,1.2.9,1.5.4.3.8.5,1.4.5s.7-.1,1-.3c.3-.2.6-.5.7-.9.2-.4.3-.8.3-1.3s0-.9-.2-1.3c-.2-.4-.4-.7-.7-.9-.3-.2-.7-.3-1.2-.3s-.8.1-1.2.4c-.4.3-.9.7-1.3,1.3v-1.2c.2-.3.5-.6.8-.8.3-.2.6-.4,1-.6.3-.1.7-.2,1-.2.7,0,1.3.1,1.8.4.5.3.9.7,1.2,1.2.3.5.4,1.2.4,2s-.2,1.4-.5,1.9c-.3.6-.7,1-1.2,1.3s-1.1.5-1.7.5h0Z"/>
  <path class="st0" d="M20.2,10.7v-1h7.2v1h-7.2Z"/>
  <path class="st0" d="M32.5,15c-.6,0-1.2,0-1.6-.2-.5-.2-.9-.4-1.2-.6-.4-.3-.7-.5-.9-.8l.8-1c.3.4.8.7,1.2,1,.5.3,1,.4,1.7.4s.9,0,1.3-.3c.4-.2.7-.4.9-.7.2-.3.3-.7.3-1.1s-.1-.9-.3-1.2c-.2-.3-.6-.6-1.2-.8-.5-.2-1.3-.3-2.2-.3v-1.2c.8,0,1.5,0,2-.3.5-.2.8-.4,1-.8.2-.3.3-.7.3-1.1s-.2-1-.5-1.3c-.4-.3-.9-.5-1.5-.5s-.9.1-1.3.3c-.4.2-.8.5-1.1.9l-.8-.9c.5-.4,1-.8,1.5-1,.5-.3,1.2-.4,1.8-.4s1.3.1,1.8.3c.5.2.9.6,1.2,1,.3.4.4,1,.4,1.6s-.2,1.3-.6,1.7c-.4.5-.9.8-1.5,1h0c.5.2.9.4,1.3.6.4.3.7.6.9,1,.2.4.3.9.3,1.4s-.2,1.3-.5,1.8c-.3.5-.8.9-1.4,1.1-.6.3-1.2.4-1.9.4h0Z"/>
  <path class="st0" d="M41.8,15c-.7,0-1.4-.1-2-.4-.6-.3-1-.6-1.4-1.1-.3-.5-.5-1-.5-1.7s.1-1,.3-1.4c.2-.4.5-.7.8-1,.3-.3.7-.6,1-.7h0c-.4-.4-.8-.7-1.1-1.2-.3-.4-.5-1-.5-1.6s.1-1.1.4-1.6c.3-.4.7-.8,1.2-1,.5-.2,1-.4,1.7-.4s1.3.1,1.8.4c.5.3.9.6,1.1,1.1.3.5.4,1,.4,1.6s0,.8-.3,1.2c-.2.4-.4.7-.6,1-.2.3-.5.5-.7.7h0c.3.3.7.5,1,.8s.6.6.8,1c.2.4.3.8.3,1.4s-.2,1.1-.5,1.6c-.3.5-.7.8-1.3,1.1-.6.3-1.2.4-2,.4h0ZM41.8,13.9c.5,0,.9,0,1.2-.3.3-.2.6-.4.8-.7.2-.3.3-.7.3-1s0-.7-.3-1c-.2-.3-.4-.5-.7-.7-.3-.2-.6-.4-1-.6-.4-.2-.8-.3-1.2-.5-.5.3-.9.7-1.2,1.1-.3.4-.5.9-.5,1.4s.1.8.3,1.1c.2.3.5.6.9.8.4.2.8.3,1.3.3h0ZM42.6,8.4c.4-.4.7-.7.9-1.1.2-.4.3-.8.3-1.2s0-.7-.2-1c-.2-.3-.4-.6-.7-.7-.3-.2-.7-.3-1.1-.3s-1,.2-1.4.5c-.4.3-.5.8-.5,1.4s.1.9.4,1.2c.3.3.6.6,1,.8.4.2.9.4,1.3.6h0Z"/>
  <path class="st0" d="M46.9,12.3c.4-.1.9-.3,1.4-.5.5-.2,1.1-.4,1.7-.6.6-.2,1.2-.4,1.8-.7l.2,1.1c-.8.3-1.6.7-2.5,1-.8.3-1.6.6-2.2.9l-.4-1.2ZM47.1,5h4.5v1.2h-4.5v-1.2ZM48.9,1.3h1.1v10.6h-1.1V1.3ZM51.8,9.1h10.2v1.2h-10.2v-1.2ZM52.2,1.9h9.2v1.2h-9.2v-1.2ZM52.9,4.3l1-.3c.2.4.3.9.4,1.4.1.5.2,1,.3,1.4.1.5.2.9.2,1.2l-1.1.3c0-.4,0-.8-.2-1.3,0-.5-.2-.9-.3-1.4-.1-.5-.3-.9-.4-1.4h0ZM56.2,2.2h1.2v13.9h-1.2V2.2ZM59.8,3.9l1.2.3c-.1.5-.3.9-.4,1.4-.2.5-.3,1-.5,1.4-.2.5-.3.9-.5,1.2l-.9-.3c.1-.4.3-.8.4-1.3.1-.5.3-1,.4-1.5.1-.5.2-1,.3-1.4h0Z"/>
  <path class="st0" d="M63.3,14.8v-.9c1.2-1.2,2.2-2.2,3-3.1.8-.9,1.4-1.7,1.9-2.4.4-.7.6-1.4.6-2s0-.8-.2-1.2c-.2-.3-.4-.6-.7-.8-.3-.2-.7-.3-1.2-.3s-.9.1-1.4.4c-.4.3-.8.6-1.1,1l-.9-.8c.5-.5,1-1,1.5-1.3.6-.3,1.2-.5,2-.5s1.3.1,1.9.4c.5.3.9.7,1.2,1.2.3.5.4,1.1.4,1.8s-.2,1.5-.6,2.2c-.4.8-1,1.5-1.7,2.4-.7.8-1.5,1.7-2.4,2.7.3,0,.6,0,1,0,.3,0,.7,0,1,0h3.4v1.3h-7.5,0Z"/>
  <path class="st0" d="M72.4,10.7v-1h7.2v1h-7.2Z"/>
  <path class="st0" d="M84.7,15c-.6,0-1.2,0-1.6-.2-.5-.2-.9-.4-1.2-.6-.4-.3-.7-.5-.9-.8l.8-1c.3.4.8.7,1.2,1,.5.3,1,.4,1.7.4s.9,0,1.3-.3c.4-.2.7-.4.9-.7.2-.3.3-.7.3-1.1s-.1-.9-.3-1.2c-.2-.3-.6-.6-1.2-.8-.5-.2-1.3-.3-2.2-.3v-1.2c.8,0,1.5,0,2-.3.5-.2.8-.4,1-.8.2-.3.3-.7.3-1.1s-.2-1-.5-1.3c-.4-.3-.9-.5-1.5-.5s-.9.1-1.3.3c-.4.2-.8.5-1.1.9l-.8-.9c.5-.4,1-.8,1.5-1,.5-.3,1.2-.4,1.8-.4s1.3.1,1.8.3c.5.2.9.6,1.2,1,.3.4.4,1,.4,1.6s-.2,1.3-.6,1.7c-.4.5-.9.8-1.5,1h0c.5.2.9.4,1.3.6.4.3.7.6.9,1,.2.4.3.9.3,1.4s-.2,1.3-.5,1.8c-.3.5-.8.9-1.4,1.1-.6.3-1.2.4-1.9.4h0Z"/>
  <path class="st0" d="M91.6,2.7h1.2v3.9c0,.7,0,1.4,0,2.2,0,.8-.1,1.6-.3,2.5-.1.8-.3,1.7-.6,2.5-.2.8-.6,1.6-1,2.3,0,0-.2-.1-.3-.2-.1,0-.3-.2-.4-.2-.1,0-.3-.1-.4-.2.4-.7.7-1.4.9-2.1.2-.8.4-1.5.5-2.3.1-.8.2-1.6.2-2.3,0-.8,0-1.5,0-2.1v-3.9h0ZM92.2,2.7h11.6v3.8h-11.6v-1h10.4v-1.7h-10.4v-1ZM96.5,9.3h1.2c0,.8-.2,1.5-.3,2.2-.2.7-.4,1.3-.7,1.9-.3.6-.7,1.1-1.3,1.5-.5.4-1.2.8-2.1,1.1,0-.1-.2-.3-.3-.5-.1-.2-.3-.3-.4-.4.8-.3,1.4-.6,1.9-1,.5-.4.9-.8,1.1-1.3.3-.5.5-1,.6-1.6.1-.6.2-1.2.3-1.9h0ZM93.4,8.7h11v1h-11v-1ZM96.6,1.4l1.2-.3c.2.3.3.7.5,1,.2.4.3.7.4,1l-1.2.4c0-.3-.2-.6-.3-1-.2-.4-.3-.8-.5-1.1h0ZM97,11.2h5.5v1h-5.5v-1ZM97.6,7l1-.4c.2.3.4.6.6.9.2.3.4.6.5.8l-1.1.4c-.1-.2-.3-.5-.4-.9-.2-.3-.4-.7-.6-.9ZM102.2,11.2h1.2c0,.3,0,.4,0,.5,0,.8-.2,1.5-.2,2,0,.5-.2.9-.3,1.2-.1.3-.2.5-.4.6-.2.1-.3.2-.5.3-.2,0-.4,0-.6.1-.2,0-.6,0-1,0-.4,0-.8,0-1.3,0,0-.2,0-.3-.1-.5,0-.2-.1-.4-.2-.5.5,0,.9,0,1.3,0,.4,0,.7,0,.8,0s.3,0,.4,0,.2,0,.2-.1c.1-.1.2-.3.3-.5,0-.3.2-.6.2-1.1,0-.5.1-1.1.2-1.8v-.2h0Z"/>
  <path class="st0" d="M108.9,5.3l.8.3c-.1.7-.3,1.3-.5,2-.2.7-.4,1.4-.7,2.1-.3.7-.5,1.3-.8,1.9s-.6,1.1-.9,1.5c0-.2-.2-.3-.3-.5-.1-.2-.2-.4-.3-.5.3-.4.6-.8.9-1.3.3-.5.5-1.1.8-1.7.3-.6.5-1.2.7-1.8.2-.6.4-1.2.5-1.8h0ZM106.6,4.6h5.7v1.2h-5.7v-1.2ZM109,1.1h1.2v15h-1.2V1.1ZM110.1,6.4c.1.1.2.3.4.5.2.2.4.5.6.8.2.3.4.5.6.8.2.2.3.4.4.5l-.7.9c-.1-.2-.2-.4-.4-.7-.2-.3-.4-.6-.6-.9-.2-.3-.4-.6-.6-.8-.2-.3-.3-.5-.5-.6l.6-.6h0ZM119,2.8h.4c0,0,.8.3.8.3-.3,1-.8,1.9-1.4,2.8-.6.8-1.2,1.6-2,2.2-.7.7-1.5,1.2-2.3,1.7-.8.5-1.7.9-2.5,1.2,0-.2-.2-.3-.3-.5-.1-.2-.3-.4-.4-.5.8-.3,1.6-.6,2.4-1,.8-.4,1.5-1,2.2-1.5.7-.6,1.3-1.3,1.8-2,.5-.7.9-1.5,1.2-2.4v-.2h0ZM115.2,1.1l1.2.3c-.3.7-.6,1.4-1,2.1-.4.7-.8,1.3-1.3,1.9-.5.6-.9,1.1-1.4,1.5,0,0-.2-.2-.3-.3-.1-.1-.2-.2-.4-.3-.1-.1-.2-.2-.3-.3.8-.6,1.4-1.3,2.1-2.2.6-.9,1.1-1.8,1.5-2.8ZM113.2,10.1h6.9v5.9h-1.2v-4.9h-4.5v4.9h-1.1v-6ZM113.7,14.3h5.8v1.1h-5.8v-1.1ZM114.6,3.7c.3.8.8,1.5,1.5,2.3.6.8,1.4,1.5,2.3,2.1.9.7,2,1.2,3.2,1.5,0,0-.2.2-.3.3-.1.1-.2.2-.3.4,0,.1-.2.2-.2.3-1.2-.4-2.3-1-3.2-1.7-.9-.7-1.7-1.5-2.4-2.3-.7-.8-1.2-1.6-1.5-2.4l.9-.6h0ZM114.7,2.8h4.6v1.1h-4.6v-1.1Z"/>
  <path class="st0" d="M124.5,1.9h1.2v3.9c0,.7,0,1.5,0,2.3s-.2,1.7-.3,2.6c-.2.9-.4,1.8-.7,2.6-.3.8-.7,1.6-1.2,2.3,0,0-.1-.2-.3-.3-.1-.1-.3-.2-.4-.3-.1,0-.2-.2-.3-.2.5-.7.8-1.4,1.1-2.1.3-.8.5-1.6.6-2.4.1-.8.2-1.6.3-2.4,0-.8,0-1.5,0-2.1V1.9h0ZM125.2,1.9h10.5v4.2h-10.5v-1.1h9.3v-2.1h-9.3v-1.1ZM125.2,7.5h10.8v1.1h-10.8v-1.1ZM127,9.9h1.1v5.2h-1.1v-5.2ZM127.7,9.9h5.6v4.2h-5.6v-1h4.4v-2.2h-4.4v-1ZM135.7,7.5h1.2v.3c0,0,0,.2,0,.2,0,1.3-.1,2.3-.2,3.2,0,.9-.1,1.6-.2,2.2,0,.6-.1,1-.2,1.3,0,.3-.2.6-.3.7-.2.2-.3.3-.5.4-.2,0-.4.1-.6.1-.2,0-.5,0-.9,0s-.8,0-1.3,0c0-.2,0-.4-.1-.6,0-.2-.1-.4-.2-.6.4,0,.8,0,1.2,0,.4,0,.6,0,.8,0s.3,0,.4,0c0,0,.2,0,.2-.2.1-.1.2-.4.3-.9,0-.5.2-1.2.2-2.2,0-1,.1-2.3.2-3.9v-.2h0Z"/>
  <path class="st0" d="M141,11.7l-.4-.9c.7-.3,1.2-.6,1.5-1,.4-.4.5-.9.5-1.6l-.3-1.4.9,1.2c-.1.1-.3.2-.4.3-.2,0-.3,0-.5,0-.3,0-.6-.1-.9-.3-.2-.2-.4-.5-.4-.9s.1-.7.4-.9c.2-.2.5-.3.9-.3s.8.2,1,.5c.2.3.3.8.3,1.4,0,.9-.3,1.6-.8,2.3-.5.6-1.2,1.1-2.1,1.4Z"/>
  <path class="st0" d="M150.7,13c.6-.2,1.2-.5,1.9-.8.7-.3,1.5-.6,2.3-1,.8-.4,1.6-.7,2.5-1l.3,1.2c-.8.3-1.5.7-2.3,1-.8.3-1.5.7-2.3,1-.7.3-1.4.6-2,.9l-.4-1.3h0ZM152.7,2h1.3c0,0,.3,10.7.3,10.7h-1.3c0,0-.3-10.7-.3-10.7ZM162.7,1.9h1.3c-.2,2-.5,3.7-.9,5.2-.4,1.5-.9,2.8-1.5,3.9-.6,1.1-1.4,2.1-2.4,3-1,.8-2.2,1.6-3.6,2.1,0,0-.1-.2-.3-.3-.1-.1-.2-.3-.4-.4-.1-.1-.2-.2-.3-.3,1.4-.5,2.6-1.2,3.5-1.9s1.7-1.7,2.3-2.8c.6-1.1,1.1-2.3,1.4-3.7.3-1.4.6-3,.8-4.8ZM156.1,3.6l1.1-.5c.4.4.7.8,1,1.3.3.5.6.9.9,1.4.3.4.5.9.6,1.2l-1.2.6c-.1-.4-.3-.8-.6-1.3-.3-.5-.6-.9-.9-1.4-.3-.5-.7-.9-1-1.3h0ZM160.5,10.9l.9-.8c.4.4.8.8,1.2,1.2.4.4.8.9,1.3,1.3.4.4.8.9,1.2,1.3.4.4.7.8.9,1.1l-1,1c-.2-.3-.5-.7-.8-1.1-.3-.4-.7-.9-1.1-1.3-.4-.5-.8-.9-1.2-1.4-.4-.5-.8-.9-1.2-1.3h0Z"/>
  <path class="st0" d="M166.9,12.6c.5-.1,1.2-.2,1.9-.4.7-.2,1.5-.3,2.3-.5v1c-.6.2-1.3.3-2,.5-.7.2-1.4.3-1.9.5l-.2-1.1h0ZM167.1,1.8h5.3v1.1h-5.3v-1.1ZM168,2.3h.9v10.4h-.9V2.3ZM168.5,5.2h2.7v1h-2.7v-1ZM168.5,8.6h2.7v1h-2.7v-1ZM170.6,2.3h1v13.7h-1V2.3ZM172.2,6h9.8v1.1h-9.8v-1.1ZM172.4,2.8h4.9v1h-4.9v-1ZM172.8,8h1v6.9h-1v-6.9ZM172.9,4.1h.9c.1.2.2.6.3,1,0,.4.1.8.2,1.1l-.9.2c0-.3,0-.7-.2-1.1,0-.4-.2-.8-.3-1.2h0ZM173.2,8h3.9v6.2h-.9v-5.3h-2.9v-.9ZM173.2,10.4h3.4v.9h-3.4v-.9ZM173.2,12.8h3.3v.9h-3.3v-.9ZM173.9,1.4l1-.2c.2.3.3.6.5,1,.2.4.3.7.3.9l-1.1.3c0-.3-.2-.6-.3-1-.1-.4-.3-.7-.4-1h0ZM175.9,3.9l1,.2c-.1.4-.2.8-.4,1.2-.1.4-.2.8-.3,1l-.8-.2c.1-.3.2-.7.3-1.1.1-.4.2-.8.2-1.1h0ZM180.8,8l1,.5c-.4,1.1-.8,2.1-1.4,3-.6.9-1.2,1.8-1.9,2.5-.7.8-1.4,1.4-2.2,1.9,0-.1-.2-.2-.3-.3-.1-.1-.3-.2-.4-.3.8-.5,1.5-1.1,2.1-1.9.7-.7,1.3-1.5,1.8-2.5.5-.9,1-1.9,1.3-3h0ZM177.8,1.1h1.1c0,1.5,0,2.9.1,4.2,0,1.3.1,2.6.2,3.7.1,1.1.2,2.1.4,3,.1.8.3,1.5.5,2,.2.5.4.7.6.7.1,0,.2-.2.3-.6.1-.4.2-1,.2-1.7,0,0,.2.1.3.2.1,0,.2.2.3.2.1,0,.2.1.3.2-.1.8-.2,1.4-.4,1.9-.1.5-.3.8-.5.9-.2.2-.4.3-.6.3-.4,0-.8-.3-1.1-.8-.3-.5-.6-1.2-.8-2.1-.2-.9-.4-2-.5-3.2-.1-1.2-.2-2.6-.3-4.1,0-1.5-.1-3.1-.1-4.7h0ZM179.4,2.4l.9-.3c.2.3.4.6.5.9.2.3.3.7.5,1,.1.3.2.6.3.8l-1,.4c0-.3-.2-.5-.3-.9-.1-.3-.3-.7-.4-1-.2-.3-.3-.7-.5-1h0Z"/>
  <path class="st0" d="M190.2,1.1h1.4c0,.5,0,1.1,0,1.8,0,.7-.1,1.6-.3,2.5-.1.9-.3,1.9-.6,2.8-.3,1-.7,1.9-1.2,2.9-.5.9-1.2,1.8-2,2.7-.8.8-1.8,1.6-2.9,2.2-.1-.2-.3-.3-.4-.5-.2-.2-.4-.3-.6-.5,1.1-.6,2.1-1.3,2.9-2,.8-.8,1.4-1.6,1.9-2.5.5-.9.9-1.8,1.1-2.7.3-.9.5-1.8.6-2.6.1-.8.2-1.6.2-2.3,0-.7,0-1.2,0-1.7h0ZM191.4,3.1c0,.2,0,.5.1,1.1,0,.5.2,1.2.4,1.9.2.7.4,1.5.7,2.3.3.8.7,1.7,1.2,2.5.5.8,1.1,1.6,1.9,2.3.8.7,1.6,1.3,2.7,1.8-.2.1-.3.3-.5.5-.2.2-.3.4-.4.5-1.1-.5-2-1.1-2.8-1.9-.8-.8-1.4-1.6-2-2.4-.5-.9-1-1.7-1.3-2.6-.3-.9-.6-1.7-.8-2.5-.2-.8-.3-1.5-.4-2,0-.6-.1-1-.2-1.2h1.2c0-.1,0-.1,0-.1Z"/>
  <path class="st0" d="M201.6,10.7l1.1.4c-.1.4-.3.9-.4,1.4-.2.5-.4,1-.6,1.4-.2.5-.5.9-.7,1.2l-1.1-.6c.3-.3.5-.7.7-1.2.2-.4.4-.9.6-1.4.2-.5.3-.9.4-1.4h0ZM201.4,1.8h11.4v7.4h-11.4V1.8ZM202.5,2.9v2.1h9.1v-2.1h-9.1ZM202.5,6v2.1h9.1v-2.1h-9.1ZM203.7,10.8h1.2v3.2c0,.2,0,.4.2.4.1,0,.4.1.9.1h3.1c.3,0,.5,0,.6-.1.1-.1.2-.3.3-.6,0-.3.1-.8.1-1.4.1,0,.2.1.3.2.1,0,.3.1.4.2.1,0,.3,0,.4.1,0,.7-.1,1.3-.3,1.7-.1.4-.3.7-.6.8-.3.2-.7.2-1.2.2h-3.3c-.6,0-1,0-1.4-.1-.3-.1-.5-.3-.7-.5-.1-.2-.2-.6-.2-1v-3.2h0ZM205.2,10.2l.8-.8c.4.2.8.4,1.3.7.4.3.9.5,1.2.8.4.3.7.5,1,.8l-.9.8c-.2-.2-.5-.5-.9-.8-.4-.3-.8-.6-1.2-.9s-.9-.5-1.3-.8ZM206.5,2.3h1.2v6.4h-1.2V2.3ZM211.1,11l1.1-.5c.3.4.6.9,1,1.3.3.5.6.9.8,1.4.2.5.4.9.6,1.3l-1.2.5c-.1-.4-.3-.8-.5-1.3-.2-.5-.5-.9-.8-1.4-.3-.5-.6-1-.9-1.4h0Z"/>
  <path class="st0" d="M216.7,11.6l1,.2c0,.7-.2,1.4-.3,2.1-.1.7-.3,1.3-.5,1.8-.1,0-.3-.1-.5-.2-.2,0-.4-.1-.5-.2.2-.5.4-1.1.5-1.8s.2-1.4.3-2h0ZM216.3,7.2c0,0,0-.2,0-.3,0-.1,0-.3-.1-.4,0-.1,0-.3-.1-.3.1,0,.3-.1.4-.3.1-.2.3-.4.5-.6.1-.2.3-.5.6-.9.3-.4.5-.9.8-1.5.3-.6.5-1.2.8-1.7l1.1.4c-.4.9-.9,1.8-1.4,2.7-.5.9-1,1.7-1.6,2.3h0c-.1.1-.3.2-.4.2s-.2.1-.3.2c0,0-.1.1-.1.2h0ZM216.4,10.9c0,0,0-.2-.1-.3,0-.1,0-.3-.1-.4,0-.1,0-.3-.1-.3.2,0,.4-.2.5-.3.2-.2.4-.5.7-.8.1-.2.3-.4.6-.8.3-.3.5-.8.8-1.2.3-.5.6-1,1-1.5.3-.6.6-1.1.9-1.7l1,.6c-.4.8-.8,1.5-1.3,2.2-.5.7-1,1.4-1.5,2.1-.5.7-1,1.3-1.5,1.8h0c-.1.1-.3.2-.4.2-.1,0-.2.1-.3.2,0,0-.1.1-.1.2h0ZM216.3,7.2v-.8s.5-.3.5-.3l2.9-.2c0,.2,0,.3,0,.5,0,.2,0,.3,0,.4-.7,0-1.2.1-1.6.2-.4,0-.7,0-.9.1-.2,0-.4,0-.5.1s-.2,0-.3,0ZM216.4,10.9v-.9s.5-.4.5-.4l4.4-.6c0,.1,0,.3,0,.5v.4c-1,.2-1.8.3-2.5.4-.6.1-1.1.2-1.4.2-.3,0-.6.1-.7.2-.1,0-.3,0-.3.1ZM218.5,11.7l.9-.2c.1.5.2,1.2.3,1.8,0,.6.1,1.2.2,1.7l-1,.2c0-.5,0-1-.1-1.7s-.2-1.3-.3-1.8h0ZM220.1,7.5l.9-.3c.2.3.4.7.5,1.1.2.4.3.8.4,1.1.1.4.2.7.3,1l-.9.4c0-.3-.1-.6-.2-1s-.2-.8-.4-1.2c-.2-.4-.3-.8-.5-1.1h0ZM220.3,11.3l.8-.3c.2.5.4,1,.6,1.6.2.6.3,1.1.4,1.5l-.9.3c0-.4-.2-.9-.4-1.5-.2-.6-.4-1.1-.5-1.7h0ZM224.4,1.2l1.2.3c-.3.7-.6,1.5-.9,2.3-.4.8-.8,1.5-1.2,2.3-.4.7-.9,1.4-1.4,2,0-.1,0-.2-.2-.4,0-.1-.2-.3-.2-.4,0-.1-.1-.2-.2-.3.4-.5.8-1.1,1.2-1.8.4-.7.7-1.3,1-2,.3-.7.5-1.4.7-2h0ZM224.3,4h6.3v1.1h-6.3v11h-1.1V4.8l.7-.8h.4ZM223.6,13.8h7.2v1.1h-7.2v-1.1ZM223.7,7.2h6.6v1.1h-6.6v-1.1ZM223.7,10.4h6.6v1.1h-6.6v-1.1ZM226.1,1.6l1-.4c.2.4.4.8.6,1.2.2.4.4.8.5,1.1l-1.1.5c-.1-.3-.3-.7-.5-1.1-.2-.4-.4-.8-.6-1.2ZM226.7,4.4h1.1v10h-1.1V4.4Z"/>
  <path class="st0" d="M235,1.2h1.2v5.6c0,.7,0,1.5,0,2.3,0,.8-.2,1.6-.4,2.4-.2.8-.5,1.6-.9,2.3-.4.7-1,1.4-1.7,2,0-.1-.1-.2-.2-.3-.1-.1-.2-.2-.3-.3-.1-.1-.2-.2-.3-.3.7-.5,1.2-1.1,1.6-1.8.4-.7.7-1.4.8-2.1.2-.7.3-1.5.3-2.2,0-.7,0-1.4,0-2.1V1.2h0ZM232.3,7.6h6.5v1.1h-6.5v-1.1ZM232.7,3.8h5.8v1.1h-5.8v-1.1ZM235.9,9.5c.1.1.3.3.5.5.2.2.4.5.7.7.2.3.5.5.7.8.2.3.5.5.7.7.2.2.3.4.4.5l-.8.9c-.1-.2-.3-.5-.6-.8-.3-.3-.5-.7-.8-1-.3-.4-.6-.7-.8-1s-.5-.5-.6-.7l.8-.6h0ZM240.7,10.5h1.2c0,.7-.2,1.3-.3,1.8-.2.6-.4,1.1-.7,1.5-.3.5-.7.9-1.2,1.2-.5.4-1.1.7-1.8.9,0-.1-.2-.3-.3-.5-.1-.2-.3-.3-.4-.4.9-.3,1.5-.6,2-1.1s.8-1,1-1.6c.2-.6.4-1.2.4-2h0ZM239.4,1.7h7v9.1h-7V1.7ZM240.5,2.8v1.6h4.7v-1.6h-4.7ZM240.5,5.4v1.6h4.7v-1.6h-4.7ZM240.5,8.1v1.7h4.7v-1.7h-4.7ZM243.3,10.3h1.2v3.9c0,.2,0,.3,0,.4,0,0,.2,0,.3,0h1c.1,0,.2,0,.3-.1,0,0,.1-.3.1-.6,0-.3,0-.8,0-1.4,0,0,.2.1.3.2s.2.1.4.2c.1,0,.3,0,.3.1,0,.7,0,1.3-.2,1.7,0,.4-.2.7-.4.8-.2.2-.4.2-.8.2h-1.3c-.4,0-.7,0-.9-.1-.2,0-.3-.2-.4-.5,0-.2-.1-.5-.1-.9v-3.9Z"/>
  <path class="st0" d="M248.5,14.7c.8,0,1.7,0,2.7-.1,1,0,2.1,0,3.3-.1,1.2,0,2.3-.1,3.5-.2v1c-1.2,0-2.3.1-3.4.2-1.1,0-2.2.1-3.2.2-1,0-1.9.1-2.7.1v-1ZM248.6,3.7h9.4v.8h-9.4v-.8ZM248.7,8.5h9.2v.9h-9.2v-.9ZM249.4,6.9h7.8v.8h-7.8v-.8ZM249.6,2.1h7.4v4.1h-7.4v-.8h6.3v-2.5h-6.3v-.8ZM249.7,10h7.3v3.6h-7.3v-3.6ZM250.7,10.7v.8h5.3v-.8h-5.3ZM250.7,12.2v.8h5.3v-.8h-5.3ZM252.7,1.1h1.1v7.9h-1.1V1.1ZM252.8,10.3h1.1v3.1h-1.1v-3.1ZM258.6,3h1.1v9h-1.1V3ZM261.7,1.4h1.2v13.1c0,.4,0,.7-.2.9-.1.2-.3.3-.5.4-.2.1-.6.2-1,.2-.4,0-.9,0-1.6,0,0-.2,0-.4-.1-.6,0-.2-.2-.4-.3-.6.5,0,.9,0,1.3,0h.8c.1,0,.2,0,.3,0,0,0,0-.1,0-.3V1.4h0Z"/>
  <path class="st0" d="M268.6,1l1.2.4c-.3.7-.7,1.5-1.1,2.2-.4.7-.9,1.4-1.3,2-.5.6-.9,1.2-1.4,1.7,0,0-.2-.1-.3-.2-.1,0-.3-.2-.4-.3-.1,0-.3-.2-.4-.2.5-.4,1-.9,1.5-1.5.5-.6.9-1.2,1.3-1.9.4-.7.7-1.4,1-2.1h0ZM264.9,9.1h3s9,0,9,0h0s2.9,0,2.9,0v1.1h-2.9s-9,0-9,0h0s-3,0-3,0v-1.1ZM267.8,5.5h1.2c0,.7-.2,1.4-.3,2.2,0,.8-.2,1.5-.3,2.3-.1.8-.2,1.5-.3,2.2s-.2,1.3-.3,1.8h-1.3c.1-.5.2-1.1.3-1.8.1-.7.2-1.4.3-2.2.1-.8.2-1.5.3-2.3,0-.8.2-1.5.3-2.1h0ZM267.2,12.8h12v1.1h-12v-1.1ZM267.9,2.7h11.3v1.1h-11.3v-1.1ZM268.4,5.5h8.5v1.1h-8.5v-1.1ZM270.1,10.9l.7-.7c.4.2.8.4,1.2.6.4.2.8.5,1.1.7.3.2.6.5.8.7l-.7.8c-.2-.2-.5-.5-.8-.7-.3-.3-.7-.5-1.1-.8-.4-.2-.8-.5-1.2-.6h0ZM270.6,7.3l.7-.7c.3.2.7.3,1.1.5.4.2.7.4,1.1.6.3.2.6.4.8.6l-.7.8c-.2-.2-.5-.4-.8-.7-.3-.2-.7-.4-1-.7-.4-.2-.7-.4-1.1-.6h0ZM276.5,5.5h1.2v.6c0,1.6-.1,3-.2,4.1,0,1.1-.1,2-.2,2.8,0,.7-.2,1.3-.3,1.7-.1.4-.2.7-.3.8-.2.2-.3.3-.5.4-.2,0-.4.1-.7.2-.2,0-.6,0-.9,0-.4,0-.8,0-1.2,0,0-.1,0-.3-.1-.5,0-.2-.1-.3-.2-.5.4,0,.8,0,1.1,0,.3,0,.6,0,.8,0s.3,0,.3,0c0,0,.2-.1.2-.2.1-.1.2-.4.3-.8,0-.4.2-.9.2-1.6,0-.7.1-1.6.2-2.7,0-1.1.1-2.5.2-4v-.3h0Z"/>
  <path class="st0" d="M281.2,7.7h14.9v1.3h-14.9v-1.3Z"/>
  <path class="st0" d="M297.6,4.5h14.6v1.2h-14.6v-1.2ZM299.5,8l1-.6c.4.4.8.8,1.2,1.3.4.5.8,1,1.1,1.4.3.5.6.9.8,1.3l-1.1.7c-.2-.4-.4-.8-.7-1.3-.3-.5-.7-1-1.1-1.5-.4-.5-.8-1-1.2-1.4h0ZM307.1,1.1h1.3v13.2c0,.5,0,.9-.2,1.1-.1.2-.4.4-.7.5-.3.1-.8.2-1.4.2-.6,0-1.4,0-2.3,0,0-.1,0-.3-.1-.4,0-.2-.1-.3-.2-.5,0-.2-.1-.3-.2-.4.5,0,1,0,1.4,0h1.9c.2,0,.3,0,.4-.1,0,0,.1-.2.1-.4V1.1h0Z"/>
  <path class="st0" d="M316.1,2.1h1.3v4.5c0,.7,0,1.5,0,2.3,0,.8-.2,1.7-.4,2.5-.2.9-.4,1.7-.8,2.5-.3.8-.8,1.5-1.4,2.2,0,0-.2-.2-.3-.3-.1-.1-.3-.2-.4-.3-.1-.1-.2-.2-.3-.2.5-.6,1-1.3,1.3-2,.3-.7.5-1.5.7-2.2.2-.8.3-1.5.3-2.3,0-.7,0-1.4,0-2.1V2.1h0ZM317.7,7.7c.6,1.3,1.5,2.4,2.5,3.3,1,1,2.3,1.8,3.7,2.4,1.4.6,3,1.1,4.8,1.4,0,.1-.2.2-.3.3-.1.1-.2.3-.3.4,0,.1-.2.3-.2.4-1.8-.3-3.4-.9-4.9-1.6-1.4-.7-2.7-1.6-3.8-2.6-1.1-1.1-2-2.3-2.7-3.7l1.1-.4h0ZM316.8,2.1h10.3v6.1h-10.3v-1.2h9v-3.7h-9v-1.2h0Z"/>
  <path class="st0" d="M331.4,2.7h1.2v4.4c0,.7,0,1.4,0,2.1,0,.8-.1,1.5-.2,2.4-.1.8-.3,1.6-.5,2.3-.2.8-.5,1.5-.8,2.1,0,0-.2-.1-.3-.2-.1,0-.3-.1-.4-.2-.1,0-.3-.1-.4-.1.3-.6.6-1.3.8-2,.2-.7.3-1.4.4-2.2.1-.8.2-1.5.2-2.2,0-.7,0-1.4,0-2V2.7h0ZM332,2.7h12.8v1.2h-12.8v-1.2ZM342.3,10.4h.5c0,0,.8.4.8.4-.4.8-1,1.6-1.8,2.1-.7.6-1.6,1.1-2.5,1.5-.9.4-1.9.7-3,1-1.1.2-2.1.4-3.3.6,0-.1-.1-.3-.2-.5-.1-.2-.2-.4-.3-.5,1,0,2-.2,3.1-.4,1-.2,1.9-.5,2.8-.8.9-.3,1.6-.8,2.3-1.3.7-.5,1.2-1.1,1.6-1.8v-.2h0ZM333.1,5.7h11.6v1h-11.6v-1ZM333.3,10.4h9.3v1h-9.3v-1ZM335.9,11.3c.5.7,1.3,1.3,2.2,1.9.9.5,2,.9,3.2,1.2,1.2.3,2.5.5,3.8.7,0,0-.2.2-.3.3,0,.1-.2.3-.3.4,0,.1-.1.3-.2.4-1.4-.2-2.7-.4-3.9-.8s-2.3-.8-3.2-1.4c-1-.6-1.7-1.3-2.4-2.1l1-.4h0ZM335.7,4.3h1.2v4.2h4v-4.2h1.2v5.1h-6.3v-5.1ZM337.1,1.3l1.2-.3c.2.3.4.7.6,1.1.2.4.3.7.4,1l-1.3.3c0-.3-.2-.6-.4-1s-.3-.8-.5-1.1h0Z"/>
  <path class="st0" d="M348.4,11.7l-.4-.9c.7-.3,1.2-.6,1.5-1,.4-.4.5-.9.5-1.6l-.3-1.4.9,1.2c-.1.1-.3.2-.4.3-.2,0-.3,0-.5,0-.3,0-.6-.1-.9-.3-.2-.2-.4-.5-.4-.9s.1-.7.4-.9c.2-.2.5-.3.9-.3s.8.2,1,.5c.2.3.3.8.3,1.4,0,.9-.3,1.6-.8,2.3-.5.6-1.2,1.1-2.1,1.4Z"/>
  <path class="st0" d="M348,3.9h5.2v1h-5.2v-1ZM348.6,10.4h.9v5.5h-.9v-5.5ZM348.6,6h4v1h-4v-1ZM348.6,8.2h4v1h-4v-1ZM349.3,10.4h3.3v4.7h-3.3v-1h2.4v-2.8h-2.4v-1ZM349.6,1.5l.9-.3c.2.3.4.7.6,1.1.2.4.3.8.4,1l-.9.4c0-.3-.2-.7-.3-1.1-.2-.4-.4-.8-.6-1.2h0ZM357.3,11.2l.9.3c-.3.4-.8.8-1.3,1.1-.5.3-1.1.7-1.6.9-.6.3-1.2.5-1.7.7,0,0,0-.2-.2-.3,0-.1-.2-.2-.2-.3,0-.1-.2-.2-.2-.3.5-.2,1.1-.3,1.7-.6.6-.2,1.1-.5,1.5-.7.5-.3.8-.6,1.1-.9ZM353.2,10.9h9.7v.9h-9.7v-.9ZM353.4,2.3h9.4v.9h-9.4v-.9ZM353.7,7.6h8.9v.8h-8.9v-.8ZM354,9.3h8.3v.8h-8.3v-.8ZM354.1,3.9h3.6v2.8h-3.6v-2.8ZM355.3,16.1c0-.1-.1-.3-.2-.4s-.2-.3-.3-.4c.1,0,.3-.2.4-.4.2-.2.2-.5.2-.9v-1.3h1v2.1c-.2.2-.4.3-.5.5-.1.1-.3.3-.4.4-.1.1-.2.3-.2.4h0ZM355,4.7v1.3h1.7v-1.3h-1.7ZM355.3,16.1v-.9c0,0,.5-.4.5-.4l3-.6c0,.1,0,.3,0,.5,0,.2,0,.3,0,.4-.7.2-1.3.3-1.7.4-.4.1-.8.2-1,.3-.2,0-.4.1-.5.2-.1,0-.2,0-.3.1ZM355.7,6.5h1.1v4.7h-1.1v-4.7ZM357.2,1.3l1-.3c.2.3.3.6.5.9.2.3.3.6.3.8l-1.1.4c0-.2-.2-.5-.3-.8-.1-.3-.3-.6-.4-.9h0ZM358.9,11.3c.3.9.9,1.7,1.6,2.4.7.7,1.6,1.1,2.6,1.4-.1.1-.2.3-.4.4-.1.2-.2.3-.3.5-1.1-.4-2-.9-2.8-1.7-.8-.8-1.3-1.7-1.7-2.8l.9-.2ZM358.6,3.9h3.7v2.8h-3.7v-2.8ZM359.3,6.5h1.1v4.7h-1.1v-4.7ZM359.5,4.7v1.3h1.8v-1.3h-1.8ZM362,12.1l.7.6c-.4.3-.8.5-1.2.8-.5.2-.9.4-1.3.6l-.6-.6c.3-.1.5-.3.8-.4.3-.2.6-.3.9-.5.3-.2.5-.3.7-.5h0Z"/>
  <path class="st0" d="M364.8,14.6h14v1.2h-14v-1.2ZM364.9,3h13.8v3.3h-1.3v-2.1h-11.3v2.5h-1.2v-3.7h0ZM369.7,3.8h1.3c0,.8-.2,1.4-.3,2-.2.6-.4,1.1-.8,1.5-.4.4-.9.8-1.5,1-.7.3-1.5.5-2.6.7,0-.1,0-.2-.1-.3,0-.1-.1-.2-.2-.4s-.2-.2-.2-.3c.9-.1,1.7-.3,2.3-.5.6-.2,1-.5,1.3-.8.3-.3.5-.7.7-1.2.1-.5.2-1,.3-1.7ZM366.3,9.9h11v1.1h-11v-1.1ZM370.5,1.3l1.3-.4c.2.4.4.8.7,1.2.2.4.4.8.5,1.1l-1.3.4c-.1-.3-.3-.7-.5-1.2-.2-.4-.4-.9-.6-1.2h0ZM371.2,10.5h1.3v4.6h-1.3v-4.6ZM373,3.8h1.2v2.9c0,.2,0,.4.1.5,0,0,.2.1.4.1h2.8c.2,0,.4,0,.7,0s.5,0,.6,0c0,.2,0,.4,0,.6,0,.2,0,.4,0,.5-.1,0-.3,0-.6,0-.3,0-.5,0-.8,0h-2.9c-.5,0-.8,0-1.1-.2-.3-.1-.4-.3-.5-.6-.1-.3-.1-.6-.1-1v-2.9h0Z"/>
  <path class="st0" d="M381.4,1.8h1.2v14.3h-1.2V1.8ZM382,4.1h4.5v.9h-4.5v-.9ZM382.1,1.8h5.2v5.6h-5.2v-.9h4.1v-3.7h-4.1v-.9ZM385,8.6h1.1v6.8h-1.1v-6.8ZM385.5,8.6h5.6v5.9h-5.6v-1h4.4v-4h-4.4v-1h0ZM385.6,11.1h4.9v.9h-4.9v-.9ZM394.2,1.8v.9h-4.3v3.7h4.3v.9h-5.4V1.8h5.4ZM389.5,4.1h4.6v.9h-4.6v-.9ZM393.6,1.8h1.2v12.7c0,.4,0,.7-.2.9-.1.2-.3.4-.6.5-.3.1-.6.2-1.1.2-.4,0-1,0-1.7,0,0-.1,0-.3-.1-.4,0-.2,0-.3-.2-.5,0-.2-.1-.3-.2-.4.3,0,.6,0,1,0h1.3c.1,0,.2,0,.3-.1s0-.2,0-.3V1.8Z"/>
  <path class="st0" d="M397.8,8.4h1.1c0,1.1,0,2.1-.1,3,0,.9-.2,1.8-.4,2.6-.2.8-.4,1.5-.8,2.1,0,0-.2-.1-.3-.2-.1,0-.2-.2-.4-.2-.1,0-.2-.1-.3-.2.3-.5.5-1.2.7-1.9.2-.7.3-1.5.3-2.4,0-.9,0-1.8.1-2.8h0ZM397.1,6.2h7v1.1h-7v-1.1ZM397.4,3h6.3v1.1h-6.3v-1.1ZM398.7,10.4c.2.9.5,1.6.9,2.1.3.5.8,1,1.3,1.2.5.3,1.1.5,1.9.6.7.1,1.6.2,2.5.2h6c.4,0,.6,0,.8,0,0,0-.1.2-.2.3,0,.1-.1.3-.2.4,0,.2,0,.3-.1.4h-6.3c-1.1,0-2.1,0-2.9-.2-.8-.1-1.5-.4-2.1-.7-.6-.4-1.1-.9-1.5-1.5-.4-.7-.7-1.5-1-2.5l.9-.3h0ZM400,1.1h1.1v5.6h-1.1V1.1ZM400.2,6.9h1.1v7.4h-1.1v-7.4ZM400.8,9.6h3.1v1.1h-3.1v-1.1ZM406.6,2.2h1.2c-.1,1.5-.4,2.6-.9,3.5-.5.9-1.3,1.6-2.2,2.2,0,0-.1-.2-.3-.3-.1-.1-.2-.2-.3-.3s-.2-.2-.3-.2c.9-.5,1.7-1.1,2.1-1.9.5-.8.7-1.8.8-3h0ZM404.2,1.8h6.6v1.1h-6.6v-1.1ZM404.8,8.1h6.3v5.1h-6.3v-5.1ZM405.9,9.1v3h3.9v-3h-3.9ZM410.2,1.8h1.2c0,.3,0,.4,0,.5,0,1,0,1.8-.1,2.4,0,.6-.1,1.1-.2,1.4,0,.3-.2.6-.3.7-.1.1-.3.2-.4.3-.1,0-.3.1-.5.1-.2,0-.4,0-.8,0-.3,0-.7,0-1,0,0-.2,0-.3-.1-.5,0-.2-.1-.4-.2-.5.3,0,.7,0,1,0h.6c.3,0,.4,0,.5-.1,0-.1.2-.3.2-.6,0-.3.1-.7.2-1.3,0-.6,0-1.3.1-2.2v-.2Z"/>
  <path class="st0" d="M414.2,8.4h1c0,.9,0,1.7,0,2.6s-.2,1.8-.4,2.6c-.2.9-.5,1.7-1,2.4,0,0-.1-.2-.2-.3,0,0-.2-.2-.3-.3-.1,0-.2-.1-.3-.2.4-.7.7-1.4.8-2.2s.3-1.6.3-2.4c0-.8,0-1.6,0-2.3h0ZM413.2,6.3h7v1.1h-7v-1.1ZM413.9,3.1h6.1v1.1h-6.1v-1.1ZM415.1,10.4c.3.9.6,1.6.9,2.1.4.5.8,1,1.4,1.2.5.3,1.2.5,1.9.6.7.1,1.6.2,2.5.2h5.8c.3,0,.6,0,.8,0,0,0-.1.2-.2.3s-.1.3-.2.4c0,.2-.1.3-.1.4h-6c-1.1,0-2.1,0-2.9-.2-.8-.1-1.5-.4-2.1-.7-.6-.4-1.1-.9-1.5-1.5-.4-.7-.8-1.5-1.1-2.5l.9-.3h0ZM416.4,1.1h1.1v5.8h-1.1V1.1ZM416.6,7h1.1v7.4h-1.1v-7.4ZM417.1,9.6h3v1.1h-3v-1.1ZM420.5,12.5c0-.1,0-.2-.1-.4,0-.1-.1-.3-.2-.4,0-.1-.1-.2-.2-.3.1,0,.3-.2.5-.4.2-.2.3-.4.3-.8v-5.8h1.1v6.9c-.3.2-.5.3-.7.4-.2.1-.3.2-.5.4-.1.1-.2.3-.2.4h0ZM420.5,12.5l-.2-1,.4-.5,3-1.6c0,.2,0,.3.1.5,0,.2.1.3.2.4-.7.4-1.3.7-1.7,1-.4.3-.8.5-1,.6-.2.2-.4.3-.5.3s-.2.2-.3.2h0ZM420.7,3.9h7.5v1h-7.5v-1ZM426.9,6l1,.2c-.3,1.2-.8,2.2-1.3,3.2-.5,1-1.1,1.9-1.8,2.7-.7.8-1.5,1.4-2.3,1.9,0-.1-.2-.3-.3-.5-.1-.2-.3-.3-.4-.4.8-.4,1.5-1,2.2-1.7.7-.7,1.3-1.6,1.8-2.5.5-.9.9-1.9,1.2-3h0ZM423.8,1.1h1.1c0,1.3,0,2.5,0,3.7,0,1.2.2,2.2.3,3.2.1.9.3,1.8.4,2.5.2.7.4,1.2.5,1.6.2.4.4.6.6.6s.2-.2.3-.6c0-.4.1-1,.1-1.8.1.1.3.2.4.3s.3.2.4.2c0,.7-.1,1.3-.2,1.7-.1.4-.3.7-.4.9-.2.2-.4.3-.8.3s-.8-.2-1.1-.6c-.3-.4-.6-1-.8-1.8-.2-.8-.4-1.7-.6-2.7-.1-1-.3-2.2-.3-3.4,0-1.3-.1-2.6-.1-3.9h0ZM425.4,1.7l.8-.4c.3.3.6.6.9,1,.3.4.6.7.7.9l-.9.5c-.2-.3-.4-.6-.7-1-.3-.4-.6-.7-.9-1Z"/>
  <path class="st0" d="M429.4,12.3c.4-.1.9-.3,1.4-.5.5-.2,1.1-.4,1.7-.6.6-.2,1.2-.4,1.8-.7l.2,1.1c-.8.3-1.6.7-2.5,1-.8.3-1.6.6-2.2.9l-.4-1.2ZM429.7,5h4.5v1.2h-4.5v-1.2ZM431.5,1.3h1.1v10.6h-1.1V1.3ZM434.3,9.1h10.2v1.2h-10.2v-1.2ZM434.8,1.9h9.2v1.2h-9.2v-1.2ZM435.4,4.3l1-.3c.2.4.3.9.4,1.4.1.5.2,1,.3,1.4.1.5.2.9.2,1.2l-1.1.3c0-.4,0-.8-.2-1.3,0-.5-.2-.9-.3-1.4-.1-.5-.3-.9-.4-1.4h0ZM438.8,2.2h1.2v13.9h-1.2V2.2ZM442.4,3.9l1.2.3c-.1.5-.3.9-.4,1.4-.2.5-.3,1-.5,1.4-.2.5-.3.9-.5,1.2l-.9-.3c.1-.4.3-.8.4-1.3.1-.5.3-1,.4-1.5.1-.5.2-1,.3-1.4h0Z"/>
  <path class="st0" d="M451.8,10.4h1v.4c0,.3,0,.7-.1,1.1,0,.4-.2.8-.5,1.1-.2.4-.6.8-1.1,1.1-.5.4-1.1.7-1.9,1.1-.8.3-1.8.6-3,.9,0-.1-.1-.2-.2-.4s-.2-.3-.3-.4c1.1-.2,2.1-.5,2.8-.8.7-.3,1.3-.6,1.8-.9s.8-.6,1-1c.2-.3.4-.7.4-1,0-.3,0-.6,0-.9v-.3h0ZM445.7,3.8h1.5c0,0,5.6,0,5.6,0h0c0,0,1.6,0,1.6,0v.9h-1.6c0,0-5.6,0-5.6,0h0c0,0-1.5,0-1.5,0v-.9ZM445.8,11h8.5v.9h-8.5v-.9ZM446.6,7.3h7.3v2.7h-7.3v-2.7ZM447,2.1h6.6v4.5h-6.6V2.1ZM447,13.4c.3-.4.6-1,.9-1.6.3-.6.6-1.2.8-1.7l1,.2c-.2.4-.3.8-.5,1.2-.2.4-.4.8-.6,1.2-.2.4-.4.7-.6,1l-1-.2h0ZM447,13.4l.8-.7c.6.2,1.3.4,2,.6.7.2,1.4.5,2,.8.6.3,1.2.5,1.6.8l-.8.8c-.4-.3-1-.5-1.6-.8-.6-.3-1.3-.5-2-.8-.7-.3-1.4-.5-2.1-.6ZM447.6,8.1v1.1h5.1v-1.1h-5.1ZM447.9,3v2.8h4.6v-2.8h-4.6ZM449.7,1.1h1v9.6h-1V1.1ZM458.5,5h1.1c-.2,1.9-.5,3.6-1,5-.4,1.4-1.1,2.6-1.9,3.6-.8,1-1.8,1.9-3.1,2.5,0,0,0-.2-.2-.3,0-.1-.2-.2-.2-.3,0-.1-.2-.2-.2-.3,1.2-.6,2.2-1.4,3-2.3.8-.9,1.3-2,1.7-3.4.4-1.3.7-2.8.8-4.5ZM456,1.1l1.1.2c-.2,1-.4,2-.7,2.9-.3.9-.5,1.9-.9,2.7-.3.8-.7,1.6-1,2.2,0,0-.2-.1-.3-.2s-.2-.2-.3-.3c-.1,0-.2-.2-.3-.2.4-.6.7-1.3,1-2.1.3-.8.6-1.6.8-2.5.2-.9.4-1.8.6-2.7ZM456,5.5c.2,1.4.5,2.8.9,4.1.4,1.3.9,2.4,1.6,3.3.7.9,1.5,1.7,2.4,2.2,0,0-.2.2-.3.3-.1.1-.2.2-.3.3,0,.1-.2.2-.2.3-1-.6-1.8-1.4-2.5-2.4-.7-1-1.2-2.2-1.6-3.6-.4-1.4-.7-2.8-1-4.4h.9c0-.1,0-.1,0-.1ZM455.5,4.3h5.2v1.1h-5.2v-1.1Z"/>
  <path class="st0" d="M464.2,11.7l-.4-.9c.7-.3,1.2-.6,1.5-1,.4-.4.5-.9.5-1.6l-.3-1.4.9,1.2c-.1.1-.3.2-.4.3-.2,0-.3,0-.5,0-.3,0-.6-.1-.9-.3-.2-.2-.4-.5-.4-.9s.1-.7.4-.9c.2-.2.5-.3.9-.3s.8.2,1,.5c.2.3.3.8.3,1.4,0,.9-.3,1.6-.8,2.3-.5.6-1.2,1.1-2.1,1.4Z"/>
  <path class="st0" d="M474.7,1.3l1.2.4c-.4.9-.9,1.9-1.4,2.8-.5.9-1.2,1.8-1.8,2.6-.6.8-1.3,1.5-2,2.1,0-.1,0-.2-.2-.4,0-.2-.2-.3-.3-.5-.1-.2-.2-.3-.3-.4.6-.5,1.2-1.1,1.8-1.8.6-.7,1.1-1.5,1.6-2.3.5-.8.9-1.7,1.3-2.5h0ZM472.8,5.6l1.2-1.2h0v11.7h-1.2V5.6ZM477.5,1.5h1.2v12.1c0,.3,0,.5,0,.7,0,.2.2.3.3.3.2,0,.4,0,.7,0h3.2c.3,0,.5,0,.7-.3.1-.2.3-.5.3-.9,0-.4.1-1,.2-1.8.2.1.3.2.6.3.2.1.4.2.6.2,0,.9-.2,1.6-.3,2.1s-.4.9-.7,1.1c-.3.2-.7.3-1.3.3h-3.4c-.6,0-1,0-1.3-.2-.3-.1-.6-.4-.7-.7-.1-.3-.2-.8-.2-1.4V1.5h0ZM483.6,4.2l.9,1c-.5.5-1.2.9-1.8,1.3-.7.4-1.4.9-2.1,1.3-.7.4-1.5.8-2.2,1.2,0-.1-.1-.3-.2-.5s-.2-.3-.3-.5c.7-.4,1.4-.8,2.1-1.2.7-.4,1.4-.9,2-1.3.6-.5,1.2-.9,1.7-1.3h0Z"/>
  <path class="st0" d="M490.5,1.2l1.2.4c-.3.9-.8,1.8-1.2,2.7-.5.9-1,1.8-1.5,2.5-.6.8-1.1,1.5-1.7,2.1,0-.1-.1-.2-.2-.4,0-.2-.2-.3-.3-.5,0-.2-.2-.3-.3-.4.5-.5,1.1-1.1,1.6-1.8.5-.7,1-1.4,1.4-2.2s.8-1.6,1.1-2.4h0ZM488.8,5.3l1.2-1.2h0v11.9h-1.2V5.3ZM494.4,1.3l1.2.3c-.3.9-.7,1.7-1.1,2.5-.4.8-.8,1.6-1.3,2.3-.5.7-.9,1.4-1.4,1.9,0,0-.2-.2-.3-.3s-.2-.2-.4-.3c-.1-.1-.2-.2-.3-.2.5-.5,1-1.1,1.4-1.8.4-.7.9-1.4,1.2-2.2.4-.8.7-1.6,1-2.3h0ZM493.8,3.8h7.7v1.2h-8.3l.6-1.2ZM495.2,4.2h1.2v11.9h-1.2V4.2ZM495.9,7.3h5.3v1.1h-5.3v-1.1ZM495.9,10.9h5.5v1.2h-5.5v-1.2Z"/>
  <path class="st0" d="M503.5,4.2h.8c0,.6,0,1.1-.1,1.7,0,.6-.2,1.1-.3,1.6-.1.5-.3.9-.5,1.3l-.8-.4c.2-.3.3-.7.5-1.2.1-.5.2-1,.3-1.5,0-.5,0-1,.1-1.5h0ZM504.9,1.1h1.2v15h-1.2V1.1ZM506.2,4l.8-.3c.2.3.3.7.5,1.1.1.4.3.7.4,1.1.1.4.2.7.2.9l-.8.4c0-.3-.1-.6-.2-1-.1-.4-.2-.7-.4-1.1-.1-.4-.3-.7-.4-1.1h0ZM507.1,14.4h10.7v1.1h-10.7v-1.1ZM507.7,2.1h9.9v1.1h-9.9v-1.1ZM510.4,2.8h1.2c-.1.9-.3,1.7-.4,2.6-.2.9-.3,1.8-.5,2.7-.2.9-.4,1.7-.5,2.5-.2.8-.3,1.5-.5,2.1h-1.2c.2-.7.3-1.4.5-2.2.2-.8.4-1.7.5-2.5.2-.9.3-1.8.5-2.7.2-.9.3-1.7.4-2.5ZM509.5,10.7l.6-.7c.4.2.8.4,1.3.7.4.3.9.5,1.3.8.4.3.7.5,1,.7l-.7.8c-.3-.2-.6-.5-1-.7-.4-.3-.8-.6-1.3-.8-.4-.3-.9-.5-1.3-.7ZM510.1,8l.6-.8c.4.2.8.4,1.3.6.4.2.9.5,1.3.7.4.2.7.5,1,.7l-.6.9c-.3-.2-.6-.4-1-.7-.4-.2-.8-.5-1.3-.7-.4-.2-.9-.4-1.3-.6h0ZM510.4,5.4h5.2v1.1h-5.4l.2-1.1ZM515.1,5.4h1.2c0,.8-.2,1.6-.3,2.4-.1.9-.2,1.7-.3,2.6-.1.9-.2,1.7-.3,2.4-.1.8-.2,1.4-.3,2h-1.3c.1-.6.2-1.3.4-2.1.1-.8.2-1.6.4-2.5.1-.9.2-1.7.3-2.6.1-.8.2-1.6.3-2.4h0Z"/>
  <path class="st0" d="M523.9,1.1l1.3.3c-.4,1.1-.8,2.2-1.3,3.3-.5,1-1.1,2-1.7,2.9-.6.9-1.3,1.6-2.1,2.3,0,0-.2-.2-.3-.3-.1-.1-.3-.2-.4-.3-.1-.1-.3-.2-.4-.3.7-.6,1.4-1.3,2-2.1.6-.8,1.2-1.7,1.7-2.7.5-1,.9-2,1.2-3h0ZM528.3,3.7h.5c0,0,.9.3.9.3-.5,2.1-1.2,3.9-2.2,5.4-.9,1.6-2,2.9-3.3,4-1.3,1.1-2.6,2-4,2.6,0-.1-.2-.2-.3-.4-.1-.1-.2-.3-.3-.4-.1-.1-.2-.2-.3-.3,1.4-.6,2.7-1.4,3.9-2.4,1.2-1,2.3-2.2,3.2-3.7.9-1.4,1.6-3.1,2-5v-.3h0ZM523.4,3.7h5.3v1.2h-5.8l.6-1.2h0ZM528,7.9c.4,1,.9,2,1.5,2.9.6.9,1.3,1.7,2.1,2.5.8.7,1.7,1.3,2.6,1.7-.1,0-.2.2-.3.3s-.2.3-.3.4c-.1.1-.2.3-.3.4-1-.5-1.9-1.1-2.7-1.9-.8-.8-1.6-1.7-2.2-2.7-.6-1-1.2-2.1-1.6-3.2l1.1-.4h0Z"/>
  <path class="st0" d="M539.1,1l1,.4c-.3.6-.7,1.1-1.2,1.7-.4.6-.9,1.1-1.4,1.5-.5.5-1,.9-1.6,1.2,0,0,0-.2-.2-.3,0-.1-.1-.3-.2-.4,0-.1-.2-.3-.2-.4.7-.4,1.4-1,2.1-1.6.7-.7,1.2-1.4,1.6-2.1h0ZM536,7.8h6.6v1h-6.6v-1ZM536.4,10.5h5.8v5h-1.2v-4h-3.5v4.3h-1.1v-5.3h0ZM536.9,14h4.5v1h-4.5v-1ZM537,5.2h4.5v1h-4.5v-1ZM538.7,5.5h1.2v5.5h-1.2v-5.5ZM538.9,2.6l.7-.8c.4.3.9.6,1.3.9.4.3.8.7,1.2,1,.4.3.7.6.9.9l-.7,1c-.2-.3-.5-.6-.9-1-.4-.4-.8-.7-1.2-1.1-.4-.4-.8-.7-1.3-1h0ZM542.8,7h6.7v1.1h-6.7v-1.1ZM543.4,1.8h5.4v1.1h-5.4v-1.1ZM543.7,4.4l.8-.7c.4.3.9.5,1.3.9.5.3.9.7,1.3,1,.4.3.7.7,1,.9l-.9.8c-.2-.3-.5-.6-.9-1-.4-.3-.8-.7-1.3-1-.4-.3-.9-.6-1.3-.9h0ZM545.8,7.6h1.2v7.1c0,.3,0,.6-.1.8,0,.2-.2.3-.4.4-.2.1-.5.2-.9.2-.4,0-.8,0-1.3,0,0-.2,0-.3-.1-.6,0-.2-.1-.4-.2-.6.4,0,.7,0,1,0h.6c.1,0,.2,0,.2,0,0,0,0,0,0-.2v-7.1h0ZM548.5,1.8h.5c0,0,.8.5.8.5-.3.4-.6.8-.9,1.3-.4.4-.7.8-1.1,1.2-.4.4-.8.7-1.2,1,0-.1-.2-.2-.3-.3-.1-.1-.3-.2-.3-.3.3-.3.7-.6,1-.9.3-.3.6-.7.9-1.1.3-.4.5-.7.7-1v-.2h0ZM549.2,7h.4s.8.2.8.2c-.2.6-.4,1.2-.7,1.8-.2.6-.5,1.1-.7,1.6l-1-.3c.1-.3.3-.6.4-.9.1-.3.3-.7.4-1.1s.2-.7.3-1.1v-.2h0Z"/>
  <path class="st0" d="M555,8.9h.5s.6.2.6.2c-.3,1.7-.7,3.2-1.4,4.3-.7,1.2-1.4,2-2.3,2.7,0,0-.1-.2-.2-.3-.1-.1-.2-.2-.3-.3-.1-.1-.2-.2-.3-.2.9-.6,1.6-1.3,2.2-2.4.6-1,1-2.3,1.2-3.8v-.2h0ZM552.1,10.2c0-.1,0-.2-.1-.4,0-.1-.1-.3-.2-.4,0-.1-.1-.3-.2-.3.1,0,.3,0,.4-.2.1,0,.3-.2.4-.3.1-.1.3-.3.5-.6.2-.3.5-.6.8-1,.3-.4.5-.7.8-1.1.2-.3.4-.6.6-.8h0s.4-.2.4-.2l.8.4c-.2.3-.4.6-.7,1-.3.4-.6.8-.9,1.2-.3.4-.6.8-.9,1.2-.3.4-.6.7-.8.9-.2.1-.3.2-.5.3-.1,0-.2.2-.3.2,0,0-.1.2-.1.3h0ZM551.8,4.9h3.6v1h-3.6v-1ZM552.1,10.2v-.9l.6-.3h2.7v1h-2.3c-.2,0-.4,0-.6,0-.2,0-.3.1-.4.2ZM552.4,1.7l.9-.6c.3.3.5.5.8.8.3.3.5.6.8.9.2.3.4.5.6.8l-.9.7c-.2-.2-.3-.5-.6-.8-.2-.3-.5-.6-.7-.9-.3-.3-.5-.6-.8-.9ZM554.7,12.3c.3.7.8,1.3,1.4,1.6.6.3,1.3.6,2.1.7.8.1,1.8.2,2.9.2.6,0,1.2,0,1.9,0,.7,0,1.4,0,2,0,.7,0,1.3,0,1.8-.1,0,0-.1.2-.2.3,0,.1-.1.3-.1.4,0,.1,0,.3-.1.4-.5,0-1.1,0-1.7,0-.6,0-1.2,0-1.9,0h-1.8c-1,0-1.8,0-2.6-.1-.8,0-1.4-.2-2-.4-.6-.2-1.1-.5-1.5-.9-.4-.4-.8-1-1.1-1.6l.8-.4h0ZM556.2,2.5h10.3v1h-10.3v-1ZM557,5.1h8.4v1h-7.3v7.6h-1.1V5.1ZM558.4,3.6l1-.3c.2.3.3.5.5.8.1.3.2.6.3.8l-1.1.3c0-.2-.1-.5-.3-.8-.1-.3-.3-.6-.4-.8h0ZM558.6,7.2h5.8v.8h-5.8v-.8ZM559.3,9.2h.9v3.4h-.9v-3.4ZM559.8,9.2h3.9v2.8h-3.9v-.8h3v-1.2h-3v-.8ZM560,1.4l1-.4c.3.3.5.6.7.9.2.3.4.7.5.9l-1,.5c0-.3-.2-.6-.4-.9-.2-.4-.4-.7-.6-1ZM561,6h.9v3.4h-.9v-3.4ZM563.2,3.3l1.2.3c-.2.3-.4.7-.5,1-.2.3-.4.6-.5.9l-1-.3c.2-.3.3-.6.5-1,.2-.4.3-.7.4-1ZM564.8,5.1h1.1v7.2c0,.3,0,.5-.1.7,0,.2-.2.3-.4.4-.2,0-.5.1-.8.2-.3,0-.8,0-1.2,0,0-.2,0-.3-.1-.5s-.2-.4-.2-.5c.4,0,.7,0,1,0h.6c.1,0,.2,0,.2,0,0,0,0-.1,0-.2v-7.2h0Z"/>
  <path class="st0" d="M568.8,3.7h1.1v11.9h-1.1V3.7ZM569.4,8.2h4.5v1.1h-4.5v-1.1ZM569.5,3.7h5v10.7h-5v-1.1h3.8V4.8h-3.8v-1.1ZM571.3,1.1l1.3.2c-.2.5-.3,1-.5,1.5-.2.5-.4,1-.5,1.3l-1-.2c.1-.3.2-.6.3-.9,0-.3.2-.7.3-1,0-.3.1-.7.2-.9h0ZM577.1,1l1.2.3c-.2.8-.4,1.6-.7,2.4-.3.8-.6,1.5-.9,2.2-.3.7-.7,1.3-1,1.8,0,0-.2-.1-.3-.2-.1,0-.3-.2-.4-.3-.1,0-.2-.2-.3-.2.4-.5.7-1,1-1.7.3-.6.6-1.3.8-2,.3-.7.5-1.5.6-2.2h0ZM576.4,7.9l1-.5c.3.4.6.8,1,1.3.3.5.6.9.9,1.3.3.4.5.8.7,1.1l-1,.7c-.2-.3-.4-.7-.7-1.2-.3-.4-.6-.9-.9-1.4-.3-.5-.6-.9-.9-1.3ZM576.8,3.7h5v1.1h-5v-1.1ZM581.3,3.7h1.2v.4c0,.1,0,.2,0,.2,0,1.9-.1,3.5-.2,4.7,0,1.3-.1,2.4-.2,3.2,0,.8-.2,1.5-.3,1.9-.1.5-.3.8-.4,1-.2.2-.4.4-.6.5-.2,0-.4.2-.7.2-.3,0-.6,0-1.1,0-.4,0-.9,0-1.4,0,0-.2,0-.4-.1-.6,0-.2-.2-.4-.3-.6.5,0,1,0,1.5,0,.4,0,.8,0,1,0s.3,0,.4,0c.1,0,.2-.1.3-.2.1-.1.2-.4.3-.9.1-.4.2-1.1.3-1.9,0-.8.1-1.9.2-3.1,0-1.3.1-2.8.2-4.6v-.3h0Z"/>
  <path class="st0" d="M587.6,1.3l1.2.3c-.2.8-.5,1.7-.8,2.5-.3.8-.7,1.5-1.1,2.2-.4.7-.8,1.3-1.3,1.8,0,0-.2-.2-.3-.2-.1,0-.3-.2-.4-.3-.1,0-.3-.2-.4-.2.4-.5.9-1,1.2-1.7.4-.6.7-1.3,1-2.1.3-.7.6-1.5.8-2.3h0ZM584.6,14.4h14.6v1.2h-14.6v-1.2ZM586.4,9h11.4v1.2h-11.4v-1.2ZM587.1,4.3h11.3v1.2h-11.3v-1.2ZM591.2,1.1h1.3v13.9h-1.3V1.1Z"/>
  <path class="st0" d="M600.6,6.6l.7-.9c.3.2.7.3,1.1.5.4.2.7.4,1.1.6.4.2.6.4.9.5l-.7,1c-.2-.2-.5-.3-.8-.5-.3-.2-.7-.4-1.1-.6-.4-.2-.7-.4-1.1-.6h0ZM601,15c.3-.4.6-.9,1-1.5.4-.6.7-1.2,1.1-1.9.4-.7.7-1.3,1-1.9l.9.8c-.3.6-.6,1.2-.9,1.8-.3.6-.7,1.2-1,1.8-.3.6-.7,1.2-1,1.7l-1-.8ZM601.4,2.2l.7-.9c.3.2.7.3,1.1.5.4.2.8.4,1.1.6.4.2.7.4.9.5l-.7,1c-.2-.2-.5-.4-.9-.6-.4-.2-.7-.4-1.1-.7-.4-.2-.7-.4-1.1-.6h0ZM605.2,5.9h10.4v1.2h-10.4v-1.2ZM613.9,1.2l1,.9c-.8.3-1.6.5-2.6.7-1,.2-2,.4-3,.5s-2,.3-3,.4c0-.1,0-.3-.2-.5,0-.2-.1-.4-.2-.5.7,0,1.4-.2,2.2-.3.8-.1,1.5-.2,2.2-.3s1.4-.3,2-.4c.6-.1,1.2-.3,1.6-.5ZM606.4,9.7h8.1v6.2h-1.2v-5.1h-5.8v5.2h-1.1v-6.3ZM607.1,14.3h6.7v1.1h-6.7v-1.1ZM609.9,2.6h1.2v7.8h-1.2V2.6Z"/>
  <path class="st0" d="M617,13.1h14.7v1h-14.7v-1ZM617.1,5.1h14.7v1h-14.7v-1ZM618.1,2.4h12.6v1h-12.6v-1ZM618.9,7h11v5h-11v-5ZM620.1,7.8v1.2h8.5v-1.2h-8.5ZM620.1,9.9v1.2h8.5v-1.2h-8.5ZM620.6,3.7l1.2-.3c.2.3.4.6.6.9.2.3.3.6.4.9l-1.2.3c0-.3-.2-.6-.4-.9-.2-.3-.3-.7-.5-.9h0ZM623.3,1.1l1.2-.3c.2.3.4.6.6.9.2.3.3.7.4.9l-1.2.3c0-.3-.2-.6-.4-.9-.2-.4-.3-.7-.5-1h0ZM623.7,11.5h1.3v4.5h-1.3v-4.5ZM627.1,3.4l1.3.3c-.2.3-.4.7-.6,1-.2.3-.4.6-.6.9l-1.1-.3c.1-.2.2-.4.4-.6.1-.2.3-.5.4-.7.1-.2.2-.4.3-.6Z"/>
  <path class="st0" d="M633.2,6.6l.7-.9c.3.1.7.3,1.1.5.4.2.8.4,1.1.6.3.2.6.4.8.6l-.7,1c-.2-.2-.5-.4-.8-.6-.3-.2-.7-.4-1.1-.6-.4-.2-.8-.4-1.1-.5h0ZM633.8,15c.3-.4.6-.9,1-1.5.4-.6.7-1.2,1.1-1.9.4-.7.7-1.3,1-1.9l.9.8c-.3.6-.6,1.2-.9,1.8-.3.6-.7,1.2-1,1.8-.3.6-.7,1.2-1,1.7l-1-.8ZM634.1,2.1l.7-.9c.4.1.7.3,1.1.5.4.2.8.4,1.1.6.4.2.6.4.9.6l-.7,1c-.2-.2-.5-.4-.9-.6-.3-.2-.7-.4-1.1-.7-.4-.2-.8-.4-1.1-.6h0ZM638.1,8h9.7v1.2h-9.7v-1.2ZM638.8,15.5c0,0,0-.2-.1-.4,0-.2-.1-.3-.2-.5,0-.2-.1-.3-.2-.4.2,0,.3-.1.5-.3.2-.2.3-.4.5-.7.1-.1.3-.4.5-.7.2-.3.4-.7.7-1.2.3-.5.5-.9.8-1.5.3-.5.5-1.1.7-1.6l1.3.4c-.3.8-.7,1.5-1.1,2.2-.4.7-.8,1.4-1.3,2.1s-.9,1.3-1.3,1.8h0c-.2.1-.3.2-.4.3-.1,0-.2.1-.3.2,0,0-.1.2-.1.2h0ZM638.8,3.9h8.4v1.2h-8.4v-1.2ZM638.8,15.5v-1c0,0,.7-.4.7-.4l6.7-.8c0,.2,0,.3,0,.6,0,.2,0,.4,0,.5-1.3.2-2.3.3-3.1.4-.8.1-1.5.2-2.1.3-.5,0-.9.1-1.2.2-.3,0-.5,0-.6.1-.1,0-.3,0-.3.1h0ZM642.3,1.1h1.2v7.7h-1.2V1.1ZM644,11.3l1-.5c.4.5.8,1,1.2,1.5.4.6.7,1.1,1,1.7.3.5.5,1,.7,1.4l-1.1.6c-.1-.4-.4-.9-.7-1.5-.3-.6-.6-1.1-1-1.7-.4-.6-.8-1.1-1.1-1.6h0Z"/>
  <path class="st0" d="M655,6.1c.5,0,.9.1,1.3.3.4.2.7.5.9.9.2.4.3.8.3,1.2s-.1.9-.3,1.2c-.2.4-.5.7-.9.9-.4.2-.8.3-1.3.3s-.9-.1-1.2-.3c-.4-.2-.7-.5-.9-.9-.2-.4-.3-.8-.3-1.2s.1-.9.3-1.2c.2-.4.5-.7.9-.9.4-.2.8-.3,1.2-.3h0ZM655,10.2c.5,0,.8-.2,1.2-.5.3-.3.5-.7.5-1.2s0-.6-.2-.8c-.1-.3-.3-.4-.6-.6-.3-.1-.5-.2-.8-.2s-.6,0-.8.2c-.3.1-.4.3-.6.6-.2.2-.2.5-.2.8s0,.6.2.8c.1.3.3.4.6.6.2.1.5.2.8.2h0Z"/>
</svg>