<svg width="81" height="508" viewBox="0 0 81 508" fill="none" xmlns="http://www.w3.org/2000/svg">
<path d="M4.69927 507.977H3.80621V462.387H15.8416V463.109C9.39859 463.109 6.18777 467.405 6.18777 475.974V491.922H40.9119V477.909C40.9119 475.145 40.4654 472.657 39.5723 470.488C38.6792 468.298 36.6165 467.065 33.3844 466.746V465.959H50.7146V466.746C48.7371 467.065 47.2273 467.639 46.1641 468.511C45.1009 469.382 44.3992 470.233 44.059 471.083C43.7188 471.934 43.5487 472.678 43.5487 473.338C43.336 474.592 43.2297 475.889 43.2297 477.229V491.922H70.3838C72.4252 491.922 74.1901 491.539 75.6786 490.753C77.167 489.966 77.9113 488.159 77.9113 485.33V473.954C77.9113 471.211 77.5072 468.978 76.7205 467.213C75.9337 465.449 74.828 464.045 73.4033 463.024C71.9786 462.004 70.2775 461.153 68.2574 460.451V459.729L80.2504 462.387V507.977H79.4211V506.935C79.4211 505.319 78.7619 503.724 77.4435 502.15C76.1251 500.598 73.9774 499.811 71.0005 499.811H13.375C11.0147 499.811 8.97336 500.343 7.25097 501.406C5.52859 502.469 4.65683 504.298 4.65683 506.935V507.977H4.69927Z" fill="black"/>
<path d="M18.7123 388.43V389.259C13.7365 389.642 10.5044 391.088 9.03721 393.618C7.56999 396.149 6.82567 399.253 6.82567 402.953V418.157H71.043C76.4866 418.157 79.2723 415.393 79.4636 409.843H80.2928V434.19H79.4636C79.3998 431.915 78.7194 429.98 77.4648 428.406C76.2102 426.833 74.0625 426.046 71.043 426.046H6.82567V441.25C6.82567 444.949 7.56999 448.054 9.03721 450.563C10.5044 453.072 13.7365 454.54 18.7123 454.944V455.773H0.021155V454.944C0.89298 454.391 1.53095 453.902 1.93497 453.498C2.33898 453.094 2.70047 452.541 2.99817 451.882C3.29587 451.222 3.50846 450.457 3.61478 449.564C3.74236 448.671 3.78493 447.629 3.78493 446.417V396.893C3.78493 393.597 2.53042 391.045 0 389.217V388.387H18.691L18.7123 388.43Z" fill="black"/>
<path d="M38.8068 323.107H13.2049C10.717 323.107 8.67563 323.787 7.08083 325.127C5.48602 326.466 4.69927 328.571 4.69927 331.4H3.80621V307.052H4.69927C4.69927 309.88 5.486 311.964 7.05954 313.283C8.63308 314.601 10.6957 315.26 13.2049 315.26H71.043C76.6567 315.26 79.4636 312.517 79.4636 307.052H80.2928V331.4H79.4636C79.4636 328.805 78.7618 326.764 77.3584 325.297C75.955 323.83 73.8924 323.085 71.1493 323.085H41.1458V366.91H71.043C73.701 366.91 75.7849 366.166 77.2521 364.656C78.7193 363.147 79.4636 361.127 79.4636 358.617H80.2928V382.965H79.4636C79.4636 380.328 78.7193 378.308 77.2521 376.926C75.7849 375.522 73.7223 374.821 71.043 374.821H13.2049C7.52738 374.821 4.69927 377.542 4.69927 382.965H3.80621V358.617H4.69927C4.69927 361.488 5.486 363.593 7.05954 364.933C8.63308 366.273 10.6957 366.932 13.2049 366.932H38.8068V323.107Z" fill="black"/>
<path d="M4.69927 299.866H3.80621V254.276H15.8416V254.999C9.39859 254.999 6.18777 259.294 6.18777 267.863V283.811H40.9119V269.798C40.9119 267.034 40.4654 264.546 39.5723 262.377C38.6792 260.187 36.6165 258.954 33.3844 258.635V257.848H50.7146V258.635C48.7371 258.954 47.2273 259.528 46.1641 260.4C45.1009 261.272 44.3992 262.122 44.059 262.973C43.7188 263.823 43.5487 264.567 43.5487 265.227C43.336 266.481 43.2297 267.778 43.2297 269.118V283.811H70.3838C72.4252 283.811 74.1901 283.429 75.6786 282.642C77.167 281.855 77.9113 280.048 77.9113 277.22V265.843C77.9113 263.1 77.5072 260.868 76.7205 259.103C75.9337 257.338 74.828 255.934 73.4033 254.914C71.9786 253.893 70.2775 253.042 68.2574 252.341V251.618L80.2504 254.276V299.866H79.4211V298.824C79.4211 297.208 78.7619 295.613 77.4435 294.039C76.1251 292.487 73.9774 291.7 71.0005 291.7H13.375C11.0147 291.7 8.97336 292.232 7.25097 293.295C5.52859 294.358 4.65683 296.187 4.65683 298.824V299.866H4.69927Z" fill="black"/>
<path d="M4.8907 244.727V245.769H3.80621V219.296C3.80621 215.043 4.46538 211.428 5.78375 208.472C7.10212 205.517 8.76068 203.22 10.802 201.562C12.8221 199.924 14.9698 198.733 17.2025 198.032C19.4565 197.33 21.668 196.968 23.8369 196.968C26.6012 196.968 29.2592 197.543 31.8109 198.712C34.3626 199.86 36.5528 201.647 38.3815 204.049C40.2102 206.452 41.4648 209.45 42.124 213.065H42.3366C44.5481 208.494 48.9497 204.283 55.5203 200.392L67.1942 193.481C72.4252 190.377 75.7211 187.867 77.1032 185.975C78.4854 184.082 79.2722 182.233 79.4423 180.404H80.2717V194.31C79.5062 194.906 78.7831 195.459 78.0601 195.969C77.3584 196.479 76.5929 197.032 75.8062 197.628C75.2958 197.968 74.5091 198.478 73.4459 199.159C72.3827 199.839 71.7872 200.243 71.6596 200.371L56.5622 209.514C53.479 211.343 50.991 213.235 49.056 215.149C47.1422 217.063 45.7601 218.87 44.9308 220.529C44.1015 222.188 43.5912 223.697 43.3785 225.016C43.1659 226.355 43.0596 227.908 43.0596 229.715H71.043C76.4866 229.715 79.2723 226.951 79.4636 221.401H80.2928V245.748H79.4636C79.3998 244.217 79.1021 242.877 78.613 241.708C78.1027 240.538 77.2522 239.56 76.0189 238.774C74.7856 237.987 73.1269 237.604 71.0643 237.604H13.2262C10.1854 237.604 8.03781 238.348 6.78323 239.837C5.52865 241.325 4.91198 242.941 4.91198 244.706L4.8907 244.727ZM41.0395 229.715V225.356C41.0395 220.784 40.3804 217.042 39.062 214.107C37.7436 211.173 35.8723 209.068 33.427 207.749C30.9816 206.431 28.0046 205.772 24.4748 205.772C21.5403 205.772 18.6486 206.367 15.8204 207.537C12.9923 208.706 10.632 210.705 8.7182 213.533C6.80443 216.361 5.82632 220.146 5.82632 224.931C5.82632 226.866 5.97511 228.46 6.29407 229.715H41.0182H41.0395Z" fill="black"/>
<path d="M4.69927 175.938H3.80621V130.348H15.8416V131.071C9.39859 131.071 6.18777 135.366 6.18777 143.936V159.884H40.9119V145.871C40.9119 143.106 40.4654 140.618 39.5723 138.45C38.6792 136.259 36.6165 135.026 33.3844 134.707V133.92H50.7146V134.707C48.7371 135.026 47.2273 135.6 46.1641 136.472C45.1009 137.344 44.3992 138.194 44.059 139.045C43.7188 139.895 43.5487 140.64 43.5487 141.299C43.336 142.553 43.2297 143.851 43.2297 145.19V159.884H70.3838C72.4252 159.884 74.1901 159.501 75.6786 158.714C77.167 157.927 77.9113 156.12 77.9113 153.292V141.916C77.9113 139.173 77.5072 136.94 76.7205 135.175C75.9337 133.41 74.828 132.007 73.4033 130.986C71.9786 129.965 70.2775 129.115 68.2574 128.413V127.69L80.2504 130.348V175.938H79.4211V174.896C79.4211 173.28 78.7619 171.685 77.4435 170.112C76.1251 168.559 73.9774 167.773 71.0005 167.773H13.375C11.0147 167.773 8.97336 168.304 7.25097 169.367C5.52859 170.431 4.65683 172.259 4.65683 174.896V175.938H4.69927Z" fill="black"/>
<path d="M2.87057 86.8008L68.385 63.8994C71.766 62.6874 74.2326 61.5391 75.7636 60.4759C77.2946 59.4127 78.2515 58.3708 78.6343 57.3926C79.0383 56.4145 79.2935 55.1599 79.4423 53.6289H80.2717V78.5929H79.4423C79.4423 76.0412 79.2084 74.0636 78.7193 72.6815C78.2302 71.2993 76.9119 70.5976 74.7642 70.5976C73.5947 70.5976 72.0212 70.9378 70.0437 71.5757C69.7672 71.7246 69.5545 71.7884 69.4269 71.7884L49.1198 78.5929V105.067L67.9173 111.148C70.4902 111.977 72.5315 112.403 74.105 112.403C76.2527 112.403 77.6774 111.871 78.3791 110.787C79.0808 109.723 79.4423 108.192 79.4423 106.215H80.2717V124.183H79.4423C79.2084 121.631 78.2303 119.569 76.5079 118.038C74.7855 116.507 72.1913 115.167 68.704 114.019L2.87057 92.4145V86.8008ZM46.3768 104.195V79.8474L10.0791 92.3082V92.5208L46.3768 104.195Z" fill="black"/>
<path d="M79.4423 48.3756V47.3337C79.4423 45.4625 78.698 43.8039 77.2308 42.3792C75.7636 40.9545 73.701 40.2315 71.0217 40.2315H13.29C10.1004 40.2315 7.88882 41.0396 6.6555 42.6556C5.40093 44.2717 4.76302 46.1854 4.67796 48.3969H3.78491V23.9433H4.67796C4.74176 26.0909 5.37973 27.9834 6.59178 29.6633C7.80383 31.3432 10.0366 32.1512 13.29 32.1512H69.108C72.4252 32.1512 74.743 31.3219 76.0189 29.6633C77.2947 28.0047 77.9325 25.2829 77.9325 21.5192V14.9273C77.9325 12.0567 77.5923 9.76018 76.8906 8.0378C76.1889 6.33668 75.147 4.97578 73.7223 3.95511C72.2976 2.9557 70.2988 1.93503 67.7045 0.893089V0L80.2717 2.91317V48.3969H79.4423V48.3756Z" fill="black"/>
</svg>
