<?xml version="1.0" encoding="UTF-8"?>
<svg id="_圖層_1" data-name="圖層_1" xmlns="http://www.w3.org/2000/svg" version="1.1" viewBox="0 0 422 15">
  <!-- Generator: Adobe Illustrator 29.4.0, SVG Export Plug-In . SVG Version: 2.1.0 Build 152)  -->
  <defs>
    <style>
      .st0 {
        fill: #fff;
      }
    </style>
  </defs>
  <path class="st0" d="M7.3,13.7l2-.2-1.2-3.7H3.5l-1.2,3.7,1.7.2v.6H0v-.6l1.5-.2L5.7,1h1.2l4.3,12.6h1.6v.7h-5.4v-.6ZM3.7,9.3h4.1l-2.1-6.4-2,6.4Z"/>
  <path class="st0" d="M13.6,1.1h5.7c2.9,0,4.6,1.2,4.6,3.4s-1.1,2.9-3.5,3.3c1.6.3,2.1,1,2.5,2.5l.9,3.3h1.7v.7c-.5.1-1,.2-1.7.2-1.3,0-1.9-.4-2.1-1.4l-.8-2.9c-.4-1.5-.9-2.1-2.4-2.1h-1.3c0,1.9,0,3.7,0,5.5l1.8.2v.6h-5.6v-.6l1.8-.2c0-1.8,0-3.6,0-5.4v-.9c0-1.8,0-3.6,0-5.4h-1.8v-.7h0ZM17.3,7.5h1.7c2,0,3.1-1.3,3.1-3s-1-2.8-3.2-2.8h-1.6c0,1.8,0,3.6,0,5.8h0Z"/>
  <path class="st0" d="M26.4,7.8c0-4.3,2.9-7,6.7-7s2.6.3,3.8,1v3s-.8,0-.8,0l-.6-2.9c-.7-.3-1.3-.4-2-.4-2.9,0-5,2.2-5,6.3s2.1,6.3,4.9,6.3,1.5-.1,2.2-.5l.7-2.8h.8v2.9c-1.2.7-2.4,1-3.9,1-3.9,0-6.7-2.5-6.7-6.8h0Z"/>
  <path class="st0" d="M46.9,1.1h5.5v.6l-1.8.2c0,1.8,0,3.6,0,5.4v1c0,1.8,0,3.6,0,5.4l1.8.2v.6h-5.5v-.6l1.8-.2c0-1.8,0-3.6,0-5.8h-6.2c0,2.2,0,4,0,5.8l1.8.2v.6h-5.5v-.6l1.8-.2c0-1.8,0-3.6,0-5.4v-1c0-1.8,0-3.6,0-5.4l-1.8-.2v-.6h5.5v.6h-1.8c0,1.9,0,3.7,0,5.5h6.2c0-1.8,0-3.6,0-5.4h-1.8v-.7Z"/>
  <path class="st0" d="M54.2,1.1h5.6v.6h-1.8c0,1.9,0,3.7,0,5.6v.9c0,1.8,0,3.6,0,5.4l1.8.2v.6h-5.6v-.6l1.8-.2c0-1.8,0-3.6,0-5.4v-1c0-1.8,0-3.6,0-5.4h-1.8v-.7h0Z"/>
  <path class="st0" d="M61.3,1.1h11v3.5c.1,0-.7,0-.7,0l-.6-2.9h-3.3c0,1.8,0,3.6,0,5.5v.9c0,1.8,0,3.6,0,5.4l2,.2v.6h-6v-.6l2-.2c0-1.8,0-3.6,0-5.4v-1c0-1.8,0-3.7,0-5.5h-3.3l-.6,2.9h-.8V1.1h.1Z"/>
  <path class="st0" d="M82.1,1.8h-4.7c0,1.8,0,3.6,0,5.5h3l.2-1.9h.7v4.3h-.7l-.2-1.8h-3c0,2.1,0,3.9,0,5.8h5l.6-2.7h.8v3.4h-10.1v-.6l1.8-.2c0-1.8,0-3.6,0-5.4v-.9c0-1.8,0-3.6,0-5.4h-1.8v-.7h9.7v3.3c.1,0-.7,0-.7,0l-.6-2.7h0Z"/>
  <path class="st0" d="M85.6,7.8c0-4.3,2.9-7,6.7-7s2.6.3,3.8,1v3s-.8,0-.8,0l-.6-2.9c-.6-.3-1.3-.4-2-.4-2.9,0-5,2.2-5,6.3s2.1,6.3,4.9,6.3,1.5-.1,2.2-.5l.6-2.8h.9v2.9c-1.2.7-2.4,1-3.9,1-3.9,0-6.7-2.5-6.7-6.8h0Z"/>
  <path class="st0" d="M97.6,1.1h11v3.5c.1,0-.7,0-.7,0l-.6-2.9h-3.3c0,1.8,0,3.6,0,5.5v.9c0,1.8,0,3.6,0,5.4l2,.2v.6h-6v-.6l2-.2c0-1.8,0-3.6,0-5.4v-1c0-1.8,0-3.7,0-5.5h-3.3l-.6,2.9h-.8V1.1h.2Z"/>
  <path class="st0" d="M118.1,1.1h4.7v.6l-1.8.2v7.2c0,3.8-1.7,5.5-4.7,5.5s-4.8-1.5-4.8-5.3v-2c0-1.8,0-3.6,0-5.4h-1.7v-.7h5.5v.6l-1.9.2c0,1.8,0,3.6,0,5.4v1.8c0,3.3,1.2,4.5,3.4,4.5s3.6-1.3,3.5-4.8V1.9s-2.2-.2-2.2-.2v-.6Z"/>
  <path class="st0" d="M123.9,1.1h5.7c2.9,0,4.6,1.2,4.6,3.4s-1.1,2.9-3.5,3.3c1.6.3,2.1,1,2.5,2.5l.9,3.3h1.7v.7c-.5.1-1,.2-1.7.2-1.3,0-1.8-.4-2.1-1.4l-.8-2.9c-.4-1.5-.9-2.1-2.4-2.1h-1.3c0,1.9,0,3.7,0,5.5l1.8.2v.6h-5.6v-.6l1.8-.2c0-1.8,0-3.6,0-5.4v-.9c0-1.8,0-3.6,0-5.4h-1.8v-.7h0ZM127.6,7.5h1.7c2,0,3.1-1.3,3.1-3s-1-2.8-3.1-2.8h-1.6c0,1.8,0,3.6,0,5.8h0Z"/>
  <path class="st0" d="M143.8,13.7l2-.2-1.2-3.7h-4.5l-1.2,3.7,1.7.2v.6h-4v-.6l1.5-.2,4.2-12.5h1.2l4.3,12.6h1.6v.7h-5.4v-.6ZM140.2,9.3h4.1l-2.1-6.4-2.1,6.4Z"/>
  <path class="st0" d="M150.1,1.1h5.6v.6l-1.9.2c0,1.8,0,3.6,0,5.6v1.1c0,1.6,0,3.4,0,5.2h4.6l.6-3h.8v3.6h-9.8v-.6l1.8-.2c0-1.8,0-3.6,0-5.2v-1.2c0-1.8,0-3.6,0-5.4h-1.8v-.7Z"/>
  <path class="st0" d="M166.1,13.6v-2.8h.9l.6,2.7c.7.4,1.3.5,2.2.5,1.9,0,3.1-.9,3.1-2.6s-.6-2-2.5-2.7l-.8-.3c-2.2-.9-3.3-2.1-3.3-4s1.9-3.5,4.3-3.5,2.4.4,3.3,1v2.6h-.9l-.6-2.5c-.5-.3-1-.4-1.7-.4-1.7,0-2.8.8-2.8,2.3s.8,2.1,2.2,2.7l.8.3c2.7,1.2,3.6,2.2,3.6,4s-1.8,3.7-4.7,3.7-3-.4-3.9-1h0Z"/>
  <path class="st0" d="M176.5,7.8c0-4.3,2.9-7,6.7-7s2.6.3,3.8,1v3s-.8,0-.8,0l-.6-2.9c-.7-.3-1.3-.4-2-.4-2.9,0-5,2.2-5,6.3s2.1,6.3,4.9,6.3,1.5-.1,2.2-.5l.7-2.8h.8v2.9c-1.2.7-2.4,1-3.9,1-3.9,0-6.7-2.5-6.7-6.8h0Z"/>
  <path class="st0" d="M197.3,1.8h-4.7c0,1.8,0,3.6,0,5.5h3l.2-1.9h.7v4.3h-.7l-.2-1.8h-3c0,2.1,0,3.9,0,5.8h5l.6-2.7h.8v3.4h-10.1v-.6l1.8-.2c0-1.8,0-3.6,0-5.4v-.9c0-1.8,0-3.6,0-5.4h-1.8v-.7h9.7v3.3c.1,0-.7,0-.7,0l-.6-2.7Z"/>
  <path class="st0" d="M202.9,2.8v6c0,0,0,4.7,0,4.7l2.2.2v.6h-4.7v-.6l1.7-.2V1.9h0c0,0-1.7-.2-1.7-.2v-.6h3.4l7.1,10.6v-4.8s0-5,0-5l-2.2-.2v-.6h4.7v.6l-1.8.2v12.5h-.9l-7.9-11.6h0Z"/>
  <path class="st0" d="M223.4,1.8h-4.7c0,1.8,0,3.6,0,5.5h3l.2-1.9h.7v4.3h-.7l-.2-1.8h-3c0,2.1,0,3.9,0,5.8h5l.6-2.7h.8v3.4h-10.1v-.6l1.8-.2c0-1.8,0-3.6,0-5.4v-.9c0-1.8,0-3.6,0-5.4h-1.8v-.7h9.7v3.3c.1,0-.7,0-.7,0l-.6-2.7Z"/>
  <path class="st0" d="M226.8,1.1h5.7c2.9,0,4.6,1.2,4.6,3.4s-1.1,2.9-3.5,3.3c1.6.3,2.1,1,2.5,2.5l.9,3.3h1.7v.7c-.5.1-.9.2-1.7.2-1.3,0-1.9-.4-2.1-1.4l-.8-2.9c-.4-1.5-.9-2.1-2.4-2.1h-1.3c0,1.9,0,3.7,0,5.5l1.8.2v.6h-5.6v-.6l1.8-.2c0-1.8,0-3.6,0-5.4v-.9c0-1.8,0-3.6,0-5.4h-1.8v-.7h0ZM230.4,7.5h1.7c2,0,3.1-1.3,3.1-3s-1-2.8-3.2-2.8h-1.6c0,1.8,0,3.6,0,5.8h0Z"/>
  <path class="st0" d="M245.9,1.1h4.3v.6l-1.6.2-3.4,7c0,2.3,0,3.4,0,4.7l2,.2v.6h-6v-.6l2-.2c0-1.3,0-2.3,0-4.4l-3.6-7.3h-1.3v-.7h5.3v.6l-2,.2,3,6.3,3-6.3-1.9-.2v-.6h0Z"/>
</svg>