<?xml version="1.0" encoding="UTF-8"?>
<svg id="_圖層_1" data-name="圖層_1" xmlns="http://www.w3.org/2000/svg" version="1.1" viewBox="0 0 688 43">
  <!-- Generator: Adobe Illustrator 29.4.0, SVG Export Plug-In . SVG Version: 2.1.0 Build 152)  -->
  <defs>
    <style>
      .st0 {
        fill: #c7b299;
      }
    </style>
  </defs>
  <path class="st0" d="M142.5,30.1c.6,2.8,1.1,5.1,1.1,6.7,0,2.3-1.3,4.3-2.8,4.3-1.5,0-2.4-1.2-2-2.8.6-2.2,2.2-5.1,2-7.3-.1-1.5-1.8-2.1-4.3-2.4-.7,0-.8-.9,0-1,2.4-.2,3.1-.6,3.9-2,1.8-3.4,4.7-11.3,6.4-16.2.3-.8,1.2-.6,1,.2-3.4,12.3-5.8,17.5-5.2,20.4h0ZM136.2,12.1c-.3-.6,0-1.1.6-.7,2.1,1.1,3.6,1.8,4.8,3,2.3,2.4-.6,5.8-2.3,3.2-1.2-1.9-2.2-3.9-3.1-5.5h0ZM139.4,2.5c-.4-.6-.1-1.1.6-.8,2,.9,3.7,1.7,4.7,2.8,2.1,2.1-.2,5.8-2.2,3.1-1.3-1.8-2.4-3.9-3.1-5.1ZM174.8,42.4c-2.3-1.1-5.3-3.8-7.5-7.9-2.3,3.2-5.2,6-9.1,7.8-.5.2-1.1-.4-.5-.8,3.5-3.1,6.4-6.8,8.3-10.1,0,0,0-.2,0-.3-1.1-3.1-1.7-10.5-1.8-19.9h-12.2v7.5c0,11.1-2.6,20.2-7.5,23.5-.6.4-1.1-.1-.8-.5,1.6-2.8,3-6.4,3.7-10.1,1.1-6,1.1-14.6,1-23.9l2.8.6c.5,0,.8.3.8.6h12.2c0-2.5,0-4.5,0-7.8l2.8.7c.5.1.7.4.7.7,0,2.9-.1,4.2-.1,6.4h5.2c.8,0,1.3-.5,2.1-1.5,1.1,1,1.8,1.6,1.8,2.3s-1,1.5-2.6,1.5h-6.5c0,7,.3,12.2.7,15.5,1.3-3.2,2.4-7.1,3.3-11.2l2.2,1.1c.9.5.9.7.7,1.4-.8,2.9-2.5,8.7-5.1,13.1,1,2.4,2.3,4.7,4.1,6.2.3.2.4.2.6,0,.3-.4.8-2.4,1.2-4.1,0-.4.7-.4.7,0,0,1.9.1,5.6.7,7,.6,1.5.3,3.4-2.1,2.2ZM152.3,15.8h7.2c.8,0,1.2-.5,2-1.4,1.1,1.1,1.8,1.6,1.8,2.2,0,1.1-.9,1.5-2.4,1.5h-7c-.6,0-.9-.4-1.7-2.3h0ZM156.1,32.9v1.3c0,1.9-1.9,2.3-3.2,2.1v-14.9l2.4.5c.5,0,.7.3.8.5h1.6c.6,0,1.1-.3,1.6-.9l2.8,1c1.6.6.4,1.5.4,2.4v8.3c0,1.7-1.4,2.3-3.2,2v-2.2h-3.1,0ZM156.1,24.5v6.2h3.1v-6.2h-3.1ZM169.1,2.3c-.2-.3,0-1,.7-.6,1.5.7,3,1.3,3.9,2.3,1.9,2.2-1,5-2.5,2.4-.9-1.6-1.6-3.1-2.1-4.1h0Z"/>
  <path class="st0" d="M223,17.6c0,1.1-.9,1.6-2.5,1.6h-36.8c-.9,0-1.1-.5-2-2.5h23.7c1-1.9,2.6-6.1,3.3-8.3l2.6,1.6c1,.6,1.1.9.5,1.6-.9,1.1-2.8,3.5-4.3,5.1h11.5c.9,0,1.3-.5,2.2-1.4,1.1,1.1,1.9,1.6,1.9,2.3h0ZM185.3,5.8h17.1c-.4-.2-.7-.5-1.1-1-1-1.2-2-2.7-2.6-3.7-.4-.5-.1-.9.5-.7,2.4.6,4.3,1.2,5.1,2.1,1.1,1.2.7,2.7-.2,3.3h10.4c.8,0,1.3-.4,2.2-1.4,1,1.1,1.8,1.6,1.8,2.2,0,1.2-.9,1.6-2.4,1.6h-28.8c-.8,0-1.1-.4-2-2.4h0ZM214.1,25.4v14.7c0,1.8-1.7,2.5-3.8,2.2v-2.8h-15.7v.5c0,2.1-1.8,2.7-3.8,2.5v-21.1l3,.6c.6.1.8.4.8.5h0c0,0,13.5,0,13.5,0,.9,0,1.6-.4,2.2-1.1l3.4,1c1.7.5.5,2.1.5,2.9h0ZM199,12.6c1.7,2.9-1.6,4.9-2.9,2.6-.8-1.4-2.1-4.5-2.6-5.9-.2-.5.2-.8.7-.6,2.2,1.1,4.1,2.6,4.8,3.9h0ZM194.6,25.1v4.8h15.7v-4.8h-15.7ZM210.3,37v-4.7h-15.7v4.7h15.7Z"/>
  <path class="st0" d="M269.3,27.9c0,1.2-1.1,1.7-2.7,1.7h-17.7c-.5,1.3-1.2,2.6-2,3.7-4.1,5.7-11.6,8.8-18.2,9.4-.9,0-.8-.8-.3-1,4.4-1.6,11.8-5,15.1-10.2.4-.6.8-1.3,1.1-2h-15.2c-.8,0-1-.5-1.8-2.6h17.9c.3-1.2.5-2.5.8-4.1l2.6.8c1.2.4,1.3.5,1.1,1.3,0,.6-.2,1.3-.4,1.9h15.3c1,0,1.5-.5,2.4-1.5,1.2,1.1,1.9,1.6,1.9,2.3h0ZM246.5,20.2v-3.8h-10.1c-.9,0-.9-.4-1.8-2.4h11.9v-4h-13.6c-.9,0-1-.4-1.8-2.4h19.9c1.2-1.9,2.8-5.1,3.6-7.2l2.4,1.7c.9.6.9.9.5,1.4-1,1-2.9,2.8-4.5,4.1h8.5c.8,0,1.3-.4,2.2-1.4,1.1,1,1.8,1.5,1.8,2.2,0,1.1-.9,1.6-2.5,1.6h-12.4v4h7.3c1,0,1.4-.5,2.2-1.3,1,.9,1.8,1.5,1.8,2.2,0,1.1-.9,1.6-2.5,1.6h-8.8v3.8h11.3c.9,0,1.3-.4,2.2-1.4,1.1,1,1.8,1.5,1.8,2.2s-1,1.6-2.6,1.6h-30.7c-.8,0-.9-.5-1.8-2.5h15.8ZM239.1,1.5c-.3-.4.2-.8.6-.7,2,.7,4.2,1.9,5,2.9,2.1,2.6-1,5.1-2.8,2.4-1-1.4-2.1-3.5-2.8-4.6h0ZM263.6,41.7c-2.5-1.7-9.2-6.6-12.7-9.5-.6-.5,0-1.1.5-.8,7.5,3,12.4,5.5,14.2,7,3.4,3,1.2,5.5-2,3.3h0Z"/>
  <path class="st0" d="M313.8,20.9c-1.6,1.2-3.7,3.2-4.9,4-.5.3-1.1,0-.7-.6.6-1,1.6-2.5,2.2-3.7h-31.3c0,.9-.3,1.8-.6,2.6-1.5,4.4-6,2.3-3.8-.4.9-1.1,2.4-2.8,3.5-5.6.2-.5,1-.4,1,0v1h1.1l-1.4-14.9,2.8.5c.2,0,.4,0,.5.2,2.4-1.1,3.5-1.8,5.7-3.5l1.4,1.5c.7.7.7,1.1-.2,1.4-1.5.5-3.7,1.2-6.6,1.9l.3,2.6h2.9c.9,0,1.2-.2,2-1,.9.8,1.5,1.3,1.5,1.8,0,1-.8,1.4-2.2,1.4h-4l.3,2.8h2.5c.9,0,1.2-.3,2-1.1.8.8,1.6,1.4,1.6,1.9,0,1.1-.9,1.4-2.2,1.4h-3.6l.3,3h21.2l.4-3.1h-3.3c-.7,0-.8-.5-1.6-2.2h5.2l.4-2.8h-3.7c-.7,0-1-.5-1.7-2.2h5.7l.3-2.9h-4.7c-.6,0-.8-.3-1.7-2.2h4.8c.9,0,1.3-.3,2-1l2.5,1c2,.8.6,1.8.6,2.5l-1.8,12.9h1.5c.9,0,1.6-.1,2.2-.9l1.7,1.8c.9.9.9,1.1,0,1.8h0ZM313.6,31.5c0,1-1.1,1.6-2.5,1.6h-14.5v7.1c0,1.7-2,3-3.7,1.8-1.3-1-3.6-1.9-4.7-2.3-.5-.2-.4-.7,0-.7,1.1,0,4.1,0,4.3,0,.2,0,.2-.2.2-.4v-5.5h-15.8c-.8,0-1-.6-1.8-2.4h17.7v-2.7l3,.6c2-1.3,3.3-2.2,4.1-2.9h-16.6c-.8,0-1.1-.7-1.7-2.3h19.1c.8,0,1.3-.2,2.1-.9l1.7,1.7c1,1,.8,1.3.2,1.7-2.1,1.3-4.7,2.5-8.1,3.9v.9h13.1c.8,0,1.3-.5,2.1-1.4.9.9,1.8,1.4,1.8,2.2h0ZM292.8,13.6c-.8-.7-1.6-1.3-2.2-1.9-.5-.4-.3-1,.4-.8,1,.3,2.1.8,3.1,1.2.9-1.1,1.8-2.2,2.4-3.3l1.8,1.4c.7.6.7.7.4,1-.4.4-1.2,1.1-2.2,2,.8.5,1.6.9,2,1.3,2,1.7.8,4.5-1.8,2.3-.7-.6-1.5-1.2-2.3-1.9-1.3,1-2.9,2-4.7,2.9-.6.3-.9-.4-.5-.7,1.2-1.1,2.5-2.4,3.6-3.5h0ZM290.4,9.3c1-1,2.2-2.3,3.3-3.7-.9-.8-1.8-1.6-2.5-2.2-.5-.5-.2-1.1.5-.8,1.1.4,2.2.9,3.2,1.4.8-1.1,1.5-2.1,1.9-2.8l1.9,1.2c.7.5.7.7.4,1.1-.4.5-1.1,1.1-1.8,1.8.4.2.8.5,1,.7,2.4,2,.6,4.6-1.7,2.4-.4-.4-.9-.9-1.4-1.3-1.3,1.1-2.8,2.2-4.3,3-.6.4-.9-.4-.6-.7h0Z"/>
  <path class="st0" d="M350.4,30.7l-6.1-6.3-6.1,6.3-2-2,6.2-6.4-6-6.2,2-2,5.9,6.2,5.9-6.2,2,2-6,6.2,6.2,6.4-2,2h0Z"/>
  <path class="st0" d="M385.5,5.5v34.7c0,1.9-1.4,2.4-3.3,2.3v-12.3c-2.2,1.2-4.5,2.2-6.6,3.4-1.2.6-1.4.5-3.6-2.2l3.2-.9V5.5h-1c-.8,0-1-.5-1.8-2.3h12.8c.7,0,1.2-.6,2-1.4.9.8,1.8,1.6,1.8,2.2,0,1-.8,1.5-2.5,1.5h-1.1,0ZM382.2,5.5h-3.7v6.2h3.7v-6.2ZM382.2,14h-3.7v6.1h3.7v-6.1ZM382.2,28.5v-6.1h-3.7v7.1c1.4-.4,2.6-.7,3.7-1.1ZM411.6,41.6c-2.2-1.7-4.5-4.4-6.3-8.3-.4.5-.8,1-1.2,1.4-3,3.3-6.8,6.1-11.1,7.7-.6.2-1-.5-.5-.8,3.7-2.6,7.3-5.8,10.1-9.5.5-.6,1-1.3,1.5-2-.2-.6-.4-1.3-.6-2-.7-2.9-1.1-6.5-1.3-10.8h-14.6c-.8,0-.9-.4-1.8-2.3h4.7c-.3-.3-.6-.7-.7-1.3-.4-1.4-.8-2.8-1.1-4.2,0-.3.2-.9.8-.4,1.1.9,2.7,2,3.3,3.4.4,1,0,2-.5,2.5h2.5c.8-2.1,1.2-3.7,1.8-6.3l2.2,1.1c.9.5,1,.7.5,1.4-.9,1.3-1.8,2.6-2.7,3.7h5.5c0-2,0-4.1,0-6.4s0-4.8,0-7.9l2.6.5c.5,0,.8.3.8.7,0,2.5,0,4.3,0,6.5v6.5h4.4c.8,0,1.2-.3,2-1.2,1,.9,1.6,1.5,1.6,2.1s-.9,1.3-2.2,1.3h-5.7c0,3.4.3,6.2.9,8.6v.4c1.1-2.1,2-4.3,2.7-6.5l2,1.3c.9.6.9.8.4,1.8-1,2.2-2.2,4.7-3.8,7.3,1,2.6,2.2,4.5,3.2,5.6.3.3.6.3.6,0,.3-.6,1.3-4.1,1.5-4.7,0-.3.7-.2.7,0-.3,2-.4,6.4.2,8.2.5,1.6,0,4-2.3,2.2ZM391.4,1.6c-.2-.5.2-.8.7-.6,1.3.6,2.9,1.6,3.4,2.5.6,1.2.2,2.3-.5,2.7h2.9c.7,0,1.2-.3,1.9-1.2,1.1,1,1.6,1.4,1.6,2,0,1.1-.7,1.5-2.1,1.5h-11.4c-.6,0-.7-.4-1.5-2.2h7.4c-.4-.2-.8-.6-1.1-1.4-.3-.6-.9-2.1-1.3-3.2h0ZM391.6,34.3v1.1c0,1.9-1.5,2.6-3.4,2.2v-19l2.6.5c.6.1.7.3.8.5h2.2c.9,0,1.3-.3,1.9-1.1l2.7.9c1.8.6.6,1.6.6,2.5v12c0,1.9-1.6,2.4-3.4,2.1v-1.9h-4.1ZM391.6,22v3.9h4.1v-3.9h-4.1ZM395.7,32.1v-4.1h-4.1v4.1h4.1ZM406.8,4.3c-.2-.6,0-1.1.7-.6,1.4,1,3.4,2.5,4.2,4.2,1.4,2.9-1.6,5.4-2.8,2.2-.7-2-1.8-4.8-2.2-5.8Z"/>
  <path class="st0" d="M460,39.5l-2.8,1.4c-1.3.6-1.8.7-3.4-.6-4.9-4.1-11-12.9-14-21.8-3.1,12.8-11.1,20.7-20.5,23.6-.6.2-1-.5-.5-.9,9.7-6.5,16-14.5,17.9-27.3.6-4.1.8-7.8.9-12.7l3.2.9c.8.2,1,.5.9,1.2-.2,3.1-.4,6.7-1.1,11,2.9,8.7,9.8,19.2,19.3,24.6.4.2.5.5,0,.7h0Z"/>
  <path class="st0" d="M483.4,26.1v13.2c0,1.9-1.6,2.6-3.5,2.2v-2.8h-8.5v1.2c0,2.2-1.8,2.8-3.6,2.4v-19.8l2.8.5c.5,0,.7.3.8.5h6.4c.9,0,1.6-.5,2.2-1.2l2.9.8c2.1.6.7,2.1.7,2.9ZM479.9,36.3v-10.4h-8.5v10.4h8.5ZM475.3,20.1V2l2.9.6c.5,0,.7.3.7.5h10.9c1.1,0,1.7-.4,2.4-1.1l3,1c2.1.7.7,2,.7,2.8v12c0,1.7-1.7,2.5-3.7,2.1v-2.6h-13.3c0,2.2-1.2,3.4-3.7,3h0ZM479,5.5v9.2h13.3V5.5h-13.3ZM503.6,26.3v13.2c0,1.9-1.6,2.6-3.6,2.2v-3h-8.6v.5c0,2.2-1.8,2.8-3.6,2.4v-19.1l2.8.5c.4,0,.7.4.8.5h6.5c.9,0,1.5-.5,2.1-1.2l3,.9c2.1.6.6,2.2.6,3.1h0ZM500.1,36.3v-10.4h-8.6v10.4h8.6Z"/>
  <path class="st0" d="M516.2,27.3v1.9c0,2.2-1.6,3.1-3.6,2.7V5.4l2.8.6c.5.1.8.3.8.5h2.2c1,0,1.4-.3,2-1.1l3.1,1.1c1.8.6.6,1.8.6,2.7v18.7c0,1.9-1.6,2.7-3.6,2.6v-3.2h-4.1ZM516.2,8.9v16h4.1v-16h-4.1ZM552,36.1c-2.9,1.5-3.3,1.6-4.3.6-2.4-2.2-4.7-5.3-6.5-8.7-1.1-1.9-1.8-3.8-2.4-5.6v17.6c0,2.1-1.9,2.8-3.7,2.4v-19.2c-.9,1.9-2.2,3.9-4,6-3.5,4.5-8.4,8.6-12.9,10.4-.7.3-1.2-.3-.5-.8,3.5-2.7,7.9-7.1,10.9-11.4,1.8-2.6,3.3-5.2,4.3-7.6h-6.8c-.7,0-1-.6-1.9-2.4h10.8v-7.1h-7.1c-.7,0-1.1-.6-1.8-2.4h9V.9l2.9.6c.5,0,.8.4.8.6v5.9h5.1c.8,0,1.2-.6,2-1.4,1,.9,1.8,1.6,1.8,2.2,0,.9-.9,1.5-2.5,1.5h-6.4v7.1h8.7c.8,0,1.3-.6,2.1-1.4.9,1,1.8,1.6,1.8,2.2,0,1-.9,1.5-2.5,1.5h-9.2c.7,1.7,1.6,3.5,2.9,5.4,2.3,3.3,5.8,7.4,9.3,9.9.6.4.6.7.2.9h0Z"/>
</svg>