<svg width="344" height="45" viewBox="0 0 344 45" fill="none" xmlns="http://www.w3.org/2000/svg">
<path d="M0.490036 13.65V12.79C1.64004 11.65 2.62003 10.6401 3.42003 9.77005C4.22003 8.90005 4.83004 8.12004 5.24004 7.42004C5.66004 6.72004 5.86003 6.06005 5.86003 5.44005C5.86003 5.00005 5.78004 4.62004 5.63004 4.28004C5.48004 3.94004 5.24003 3.68005 4.92003 3.50005C4.60003 3.31005 4.19003 3.22005 3.70003 3.22005C3.21003 3.22005 2.77003 3.35004 2.36003 3.62004C1.95003 3.89004 1.58003 4.21005 1.26003 4.58005L0.410034 3.76004C0.880034 3.23004 1.39002 2.80005 1.93002 2.50005C2.47002 2.19005 3.12003 2.04004 3.87003 2.04004C4.57003 2.04004 5.18003 2.18005 5.69003 2.46005C6.20003 2.74005 6.59003 3.13005 6.87003 3.63005C7.15003 4.13005 7.29002 4.72005 7.29002 5.39005C7.29002 6.10005 7.09002 6.83005 6.68002 7.57005C6.27002 8.31005 5.72003 9.08005 5.02003 9.88005C4.32003 10.6901 3.52003 11.56 2.62003 12.51C2.92003 12.49 3.24003 12.47 3.58003 12.44C3.92003 12.41 4.24002 12.4 4.54002 12.4H7.85004V13.66H0.470032L0.490036 13.65Z" fill="#333333"/>
<path d="M13.47 13.86C12.9 13.86 12.38 13.7501 11.9 13.5201C11.42 13.3001 11 12.95 10.65 12.5C10.3 12.04 10.02 11.47 9.83003 10.78C9.63003 10.09 9.53003 9.29004 9.53003 8.37004C9.53003 7.23004 9.65004 6.26004 9.88004 5.45004C10.11 4.65004 10.43 3.99004 10.84 3.48004C11.25 2.97004 11.71 2.60005 12.23 2.38005C12.75 2.15005 13.3 2.04004 13.86 2.04004C14.48 2.04004 15.01 2.16005 15.46 2.38005C15.91 2.61005 16.29 2.90005 16.61 3.24005L15.79 4.15004C15.57 3.87004 15.29 3.65005 14.95 3.49005C14.61 3.33005 14.27 3.25005 13.92 3.25005C13.38 3.25005 12.88 3.41004 12.42 3.73004C11.96 4.05004 11.59 4.58005 11.32 5.33005C11.04 6.08005 10.9 7.09004 10.9 8.37004C10.9 9.31004 11 10.1 11.2 10.75C11.4 11.4 11.69 11.8801 12.07 12.2101C12.45 12.5401 12.9 12.7101 13.44 12.7101C13.82 12.7101 14.17 12.61 14.47 12.4C14.77 12.19 15.01 11.9 15.19 11.53C15.37 11.16 15.45 10.72 15.45 10.22C15.45 9.72005 15.37 9.29004 15.21 8.92004C15.05 8.56004 14.81 8.28005 14.5 8.08005C14.19 7.88005 13.79 7.78004 13.32 7.78004C12.95 7.78004 12.54 7.90004 12.1 8.15004C11.66 8.40004 11.25 8.81004 10.85 9.40004L10.8 8.25005C11.05 7.93005 11.32 7.65004 11.62 7.42004C11.92 7.19004 12.24 7.01005 12.57 6.88005C12.91 6.76005 13.23 6.70004 13.54 6.70004C14.2 6.70004 14.78 6.83004 15.27 7.09004C15.76 7.35004 16.14 7.74005 16.41 8.27005C16.68 8.80005 16.81 9.44005 16.81 10.22C16.81 10.95 16.66 11.5801 16.35 12.1301C16.05 12.6801 15.64 13.11 15.13 13.41C14.62 13.71 14.06 13.87 13.45 13.87L13.47 13.86Z" fill="#333333"/>
<path d="M18.28 9.65015V8.66016H25.38V9.65015H18.28Z" fill="#333333"/>
<path d="M30.3301 13.86C29.7201 13.86 29.1901 13.78 28.7201 13.64C28.2601 13.49 27.8501 13.29 27.5001 13.05C27.1501 12.8 26.8401 12.54 26.5901 12.25L27.3401 11.31C27.6801 11.66 28.0801 11.97 28.5501 12.25C29.0201 12.53 29.5801 12.66 30.2401 12.66C30.7101 12.66 31.1201 12.58 31.4801 12.4C31.8401 12.22 32.1201 11.99 32.3201 11.67C32.5201 11.36 32.6201 10.98 32.6201 10.56C32.6201 10.1 32.5001 9.70004 32.2801 9.37004C32.0501 9.03004 31.6701 8.77004 31.1401 8.59004C30.6101 8.41004 29.8901 8.31004 28.9801 8.31004V7.17004C29.7901 7.17004 30.4301 7.08005 30.9001 6.89005C31.3701 6.70005 31.7101 6.45004 31.9201 6.12004C32.1301 5.79004 32.2301 5.43004 32.2301 5.04004C32.2301 4.49004 32.0501 4.05005 31.7001 3.72005C31.3501 3.39005 30.8601 3.23004 30.2401 3.23004C29.7701 3.23004 29.3301 3.34004 28.9201 3.56004C28.5101 3.78004 28.1401 4.06004 27.8101 4.40004L27.0301 3.47005C27.4801 3.06005 27.9701 2.73004 28.4901 2.45004C29.0201 2.18004 29.6201 2.04004 30.2901 2.04004C30.9601 2.04004 31.5401 2.15005 32.0601 2.38005C32.5801 2.60005 32.9801 2.93005 33.2801 3.36005C33.5701 3.79005 33.7201 4.31004 33.7201 4.92004C33.7201 5.61004 33.5301 6.18005 33.1401 6.63005C32.7601 7.08005 32.2501 7.41005 31.6401 7.64005V7.70004C32.1001 7.82004 32.5201 8.00004 32.8901 8.26004C33.2601 8.52004 33.5601 8.84004 33.7901 9.23004C34.0101 9.62004 34.1301 10.08 34.1301 10.61C34.1301 11.29 33.9601 11.8701 33.6201 12.3501C33.2801 12.8301 32.8301 13.2001 32.2601 13.4601C31.6901 13.7201 31.0601 13.8501 30.3601 13.8501L30.3301 13.86Z" fill="#333333"/>
<path d="M39.48 13.86C38.75 13.86 38.11 13.73 37.54 13.46C36.97 13.19 36.53 12.83 36.21 12.36C35.89 11.89 35.73 11.35 35.73 10.74C35.73 10.24 35.83 9.79002 36.04 9.40002C36.25 9.01002 36.52 8.67004 36.85 8.38004C37.18 8.09004 37.52 7.84002 37.87 7.65002V7.59003C37.44 7.29003 37.07 6.93004 36.76 6.49004C36.45 6.06004 36.29 5.54003 36.29 4.95003C36.29 4.36003 36.43 3.85003 36.71 3.41003C36.99 2.97003 37.38 2.63003 37.86 2.39003C38.34 2.15003 38.89 2.03003 39.5 2.03003C40.17 2.03003 40.75 2.16003 41.23 2.41003C41.71 2.67003 42.08 3.02003 42.33 3.48003C42.59 3.94003 42.71 4.46003 42.71 5.05003C42.71 5.46003 42.63 5.83003 42.46 6.19003C42.29 6.54003 42.09 6.85004 41.85 7.13004C41.61 7.40004 41.38 7.63003 41.15 7.81003V7.87003C41.48 8.07003 41.8 8.31004 42.1 8.57004C42.4 8.83004 42.65 9.14003 42.84 9.51003C43.03 9.87003 43.12 10.31 43.12 10.84C43.12 11.39 42.97 11.9 42.66 12.37C42.36 12.83 41.93 13.2 41.38 13.47C40.83 13.74 40.19 13.87 39.45 13.87L39.48 13.86ZM39.5 12.77C39.96 12.77 40.36 12.69 40.69 12.51C41.03 12.34 41.29 12.1 41.47 11.81C41.65 11.52 41.75 11.17 41.75 10.79C41.75 10.41 41.66 10.1 41.49 9.83003C41.32 9.56003 41.09 9.33003 40.81 9.14003C40.53 8.95003 40.2 8.77004 39.83 8.60004C39.46 8.43004 39.06 8.27003 38.65 8.11003C38.18 8.41003 37.79 8.77002 37.49 9.18002C37.19 9.60002 37.03 10.07 37.03 10.6C37.03 11.01 37.14 11.37 37.35 11.7C37.56 12.03 37.86 12.29 38.24 12.48C38.62 12.67 39.04 12.76 39.5 12.76V12.77ZM40.28 7.44003C40.66 7.09003 40.96 6.72003 41.17 6.34003C41.38 5.96003 41.48 5.56004 41.48 5.13004C41.48 4.76004 41.4 4.42003 41.25 4.11003C41.09 3.81003 40.87 3.56004 40.57 3.38004C40.27 3.20004 39.91 3.11003 39.5 3.11003C38.96 3.11003 38.51 3.28003 38.16 3.61003C37.81 3.94003 37.63 4.38003 37.63 4.94003C37.63 5.40003 37.75 5.78003 38.01 6.08003C38.26 6.38003 38.59 6.63003 38.99 6.84003C39.4 7.05003 39.83 7.25003 40.29 7.44003H40.28Z" fill="#333333"/>
<path d="M44.4401 11.2202C44.8501 11.0802 45.3101 10.9201 45.8301 10.7301C46.3501 10.5401 46.9101 10.3401 47.5001 10.1201C48.0901 9.90015 48.6801 9.68016 49.2701 9.46016L49.4601 10.5302C48.6601 10.8702 47.8601 11.2002 47.0501 11.5302C46.2401 11.8602 45.5201 12.1502 44.8701 12.4202L44.4401 11.2202ZM44.7001 4.07016H49.1201V5.21016H44.7001V4.07016ZM46.4601 0.400146H47.5601V10.7802H46.4601V0.400146ZM49.2601 8.07016H59.2401V9.22015H49.2601V8.07016ZM49.7401 1.03015H58.8101V2.17015H49.7401V1.03015ZM50.3501 3.33015L51.3101 3.07016C51.4801 3.49016 51.6301 3.93016 51.7501 4.41016C51.8701 4.88016 51.9801 5.35016 52.0801 5.80016C52.1801 6.25016 52.2501 6.66016 52.2901 7.02016L51.2501 7.29015C51.2301 6.93015 51.1701 6.52015 51.0801 6.06015C50.9901 5.60015 50.8801 5.14016 50.7501 4.66016C50.6201 4.19016 50.4901 3.74016 50.3501 3.32016V3.33015ZM53.6401 1.30016H54.8401V14.9202H53.6401V1.30016ZM57.1601 3.00015L58.3101 3.26015C58.1801 3.72015 58.0401 4.19015 57.8901 4.68015C57.7401 5.17015 57.5801 5.64016 57.4301 6.10016C57.2801 6.56016 57.1201 6.96016 56.9701 7.30016L56.0601 7.04015C56.2001 6.68015 56.3401 6.26015 56.4801 5.78015C56.6201 5.30015 56.7501 4.82016 56.8701 4.32016C56.9901 3.82016 57.0901 3.38015 57.1701 2.98015L57.1601 3.00015Z" fill="#333333"/>
<path d="M60.59 13.65V12.79C61.74 11.65 62.72 10.6401 63.52 9.77005C64.32 8.90005 64.93 8.12004 65.34 7.42004C65.76 6.72004 65.96 6.06005 65.96 5.44005C65.96 5.00005 65.88 4.62004 65.73 4.28004C65.58 3.94004 65.34 3.68005 65.02 3.50005C64.7 3.31005 64.29 3.22005 63.8 3.22005C63.31 3.22005 62.87 3.35004 62.46 3.62004C62.05 3.89004 61.68 4.21005 61.36 4.58005L60.51 3.76004C60.98 3.23004 61.49 2.80005 62.03 2.50005C62.57 2.19005 63.22 2.04004 63.97 2.04004C64.67 2.04004 65.28 2.18005 65.79 2.46005C66.3 2.74005 66.69 3.13005 66.97 3.63005C67.25 4.13005 67.39 4.72005 67.39 5.39005C67.39 6.10005 67.19 6.83005 66.78 7.57005C66.37 8.31005 65.82 9.08005 65.12 9.88005C64.42 10.6901 63.62 11.56 62.72 12.51C63.02 12.49 63.34 12.47 63.68 12.44C64.02 12.41 64.34 12.4 64.64 12.4H67.95V13.66H60.57L60.59 13.65Z" fill="#333333"/>
<path d="M69.5 9.65015V8.66016H76.6V9.65015H69.5Z" fill="#333333"/>
<path d="M81.55 13.86C80.94 13.86 80.4101 13.78 79.9401 13.64C79.4801 13.49 79.0701 13.29 78.7201 13.05C78.3701 12.8 78.0601 12.54 77.8101 12.25L78.5601 11.31C78.9001 11.66 79.3001 11.97 79.7701 12.25C80.2401 12.53 80.8001 12.66 81.4601 12.66C81.9301 12.66 82.3401 12.58 82.7001 12.4C83.0601 12.22 83.3401 11.99 83.5401 11.67C83.7401 11.36 83.8401 10.98 83.8401 10.56C83.8401 10.1 83.7201 9.70004 83.5001 9.37004C83.2701 9.03004 82.89 8.77004 82.36 8.59004C81.83 8.41004 81.1101 8.31004 80.2001 8.31004V7.17004C81.0101 7.17004 81.6501 7.08005 82.1201 6.89005C82.5901 6.70005 82.9301 6.45004 83.1401 6.12004C83.3501 5.79004 83.4501 5.43004 83.4501 5.04004C83.4501 4.49004 83.2701 4.05005 82.9201 3.72005C82.5701 3.39005 82.0801 3.23004 81.4601 3.23004C80.9901 3.23004 80.5501 3.34004 80.1401 3.56004C79.7301 3.78004 79.3601 4.06004 79.0301 4.40004L78.2501 3.47005C78.7001 3.06005 79.1901 2.73004 79.7101 2.45004C80.2401 2.18004 80.8401 2.04004 81.5101 2.04004C82.1801 2.04004 82.7601 2.15005 83.2801 2.38005C83.8001 2.60005 84.2001 2.93005 84.5001 3.36005C84.7901 3.79005 84.9401 4.31004 84.9401 4.92004C84.9401 5.61004 84.75 6.18005 84.36 6.63005C83.98 7.08005 83.47 7.41005 82.86 7.64005V7.70004C83.32 7.82004 83.74 8.00004 84.11 8.26004C84.48 8.52004 84.7801 8.84004 85.0101 9.23004C85.2301 9.62004 85.3501 10.08 85.3501 10.61C85.3501 11.29 85.1801 11.8701 84.8401 12.3501C84.5001 12.8301 84.0501 13.2001 83.4801 13.4601C82.9101 13.7201 82.28 13.8501 81.58 13.8501L81.55 13.86Z" fill="#333333"/>
<path d="M88.4 1.81018H89.62V5.62018C89.62 6.28018 89.6 7.01019 89.56 7.80019C89.52 8.59019 89.43 9.41019 89.31 10.2402C89.19 11.0702 89.01 11.8902 88.77 12.6902C88.53 13.4902 88.22 14.2302 87.83 14.9002C87.75 14.8402 87.64 14.7702 87.51 14.6902C87.38 14.6102 87.25 14.5402 87.11 14.4702C86.97 14.4002 86.85 14.3502 86.74 14.3202C87.12 13.6802 87.43 12.9902 87.65 12.2402C87.87 11.4902 88.04 10.7302 88.15 9.95018C88.26 9.17018 88.33 8.41018 88.36 7.67018C88.39 6.93018 88.41 6.24018 88.41 5.61018V1.80019L88.4 1.81018ZM89 1.81018H100.38V5.55019H89V4.53018H99.18V2.83018H89V1.81018ZM93.2 8.31018H94.38C94.32 9.09018 94.21 9.81018 94.05 10.4802C93.89 11.1502 93.66 11.7602 93.35 12.3202C93.04 12.8802 92.62 13.3802 92.1 13.8102C91.58 14.2402 90.9 14.6102 90.07 14.9102C90.01 14.7702 89.91 14.6102 89.77 14.4402C89.64 14.2602 89.51 14.1202 89.38 14.0202C90.13 13.7602 90.74 13.4502 91.21 13.0802C91.68 12.7102 92.06 12.2802 92.32 11.7902C92.58 11.3002 92.78 10.7702 92.91 10.1902C93.04 9.61019 93.13 8.99018 93.18 8.33018L93.2 8.31018ZM90.12 7.72018H100.92V8.71019H90.12V7.72018ZM93.31 0.530182L94.48 0.190186C94.64 0.510186 94.8 0.850184 94.95 1.22018C95.11 1.59018 95.23 1.91018 95.31 2.17018L94.09 2.55019C94.03 2.28019 93.92 1.96019 93.76 1.57019C93.61 1.18019 93.45 0.830187 93.3 0.520187L93.31 0.530182ZM93.63 10.1502H99.07V11.1102H93.63V10.1502ZM94.28 5.99019L95.3 5.62018C95.49 5.90018 95.69 6.20019 95.88 6.52019C96.08 6.84019 96.23 7.12019 96.34 7.35019L95.27 7.78018C95.16 7.55018 95.02 7.26018 94.83 6.92018C94.64 6.58018 94.46 6.27019 94.28 5.99019ZM98.73 10.1502H99.91C99.9 10.4002 99.89 10.5602 99.88 10.6302C99.8 11.4202 99.73 12.0702 99.66 12.5702C99.58 13.0702 99.5 13.4602 99.4 13.7502C99.3 14.0402 99.17 14.2402 99.02 14.3802C98.87 14.5202 98.71 14.6102 98.54 14.6702C98.37 14.7202 98.16 14.7502 97.92 14.7702C97.7 14.7802 97.38 14.7802 96.98 14.7702C96.57 14.7702 96.15 14.7502 95.7 14.7302C95.69 14.5702 95.66 14.4002 95.6 14.2102C95.54 14.0202 95.46 13.8602 95.37 13.7202C95.82 13.7602 96.24 13.7902 96.63 13.8002C97.02 13.8102 97.3 13.8202 97.46 13.8202C97.61 13.8202 97.73 13.8202 97.82 13.8002C97.91 13.7802 97.99 13.7502 98.05 13.7002C98.16 13.6002 98.25 13.4302 98.32 13.1902C98.4 12.9402 98.47 12.5902 98.54 12.1302C98.61 11.6702 98.68 11.0702 98.74 10.3302V10.1702L98.73 10.1502Z" fill="#333333"/>
<path d="M105.4 4.3602L106.17 4.62019C106.04 5.26019 105.87 5.9202 105.67 6.6102C105.46 7.3002 105.23 7.9702 104.98 8.6302C104.73 9.2902 104.46 9.90021 104.17 10.4602C103.88 11.0202 103.59 11.5102 103.29 11.9202C103.23 11.7602 103.13 11.5802 103.01 11.3802C102.89 11.1802 102.77 11.0102 102.67 10.8702C102.96 10.5102 103.24 10.0802 103.51 9.57021C103.78 9.07021 104.04 8.5202 104.29 7.9402C104.54 7.3502 104.75 6.76019 104.95 6.15019C105.14 5.54019 105.3 4.95019 105.41 4.37019L105.4 4.3602ZM103.05 3.6402H108.67V4.7802H103.05V3.6402ZM105.45 0.210205H106.59V14.9102H105.45V0.210205ZM106.52 5.4102C106.62 5.5202 106.76 5.6902 106.96 5.9102C107.16 6.1402 107.37 6.3902 107.59 6.6702C107.81 6.9502 108.02 7.2002 108.21 7.4402C108.4 7.6802 108.54 7.8502 108.61 7.9502L107.89 8.8602C107.79 8.6902 107.66 8.4702 107.49 8.2002C107.32 7.9302 107.13 7.6502 106.93 7.3602C106.73 7.0702 106.54 6.79019 106.35 6.54019C106.17 6.28019 106.02 6.0902 105.9 5.9502L106.51 5.4102H106.52ZM115.26 1.9402H115.47L115.69 1.8902L116.44 2.2402C116.1 3.2302 115.65 4.1302 115.08 4.9402C114.51 5.7502 113.87 6.48019 113.16 7.12019C112.45 7.77019 111.68 8.32019 110.86 8.79019C110.04 9.26019 109.21 9.65021 108.36 9.96021C108.29 9.81021 108.18 9.6402 108.05 9.4502C107.92 9.2602 107.79 9.1002 107.67 8.9902C108.47 8.7402 109.26 8.4102 110.04 7.9702C110.82 7.5402 111.55 7.0302 112.23 6.4502C112.91 5.8702 113.51 5.2202 114.03 4.4902C114.55 3.7702 114.95 2.98019 115.25 2.12019V1.93019L115.26 1.9402ZM111.53 0.200195L112.68 0.500198C112.4 1.2102 112.07 1.9002 111.67 2.5602C111.27 3.2202 110.85 3.8402 110.39 4.4102C109.93 4.9802 109.46 5.4802 108.97 5.9102C108.91 5.8402 108.82 5.75019 108.7 5.65019C108.58 5.55019 108.46 5.4502 108.34 5.3502C108.22 5.2502 108.11 5.1702 108.03 5.1002C108.77 4.5202 109.44 3.8002 110.05 2.9402C110.66 2.0802 111.16 1.1602 111.53 0.200195ZM109.61 9.0602H116.36V14.8802H115.19V10.1002H110.73V14.9502H109.61V9.0602ZM110.09 13.1902H115.82V14.2502H110.09V13.1902ZM110.97 2.7702C111.31 3.5202 111.79 4.2702 112.42 5.0302C113.05 5.7902 113.81 6.4902 114.72 7.1302C115.63 7.7702 116.68 8.2602 117.85 8.6102C117.77 8.7002 117.67 8.8002 117.58 8.9102C117.48 9.0302 117.4 9.1502 117.32 9.2702C117.24 9.3902 117.17 9.5102 117.1 9.6102C115.92 9.1902 114.87 8.65021 113.95 7.96021C113.03 7.28021 112.25 6.5302 111.61 5.7202C110.97 4.9102 110.47 4.11021 110.11 3.32021L110.97 2.76019V2.7702ZM111.07 1.9402H115.58V2.98019H111.07V1.9402Z" fill="#333333"/>
<path d="M120.67 1.04002H121.85V4.86003C121.85 5.55003 121.82 6.31003 121.77 7.14003C121.72 7.97003 121.61 8.81002 121.46 9.68002C121.3 10.55 121.08 11.4 120.8 12.22C120.51 13.05 120.12 13.81 119.63 14.5C119.58 14.41 119.49 14.32 119.37 14.23C119.25 14.13 119.12 14.04 118.99 13.95C118.86 13.86 118.76 13.79 118.67 13.73C119.12 13.09 119.47 12.39 119.74 11.63C120.01 10.87 120.21 10.09 120.34 9.29002C120.47 8.50002 120.56 7.72004 120.6 6.96004C120.64 6.20004 120.66 5.50004 120.66 4.85004V1.03003L120.67 1.04002ZM121.37 1.04002H131.71V5.17003H121.37V4.13004H130.51V2.08003H121.37V1.04002ZM121.39 6.55003H132.03V7.62003H121.39V6.55003ZM123.15 8.88004H124.27V13.95H123.15V8.88004ZM123.79 8.88004H129.26V13.02H123.79V12.03H128.14V9.87003H123.79V8.88004ZM131.63 6.55003H132.83V6.89003C132.83 6.97003 132.83 7.05003 132.81 7.11003C132.76 8.34003 132.7 9.38004 132.65 10.24C132.6 11.1 132.54 11.81 132.47 12.37C132.41 12.93 132.33 13.37 132.25 13.68C132.16 13.99 132.06 14.23 131.93 14.38C131.78 14.56 131.62 14.68 131.45 14.75C131.28 14.81 131.07 14.86 130.83 14.89C130.61 14.91 130.3 14.92 129.92 14.92C129.54 14.92 129.13 14.9 128.69 14.87C128.68 14.71 128.65 14.52 128.59 14.31C128.53 14.1 128.45 13.91 128.36 13.75C128.79 13.78 129.18 13.8 129.54 13.81C129.9 13.82 130.15 13.83 130.3 13.83C130.45 13.83 130.57 13.82 130.65 13.79C130.73 13.76 130.82 13.71 130.89 13.62C131.02 13.48 131.13 13.18 131.22 12.71C131.31 12.24 131.39 11.53 131.46 10.57C131.53 9.62004 131.59 8.35003 131.64 6.77003V6.55003H131.63Z" fill="#333333"/>
<path d="M136.91 10.6402L136.56 9.79016C137.21 9.51016 137.71 9.17016 138.06 8.76016C138.41 8.35016 138.58 7.84016 138.58 7.23016L138.29 5.89017L139.15 7.11017C139.03 7.25017 138.9 7.34017 138.75 7.39017C138.6 7.44017 138.45 7.46017 138.3 7.46017C137.97 7.46017 137.69 7.36017 137.45 7.17017C137.21 6.98017 137.1 6.70018 137.1 6.32018C137.1 5.94018 137.22 5.65017 137.46 5.46017C137.7 5.27017 137.99 5.17017 138.32 5.17017C138.77 5.17017 139.11 5.34017 139.34 5.67017C139.57 6.01017 139.68 6.45016 139.68 7.01016C139.68 7.87016 139.43 8.62017 138.93 9.25017C138.43 9.88017 137.76 10.3402 136.91 10.6402Z" fill="#333333"/>
<path d="M146.38 11.94C146.92 11.73 147.56 11.47 148.28 11.17C149 10.87 149.76 10.55 150.57 10.2C151.38 9.85003 152.18 9.51003 152.98 9.17003L153.25 10.34C152.51 10.67 151.76 11.01 150.99 11.35C150.22 11.69 149.48 12.02 148.77 12.33C148.06 12.65 147.4 12.93 146.82 13.19L146.39 11.94H146.38ZM148.32 1.08003L149.55 1.03003L149.84 11.61L148.61 11.66L148.32 1.08003ZM158.19 1.03003L159.5 1.16003C159.3 3.02003 159.01 4.67003 158.64 6.12003C158.27 7.57003 157.77 8.85003 157.14 9.97003C156.52 11.09 155.72 12.05 154.76 12.87C153.79 13.69 152.61 14.4 151.22 14.98C151.17 14.89 151.08 14.78 150.96 14.65C150.84 14.52 150.72 14.39 150.59 14.26C150.46 14.13 150.35 14.02 150.25 13.94C151.64 13.43 152.8 12.8 153.73 12.04C154.66 11.28 155.43 10.39 156.03 9.34003C156.63 8.29003 157.09 7.08004 157.43 5.71004C157.77 4.34004 158.02 2.78003 158.19 1.03003ZM151.64 2.72003L152.71 2.21004C153.06 2.59004 153.4 3.02003 153.73 3.47003C154.06 3.93003 154.36 4.38004 154.63 4.82004C154.9 5.26004 155.1 5.67002 155.25 6.04002L154.1 6.65002C153.96 6.29002 153.76 5.87003 153.51 5.41003C153.25 4.95003 152.96 4.48003 152.63 4.01003C152.3 3.54003 151.97 3.11004 151.64 2.71004V2.72003ZM155.98 9.84003L156.91 9.04002C157.28 9.42002 157.68 9.83003 158.1 10.26C158.52 10.69 158.93 11.12 159.34 11.56C159.75 12 160.12 12.43 160.48 12.83C160.83 13.24 161.12 13.6 161.34 13.93L160.32 14.87C160.1 14.54 159.82 14.17 159.49 13.75C159.16 13.33 158.79 12.9 158.39 12.45C157.99 12 157.58 11.54 157.17 11.09C156.76 10.64 156.36 10.22 155.98 9.83003V9.84003Z" fill="#333333"/>
<path d="M162.33 11.4902C162.86 11.3902 163.49 11.2702 164.22 11.1102C164.95 10.9602 165.7 10.8002 166.48 10.6402L166.56 11.6002C165.86 11.7602 165.16 11.9202 164.47 12.0902C163.78 12.2602 163.14 12.4102 162.56 12.5502L162.34 11.4902H162.33ZM162.48 0.900192H167.68V1.9902H162.48V0.900192ZM163.34 1.4402H164.27V11.6802H163.34V1.4402ZM163.87 4.26019H166.48V5.2702H163.87V4.26019ZM163.87 7.5602H166.48V8.5802H163.87V7.5602ZM165.93 1.4402H166.89V14.9302H165.93V1.4402ZM167.45 5.0302H177.11V6.09019H167.45V5.0302ZM167.71 1.9202H172.56V2.90019H167.71V1.9202ZM168.08 7.0002H169.04V13.7402H168.08V7.0002ZM168.17 3.1902L169.03 3.0502C169.15 3.3902 169.25 3.7602 169.33 4.1702C169.41 4.5802 169.47 4.92021 169.51 5.21021L168.58 5.3902C168.56 5.1002 168.51 4.75019 168.43 4.34019C168.35 3.93019 168.26 3.5502 168.17 3.2002V3.1902ZM168.48 7.0002H172.26V13.0502H171.33V7.8802H168.48V7.0002ZM168.52 9.3502H171.82V10.2302H168.52V9.3502ZM168.52 11.7302H171.8V12.5902H168.52V11.7302ZM169.15 0.520203L170.16 0.3302C170.31 0.6302 170.46 0.960206 170.61 1.32021C170.76 1.68021 170.87 1.9902 170.93 2.2502L169.89 2.51019C169.83 2.25019 169.72 1.9402 169.58 1.5602C169.44 1.1802 169.29 0.840197 169.16 0.530197L169.15 0.520203ZM171.12 3.0302L172.11 3.2202C171.99 3.5902 171.88 3.9802 171.76 4.3802C171.64 4.7802 171.53 5.1202 171.42 5.4102L170.59 5.23019C170.69 4.92019 170.78 4.5602 170.89 4.1302C170.99 3.7102 171.07 3.3402 171.12 3.0202V3.0302ZM175.96 6.96021L176.9 7.4202C176.55 8.4902 176.1 9.48019 175.55 10.4002C175 11.3202 174.38 12.1502 173.7 12.8902C173.02 13.6302 172.3 14.2602 171.56 14.7902C171.49 14.6902 171.38 14.5802 171.23 14.4502C171.09 14.3202 170.96 14.2102 170.84 14.1202C171.59 13.6202 172.29 13.0102 172.94 12.3002C173.6 11.5902 174.19 10.7802 174.71 9.8802C175.23 8.9802 175.65 8.01019 175.96 6.98019V6.96021ZM173.02 0.210205H174.06C174.07 1.65021 174.1 3.0302 174.16 4.3502C174.21 5.6702 174.29 6.89019 174.39 8.01019C174.49 9.13019 174.61 10.1002 174.75 10.9302C174.89 11.7602 175.05 12.4002 175.24 12.8702C175.43 13.3402 175.64 13.5702 175.87 13.5802C176 13.5802 176.11 13.3702 176.21 12.9602C176.31 12.5402 176.38 11.9702 176.43 11.2502C176.49 11.3102 176.58 11.3902 176.68 11.4702C176.78 11.5602 176.88 11.6302 176.98 11.6902C177.08 11.7502 177.16 11.8102 177.23 11.8502C177.12 12.6402 177 13.2602 176.85 13.7102C176.71 14.1602 176.55 14.4702 176.37 14.6402C176.19 14.8102 176.01 14.9002 175.83 14.9002C175.39 14.8902 175.02 14.6402 174.71 14.1602C174.4 13.6802 174.14 12.9802 173.93 12.0902C173.72 11.1902 173.55 10.1402 173.43 8.9202C173.31 7.7002 173.21 6.3602 173.14 4.8902C173.08 3.4202 173.03 1.87019 173.01 0.230194L173.02 0.210205ZM174.52 1.5202L175.4 1.2002C175.58 1.4902 175.76 1.8002 175.93 2.1302C176.1 2.4602 176.25 2.7802 176.39 3.1002C176.52 3.4102 176.62 3.6902 176.69 3.9202L175.75 4.3002C175.69 4.0502 175.59 3.7702 175.46 3.4502C175.33 3.1302 175.19 2.8002 175.03 2.4702C174.87 2.1402 174.7 1.8202 174.53 1.5202H174.52Z" fill="#333333"/>
<path d="M185.12 0.259995H186.46C186.45 0.739994 186.42 1.34001 186.38 2.07001C186.34 2.80001 186.25 3.60001 186.12 4.49001C185.99 5.38001 185.78 6.31 185.49 7.27C185.2 8.23 184.79 9.18 184.28 10.11C183.77 11.04 183.12 11.92 182.34 12.74C181.56 13.56 180.6 14.27 179.47 14.87C179.36 14.72 179.22 14.56 179.04 14.38C178.86 14.2 178.68 14.05 178.5 13.92C179.61 13.35 180.54 12.68 181.31 11.91C182.07 11.14 182.69 10.31 183.17 9.42C183.65 8.53 184.02 7.64001 184.29 6.74001C184.56 5.84001 184.75 4.97 184.86 4.14C184.97 3.31 185.04 2.56 185.08 1.88C185.11 1.21 185.13 0.66 185.13 0.25L185.12 0.259995ZM186.3 2.24001C186.33 2.42001 186.38 2.77 186.44 3.28C186.5 3.79 186.62 4.41 186.79 5.12C186.96 5.83 187.2 6.6 187.52 7.41C187.84 8.22 188.24 9.03 188.74 9.83C189.24 10.63 189.86 11.38 190.6 12.07C191.34 12.76 192.22 13.34 193.23 13.8C193.06 13.93 192.89 14.09 192.73 14.28C192.57 14.47 192.44 14.65 192.35 14.81C191.31 14.32 190.4 13.71 189.64 12.97C188.88 12.23 188.24 11.44 187.72 10.59C187.2 9.74 186.78 8.87999 186.46 8.00999C186.14 7.13999 185.89 6.32 185.72 5.55C185.54 4.78 185.41 4.12 185.33 3.56C185.24 3 185.19 2.6 185.15 2.37L186.29 2.25999L186.3 2.24001Z" fill="#333333"/>
<path d="M196.33 9.70016L197.4 10.0802C197.28 10.5202 197.14 10.9802 196.96 11.4702C196.78 11.9602 196.59 12.4302 196.37 12.8902C196.15 13.3502 195.91 13.7502 195.64 14.1102L194.58 13.5302C194.85 13.1902 195.09 12.8002 195.31 12.3702C195.53 11.9402 195.73 11.4902 195.9 11.0202C196.08 10.5502 196.22 10.1102 196.32 9.69017L196.33 9.70016ZM196.12 0.920166H207.35V8.15016H196.12V0.920166ZM197.26 1.99017V4.02017H206.17V1.99017H197.26ZM197.26 5.03017V7.08017H206.17V5.03017H197.26ZM198.41 9.79016H199.61V12.9602C199.61 13.1802 199.67 13.3302 199.8 13.3902C199.93 13.4502 200.22 13.4902 200.68 13.4902H203.74C204.01 13.4902 204.21 13.4402 204.34 13.3502C204.47 13.2502 204.57 13.0602 204.62 12.7602C204.67 12.4602 204.72 12.0102 204.75 11.4202C204.85 11.4802 204.96 11.5502 205.09 11.6102C205.22 11.6702 205.35 11.7302 205.49 11.7802C205.63 11.8302 205.75 11.8602 205.86 11.8802C205.81 12.6102 205.72 13.1702 205.59 13.5602C205.46 13.9502 205.26 14.2302 204.99 14.3802C204.72 14.5302 204.34 14.6002 203.85 14.6002H200.6C200.03 14.6002 199.59 14.5502 199.27 14.4602C198.95 14.3602 198.73 14.2002 198.61 13.9602C198.49 13.7302 198.43 13.3902 198.43 12.9702V9.80017L198.41 9.79016ZM199.88 9.17017L200.68 8.43016C201.07 8.63016 201.49 8.86017 201.92 9.13017C202.35 9.39017 202.76 9.66016 203.14 9.93016C203.52 10.2002 203.83 10.4602 204.08 10.7102L203.23 11.5402C203.01 11.3102 202.71 11.0502 202.33 10.7602C201.96 10.4802 201.56 10.2002 201.13 9.92017C200.7 9.64017 200.29 9.39017 199.88 9.17017ZM201.16 1.38017H202.34V7.68016H201.16V1.38017ZM205.68 9.97017L206.74 9.52017C207.06 9.93017 207.37 10.3602 207.68 10.8302C207.98 11.3002 208.26 11.7602 208.5 12.2202C208.74 12.6802 208.92 13.1002 209.04 13.4702L207.87 13.9702C207.75 13.6102 207.58 13.2002 207.36 12.7402C207.14 12.2802 206.88 11.8102 206.59 11.3202C206.3 10.8302 206 10.3802 205.69 9.97017H205.68Z" fill="#333333"/>
<path d="M211.2 10.5L212.16 10.68C212.08 11.36 211.96 12.06 211.82 12.76C211.68 13.46 211.52 14.07 211.36 14.57C211.25 14.52 211.1 14.45 210.9 14.38C210.7 14.31 210.55 14.25 210.43 14.22C210.62 13.73 210.78 13.15 210.89 12.48C211 11.81 211.11 11.15 211.19 10.5H211.2ZM210.81 6.2C210.8 6.13 210.77 6.01999 210.73 5.89999C210.69 5.77999 210.64 5.63999 210.59 5.50999C210.54 5.37999 210.5 5.26 210.45 5.17C210.59 5.14 210.73 5.05 210.87 4.89C211.01 4.74 211.17 4.53999 211.33 4.28999C211.45 4.12999 211.63 3.83999 211.88 3.42999C212.13 3.01999 212.4 2.52001 212.68 1.96001C212.96 1.39001 213.21 0.82 213.42 0.25L214.46 0.679993C214.05 1.57999 213.6 2.46 213.08 3.34C212.56 4.22 212.05 4.97 211.51 5.61V5.63C211.37 5.71 211.25 5.79001 211.15 5.85001C211.05 5.91001 210.96 5.96999 210.89 6.03999C210.82 6.10999 210.79 6.17 210.79 6.22L210.81 6.2ZM210.92 9.81C210.9 9.74 210.87 9.62999 210.82 9.50999C210.78 9.37999 210.73 9.25 210.69 9.12C210.65 8.99 210.6 8.87 210.56 8.78C210.73 8.75 210.91 8.63 211.09 8.44C211.27 8.25 211.48 7.99 211.73 7.7C211.87 7.55 212.06 7.31001 212.31 6.96001C212.56 6.62001 212.83 6.22 213.14 5.75C213.45 5.28 213.76 4.78001 214.08 4.24001C214.39 3.70001 214.68 3.15 214.94 2.59L215.9 3.17C215.51 3.91 215.07 4.64 214.6 5.36C214.13 6.08 213.65 6.77999 213.15 7.42999C212.65 8.08999 212.15 8.69 211.64 9.23V9.25C211.5 9.33 211.38 9.39 211.29 9.45C211.19 9.51 211.11 9.57 211.03 9.63C210.95 9.69 210.92 9.76001 210.92 9.82001V9.81ZM210.81 6.2L210.79 5.37L211.33 5.03L214.13 4.78999C214.11 4.93999 214.09 5.1 214.07 5.27C214.05 5.44 214.04 5.58 214.04 5.7C213.4 5.78 212.88 5.84 212.49 5.88C212.09 5.93 211.79 5.96999 211.57 6.00999C211.35 6.04999 211.19 6.08 211.08 6.11C210.97 6.14 210.88 6.17 210.81 6.2ZM210.92 9.81L210.89 8.96001L211.45 8.59L215.79 8C215.77 8.14 215.75 8.3 215.75 8.47C215.75 8.65 215.75 8.79 215.75 8.91C214.75 9.06 213.94 9.18999 213.34 9.28999C212.74 9.38999 212.27 9.47 211.95 9.53C211.62 9.59 211.39 9.63999 211.25 9.67999C211.11 9.71999 211 9.76 210.92 9.81ZM212.91 10.63L213.79 10.44C213.9 10.98 213.99 11.57 214.08 12.21C214.16 12.84 214.22 13.39 214.26 13.85L213.32 14.07C213.3 13.6 213.25 13.05 213.18 12.41C213.11 11.77 213.02 11.18 212.92 10.63H212.91ZM214.49 6.5L215.34 6.21001C215.52 6.55001 215.69 6.92 215.84 7.31C215.99 7.7 216.13 8.06999 216.25 8.42999C216.37 8.78999 216.46 9.10999 216.51 9.39999L215.58 9.75C215.54 9.47 215.46 9.15 215.35 8.77C215.24 8.39 215.11 8.01 214.96 7.62C214.81 7.23 214.66 6.85 214.5 6.5H214.49ZM214.68 10.29L215.51 10.03C215.7 10.52 215.89 11.05 216.07 11.63C216.25 12.21 216.38 12.7 216.47 13.12L215.59 13.42C215.51 12.99 215.39 12.49 215.21 11.9C215.03 11.31 214.85 10.78 214.68 10.28V10.29ZM218.76 0.289993L219.91 0.630005C219.66 1.36 219.37 2.1 219.01 2.87C218.66 3.64 218.27 4.38 217.86 5.09C217.44 5.8 216.99 6.45 216.5 7.03C216.47 6.92 216.41 6.80999 216.34 6.67999C216.27 6.54999 216.19 6.41999 216.12 6.28999C216.04 6.15999 215.98 6.05001 215.91 5.96001C216.33 5.46001 216.71 4.89001 217.08 4.24001C217.44 3.59001 217.77 2.93 218.06 2.25C218.35 1.57 218.59 0.920003 218.76 0.300003V0.289993ZM218.6 3.11H224.82V4.2H218.6V14.95H217.48V3.86L218.18 3.11H218.6ZM217.98 12.66H225.05V13.78H217.98V12.66ZM218.06 6.23H224.52V7.32001H218.06V6.23ZM218.09 9.38H224.55V10.47H218.09V9.38ZM220.41 0.710007L221.42 0.289993C221.62 0.639993 221.83 1.03 222.04 1.44C222.25 1.86 222.41 2.20999 222.52 2.50999L221.46 3.00999C221.35 2.68999 221.2 2.32 221 1.89C220.8 1.46 220.6 1.07001 220.41 0.710007ZM220.97 3.49001H222.06V13.27H220.97V3.49001Z" fill="#333333"/>
<path d="M229.15 0.370102H230.29V5.91011C230.29 6.61011 230.26 7.36011 230.2 8.16011C230.14 8.95011 230.01 9.7501 229.82 10.5401C229.62 11.3301 229.32 12.0901 228.91 12.8101C228.5 13.5301 227.94 14.1801 227.24 14.7501C227.19 14.6501 227.11 14.5501 227.02 14.4501C226.92 14.3401 226.82 14.2401 226.72 14.1301C226.62 14.0201 226.52 13.9401 226.42 13.8701C227.07 13.3801 227.58 12.8101 227.96 12.1501C228.33 11.4901 228.6 10.8001 228.77 10.0801C228.94 9.36011 229.04 8.6301 229.09 7.9201C229.14 7.21011 229.16 6.5301 229.16 5.9001V0.360107L229.15 0.370102ZM226.51 6.58011H232.85V7.6801H226.51V6.58011ZM226.84 2.8701H232.54V3.96011H226.84V2.8701ZM230.03 8.4801C230.14 8.5801 230.29 8.73011 230.49 8.94011C230.69 9.15011 230.91 9.3901 231.15 9.6501C231.39 9.9101 231.63 10.1801 231.87 10.4401C232.11 10.7101 232.32 10.9501 232.51 11.1601C232.7 11.3701 232.83 11.5301 232.9 11.6201L232.08 12.5201C231.94 12.3201 231.75 12.0601 231.5 11.7401C231.25 11.4201 230.99 11.0901 230.72 10.7401C230.45 10.3901 230.18 10.0701 229.92 9.77011C229.66 9.47011 229.46 9.24011 229.3 9.07011L230.04 8.4801H230.03ZM234.75 9.49011H235.9C235.83 10.1301 235.71 10.7301 235.56 11.2701C235.41 11.8201 235.19 12.3201 234.9 12.7701C234.62 13.2201 234.24 13.6301 233.77 13.9901C233.3 14.3501 232.71 14.6501 232.01 14.9101C231.96 14.7701 231.86 14.6101 231.71 14.4401C231.57 14.2601 231.44 14.1201 231.32 14.0201C232.17 13.7401 232.83 13.3901 233.3 12.9501C233.77 12.5101 234.11 12.0001 234.32 11.4201C234.53 10.8401 234.67 10.2001 234.74 9.49011H234.75ZM233.44 0.830109H240.3V9.74011H233.44V0.830109ZM234.56 1.9201V3.49011H239.15V1.9201H234.56ZM234.56 4.50011V6.07011H239.15V4.50011H234.56ZM234.56 7.0601V8.6801H239.15V7.0601H234.56ZM237.26 9.28011H238.4V13.1501C238.4 13.3301 238.42 13.4501 238.46 13.5001C238.5 13.5501 238.61 13.5801 238.78 13.5801H239.8C239.92 13.5801 240.01 13.5301 240.06 13.4401C240.11 13.3501 240.16 13.1501 240.19 12.8501C240.22 12.5501 240.24 12.0901 240.25 11.4601C240.33 11.5201 240.44 11.5901 240.55 11.6501C240.66 11.7101 240.79 11.7701 240.93 11.8101C241.07 11.8501 241.18 11.8901 241.27 11.9201C241.24 12.6401 241.18 13.2101 241.09 13.6001C241 13.9901 240.86 14.2701 240.68 14.4201C240.5 14.5701 240.25 14.6401 239.93 14.6401H238.62C238.26 14.6401 237.98 14.6001 237.78 14.5101C237.58 14.4201 237.45 14.2701 237.37 14.0501C237.29 13.8301 237.26 13.5301 237.26 13.1501V9.28011Z" fill="#333333"/>
<path d="M242.44 13.5702C243.2 13.5302 244.07 13.4902 245.07 13.4502C246.07 13.4102 247.13 13.3702 248.27 13.3102C249.41 13.2502 250.54 13.1902 251.67 13.1402L251.64 14.0802C250.54 14.1302 249.44 14.1902 248.33 14.2502C247.22 14.3102 246.17 14.3702 245.18 14.4202C244.19 14.4702 243.31 14.5202 242.54 14.5502L242.44 13.5702ZM242.48 2.79019H251.71V3.62019H242.48V2.79019ZM242.57 7.46021H251.61V8.3102H242.57V7.46021ZM243.32 5.96021H250.94V6.73019H243.32V5.96021ZM243.5 1.2502H250.72V5.2502H243.44V4.5002H249.66V2.0002H243.5V1.2502ZM243.53 9.0002H250.7V12.5702H243.53V9.0002ZM244.51 9.68019V10.4302H249.69V9.68019H244.51ZM244.51 11.0902V11.8702H249.69V11.0902H244.51ZM246.48 0.210205H247.57V8.0002H246.48V0.210205ZM246.59 9.2702H247.63V12.3102H246.59V9.2702ZM252.32 2.1302H253.44V11.0102H252.32V2.1302ZM255.36 0.520203H256.51V13.4202C256.51 13.7902 256.46 14.0802 256.36 14.2802C256.26 14.4802 256.1 14.6202 255.87 14.7202C255.63 14.8202 255.32 14.8802 254.92 14.9002C254.52 14.9302 254 14.9402 253.36 14.9402C253.34 14.7802 253.29 14.5902 253.22 14.3602C253.15 14.1302 253.07 13.9402 252.97 13.7702C253.44 13.7702 253.86 13.7902 254.23 13.7902H254.98C255.12 13.7802 255.22 13.7502 255.27 13.7002C255.32 13.6502 255.35 13.5602 255.35 13.4202V0.520203H255.36Z" fill="#333333"/>
<path d="M262.14 0.120102L263.34 0.470108C263.01 1.19011 262.64 1.91011 262.22 2.61011C261.8 3.31011 261.36 3.9701 260.9 4.5901C260.44 5.2001 259.97 5.75011 259.5 6.21011C259.42 6.15011 259.32 6.0701 259.19 5.9801C259.06 5.8901 258.92 5.80011 258.79 5.71011C258.66 5.62011 258.54 5.55011 258.43 5.49011C258.93 5.06011 259.41 4.56011 259.87 3.99011C260.33 3.41011 260.75 2.80011 261.14 2.13011C261.53 1.47011 261.86 0.800107 262.14 0.110107V0.120102ZM258.49 8.10011H261.48V8.13011H270.31V8.10011H273.14V9.19011H270.31V9.1701H261.48V9.19011H258.49V8.10011ZM261.37 4.53011H262.57C262.49 5.19011 262.39 5.9001 262.3 6.6501C262.21 7.4001 262.1 8.16011 262 8.91011C261.89 9.67011 261.79 10.3801 261.68 11.0501C261.57 11.7201 261.47 12.3101 261.38 12.8201H260.15C260.26 12.3001 260.37 11.7001 260.49 11.0201C260.61 10.3401 260.72 9.6301 260.83 8.8701C260.94 8.1101 261.04 7.36011 261.13 6.61011C261.22 5.86011 261.3 5.17011 261.38 4.53011H261.37ZM260.8 11.7601H272.59V12.8301H260.8V11.7601ZM261.47 1.83011H272.61V2.9201H261.47V1.83011ZM261.95 4.53011H270.32V5.60011H261.95V4.53011ZM263.64 9.8401L264.31 9.1501C264.68 9.3201 265.06 9.5201 265.45 9.7601C265.84 9.9901 266.2 10.2301 266.55 10.4701C266.89 10.7101 267.17 10.9401 267.38 11.1501L266.68 11.9201C266.48 11.7101 266.21 11.4701 265.86 11.2201C265.52 10.9601 265.16 10.7201 264.77 10.4801C264.39 10.2401 264.01 10.0301 263.63 9.85011L263.64 9.8401ZM264.06 6.32011L264.75 5.6501C265.09 5.8001 265.45 5.9801 265.82 6.1801C266.19 6.3801 266.54 6.59011 266.87 6.80011C267.2 7.01011 267.46 7.2201 267.66 7.4201L266.94 8.1701C266.74 7.9701 266.48 7.75011 266.16 7.53011C265.84 7.31011 265.5 7.0901 265.14 6.8701C264.77 6.6601 264.41 6.4701 264.06 6.3101V6.32011ZM269.84 4.53011H271.02C271.02 4.68011 271.02 4.8001 271.02 4.9001C271.02 5.0001 271.02 5.0701 271.02 5.1201C270.97 6.7201 270.91 8.0801 270.86 9.1801C270.81 10.2901 270.74 11.1901 270.67 11.8801C270.6 12.5701 270.51 13.1101 270.41 13.5001C270.31 13.8801 270.2 14.1601 270.07 14.3201C269.92 14.5201 269.76 14.6601 269.57 14.7401C269.38 14.8201 269.18 14.8801 268.93 14.9101C268.69 14.9201 268.39 14.9201 268.02 14.9101C267.65 14.9101 267.26 14.8901 266.87 14.8701C266.86 14.7301 266.83 14.5701 266.77 14.3901C266.71 14.2101 266.65 14.0501 266.58 13.9101C266.99 13.9401 267.36 13.9601 267.69 13.9701C268.02 13.9801 268.27 13.9901 268.43 13.9901C268.57 13.9901 268.68 13.9701 268.77 13.9401C268.85 13.9101 268.94 13.8401 269.01 13.7501C269.12 13.6301 269.21 13.3901 269.29 13.0101C269.37 12.6401 269.44 12.1001 269.51 11.4101C269.57 10.7201 269.63 9.83011 269.69 8.74011C269.74 7.65011 269.8 6.33011 269.85 4.77011V4.5101L269.84 4.53011Z" fill="#333333"/>
<path d="M274.51 6.75H289.17V8.06H274.51V6.75Z" fill="#333333"/>
<path d="M290.64 3.62019H304.99V4.8002H290.64V3.62019ZM292.48 7.0302L293.49 6.4102C293.9 6.8002 294.29 7.2402 294.68 7.7202C295.07 8.2002 295.43 8.6702 295.75 9.1402C296.08 9.6102 296.32 10.0402 296.49 10.4202L295.4 11.1102C295.24 10.7302 295 10.3002 294.69 9.82021C294.38 9.34021 294.03 8.86019 293.64 8.37019C293.26 7.88019 292.87 7.4302 292.47 7.0302H292.48ZM299.95 0.210205H301.21V13.1402C301.21 13.6302 301.14 13.9902 301 14.2202C300.86 14.4502 300.62 14.6202 300.28 14.7202C299.95 14.8202 299.48 14.8802 298.87 14.9102C298.26 14.9402 297.53 14.9602 296.66 14.9602C296.64 14.8302 296.6 14.6902 296.53 14.5302C296.47 14.3702 296.4 14.2102 296.33 14.0402C296.26 13.8702 296.19 13.7302 296.11 13.6202C296.61 13.6302 297.09 13.6402 297.53 13.6402C297.98 13.6402 298.37 13.6402 298.71 13.6402H299.42C299.61 13.6302 299.75 13.5902 299.82 13.5202C299.89 13.4502 299.93 13.3202 299.93 13.1302V0.200195L299.95 0.210205Z" fill="#333333"/>
<path d="M308.72 1.24023H309.98V5.67023C309.98 6.36023 309.95 7.12022 309.89 7.93022C309.83 8.74022 309.71 9.56022 309.54 10.4002C309.36 11.2402 309.1 12.0502 308.76 12.8302C308.42 13.6102 307.96 14.3302 307.39 14.9802C307.33 14.8902 307.23 14.8002 307.1 14.6802C306.97 14.5702 306.85 14.4602 306.72 14.3502C306.59 14.2402 306.49 14.1702 306.39 14.1302C306.92 13.5202 307.35 12.8602 307.65 12.1502C307.96 11.4402 308.19 10.7002 308.35 9.95023C308.51 9.20023 308.6 8.46022 308.65 7.73022C308.69 7.00022 308.71 6.31023 308.71 5.66023V1.24023H308.72ZM310.36 6.68022C310.97 7.92022 311.79 9.01024 312.82 9.96024C313.85 10.9102 315.08 11.7002 316.48 12.3302C317.89 12.9602 319.46 13.4202 321.18 13.7102C321.1 13.8102 321 13.9202 320.9 14.0502C320.8 14.1802 320.7 14.3202 320.61 14.4702C320.52 14.6102 320.45 14.7402 320.39 14.8502C318.62 14.5202 317.02 14.0102 315.6 13.3202C314.18 12.6302 312.93 11.7702 311.86 10.7402C310.79 9.70023 309.91 8.50022 309.22 7.12022L310.34 6.69023L310.36 6.68022ZM309.4 1.24023H319.48V7.24023H309.4V6.09023H318.23V2.43022H309.4V1.25023V1.24023Z" fill="#333333"/>
<path d="M323.82 1.79012H325.02V6.14012C325.02 6.78012 325 7.48012 324.96 8.23012C324.92 8.98012 324.85 9.75012 324.74 10.5401C324.63 11.3301 324.48 12.1001 324.28 12.8401C324.08 13.5901 323.8 14.2801 323.46 14.9201C323.38 14.8601 323.28 14.7901 323.15 14.7201C323.02 14.6501 322.88 14.5801 322.74 14.5101C322.6 14.4401 322.48 14.3901 322.39 14.3701C322.72 13.7601 322.98 13.1101 323.17 12.4001C323.36 11.7001 323.5 10.9801 323.59 10.2401C323.69 9.50013 323.75 8.79012 323.77 8.09012C323.8 7.39012 323.81 6.74012 323.81 6.15012V1.78012L323.82 1.79012ZM324.38 1.79012H336.97V2.93011H324.38V1.79012ZM334.48 9.41013H334.72L334.93 9.36012L335.68 9.76012C335.24 10.5801 334.66 11.2901 333.94 11.8701C333.22 12.4601 332.4 12.9501 331.48 13.3301C330.56 13.7201 329.59 14.0301 328.55 14.2701C327.51 14.5101 326.45 14.6901 325.35 14.8201C325.32 14.6801 325.25 14.5101 325.16 14.3101C325.06 14.1101 324.97 13.9401 324.87 13.8001C325.88 13.7101 326.88 13.5701 327.87 13.3701C328.86 13.1701 329.78 12.9001 330.64 12.5601C331.5 12.2201 332.26 11.8101 332.92 11.3201C333.58 10.8301 334.1 10.2501 334.47 9.58012V9.40012L334.48 9.41013ZM325.4 4.74013H336.79V5.73012H325.4V4.74013ZM325.63 9.41013H334.8V10.4001H325.63V9.41013ZM328.19 10.2101C328.72 10.9101 329.44 11.5201 330.34 12.0301C331.24 12.5401 332.28 12.9501 333.44 13.2501C334.61 13.5601 335.86 13.7701 337.19 13.8901C337.11 13.9701 337.02 14.0801 336.93 14.2001C336.84 14.3201 336.76 14.4501 336.68 14.5801C336.6 14.7101 336.54 14.8301 336.49 14.9301C335.13 14.7701 333.86 14.5101 332.67 14.1501C331.48 13.7901 330.42 13.3201 329.48 12.7301C328.54 12.1401 327.77 11.4401 327.16 10.6201L328.18 10.2001L328.19 10.2101ZM327.98 3.35013H329.13V7.43011H333.02V3.35013H334.2V8.39012H327.98V3.35013ZM329.37 0.42012L330.57 0.130127C330.76 0.450127 330.95 0.800125 331.12 1.19012C331.3 1.58012 331.42 1.91012 331.5 2.17012L330.25 2.51012C330.17 2.23012 330.06 1.89013 329.9 1.49013C329.74 1.09013 329.56 0.730126 329.37 0.410126V0.42012Z" fill="#333333"/>
<path d="M340.49 10.6402L340.14 9.79016C340.79 9.51016 341.29 9.17016 341.64 8.76016C341.99 8.35016 342.16 7.84016 342.16 7.23016L341.87 5.89017L342.73 7.11017C342.61 7.25017 342.48 7.34017 342.33 7.39017C342.18 7.44017 342.03 7.46017 341.88 7.46017C341.55 7.46017 341.27 7.36017 341.03 7.17017C340.79 6.98017 340.68 6.70018 340.68 6.32018C340.68 5.94018 340.8 5.65017 341.04 5.46017C341.28 5.27017 341.57 5.17017 341.9 5.17017C342.35 5.17017 342.69 5.34017 342.92 5.67017C343.15 6.01017 343.26 6.45016 343.26 7.01016C343.26 7.87016 343.01 8.62017 342.51 9.25017C342.01 9.88017 341.34 10.3402 340.49 10.6402Z" fill="#333333"/>
<path d="M21.4 32.9301H26.47V33.9201H21.4V32.9301ZM22 39.3501H22.9V44.7601H22V39.3501ZM22.08 35.0601H26.03V36.0001H22.08V35.0601ZM22.08 37.1901H26.03V38.1501H22.08V37.1901ZM22.76 39.3501H26.04V44.0101H22.76V43.0301H25.11V40.3301H22.76V39.3501ZM22.97 30.6101L23.87 30.3201C24.06 30.6501 24.25 31.0101 24.43 31.4101C24.61 31.8101 24.73 32.1501 24.78 32.4301L23.87 32.7801C23.81 32.4901 23.69 32.1401 23.53 31.7301C23.36 31.3201 23.18 30.9401 22.98 30.6001L22.97 30.6101ZM30.59 40.1301L31.52 40.4201C31.18 40.8001 30.76 41.1701 30.26 41.5101C29.76 41.8501 29.22 42.1601 28.65 42.4201C28.08 42.6901 27.51 42.9101 26.95 43.0901C26.92 43.0301 26.87 42.9401 26.79 42.8401C26.71 42.7401 26.64 42.6401 26.56 42.5401C26.48 42.4401 26.41 42.3601 26.34 42.2901C26.87 42.1401 27.41 41.9601 27.96 41.7501C28.51 41.5401 29.01 41.2901 29.47 41.0201C29.93 40.7501 30.3 40.4501 30.59 40.1301ZM26.59 39.8901H36.14V40.7901H26.59V39.8901ZM26.78 31.4101H35.98V32.3201H26.78V31.4101ZM27.08 36.5601H35.78V37.3801H27.08V36.5601ZM27.37 38.2301H35.48V39.0501H27.37V38.2301ZM27.4 32.9801H30.97V35.7001H27.4V32.9801ZM28.65 44.9201C28.61 44.8001 28.53 44.6601 28.42 44.5001C28.31 44.3401 28.21 44.2201 28.12 44.1301C28.24 44.0401 28.37 43.9001 28.52 43.6901C28.67 43.4801 28.74 43.2001 28.74 42.8501V41.6201L29.7 41.6701V43.7001C29.49 43.8701 29.31 44.0201 29.17 44.1601C29.03 44.3001 28.91 44.4301 28.8 44.5601C28.69 44.6901 28.64 44.8101 28.64 44.9201H28.65ZM28.33 33.7301V34.9601H30.03V33.7301H28.33ZM28.65 44.9201L28.6 44.0201L29.11 43.6401L32.1 43.0601C32.09 43.2001 32.09 43.3601 32.1 43.5501C32.11 43.7401 32.13 43.8801 32.15 43.9901C31.45 44.1501 30.88 44.2801 30.45 44.3801C30.02 44.4801 29.68 44.5601 29.45 44.6301C29.21 44.6901 29.04 44.7501 28.92 44.7901C28.8 44.8301 28.71 44.8801 28.65 44.9201ZM29.04 35.5201H30.14V40.1401H29.04V35.5201ZM30.43 30.3901L31.42 30.0701C31.59 30.3301 31.75 30.6101 31.9 30.9101C32.05 31.2101 32.15 31.4801 32.2 31.7001L31.14 32.0701C31.09 31.8401 30.99 31.5601 30.85 31.2501C30.71 30.9401 30.57 30.6501 30.42 30.3901H30.43ZM32.17 40.2601C32.5 41.1601 33.02 41.9301 33.73 42.6001C34.44 43.2601 35.31 43.7201 36.33 43.9901C36.21 44.1001 36.09 44.2401 35.96 44.4101C35.83 44.5801 35.73 44.7401 35.66 44.8701C34.57 44.5201 33.66 43.9601 32.92 43.2001C32.18 42.4401 31.63 41.5301 31.26 40.4701L32.17 40.2601ZM31.84 32.9801H35.47V35.7001H31.84V32.9801ZM32.54 35.5201H33.63V40.1401H32.54V35.5201ZM32.75 33.7301V34.9601H34.49V33.7301H32.75ZM35.2 41.0001L35.86 41.6201C35.5 41.8901 35.09 42.1301 34.64 42.3601C34.19 42.5901 33.78 42.7801 33.41 42.9401L32.83 42.3601C33.08 42.2401 33.34 42.1001 33.63 41.9401C33.92 41.7801 34.2 41.6101 34.48 41.4401C34.76 41.2701 35 41.1101 35.2 40.9801V41.0001Z" fill="#333333"/>
<path d="M37.98 43.4301H51.69V44.5801H37.98V43.4301ZM38.01 32.0501H51.53V35.2801H50.3V33.1701H39.2V35.6701H38.02V32.0501H38.01ZM42.7 32.8801H43.95C43.89 33.6401 43.77 34.3001 43.61 34.8601C43.45 35.4301 43.19 35.9101 42.83 36.3201C42.47 36.7301 41.96 37.0701 41.31 37.3401C40.66 37.6101 39.82 37.8301 38.78 38.0001C38.76 37.9001 38.72 37.8001 38.66 37.6801C38.6 37.5601 38.53 37.4501 38.44 37.3301C38.35 37.2101 38.28 37.1201 38.22 37.0401C39.15 36.9001 39.9 36.7301 40.47 36.5101C41.04 36.3001 41.48 36.0301 41.79 35.7001C42.1 35.3701 42.32 34.9801 42.45 34.5201C42.58 34.0601 42.67 33.5101 42.7 32.8801ZM39.42 38.8501H50.17V39.9701H39.42V38.8501ZM43.5 30.4701L44.75 30.1201C44.96 30.4701 45.18 30.8601 45.4 31.3001C45.62 31.7301 45.78 32.1001 45.89 32.4001L44.58 32.8201C44.48 32.5101 44.33 32.1301 44.12 31.6901C43.91 31.2501 43.71 30.8401 43.5 30.4801V30.4701ZM44.22 39.4401H45.47V43.9801H44.22V39.4401ZM45.96 32.8801H47.14V35.7401C47.14 35.9601 47.18 36.1201 47.24 36.2101C47.3 36.3001 47.46 36.3501 47.68 36.3501H50.43C50.62 36.3501 50.85 36.3501 51.12 36.3301C51.39 36.3101 51.59 36.2901 51.74 36.2601C51.75 36.4301 51.77 36.6201 51.79 36.8201C51.81 37.0201 51.83 37.1901 51.85 37.3301C51.72 37.3701 51.53 37.4001 51.27 37.4101C51.01 37.4201 50.74 37.4301 50.48 37.4301H47.66C47.21 37.4301 46.86 37.3801 46.61 37.2701C46.36 37.1601 46.19 36.9801 46.09 36.7301C45.99 36.4801 45.95 36.1501 45.95 35.7301V32.8801H45.96Z" fill="#333333"/>
<path d="M54.24 30.9001H55.44V44.9501H54.24V30.9001ZM54.83 33.1702H59.28V34.0502H54.83V33.1702ZM54.92 30.9001H60.04V36.3902H54.92V35.4801H58.92V31.8302H54.92V30.9001ZM57.79 37.6002H58.88V44.2601H57.79V37.6002ZM58.3 37.6002H63.76V43.4402H58.3V42.5002H62.64V38.5502H58.3V37.6102V37.6002ZM58.36 40.0202H63.21V40.9501H58.36V40.0202ZM66.84 30.9001V31.8302H62.63V35.4902H66.84V36.4202H61.5V30.9001H66.84ZM62.2 33.1702H66.74V34.0502H62.2V33.1702ZM66.24 30.9001H67.46V43.3502C67.46 43.7202 67.41 44.0201 67.31 44.2301C67.21 44.4401 67.02 44.6002 66.76 44.7102C66.5 44.8202 66.15 44.8801 65.71 44.9001C65.27 44.9201 64.71 44.9301 64.05 44.9301C64.03 44.8101 64 44.6802 63.95 44.5302C63.91 44.3802 63.86 44.2302 63.8 44.0802C63.74 43.9302 63.68 43.8001 63.63 43.7001C63.95 43.7101 64.26 43.7202 64.57 43.7202H65.87C66.01 43.7102 66.1 43.6801 66.16 43.6201C66.22 43.5601 66.24 43.4702 66.24 43.3302V30.9001Z" fill="#333333"/>
<path d="M70.35 37.4302L71.44 37.4902C71.42 38.5002 71.37 39.4702 71.3 40.3902C71.23 41.3102 71.11 42.1502 70.94 42.9202C70.77 43.6902 70.52 44.3702 70.2 44.9502C70.14 44.9002 70.04 44.8302 69.93 44.7602C69.81 44.6902 69.69 44.6102 69.56 44.5402C69.43 44.4702 69.32 44.4202 69.22 44.3702C69.53 43.8402 69.76 43.2102 69.92 42.4902C70.08 41.7702 70.18 40.9802 70.24 40.1202C70.3 39.2602 70.33 38.3602 70.34 37.4202L70.35 37.4302ZM69.63 35.1902H76.48V36.2802H69.63V35.1902ZM69.96 32.1302H76.15V33.2002H69.96V32.1302ZM71.21 39.3302C71.43 40.1702 71.72 40.8602 72.06 41.3902C72.4 41.9202 72.83 42.3302 73.34 42.6102C73.85 42.8902 74.46 43.1002 75.16 43.2002C75.86 43.3102 76.69 43.3602 77.62 43.3602C77.75 43.3602 77.98 43.3602 78.31 43.3602C78.64 43.3602 79.03 43.3602 79.48 43.3602C79.93 43.3602 80.4 43.3602 80.89 43.3602H82.31C82.77 43.3602 83.18 43.3602 83.53 43.3602C83.89 43.3602 84.15 43.3502 84.31 43.3402C84.25 43.4302 84.18 43.5402 84.12 43.6802C84.06 43.8202 84 43.9702 83.94 44.1202C83.89 44.2702 83.85 44.4002 83.83 44.5202H77.64C76.54 44.5202 75.59 44.4502 74.79 44.3202C73.99 44.1902 73.31 43.9402 72.74 43.5902C72.17 43.2402 71.69 42.7402 71.3 42.1002C70.91 41.4602 70.58 40.6402 70.32 39.6402L71.2 39.3402L71.21 39.3302ZM72.51 30.2102H73.63V35.7502H72.51V30.2102ZM72.73 35.8802H73.8V43.1602H72.73V35.8802ZM73.26 38.5502H76.32V39.6202H73.26V38.5502ZM78.96 31.2702L80.1 31.3302C79.99 32.7002 79.69 33.8202 79.18 34.6902C78.67 35.5602 77.95 36.2702 77.01 36.8202C76.96 36.7502 76.87 36.6602 76.75 36.5602C76.63 36.4602 76.52 36.3702 76.41 36.2902C76.3 36.2102 76.19 36.1402 76.1 36.0802C77.03 35.6302 77.72 35.0202 78.16 34.2302C78.61 33.4502 78.87 32.4602 78.96 31.2602V31.2702ZM76.64 30.8802H83.14V31.9202H76.64V30.8802ZM77.16 37.0802H83.32V42.0402H77.16V37.0802ZM78.3 38.0802V41.0202H82.12V38.0802H78.3ZM82.52 30.8802H83.67C83.67 31.1302 83.67 31.2902 83.65 31.3602C83.61 32.3202 83.56 33.1002 83.51 33.7002C83.46 34.3002 83.39 34.7602 83.31 35.0802C83.23 35.4102 83.13 35.6402 83 35.7802C82.88 35.9102 82.75 36.0002 82.61 36.0602C82.47 36.1202 82.29 36.1602 82.07 36.1802C81.89 36.2002 81.64 36.2102 81.33 36.2002C81.02 36.2002 80.68 36.1902 80.31 36.1802C80.3 36.0202 80.27 35.8402 80.21 35.6502C80.15 35.4602 80.09 35.2902 80 35.1402C80.34 35.1702 80.65 35.1902 80.94 35.2002C81.22 35.2002 81.42 35.2002 81.52 35.2002C81.77 35.2102 81.93 35.1602 82.02 35.0602C82.1 34.9602 82.18 34.7802 82.24 34.5002C82.3 34.2202 82.35 33.8102 82.4 33.2502C82.45 32.7002 82.49 31.9602 82.52 31.0602V30.8802Z" fill="#333333"/>
<path d="M86.41 37.4402L87.42 37.5002C87.43 38.2902 87.41 39.1202 87.36 39.9902C87.31 40.8602 87.18 41.7202 86.98 42.5602C86.78 43.4002 86.46 44.1802 86.04 44.8802C85.99 44.7902 85.91 44.7102 85.82 44.6202C85.73 44.5302 85.63 44.4402 85.52 44.3602C85.42 44.2702 85.32 44.2202 85.22 44.1802C85.6 43.5302 85.88 42.8202 86.05 42.0502C86.22 41.2802 86.33 40.5002 86.37 39.7102C86.41 38.9202 86.43 38.1602 86.42 37.4502L86.41 37.4402ZM85.5 35.3002H92.4V36.3702H85.5V35.3002ZM86.09 32.2002H92.07V33.2602H86.09V32.2002ZM87.31 39.3302C87.56 40.1702 87.86 40.8602 88.23 41.3902C88.6 41.9202 89.05 42.3302 89.58 42.6102C90.11 42.8902 90.74 43.1002 91.45 43.2002C92.16 43.3102 92.99 43.3602 93.91 43.3602H97.03C97.5 43.3602 97.95 43.3602 98.4 43.3602C98.84 43.3602 99.23 43.3602 99.57 43.3602C99.91 43.3602 100.15 43.3602 100.31 43.3402C100.25 43.4302 100.18 43.5402 100.12 43.6802C100.06 43.8202 100 43.9702 99.94 44.1202C99.89 44.2702 99.84 44.4002 99.81 44.5202H93.91C92.83 44.5202 91.89 44.4502 91.08 44.3202C90.27 44.1902 89.57 43.9502 88.98 43.6002C88.39 43.2502 87.89 42.7602 87.48 42.1202C87.07 41.4802 86.72 40.6602 86.43 39.6602L87.31 39.3402V39.3302ZM88.56 30.2102H89.66V35.9102H88.56V30.2102ZM88.81 35.9902H89.9V43.2202H88.81V35.9902ZM89.24 38.5802H92.15V39.6502H89.24V38.5802ZM92.6 41.4002C92.58 41.2902 92.54 41.1802 92.48 41.0502C92.42 40.9202 92.36 40.7902 92.29 40.6602C92.22 40.5302 92.15 40.4202 92.09 40.3302C92.23 40.2602 92.38 40.1302 92.55 39.9502C92.72 39.7702 92.81 39.5202 92.81 39.2102V33.4702H93.9V40.2902C93.63 40.4502 93.41 40.5902 93.24 40.7002C93.07 40.8102 92.92 40.9302 92.79 41.0602C92.66 41.1902 92.6 41.3102 92.6 41.4102V41.4002ZM92.6 41.4002L92.44 40.3802L92.81 39.9302L95.71 38.3302C95.74 38.4802 95.78 38.6502 95.84 38.8302C95.89 39.0202 95.95 39.1602 96 39.2502C95.32 39.6502 94.76 39.9702 94.34 40.2202C93.92 40.4702 93.59 40.6702 93.36 40.8202C93.13 40.9702 92.96 41.0802 92.85 41.1602C92.74 41.2402 92.66 41.3202 92.6 41.3902V41.4002ZM92.81 33.0002H100.15V34.0202H92.81V33.0002ZM98.88 35.0402L99.82 35.2802C99.5 36.4102 99.08 37.4702 98.57 38.4502C98.06 39.4302 97.46 40.3102 96.79 41.0702C96.11 41.8402 95.36 42.4702 94.54 42.9702C94.45 42.8302 94.34 42.6802 94.2 42.5102C94.06 42.3402 93.92 42.2102 93.81 42.1102C94.6 41.6802 95.32 41.1102 95.98 40.4002C96.64 39.6902 97.21 38.8702 97.71 37.9402C98.21 37.0102 98.6 36.0502 98.89 35.0402H98.88ZM95.84 30.2102H96.94C96.94 31.4902 96.97 32.7002 97.03 33.8302C97.09 34.9702 97.18 36.0002 97.3 36.9302C97.42 37.8602 97.57 38.6702 97.73 39.3502C97.9 40.0302 98.08 40.5502 98.27 40.9202C98.47 41.2902 98.68 41.4702 98.9 41.4702C99.04 41.4702 99.14 41.2802 99.21 40.9002C99.28 40.5202 99.32 39.9302 99.35 39.1302C99.47 39.2502 99.61 39.3602 99.77 39.4602C99.93 39.5602 100.07 39.6402 100.2 39.6902C100.15 40.4202 100.07 40.9902 99.96 41.4002C99.85 41.8102 99.71 42.1102 99.52 42.2802C99.33 42.4502 99.09 42.5402 98.78 42.5402C98.36 42.5402 98 42.3302 97.68 41.9102C97.37 41.4902 97.09 40.9002 96.86 40.1302C96.63 39.3702 96.44 38.4702 96.3 37.4402C96.16 36.4102 96.05 35.2802 95.97 34.0602C95.9 32.8302 95.85 31.5502 95.83 30.2002L95.84 30.2102ZM97.42 30.8002L98.25 30.3702C98.53 30.6602 98.82 30.9802 99.12 31.3502C99.42 31.7202 99.66 32.0202 99.83 32.2602L98.97 32.7902C98.8 32.5202 98.56 32.2002 98.27 31.8202C97.98 31.4402 97.69 31.1002 97.42 30.8002Z" fill="#333333"/>
<path d="M101.35 41.2202C101.76 41.0802 102.22 40.9201 102.74 40.7301C103.26 40.5401 103.82 40.3401 104.41 40.1201C105 39.9001 105.59 39.6802 106.18 39.4602L106.37 40.5302C105.57 40.8702 104.77 41.2002 103.96 41.5302C103.15 41.8602 102.43 42.1502 101.78 42.4202L101.35 41.2202ZM101.61 34.0702H106.03V35.2102H101.61V34.0702ZM103.37 30.4001H104.47V40.7802H103.37V30.4001ZM106.17 38.0702H116.15V39.2202H106.17V38.0702ZM106.65 31.0302H115.72V32.1702H106.65V31.0302ZM107.26 33.3302L108.22 33.0702C108.39 33.4902 108.54 33.9302 108.66 34.4102C108.78 34.8802 108.89 35.3502 108.99 35.8002C109.09 36.2502 109.16 36.6602 109.2 37.0202L108.16 37.2901C108.14 36.9301 108.08 36.5202 107.99 36.0602C107.9 35.6002 107.79 35.1402 107.66 34.6602C107.53 34.1902 107.4 33.7402 107.26 33.3202V33.3302ZM110.56 31.3002H111.76V44.9202H110.56V31.3002ZM114.08 33.0002L115.23 33.2601C115.1 33.7201 114.96 34.1901 114.81 34.6801C114.66 35.1701 114.5 35.6402 114.35 36.1002C114.2 36.5602 114.04 36.9602 113.89 37.3002L112.98 37.0401C113.12 36.6801 113.26 36.2602 113.4 35.7802C113.54 35.3002 113.67 34.8202 113.79 34.3202C113.91 33.8202 114.01 33.3801 114.09 32.9801L114.08 33.0002Z" fill="#333333"/>
<path d="M123.34 39.3802H124.33V39.7302C124.33 40.0602 124.29 40.4102 124.22 40.7802C124.15 41.1502 123.99 41.5202 123.76 41.9002C123.53 42.2802 123.17 42.6502 122.7 43.0202C122.23 43.3902 121.61 43.7302 120.83 44.0602C120.05 44.3902 119.08 44.6702 117.9 44.9202C117.86 44.8102 117.79 44.6802 117.68 44.5202C117.57 44.3602 117.48 44.2302 117.38 44.1202C118.49 43.9102 119.41 43.6502 120.13 43.3602C120.85 43.0702 121.43 42.7602 121.87 42.4502C122.31 42.1402 122.62 41.8202 122.84 41.4902C123.05 41.1602 123.19 40.8502 123.25 40.5502C123.31 40.2502 123.34 39.9702 123.34 39.7102V39.3902V39.3802ZM117.4 32.9202H118.9V32.9702H124.39V32.9202H126.01V33.8302H124.39V33.7802H118.9V33.8302H117.4V32.9202ZM117.5 39.9902H125.8V40.8702H117.5V39.9902ZM118.22 36.3102H125.36V38.9302H118.22V36.3102ZM118.59 31.2502H125.02V35.6502H118.59V31.2502ZM118.6 42.3202C118.89 41.8802 119.19 41.3702 119.5 40.7702C119.81 40.1702 120.05 39.6102 120.24 39.0702L121.26 39.2302C121.11 39.5902 120.94 39.9802 120.76 40.3802C120.58 40.7802 120.38 41.1702 120.19 41.5302C120 41.8902 119.81 42.2202 119.63 42.5102L118.61 42.3202H118.6ZM118.6 42.3202L119.43 41.6202C120.06 41.7802 120.72 41.9802 121.41 42.2202C122.1 42.4602 122.76 42.7102 123.39 42.9602C124.02 43.2202 124.56 43.4702 125.01 43.7102L124.18 44.4802C123.75 44.2202 123.23 43.9602 122.6 43.7002C121.97 43.4402 121.32 43.1802 120.62 42.9302C119.92 42.6802 119.25 42.4802 118.6 42.3202ZM119.26 37.0902V38.1602H124.28V37.0902H119.26ZM119.55 32.0802V34.8002H124.05V32.0802H119.55ZM121.24 30.2102H122.22V39.5902H121.24V30.2102ZM129.9 34.0402L130.97 34.1402C130.77 35.9502 130.45 37.5502 130.01 38.9202C129.57 40.2902 128.97 41.4702 128.19 42.4602C127.41 43.4502 126.39 44.2802 125.12 44.9602C125.09 44.8902 125.03 44.7902 124.96 44.6702C124.88 44.5502 124.8 44.4402 124.72 44.3302C124.64 44.2202 124.55 44.1202 124.48 44.0502C125.69 43.4602 126.66 42.7102 127.39 41.8002C128.13 40.8902 128.69 39.7902 129.08 38.5002C129.47 37.2102 129.74 35.7302 129.9 34.0402ZM127.48 30.2102L128.54 30.4002C128.35 31.3702 128.12 32.3302 127.87 33.2602C127.62 34.1902 127.33 35.0802 127.01 35.9102C126.7 36.7402 126.35 37.4702 125.98 38.1102C125.92 38.0502 125.83 37.9702 125.73 37.8802C125.63 37.7902 125.52 37.7002 125.42 37.6102C125.32 37.5202 125.22 37.4502 125.13 37.3902C125.5 36.8002 125.84 36.1202 126.14 35.3502C126.44 34.5802 126.7 33.7502 126.92 32.8702C127.14 31.9902 127.33 31.1002 127.48 30.2102ZM127.5 34.5802C127.7 36.0002 128 37.3302 128.4 38.5702C128.8 39.8102 129.32 40.9002 129.97 41.8302C130.62 42.7602 131.41 43.4802 132.36 43.9802C132.27 44.0402 132.18 44.1302 132.07 44.2402C131.96 44.3502 131.87 44.4602 131.78 44.5802C131.69 44.6902 131.62 44.8002 131.56 44.9102C130.59 44.3202 129.78 43.5302 129.13 42.5302C128.48 41.5302 127.95 40.3602 127.55 39.0302C127.15 37.7002 126.84 36.2602 126.61 34.7002L127.49 34.5702L127.5 34.5802ZM127 33.3802H132.14V34.4502H127V33.3802Z" fill="#333333"/>
<path d="M135.48 40.6402L135.13 39.7902C135.78 39.5102 136.28 39.1702 136.63 38.7602C136.98 38.3502 137.15 37.8402 137.15 37.2302L136.86 35.8902L137.72 37.1102C137.6 37.2502 137.47 37.3402 137.32 37.3902C137.17 37.4402 137.02 37.4602 136.87 37.4602C136.54 37.4602 136.26 37.3602 136.02 37.1702C135.78 36.9802 135.67 36.7002 135.67 36.3202C135.67 35.9402 135.79 35.6502 136.03 35.4602C136.27 35.2702 136.56 35.1702 136.89 35.1702C137.34 35.1702 137.68 35.3402 137.91 35.6702C138.14 36.0102 138.25 36.4502 138.25 37.0102C138.25 37.8702 138 38.6202 137.5 39.2502C137 39.8802 136.33 40.3402 135.48 40.6402Z" fill="#333333"/>
<path d="M145.8 30.4502L146.97 30.8502C146.56 31.7802 146.09 32.6902 145.55 33.5902C145.01 34.4902 144.42 35.3302 143.8 36.1102C143.18 36.8902 142.53 37.5802 141.86 38.1802C141.83 38.0702 141.77 37.9502 141.68 37.8002C141.59 37.6502 141.5 37.5002 141.4 37.3402C141.3 37.1802 141.22 37.0602 141.14 36.9602C141.76 36.4502 142.36 35.8502 142.94 35.1602C143.52 34.4702 144.06 33.7302 144.55 32.9202C145.04 32.1102 145.46 31.2902 145.81 30.4502H145.8ZM143.96 34.6402L145.14 33.4602L145.16 33.4902V44.9002H143.96V34.6402ZM148.57 30.6002H149.79V42.4902C149.79 42.7902 149.82 43.0202 149.87 43.1702C149.92 43.3302 150.03 43.4302 150.18 43.4902C150.33 43.5502 150.56 43.5802 150.86 43.5802H154C154.3 43.5802 154.52 43.5002 154.66 43.3302C154.8 43.1602 154.91 42.8702 154.98 42.4402C155.05 42.0102 155.1 41.4202 155.13 40.6502C155.28 40.7602 155.46 40.8602 155.68 40.9602C155.9 41.0602 156.09 41.1302 156.26 41.1602C156.21 42.0402 156.11 42.7302 155.98 43.2502C155.85 43.7702 155.63 44.1402 155.34 44.3602C155.05 44.5802 154.62 44.7002 154.05 44.7002H150.75C150.2 44.7002 149.76 44.6402 149.44 44.5102C149.12 44.3802 148.89 44.1602 148.76 43.8302C148.63 43.5002 148.56 43.0502 148.56 42.4602V30.6002H148.57ZM154.59 33.2502L155.45 34.2702C154.92 34.7202 154.31 35.1602 153.64 35.5902C152.97 36.0202 152.27 36.4402 151.54 36.8502C150.81 37.2602 150.09 37.6402 149.39 38.0002C149.35 37.8602 149.28 37.7002 149.17 37.5302C149.06 37.3602 148.98 37.2002 148.89 37.0602C149.57 36.7002 150.27 36.3002 150.97 35.8802C151.67 35.4502 152.34 35.0102 152.97 34.5602C153.6 34.1102 154.14 33.6702 154.59 33.2602V33.2502Z" fill="#333333"/>
<path d="M161.35 30.28L162.5 30.63C162.16 31.53 161.75 32.42 161.28 33.31C160.81 34.2 160.3 35.03 159.76 35.81C159.22 36.59 158.65 37.27 158.06 37.88C158.02 37.78 157.95 37.66 157.87 37.5C157.79 37.35 157.7 37.19 157.61 37.03C157.52 36.87 157.44 36.75 157.36 36.66C157.89 36.14 158.4 35.54 158.9 34.85C159.39 34.17 159.85 33.43 160.27 32.65C160.69 31.87 161.05 31.07 161.35 30.27V30.28ZM159.66 34.39L160.84 33.19L160.86 33.22V44.9H159.66V34.39ZM165.21 30.4L166.36 30.7C166.06 31.54 165.71 32.37 165.31 33.19C164.91 34.01 164.48 34.77 164.02 35.49C163.56 36.2 163.09 36.84 162.6 37.39C162.54 37.33 162.45 37.24 162.34 37.13C162.23 37.02 162.11 36.92 161.99 36.81C161.87 36.7 161.76 36.62 161.68 36.57C162.16 36.07 162.62 35.49 163.06 34.83C163.5 34.17 163.9 33.46 164.27 32.7C164.64 31.94 164.96 31.17 165.22 30.4H165.21ZM164.59 32.88H172.19V34.03H164.03L164.59 32.88ZM166 33.27H167.22V44.92H166V33.27ZM166.59 36.36H171.82V37.46H166.59V36.36ZM166.59 39.89H172.03V41.03H166.59V39.89Z" fill="#333333"/>
<path d="M174.06 33.3002L174.89 33.4102C174.89 33.8902 174.86 34.4002 174.79 34.9402C174.73 35.4802 174.63 36.0002 174.51 36.4902C174.39 36.9902 174.22 37.4202 174.02 37.7902L173.22 37.4102C173.4 37.0902 173.55 36.7002 173.68 36.2302C173.8 35.7602 173.89 35.2702 173.95 34.7602C174.01 34.2502 174.04 33.7602 174.05 33.3002H174.06ZM175.5 30.2102H176.65V44.9102H175.5V30.2102ZM176.76 33.1102L177.51 32.8202C177.67 33.1502 177.82 33.5002 177.97 33.8802C178.11 34.2502 178.24 34.6102 178.35 34.9602C178.46 35.3102 178.53 35.6102 178.57 35.8602L177.77 36.2302C177.73 35.9602 177.65 35.6502 177.55 35.2902C177.44 34.9302 177.32 34.5602 177.19 34.1802C177.06 33.8002 176.92 33.4502 176.77 33.1202L176.76 33.1102ZM177.66 43.2802H188.16V44.4002H177.66V43.2802ZM178.2 31.1902H187.93V32.3102H178.2V31.1902ZM180.84 31.9402L182.02 32.0502C181.89 32.8202 181.74 33.6302 181.58 34.5002C181.41 35.3602 181.24 36.2302 181.07 37.1102C180.89 37.9902 180.72 38.8102 180.56 39.6002C180.39 40.3802 180.24 41.0702 180.09 41.6702L178.89 41.5702C179.05 40.9602 179.22 40.2602 179.39 39.4702C179.57 38.6802 179.74 37.8502 179.92 36.9702C180.1 36.0902 180.26 35.2202 180.42 34.3502C180.58 33.4802 180.72 32.6802 180.84 31.9402ZM180 39.6402L180.62 38.9402C181.03 39.1302 181.45 39.3502 181.89 39.6002C182.33 39.8502 182.75 40.1002 183.15 40.3602C183.55 40.6202 183.86 40.8502 184.11 41.0602L183.45 41.8802C183.2 41.6702 182.89 41.4302 182.5 41.1602C182.11 40.8902 181.7 40.6202 181.26 40.3502C180.82 40.0802 180.4 39.8402 180 39.6402ZM180.6 37.0402L181.18 36.2702C181.57 36.4302 181.99 36.6202 182.44 36.8502C182.88 37.0702 183.3 37.3002 183.7 37.5302C184.09 37.7602 184.41 37.9802 184.66 38.1802L184.05 39.0302C183.8 38.8302 183.49 38.6102 183.1 38.3702C182.71 38.1302 182.3 37.8902 181.87 37.6602C181.44 37.4302 181.02 37.2202 180.61 37.0502L180.6 37.0402ZM180.91 34.4502H186.01V35.5402H180.75L180.91 34.4502ZM185.47 34.4502H186.69C186.62 35.2002 186.53 35.9902 186.43 36.8302C186.33 37.6702 186.22 38.5202 186.11 39.3602C186 40.2002 185.89 41.0002 185.77 41.7502C185.66 42.5002 185.55 43.1702 185.46 43.7402H184.2C184.32 43.1502 184.44 42.4802 184.56 41.7202C184.68 40.9602 184.8 40.1502 184.91 39.3002C185.02 38.4502 185.13 37.6102 185.23 36.7802C185.33 35.9502 185.41 35.1702 185.48 34.4402L185.47 34.4502Z" fill="#333333"/>
<path d="M194.17 30.2102L195.45 30.5102C195.09 31.6302 194.65 32.7002 194.13 33.7202C193.61 34.7402 193.04 35.6702 192.42 36.5302C191.8 37.3902 191.12 38.1302 190.4 38.7702C190.34 38.6902 190.24 38.5902 190.1 38.4802C189.97 38.3702 189.83 38.2602 189.69 38.1502C189.55 38.0402 189.43 37.9502 189.32 37.8902C190.04 37.3102 190.71 36.6302 191.33 35.8302C191.95 35.0302 192.49 34.1502 192.96 33.2002C193.43 32.2502 193.84 31.2502 194.17 30.2202V30.2102ZM198.41 32.8002H198.65L198.89 32.7402L199.74 33.1402C199.25 35.1602 198.54 36.9302 197.61 38.4802C196.68 40.0202 195.6 41.3302 194.37 42.4102C193.14 43.4902 191.83 44.3502 190.44 44.9902C190.38 44.8802 190.29 44.7602 190.18 44.6302C190.07 44.5002 189.96 44.3602 189.84 44.2302C189.72 44.1002 189.6 44.0002 189.5 43.9302C190.89 43.3402 192.17 42.5502 193.36 41.5602C194.55 40.5702 195.58 39.3702 196.46 37.9502C197.33 36.5402 197.99 34.9102 198.41 33.0802V32.8102V32.8002ZM193.68 32.8002H198.85V34.0202H193.11L193.69 32.8002H193.68ZM198.14 36.9202C198.5 37.9302 198.98 38.8902 199.58 39.8002C200.18 40.7102 200.87 41.5102 201.67 42.2102C202.46 42.9102 203.33 43.4602 204.27 43.8502C204.17 43.9302 204.07 44.0402 203.96 44.1702C203.85 44.3002 203.74 44.4302 203.65 44.5502C203.55 44.6802 203.47 44.8002 203.39 44.9202C202.42 44.4502 201.53 43.8402 200.72 43.0702C199.91 42.3002 199.19 41.4302 198.57 40.4502C197.95 39.4702 197.43 38.4102 197.03 37.2702L198.15 36.9202H198.14Z" fill="#333333"/>
<path d="M209 30.1301L210.01 30.5101C209.7 31.0801 209.32 31.6301 208.88 32.1701C208.44 32.7101 207.96 33.2201 207.46 33.6801C206.96 34.1401 206.44 34.5501 205.93 34.9001C205.9 34.8201 205.85 34.7001 205.78 34.5601C205.71 34.4201 205.64 34.2801 205.56 34.1401C205.48 34.0001 205.4 33.8801 205.33 33.7901C206.04 33.3601 206.74 32.8301 207.4 32.1801C208.07 31.5401 208.6 30.8401 209.01 30.1101L209 30.1301ZM205.98 36.8001H212.46V37.8201H205.98V36.8001ZM206.41 39.4901H212.12V44.4001H210.98V40.5101H207.51V44.7001H206.41V39.4801V39.4901ZM206.91 42.9001H211.34V43.9101H206.91V42.9001ZM206.99 34.2101H211.42V35.2201H206.99V34.2101ZM208.7 34.5801H209.84V39.9601H208.7V34.5801ZM208.83 31.6501L209.47 30.8301C209.89 31.1101 210.31 31.4101 210.73 31.7501C211.16 32.0901 211.56 32.4201 211.93 32.7401C212.3 33.0701 212.61 33.3601 212.84 33.6301L212.14 34.5701C211.92 34.2901 211.62 33.9801 211.25 33.6301C210.88 33.2801 210.49 32.9301 210.07 32.5701C209.65 32.2101 209.24 31.9001 208.83 31.6301V31.6501ZM212.72 35.9901H219.28V37.0901H212.72V35.9901ZM213.24 30.9301H218.58V32.0001H213.24V30.9301ZM213.58 33.4901L214.38 32.8201C214.81 33.0701 215.24 33.3501 215.69 33.6701C216.14 33.9901 216.56 34.3201 216.95 34.6501C217.34 34.9801 217.66 35.2901 217.89 35.5801L217.01 36.3201C216.8 36.0301 216.5 35.7201 216.12 35.3801C215.74 35.0401 215.33 34.7001 214.89 34.3701C214.45 34.0401 214.01 33.7501 213.57 33.5101L213.58 33.4901ZM215.66 36.6401H216.8V43.6001C216.8 43.9201 216.76 44.1701 216.69 44.3401C216.62 44.5201 216.47 44.6501 216.26 44.7301C216.05 44.8301 215.77 44.8801 215.42 44.9101C215.07 44.9401 214.64 44.9401 214.12 44.9401C214.1 44.7901 214.05 44.6101 213.98 44.3901C213.91 44.1701 213.84 43.9801 213.78 43.8201C214.14 43.8301 214.48 43.8401 214.78 43.8401H215.38C215.5 43.8301 215.57 43.8101 215.61 43.7801C215.65 43.7501 215.67 43.6901 215.67 43.6001V36.6401H215.66ZM218.31 30.9301H218.58L218.82 30.8701L219.57 31.3801C219.31 31.7901 219.01 32.2001 218.66 32.6201C218.31 33.0401 217.94 33.4401 217.56 33.8001C217.18 34.1701 216.79 34.4901 216.41 34.7701C216.32 34.6701 216.21 34.5601 216.08 34.4301C215.95 34.3001 215.83 34.1901 215.74 34.1001C216.06 33.8501 216.38 33.5601 216.72 33.2201C217.05 32.8801 217.35 32.5301 217.63 32.1601C217.91 31.8001 218.14 31.4601 218.32 31.1501V30.9301H218.31ZM218.94 35.9901H219.12L219.31 35.9601L220.13 36.1701C219.93 36.7501 219.71 37.3401 219.47 37.9401C219.23 38.5401 219.01 39.0501 218.8 39.4701L217.81 39.2101C217.94 38.9501 218.07 38.6601 218.21 38.3201C218.35 37.9801 218.48 37.6301 218.61 37.2601C218.74 36.8901 218.85 36.5301 218.95 36.1901V36.0001L218.94 35.9901Z" fill="#333333"/>
<path d="M224.62 37.8901H224.91L225.12 37.8701L225.71 38.0901C225.44 39.7901 224.99 41.2001 224.35 42.3401C223.71 43.4801 222.94 44.3501 222.05 44.9601C222 44.8801 221.92 44.7801 221.83 44.6701C221.73 44.5601 221.63 44.4601 221.53 44.3601C221.43 44.2601 221.34 44.1901 221.25 44.1401C222.1 43.6001 222.82 42.8201 223.41 41.8001C224 40.7901 224.4 39.5501 224.63 38.0901V37.8801L224.62 37.8901ZM221.77 39.1101C221.75 39.0101 221.71 38.9001 221.65 38.7601C221.59 38.6201 221.53 38.4801 221.48 38.3401C221.43 38.2001 221.37 38.0901 221.32 38.0201C221.45 37.9901 221.58 37.9401 221.7 37.8701C221.82 37.8001 221.96 37.6901 222.1 37.5301C222.23 37.4101 222.41 37.2101 222.64 36.9101C222.87 36.6201 223.12 36.2901 223.39 35.9201C223.66 35.5501 223.91 35.2001 224.15 34.8601C224.39 34.5201 224.58 34.2401 224.72 34.0301V34.0001L225.09 33.8401L225.87 34.2101C225.68 34.4901 225.45 34.8101 225.18 35.1801C224.91 35.5501 224.63 35.9301 224.33 36.3201C224.03 36.7101 223.74 37.0801 223.45 37.4501C223.16 37.8101 222.9 38.1201 222.67 38.3801C222.49 38.4801 222.34 38.5601 222.21 38.6401C222.09 38.7201 221.98 38.8001 221.89 38.8801C221.8 38.9601 221.75 39.0401 221.75 39.1301L221.77 39.1101ZM221.55 33.9101H225.05V34.9201H221.55V33.9101ZM221.77 39.1101V38.1801L222.35 37.8901H225.02V38.8701H222.73C222.53 38.8701 222.33 38.8901 222.15 38.9401C221.97 38.9901 221.84 39.0401 221.77 39.1101ZM222.12 30.7701L223.03 30.2301C223.28 30.4901 223.53 30.7601 223.79 31.0601C224.05 31.3601 224.3 31.6501 224.53 31.9301C224.76 32.2101 224.94 32.4601 225.08 32.6701L224.17 33.3301C224.02 33.1101 223.83 32.8401 223.6 32.5501C223.37 32.2501 223.13 31.9401 222.87 31.6301C222.61 31.3201 222.36 31.0301 222.12 30.7701ZM224.41 41.2401C224.74 41.9401 225.19 42.4701 225.76 42.8101C226.33 43.1501 227.02 43.3701 227.84 43.4701C228.66 43.5701 229.59 43.6301 230.65 43.6401C231.21 43.6401 231.83 43.6301 232.51 43.6101C233.19 43.5901 233.85 43.5601 234.52 43.5301C235.19 43.5001 235.79 43.4601 236.32 43.4201C236.27 43.5101 236.21 43.6201 236.16 43.7601C236.11 43.9001 236.06 44.0401 236.02 44.1801C235.98 44.3201 235.95 44.4601 235.92 44.5701C235.43 44.5901 234.88 44.6101 234.29 44.6401C233.69 44.6701 233.08 44.6801 232.47 44.6901C231.85 44.6901 231.25 44.6901 230.66 44.6901C229.72 44.6901 228.88 44.6501 228.14 44.5801C227.4 44.5101 226.75 44.3601 226.18 44.1501C225.61 43.9401 225.12 43.6301 224.69 43.2201C224.26 42.8101 223.9 42.2801 223.6 41.6201L224.42 41.2401H224.41ZM225.82 31.5601H235.96V32.5401H225.82V31.5601ZM226.65 34.1601H234.86V35.1401H227.74V42.5601H226.65V34.1601ZM228 32.6801L228.99 32.4201C229.15 32.6701 229.3 32.9401 229.44 33.2401C229.58 33.5401 229.67 33.8001 229.71 34.0201L228.67 34.3201C228.63 34.0901 228.54 33.8101 228.41 33.5001C228.28 33.1901 228.14 32.9101 227.99 32.6701L228 32.6801ZM228.16 36.2301H233.9V37.0501H228.16V36.2301ZM228.89 38.2001H229.77V41.5601H228.89V38.2001ZM229.37 38.2001H233.21V40.9401H229.37V40.1701H232.3V38.9701H229.37V38.2001ZM229.56 30.5001L230.5 30.1201C230.75 30.3901 230.97 30.6901 231.18 31.0301C231.39 31.3701 231.55 31.6801 231.65 31.9401L230.63 32.3901C230.55 32.1301 230.4 31.8301 230.19 31.4701C229.98 31.1101 229.77 30.7901 229.56 30.5001ZM230.57 35.0601H231.48V38.4401H230.57V35.0601ZM232.7 32.3401L233.84 32.6301C233.66 32.9701 233.48 33.3101 233.3 33.6501C233.12 33.9901 232.94 34.2801 232.77 34.5301L231.79 34.2401C231.96 33.9701 232.13 33.6601 232.3 33.2901C232.47 32.9201 232.6 32.6101 232.7 32.3401ZM234.3 34.1601H235.4V41.2301C235.4 41.5201 235.36 41.7401 235.3 41.9101C235.23 42.0801 235.09 42.2001 234.89 42.2901C234.68 42.3801 234.4 42.4301 234.07 42.4501C233.73 42.4701 233.33 42.4801 232.86 42.4801C232.84 42.3301 232.79 42.1601 232.72 41.9601C232.65 41.7601 232.57 41.5901 232.5 41.4601C232.86 41.4701 233.18 41.4801 233.47 41.4801C233.75 41.4801 233.95 41.4801 234.05 41.4801C234.15 41.4801 234.21 41.4601 234.25 41.4201C234.29 41.3801 234.31 41.3201 234.31 41.2201V34.1601H234.3Z" fill="#333333"/>
<path d="M238.19 32.7901H239.29V44.5201H238.19V32.7901ZM238.81 37.2401H243.23V38.3001H238.81V37.2401ZM238.89 32.7901H243.75V43.2501H238.89V42.1601H242.65V33.8601H238.89V32.7901ZM240.64 30.1801L241.94 30.4001C241.78 30.9001 241.61 31.4101 241.42 31.9201C241.23 32.4301 241.06 32.8701 240.9 33.2301L239.92 32.9901C240.02 32.7201 240.11 32.4201 240.2 32.0901C240.29 31.7601 240.38 31.4201 240.46 31.0801C240.54 30.7401 240.6 30.4301 240.64 30.1701V30.1801ZM246.36 30.1501L247.51 30.4101C247.32 31.2101 247.09 31.9901 246.81 32.7501C246.54 33.5101 246.24 34.2301 245.91 34.9001C245.58 35.5701 245.24 36.1601 244.88 36.6801C244.81 36.6201 244.71 36.5401 244.58 36.4501C244.46 36.3601 244.33 36.2701 244.2 36.1901C244.07 36.1101 243.96 36.0401 243.86 35.9901C244.23 35.5101 244.57 34.9601 244.88 34.3301C245.19 33.7101 245.47 33.0401 245.71 32.3201C245.96 31.6101 246.16 30.8801 246.33 30.1401L246.36 30.1501ZM245.63 36.8801L246.57 36.3501C246.87 36.7201 247.18 37.1301 247.51 37.5801C247.84 38.0301 248.14 38.4601 248.42 38.8801C248.7 39.3001 248.93 39.6601 249.1 39.9801L248.08 40.6201C247.92 40.2901 247.7 39.9101 247.43 39.4801C247.16 39.0501 246.86 38.6001 246.55 38.1501C246.24 37.7001 245.93 37.2701 245.63 36.8801ZM246.04 32.7401H250.95V33.8401H246.04V32.7401ZM250.52 32.7401H251.66V33.1201C251.66 33.2201 251.66 33.3001 251.64 33.3501C251.58 35.1801 251.52 36.7401 251.46 38.0101C251.4 39.2801 251.33 40.3201 251.24 41.1201C251.15 41.9301 251.06 42.5501 250.94 43.0001C250.83 43.4501 250.69 43.7701 250.53 43.9601C250.35 44.1901 250.16 44.3601 249.96 44.4501C249.76 44.5401 249.52 44.6001 249.23 44.6301C248.96 44.6501 248.61 44.6601 248.18 44.6501C247.75 44.6501 247.3 44.6301 246.84 44.5901C246.83 44.4201 246.79 44.2201 246.72 44.0001C246.65 43.7801 246.56 43.5901 246.44 43.4401C246.97 43.4801 247.46 43.5101 247.89 43.5201C248.32 43.5301 248.63 43.5401 248.83 43.5401C248.99 43.5401 249.12 43.5201 249.22 43.4801C249.32 43.4401 249.42 43.3701 249.52 43.2601C249.65 43.1201 249.76 42.8401 249.86 42.4001C249.96 41.9701 250.05 41.3501 250.12 40.5501C250.2 39.7501 250.26 38.7301 250.33 37.4901C250.39 36.2501 250.45 34.7501 250.51 32.9901V32.7301L250.52 32.7401Z" fill="#333333"/>
<path d="M256.62 30.4702L257.84 30.7402C257.62 31.5602 257.34 32.3602 257.02 33.1502C256.7 33.9302 256.35 34.6602 255.96 35.3402C255.58 36.0202 255.17 36.6102 254.73 37.1202C254.66 37.0502 254.55 36.9702 254.42 36.8802C254.29 36.7902 254.15 36.7102 254.02 36.6202C253.89 36.5302 253.77 36.4602 253.66 36.4002C254.1 35.9302 254.5 35.3802 254.87 34.7402C255.24 34.1102 255.57 33.4302 255.87 32.7002C256.17 31.9802 256.42 31.2302 256.62 30.4602V30.4702ZM253.68 43.2502H267.98V44.4202H253.68V43.2502ZM255.44 38.0202H266.64V39.1702H255.44V38.0202ZM256.14 33.3202H267.21V34.4902H256.14V33.3202ZM260.2 30.2102H261.45V43.8302H260.2V30.2102Z" fill="#333333"/>
<path d="M269.47 35.67L270.13 34.79C270.45 34.94 270.8 35.12 271.17 35.32C271.54 35.52 271.9 35.72 272.25 35.91C272.6 36.1 272.88 36.27 273.11 36.42L272.44 37.41C272.23 37.26 271.95 37.08 271.61 36.88C271.27 36.68 270.91 36.47 270.54 36.25C270.17 36.03 269.82 35.84 269.48 35.67H269.47ZM269.84 43.91C270.13 43.5 270.45 43.02 270.81 42.45C271.17 41.88 271.53 41.27 271.89 40.63C272.25 39.99 272.59 39.36 272.9 38.77L273.78 39.55C273.5 40.12 273.2 40.7 272.86 41.31C272.52 41.92 272.19 42.52 271.84 43.1C271.5 43.69 271.17 44.23 270.86 44.73L269.84 43.91ZM270.25 31.27L270.92 30.42C271.25 30.57 271.61 30.75 271.98 30.95C272.36 31.15 272.72 31.35 273.08 31.55C273.43 31.75 273.72 31.92 273.94 32.07L273.24 33.06C273.02 32.89 272.73 32.7 272.38 32.49C272.03 32.28 271.67 32.07 271.3 31.85C270.93 31.63 270.57 31.44 270.24 31.27H270.25ZM273.92 34.9H284.11V36.05H273.92V34.9ZM282.46 30.28L283.42 31.21C282.68 31.47 281.84 31.69 280.9 31.88C279.96 32.07 278.98 32.24 277.96 32.38C276.94 32.52 275.96 32.64 275.02 32.73C274.99 32.59 274.94 32.42 274.87 32.22C274.8 32.02 274.73 31.85 274.67 31.71C275.35 31.64 276.06 31.55 276.8 31.45C277.54 31.35 278.25 31.24 278.94 31.12C279.63 31 280.28 30.87 280.88 30.73C281.48 30.59 282.01 30.44 282.46 30.28ZM275.07 38.71H283.05V44.84H281.9V39.82H276.19V44.92H275.07V38.71ZM275.84 43.14H282.43V44.23H275.84V43.14ZM278.54 31.65H279.68V39.35H278.54V31.65Z" fill="#333333"/>
<path d="M285.55 41.9902H299.98V42.9802H285.55V41.9902ZM285.58 34.1502H300.01V35.1302H285.58V34.1502ZM286.64 31.5102H299.01V32.5002H286.64V31.5102ZM287.42 35.9902H298.19V40.8502H287.42V35.9902ZM288.59 36.8502V37.9902H296.97V36.8502H288.59ZM288.59 38.8202V39.9702H296.97V38.8202H288.59ZM289.02 32.8202L290.16 32.5502C290.35 32.8202 290.53 33.1202 290.7 33.4502C290.87 33.7802 290.99 34.0702 291.08 34.3102L289.9 34.6502C289.83 34.3902 289.71 34.1002 289.54 33.7502C289.37 33.4102 289.21 33.1002 289.04 32.8202H289.02ZM291.72 30.2602L292.89 29.9902C293.08 30.2702 293.26 30.5802 293.43 30.9202C293.6 31.2602 293.73 31.5602 293.81 31.8202L292.61 32.1602C292.52 31.9002 292.4 31.6002 292.23 31.2402C292.06 30.8802 291.89 30.5602 291.72 30.2702V30.2602ZM292.14 40.4802H293.39V44.9102H292.14V40.4802ZM295.4 32.5002L296.65 32.7902C296.47 33.1302 296.28 33.4702 296.07 33.8102C295.87 34.1502 295.68 34.4402 295.51 34.6802L294.39 34.4102C294.51 34.2402 294.63 34.0402 294.75 33.8102C294.87 33.5802 295 33.3502 295.12 33.1202C295.24 32.8902 295.34 32.6902 295.4 32.5002Z" fill="#333333"/>
<path d="M301.47 35.6002L302.13 34.7002C302.46 34.8402 302.82 35.0002 303.19 35.1902C303.57 35.3802 303.93 35.5702 304.27 35.7702C304.61 35.9702 304.89 36.1602 305.1 36.3402L304.43 37.3302C304.22 37.1502 303.94 36.9502 303.61 36.7502C303.28 36.5402 302.93 36.3402 302.55 36.1302C302.18 35.9302 301.81 35.7502 301.46 35.6002H301.47ZM302.01 43.9102C302.3 43.5002 302.62 43.0202 302.97 42.4502C303.32 41.8802 303.68 41.2702 304.04 40.6302C304.4 39.9802 304.74 39.3602 305.05 38.7702L305.93 39.5502C305.65 40.1202 305.35 40.7002 305.01 41.3102C304.67 41.9202 304.34 42.5202 304 43.1002C303.66 43.6902 303.34 44.2302 303.02 44.7302L302.01 43.9102ZM302.31 31.2502L302.98 30.3902C303.33 30.5302 303.7 30.6902 304.08 30.8902C304.46 31.0802 304.83 31.2802 305.18 31.4802C305.53 31.6802 305.81 31.8702 306.04 32.0602L305.35 33.0702C305.13 32.8802 304.85 32.6702 304.51 32.4502C304.17 32.2302 303.81 32.0202 303.43 31.8102C303.05 31.6002 302.67 31.4202 302.31 31.2602V31.2502ZM306.22 37.0002H315.79V38.1402H306.22V37.0002ZM306.97 44.3702C306.95 44.2902 306.91 44.1702 306.87 44.0202C306.83 43.8702 306.77 43.7202 306.71 43.5602C306.65 43.4002 306.6 43.2702 306.56 43.1702C306.72 43.1402 306.88 43.0302 307.05 42.8502C307.22 42.6702 307.39 42.4302 307.59 42.1302C307.71 41.9902 307.87 41.7602 308.07 41.4302C308.27 41.1002 308.5 40.7102 308.75 40.2602C309 39.8102 309.25 39.3302 309.5 38.8102C309.75 38.2902 309.98 37.7702 310.18 37.2502L311.46 37.6802C311.12 38.4202 310.75 39.1502 310.35 39.8702C309.95 40.6002 309.53 41.2802 309.1 41.9302C308.67 42.5802 308.24 43.1602 307.81 43.6802V43.7102C307.64 43.7902 307.5 43.8702 307.39 43.9402C307.28 44.0102 307.18 44.0802 307.1 44.1602C307.02 44.2402 306.98 44.3102 306.98 44.3602L306.97 44.3702ZM306.92 32.9602H315.13V34.1002H306.92V32.9602ZM306.97 44.3702L306.92 43.4302L307.61 43.0002L314.14 42.2602C314.14 42.4202 314.15 42.6002 314.17 42.8002C314.19 43.0002 314.21 43.1702 314.23 43.3102C313 43.4602 311.98 43.5802 311.15 43.6902C310.32 43.7902 309.65 43.8802 309.13 43.9502C308.61 44.0302 308.22 44.0902 307.94 44.1302C307.66 44.1802 307.45 44.2202 307.31 44.2602C307.17 44.3002 307.05 44.3302 306.97 44.3602V44.3702ZM310.36 30.2102H311.56V37.7302H310.36V30.2102ZM312.06 40.2802L313.02 39.8202C313.4 40.2802 313.78 40.7802 314.16 41.3302C314.53 41.8802 314.87 42.4202 315.18 42.9502C315.49 43.4802 315.71 43.9602 315.86 44.3702L314.8 44.9102C314.66 44.4902 314.45 44.0202 314.16 43.4802C313.87 42.9402 313.54 42.3902 313.18 41.8202C312.82 41.2502 312.44 40.7402 312.07 40.2702L312.06 40.2802Z" fill="#333333"/>
<path d="M320.84 35.1602C321.3 35.1602 321.71 35.2702 322.07 35.4902C322.43 35.7102 322.72 36.0001 322.94 36.3701C323.16 36.7401 323.27 37.1501 323.27 37.5901C323.27 38.0301 323.16 38.4502 322.94 38.8102C322.72 39.1802 322.43 39.4702 322.07 39.6902C321.71 39.9102 321.3 40.0202 320.84 40.0202C320.38 40.0202 319.98 39.9102 319.62 39.6902C319.26 39.4702 318.96 39.1802 318.74 38.8102C318.52 38.4402 318.41 38.0301 318.41 37.5901C318.41 37.1501 318.52 36.7301 318.74 36.3701C318.96 36.0001 319.25 35.7102 319.63 35.4902C320.01 35.2702 320.41 35.1602 320.85 35.1602H320.84ZM320.84 39.2001C321.29 39.2001 321.67 39.0401 321.98 38.7301C322.29 38.4201 322.45 38.0301 322.45 37.5901C322.45 37.2901 322.38 37.0202 322.23 36.7702C322.09 36.5202 321.89 36.3302 321.65 36.1902C321.4 36.0502 321.13 35.9702 320.83 35.9702C320.53 35.9702 320.28 36.0402 320.03 36.1902C319.78 36.3302 319.59 36.5302 319.44 36.7702C319.29 37.0102 319.22 37.2901 319.22 37.5901C319.22 37.8901 319.3 38.1602 319.44 38.4102C319.58 38.6602 319.78 38.8502 320.02 38.9902C320.26 39.1302 320.53 39.2102 320.83 39.2102L320.84 39.2001Z" fill="#333333"/>
</svg>
