<svg width="82" height="756" viewBox="0 0 82 756" fill="none" xmlns="http://www.w3.org/2000/svg">
<path d="M20.7262 689.44V690.325C17.0191 690.978 13.8806 692.705 11.3109 695.549C8.74123 698.371 6.8666 701.615 5.68706 705.301C4.50753 708.966 3.91776 712.399 3.91776 715.58C3.91776 719.94 4.84454 724.026 6.67703 727.838C8.50953 731.651 11.1003 734.958 14.4494 737.738C17.7984 740.518 21.8004 742.667 26.4764 744.226C31.1525 745.784 36.2287 746.543 41.7262 746.543C47.2237 746.543 51.9629 745.805 56.5125 744.31C61.0622 742.814 65.001 740.645 68.35 737.78C71.6991 734.916 74.2267 731.609 75.9328 727.838C77.6389 724.068 78.5025 719.877 78.5025 715.285C78.5025 711.451 77.7232 707.239 76.1645 702.626C74.6058 698.034 72.015 693.885 68.3711 690.177H71.2989C74.8375 694.748 77.4283 698.919 79.0712 702.689C80.7141 706.48 81.5356 711.199 81.5356 716.865C81.5356 722.825 80.4403 728.281 78.2708 733.188C76.1013 738.096 73.1525 742.267 69.4453 745.658C65.7382 749.049 61.5677 751.619 56.9549 753.367C52.342 755.115 47.5607 756 42.653 756C35.2808 756 28.4353 754.188 22.1163 750.545C15.7974 746.922 10.7844 741.993 7.0983 735.779C3.41224 729.566 1.57974 722.846 1.57974 715.58C1.57974 711.093 2.25376 706.312 3.58075 701.236L5.07623 695.886C5.28686 694.853 5.39218 693.99 5.39218 693.253C5.39218 691.926 5.20261 691.02 4.80241 690.578C4.40221 690.135 3.70712 689.798 2.67503 689.546V688.724L20.7683 689.44H20.7262Z" fill="black"/>
<path d="M41.7051 600.321C48.8034 600.321 55.3962 602.07 61.5045 605.587C67.6129 609.105 72.4574 613.886 76.0803 619.952C79.7031 626.018 81.5146 632.738 81.5146 640.11C81.5146 647.482 79.7031 654.306 76.0803 660.478C72.4574 666.649 67.5918 671.515 61.4413 675.053C55.312 678.613 48.6139 680.382 41.3892 680.382C35.8285 680.382 30.6259 679.329 25.7392 677.223C20.8526 675.117 16.5978 672.168 12.9539 668.376C9.30995 664.585 6.50854 660.267 4.5286 655.423C2.54866 650.578 1.53763 645.502 1.53763 640.236C1.53763 634.97 2.48547 630.084 4.38116 625.323C6.27685 620.563 9.03612 616.287 12.6379 612.496C16.2397 608.704 20.5156 605.734 25.4443 603.565C30.3731 601.395 35.8074 600.321 41.6841 600.321H41.7051ZM41.9158 609.378C31.8265 609.378 23.9489 611.169 18.2618 614.729C12.5747 618.288 8.7623 622.417 6.82449 627.071C4.88668 631.726 3.91777 636.129 3.91777 640.236C3.91777 643.417 4.44435 646.723 5.47644 650.157C6.5296 653.59 8.42529 656.918 11.2056 660.162C13.986 663.406 17.8827 666.059 22.9378 668.166C27.9719 670.251 34.2066 671.304 41.5998 671.304C48.1083 671.304 53.7954 670.441 58.6399 668.713C63.4845 666.986 67.4443 664.606 70.5196 661.573C73.5948 658.54 75.8064 655.191 77.1545 651.547C78.5025 647.903 79.1765 644.091 79.1765 640.152C79.1765 636.613 78.5447 633.053 77.3019 629.431C76.0592 625.808 74.0161 622.501 71.1725 619.51C68.3501 616.519 64.4955 614.076 59.651 612.201C54.8064 610.326 48.8877 609.4 41.8736 609.4L41.9158 609.378Z" fill="black"/>
<path d="M3.74924 510.592H4.63389C4.8024 512.025 4.94984 513.057 5.07622 513.668C5.2026 514.278 5.53961 514.974 6.12938 515.732C7.01403 516.89 7.85656 517.628 8.65696 517.922C9.4363 518.217 10.8265 518.386 12.7643 518.47C13.0802 518.575 13.3751 518.575 13.6911 518.47L69.9508 515.837C72.3099 515.774 74.353 515.205 76.0802 514.131C77.7863 513.078 78.671 510.761 78.7131 507.18H79.5346V531.719H78.7131C78.3761 528.496 77.4283 526.327 75.9117 525.189C74.3952 524.052 72.015 523.588 68.7924 523.757L10.5737 526.39V526.6L79.5346 553.351L13.1013 578.648V578.858L66.7914 581.575C69.7402 581.723 72.0361 581.533 73.658 581.028C75.2798 580.522 76.4594 579.743 77.1544 578.626C77.8495 577.531 78.3761 575.909 78.7131 573.74H79.5346V592.823H78.7131C78.671 590.38 78.1023 588.547 76.9649 587.262C75.8275 585.999 74.4162 585.156 72.7312 584.777C71.0251 584.377 68.7081 584.082 65.7593 583.871L10.2156 580.838C10.005 580.838 9.64693 581.049 9.12035 581.449C8.59377 581.87 8.06719 582.376 7.51955 582.966C6.99297 583.555 6.5717 584.145 6.25576 584.693C5.53961 585.851 5.11834 586.862 4.99196 587.726C4.86559 588.589 4.76027 589.79 4.65495 591.328H3.7703V573.74L65.7382 550.297L3.7703 526.495V510.613L3.74924 510.592Z" fill="black"/>
<path d="M4.63389 500.756H3.74924V475.923C3.74924 471.773 4.31794 468.108 5.45536 464.949C6.59277 461.768 8.13038 459.135 10.0893 457.029C12.0481 454.923 14.2387 453.343 16.7031 452.29C19.1464 451.237 21.7372 450.71 24.4333 450.71C27.1294 450.71 29.6148 451.194 32.0792 452.184C34.5226 453.153 36.7131 454.691 38.6088 456.776C40.5045 458.861 42.021 461.6 43.1585 465.012C44.2959 468.424 44.8646 472.321 44.8646 476.744C44.8646 478.155 44.6539 480.851 44.2537 484.874H70.3721C75.7643 484.874 78.5236 482.136 78.7131 476.639H79.5346V500.756H78.7131C78.6499 498.397 77.9759 496.438 76.6911 494.922C75.4062 493.405 73.2999 492.626 70.3932 492.626H13.0592C11.3109 492.626 9.85756 492.9 8.67802 493.447C7.51955 493.995 6.67702 494.648 6.19257 495.385C5.68705 496.122 5.32898 496.944 5.09728 497.849C4.86559 498.755 4.69708 499.387 4.63389 499.724V500.756ZM6.42426 484.874H42.1053C42.5898 482.242 42.8214 479.63 42.8214 477.06C42.8214 472.152 41.5577 468.003 39.0511 464.591C36.5236 461.178 31.8686 459.472 25.0441 459.472C19.4202 459.472 14.8074 460.968 11.1845 463.98C7.56167 466.971 5.75024 471.541 5.75024 477.629C5.75024 479.988 5.98193 482.41 6.42426 484.874Z" fill="black"/>
<path d="M41.7051 362.182C48.8034 362.182 55.3962 363.93 61.5045 367.448C67.6129 370.965 72.4574 375.747 76.0803 381.813C79.7031 387.879 81.5146 394.598 81.5146 401.97C81.5146 409.343 79.7031 416.167 76.0803 422.339C72.4574 428.51 67.5918 433.376 61.4413 436.914C55.312 440.474 48.6139 442.243 41.3892 442.243C35.8285 442.243 30.6259 441.19 25.7392 439.084C20.8526 436.978 16.5978 434.029 12.9539 430.237C9.30995 426.446 6.50854 422.128 4.5286 417.283C2.54866 412.439 1.53763 407.363 1.53763 402.097C1.53763 396.831 2.48547 391.944 4.38116 387.184C6.27685 382.424 9.03612 378.148 12.6379 374.357C16.2397 370.565 20.5156 367.595 25.4443 365.426C30.3731 363.256 35.8074 362.182 41.6841 362.182H41.7051ZM41.9158 371.239C31.8265 371.239 23.9489 373.03 18.2618 376.589C12.5747 380.149 8.7623 384.277 6.82449 388.932C4.88668 393.587 3.91777 397.99 3.91777 402.097C3.91777 405.277 4.44435 408.584 5.47644 412.018C6.5296 415.451 8.42529 418.779 11.2056 422.023C13.986 425.266 17.8827 427.92 22.9378 430.027C27.9719 432.112 34.2066 433.165 41.5998 433.165C48.1083 433.165 53.7954 432.301 58.6399 430.574C63.4845 428.847 67.4443 426.467 70.5196 423.434C73.5948 420.401 75.8064 417.052 77.1545 413.408C78.5025 409.764 79.1765 405.951 79.1765 402.013C79.1765 398.474 78.5447 394.914 77.3019 391.291C76.0592 387.669 74.0161 384.362 71.1725 381.371C68.3501 378.38 64.4955 375.936 59.651 374.062C54.8064 372.187 48.8877 371.26 41.8736 371.26L41.9158 371.239Z" fill="black"/>
<path d="M18.3039 313.841V314.663C14.6389 315.147 11.4162 316.748 8.65696 319.465C5.89769 322.182 4.50751 325.784 4.50751 330.25C4.50751 333.156 5.2026 335.747 6.57171 338.022C7.94081 340.297 9.81544 342.024 12.1745 343.267C14.5336 344.509 17.2507 345.12 20.3049 345.12C22.664 345.12 24.7703 344.762 26.6028 344.025C28.4353 343.288 30.0572 342.192 31.4684 340.76C32.8796 339.328 34.1855 337.622 35.4072 335.663C36.6289 333.704 38.1665 331.071 40.02 327.743C43.0742 322.182 46.1073 317.864 49.1404 314.789C52.1735 311.714 56.323 310.155 61.6098 310.155C64.8325 310.155 67.9498 310.977 70.9408 312.641C73.9318 314.305 76.3962 316.811 78.3129 320.181C80.2297 323.551 81.1986 327.701 81.1986 332.672C81.1986 335.789 80.8616 338.548 80.1875 340.95C79.5135 343.351 78.5867 345.773 77.3861 348.259C77.0491 349.291 76.8806 349.986 76.8806 350.365C76.8806 351.081 77.1334 351.565 77.66 351.776C78.1655 352.008 79.2818 352.303 81.009 352.682V353.567H62.0311V352.682C67.5918 351.439 71.7833 349.059 74.6269 345.478C77.4704 341.919 78.9027 337.58 78.9027 332.461C78.9027 328.628 78.1865 325.552 76.7332 323.236C75.3009 320.919 73.5526 319.318 71.4884 318.433C69.4243 317.548 67.3811 317.106 65.3169 317.106C61.0622 317.106 57.5867 318.391 54.9117 320.982C52.2156 323.573 49.4774 327.511 46.655 332.777C44.675 336.421 43.1163 339.096 42.0211 340.844C40.9258 342.593 39.4935 344.362 37.7452 346.173C35.997 347.964 33.9328 349.396 31.5526 350.47C29.1725 351.523 26.4343 352.071 23.3591 352.071C19.7994 352.071 16.3872 351.123 13.1224 349.249C9.85756 347.374 7.24573 344.699 5.28685 341.223C3.30691 337.769 2.33801 333.83 2.33801 329.449C2.33801 326.121 2.90671 322.709 4.04412 319.212C4.31795 318.665 4.46539 317.928 4.46539 317.001C4.46539 315.863 3.68605 315.105 2.14844 314.684V313.862H18.346L18.3039 313.841Z" fill="black"/>
<path d="M3.74924 279.234H4.6339C4.6339 281.488 5.26579 283.426 6.52958 284.985C7.79337 286.564 9.89969 287.344 12.8485 287.344H70.33C73.2367 287.344 75.3641 286.501 76.6911 284.816C78.018 283.131 78.671 281.278 78.671 279.213H79.4925V303.225H78.671C78.671 301.035 78.018 299.139 76.7332 297.538C75.4483 295.938 73.3209 295.137 70.33 295.137H12.8485C9.68906 295.137 7.54062 295.938 6.36108 297.538C5.2026 299.139 4.61283 301.035 4.61283 303.225H3.72818V279.213L3.74924 279.234Z" fill="black"/>
<path d="M18.5145 206.925V207.747C13.5858 208.126 10.3842 209.558 8.93079 212.065C7.47743 214.571 6.74022 217.647 6.74022 221.312V236.372H70.351C75.7432 236.372 78.5025 233.634 78.6921 228.136H79.5135V252.253H78.6921C78.6289 250 77.9549 248.083 76.7121 246.524C75.4694 244.966 73.342 244.186 70.351 244.186H6.74022V259.246C6.74022 262.911 7.47743 265.987 8.93079 268.472C10.3842 270.958 13.5858 272.411 18.5145 272.811V273.633H0V272.811C0.863591 272.263 1.49549 271.779 1.89569 271.379C2.29589 270.979 2.65396 270.431 2.94885 269.778C3.24373 269.125 3.45436 268.367 3.55968 267.482C3.68606 266.597 3.74925 265.565 3.74925 264.365V215.309C3.74925 212.044 2.50652 209.516 0 207.705V206.883H18.5145V206.925Z" fill="black"/>
<path d="M3.74924 177.205H4.6339C4.6339 179.458 5.26579 181.396 6.52958 182.955C7.79337 184.535 9.89969 185.314 12.8485 185.314H70.33C73.2367 185.314 75.3641 184.471 76.6911 182.786C78.018 181.101 78.671 179.248 78.671 177.184H79.4925V201.196H78.671C78.671 199.005 78.018 197.109 76.7332 195.509C75.4483 193.908 73.3209 193.107 70.33 193.107H12.8485C9.68906 193.107 7.54062 193.908 6.36108 195.509C5.2026 197.109 4.61283 199.005 4.61283 201.196H3.72818V177.184L3.74924 177.205Z" fill="black"/>
<path d="M41.7051 87.834C48.8034 87.834 55.3962 89.5822 61.5045 93.0998C67.6129 96.6173 72.4574 101.399 76.0803 107.465C79.7031 113.531 81.5146 120.25 81.5146 127.622C81.5146 134.994 79.7031 141.819 76.0803 147.99C72.4574 154.162 67.5918 159.028 61.4413 162.566C55.312 166.126 48.6139 167.895 41.3892 167.895C35.8285 167.895 30.6259 166.842 25.7392 164.736C20.8526 162.629 16.5978 159.681 12.9539 155.889C9.30995 152.098 6.50854 147.78 4.5286 142.935C2.54866 138.091 1.53763 133.015 1.53763 127.749C1.53763 122.483 2.48547 117.596 4.38116 112.836C6.27685 108.076 9.03612 103.8 12.6379 100.009C16.2397 96.2171 20.5156 93.2472 25.4443 91.0777C30.3731 88.9082 35.8074 87.834 41.6841 87.834H41.7051ZM41.9158 96.8912C31.8265 96.8912 23.9489 98.6815 18.2618 102.241C12.5747 105.801 8.7623 109.929 6.82449 114.584C4.88668 119.239 3.91777 123.641 3.91777 127.749C3.91777 130.929 4.44435 134.236 5.47644 137.669C6.5296 141.103 8.42529 144.431 11.2056 147.674C13.986 150.918 17.8827 153.572 22.9378 155.679C27.9719 157.764 34.2066 158.817 41.5998 158.817C48.1083 158.817 53.7954 157.953 58.6399 156.226C63.4845 154.499 67.4443 152.119 70.5196 149.086C73.5948 146.053 75.8064 142.704 77.1545 139.06C78.5025 135.416 79.1765 131.603 79.1765 127.664C79.1765 124.126 78.5447 120.566 77.3019 116.943C76.0592 113.32 74.0161 110.014 71.1725 107.023C68.3501 104.032 64.4955 101.588 59.651 99.7136C54.8064 97.839 48.8877 96.9122 41.8736 96.9122L41.9158 96.8912Z" fill="black"/>
<path d="M3.74924 0H4.6339C4.86559 1.91675 5.24473 3.4333 5.72918 4.54965C6.2347 5.666 7.20361 6.52959 8.65697 7.14042C10.1103 7.75125 12.2166 8.0672 14.9549 8.0672H81.3881V8.57272L16.5135 66.7492H63.1053C66.9809 66.7492 69.8666 66.6018 71.7412 66.2858C73.6158 65.9699 74.9849 65.5276 75.8064 64.9589C77.5968 63.6951 78.5446 61.4834 78.6921 58.324H79.5135V77.3019H78.6921C78.5867 75.1745 78.1444 73.5316 77.323 72.331C76.5226 71.1514 75.0481 70.3089 72.8997 69.8034C70.7512 69.2979 67.5286 69.0662 63.2106 69.0662H13.7753L10.9529 71.5938C8.42527 73.8265 6.80341 75.5958 6.15045 76.9438C5.49749 78.2919 4.97091 79.9348 4.6339 81.9358H3.74924V67.6971L67.9288 10.3842H19.0201C15.3551 10.3842 12.6168 10.5316 10.7843 10.8265C8.97291 11.1214 7.51955 11.8796 6.4032 13.1434C5.30792 14.3862 4.69709 16.3661 4.61283 19.0411H3.72818V0H3.74924Z" fill="black"/>
</svg>
