<?xml version="1.0" encoding="UTF-8"?>
<svg id="_圖層_1" data-name="圖層_1" xmlns="http://www.w3.org/2000/svg" xmlns:xlink="http://www.w3.org/1999/xlink" version="1.1" viewBox="0 0 422 15">
  <!-- Generator: Adobe Illustrator 29.4.0, SVG Export Plug-In . SVG Version: 2.1.0 Build 152)  -->
  <defs>
    <style>
      .st0 {
        fill: none;
      }

      .st1 {
        fill: #766b52;
      }

      .st2 {
        clip-path: url(#clippath);
      }
    </style>
    <clipPath id="clippath">
      <rect class="st0" y="0" width="353.1" height="15"/>
    </clipPath>
  </defs>
  <g class="st2">
    <g>
      <path class="st1" d="M0,.8h13.4v14h-1.2V1.8H1.1v13H0V.8ZM.7,13.2h12.1v1H.7v-1ZM1.9,5.8h9.6v.8H1.9v-.8ZM3,7.2h7.4v5.1H3v-5.1ZM3.5,2.6h6.4v2.5H3.5v-2.5ZM3.9,8v3.6h5.4v-3.6H3.9ZM4.5,3.3v1.1h4.3v-1.1h-4.3ZM5,8.7h3.4v2.2h-3.4v-2.2ZM5.7,9.3v.9h1.9v-.9h-1.9ZM6.1,4.6h1v1.6h-1v-1.6Z"/>
      <path class="st1" d="M17.6.6h1.2v5.3c0,.8,0,1.6,0,2.4,0,.8-.2,1.6-.3,2.4-.2.8-.4,1.5-.8,2.2-.3.7-.8,1.4-1.4,2,0-.1-.1-.2-.3-.3s-.2-.2-.3-.3c-.1-.1-.2-.2-.3-.3.7-.8,1.2-1.6,1.5-2.5.3-.9.5-1.8.6-2.8.1-.9.1-1.9.1-2.8V.6h0ZM18.1,8.1h8.5v6.8h-1.3v-5.6h-7.2v-1.2ZM18.2,4.3h10.9v1.2h-10.9v-1.2ZM23.4.2h1.3v4.7h-1.3V.2Z"/>
      <path class="st1" d="M34.9.2l1.1.3c-.3.9-.8,1.8-1.2,2.7-.5.9-1,1.7-1.5,2.5-.5.8-1.1,1.5-1.7,2.1,0,0,0-.2-.2-.4s-.2-.3-.3-.5-.2-.3-.2-.4c.5-.5,1-1.1,1.5-1.8.5-.7.9-1.4,1.4-2.2.4-.8.8-1.6,1.1-2.4h0ZM33.2,4.3l1.1-1.1h0v11.6h-1.2V4.3h0ZM35.7,13.7h10.4v.9h-10.4v-.9ZM35.9,1.6h10.1v.9h-10.1v-.9ZM36.3,9.5h9.2v.9h-9.2v-.9ZM36.6,5.3h8.7v3.2h-8.7v-3.2ZM36.7,11.5h8.5v.9h-8.5v-.9ZM37.7,6.2v1.5h6.4v-1.5h-6.4ZM38,.1h1.1v3.5h3.5V.1h1.2v4.4h-5.8V.1ZM40.3,4.1h1.2v10.1h-1.2V4.1Z"/>
      <path class="st1" d="M54.8.1l1.2.3c-.4,1.1-.8,2.2-1.3,3.3-.5,1.1-1.1,2.1-1.8,3.1-.7,1-1.4,1.9-2.3,2.7-.9.8-1.8,1.6-2.9,2.2,0-.1-.1-.2-.2-.3,0-.1-.2-.2-.2-.4,0-.1-.2-.2-.2-.3,1-.6,1.9-1.2,2.7-2,.8-.8,1.5-1.6,2.2-2.5.6-.9,1.2-1.9,1.6-2.9.5-1,.8-2,1.1-3.1ZM48,2.9h10.5v1.1h-10.5v-1.1ZM50.1,10.6l1,.3c-.1.4-.3.9-.4,1.4-.2.5-.4.9-.6,1.3-.2.4-.5.8-.8,1.1l-.9-.6c.3-.3.6-.6.8-1,.2-.4.4-.8.6-1.2.2-.4.3-.9.4-1.3ZM50,.6l1.1-.4c.3.3.6.7.9,1.1.3.4.5.8.7,1.1l-1.1.5c-.1-.3-.4-.7-.7-1.1-.3-.4-.6-.8-.9-1.1h0ZM50.1,8.7h10.9v1.1h-10.9v-1.1ZM52.1,11h1c.2.4.3.9.4,1.5,0,.6.1,1.1.1,1.5l-1.1.2c0-.3,0-.6,0-1,0-.4,0-.8-.1-1.1,0-.4-.1-.8-.2-1.1ZM52.5,5.8h7.3v1.1h-7.3v-1.1ZM54.5,10.8l.9-.2c.2.4.4.9.6,1.4.2.5.3,1,.4,1.3l-1,.3c0-.4-.2-.8-.3-1.4-.2-.5-.3-1-.5-1.5h0ZM56.9,10.6l.8-.3c.3.3.5.7.7,1.1.2.4.4.8.5,1l-.9.4c0-.3-.3-.7-.5-1.1s-.5-.8-.7-1.1h0ZM60.5,8.7h1.2c0,.1,0,.2,0,.3s0,.1,0,.2c-.1,1.1-.2,2-.3,2.7-.1.7-.2,1.3-.4,1.6-.1.4-.3.7-.5.8-.1.2-.3.3-.5.3-.2,0-.4.1-.6.1-.2,0-.5,0-.9,0-.4,0-.8,0-1.2,0,0-.2,0-.3-.1-.6,0-.2-.1-.4-.2-.6.4,0,.8,0,1.1,0,.4,0,.6,0,.8,0,.2,0,.3,0,.4,0,0,0,.2,0,.2-.1.1-.1.2-.3.4-.7.1-.3.2-.9.3-1.5.1-.7.2-1.5.3-2.6v-.2ZM58.2,2.9h1.1c-.1.5-.2,1.1-.4,1.7-.1.6-.3,1.1-.4,1.6l-1.1-.2c.1-.4.2-.9.4-1.5.1-.6.2-1.1.3-1.6ZM59.4,5.8h1.1c-.1.6-.2,1.1-.3,1.7-.1.6-.2,1.1-.4,1.5h-1.1c.1-.5.3-1.1.4-1.6.1-.6.2-1.1.3-1.7h0Z"/>
      <path class="st1" d="M66.9,13.8c-.6,0-1.1,0-1.6-.2-.5-.1-.9-.4-1.2-.6-.3-.2-.7-.5-.9-.8l.8-.9c.3.4.7.7,1.2.9.5.3,1,.4,1.7.4s.9,0,1.2-.3c.4-.2.6-.4.8-.7.2-.3.3-.7.3-1.1s-.1-.9-.3-1.2c-.2-.3-.6-.6-1.1-.8-.5-.2-1.2-.3-2.2-.3v-1.1c.8,0,1.4,0,1.9-.3s.8-.4,1-.8.3-.7.3-1.1-.2-1-.5-1.3c-.3-.3-.8-.5-1.5-.5s-.9.1-1.3.3c-.4.2-.8.5-1.1.8l-.8-.9c.5-.4.9-.7,1.5-1,.5-.3,1.1-.4,1.8-.4s1.2.1,1.8.3c.5.2.9.5,1.2,1,.3.4.4,1,.4,1.6s-.2,1.3-.6,1.7c-.4.4-.9.8-1.5,1h0c.5.2.9.4,1.2.6.4.3.7.6.9,1,.2.4.3.8.3,1.4s-.2,1.3-.5,1.7c-.3.5-.8.9-1.4,1.1-.6.3-1.2.4-1.9.4h0Z"/>
      <path class="st1" d="M73.2,13.6V1.9h2.9c1.2,0,2.2.2,3,.7s1.4,1.1,1.9,2c.4.9.6,1.9.6,3.2s-.2,2.3-.6,3.2c-.4.9-1,1.6-1.8,2-.8.5-1.8.7-3,.7h-3ZM74.7,12.4h1.3c.9,0,1.7-.2,2.3-.6.6-.4,1.1-.9,1.4-1.6.3-.7.5-1.6.5-2.5s-.1-1.8-.5-2.5c-.3-.7-.8-1.2-1.4-1.6-.6-.4-1.4-.5-2.3-.5h-1.3v9.3h0Z"/>
      <path class="st1" d="M90.8.1l1.1.5c-.6.9-1.3,1.7-2.1,2.5s-1.7,1.5-2.7,2.2c-1,.7-2,1.2-3,1.7,0-.2-.2-.4-.4-.6-.2-.2-.3-.4-.5-.5,1-.4,2-.9,3-1.5,1-.6,1.8-1.3,2.7-2,.8-.7,1.5-1.5,2-2.4h0ZM85.7,8.4h9.9v6.4h-1.3v-5.3h-7.5v5.3h-1.2v-6.4ZM86.3,12.8h8.6v1.1h-8.6v-1.1ZM86.5,5.4h8.1v1.1h-8.1v-1.1ZM91.1,1c1,1.1,2,2,3.2,2.7,1.2.7,2.4,1.4,3.8,2-.2.1-.3.3-.5.5-.2.2-.3.4-.4.6-.9-.4-1.8-.9-2.6-1.4-.8-.5-1.6-1.1-2.4-1.7-.8-.6-1.5-1.3-2.2-2.2l1-.5h0Z"/>
      <path class="st1" d="M100.6,2.9h1.2v4.5c0,.6,0,1.2,0,1.8s-.1,1.3-.2,2c-.1.7-.3,1.3-.5,2-.2.6-.5,1.2-.9,1.8,0,0-.2-.2-.3-.3-.1-.1-.2-.2-.4-.3-.1-.1-.2-.2-.3-.2.4-.7.8-1.4,1-2.2s.3-1.6.4-2.4c0-.8,0-1.6,0-2.3V2.9h0ZM101.3,6.1h4v1.1h-4v-1.1ZM101.4,2.9h12.4v1.2h-12.4v-1.2ZM104.8,6.1h1.2v.5c0,1.2,0,2.2,0,2.9s0,1.3-.1,1.7c0,.4-.2.7-.3.8-.1.2-.3.3-.4.3-.1,0-.3.1-.5.1-.2,0-.5,0-.8,0-.3,0-.7,0-1.1,0,0-.2,0-.4,0-.6,0-.2-.1-.4-.2-.5.4,0,.7,0,1,0h.7c.1,0,.2,0,.3,0,0,0,.2,0,.2-.1,0-.1.1-.3.2-.6,0-.3,0-.9.1-1.5,0-.7,0-1.6,0-2.8v-.2h0ZM111.6,5.3l1.2.3c-.7,2.1-1.6,3.9-2.8,5.4s-2.6,2.8-4.2,3.8c0,0-.2-.2-.3-.3s-.2-.2-.3-.4-.2-.2-.3-.3c1.6-.8,3-2,4.1-3.4,1.1-1.4,2-3.1,2.6-5.1h0ZM107.3.2h1.2c0,1.5,0,2.9.2,4.2.1,1.3.3,2.6.5,3.7.2,1.1.5,2.1.8,2.9.3.8.6,1.5,1,1.9.4.4.8.7,1.2.7s.4-.2.5-.7c.1-.4.2-1.2.2-2.3.1.1.3.3.5.4.2.1.4.2.5.3,0,.9-.2,1.6-.3,2.1-.1.5-.3.9-.6,1.1s-.6.3-1,.3-1-.2-1.5-.5c-.4-.4-.8-.9-1.2-1.5-.3-.7-.6-1.4-.9-2.3-.3-.9-.5-1.9-.7-3-.2-1.1-.3-2.2-.4-3.5,0-1.2-.1-2.5-.1-3.7h0ZM109.3.9l.7-.7c.3.2.7.4,1.1.6.4.2.7.4,1,.7.3.2.6.4.8.6l-.8.8c-.2-.2-.5-.4-.8-.6-.3-.2-.7-.5-1-.7-.4-.2-.7-.4-1.1-.6Z"/>
      <path class="st1" d="M118.3,8l1.2.3c-.3.7-.6,1.3-.9,1.9-.4.6-.7,1.2-1.1,1.8-.4.5-.8,1-1.2,1.4,0,0-.2-.2-.3-.2l-.4-.3c-.1,0-.3-.2-.4-.2.7-.6,1.3-1.3,1.8-2.1.6-.8,1-1.7,1.4-2.6h0ZM115.5,5.2h14.1v1.2h-14.1v-1.2ZM117,1.3h11.3v1.2h-11.3v-1.2ZM121.9,5.8h1.3v7.5c0,.4,0,.7-.2.9-.1.2-.3.4-.6.5-.3.1-.7.2-1.1.2-.5,0-1.1,0-1.8,0,0-.2,0-.4-.2-.6,0-.2-.2-.5-.3-.6.4,0,.7,0,1.1,0,.3,0,.6,0,.9,0h.5c.2,0,.2,0,.3,0,0,0,0-.1,0-.3v-7.4h0ZM125.5,8.5l1.1-.5c.4.5.8,1,1.2,1.6.4.6.7,1.2,1,1.7.3.6.5,1.1.7,1.5l-1.2.5c-.1-.5-.4-1-.7-1.5-.3-.6-.6-1.2-1-1.8-.4-.6-.8-1.2-1.1-1.7h0Z"/>
      <path class="st1" d="M133.5,11.1l1,.5c-.2.5-.5,1-.8,1.5-.3.5-.7,1-1.1,1.4l-1-.6c.4-.3.8-.8,1.1-1.3.3-.5.6-1,.8-1.5h0ZM131.7,3.9h13.8v1h-13.8v-1ZM132.5,1.3h12.2v1h-12.2v-1ZM133.6,5.7h10v4.7h-10v-4.7ZM134.8,6.5v1.1h7.7v-1.1h-7.7ZM134.8,8.4v1.1h7.7v-1.1h-7.7ZM134.9,2.5l1.1-.3c.2.3.3.5.4.8.1.3.2.6.3.8l-1.2.3c0-.2-.1-.5-.2-.8-.1-.3-.3-.6-.4-.9ZM135.3,11.2h1.2v2.1c0,.2,0,.3.2.4s.4,0,.8,0h2.8c.2,0,.4,0,.5-.1.1,0,.2-.2.2-.4,0-.2,0-.6.1-1.1.1,0,.3.2.5.2.2,0,.4.1.5.2,0,.6-.1,1.1-.2,1.4-.1.3-.3.5-.5.7-.2.1-.6.2-1,.2h-3c-.5,0-1,0-1.3-.1-.3,0-.5-.2-.6-.4-.1-.2-.2-.5-.2-.9v-2.1ZM137.1,10.9l.7-.7c.3.2.6.3.9.5.3.2.6.4.9.6s.5.4.7.6l-.8.8c-.2-.2-.4-.4-.7-.6s-.6-.4-.9-.6c-.3-.2-.6-.4-.9-.6h0ZM137.7.3L138.8,0c.2.3.3.6.5.9.2.3.3.6.4.8l-1.2.3c0-.2-.2-.5-.3-.9-.2-.3-.3-.6-.5-.9h0ZM141.2,2.2l1.2.3c-.2.3-.4.7-.5,1-.2.3-.4.6-.5.9l-1-.3c.1-.3.3-.6.5-.9.2-.4.3-.7.4-.9h0ZM142.4,11.3l.9-.4c.3.3.6.6.8.9.3.3.5.6.8,1,.2.3.4.6.5.9l-1,.5c-.1-.3-.3-.6-.5-.9-.2-.3-.5-.7-.7-1-.3-.3-.5-.7-.8-.9h0Z"/>
      <path class="st1" d="M147.9.8h13.4v14h-1.2V1.8h-11.1v13h-1.1V.8ZM148.6,13.2h12.1v1h-12.1v-1ZM149.8,5.8h9.6v.8h-9.6v-.8ZM150.9,7.2h7.4v5.1h-7.4v-5.1ZM151.4,2.6h6.4v2.5h-6.4v-2.5ZM151.8,8v3.6h5.4v-3.6h-5.4ZM152.4,3.3v1.1h4.4v-1.1h-4.4ZM152.9,8.7h3.4v2.2h-3.4v-2.2ZM153.6,9.3v.9h1.9v-.9h-1.9ZM154,4.6h1v1.6h-1v-1.6Z"/>
      <path class="st1" d="M165.3,10.6l-.3-.9c.6-.3,1.1-.6,1.5-1,.3-.4.5-.9.5-1.5l-.3-1.3.9,1.2c-.1.1-.2.2-.4.3-.2,0-.3,0-.5,0-.3,0-.6,0-.8-.3-.2-.2-.4-.5-.4-.8s.1-.7.4-.9c.2-.2.5-.3.9-.3s.8.2,1,.5.3.8.3,1.3c0,.9-.2,1.6-.8,2.2s-1.2,1.1-2,1.4Z"/>
      <path class="st1" d="M171.3,4.6h3.4c0,0,7.5,0,7.5,0h0c0,0,3.5,0,3.5,0v.9h-3.5c0-.1-7.5-.1-7.5-.1h0c0,.1-3.4.1-3.4.1v-.9ZM176.6,12.6l1,.6c-.4.2-.9.5-1.5.7-.6.2-1.2.4-1.9.6s-1.3.3-1.9.4c0-.1-.2-.3-.3-.4-.1-.2-.2-.3-.4-.4.6-.1,1.2-.2,1.8-.4.6-.2,1.2-.3,1.8-.5.6-.2,1-.4,1.3-.6h0ZM171.9,1.5h13.4v2.6h-1.1v-1.6h-11.2v1.6h-1.1V1.5h0ZM173.5,7.6h10.2v5h-10.2v-5ZM174.2,3.3h9.1l-.3,3.7h-9.3l.5-3.7ZM174.7,8.3v.7h7.8v-.7h-7.8ZM174.7,9.7v.8h7.8v-.8h-7.8ZM174.7,11.2v.8h7.8v-.8h-7.8ZM175.2,4l-.3,2.2h7.1l.2-2.2h-7ZM177.4.3l1-.3c.2.3.4.6.6.9.2.3.3.6.4.9l-1.1.4c0-.3-.2-.6-.4-.9-.2-.4-.4-.7-.6-.9h0ZM178.2,3.6h1c0,.5,0,1-.1,1.6,0,.6-.1,1.1-.2,1.4h-1c0-.4.1-.9.2-1.5,0-.6.1-1.1.1-1.6h0ZM179.6,13.3l.6-.7c.6.1,1.2.3,1.9.5.6.2,1.2.4,1.8.5.5.2,1,.3,1.5.5l-.8.8c-.4-.1-.8-.3-1.4-.5s-1.1-.4-1.7-.5c-.6-.2-1.2-.4-1.8-.5h0Z"/>
      <path class="st1" d="M187.8.8h3.2v1.1h-2.1v12.9h-1.1V.8ZM190.7.8h.3c0,0,.8.4.8.4-.1.4-.3.9-.4,1.4-.1.5-.3,1-.4,1.5-.2.5-.3,1-.5,1.4.5.7.8,1.3.9,1.9s.2,1.2.2,1.7,0,.8-.1,1.1c0,.3-.2.6-.4.7-.1,0-.2.2-.3.2-.1,0-.3,0-.4,0-.1,0-.2,0-.4,0h-.5c0-.2,0-.3,0-.5,0-.2,0-.4-.2-.5.1,0,.2,0,.4,0h.3c.2,0,.3,0,.4-.1.1,0,.2-.2.2-.5,0-.2,0-.4,0-.7,0-.4,0-.9-.2-1.5-.1-.6-.4-1.2-.9-1.8.1-.4.2-.8.4-1.2s.2-.8.3-1.2c0-.4.2-.8.3-1.2,0-.4.2-.7.2-.9v-.3h0ZM193.6.2l1,.2c-.3,1-.7,1.8-1.2,2.7-.5.8-1.1,1.5-1.7,2.1,0,0-.1-.1-.2-.2-.1,0-.2-.2-.3-.2-.1,0-.2-.1-.3-.2.6-.5,1.2-1.2,1.6-1.9.5-.7.8-1.5,1.1-2.4h0ZM193.4,10.9l1.1.3c-.2.6-.6,1.1-.9,1.7-.4.6-.8,1-1.2,1.4,0,0-.1-.1-.3-.2-.1,0-.2-.1-.3-.2s-.2-.1-.3-.2c.4-.3.8-.8,1.1-1.3.4-.5.6-1,.9-1.5h0ZM195.6,1.5h.4c0,0,.7.2.7.2-.2,1.1-.6,2.1-1,2.9-.5.9-1,1.6-1.6,2.3-.6.6-1.2,1.2-1.9,1.6,0-.1-.2-.3-.3-.4-.1-.2-.2-.3-.4-.4.6-.3,1.2-.8,1.8-1.4s1-1.3,1.5-2.1c.4-.8.7-1.6.9-2.5v-.2h0ZM191.9,4.5l.5-.5c.3.2.7.5,1.1.8.4.3.6.5.8.7l-.5.6c-.2-.2-.5-.5-.8-.8-.4-.3-.7-.6-1-.8h0ZM192.5,9.1h8.4v1h-8.4v-1ZM192.9,3.2l.4-.6c.3.2.7.4,1.1.6.4.2.6.5.8.7l-.4.6c-.2-.2-.5-.4-.9-.7-.4-.3-.7-.5-1-.7ZM193.3,1.5h2.7v.9h-2.7v-.9ZM194,6.7h5.4v1h-5.4v-1ZM196.1,9.6h1.1v4.1c0,.3,0,.5-.1.7,0,.2-.2.3-.4.4-.2,0-.5.1-.8.1-.4,0-.8,0-1.3,0,0-.1,0-.3-.2-.5,0-.2-.1-.4-.2-.5.4,0,.8,0,1.1,0s.5,0,.6,0c.1,0,.2,0,.2,0,0,0,0,0,0-.2v-4.1h0ZM197.4.5c.2,1.1.6,2,1,3,.4.9.9,1.7,1.5,2.4s1.3,1.2,2.1,1.6c-.1.1-.2.2-.4.4-.1.2-.2.3-.3.5-.9-.5-1.6-1.1-2.3-1.8s-1.2-1.6-1.6-2.6c-.4-1-.8-2.1-1.1-3.3l1-.2h0ZM198.3,1.4h2.8v.9h-2.8v-.9ZM198.6,11.3l.9-.5c.3.3.6.6.8.9.3.4.5.7.8,1s.4.6.5.9l-1,.5c-.1-.3-.3-.6-.5-.9-.2-.4-.5-.7-.7-1.1-.3-.3-.5-.7-.8-1h0ZM200.6,1.4h.4c0,0,.7.3.7.3-.3.7-.6,1.5-1,2.2-.4.7-.8,1.3-1.2,1.8,0-.1-.2-.2-.3-.4-.1-.1-.2-.2-.4-.3.2-.3.5-.7.7-1,.2-.4.4-.8.6-1.2.2-.4.3-.8.4-1.2v-.2h0Z"/>
      <path class="st1" d="M206.8.2l1.1.3c-.3.9-.7,1.8-1.2,2.7-.4.9-.9,1.7-1.4,2.5-.5.8-1.1,1.5-1.6,2.1,0,0,0-.2-.2-.4,0-.2-.2-.3-.3-.5,0-.2-.2-.3-.2-.4.5-.5,1-1.1,1.4-1.8s.9-1.4,1.3-2.2c.4-.8.7-1.6,1-2.4h0ZM205.1,4.4l1.1-1.1h0v11.7h-1.2V4.4h0ZM211.7,3.5l1.1.4c-.5.8-1,1.6-1.6,2.3-.6.8-1.3,1.4-1.9,2.1s-1.4,1.2-2.1,1.7c0,0-.1-.2-.2-.3,0-.1-.2-.2-.3-.4s-.2-.2-.3-.3c.7-.4,1.4-.9,2.1-1.5.7-.6,1.3-1.2,1.9-1.9.6-.7,1.1-1.4,1.5-2.1ZM207.3,3.1h10.3v1.1h-10.3v-1.1ZM209,14.9c0,0,0-.2-.2-.3,0-.1-.2-.2-.2-.3,0-.1-.2-.2-.2-.3.1,0,.3-.3.5-.5s.3-.5.3-.9v-5.5h1.2v6.4c-.2.1-.3.3-.5.4-.1.1-.3.2-.4.3-.1.1-.2.2-.3.4,0,.1-.1.2-.1.3h0ZM209,14.9v-1.1c-.1,0,.4-.4.4-.4l3.8-1.3c0,.2,0,.3,0,.5,0,.2,0,.4.1.5-.9.3-1.6.6-2.1.8-.5.2-1,.4-1.3.5-.3.1-.5.2-.7.3-.2,0-.2.1-.3.2ZM211.3.6l1.1-.4c.2.4.5.8.7,1.3s.4.9.5,1.2l-1.1.4c0-.3-.2-.7-.5-1.2s-.4-.9-.7-1.3ZM212.6,4.2c.2,1,.5,1.9.9,2.9.4.9.8,1.8,1.2,2.6.5.8,1,1.5,1.6,2.2.6.6,1.2,1.2,1.9,1.6,0,0-.2.2-.3.3l-.3.4c-.1.1-.2.2-.3.3-.9-.6-1.8-1.4-2.5-2.4-.7-1-1.3-2.2-1.9-3.4-.5-1.3-.9-2.6-1.3-4.1l1-.3ZM216.9,5.8l.9.8c-.4.3-.8.7-1.2,1-.4.4-.9.7-1.3,1-.4.3-.8.6-1.2.8l-.7-.7c.4-.3.8-.6,1.2-.9.4-.4.9-.7,1.3-1.1.4-.4.8-.7,1.1-1h0Z"/>
      <path class="st1" d="M221.4,11.1l1.1.3c-.3.6-.6,1.2-1,1.9-.4.6-.7,1.2-1.1,1.6l-1.1-.5c.2-.3.5-.6.8-.9.3-.4.5-.8.7-1.2.2-.4.4-.8.6-1.2h0ZM220.1.8h1.1v10h-1.1V.8ZM220.7,4.7h3.5v1.1h-3.5v-1.1ZM220.7.8h4.1v9.2h-4.1v-1.1h2.9V1.9h-2.9V.8ZM224,11.6h1.1c.1.4.2,1,.3,1.6,0,.6.1,1.1.1,1.5l-1.2.2c0-.3,0-.6,0-.9s0-.8-.1-1.1c0-.4-.1-.8-.2-1.1h0ZM228.2,1.1h1.2c0,.6-.2,1.1-.3,1.6s-.4.9-.7,1.3c-.3.4-.6.7-1.1,1-.5.3-1,.6-1.7.8,0-.1-.2-.3-.3-.5-.1-.2-.3-.3-.4-.4.6-.2,1.1-.4,1.5-.6s.7-.5,1-.8c.2-.3.4-.7.5-1.1s.2-.8.3-1.3h0ZM225.4.8h7.2v1.1h-7.2V.8ZM225.9,6.1h7v4.4h-7v-4.4ZM227,7.1v2.4h4.7v-2.4h-4.7ZM227.4,11.5l1.1-.2c.2.3.3.7.4,1.1.1.4.3.8.4,1.1.1.4.2.7.2,1l-1.2.3c0-.3-.1-.6-.2-1,0-.4-.2-.8-.3-1.1s-.3-.8-.4-1.1ZM232.2.8h1.1c0,.2,0,.4,0,.5,0,.8,0,1.4-.2,1.9,0,.5-.1.9-.2,1.2s-.2.5-.3.6c-.1.1-.3.2-.4.3-.2,0-.3,0-.5.1-.2,0-.4,0-.8,0s-.7,0-1.1,0c0-.2,0-.3-.1-.5,0-.2-.1-.3-.2-.5.3,0,.7,0,1,0h.6c.1,0,.2,0,.3,0s.1,0,.2,0c0,0,.2-.2.2-.5,0-.2,0-.6.1-1s0-1,.1-1.8v-.2h0ZM230.7,11.5l1.1-.4c.3.3.5.7.8,1.1s.5.8.8,1.2.4.7.5,1.1l-1.1.5c-.1-.3-.3-.7-.5-1.1-.2-.4-.5-.8-.7-1.2-.3-.4-.5-.8-.8-1.1h0Z"/>
      <path class="st1" d="M236.7,11.2l1.1.2c-.2.7-.4,1.3-.8,1.9-.3.6-.7,1.1-1,1.6,0,0-.1-.1-.3-.2-.1,0-.2-.2-.3-.2s-.2-.1-.3-.2c.4-.4.7-.9,1-1.4s.5-1.1.7-1.7h0ZM235.9.8h4.5v10.1h-4.5V.8ZM237,1.7v2h2.4V1.7h-2.4ZM237,4.7v2.1h2.4v-2.1h-2.4ZM237,7.7v2.1h2.4v-2.1h-2.4ZM238.7,11.6l.9-.4c.3.4.5.8.8,1.3.3.5.4.9.6,1.2l-.9.5c0-.2-.2-.5-.3-.8-.1-.3-.3-.6-.5-.9-.2-.3-.3-.6-.5-.9h0ZM240.7,11.3h9.3v.9h-9.3v-.9ZM240.7,5.4h9.1v.9h-9.1v-.9ZM241.1,1.5h8.4v.9h-8.4v-.9ZM241.5,3.4h7.8v.9h-7.8v-.9ZM241.7,7.2h6.7v.9h-5.6v6.8h-1.1v-7.7ZM242.3,9.3h6.1v.8h-6.1v-.8ZM243,.2h1.1v5.6h-1.1V.2ZM244.8,5.7h1.1v5.8h-1.1v-5.8ZM247.9,7.2h1.1v6.4c0,.3,0,.5-.1.7s-.2.3-.4.4c-.2,0-.5.1-.9.1-.4,0-.9,0-1.4,0,0-.1,0-.3-.1-.5,0-.2-.1-.4-.2-.5.4,0,.8,0,1.2,0h.7c.1,0,.2,0,.2,0s0-.1,0-.2v-6.4h0ZM246.5.2h1.1v5.6h-1.1V.2Z"/>
      <path class="st1" d="M252.8,1h1.2v4.5c0,.7,0,1.4,0,2.3,0,.8-.1,1.6-.2,2.5-.1.9-.3,1.7-.6,2.5-.2.8-.6,1.5-1,2.2,0,0-.2-.1-.3-.2-.1,0-.3-.2-.4-.2s-.2-.1-.4-.1c.4-.7.7-1.4.9-2.1s.4-1.5.5-2.3c.1-.8.2-1.6.2-2.3,0-.8,0-1.5,0-2.1V1ZM253.6,1h11.2v3.6h-11.2v-1h10v-1.6h-10V1ZM253.6,13.4h12.1v1h-12.1v-1ZM254.1,5.7h11.1v1h-11.1v-1ZM255.1,9.7c0,0,0-.2-.1-.3,0-.1,0-.3-.1-.4,0-.1,0-.3-.1-.4.1,0,.3,0,.4-.1s.3-.2.5-.3c.1,0,.3-.2.6-.5.3-.2.6-.5.9-.8.3-.3.6-.7.9-1l1,.6c-.5.5-1,1-1.5,1.5-.5.5-1.1.8-1.6,1.2h0c-.2,0-.3.2-.4.2,0,0-.2.1-.2.2,0,0-.1.1-.1.2h0ZM254.9,10.7h9.6v1h-9.6v-1ZM255.1,9.7v-.8s.7-.4.7-.4l7.6-.4c0,.2,0,.3.1.5,0,.2,0,.3.1.4-1.5,0-2.7.2-3.7.2-1,0-1.8.1-2.4.2s-1.1,0-1.4.1c-.3,0-.6,0-.7,0s-.3,0-.4.1h0ZM259,9.1h1.2v5h-1.2v-5ZM261,7.2l.9-.5c.4.3.8.6,1.2.9.4.3.8.7,1.2,1,.4.3.7.6.9.9l-.9.6c-.2-.3-.5-.6-.9-.9-.4-.3-.7-.7-1.1-1-.4-.3-.8-.6-1.2-.9h0Z"/>
      <path class="st1" d="M274.9.1l1.1.5c-.6.9-1.3,1.7-2.1,2.5s-1.7,1.5-2.7,2.2c-1,.7-2,1.2-3,1.7,0-.2-.2-.4-.4-.6-.2-.2-.3-.4-.5-.5,1-.4,2-.9,3-1.5,1-.6,1.8-1.3,2.6-2,.8-.7,1.5-1.5,2-2.4h0ZM269.7,8.4h9.9v6.4h-1.3v-5.3h-7.5v5.3h-1.2v-6.4ZM270.3,12.8h8.6v1.1h-8.6v-1.1ZM270.5,5.4h8.1v1.1h-8.1v-1.1ZM275.1,1c1,1.1,2,2,3.2,2.7,1.2.7,2.4,1.4,3.8,2-.2.1-.3.3-.5.5-.1.2-.3.4-.4.6-.9-.4-1.8-.9-2.6-1.4-.8-.5-1.6-1.1-2.4-1.7-.8-.6-1.5-1.3-2.2-2.2l1-.5h0Z"/>
      <path class="st1" d="M284.3,10.4l1.1.2c-.1.7-.3,1.4-.5,2.1-.2.7-.4,1.3-.6,1.8,0,0-.2-.1-.3-.1-.1,0-.3,0-.4-.1-.1,0-.2,0-.4,0,.2-.5.4-1.1.6-1.7.2-.7.3-1.3.5-2h0ZM283.6,6.1c0,0,0-.2-.1-.3,0-.1,0-.3-.1-.4,0-.1-.1-.3-.1-.4.1,0,.3-.1.5-.3.2-.1.3-.3.5-.6.1-.1.2-.3.4-.6.2-.3.4-.6.7-1,.2-.4.5-.8.7-1.2.2-.4.5-.9.7-1.3l1.1.5c-.5.9-1.1,1.8-1.7,2.7-.6.9-1.2,1.6-1.8,2.2h0c-.2.1-.3.2-.4.2,0,0-.2.1-.3.2,0,0-.1.1-.1.2h0ZM283.7,9.7c0,0,0-.2-.1-.3,0-.1,0-.3-.1-.4,0-.1-.1-.3-.1-.4.2,0,.4-.1.6-.3.2-.2.4-.4.7-.7.1-.1.4-.4.6-.7s.6-.7,1-1.2c.4-.5.7-.9,1.1-1.5.4-.5.7-1.1,1-1.6l1,.7c-.7,1.1-1.5,2.1-2.3,3.1-.9,1-1.7,1.9-2.5,2.7h0c-.2.1-.3.2-.4.2-.1,0-.2.1-.3.2,0,0-.1.1-.1.2ZM283.6,6.1v-.9s.5-.4.5-.4l3.2-.3c0,.2,0,.3,0,.5,0,.2,0,.3,0,.5-.7,0-1.3.1-1.8.2-.5,0-.8.1-1,.1-.2,0-.4,0-.5,0-.1,0-.2,0-.3,0h0ZM283.7,9.7v-.9c0,0,.6-.4.6-.4l4.9-.7c0,.2,0,.3,0,.5,0,.2,0,.4,0,.5-1.1.2-2,.3-2.7.4-.7.1-1.2.2-1.6.3-.4,0-.6.1-.8.2-.2,0-.3,0-.4.1ZM286.2,10.6l1-.2c.1.6.2,1.2.3,1.8.1.7.2,1.2.2,1.7l-1,.3c0-.3,0-.7-.1-1.1,0-.4-.1-.8-.2-1.3,0-.4-.1-.8-.2-1.2h0ZM287.9,6.3l1-.3c.1.3.3.7.4,1.1.2.4.3.8.4,1.2.1.4.2.7.3,1l-1,.3c0-.3-.1-.6-.2-1s-.2-.8-.4-1.2c-.1-.4-.3-.8-.4-1.1h0ZM288.2,10.3l.9-.3c.2.5.4,1,.6,1.6.2.6.3,1.1.4,1.5l-.9.4c0-.3-.1-.6-.3-1-.1-.4-.2-.7-.4-1.1-.1-.4-.3-.7-.4-1.1h0ZM291.7.1l1.2.2c-.2.8-.4,1.6-.7,2.3-.3.8-.6,1.5-.9,2.1-.3.7-.7,1.2-1,1.8,0,0-.2-.1-.3-.2-.1,0-.3-.2-.4-.3-.1,0-.2-.2-.3-.2.4-.5.7-1,1-1.6.3-.6.6-1.3.8-2s.5-1.4.6-2.1h0ZM291,3.1h5.6v1.1h-5.6v-1.1ZM291,7l.9-.6c.4.3.7.7,1.1,1.1s.7.8,1,1.2c.3.4.5.8.7,1.1l-.9.7c-.2-.3-.4-.7-.7-1.1-.3-.4-.6-.8-1-1.3-.4-.4-.7-.8-1.1-1.2h0ZM296.2,3.1h1.2v.6c0,1.8-.1,3.3-.2,4.5,0,1.2-.1,2.3-.2,3,0,.8-.2,1.4-.3,1.8-.1.4-.2.8-.4.9-.2.2-.4.4-.6.5-.2,0-.4.1-.7.2-.3,0-.6,0-1.1,0-.4,0-.9,0-1.3,0,0-.2,0-.4-.1-.6,0-.2-.2-.4-.3-.6.5,0,1,0,1.4,0h.9c.1,0,.3,0,.4,0,.1,0,.2-.1.3-.2.1-.1.2-.4.3-.8,0-.4.2-1,.2-1.8,0-.8.1-1.8.2-3,0-1.2.1-2.7.2-4.4v-.3h0Z"/>
      <path class="st1" d="M299.5,8.2h14.2v.9h-14.2v-.9ZM299.5,2.9h14.2v.9h-14.2v-.9ZM300.5,6.5h12.1v.8h-12.1v-.8ZM301.2,1.2h10.6v4.4h-10.7v-.8h9.6v-2.8h-9.4v-.8h0ZM301.5,9.9h10.4v5h-1.2v-4.1h-8v4.2h-1.2v-5ZM302.1,11.7h7.7v.8h-7.7v-.8ZM302.1,13.5h9v.9h-9v-.9ZM305.9.1h1.2v8.7h-1.2V.1Z"/>
      <path class="st1" d="M322.7.1l1.2.3c-.4,1.1-.8,2.2-1.3,3.3-.5,1.1-1.1,2.1-1.8,3.1-.7,1-1.4,1.9-2.3,2.7-.9.8-1.8,1.6-2.9,2.2,0-.1-.1-.2-.2-.3,0-.1-.2-.2-.2-.4,0-.1-.2-.2-.2-.3,1-.6,1.9-1.2,2.7-2,.8-.8,1.5-1.6,2.2-2.5.6-.9,1.2-1.9,1.6-2.9.5-1,.9-2,1.1-3.1ZM315.9,2.9h10.4v1.1h-10.4v-1.1ZM318,10.6l1,.3c-.1.4-.3.9-.4,1.4-.2.5-.4.9-.6,1.3-.2.4-.5.8-.8,1.1l-.9-.6c.3-.3.6-.6.8-1,.2-.4.4-.8.6-1.2.2-.4.3-.9.4-1.3ZM317.9.6l1.1-.4c.3.3.6.7.9,1.1.3.4.5.8.7,1.1l-1.1.5c-.1-.3-.4-.7-.7-1.1-.3-.4-.6-.8-.9-1.1h0ZM318,8.7h10.9v1.1h-10.9v-1.1ZM320,11h1c.2.4.3.9.4,1.5,0,.6.1,1.1.1,1.5l-1.1.2c0-.3,0-.6,0-1,0-.4,0-.8-.1-1.1,0-.4-.1-.8-.2-1.1ZM320.4,5.8h7.3v1.1h-7.3v-1.1ZM322.4,10.8l.9-.2c.2.4.4.9.6,1.4.2.5.3,1,.4,1.3l-1,.3c0-.4-.2-.8-.3-1.4-.2-.5-.4-1-.5-1.5h0ZM324.8,10.6l.8-.3c.3.3.5.7.7,1.1.2.4.4.8.5,1l-.9.4c-.1-.3-.3-.7-.5-1.1s-.5-.8-.7-1.1h0ZM328.3,8.7h1.2c0,.1,0,.2,0,.3s0,.1,0,.2c-.1,1.1-.2,2-.3,2.7-.1.7-.2,1.3-.4,1.6-.1.4-.3.7-.5.8-.1.2-.3.3-.5.3-.2,0-.4.1-.6.1-.2,0-.5,0-.9,0-.4,0-.8,0-1.2,0,0-.2,0-.3,0-.6,0-.2-.1-.4-.2-.6.4,0,.8,0,1.1,0,.4,0,.6,0,.8,0,.1,0,.3,0,.4,0,0,0,.2,0,.2-.1.1-.1.2-.3.4-.7.1-.3.2-.9.3-1.5s.2-1.5.3-2.6v-.2ZM326.1,2.9h1.1c-.1.5-.2,1.1-.4,1.7-.1.6-.3,1.1-.4,1.6l-1.1-.2c.1-.4.2-.9.4-1.5.1-.6.2-1.1.3-1.6ZM327.3,5.8h1.1c-.1.6-.2,1.1-.4,1.7-.1.6-.2,1.1-.4,1.5h-1.1c.1-.5.3-1.1.4-1.6.1-.6.2-1.1.3-1.7h0Z"/>
      <path class="st1" d="M331.5,13.2h14.3v1.2h-14.3v-1.2ZM332.2,3.3h12.7v1.2h-12.7v-1.2ZM333,8h11.3v1.2h-11.3v-1.2ZM336.6.9l1-.7c.3.2.7.5,1.1.8.4.3.7.6,1.1.9.3.3.6.6.8.8l-1,.8c-.2-.2-.4-.5-.8-.8-.3-.3-.7-.6-1-1-.4-.3-.7-.6-1.1-.9ZM337.9,4.3h1.3v9.5h-1.3V4.3Z"/>
      <path class="st1" d="M350.6,5.1c.5,0,.9.1,1.2.3.4.2.6.5.9.9s.3.8.3,1.2-.1.9-.3,1.2c-.2.4-.5.7-.9.9-.4.2-.8.3-1.2.3s-.9-.1-1.2-.3c-.4-.2-.7-.5-.9-.9-.2-.4-.3-.8-.3-1.2s.1-.9.3-1.2.5-.7.9-.9c.4-.2.8-.3,1.2-.3h0ZM350.6,9.1c.5,0,.8-.2,1.1-.5.3-.3.5-.7.5-1.1s0-.6-.2-.8c-.1-.2-.3-.4-.6-.6-.2-.1-.5-.2-.8-.2s-.5,0-.8.2c-.2.1-.4.3-.6.6-.1.2-.2.5-.2.8s0,.6.2.8.3.4.6.6c.2.1.5.2.8.2h0Z"/>
    </g>
  </g>
</svg>