<?xml version="1.0" encoding="UTF-8"?>
<svg id="_圖層_1" data-name="圖層_1" xmlns="http://www.w3.org/2000/svg" version="1.1" viewBox="0 0 412 43">
  <!-- Generator: Adobe Illustrator 29.4.0, SVG Export Plug-In . SVG Version: 2.1.0 Build 152)  -->
  <defs>
    <style>
      .st0 {
        fill: #3e3a39;
      }
    </style>
  </defs>
  <path class="st0" d="M130.1,22.7c-.5.4-1.1,0-.8-.5.7-1.2,1.3-2.5,2.1-4.2h-3.7v21.5c0,2-2,3.4-3.7,2-1.6-1.3-3.5-2-4.8-2.5-.5-.2-.5-.7,0-.7,1.1,0,4.4,0,4.7,0,.2-.1.2-.2.2-.4v-19.9h-5.9c-.7,0-1-.5-1.7-2.4h9.4c-.3-.2-.6-.5-.9-.9-1.3-2-2.9-4.6-4.1-6.1-.3-.4,0-1.1.6-.7,1.2.7,2.5,1.4,3.8,2.3,1.6-1.8,3.3-3.9,4.1-5.3h-10.3c-.8,0-1.1-.6-1.8-2.3h12.1c.9,0,1.3,0,2.2-.9l1.8,1.7c.9.8.7,1.1,0,1.8-2.1,1.8-4.6,4.1-7,5.8.5.4,1.1.9,1.4,1.4,1,1.2.6,2.7-.2,3.3h3.1c.8,0,1.3-.2,2-.9l1.9,1.6c1,.8.9,1.1.2,1.8-1.4,1.4-3.3,3.4-4.7,4.6h0ZM144.2,36.5c-3.3,2.2-8.6,4.6-12.5,5.4-.8.2-1-.5-.4-.8,3.5-1.8,8.4-5.1,10.9-7.7l1.9,1.7c.8.7.7,1,.1,1.4h0ZM135,2.6h18.4c.9,0,1.4-.6,2.1-1.4.9.8,1.8,1.5,1.8,2.2s-.7,1.6-2.3,1.6h-7.2c-.7,1.3-1.8,3.1-2.7,4.6h4.1c.9,0,1.4-.3,2-1.1l2.9.9c2,.6.7,1.8.7,2.6v20c0,2.2-1.8,2.7-3.6,2.3v-1.7h-10.6c-.1,1.9-1.8,2.4-3.6,2.2V8.4l2.6.5c.9.2,1.1.4,1.1.7h2.5c.5-1.8.9-3.2,1.2-4.6h-7.5c-.7,0-.9-.6-1.8-2.3h0ZM140.6,11.9v4.6h10.6v-4.6h-10.6ZM140.6,23.4h10.6v-4.6h-10.6v4.6ZM151.2,30.3v-4.6h-10.6v4.6h10.6ZM154.8,40.9c-2.2-2.1-4.9-4.4-6.6-5.8-.4-.3,0-.9.5-.7,4,1.3,6.5,2.4,8,3.5,2.9,2.1,1.2,5.9-2,3Z"/>
  <path class="st0" d="M169.6,29.3c-1.8,3.6-3.7,7.6-5.9,10.2-.5.5-1,0-.8-.5,1.2-3.1,2.6-7.8,3.8-12.4l2.2,1.1c1.1.5,1.2.7.8,1.6ZM174.9,22.6v17.2c0,1.7-1.7,2.6-3.6,2.2v-18.3c-1.8.6-3.6,1.1-5.1,1.6-1.3.4-1.5.2-3.3-2.8,1.4-.1,2.8-.3,4.1-.5,2.2-2.6,4.4-5.9,6.3-9.5,1.1-2,1.6-3.1,2.4-5.1l2.2,1.6c.9.7.9.9.4,1.7-.7,1.1-1.4,2-2.7,3.7-2.1,2.6-4.3,5.4-6.3,7.2,2.9-.4,5.4-.8,7.5-1.2-.5-1.1-.8-2.3-1.2-3.2-.2-.6.3-.8.7-.6,2.2,1.8,3.6,3,4.6,5,1.5,2.7-1.3,5.4-2.8,2.3-.3-.6-.6-1.4-.9-2.2-.7.2-1.6.5-2.4.7h0ZM164.1,8.9c-.4-.5.1-1,.7-.6.9.5,1.9,1.1,2.8,1.8,1.4-2.5,2.9-6,4.1-9.6l1.9,1.2c1.3.8,1.3,1,.8,1.7-1.9,2.8-3.9,5.4-5.8,7.4.6.6,1.2,1.2,1.7,1.8,1.8,2.6-1.2,4.8-2.7,2.3-1.2-2-2.6-5-3.5-6.1h0ZM181.6,32.5c1.6,3.5-1.9,5.8-3.1,2.1-.7-2.2-1.5-5.7-2-7.5-.2-.6.4-1,.7-.6,1.7,1.8,3.5,4.1,4.4,6h0ZM201.5,11.6c0,22.5-1.9,28-5.7,30.2-.9.5-2.1.5-2.8,0-1.1-.8-2-1.7-4.5-2.8-.4-.2-.2-.7.3-.6,5.4.4,5.7.4,6.6-1.7,2.2-4.7,2.4-14.2,2.4-25.2h-12c-1.6,2.8-3.3,5.1-4.9,6.8-.5.5-1,0-.7-.6,1.6-3.1,2.8-5.8,3.9-8.8.9-2.6,1.8-5.1,2.6-8.1l2.5,1.4c1,.5.9.8.5,1.7-.8,1.8-1.6,3.5-2.4,5.1h8.2c1.1,0,1.7-.4,2.3-1.3,0,0,0,0,.2,0l2.6,1c2.3.9.8,2.2.8,3h0ZM189.5,26.9c-1.3-2.5-2.9-5.9-4.2-8.6-.2-.5.1-1,.7-.6,2.6,1.9,5,4,6.3,6.4,1.7,3.1-1.3,5.7-2.8,2.8h0Z"/>
  <path class="st0" d="M248.1,9.3c-1.3,1.2-3.8,3.4-5,4.2-.5.4-1,0-.7-.6.5-.9,1.1-2.2,1.9-3.8h-28.8c-.1,1.1-.3,2.2-.5,2.9-1.5,4.7-6.2,2.3-4-.1,1.1-1.2,2.9-3.8,3.6-6.2.1-.5.9-.4.9,0v1.2h6.1c-.3-.2-.6-.5-.8-.9-.8-1.4-1.5-2.8-2.4-4.1-.3-.4,0-.9.6-.6,1.7.7,3.5,1.3,4.3,2.5,1,1.3.6,2.6-.2,3.2h4.7V.6l2.8.5c.6,0,.8.3.8.6v5.2h3.8c1.1-1.7,2.2-4.1,3-6.1l2.1,1.6c.9.7,1,1,.4,1.4-.6.5-2.1,1.9-3.5,3.1h6.6c.7,0,1.1-.2,1.8-.8l2,1.6c1.1.8,1,1.2.5,1.7h0ZM226.7,37.9c-1.8.8-6.9,3.2-14.3,4-.8,0-.9-.7-.3-.9,6.1-2.2,10-4.2,12.6-6.2l1.8,1.6c1,.9.7,1.2.1,1.4h0ZM217,19l3,.6c.5,0,.7.4.7.5h0c0,0,16.2,0,16.2,0,.7,0,1.2-.4,1.8-1l3.1.8c1.7.5.6,1.6.6,2.4v11.5c0,1.8-1.7,2.3-3.7,2v-1.3h-17.9c-.3,1.5-2,2-3.7,1.8v-17.3h0ZM235.7,18.9v-1.2h-12.4c-.5,1.3-2.1,1.6-3.5,1.3v-8.8l3,.6c.5,0,.6.3.7.6h10.4c.7,0,1.3-.3,1.8-1l3,.8c1.7.5.7,1.6.7,2.2v3.4c0,1.9-2.1,2.3-3.7,2.1h0ZM220.7,22.3v2h17.9v-2h-17.9ZM238.6,26.4h-17.9v1.9h17.9v-1.9ZM238.6,32.3v-1.9h-17.9v1.9h17.9ZM235.7,15.6v-2.2h-12.2v2.2h12.2ZM243.1,41.7c-3.6-1.9-6.5-3.7-9.8-5.2-.6-.3-.5-1,.4-.9,5.3.9,8.8,2,10.5,2.9,4,2,2.5,5.1-1.1,3.3h0Z"/>
  <path class="st0" d="M262.5,29.8c-1.2,4.8-3.3,9.3-6.9,11.9-.5.4-1.2.1-.6-.7,2-3.2,3.5-7.4,4.3-11.5,1-5.7,1-16.3.7-28.2l3,.7c.6.1.8.5.8.6h0s22.1,0,22.1,0c1,0,1.5-.3,2.1-1.1l3,.9c1.9.6.6,2,.6,2.8v4.9c0,1.8-1.8,2.5-3.6,2.1v-1.2h-24.2v4.6c0,6.9-.4,10.7-1.3,14.1h0ZM295.3,39.1c0,1.2-1,1.7-2.5,1.7h-29.9c-.7,0-.8-.5-1.7-2.5h15.4v-4.5h-9c-.7,0-.9-.5-1.8-2.4h10.8v-5.4l2.9.5c.6.1.9.4.9.7v4.1h6.4c.9,0,1.4-.4,2.1-1.4.9.8,1.8,1.7,1.8,2.2,0,1.1-.9,1.5-2.4,1.5h-7.9v4.5h11c.9,0,1.4-.5,2.2-1.5,1,1,1.8,1.7,1.8,2.3h0ZM263.8,5.1v3.6h24.2v-3.6h-24.2ZM271.4,23.6c4.7-.2,9.8-.5,13.6-1-1.2-1.2-2.4-2.3-3.2-3-.6-.5-.1-1,.4-.8,3.2,1.1,7.1,2.9,8.6,4.6,2.3,2.7.1,6.1-2.2,3.2-.6-.8-1.5-1.7-2.4-2.7-4.6,1.3-14.1,2.6-18.3,3.1-1.4.2-1.6-.3-3.2-3.2,1.3,0,2.6,0,4.1,0,1.9-1.9,3.8-4,5.7-7h-8.8c-.7,0-.8-.5-1.8-2.3h24.9c1,0,1.4-.5,2.1-1.4,1,.8,1.8,1.7,1.8,2.2,0,1.1-.9,1.5-2.4,1.5h-11.2c-2,2.4-5.1,5.1-7.7,6.9h0Z"/>
</svg>