<?xml version="1.0" encoding="utf-8"?>
<!-- Generator: Adobe Illustrator 27.0.0, SVG Export Plug-In . SVG Version: 6.00 Build 0)  -->
<svg version="1.1" id="圖層_1" xmlns="http://www.w3.org/2000/svg" xmlns:xlink="http://www.w3.org/1999/xlink" x="0px" y="0px"
	 viewBox="0 0 400 16" style="enable-background:new 0 0 400 16;" xml:space="preserve">
<style type="text/css">
	.st0{fill:#C9A063;}
</style>
<path class="st0" d="M135.5,3.7h-4.9c0,0.1,0,0.2,0,0.3c0,0.8-0.4,1.5-1.2,1.5c-0.4,0-0.7-0.2-0.7-0.6c0-0.3,0.2-0.5,0.5-0.7
	c0.5-0.2,0.9-0.8,0.9-1.5l0.3,0c0.1,0.2,0.1,0.4,0.2,0.6h4.9V2.1h-5.2l-0.1-0.4h9.7l0.8-1l1.5,1c-0.1,0.2-0.3,0.3-0.8,0.3h-4.7v1.2
	h5.1l0.7-0.7l1.3,1.2C143.7,4,143.5,4,143.2,4c-0.3,0.4-0.9,0.9-1.4,1.2l-0.2-0.1c0.1-0.3,0.3-1,0.3-1.4h-5.2V7
	c0,0.1-0.4,0.3-1.1,0.3h-0.2L135.5,3.7L135.5,3.7z M135.7,13.7c-0.1,0.2-0.3,0.3-0.7,0.3h-3.9v1.2c0,0-0.1,0.5-1.2,0.5V7.2l1.3,0.6
	h2.5l0.5-0.6l1.4,1c-0.1,0.1-0.3,0.2-0.6,0.3v1.8c0,0-0.4,0.4-1.2,0.4v-0.5h-2.7v1.5h2.4l0.6-0.8l1.2,0.8c-0.1,0.2-0.3,0.3-0.7,0.3
	h-3.6v1.6h2.6l0.7-0.9L135.7,13.7z M130.8,6.5l-0.1-0.4h2.5l0.5-0.6l1.1,0.7c-0.1,0.2-0.3,0.3-0.7,0.3L130.8,6.5L130.8,6.5z
	 M133.6,4.1l1.1,0.7c-0.1,0.2-0.3,0.3-0.7,0.3h-3l-0.1-0.3h2.1L133.6,4.1L133.6,4.1z M133.9,8.2h-2.7v1.6h2.7V8.2z M141.6,10.6
	l1.2,1.1c-0.1,0.1-0.3,0.2-0.7,0.2c-0.5,0.7-1.1,1.2-1.8,1.7c1,0.3,2.1,0.6,3.3,0.7l0,0.2c-0.5,0.1-0.8,0.5-0.9,1.1
	c-1.3-0.3-2.5-0.8-3.4-1.4c-1.3,0.6-2.8,1.1-4.5,1.4l-0.1-0.3c1.5-0.4,2.8-0.9,3.9-1.6c-0.6-0.6-1.2-1.2-1.6-2.1h-1l-0.1-0.3h4.8
	L141.6,10.6L141.6,10.6z M142.2,10.2c0,0.1-0.6,0.4-1,0.4H141v-0.5h-4.5l-0.1-0.3h4.6V8.2h-4.4l-0.1-0.3h4.4l0.5-0.7l1.5,1
	c-0.1,0.1-0.3,0.2-0.6,0.3L142.2,10.2L142.2,10.2z M137.6,6.5l-0.1-0.4h2.6l0.6-0.7l1.2,0.8c-0.1,0.2-0.3,0.3-0.7,0.3L137.6,6.5
	L137.6,6.5z M137.5,11.7c0.5,0.6,1.1,1.1,1.9,1.6c0.6-0.4,1-1,1.4-1.6H137.5L137.5,11.7z M140.4,4.1l1.1,0.7
	c-0.1,0.2-0.3,0.3-0.7,0.3h-3.1l-0.1-0.3h2.2L140.4,4.1L140.4,4.1z"/>
<path class="st0" d="M148.3,2.1c0.2-0.4,0.6-0.6,1-0.6c0.9,0,1.8,0.6,1.8,1.1c0,0.3-0.3,0.4-0.5,1.1c-0.1,0.6-0.3,1.2-0.5,1.8
	c0.4-0.1,1-0.2,1.6-0.2c2.2,0,2.7,1.3,2.7,3.6c0,2.3-0.8,6-2.8,6c-0.4,0-0.6-0.3-0.7-0.8c-0.1-0.4-1-1.1-1.9-1.9l0.2-0.3
	c1.1,0.7,2,1.2,2.5,1.2c0.9,0,1.6-2.7,1.6-4.5c0-1.7-0.2-2.6-1.6-2.6c-0.4,0-1.3,0.1-1.8,0.3c-0.7,2.5-1.9,5.5-2.8,7.3
	c-0.3,0.6-0.6,1-1,1c-0.4,0-0.6-0.3-0.6-1c0-0.4,0.4-0.9,0.7-1.2c0.7-0.9,2-3.8,2.6-5.9c-0.4,0.1-1,0.3-1.4,0.5
	c-0.2,0.1-0.4,0.4-0.7,0.4c-0.8,0-1.3-0.9-1.3-1.5c0-0.4,0.3-0.7,0.5-0.8l0.1,0c-0.1,0.4,0.2,0.9,0.8,0.9c0.6,0,1.4-0.2,2.2-0.3
	c0.1-0.5,0.3-1.2,0.4-1.7c0.1-0.4,0.1-0.8,0.1-1c0-0.5-0.2-0.8-0.8-0.8C148.6,2.1,148.5,2.2,148.3,2.1L148.3,2.1L148.3,2.1z
	 M155,1.8c1.8,0.6,2.5,1.4,2.5,1.9c0,0.3-0.2,0.5-0.4,0.5c-0.3,0-0.4-0.2-0.5-0.5c-0.2-0.5-0.8-1.3-1.6-1.8L155,1.8z M155.2,4.3
	c2.8,0.7,4,2.9,3.9,4.6c0,0.8-0.3,1.3-0.8,1.3c-0.3,0-0.7-0.1-0.7-0.7c0-2-0.5-4-2.7-4.9L155.2,4.3L155.2,4.3z M156.8,0.8
	c1.8,0.6,2.5,1.4,2.5,1.9c0,0.3-0.2,0.5-0.4,0.5c-0.3,0-0.4-0.1-0.5-0.4c-0.2-0.5-0.8-1.3-1.7-1.8L156.8,0.8z"/>
<path class="st0" d="M165.9,6.1h-3v9c0,0-0.1,0.5-1.3,0.5V1.2l1.3,0.6h2.8l0.5-0.7l1.4,1c-0.1,0.1-0.3,0.2-0.6,0.3v4
	c0,0-0.3,0.4-1.2,0.4V6.1L165.9,6.1z M165.9,2.2h-3v1.6h3V2.2z M162.9,5.7h3V4.1h-3V5.7z M173.8,1l1.6,1.1c-0.1,0.1-0.4,0.3-0.7,0.3
	v11.3c0,1-0.2,1.6-1.7,1.8c0-1.1-0.4-1.2-1.4-1.3v0c-0.2,0.1-0.4,0.3-0.4,0.7c-1.8-0.8-2.5-2.3-2.8-3.5h-0.1
	c-0.4,1.5-1.4,2.7-4.3,3.6l-0.2-0.3c2.2-0.9,3-2,3.3-3.3H164l-0.1-0.4h3.3c0.1-0.5,0.1-1.1,0.1-1.7h-3L164.2,9h4.4
	c0.3-0.6,0.7-1.5,0.9-2.2l1.6,0.6c-0.1,0.2-0.3,0.2-0.6,0.2c-0.3,0.4-0.9,1-1.4,1.4h1.2l0.6-0.8l1.2,0.8c-0.1,0.2-0.3,0.3-0.7,0.3
	h-2.8c0,0.6-0.1,1.1-0.2,1.7h2.1l0.7-0.8l1.3,0.9c-0.1,0.2-0.3,0.3-0.7,0.3h-2.9c0.4,1,1.4,1.9,3.4,2.5l0,0.1h1.1
	c0.2,0,0.2-0.1,0.2-0.2V6.1h-3.2v0.3c0,0-0.2,0.4-1.2,0.4V1.3l1.3,0.6h3L173.8,1L173.8,1z M165.4,6.9c1.3,0.4,1.8,1,1.8,1.4
	c0,0.4-0.3,0.7-0.6,0.7c-0.2,0-0.3-0.1-0.5-0.2c-0.1-0.6-0.4-1.3-0.9-1.7L165.4,6.9L165.4,6.9z M173.4,2.2h-3.2v1.6h3.2V2.2z
	 M170.2,5.7h3.2V4.1h-3.2V5.7z"/>
<path class="st0" d="M194.3,12.9l1.7,1.2c-0.1,0.2-0.3,0.3-0.8,0.3h-11.7v0.8c0,0.1-0.4,0.5-1.1,0.5h-0.2v-14l1.5,0.6h9.2l0.9-1.1
	l1.6,1.1c-0.1,0.2-0.3,0.3-0.8,0.3h-11.1V14h9.9L194.3,12.9L194.3,12.9z M193.2,3.9c-0.1,0.1-0.2,0.2-0.4,0.2c-0.1,0-0.1,0-0.2,0
	c-0.7,1.4-1.4,2.6-2.3,3.7c2.3,1.5,3.1,2.9,3.1,3.7c0,0.4-0.2,0.7-0.5,0.7c-0.2,0-0.4-0.1-0.5-0.2c-0.5-0.9-1.4-2-2.8-3.2
	c-1.6,1.9-3.5,3.4-5.5,4.4l-0.2-0.2c1.6-1.1,3.3-2.8,4.8-4.9c-1.2-0.9-2.7-1.9-4.3-2.7l0.1-0.2c2,0.7,3.6,1.4,4.8,2.1
	c0.8-1.2,1.5-2.6,2.1-4.1L193.2,3.9L193.2,3.9z"/>
<path class="st0" d="M210.4,7.3l1.6,1.1c-0.1,0.2-0.3,0.3-0.8,0.3h-5.4c0.6,2.3,1.9,4.3,4.3,5.2c0.1,0.1,0.2,0.1,0.3,0.1
	c0.1,0,0.2-0.1,0.3-0.2c0.2-0.3,0.5-1,0.7-1.6l0.2,0l-0.2,2c0.4,0.4,0.6,0.6,0.6,0.8c0,0,0,0.6-0.8,0.6c-0.4,0-1-0.2-1.5-0.4
	c-3-1.3-4.5-3.6-5.1-6.4h-4.3v4.8c1.6-0.2,3.5-0.3,5.5-0.6l0,0.3c-1.6,0.5-4,1.1-7.3,1.9c-0.1,0.2-0.2,0.3-0.4,0.4l-0.9-1.7
	c0.4,0,1.1-0.1,1.8-0.1V1.2l1.5,0.6h8.1l0.6-0.7l1.6,1.1c-0.1,0.1-0.3,0.3-0.7,0.3v3.4c0,0-0.3,0.4-1.3,0.4V5.5H206
	c-0.1,0.1-0.2,0.1-0.5,0.1c0,0.9,0.1,1.9,0.3,2.8h3.8L210.4,7.3z M208.8,2.1h-8.5v3h8.5V2.1z M200.3,8.4h4.2
	c-0.2-0.9-0.3-1.9-0.3-2.9h-3.9V8.4z"/>
<path class="st0" d="M216.8,2.3c0.1-0.3,0.4-0.6,0.9-0.6c0.9,0,2.1,0.4,2.1,1.1c0,0.2-0.1,0.3-0.2,0.5c-0.2,0.3-0.4,2.6-0.4,3.3
	c1.5-0.4,4.1-1.1,4.9-1.3c0.3-0.1,0.4-0.2,0.6-0.3c0.2-0.2,0.3-0.4,0.5-0.4c0.4,0,1.8,1,1.8,1.3c0,0.2-0.2,0.3-0.5,0.4
	c-0.2,0.1-0.3,0.1-0.4,0.3c-0.6,0.9-1.9,2.6-3.3,3.6l-0.3-0.2c1.3-1.6,2.1-3.7,2.1-3.9c0-0.1,0-0.1-0.1-0.1c-0.1,0-2.8,0.7-5.3,1.6
	c0,0.9-0.1,1.7-0.1,2.6c0,2.9,0.3,3.2,2.5,3.2c1.2,0,2.5-0.1,3.2-0.5c0.8,0.2,1.6,0.4,1.6,0.9c0,0.5-0.7,0.6-1.6,0.7
	c-0.8,0.1-2.7,0.1-3.5,0.1c-2.6,0-3.4-1-3.4-3.9c0-0.7,0-1.7,0-2.6c-1.4,0.5-1.8,0.6-2.1,0.9c-0.1,0.1-0.3,0.3-0.6,0.3
	c-0.6,0-1.6-0.9-1.6-1.7c0-0.4,0.2-0.8,0.3-0.8c0.1,0.8,0.9,0.9,1.2,0.9c0.6,0,1.2-0.2,2.8-0.6c0-0.6,0.1-2.9,0.1-3.2
	C218,2.8,218,2.3,216.8,2.3L216.8,2.3L216.8,2.3z"/>
<path class="st0" d="M229.5,2.8c1.9,0.2,4.6,1.1,4.6,2.6c0,0.4-0.3,0.7-0.8,0.7c-0.3,0-0.7-0.4-0.9-0.7c-0.5-0.7-1.6-1.8-3.1-2.3
	L229.5,2.8z M241.9,4c-2,4.6-5.5,7.6-9.4,9.5c-0.8,0.4-0.7,0.8-1.1,0.8c-0.7,0-1.9-1.1-1.9-2c0-0.3,0.2-0.6,0.4-0.8
	c0.1,0.6,0.6,1,1.1,1c1.2,0,7.5-3.3,10.5-8.7L241.9,4L241.9,4z"/>
<path class="st0" d="M243.5,8.8c3-2.5,4.5-5.8,4.5-6.5c0-0.4-0.6-0.6-1-0.6c0.1-0.3,0.4-0.5,0.8-0.5c0.7,0,2.1,0.6,2.1,1.1
	c0,0.2-0.2,0.3-0.3,0.4c-0.1,0.1-0.3,0.2-0.4,0.6c-0.1,0.3-0.2,0.5-0.4,0.8c0.1,0,0.3,0,0.4,0c0.5,0,2.3-0.1,3.2-0.2
	c0.3-0.1,0.4-0.1,0.6-0.3c0.1-0.1,0.4-0.3,0.4-0.3c0.3,0,1.5,1,1.5,1.3c0,0.2-0.2,0.3-0.4,0.4c-0.2,0.1-0.4,0.2-0.5,0.4
	c-0.4,1-1.3,2.7-1.9,3.6c0.6,0.4,1.7,1.1,1.7,1.9c0,0.4-0.3,0.7-0.7,0.7s-0.7-0.4-0.9-0.7c-0.2-0.3-0.6-0.5-0.9-0.8
	c-1.5,1.8-4,3.8-7.2,4.9l-0.2-0.3c2.7-1.2,5.1-3.4,6.4-5.3c-0.8-0.5-1.9-1.1-3.4-1.6l0.1-0.3c1.5,0.2,3,0.6,3.8,1
	c1.3-2,1.9-3.8,1.9-3.9c0-0.1,0-0.1-0.1-0.1c-0.6,0-3.3,0.5-3.7,0.5c-0.2,0-0.5-0.1-0.7-0.2c-1.1,1.6-2.4,3.1-4.6,4.3L243.5,8.8
	L243.5,8.8z"/>
<path class="st0" d="M267.1,7.5c1.1,0,1.7-0.1,1.9-0.1c0.8,0,1.9,0.3,1.9,0.7c0,0.3-0.4,0.5-1,0.5c-0.6,0-3.4-0.1-4.1-0.1
	c-1.8,0-5.7,0-6.5,0.3c-0.2,0.1-0.4,0.2-0.7,0.2c-0.7,0-1.8-1.1-1.8-1.7c0-0.4,0.1-0.7,0.3-0.9l0.1,0c0.2,0.9,0.9,1,2.5,1L267.1,7.5
	L267.1,7.5z"/>
</svg>
