<?xml version="1.0" encoding="UTF-8"?>
<svg id="_圖層_1" data-name="圖層_1" xmlns="http://www.w3.org/2000/svg" version="1.1" viewBox="0 0 340 14">
  <!-- Generator: Adobe Illustrator 29.4.0, SVG Export Plug-In . SVG Version: 2.1.0 Build 152)  -->
  <defs>
    <style>
      .st0 {
        fill: #a8a8a8;
      }
    </style>
  </defs>
  <path class="st0" d="M.9.3h5.5c3,0,4.4,1.3,4.4,3.1s-.9,2.7-3.3,3.1c2.9.3,4,1.6,4,3.4s-1.4,3.6-5.3,3.6H.9v-.6l1.8-.2c0-1.8,0-3.6,0-5.5v-.9c0-1.8,0-3.6,0-5.4H.9V.3ZM4.6,6.3h1c2.2,0,3.4-1.1,3.4-2.9s-.9-2.5-3.1-2.5h-1.3c0,1.8,0,3.6,0,5.4ZM4.7,12.9h1.5c2.2,0,3.5-1,3.5-3s-1.2-3-3.8-3h-1.2c0,2.2,0,4.1,0,6Z"/>
  <path class="st0" d="M12.7.3h5.7c2.9,0,4.6,1.2,4.6,3.4s-1.1,2.9-3.5,3.3c1.6.3,2.1,1,2.5,2.5l.9,3.3h1.7v.7c-.5.1-1,.2-1.7.2-1.3,0-1.9-.4-2-1.3l-.8-2.9c-.4-1.5-.8-2.1-2.4-2.1h-1.3c0,1.9,0,3.7,0,5.5l1.8.2v.6h-5.6v-.6l1.8-.2c0-1.8,0-3.6,0-5.4v-1c0-1.8,0-3.6,0-5.4h-1.8V.3h0ZM16.4,6.7h1.7c2,0,3.1-1.3,3.1-3s-1-2.8-3.1-2.8h-1.6c0,1.8,0,3.6,0,5.8h0Z"/>
  <path class="st0" d="M32.5,12.9l2-.2-1.2-3.7h-4.5l-1.2,3.7,1.7.2v.6h-4v-.6l1.5-.2L31,.2h1.2l4.3,12.6h1.6v.7h-5.4v-.6ZM29,8.5h4.1l-2.1-6.4-2,6.4Z"/>
  <path class="st0" d="M41.1,2v6c0,0,0,4.7,0,4.7l2.2.2v.6h-4.7v-.6l1.7-.2V1.1h0c0,0-1.7-.2-1.7-.2V.3h3.4l7.1,10.6v-4.8s0-5,0-5l-2.2-.2V.3h4.7v.6l-1.8.2v12.5h-.9l-7.9-11.6h0Z"/>
  <path class="st0" d="M53.1.3h5.5c4.1,0,6.6,2.4,6.6,6.6s-2.6,6.6-6.9,6.6h-5.2v-.6l1.8-.2c0-1.8,0-3.6,0-5.7v-.5c0-1.9,0-3.7,0-5.5h-1.8V.3ZM58.2,12.9c3.3,0,5-2.2,5-6s-1.8-6-4.9-6h-1.5c0,1.8,0,3.7,0,5.6v.5c0,2.1,0,4,0,5.8h1.4Z"/>
  <path class="st0" d="M71.7,6.9C71.7,2.6,74.5,0,77.7,0s6,2.5,6,6.9-2.7,6.9-6,6.9-6-2.5-6-6.9ZM81.7,6.9c0-3.4-1.3-6.3-4-6.3s-4,2.8-4,6.3,1.4,6.3,4,6.3,4-2.8,4-6.3Z"/>
  <path class="st0" d="M92.3.3h4.4v.5l-1.6.2-4.2,12.6h-1l-4.4-12.6h-1.5V.3h5.5v.6l-2,.2,3.5,10.4,3.3-10.4-2-.2V.3h0Z"/>
  <path class="st0" d="M106.2.9h-4.7c0,1.8,0,3.6,0,5.5h3l.2-1.9h.7v4.3h-.7l-.2-1.8h-3c0,2.1,0,3.9,0,5.8h5l.6-2.7h.8v3.4h-10.1v-.6l1.8-.2c0-1.8,0-3.6,0-5.4v-1c0-1.8,0-3.6,0-5.4h-1.8V.3h9.7v3.3c.1,0-.7,0-.7,0l-.6-2.7Z"/>
  <path class="st0" d="M109.6.3h5.7c2.9,0,4.6,1.2,4.6,3.4s-1.1,2.9-3.5,3.3c1.6.3,2.1,1,2.5,2.5l.9,3.3h1.7v.7c-.5.1-.9.2-1.7.2-1.3,0-1.9-.4-2.1-1.3l-.8-2.9c-.4-1.5-.8-2.1-2.4-2.1h-1.3c0,1.9,0,3.7,0,5.5l1.8.2v.6h-5.6v-.6l1.8-.2c0-1.8,0-3.6,0-5.4v-1c0-1.8,0-3.6,0-5.4h-1.8V.3h0ZM113.3,6.7h1.7c2,0,3.1-1.3,3.1-3s-1-2.8-3.2-2.8h-1.6c0,1.8,0,3.6,0,5.8h0Z"/>
  <path class="st0" d="M121.7.3h11v3.5c.1,0-.7,0-.7,0l-.6-2.9h-3.3c0,1.8,0,3.6,0,5.5v.9c0,1.8,0,3.6,0,5.4l2,.2v.6h-6v-.6l2-.2c0-1.8,0-3.6,0-5.4v-1c0-1.8,0-3.7,0-5.5h-3.3l-.6,2.9h-.8V.3h.2Z"/>
  <path class="st0" d="M142.1.3h4.7v.6l-1.8.2v7.2c0,3.8-1.7,5.5-4.7,5.5s-4.8-1.5-4.8-5.4v-2c0-1.8,0-3.6,0-5.4h-1.7V.3h5.5v.6l-1.9.2c0,1.8,0,3.6,0,5.4v1.8c0,3.3,1.2,4.5,3.4,4.5s3.6-1.4,3.5-4.8V1.1s-2.2-.2-2.2-.2V.3Z"/>
  <path class="st0" d="M148.1.3h5.7c2.9,0,4.6,1.2,4.6,3.4s-1.1,2.9-3.5,3.3c1.6.3,2.1,1,2.5,2.5l.9,3.3h1.7v.7c-.5.1-1,.2-1.7.2-1.3,0-1.9-.4-2.1-1.3l-.8-2.9c-.4-1.5-.8-2.1-2.4-2.1h-1.3c0,1.9,0,3.7,0,5.5l1.8.2v.6h-5.6v-.6l1.8-.2c0-1.8,0-3.6,0-5.4v-1c0-1.8,0-3.6,0-5.4h-1.8V.3h0ZM151.7,6.7h1.7c2,0,3.1-1.3,3.1-3s-1-2.8-3.2-2.8h-1.6c0,1.8,0,3.6,0,5.8h0Z"/>
  <path class="st0" d="M169.5.9h-4.7c0,1.8,0,3.6,0,5.5h3l.2-1.9h.7v4.3h-.7l-.2-1.8h-3c0,2.1,0,3.9,0,5.8h5l.6-2.7h.8v3.4h-10.1v-.6l1.8-.2c0-1.8,0-3.6,0-5.4v-1c0-1.8,0-3.6,0-5.4h-1.8V.3h9.7v3.3c.1,0-.7,0-.7,0l-.6-2.7h0Z"/>
</svg>