<?xml version="1.0" encoding="UTF-8"?>
<svg id="_圖層_1" data-name="圖層_1" xmlns="http://www.w3.org/2000/svg" version="1.1" viewBox="0 0 600 201">
  <!-- Generator: Adobe Illustrator 29.4.0, SVG Export Plug-In . SVG Version: 2.1.0 Build 152)  -->
  <defs>
    <style>
      .st0 {
        fill: #3d3a39;
      }

      .st1 {
        fill: #801b1f;
      }
    </style>
  </defs>
  <path d="M377.2,75.4c-4.6,4.1-9.2,8.2-13.9,12.2-3.4,2.8-5.5,5.3-2.6,10.2,6.5,10.7,5.4,12-7.2,13-13.5,1-26.1,5.4-38.3,10.9-7.1,3.2-11.9.5-11.5-6.3,11,3.8,19.8-3.1,29.3-6.1,1.2-.4,1.6-3.5,2.9-6.8-5.7.6-10.1.7-14.4,1.6-4.1.9-8,2.5-11,3.5-4.2-8.4-8.4-16.6-12.4-24.6,9.6-2.2,16.4,3.6,17.9,16.6,4.1.5,8.4,1.4,7.8-4-3.1-1.6-5.4-2.8-7.6-4,1.5-1.8,3.1-3.4,4.4-5.3.9-1.4,1.5-3,2.2-4.5-4.8-1-8.7-1.8-12.7-2.6,0-.6.1-1.2.2-1.8,1.2-.2,2.4-.5,3.6-.6,5.5-.4,6.9-3.1,5.3-8.1-2-6.3-3.8-12.7-5.5-19.1-.4-1.6-.5-3.3-1-6.3,8.4,7.5,14.9,14,12.3,25.2-.2,1.1,2.4,3.9,3.9,4,2.7.2,5.5-1.1,8.2-1.7-1-13.7,4.2-27.2-3.9-39.4,12.1-2.3,19.7,7.9,16.3,22.1-1.2,4.8-1.8,9.8-2.8,15.6,11.2-2.4,21.4-8.5,30.7,1v5.4h0ZM353.8,84c1.4-2.7,3-5.8,4.9-9.4-13.4-1.2-14.9-.3-13.6,7,2.9.8,5.5,1.5,8.7,2.4h0ZM335.3,76.7c-3,.7-5.8,1.4-9.2,2.2.8,2.6,1.4,5,2.1,7.4,5.4-1.1,9.6-2.4,7.1-9.5h0ZM351.4,102.2c-.2-.7-.4-1.3-.7-2h-8.9c-.3,2.1-.5,4.1-.8,6.8,3.9-1.8,7.1-3.3,10.4-4.8Z"/>
  <path d="M233.2,87.4c12,1.3,22.4-3.1,32.6-8.6,6.1-3.3,12.3-6.5,18.7-9,2.5-1,6-.6,8.5.5,1,.4.5,4.5.4,6.8,0,1-1.1,2.2-.8,3,2,4.8.9,8.9-1.8,13.2-1.2,1.9-1.2,4.5-2.1,8,3-2.1,4.6-3.3,6.3-4.5.3.2.5.5.8.7-1.2,2.2-2.4,4.4-3.7,6.5-7.5,12.3-3.1,25.7-3.8,38.7-.4,7.8-1.2,15.7-1.8,23.5h-5.5c-3.6-10-7.2-20.1-10.8-30.1.7-.3,1.3-.5,2-.8,2.1,2.9,4.1,5.8,6.2,8.7.5-.2,1-.3,1.6-.5v-21.9c-4.6,5.9-8.7,11.2-12.7,16.6-4,5.5-8.8,8.5-15.6,5.2-2.2-1-5.7-2.6-5.8-4,0-3.7.5-8.1,2.5-11.1,3.3-4.8,8.4-8.4,11.9-13.1,5.7-7.7,10.6-15.9,15.9-23.9-21.2,9.6-32.8,6-43.1-1.2v-2.7Z"/>
  <path d="M347.9,125.6c-6.4.7-11.4,1.2-16.4,1.7-.2-.5-.4-1-.6-1.5,1.9-.9,3.7-2,5.6-2.7,4.9-1.9,9.8-4.3,14.9-5.3,3.5-.7,7.4.7,11.2,1.1-1,2.9-1.2,6.6-3.2,8.5-5.2,4.9-5.5,11.3-7,17.5-1.1,4.4-2.8,8.7-4.3,13.4,1.8-.4,5-1.5,8.1-1.5,4.9,0,9.9.6,14.8,1.7,1.3.3,2.1,3.1,3.2,4.7-2.1,1.1-4.6,3.6-6.1,3.1-18.2-6.1-35.5,2-53.1,3.2-4.7.3-9.4,1-14.1,1.1-5.4,0-6.8-2.9-5.1-8.6,8.7,8.7,17.2,1.7,25.6,1.3-1.2-4.2-2.3-8-3.7-12.6,4.6,1.2,7.2,1.9,10.1,2.7,0,0,0,.7.2,1.3.8,2.6,1.6,5.1,2.4,7.7,2.5-2,5.6-3.6,7.3-6.1,2.4-3.6,3.7-7.9,5.8-12.7-8.1,1-15.5,1.3-22.6,3.1-4.6,1.1-5.8-.7-6.6-4-1.2-5.1-2.1-10.3-3.2-15.5.7-.4,1.4-.8,2.1-1.2,3.1,4.5,6.8,8.7,9,13.6,1.4,3,1.6,4.3,5.5,2.9,8.4-2.9,14.9-7.6,20.3-16.7h0Z"/>
  <path d="M268.5,41.4c8.5-1.6,15.4,1.1,21.4,5.5,1.6,1.2,1,5.2,1.5,7.9-2.2,0-5.1.9-6.6-.2-5.7-4.1-10.9-8.8-16.2-13.2h0Z"/>
  <path d="M153.5,84.1c3.1-.9,6.7-1.8,8-5.3-.4-2.2-1.8-2.2-3.1-3.6-1.8,0-.9-2.7-3.1-1.8-2.7-4-5.8,0-9.4-.9-8-.5-13.8,5.8-20.5,7.6l-6.2.9c-.9-1.8.4-3.1,1.3-4.5.4-8.5,4-16,7.1-23.2.9-2.2,3.1-3.6,3.6-5.8-1.3-2.7-3.6-4.5-5.8-6.2-1.3,0-2.7-3.6-4-.9-2.2-.5-3.6,1.8-5.8,2.2-4,1.3-7.6,4.5-12,5.3-.9.9-2.7,1.8-1.3,3.1,4,1.8,3.1,7.1,3.6,10.7-.5,3.6.9,7.6-.9,10.7-.4,8-5.3,15.6-3.1,23.6.9,2.7,3.6,4,5.8,3.1,3.6-1.8,7.1-2.7,10.7-3.6,5.3-.9,10.3-5.3,14.7-3.1-1.3,4.5-2.2,9.4-5.8,12.9-.9,4.5-5.4,6.2-8.5,8.9-1.8,2.7-7.1,0-7.1,4,2.2,4-.5,8.9,2.7,11.6,3.1,3.1,8,0,10.7-.9.4,2.2-2.2,3.1-3.6,5.3.9,3.6-4,4.5-4.5,8-4.5,6.7-11.2,10.3-17.4,13.8-.9,2.2-2.2,4.5-1.8,6.7,1.8,3.6,4.9,3.1,7.6,4.5,1.3,0,3.1,0,4.5-.9,3.1.9,4.9-2.2,7.6-3.1,3.1-3.1,5.4-7.6,9.4-9.8l14.3,8,2.7.4c3.6-2.2,6.2-5.4,6.7-9.4-2.2-5.4-8.9-3.6-12.9-4.5-2.7.9-5.3-.4-7.6,1.3-.9,0-1.3-.9-1.8-1.8,5.4-6.2,5.8-14.7,8.9-21.8,1.8-2.7,5.8-2.7,8.5-2.2,3.6-1.8,7.1-2.2,10.7-4,2.2-.9,5.4-2.2,4.5-5.3,0-3.1-4-4-6.2-5.4-1.3-.4-2.7,2.2-4,0-4,.4-7.1,3.1-10.7,4-.5-5.3,3.1-9.4,2.7-14.7.9-5.8,7.1-9.8,11.1-14.3h0Z"/>
  <path d="M221.7,125.1c-4,2.2-8.9-1.8-12.9-2.7-.5,0-1.8.9-2.2,0,4-6.2,14.7-4,16.9-12.9,1.3-6.2,4.9-13.8,1.3-20.1-2.7-2.2-6.7-4-9.8-1.8-3.1,2.7-6.2.4-9.4.4-7.1,2.2-14.3,4.5-20.1,9.4-2.7-1.3-.9-4.9-2.7-6.2-2.2-.4-3.1,1.8-4.9,3.1-3.1,0-3.6,3.1-6.2,3.6,0,1.3-1.8,2.7-.4,4.5.9.9,2.2-.4,2.2-1.3,1.3-.4,2.7-1.3,3.6,0,1.8,6.7-4.9,8.5-6.7,13.8-2.7,1.8-.9,6.7-1.3,10.2,4,2.7,4.5,12,10.7,8.9,6.7-1.3,4-8,5.8-12.5-1.3-3.1-.4-6.2-1.3-8.9,3.1-3.1-1.8-6.2.9-9.8,7.6-6.7,18.7-11.6,29-10.3,4,1.3,1.8,5.3,1.8,8.5,2.2,2.7-1.3,6.2,0,8.9-.5,1.3-1.8,2.2-2.7,2.7-4.5-1.8-3.1,4-6.7,4-3.1,3.6-8.9,4-11.6,7.6-1.3,2.7-.4,4.9.9,7.1,3.1-.9,3.1,3.1,6.2,1.8,3.6,3.1,8.9.9,12,4.9,3.6,0,5.8-2.2,8.9-3.6-.9-3.1,1.3-4.5,1.8-7.1-.5-1.8-2.2-.9-3.1-2.2h0Z"/>
  <path d="M450.7,15.7c3,1,6.1,0,9.6.8.8-.5,1.7-1,2.8-.9.5-1.2,1.9-.7,2.8-1.4,1.1.8,2.1-1.2,3.3-1.5l.6-2.4c-.1-1.4.2-2.4.1-3.5-.7-1.9-2.2-3.4-3.6-4-1.5,1.1-2.4-1.4-3.8-.6-.2-1.5-1.9-1.2-2.5-.9-1-.2-.2.2-.6.8-.6-.4-.2-.7-.2-.8-2,.1-4.1-.5-5.8.2-1.5-.3-2.9.2-4.1-.2-1.4.3-2.6-1.1-3.9-.3-.7-.5-1.1-1.4-1.9-1-.5,0-.2.5.1.8-.3.9.7,1.3.8,2.5.5.5.5,1.7,1.5,2.6,1.3,2.8-2.8,3.2-3.6,5.5-1.2.1-2,.9-2.7,2h3c2.6.4,5.1,1.6,8.1,2.1h0Z"/>
  <path d="M417.9,102.9c.5-.9-.2-1.9.6-2.4.5-1.8.2-3.7,1.2-5-.5-3.2,1.5-5.5,1.2-8.2,0-1.1.1-2.2,0-2.8,0-2-.9-3-.5-4.5-.9-1.1.2-2.7-.9-3.2-.3,0-.5,0-.4.5-.8-.6-.5-1.4-.3-1.7-1.1-1,.2-2.1-.7-2.5-1.6-.9-1.2-2.3-2-3.1,0-2.8-2.7-4.7-2.1-7.2.4-1.3.6-2.6,2-2.9.6-2,2.9-2.3,4.3-3.5,1.6-2.1,4-3.6,6.5-4.2,2.2-.1,3.5-1.9,5.7-1.9.8-.7,2.1-.4,3.2-.7,1.9-.5,4.1-1.1,6.1-1.4,1.1-.2,1.9-1.9,3.2-1.1,2.7-2.1,6.3-2.1,9.8-2.6,2.4-1.3,5.2-1.6,7.8-2.7,1.6-.5,2.9-2,5.1-1.4,1-1.6,2.8.1,3.9-1.5l.3.3c1.9-.4,4.3-1,6.5-1.4,1-.3,2.5-.7,3.7-.2,3.2-1.8,7.1-1.3,10.3-3.4.4-1.8,1.3-3.9.4-5.2-1.3-1.6-1.4-3.8-2.9-4.3-2.1-2.2-4.6-3.1-7.1-3.4-1.2-.5-2.6-.6-3.6,0-1-.8-1.8,0-2,.8-1.5-.9-2.7.5-4,.9-1.4,1.4-3.6.9-4.7,2.6-1.8.5-3.7.9-5.1,2-.6.2-1.9.6-2.7,1.2-1.9.7-4.3.3-5.5,2.1l-.4-.4c-1.1.4-2.4.2-3.1,1.2-3.4.5-6.2,2.3-9.4,2.9-1,.7-2.3.5-3.3,1.3-1.8.7-4.9,0-5.2,2.7-.2-.3-.4-.4-.2-.4-.2-.8-.7-.6-1-.6-2.5.4-5,1-7.4,1.8-1.7-.3-3,1.3-4.3,1.1-.9.5-1.9,0-2.6.5-2-.3-3.5.2-5.3.7-.7-.6-1.3.2-1.6-.4-2.1.9-4.6-1.1-6.3.2-.1,1,1.4.8,1.4,2.2.5.1.6,1.5,1.7,1.4.2.4.8.8.9,1.8,1.6.7,2.5,2.1,4.4,2.9,1.1,1.1,3.2.2,4.6,1.9,0,0,.1.5-.1.9-1.8,2.2-4.1,4-6.2,6-2.2,2.3-3.6,4.6-4.8,7.7,0,.2.3.6,0,1.2-.3-.4-.5-.5-.4-.5v.6c-1.3,1-.6,2.3-1.1,4-.1,1.4-.9,3.2-.5,5.3-.6,1.4-1.4,3.5-.6,5.5-1.2,3.2-.9,7.1-1,10.7-.6.7,0,1.8-.5,2.8,0,1.6-.5,3.1-.6,4.9-.6,2.7-.3,5.5-.9,8.8.3,1.9-1.3,3.2-1,5.3-.8,3.2-2.1,6.3-1.9,10.1l-.5.6c-.2,4-2.2,7.5-2.8,11.7-1.3.6-.2,2.4-1.3,3.5.5,1.9-1.6,3.2-1.2,5.4-1.3.6-.9,2.6-2.4,3.2-1.8-.9-2.4-2.9-2.2-4.3-2-2.8-.9-6.6-2.4-9l-.4.4c-.7,1.8-1.4,3.7-.9,6.3-1.2,1.1.2,2.8-.7,4.3.1,1.4-.6,2.7-.2,4.4-.9.5-.2,1.8.1,3-.2,1.8,2.1,2.7,2.8,4.8.4,1,1.4,2.1,1.9,3.8-1.3,1.3.8,2.4.9,4.1,0,1.6,1.1,3.2,1.4,5.3.9.2.2,1.6,1.4,2,.8,1.9,3.2.8,4.9,1.4.9-1.5,2.7-.6,3.7-1.9.7-2.9,1.9-5.1,2.1-7.7.5-1.9.6-4.4,1.5-6.1-.5-2,1-3.5.6-5,.3-1.9.6-3.8,1.1-5.2,0-1.9,1.2-3.4,1.2-4.8.3-.8.2-1.8.4-2.1,1.1-2.7,1-5,2.4-7.1-.1-1.2.7-2.1.4-2.7.9-2.1.7-4.1,1.4-5.9,1.4-2.4,1.6-5.2,2.4-7.4.8-2.2.4-4.4,1.9-5.9.8-2.4,0-4.9,1.5-6.6-.5-1.8,1-2.9.6-4.3h0Z"/>
  <path d="M501.4,112.5c.5-5.3-2.5-10.3-6.5-12.5-.8-.5-1.6-.8-2-.9-5.8-1.1-11.9-.8-17.4.2-1,.6-2.2.6-3.1,1.2-.5-.7-1.1-.3-1.2.4-1.2-1-2.3.4-3.1-.4,0-2.4,1.8-4,1.9-6.1,0-2-2.6-2.7-1.8-4.6-.9-.9-2-1.1-2.2-1.8-.7-1.6-2-2.6-2.5-3.6,1-2.3,3.4-3.3,4.3-5.4,1.8-.7,1.6-2.8,2.3-3.9,0-1.2-1.2-1.1-1-1.8-1.8-1.1-1.5-3.2-3.1-3.7-1.1,0-.7-1.4-1.5-.9-.7-1.1-1.8-.8-2.2-1.6-2.6-1.2-4.9-2.6-7.4-2.9-1-.2-1.1-1.9-2-.8-1.6-1.5-3.2.3-4.7,0-2.6.2-5,.8-7.1,1.8-1.9.6-3.8.7-5.3,1.7,0,0,.1.2,0,.7-.2-.4-.5-.5-.3-.5-.3-.2-.6-.3-.6,0-.5.3-1.1,0-1.4.5l.6.5c2.2.6,4.6,1.3,6.7,3.2,1,0,1.8,1.1,3.1,1.4,1.1.8,3.1.7,4,2.7.2.6-.7,1.2-.6,2.3-3.1,4.6-8.1,7-12.5,10.2-.2.5-.3,1.1-.7,1.8.3,1.6-1.8,3.3-.1,5.1,0,.7.3,1.2.7,2.2.4,2.4,4,4.8,2.1,7.8-2.2.8-3.4,3.1-5.4,4.4-.1.5-.8.9-1.1,1.8-2.5,1.3-6.1,2.8-5.5,6.5-1.2,1.6.3,3.2.2,5.3,1.1,1.8,1.8,4.2,2.7,6.7.5,1.3,2.3,1,3.9,1.3.6.6,1.6-.2,2.2-.4,1.5.3,2-1.4,3.4-1.9.7-.4.8-1.8,1.9-1.6,2.1-2.9,6-3.7,8.2-6.6,1.4-.7,2.6-2.8,4.5-2.2.9-.9,2.9-.7,3.1-2.2,1.3-.3,1.4-2,2.9-2,2.5.4,3.7-2.4,6.1-2.5.4-.6,1.3.2,1.8-.5,2-1,4-.5,6.2-.7.5-.8,1.7-.7,2.9-.6,1.6-1.1,1.1,1.6,2.7,1.3.2.5,1.2,1,1.1,2.2-2,2.2-4.7,3.4-6.6,5.7-1.6,1.1-3.7,1.1-4.6,3.1-1.1-1.6-2.3.2-3.1-.4-.7.6-1.5-.3-2.1.4-2-.7-3.8-1.2-5.6-1.5-1.7.9-3.2.4-4.4,2.2-.9-.7-1.2.6-1.9.8-.5.4-1.4,1.2-.9,2l-.3.3c-.4-.1-.5-.4-.5-.3-.8,1.3-1.5,3.4-.2,5-.4,1,.5,1.4,1.3,2.5.4,0,.8.7,1.7.8,1.1.4,1.9,1,3.5.8.4.2,1.3,0,1.6,1.3.4-.3.9.4,1.5,0,0,.4.4.5,1,1.3.1.4.5.6.5,1.6.7.2.2,1.4,1.2,2.1,0,3.9-.6,8.3-.8,12.9.4,1.8-1.2,3.4-.5,5.6-1.1,1.9-.3,4.9-1.4,7,0,1.2-.6,2.7-1.1,4.2-1.4.8-1.6,2.9-2.2,4.8-1.8,2-3.2,5-5.7,6.6-1.3,1.4-2.9,2.6-4.6,3.8-1.1.8-2.8.8-3.6,2-3,2.1-6.7,2.3-9.8,3.9-4.8,1.6-9.8,2-14.8,3.1.9,1,2.8.9,4.5,1.7,1.1-.1,2,1,3.4.9,1.1.9,3,0,4.4,1.9.3-.3.8-.2,1.2-.3,2.4.4,4.9,0,7.7,1.2,3-.4,6.3,0,9.5-.8,1,0,2.6.6,3.9-.2.3-1.7,2.3-1,2.9-1.8,1.9-.6,3-2.4,5.2-2.7,1.3-.8,2-2.5,3.5-2.6.3-.8,1.4-1.3,1.6-2,1.2-.6.7-2.3,2-2.1.7-.7.7-2.1,2-1.9.5-1.8,1.3-3.5,2.5-4.4,2-1.4.8-4.2,2.6-5.5-.7-1.1.7-1.3.9-1.8-.3-1.3.7-1.9,1.1-2.7.2-1.1.5-2.2.4-2.8,1-1.4,0-3.4,1.2-4.3-.2-1.9-.4-3.8.2-5-.5-2.8-.6-5.6-.7-8,.5-4-1-7-.8-10.5-.8-1-.7-2-.7-2.7-1-1.6-1.5-3-2-4.2,0-1.3,1.3-1,1.8-1.8,1.6-.5,3.3-1.6,5.1-1.3.9-1,1.8-1.9,3.1-2.1,2.3-.7,4-2.6,5.7-4.1,1.1-.5,3-.8,3.7-2,1.4-.6,2.4-2.4,4.4-1.5,1.5-1.4,3.7-2,4.2-4.1-.6-2,1-3.4.6-4.9h0Z"/>
  <path class="st0" d="M179.8,174.8h1.5v5.4c0,2.3-1.1,3.1-2.8,3.1s-1,0-1.3-.2l.2-1.2c.2,0,.6.1.9.1.9,0,1.4-.4,1.4-1.8v-5.4h0Z"/>
  <path class="st0" d="M186.9,174.8v3.3h3.5v-3.3h1.5v8.4h-1.5v-3.7h-3.5v3.7h-1.5v-8.4h1.5Z"/>
  <path class="st0" d="M197.8,174.8v8.4h-1.5v-8.4h1.5Z"/>
  <path class="st0" d="M203.5,174.8v3.3h3.5v-3.3h1.5v8.4h-1.5v-3.7h-3.5v3.7h-1.5v-8.4h1.5Z"/>
  <path class="st0" d="M217.8,174.8h1.5v7.1h3.4v1.3h-5v-8.4Z"/>
  <path class="st0" d="M227.9,174.8v8.4h-1.5v-8.4h1.5Z"/>
  <path class="st0" d="M237.1,181.5c.5.3,1.2.5,2,.5s1.5-.5,1.5-1.1-.4-1-1.5-1.4c-1.4-.5-2.3-1.2-2.3-2.4s1.1-2.4,2.9-2.4,1.6.2,2,.4l-.4,1.2c-.3-.2-.9-.4-1.7-.4s-1.4.5-1.4,1,.5.9,1.6,1.4c1.4.6,2.2,1.3,2.2,2.5s-1,2.5-3.2,2.5-1.8-.2-2.3-.5l.3-1.3h0Z"/>
  <path class="st0" d="M248,183.1v-3.5l-2.6-4.9h1.7l1,2.1c.3.6.5,1.1.7,1.7h0c.2-.5.4-1.1.7-1.7l1-2.1h1.7l-2.8,4.8v3.5h-1.5,0Z"/>
  <path class="st0" d="M257.2,174.8v4.9c0,1.6.7,2.4,1.7,2.4s1.8-.8,1.8-2.4v-4.9h1.5v4.8c0,2.6-1.3,3.7-3.3,3.7s-3.2-1.1-3.2-3.7v-4.8h1.5,0Z"/>
  <path class="st1" d="M169.2,172.7h-8.2v12.3h8.2v-12.3Z"/>
</svg>