<svg width="38" height="268" viewBox="0 0 38 268" fill="none" xmlns="http://www.w3.org/2000/svg">
<g clip-path="url(#clip0_4_190)">
<path d="M1.45998 267.92H1.03998V256.13C1.03998 254.16 1.30998 252.42 1.84998 250.92C2.38998 249.41 3.11998 248.16 4.04998 247.16C4.97998 246.16 6.01998 245.41 7.18998 244.91C8.34998 244.41 9.57998 244.16 10.86 244.16C12.14 244.16 13.32 244.39 14.49 244.86C15.65 245.32 16.69 246.05 17.59 247.04C18.49 248.03 19.21 249.33 19.75 250.95C20.29 252.57 20.56 254.42 20.56 256.52C20.56 257.19 20.46 258.47 20.27 260.38H32.67C35.23 260.38 36.54 259.08 36.63 256.47H37.02V267.92H36.63C36.6 266.8 36.28 265.87 35.67 265.15C35.06 264.43 34.06 264.06 32.68 264.06H5.46998C4.63998 264.06 3.94998 264.19 3.38998 264.45C2.83998 264.71 2.43998 265.02 2.20998 265.37C1.96998 265.72 1.79998 266.11 1.68998 266.54C1.57998 266.97 1.49998 267.27 1.46998 267.43V267.92H1.45998ZM2.31998 260.38H19.26C19.49 259.13 19.6 257.89 19.6 256.67C19.6 254.34 19 252.37 17.81 250.75C16.61 249.13 14.4 248.32 11.16 248.32C8.48998 248.32 6.29998 249.03 4.57998 250.46C2.85998 251.88 1.99998 254.05 1.99998 256.94C1.99998 258.06 2.10998 259.21 2.31998 260.38Z" fill="black"/>
<path d="M1.55999 240.53V241.02H1.04999V228.57C1.04999 226.57 1.35999 224.87 1.97999 223.48C2.59999 222.09 3.37999 221.01 4.33999 220.23C5.28999 219.46 6.29999 218.9 7.34999 218.57C8.40999 218.24 9.44999 218.07 10.47 218.07C11.77 218.07 13.02 218.34 14.22 218.89C15.42 219.43 16.45 220.27 17.31 221.4C18.17 222.53 18.76 223.94 19.07 225.64H19.17C20.21 223.49 22.28 221.51 25.37 219.68L30.86 216.43C33.32 214.97 34.87 213.79 35.52 212.9C36.17 212.01 36.54 211.14 36.62 210.28H37.01V216.82C36.65 217.1 36.31 217.36 35.97 217.6C35.64 217.84 35.28 218.1 34.91 218.38C34.67 218.54 34.3 218.78 33.8 219.1C33.3 219.42 33.02 219.61 32.96 219.67L25.86 223.97C24.41 224.83 23.24 225.72 22.33 226.62C21.43 227.52 20.78 228.37 20.39 229.15C20 229.93 19.76 230.64 19.66 231.26C19.56 231.89 19.51 232.62 19.51 233.47H32.67C35.23 233.47 36.54 232.17 36.63 229.56H37.02V241.01H36.63C36.6 240.29 36.46 239.66 36.23 239.11C35.99 238.56 35.59 238.1 35.01 237.73C34.43 237.36 33.65 237.18 32.68 237.18H5.46999C4.03999 237.18 3.02999 237.53 2.43999 238.23C1.84999 238.93 1.55999 239.69 1.55999 240.52V240.53ZM18.55 233.47V231.42C18.55 229.27 18.24 227.51 17.62 226.13C17 224.75 16.12 223.76 14.97 223.14C13.82 222.52 12.42 222.21 10.76 222.21C9.37999 222.21 8.01999 222.49 6.68999 223.04C5.35999 223.59 4.24999 224.53 3.34999 225.86C2.44999 227.19 1.98999 228.97 1.98999 231.22C1.98999 232.13 2.05999 232.88 2.20999 233.47H18.54H18.55Z" fill="black"/>
<path d="M19.07 172.49C22.44 172.49 25.57 173.32 28.47 174.99C31.37 176.66 33.67 178.93 35.39 181.81C37.11 184.69 37.97 187.88 37.97 191.38C37.97 194.88 37.11 198.12 35.39 201.05C33.67 203.98 31.36 206.29 28.44 207.97C25.53 209.66 22.35 210.5 18.92 210.5C16.28 210.5 13.81 210 11.49 209C9.17 208 7.15 206.6 5.42 204.8C3.7 203 2.36 200.95 1.42 198.65C0.48 196.35 0 193.94 0 191.44C0 188.94 0.45 186.62 1.36 184.36C2.26 182.1 3.57 180.07 5.28 178.27C6.99 176.47 9.02 175.06 11.36 174.03C13.7 173 16.28 172.49 19.07 172.49ZM19.17 176.78C14.38 176.78 10.64 177.63 7.94 179.32C5.24 181.01 3.43 182.97 2.51 185.18C1.59 187.39 1.13 189.48 1.13 191.43C1.13 192.94 1.38 194.51 1.87 196.14C2.37 197.77 3.27 199.35 4.59 200.89C5.91 202.43 7.76 203.69 10.16 204.69C12.55 205.68 15.51 206.18 19.02 206.18C22.11 206.18 24.81 205.77 27.11 204.95C29.41 204.13 31.29 203 32.75 201.56C34.21 200.12 35.26 198.53 35.9 196.8C36.54 195.07 36.86 193.26 36.86 191.39C36.86 189.71 36.56 188.02 35.97 186.3C35.38 184.58 34.41 183.01 33.06 181.59C31.72 180.17 29.89 179.01 27.59 178.12C25.29 177.23 22.48 176.79 19.16 176.79L19.17 176.78Z" fill="black"/>
<path d="M36.62 167.97V167.48C36.62 166.6 36.27 165.82 35.58 165.15C34.89 164.48 33.92 164.14 32.66 164.14H5.51999C4.01999 164.14 2.97999 164.52 2.39999 165.28C1.80999 166.04 1.50999 166.94 1.46999 167.98H1.04999V156.48H1.46999C1.49999 157.49 1.79999 158.38 2.36999 159.17C2.93999 159.96 3.98999 160.34 5.51999 160.34H31.77C33.33 160.34 34.42 159.95 35.02 159.17C35.62 158.39 35.92 157.11 35.92 155.34V152.24C35.92 150.89 35.76 149.81 35.43 149C35.1 148.2 34.61 147.56 33.94 147.08C33.27 146.61 32.33 146.13 31.11 145.64V145.22L37.02 146.59V167.98H36.63L36.62 167.97Z" fill="black"/>
<path d="M19.07 105.18C22.44 105.18 25.57 106.01 28.47 107.68C31.37 109.35 33.67 111.62 35.39 114.5C37.11 117.38 37.97 120.57 37.97 124.07C37.97 127.57 37.11 130.81 35.39 133.74C33.67 136.67 31.36 138.98 28.44 140.66C25.53 142.35 22.35 143.19 18.92 143.19C16.28 143.19 13.81 142.69 11.49 141.69C9.17 140.69 7.15 139.29 5.42 137.49C3.7 135.69 2.36 133.64 1.42 131.34C0.48 129.04 0 126.63 0 124.13C0 121.63 0.45 119.31 1.36 117.05C2.26 114.79 3.57 112.76 5.28 110.96C6.99 109.16 9.02 107.75 11.36 106.72C13.7 105.69 16.28 105.18 19.07 105.18ZM19.17 109.47C14.38 109.47 10.64 110.32 7.94 112.01C5.24 113.7 3.43 115.66 2.51 117.87C1.59 120.08 1.13 122.17 1.13 124.12C1.13 125.63 1.38 127.2 1.87 128.83C2.37 130.46 3.27 132.04 4.59 133.58C5.91 135.12 7.76 136.38 10.16 137.38C12.55 138.37 15.51 138.87 19.02 138.87C22.11 138.87 24.81 138.46 27.11 137.64C29.41 136.82 31.29 135.69 32.75 134.25C34.21 132.81 35.26 131.22 35.9 129.49C36.54 127.76 36.86 125.95 36.86 124.08C36.86 122.4 36.56 120.71 35.97 118.99C35.38 117.27 34.41 115.7 33.06 114.28C31.72 112.86 29.89 111.7 27.59 110.81C25.29 109.92 22.48 109.48 19.16 109.48L19.17 109.47Z" fill="black"/>
<path d="M8.52002 67.82V68.21C6.18002 68.73 4.36002 70.11 3.06002 72.36C1.77002 74.61 1.12002 77.17 1.12002 80.05C1.12002 81.55 1.35002 83.15 1.82002 84.87C2.28002 86.59 3.13002 88.26 4.35002 89.89C5.57002 91.52 7.34002 92.87 9.66002 93.94C11.98 95.01 14.9 95.55 18.41 95.55C24.01 95.55 28.49 94.24 31.84 91.63C35.19 89.02 36.87 84.82 36.87 79.05C36.87 76.77 36.72 75.09 36.41 74.02C36.1 72.95 35.68 72.26 35.14 71.96C34.6 71.66 33.88 71.51 32.97 71.51H26.38C24.82 71.51 23.78 71.85 23.28 72.52C22.78 73.19 22.44 74.21 22.28 75.56H21.86V63.87H22.28C22.39 64.94 22.63 65.77 22.98 66.36C23.33 66.95 23.78 67.34 24.34 67.53C24.89 67.73 25.63 67.82 26.54 67.82H36.55C37.51 71.4 37.99 75.1 37.99 78.9C37.99 80.87 37.83 82.82 37.5 84.73C37.17 86.65 36.45 88.65 35.33 90.74C34.21 92.82 32.55 94.66 30.35 96.26C27.05 98.65 23.31 99.85 19.14 99.85C16.72 99.85 14.35 99.4 12.06 98.5C9.77002 97.6 7.71002 96.29 5.89002 94.59C4.08002 92.89 2.64002 90.81 1.59002 88.35C0.54002 85.89 0.0200195 83.17 0.0200195 80.17C0.0200195 79.01 0.10002 77.88 0.25002 76.78C0.40002 75.67 0.72002 74.02 1.19002 71.82C1.39002 70.96 1.48002 70.34 1.48002 69.96C1.48002 69.16 1.08002 68.58 0.28002 68.2V67.81H8.53002L8.52002 67.82Z" fill="black"/>
<path d="M37.01 26.17V33.71H31.05L30.95 33.83C33.38 34.87 35.15 36.43 36.27 38.51C37.39 40.58 37.95 42.75 37.95 45.02C37.95 47.58 37.34 49.87 36.12 51.92C34.9 53.96 33.39 55.46 31.6 56.42C30.33 57.1 29.01 57.54 27.63 57.71C26.25 57.89 24.83 57.98 23.35 57.98H5.46998C4.39998 57.98 3.48998 58.2 2.75998 58.63C2.02998 59.06 1.59998 60.09 1.46998 61.72H1.04998V50.42H1.46998C1.66998 52.08 2.14998 53.14 2.90998 53.59C3.66998 54.05 4.52998 54.27 5.46998 54.27H23.07C26.65 54.27 29.3 53.9 31 53.17C32.82 52.39 34.25 51.22 35.27 49.65C36.29 48.08 36.81 46.31 36.81 44.33C36.81 43.5 36.66 42.52 36.37 41.38C36.08 40.24 35.59 39.17 34.91 38.18C32.88 35.2 29.61 33.71 25.12 33.71H5.46998C4.47998 33.71 3.59998 33.94 2.82998 34.39C2.06998 34.85 1.60998 35.92 1.45998 37.61H1.03998V26.11H1.45998C1.53998 27.77 1.99998 28.84 2.84998 29.31C3.69998 29.78 4.54998 30.02 5.40998 30.02H32.66C33.6 30.02 34.35 29.86 34.89 29.54C35.43 29.22 35.82 28.78 36.05 28.22C36.28 27.66 36.47 26.97 36.61 26.16H37L37.01 26.17Z" fill="black"/>
<path d="M1.45998 22.68H1.03998V1.25H6.69998V1.59C3.68998 1.59 2.16998 3.61 2.16998 7.64V15.14H18.5V8.55C18.5 7.25 18.29 6.08 17.87 5.06C17.45 4.03 16.48 3.45 14.96 3.3V2.93H23.11V3.3C22.18 3.45 21.47 3.72 20.97 4.13C20.47 4.54 20.14 4.94 19.98 5.34C19.82 5.74 19.74 6.09 19.74 6.4C19.64 6.99 19.59 7.6 19.59 8.23V15.14H32.36C33.32 15.14 34.15 14.96 34.85 14.59C35.55 14.22 35.9 13.37 35.9 12.04V6.69C35.9 5.4 35.71 4.35 35.34 3.52C34.97 2.69 34.45 2.03 33.78 1.55C33.11 1.07 32.31 0.67 31.36 0.34V0L37 1.25V22.69H36.61V22.2C36.61 21.44 36.3 20.69 35.68 19.95C35.06 19.22 34.05 18.85 32.65 18.85H5.56998C4.45998 18.85 3.49998 19.1 2.68998 19.6C1.87998 20.1 1.46998 20.96 1.46998 22.2V22.69L1.45998 22.68Z" fill="black"/>
</g>
<defs>
<clipPath id="clip0_4_190">
<rect width="37.96" height="267.92" fill="white"/>
</clipPath>
</defs>
</svg>
