<?xml version="1.0" encoding="UTF-8"?>
<svg id="_圖層_1" data-name="圖層_1" xmlns="http://www.w3.org/2000/svg" version="1.1" viewBox="0 0 420 15">
  <!-- Generator: Adobe Illustrator 29.4.0, SVG Export Plug-In . SVG Version: 2.1.0 Build 152)  -->
  <defs>
    <style>
      .st0 {
        fill: #fff;
      }
    </style>
  </defs>
  <path class="st0" d="M159.7,13.4l2-.2-1.2-3.7h-4.5l-1.2,3.7,1.7.2v.6h-4v-.6l1.5-.2,4.2-12.5h1.2l4.3,12.6h1.6v.7h-5.4v-.6ZM156.1,8.9h4.1l-2.1-6.4-2.1,6.4Z"/>
  <path class="st0" d="M165.5,7.4c0-4.3,2.9-6.9,6.7-6.9s2.6.3,3.8,1v3s-.8,0-.8,0l-.6-2.9c-.6-.3-1.3-.4-2-.4-2.9,0-5,2.2-5,6.3s2.1,6.2,4.9,6.2,1.5-.1,2.2-.5l.6-2.8h.9v2.9c-1.2.7-2.4,1-3.9,1-3.9,0-6.7-2.5-6.7-6.8h0Z"/>
  <path class="st0" d="M178,7.4c0-4.3,2.9-6.9,6.7-6.9s2.6.3,3.8,1v3s-.8,0-.8,0l-.6-2.9c-.7-.3-1.3-.4-2-.4-2.9,0-5,2.2-5,6.3s2.1,6.2,4.9,6.2,1.5-.1,2.2-.5l.7-2.8h.8v2.9c-1.2.7-2.4,1-3.9,1-3.9,0-6.7-2.5-6.7-6.8h0Z"/>
  <path class="st0" d="M198.9,1.4h-4.7c0,1.8,0,3.6,0,5.5h3l.2-1.9h.7v4.3h-.7l-.2-1.8h-3c0,2.1,0,3.9,0,5.8h5l.6-2.7h.8v3.4h-10.1v-.6l1.8-.2c0-1.8,0-3.6,0-5.4v-.9c0-1.8,0-3.6,0-5.4h-1.8v-.7h9.7v3.3c.1,0-.7,0-.7,0l-.6-2.7h0Z"/>
  <path class="st0" d="M202.3,13.2v-2.8h.9l.6,2.7c.7.4,1.4.5,2.2.5,1.9,0,3.2-.9,3.2-2.6s-.6-2-2.5-2.7l-.8-.3c-2.2-.9-3.3-2.1-3.3-4s1.9-3.5,4.3-3.5,2.4.4,3.3,1v2.6h-.9l-.6-2.5c-.5-.3-1-.4-1.7-.4-1.7,0-2.8.8-2.8,2.3s.8,2.1,2.2,2.7l.8.3c2.7,1.1,3.6,2.2,3.6,4.1s-1.8,3.7-4.7,3.7-3-.5-3.9-1h0Z"/>
  <path class="st0" d="M212.5,13.2v-2.8h.9l.6,2.7c.7.4,1.3.5,2.2.5,1.9,0,3.2-.9,3.2-2.6s-.6-2-2.5-2.7l-.8-.3c-2.2-.9-3.3-2.1-3.3-4s1.9-3.5,4.3-3.5,2.4.4,3.3,1v2.6h-.9l-.6-2.5c-.5-.3-1-.4-1.7-.4-1.7,0-2.8.8-2.8,2.3s.8,2.1,2.2,2.7l.8.3c2.7,1.1,3.6,2.2,3.6,4.1s-1.8,3.7-4.7,3.7-3-.5-3.9-1h0Z"/>
  <path class="st0" d="M235.6.7h5.5v.6l-1.8.2c0,1.8,0,3.6,0,5.4v1c0,1.8,0,3.6,0,5.4l1.8.2v.6h-5.5v-.6l1.8-.2c0-1.8,0-3.6,0-5.8h-6.2c0,2.2,0,4,0,5.8l1.8.2v.6h-5.5v-.6l1.8-.2c0-1.8,0-3.6,0-5.4v-1c0-1.8,0-3.6,0-5.4l-1.8-.2v-.6h5.5v.6h-1.8c0,1.9,0,3.7,0,5.5h6.2c0-1.8,0-3.6,0-5.4h-1.8v-.7Z"/>
  <path class="st0" d="M251.1.7h4.7v.6l-1.8.2v7.2c0,3.8-1.7,5.5-4.7,5.5s-4.8-1.5-4.8-5.3v-2.1c0-1.8,0-3.6,0-5.4h-1.7v-.7h5.5v.6l-1.9.2c0,1.8,0,3.6,0,5.4v1.8c0,3.3,1.2,4.5,3.4,4.5s3.6-1.3,3.5-4.8V1.5s-2.2-.2-2.2-.2v-.6Z"/>
  <path class="st0" d="M257,.7h5.5c3,0,4.4,1.3,4.4,3.1s-.9,2.7-3.3,3.1c2.9.3,4,1.6,4,3.4s-1.4,3.6-5.3,3.6h-5.3v-.6l1.8-.2c0-1.8,0-3.6,0-5.5v-.9c0-1.8,0-3.6,0-5.4h-1.8v-.7h0ZM260.6,6.8h1c2.2,0,3.4-1.1,3.4-2.9s-.9-2.5-3.1-2.5h-1.3c0,1.8,0,3.5,0,5.4ZM260.7,13.3h1.5c2.2,0,3.5-1,3.5-3s-1.2-3-3.8-3h-1.2c0,2.2,0,4.1,0,6Z"/>
</svg>