<?xml version="1.0" encoding="UTF-8"?>
<svg id="_圖層_1" data-name="圖層_1" xmlns="http://www.w3.org/2000/svg" version="1.1" viewBox="0 0 412 22">
  <!-- Generator: Adobe Illustrator 29.4.0, SVG Export Plug-In . SVG Version: 2.1.0 Build 152)  -->
  <defs>
    <style>
      .st0 {
        fill: #333;
      }
    </style>
  </defs>
  <path class="st0" d="M21,4.9h6.8v1.1h-6.8v-1.1ZM22.4,8.5h11.2v9.6h-1.2v-8.5h-8.8v8.5h-1.1v-9.6h0ZM23,12.3h10v1.1h-10v-1.1ZM23,16.2h10v1.1h-10v-1.1ZM24.6,3.3h1.2v4.5h-1.2V3.3ZM27.4,8.9h1.2v8.1h-1.2v-8.1ZM28.3,4.9h6.8v1.1h-6.8v-1.1ZM30.1,3.3h1.2v4.5h-1.2V3.3Z"/>
  <path class="st0" d="M43,12.7l1,.4c-.5.6-1.1,1.2-1.8,1.8-.7.6-1.5,1.1-2.3,1.6-.8.5-1.6.8-2.4,1.1,0-.1-.1-.2-.2-.3,0-.1-.2-.2-.3-.4,0-.1-.2-.2-.3-.3.8-.2,1.6-.6,2.4-1,.8-.4,1.5-.9,2.2-1.4.7-.5,1.3-1.1,1.7-1.6h0ZM36.9,12.3h14.2v1.1h-14.2v-1.1ZM37,4.1h14v1.1h-14v-1.1ZM38,6.6h12v4h-12v-4ZM39.1,7.6v2h9.7v-2h-9.7ZM41.5,4.6h1.1v5.5h-1.1v-5.5ZM43.4,11h1.2v7.1h-1.2v-7.1ZM45,12.6c.4.6,1,1.1,1.7,1.7.7.5,1.4,1,2.2,1.4.8.4,1.6.7,2.4,1,0,0-.2.2-.3.3-.1.1-.2.2-.3.4,0,.1-.2.2-.2.3-.8-.3-1.6-.7-2.4-1.1-.8-.5-1.6-1-2.3-1.6-.7-.6-1.3-1.2-1.8-1.9l1-.4h0ZM45.2,4.6h1.1v5.5h-1.1v-5.5Z"/>
  <path class="st0" d="M53.9,13.5l1,.3c-.2.6-.5,1.2-.8,1.8s-.6,1.1-.9,1.6c0,0-.1-.1-.3-.2s-.2-.1-.3-.2c-.1,0-.2-.1-.3-.1.3-.4.6-.9.8-1.4.3-.6.5-1.1.6-1.7h0ZM52.9,5.5h.9v6.5h6.1v1h-7v-7.5ZM56,12.4h1.1v4.4c0,.3,0,.5,0,.6,0,.1-.2.3-.4.3-.2,0-.4.1-.7.1-.3,0-.6,0-1.1,0,0-.1,0-.3-.1-.5,0-.2-.1-.3-.2-.5.3,0,.6,0,.8,0h.5c.2,0,.2,0,.2-.2v-4.4ZM54.8,3.9h4.6v7.1h-4.6V3.9ZM55.7,4.8v1.2h2.7v-1.2h-2.7ZM55.7,6.8v1.3h2.7v-1.3h-2.7ZM55.7,8.8v1.3h2.7v-1.3h-2.7ZM57.8,13.8l.8-.4c.2.4.5.8.7,1.2.2.4.4.8.5,1.1l-.9.4c-.1-.3-.3-.7-.5-1.2-.2-.5-.4-.9-.6-1.2ZM61.1,13.2l1,.3c-.2.6-.5,1.2-.8,1.9-.3.7-.7,1.2-1,1.7-.1,0-.2-.1-.4-.2-.2-.1-.3-.2-.5-.2.3-.5.7-1,1-1.7.3-.6.5-1.2.7-1.8h0ZM65,3.2l.8.9c-.5.3-1,.7-1.7,1-.6.3-1.3.6-2,.8-.7.2-1.4.5-2.1.7,0-.1,0-.3-.1-.4,0-.2-.1-.3-.2-.4.6-.2,1.3-.4,2-.7.7-.3,1.3-.5,1.9-.8.6-.3,1.1-.6,1.5-.9ZM60.4,12.7c0,0,0-.2,0-.3,0-.1,0-.2-.1-.4,0-.1,0-.2-.1-.3.2,0,.4-.1.6-.3.2-.2.5-.4.8-.6.2-.1.4-.3.7-.6.3-.3.7-.6,1.1-1,.4-.4.8-.8,1.2-1.3.4-.5.8-.9,1.2-1.4l.9.6c-.8,1-1.7,1.9-2.6,2.8-.9.9-1.8,1.6-2.7,2.3h0c-.2,0-.3.1-.4.2-.1,0-.2.1-.3.2,0,0-.1.1-.1.2h0ZM60.4,9.5c0,0,0-.2,0-.3,0-.1,0-.2-.1-.4,0-.1,0-.2-.1-.3.1,0,.3,0,.4-.2.1-.1.3-.2.5-.4.1-.1.3-.3.6-.6.3-.3.6-.6.9-1,.3-.4.6-.8.9-1.2l.9.4c-.5.7-1,1.3-1.5,1.9-.5.6-1.1,1.1-1.6,1.5h0c-.1,0-.2.2-.3.2s-.2,0-.2.2c0,0,0,.1,0,.2h0ZM60.4,9.5v-.8s.6-.3.6-.3l3.6-.2c0,.1,0,.3,0,.5,0,.2,0,.3,0,.4-.8,0-1.5.1-2,.1s-.9,0-1.2.1c-.3,0-.5,0-.6,0-.1,0-.2,0-.3,0h0ZM60.4,12.7v-.8l.7-.4,5.5-.3c0,.1,0,.3,0,.5,0,.2,0,.3,0,.4-1,0-1.9.1-2.6.2-.7,0-1.3.1-1.7.1-.4,0-.8,0-1,0-.2,0-.4,0-.5,0-.1,0-.2,0-.3,0h0ZM63.1,12.1h1v4.8c0,.3,0,.5,0,.6,0,.2-.2.3-.4.3-.2,0-.4.1-.7.1-.3,0-.7,0-1.2,0,0-.1,0-.3-.1-.5,0-.2-.1-.3-.2-.5.3,0,.6,0,.9,0h.5c.1,0,.2,0,.2,0,0,0,0,0,0-.2v-4.8h0ZM64.9,13.4l.9-.3c.2.3.4.7.6,1.1.2.4.4.8.6,1.2.2.4.3.7.5,1l-.9.4c-.1-.3-.2-.6-.4-1s-.4-.8-.6-1.2c-.2-.4-.4-.8-.6-1.2h0ZM64.9,9.5l.9-.3c.2.4.4.7.7,1.1.2.4.4.8.6,1.2.2.4.3.7.4,1l-.9.4c0-.3-.2-.7-.4-1.1-.2-.4-.4-.8-.6-1.2-.2-.4-.4-.8-.6-1.2h0Z"/>
  <path class="st0" d="M71.3,3.3l1.2.3c-.2.9-.5,1.9-.8,2.7-.3.9-.7,1.7-1,2.5-.4.8-.8,1.5-1.2,2.1,0,0-.2-.1-.3-.2-.1,0-.3-.2-.4-.3s-.3-.2-.3-.2c.4-.5.8-1.2,1.2-1.9.4-.7.7-1.5,1-2.3.3-.8.5-1.7.7-2.5h0ZM70.8,6.5h5.2v1.2h-5.8l.6-1.2ZM71.9,7.1h1.2v10.9h-1.2V7.1ZM77.5,3.3l1.2.2c-.2.9-.5,1.8-.8,2.7-.3.9-.6,1.7-1,2.5-.4.8-.8,1.5-1.2,2,0,0-.2-.1-.3-.2-.1-.1-.3-.2-.4-.3-.1,0-.2-.2-.3-.2.4-.5.8-1.2,1.2-1.9.4-.7.7-1.5.9-2.3.3-.8.5-1.7.7-2.5h0ZM77.3,6.5h6v1.2h-6.6l.6-1.2ZM79.7,7h1.2v9.4c0,.4,0,.7-.1.9,0,.2-.3.4-.6.5-.2.1-.6.2-1,.2-.5,0-1,0-1.6,0,0-.2,0-.4-.2-.6s-.2-.5-.3-.6c.3,0,.7,0,1,0,.3,0,.6,0,.8,0h.5c.1,0,.2,0,.3,0,0,0,0-.1,0-.2V7h0Z"/>
  <path class="st0" d="M84.9,4.9h14.1v1.1h-14.1v-1.1ZM85.8,7.7h11.6v1.1h-10.3v9.2h-1.2V7.7ZM87.9,13.9h8.2v1h-8.2v-1ZM88.3,11.3h7.4v1h-7.4v-1ZM89.1,9.4l.9-.3c.2.3.4.6.6,1,.2.4.3.7.4.9l-1,.4c0-.3-.2-.6-.4-1-.2-.4-.4-.7-.6-1h0ZM91.3,3.3h1.3v5.2h-1.3V3.3ZM91.4,11.8h1.2v5.9h-1.2v-5.9ZM93.9,9l1,.3c-.2.4-.4.9-.7,1.3s-.5.8-.7,1.1l-.9-.3c.1-.2.3-.5.4-.8.1-.3.3-.6.4-.9.1-.3.2-.6.3-.8h0ZM97,7.7h1.2v8.9c0,.4,0,.6-.1.8,0,.2-.3.3-.5.4-.3,0-.6.1-1.1.2-.5,0-1,0-1.7,0,0-.2,0-.3-.2-.5,0-.2-.2-.4-.3-.5.3,0,.7,0,1,0h1.3c.2,0,.2,0,.3,0,0,0,0-.1,0-.3V7.7h0Z"/>
  <path class="st0" d="M103.6,3.2l1,.3c-.3.6-.6,1.3-1,1.9-.4.6-.8,1.2-1.3,1.7-.4.5-.9,1-1.4,1.5,0,0,0-.2-.2-.3,0-.1-.2-.3-.2-.4,0-.1-.2-.2-.2-.3.6-.5,1.3-1.2,1.8-2,.6-.8,1.1-1.6,1.4-2.5h0ZM100.7,16.4c.5,0,1-.2,1.6-.3.6-.1,1.3-.3,2-.4.7-.1,1.4-.3,2.1-.5v1c-.9.2-1.9.5-2.9.7-1,.2-1.8.4-2.6.6l-.3-1.1h0ZM101,10.2h5.4v1h-5.4v-1ZM101.3,12.3l.8-.2c.2.5.3,1,.4,1.5.1.5.2,1,.2,1.4l-.8.2c0-.4-.1-.9-.2-1.4-.1-.6-.2-1.1-.4-1.5h0ZM101.8,7.4h4.2v1h-4.2v-1ZM103.3,4.8l.6-.8c.4.2.8.5,1.1.8.4.3.7.6,1,.9.3.3.6.6.8.8l-.7.9c-.2-.3-.5-.5-.8-.9-.3-.3-.7-.6-1-.9s-.7-.6-1.1-.8h0ZM103.3,7.8h1v8.5l-1,.2V7.8ZM105.4,11.9l.9.3c-.1.5-.3,1-.4,1.6s-.3,1-.4,1.4l-.8-.2c0-.3.2-.6.3-.9,0-.4.2-.7.2-1.1s.1-.7.2-1h0ZM109.1,15.2l1.1.5c-.3.3-.7.6-1.1.9s-.8.6-1.2.9c-.4.3-.8.5-1.1.7,0,0-.1-.2-.3-.3-.1,0-.2-.2-.3-.3s-.2-.2-.3-.3c.5-.3,1.1-.6,1.7-.9.6-.4,1.1-.7,1.5-1.1ZM106.6,14h8.8v1h-8.8v-1ZM106.9,4.8h8v1h-8v-1ZM107.6,6.8h6.7v7.4h-1.1v-6.6h-4.6v6.6h-1v-7.4ZM108.1,10.4h5.8v.8h-5.8v-.8ZM108.1,8.7h5.7v.7h-5.7v-.7ZM108.1,12.1h5.8v.8h-5.8v-.8ZM110.3,3.3h1.1v4.2h-1.1V3.3ZM111.6,15.7l.9-.6c.3.2.7.5,1,.8s.7.5,1,.8c.3.2.6.5.8.7l-.9.8c-.2-.2-.5-.4-.8-.7s-.7-.6-1-.9c-.3-.3-.7-.6-1-.8h0Z"/>
  <path class="st0" d="M116.4,15.2c.6-.1,1.2-.3,2-.6s1.6-.5,2.4-.7v1.1c-.6.2-1.4.5-2.1.7-.8.2-1.4.4-2.1.6l-.3-1.1h0ZM116.6,4.4h4.3v1.1h-4.3v-1.1ZM116.8,9h4v1.1h-4v-1.1ZM118.3,5h1.1v9.9l-1.1.3V5ZM125.7,12.6l.8.4c-.4.4-.9.8-1.4,1.2-.6.4-1.2.7-1.8,1.1-.6.3-1.2.6-1.8.8,0-.1-.2-.3-.3-.4-.1-.2-.3-.3-.4-.4.6-.1,1.2-.3,1.8-.6.6-.3,1.2-.6,1.7-.9.5-.3,1-.7,1.3-1h0ZM121.5,8.1h9.7v1h-9.7v-1ZM122.1,3.9h8.5v3.4h-8.5v-3.4ZM122.6,9.9h7.6v3.3h-7.6v-3.3ZM123.1,18c0-.1,0-.3-.2-.5,0-.2-.2-.3-.3-.4.1,0,.2-.2.4-.3.1-.1.2-.4.2-.7v-1.6l1-.2v2.7c-.2.1-.4.2-.6.4-.1.1-.3.2-.4.3-.1.1-.2.2-.2.3h0ZM123.1,18v-.8c0,0,.4-.4.4-.4l3.3-.8c0,.1,0,.3,0,.5s0,.3,0,.4c-.8.2-1.4.4-1.8.5-.5.1-.8.2-1.1.3-.3,0-.5.1-.6.2-.1,0-.2,0-.3.1ZM123.1,4.7v1.7h1.5v-1.7h-1.5ZM123.6,10.8v1.5h5.4v-1.5h-5.4ZM125.5,4.7v1.7h1.6v-1.7h-1.6ZM127,12.8c.2.6.6,1.3,1,1.8.4.6.9,1,1.5,1.4s1.2.7,2,.9c-.1.1-.2.2-.4.4s-.2.4-.3.5c-1.2-.4-2.1-1-2.9-1.9-.8-.9-1.4-1.9-1.8-3l1-.2ZM130.1,13.5l.8.7c-.4.3-.9.5-1.4.8-.5.3-1,.5-1.4.7l-.6-.6c.3-.1.5-.3.9-.5.3-.2.6-.4.9-.6.3-.2.6-.4.8-.5ZM127.9,4.7v1.7h1.6v-1.7h-1.6Z"/>
  <path class="st0" d="M132.8,5.6h14.4v1.2h-14.4v-1.2ZM134.4,9h10.5v1.2h-9.3v6h-1.2v-7.2ZM138.6,3.5l1.2-.4c.2.4.5.8.7,1.2.2.4.4.8.5,1.2l-1.2.4c0-.2-.2-.5-.3-.7-.1-.3-.3-.6-.4-.9-.2-.3-.3-.6-.5-.8h0ZM139.3,6.4h1.2v11.6h-1.2V6.4ZM144.6,9h1.2v5.6c0,.3,0,.6-.1.8-.1.2-.3.3-.5.4-.3,0-.6.1-1.1.2-.5,0-1,0-1.7,0,0-.2,0-.4-.2-.6,0-.2-.2-.4-.3-.6.4,0,.7,0,1,0,.3,0,.6,0,.8,0h.5c.1,0,.2,0,.3,0,0,0,0-.1,0-.2v-5.6h0Z"/>
  <path class="st0" d="M148.6,16.1c.5,0,1.1-.2,1.8-.4s1.4-.3,2.2-.5c.8-.2,1.5-.4,2.3-.5v1.1c-1,.3-2.1.6-3.2.8-1.1.3-2.1.5-2.9.7l-.2-1.2ZM149.4,4h5.2v4.9h-5.2V4ZM149.4,10.4h1v5.8h-1v-5.8ZM150.5,5v2.8h3v-2.8h-3ZM151.7,8.4h1.1v7.3h-1.1v-7.3ZM152.1,11.2h2.7v1.1h-2.7v-1.1ZM161,4.9h.4c0,0,.8.3.8.3-.3,1-.7,1.9-1.2,2.7-.5.8-1.1,1.6-1.7,2.2-.6.7-1.3,1.2-2.1,1.7-.7.5-1.5.9-2.2,1.2,0-.1-.2-.3-.3-.5-.1-.2-.3-.3-.4-.4.7-.3,1.4-.6,2.1-1.1.7-.4,1.3-1,1.9-1.6.6-.6,1.1-1.3,1.6-2,.5-.7.8-1.5,1.1-2.4v-.2ZM157.5,3.3l1.1.3c-.2.7-.5,1.4-.9,2.1-.3.7-.7,1.3-1.1,1.9s-.8,1.1-1.3,1.5c0,0-.2-.2-.3-.3s-.2-.2-.4-.3c-.1-.1-.2-.2-.3-.2.7-.6,1.2-1.3,1.8-2.2s.9-1.8,1.2-2.8h0ZM156,12.2h6.3v5.7h-1.1v-4.7h-4v4.7h-1.1v-5.8ZM157.2,5.6c.2.6.5,1.2.9,1.8s.9,1.2,1.4,1.8c.5.6,1.1,1.1,1.8,1.6.7.5,1.4.9,2.2,1.2,0,0-.2.2-.3.3-.1.1-.2.2-.3.4,0,.1-.2.2-.2.4-.8-.4-1.6-.8-2.2-1.3-.7-.5-1.3-1.1-1.8-1.7-.5-.6-1-1.2-1.4-1.8s-.7-1.2-.9-1.8l.8-.7h0ZM156.5,16.3h5.3v1.1h-5.3v-1.1ZM157.2,4.9h4.2v1.1h-4.2v-1.1Z"/>
  <path class="st0" d="M165,15.6h13.9v1.2h-13.9v-1.2ZM165.9,4.9h12.1v1.2h-12.1v-1.2ZM167,10.1h9.8v1.2h-9.8v-1.2Z"/>
  <path class="st0" d="M180.5,14.2c.5,0,1.1-.1,1.8-.2.7-.1,1.4-.2,2.2-.3s1.6-.2,2.3-.4v1c-1.1.2-2.1.4-3.2.6-1.1.2-2.1.3-2.9.5l-.2-1.1ZM181.9,4.7l1.2.4v12.7h-1.2V4.7ZM186.1,3.2l1,.9c-.5.2-.9.4-1.5.6s-1.1.4-1.7.5c-.6.2-1.1.3-1.6.5,0-.1,0-.3-.2-.5,0-.2-.2-.3-.2-.5.5-.1,1-.3,1.5-.5.5-.2,1-.3,1.5-.5.5-.2.9-.4,1.2-.5ZM182.3,7.2h4.3v1.1h-4.3v-1.1ZM182.3,10.5h4.3v1.1h-4.3v-1.1ZM193,10.6h.4c0,0,.8.2.8.2-.3,1.4-.9,2.6-1.6,3.6-.7,1-1.5,1.7-2.5,2.3-1,.6-2,1.1-3.2,1.4,0-.1,0-.2-.2-.4s-.1-.2-.2-.4c0-.1-.2-.2-.2-.3,1.1-.3,2.1-.7,3-1.2.9-.5,1.7-1.2,2.3-2.1.6-.8,1.1-1.9,1.4-3.1v-.2h0ZM188.6,3.9h1.1v2c0,.5,0,1-.2,1.5-.1.5-.3,1-.6,1.5-.3.5-.7.9-1.3,1.3,0,0-.1-.2-.2-.3,0,0-.2-.2-.3-.3-.1,0-.2-.2-.3-.2.5-.4.9-.8,1.2-1.2.3-.4.4-.8.5-1.3,0-.4.1-.8.1-1.2v-1.9h0ZM187.5,10.6h5.8v1h-5.8v-1ZM189,11.5c.3.9.8,1.7,1.4,2.4s1.3,1.3,2.2,1.9c.8.5,1.8.9,2.8,1.1,0,0-.2.2-.3.3-.1.1-.2.2-.3.4,0,.1-.1.2-.2.3-1.6-.5-3-1.2-4.1-2.3-1.1-1.1-1.9-2.4-2.5-3.9l1-.3ZM189.3,3.9h3v1h-3v-1ZM191.9,3.9h1.1v4.1c0,.2,0,.4,0,.4,0,0,.1.1.2.1h1.1c.1,0,.2,0,.4,0,.1,0,.3,0,.4,0,0,.1,0,.3,0,.5,0,.2,0,.3,0,.5,0,0-.2,0-.4,0-.1,0-.3,0-.5,0h-1.2c-.4,0-.6,0-.8-.2-.2,0-.3-.3-.4-.5,0-.2-.1-.5-.1-.9V3.9h0Z"/>
  <path class="st0" d="M203.8,16.9c-.6,0-1.1,0-1.6-.2-.5-.1-.9-.4-1.2-.6-.3-.2-.7-.5-.9-.8l.8-.9c.3.3.7.7,1.2.9s1,.4,1.7.4.9,0,1.2-.3c.4-.2.6-.4.8-.7.2-.3.3-.7.3-1.1s-.1-.9-.3-1.2c-.2-.3-.6-.6-1.1-.8s-1.2-.3-2.2-.3v-1.1c.8,0,1.5,0,1.9-.3.5-.2.8-.4,1-.8.2-.3.3-.7.3-1.1s-.2-1-.5-1.3c-.3-.3-.8-.5-1.5-.5s-.9.1-1.3.3c-.4.2-.8.5-1.1.8l-.8-.9c.4-.4.9-.7,1.5-1,.5-.3,1.1-.4,1.8-.4s1.2.1,1.8.3c.5.2.9.5,1.2,1,.3.4.4,1,.4,1.6s-.2,1.3-.6,1.7c-.4.5-.9.8-1.5,1h0c.5.2.9.4,1.2.6.4.3.7.6.9,1,.2.4.3.9.3,1.4s-.2,1.3-.5,1.7c-.3.5-.8.8-1.4,1.1-.6.3-1.2.4-1.9.4h0Z"/>
  <path class="st0" d="M209.1,16.7v-.9c1.2-1.1,2.1-2.1,2.9-3,.8-.9,1.4-1.7,1.8-2.4.4-.7.6-1.4.6-2s0-.8-.2-1.2c-.1-.3-.4-.6-.7-.8-.3-.2-.7-.3-1.2-.3s-.9.1-1.3.4c-.4.3-.8.6-1.1,1l-.8-.8c.5-.5,1-1,1.5-1.3.5-.3,1.2-.5,1.9-.5s1.3.1,1.8.4c.5.3.9.7,1.2,1.2s.4,1.1.4,1.8-.2,1.4-.6,2.2c-.4.7-1,1.5-1.7,2.3-.7.8-1.5,1.7-2.4,2.6.3,0,.6,0,1,0,.3,0,.7,0,1,0h3.3v1.3h-7.4,0Z"/>
  <path class="st0" d="M220.5,16.7c0-1.1.1-2.1.3-3,.1-.9.3-1.8.6-2.5.3-.8.6-1.6,1-2.3s.9-1.5,1.4-2.3h-5.7v-1.3h7.3v.9c-.7.9-1.2,1.7-1.6,2.5-.4.8-.8,1.6-1,2.4s-.4,1.7-.5,2.6-.2,1.9-.2,3h-1.5,0Z"/>
  <path class="st0" d="M230.4,9.5h5.8v1.1h-5.8v-1.1ZM231.2,4h4.6v4.2h-4.6V4ZM231.9,9.9h1c-.1.5-.2,1.1-.3,1.7-.1.6-.2,1.1-.4,1.5h-1.1c.1-.5.3-1,.4-1.6.1-.6.2-1.1.3-1.7ZM232.1,12.2h2.9v1h-3.1l.3-1ZM234.5,12.2h1.1c0,.2,0,.4,0,.5,0,1-.1,1.9-.2,2.5s-.2,1.1-.3,1.5c0,.4-.2.6-.4.8-.1.1-.2.2-.4.3-.1,0-.3.1-.5.1-.2,0-.4,0-.7,0-.3,0-.6,0-.9,0,0-.2,0-.3,0-.5,0-.2-.1-.4-.2-.5.3,0,.6,0,.9,0h.6c.1,0,.2,0,.3,0s.2,0,.2-.1c.1-.1.2-.3.3-.6,0-.3.2-.8.2-1.4,0-.6.1-1.4.2-2.4v-.2h0ZM232.1,4.9v2.4h2.8v-2.4h-2.8ZM236.9,6.5h1.1v4.1c0,.6,0,1.2,0,1.8,0,.6-.1,1.3-.2,2s-.3,1.3-.5,2c-.2.6-.5,1.2-.9,1.7,0,0-.1-.1-.3-.2-.1,0-.2-.2-.3-.2-.1,0-.2-.1-.3-.2.4-.7.8-1.4,1-2.2.2-.8.3-1.6.4-2.4,0-.8,0-1.6,0-2.2v-4.1h0ZM239.3,12.6h1c0,.8-.1,1.6-.2,2.3-.1.7-.4,1.3-.7,1.8s-.8,1-1.3,1.3c0-.1-.2-.3-.3-.4-.1-.2-.2-.3-.4-.4.5-.3.9-.6,1.1-1.1.3-.4.4-1,.6-1.6.1-.6.2-1.3.2-2h0ZM237.5,6.5h7v1h-7v-1ZM238.3,9l4.8-.5v.9c.1,0-4.7.5-4.7.5v-.9h-.1ZM240,7.6h1.1v2.7c0,.2,0,.4,0,.4,0,0,.1.1.3.1h1.7c.1,0,.3,0,.5,0,.2,0,.3,0,.5,0,0,.1,0,.3,0,.5,0,.2,0,.3,0,.4-.1,0-.3,0-.4,0-.2,0-.4,0-.6,0h-1.9c-.3,0-.6,0-.8-.1-.2-.1-.3-.3-.4-.5,0-.2-.1-.5-.1-.8v-2.7ZM240.1,3.3h1.1v3.7h-1.1v-3.7ZM240.6,4.4h3.8v1h-3.8v-1ZM241.6,12.6h1v3.7s0,.1,0,.1c0,0,0,0,0,.1,0,0,.2,0,.4,0h.5c0,0,.2,0,.2,0,0,0,.1,0,.2,0,.1,0,.2-.2.2-.4,0-.1,0-.3,0-.6,0-.3,0-.6,0-1,0,0,.2.2.4.3.2,0,.3.2.5.2,0,.4,0,.7,0,1.1,0,.4,0,.6-.1.7,0,.2-.1.3-.2.4,0,.1-.2.2-.3.3,0,0-.2,0-.4.1-.2,0-.3,0-.5,0h-.9c-.2,0-.3,0-.5,0-.2,0-.3-.1-.4-.2-.1-.1-.2-.2-.2-.4,0-.2,0-.4,0-.8v-3.7h0ZM244.2,6.5h.3c0,0,.7.1.7.1-.1.5-.2,1-.3,1.5-.1.5-.2.9-.4,1.3l-.9-.2c.1-.3.2-.7.3-1.2,0-.5.2-.9.2-1.3v-.2h0Z"/>
  <path class="st0" d="M265.4,21.2V3.3h1v17.9h-1Z"/>
  <path class="st0" d="M318.5,19.9c-.7-1.2-1.3-2.5-1.7-3.8s-.6-2.8-.6-4.3.2-3,.6-4.3c.4-1.3,1-2.6,1.7-3.8l.9.4c-.7,1.1-1.2,2.4-1.5,3.7-.3,1.3-.5,2.6-.5,4s.2,2.7.5,4c.3,1.3.8,2.5,1.5,3.7l-.9.4Z"/>
  <path class="st0" d="M324.5,17c-.8,0-1.4-.2-2-.7-.5-.5-1-1.1-1.3-2-.3-.9-.4-2-.4-3.2s.2-2.3.4-3.2c.3-.9.7-1.5,1.3-2,.5-.5,1.2-.7,2-.7s1.4.2,1.9.7c.5.4,1,1.1,1.3,2,.3.9.4,1.9.4,3.2s-.1,2.4-.4,3.2-.7,1.6-1.3,2c-.5.5-1.2.7-1.9.7ZM324.5,15.8c.4,0,.8-.2,1.2-.5s.6-.9.8-1.6c.2-.7.3-1.6.3-2.7s0-2-.3-2.7c-.2-.7-.5-1.2-.8-1.5-.3-.3-.7-.5-1.2-.5s-.8.2-1.2.5c-.3.3-.6.8-.8,1.5-.2.7-.3,1.6-.3,2.7s0,2,.3,2.7.5,1.2.8,1.6.7.5,1.2.5Z"/>
  <path class="st0" d="M333.1,16.9c-.6,0-1.1,0-1.6-.2-.5-.1-.9-.4-1.2-.6-.4-.2-.7-.5-.9-.8l.8-.9c.3.3.7.7,1.2.9s1,.4,1.7.4.9,0,1.2-.3c.4-.2.6-.4.8-.7.2-.3.3-.7.3-1.1s-.1-.9-.3-1.2c-.2-.3-.6-.6-1.1-.8s-1.2-.3-2.2-.3v-1.1c.8,0,1.5,0,1.9-.3.5-.2.8-.4,1-.8.2-.3.3-.7.3-1.1s-.2-1-.5-1.3c-.3-.3-.8-.5-1.5-.5s-.9.1-1.3.3c-.4.2-.8.5-1.1.8l-.8-.9c.4-.4.9-.7,1.5-1,.5-.3,1.1-.4,1.8-.4s1.2.1,1.8.3c.5.2.9.5,1.2,1,.3.4.4,1,.4,1.6s-.2,1.3-.6,1.7c-.4.5-.9.8-1.5,1h0c.5.2.9.4,1.2.6s.7.6.9,1c.2.4.3.9.3,1.4s-.2,1.3-.5,1.7c-.3.5-.8.8-1.4,1.1-.6.3-1.2.4-1.9.4h0Z"/>
  <path class="st0" d="M341,16.7c0-1.1.1-2.1.3-3,.1-.9.3-1.8.6-2.5.3-.8.6-1.6,1-2.3.4-.8.9-1.5,1.4-2.3h-5.7v-1.3h7.3v.9c-.7.9-1.2,1.7-1.6,2.5-.4.8-.8,1.6-1,2.4s-.4,1.7-.5,2.6c-.1.9-.2,1.9-.2,3h-1.5,0Z"/>
  <path class="st0" d="M351.8,19.9l-.9-.4c.7-1.1,1.2-2.4,1.6-3.7s.5-2.7.5-4-.2-2.7-.5-4c-.3-1.3-.9-2.6-1.6-3.7l.9-.4c.8,1.2,1.3,2.4,1.7,3.8.4,1.3.6,2.8.6,4.3s-.2,3-.6,4.3c-.4,1.3-1,2.6-1.7,3.8Z"/>
  <path class="st0" d="M364.7,16.7v-7.7c0-.3,0-.7,0-1.1,0-.4,0-.8,0-1.1h0c-.1.3-.3.5-.5.8-.2.3-.3.5-.5.8l-2.7,3.9h6.5v1.2h-8.1v-1l4.9-7.3h1.6v11.4h-1.4Z"/>
  <path class="st0" d="M372.9,16.9c-.6,0-1.1-.1-1.6-.3-.5-.2-.9-.6-1.2-1-.3-.5-.6-1-.8-1.7-.2-.7-.3-1.5-.3-2.4s.1-2.1.4-2.9c.2-.8.6-1.5,1-2,.4-.5.9-.9,1.4-1.1.5-.2,1.1-.3,1.6-.3s1.1.1,1.6.3c.4.2.8.5,1.1.9l-.8.9c-.2-.3-.5-.5-.8-.7-.3-.2-.7-.2-1-.2-.5,0-1,.2-1.5.5s-.8.8-1.1,1.6c-.3.8-.4,1.8-.4,3s.1,1.7.3,2.4c.2.6.5,1.1.9,1.5s.8.5,1.4.5.7-.1,1-.3c.3-.2.5-.5.7-.9s.3-.8.3-1.3,0-.9-.2-1.3c-.2-.4-.4-.6-.7-.8s-.7-.3-1.2-.3-.8.1-1.2.4c-.4.2-.9.7-1.2,1.2v-1.1c.2-.3.5-.6.8-.8.3-.2.6-.4,1-.5.3-.1.7-.2,1-.2.7,0,1.2.1,1.7.4.5.3.9.6,1.1,1.2.3.5.4,1.2.4,1.9s-.1,1.4-.5,1.9c-.3.6-.7,1-1.2,1.3-.5.3-1.1.5-1.7.5h0Z"/>
  <path class="st0" d="M380.2,16.7c0-1.1.1-2.1.3-3,.1-.9.3-1.8.6-2.5.3-.8.6-1.6,1-2.3.4-.8.9-1.5,1.4-2.3h-5.7v-1.3h7.3v.9c-.7.9-1.2,1.7-1.6,2.5-.4.8-.8,1.6-1,2.4s-.4,1.7-.5,2.6c-.1.9-.2,1.9-.2,3h-1.5,0Z"/>
  <path class="st0" d="M390.4,17c-.7,0-1.4-.1-1.9-.4s-1-.6-1.3-1.1-.5-1-.5-1.6.1-.9.3-1.3c.2-.4.5-.7.8-1,.3-.3.7-.5,1-.7h0c-.4-.4-.8-.7-1.1-1.2-.3-.4-.5-.9-.5-1.5s.1-1.1.4-1.5.7-.8,1.1-1c.5-.2,1-.4,1.6-.4s1.2.1,1.7.4c.5.3.9.6,1.1,1.1.3.5.4,1,.4,1.6s0,.8-.2,1.1c-.2.3-.4.7-.6.9-.2.3-.5.5-.7.7h0c.3.3.6.5.9.8.3.3.6.6.7.9.2.4.3.8.3,1.3s-.2,1.1-.5,1.5c-.3.5-.7.8-1.3,1.1-.5.3-1.2.4-1.9.4h0ZM390.4,15.9c.5,0,.9,0,1.2-.3.3-.2.6-.4.8-.7.2-.3.3-.6.3-1s0-.7-.3-1c-.2-.3-.4-.5-.7-.7-.3-.2-.6-.4-1-.5s-.8-.3-1.2-.5c-.5.3-.9.7-1.2,1.1-.3.4-.5.9-.5,1.4s.1.8.3,1.1c.2.3.5.6.9.8.4.2.8.3,1.3.3h0ZM391.2,10.5c.4-.3.7-.7.9-1.1s.3-.8.3-1.2,0-.7-.2-1c-.2-.3-.4-.5-.7-.7-.3-.2-.7-.3-1.1-.3s-1,.2-1.3.5c-.3.3-.5.8-.5,1.3s.1.8.4,1.1c.2.3.6.6,1,.8.4.2.8.4,1.3.6h0Z"/>
  <path class="st0" d="M399.2,17c-.7,0-1.4-.1-1.9-.4s-1-.6-1.3-1.1c-.3-.5-.5-1-.5-1.6s.1-.9.3-1.3.5-.7.8-1c.3-.3.7-.5,1-.7h0c-.4-.4-.8-.7-1.1-1.2-.3-.4-.5-.9-.5-1.5s.1-1.1.4-1.5.7-.8,1.1-1c.5-.2,1-.4,1.6-.4s1.2.1,1.7.4c.5.3.9.6,1.1,1.1.3.5.4,1,.4,1.6s0,.8-.2,1.1c-.2.3-.4.7-.6.9-.2.3-.5.5-.7.7h0c.3.3.6.5.9.8.3.3.6.6.7.9.2.4.3.8.3,1.3s-.2,1.1-.5,1.5c-.3.5-.7.8-1.3,1.1-.5.3-1.2.4-1.9.4h0ZM399.3,15.9c.5,0,.9,0,1.2-.3.3-.2.6-.4.8-.7.2-.3.3-.6.3-1s0-.7-.3-1c-.2-.3-.4-.5-.7-.7-.3-.2-.6-.4-1-.5s-.8-.3-1.2-.5c-.5.3-.9.7-1.2,1.1-.3.4-.5.9-.5,1.4s.1.8.3,1.1.5.6.9.8c.4.2.8.3,1.3.3h0ZM400,10.5c.4-.3.7-.7.9-1.1s.3-.8.3-1.2,0-.7-.2-1c-.2-.3-.4-.5-.7-.7-.3-.2-.7-.3-1.1-.3s-1,.2-1.3.5-.5.8-.5,1.3.1.8.4,1.1c.2.3.6.6,1,.8.4.2.8.4,1.3.6h0Z"/>
  <path class="st0" d="M408.1,17c-.7,0-1.4-.1-1.9-.4s-1-.6-1.3-1.1c-.3-.5-.5-1-.5-1.6s.1-.9.3-1.3.5-.7.8-1,.7-.5,1-.7h0c-.4-.4-.8-.7-1.1-1.2-.3-.4-.5-.9-.5-1.5s.1-1.1.4-1.5c.3-.4.7-.8,1.2-1,.5-.2,1-.4,1.6-.4s1.2.1,1.7.4c.5.3.9.6,1.1,1.1.3.5.4,1,.4,1.6s0,.8-.2,1.1c-.2.3-.4.7-.6.9-.2.3-.5.5-.7.7h0c.3.3.7.5,1,.8s.5.6.7.9c.2.4.3.8.3,1.3s-.1,1.1-.5,1.5c-.3.5-.7.8-1.3,1.1-.5.3-1.2.4-1.9.4h0ZM408.1,15.9c.5,0,.9,0,1.2-.3.3-.2.6-.4.8-.7s.3-.6.3-1,0-.7-.3-1c-.2-.3-.4-.5-.7-.7-.3-.2-.6-.4-1-.5-.4-.2-.8-.3-1.2-.5-.5.3-.9.7-1.2,1.1-.3.4-.5.9-.5,1.4s.1.8.3,1.1.5.6.9.8c.4.2.8.3,1.3.3h0ZM408.9,10.5c.4-.3.7-.7.9-1.1.2-.4.3-.8.3-1.2s0-.7-.2-1c-.2-.3-.4-.5-.7-.7s-.7-.3-1.1-.3-1,.2-1.3.5-.5.8-.5,1.3.1.8.4,1.1c.2.3.6.6,1,.8.4.2.8.4,1.3.6h0Z"/>
  <path class="st0" d="M7.1.2c5.1-.5,9.2,4.1,8.2,9.1-.6,3-2.9,6.5-4.7,8.9-.6.8-1.4,2-2.1,2.6s-.5.4-.9.3c-.3,0-1.6-1.8-1.9-2.1C3.3,15.9-.3,10.7.3,6.7.8,3.3,3.7.5,7.1.2h0ZM7.4,3.9c-4.9.5-4.3,8.2,1,7.6,4.7-.6,4-8.2-1-7.6Z"/>
  <g>
    <path class="st0" d="M295.1,2.2c.4,0,.8.5,1,.8.4.6,2.3,3.5,2.2,4.1s-1.8,1.4-1.8,2,.3.9.4,1.1c.8,1.8,2.5,3.6,4.2,4.6.4.2,1.6.8,1.9.8s1.3-1.7,1.8-1.8,2.3,1.1,2.8,1.3,1.9,1.2,2.1,1.5,0,.5-.2.8c-.5.7-3,2.9-3.7,3.1s-.8,0-1.1,0c-5.3-1-12.2-7.9-13.1-13.2s0-1.1.5-1.9,2.4-3.1,3-3.2Z"/>
    <path class="st0" d="M301.2,2.1c4.7,0,8.6,3.9,8.5,8.5h-1.3c0-3.9-3.3-7.3-7.2-7.2v-1.3Z"/>
    <path class="st0" d="M306.5,10.7h-1.3c0-2.1-1.8-4-3.9-3.9v-1.3c2.9,0,5.3,2.4,5.3,5.3Z"/>
  </g>
</svg>