<svg width="499" height="136" viewBox="0 0 499 136" fill="none" xmlns="http://www.w3.org/2000/svg">
<path d="M498.119 30.6746H0.5V107.579H498.119V30.6746Z" fill="#F5F1EE"/>
<path d="M184.054 57.9303L185.773 58.2922C185.456 59.5815 185.071 60.8482 184.642 62.047C184.212 63.2458 183.737 64.3994 183.217 65.4625C182.696 66.5256 182.131 67.4756 181.543 68.2899C181.452 68.1994 181.317 68.0863 181.113 67.9506C180.932 67.8149 180.729 67.7018 180.548 67.5661C180.367 67.4303 180.186 67.3399 180.073 67.272C180.683 66.5256 181.226 65.6434 181.724 64.6482C182.221 63.6529 182.674 62.5672 183.081 61.4137C183.488 60.2601 183.827 59.0839 184.076 57.9077L184.054 57.9303ZM183.375 62.4089H190.477V64.0601H182.538L183.375 62.4089ZM184.913 63.1327H186.564V78.1744H184.913V63.1327ZM192.558 57.9303L194.21 58.2696C193.893 59.5363 193.531 60.803 193.124 62.0244C192.717 63.2458 192.242 64.3994 191.721 65.4625C191.201 66.5256 190.658 67.453 190.048 68.2672C189.957 68.1768 189.821 68.0637 189.641 67.9279C189.46 67.7922 189.279 67.6791 189.12 67.5434C188.939 67.4303 188.781 67.3399 188.668 67.2494C189.256 66.503 189.799 65.6208 190.274 64.6256C190.749 63.6303 191.201 62.5672 191.586 61.4137C191.97 60.2601 192.287 59.1065 192.558 57.9077V57.9303ZM192.332 62.4089H200.633V64.0601H191.518L192.332 62.4089ZM195.589 63.0422H197.286V76.003C197.286 76.5232 197.218 76.9303 197.082 77.2244C196.946 77.4958 196.698 77.722 196.313 77.8577C195.974 77.9934 195.499 78.0839 194.888 78.1065C194.277 78.1291 193.531 78.1518 192.671 78.1518C192.626 77.9029 192.558 77.6089 192.445 77.2923C192.332 76.953 192.219 76.6589 192.083 76.4101C192.558 76.4101 192.988 76.4327 193.395 76.4553C193.802 76.4553 194.164 76.4553 194.481 76.4553C194.798 76.4553 195.001 76.4553 195.137 76.4553C195.318 76.4553 195.454 76.4101 195.521 76.3422C195.589 76.2744 195.612 76.1613 195.612 76.003V63.0649L195.589 63.0422Z" fill="#333333"/>
<path d="M203.461 60.1474H222.845V61.7081H203.461V60.1474ZM204.66 64.0379H220.561V65.5534H206.333V78.1522H204.66V64.0153V64.0379ZM207.532 72.5653H218.819V73.945H207.532V72.5653ZM208.12 68.9914H218.299V70.326H208.12V68.9914ZM209.116 66.2998L210.405 65.8926C210.699 66.2772 210.97 66.7069 211.242 67.2046C211.513 67.7022 211.694 68.1319 211.807 68.4938L210.427 68.9688C210.314 68.6069 210.156 68.1772 209.907 67.6569C209.658 67.1367 209.387 66.7069 209.116 66.2998ZM212.237 57.9534H214.069V65.0557H212.237V57.9534ZM212.282 69.6248H213.865V77.7676H212.282V69.6248ZM215.833 65.8474L217.258 66.2772C216.987 66.8879 216.67 67.476 216.354 68.0867C216.037 68.6974 215.72 69.2176 215.426 69.67L214.205 69.2629C214.386 68.9462 214.589 68.5843 214.793 68.1772C214.996 67.77 215.177 67.3629 215.358 66.9557C215.539 66.5486 215.698 66.1641 215.811 65.8248L215.833 65.8474ZM220.018 64.0379H221.692V76.2522C221.692 76.7272 221.624 77.1117 221.488 77.3605C221.352 77.6093 221.104 77.8129 220.742 77.926C220.38 78.0391 219.882 78.1069 219.249 78.1522C218.615 78.1974 217.846 78.1974 216.964 78.1974C216.942 77.9712 216.851 77.7224 216.738 77.451C216.625 77.1796 216.512 76.9308 216.376 76.7272C216.851 76.7272 217.304 76.7498 217.711 76.7498C218.14 76.7498 218.502 76.7498 218.842 76.7498C219.158 76.7498 219.385 76.7498 219.498 76.7498C219.701 76.7498 219.837 76.7045 219.905 76.6367C219.973 76.5688 219.995 76.4557 219.995 76.2748V64.0605L220.018 64.0379Z" fill="#333333"/>
<path d="M225.989 61.4137H245.668V62.9291H225.989V61.4137ZM227.369 64.9196H234.336V66.322H228.93V78.0839H227.369V64.9196ZM228.251 68.516H234.426V69.8053H228.251V68.516ZM228.251 72.022H234.426V73.3113H228.251V72.022ZM229.382 58.4732L230.92 57.9303C231.35 58.3827 231.757 58.9029 232.164 59.491C232.571 60.0791 232.888 60.5767 233.114 61.0065L231.486 61.6172C231.305 61.1875 231.011 60.6899 230.626 60.0791C230.242 59.4684 229.812 58.9482 229.382 58.4506V58.4732ZM233.816 64.9196H235.421V76.297C235.421 76.7041 235.376 77.0208 235.263 77.2696C235.15 77.4958 234.946 77.6768 234.63 77.8125C234.313 77.9482 233.929 78.016 233.431 78.0613C232.933 78.0839 232.323 78.1065 231.576 78.1065C231.531 77.9029 231.463 77.6541 231.35 77.3601C231.237 77.066 231.124 76.8172 231.011 76.6137C231.576 76.6137 232.074 76.6363 232.526 76.6363C232.979 76.6363 233.273 76.6363 233.431 76.6363C233.589 76.6363 233.702 76.6137 233.748 76.5458C233.793 76.478 233.816 76.3875 233.816 76.2517V64.897V64.9196ZM238.113 65.1232H239.651V74.1482H238.113V65.1232ZM240.714 57.8398L242.479 58.4053C242.071 59.0839 241.619 59.7851 241.144 60.4863C240.669 61.1875 240.239 61.7982 239.832 62.3184L238.362 61.7982C238.633 61.4363 238.927 61.0065 239.221 60.5541C239.516 60.1017 239.787 59.6268 240.036 59.1518C240.285 58.6768 240.511 58.247 240.714 57.8398ZM242.569 64.4672H244.198V76.1613C244.198 76.6363 244.13 76.9982 243.994 77.247C243.858 77.4958 243.61 77.6994 243.27 77.8351C242.931 77.9708 242.479 78.0613 241.913 78.0839C241.348 78.1291 240.646 78.1291 239.787 78.1065C239.742 77.8803 239.651 77.6315 239.538 77.3148C239.425 77.0208 239.312 76.7494 239.176 76.5006C239.832 76.5232 240.443 76.5458 240.986 76.5458C241.529 76.5458 241.891 76.5458 242.094 76.5458C242.275 76.5458 242.388 76.5232 242.456 76.4553C242.524 76.3875 242.546 76.297 242.546 76.116V64.4446L242.569 64.4672Z" fill="#333333"/>
<path d="M248.518 74.3295C249.242 74.1938 250.056 74.0128 250.983 73.7866C251.911 73.5831 252.906 73.3343 253.946 73.0855C254.987 72.8366 256.027 72.5878 257.068 72.339L257.226 73.8545C255.779 74.239 254.308 74.6009 252.838 74.9854C251.368 75.37 250.056 75.6866 248.902 75.9807L248.495 74.3295H248.518ZM248.744 62.0926H257.294V63.6307H248.744V62.0926ZM249.626 64.8747L250.938 64.6259C251.119 65.4628 251.277 66.3449 251.436 67.2949C251.594 68.2449 251.73 69.1497 251.843 70.0545C251.956 70.9592 252.024 71.7735 252.069 72.4973L250.689 72.7461C250.667 72.0223 250.599 71.2081 250.486 70.3259C250.373 69.4212 250.26 68.4938 250.101 67.5438C249.943 66.5938 249.785 65.7116 249.626 64.8747ZM251.323 58.4961L252.748 58.0664C253.064 58.5866 253.381 59.1521 253.675 59.7402C253.969 60.3509 254.173 60.8712 254.308 61.3462L252.816 61.8664C252.68 61.414 252.476 60.8711 252.205 60.2378C251.933 59.6045 251.639 59.0164 251.323 58.5188V58.4961ZM254.738 64.3545L256.276 64.6712C256.163 65.395 256.027 66.164 255.892 66.9783C255.756 67.7926 255.598 68.6069 255.439 69.4211C255.281 70.2354 255.123 71.0045 254.964 71.7509C254.806 72.4747 254.648 73.1307 254.489 73.7188L253.268 73.4247C253.404 72.8366 253.562 72.1807 253.698 71.4116C253.833 70.6652 253.969 69.8735 254.105 69.0592C254.241 68.2449 254.354 67.4307 254.467 66.6164C254.58 65.8021 254.67 65.0557 254.738 64.3771V64.3545ZM257.746 68.4711H267.676V78.0842H266.002V70.0319H259.352V78.1747H257.746V68.4711ZM258.493 75.5735H266.817V77.1116H258.493V75.5735ZM261.32 57.9307H263.017V69.1497H261.32V57.9307ZM262.293 62.4997H268.604V64.083H262.293V62.4997Z" fill="#333333"/>
<path d="M274.394 63.1783L275.412 63.5402C275.231 64.445 275.027 65.3497 274.756 66.3223C274.507 67.2723 274.213 68.2223 273.896 69.1271C273.58 70.0545 273.241 70.8914 272.879 71.683C272.517 72.4747 272.132 73.1533 271.748 73.7188C271.68 73.5604 271.612 73.3795 271.499 73.1759C271.386 72.9723 271.295 72.7914 271.182 72.5878C271.069 72.4069 270.956 72.2259 270.866 72.1128C271.227 71.6378 271.589 71.0271 271.951 70.3485C272.313 69.6699 272.63 68.9009 272.946 68.0866C273.263 67.2723 273.535 66.458 273.783 65.6211C274.032 64.7842 274.236 63.9699 274.371 63.2009L274.394 63.1783ZM271.431 62.183H278.443V63.7212H271.431V62.183ZM274.371 57.9533H275.955V78.1747H274.371V57.9533ZM275.842 64.4902C275.977 64.6259 276.158 64.8973 276.407 65.2818C276.656 65.6664 276.927 66.0735 277.199 66.5033C277.493 66.9557 277.742 67.3628 277.991 67.7247C278.239 68.1092 278.42 68.3807 278.511 68.539L277.493 69.7152C277.38 69.4438 277.221 69.0819 276.995 68.6521C276.792 68.2223 276.543 67.77 276.294 67.3176C276.045 66.8426 275.796 66.4128 275.57 66.0283C275.344 65.6437 275.163 65.3271 275.005 65.1009L275.774 64.4902H275.842ZM289.029 68.2902L290.748 68.9009C289.956 70.258 288.961 71.5473 287.785 72.7235C286.586 73.8997 285.251 74.9628 283.736 75.8902C282.22 76.8176 280.569 77.5866 278.805 78.2199C278.737 78.0842 278.669 77.9485 278.533 77.7676C278.42 77.6092 278.285 77.4283 278.171 77.2699C278.036 77.1116 277.923 76.9759 277.832 76.8628C279.551 76.2973 281.135 75.5961 282.605 74.7366C284.075 73.8771 285.342 72.9045 286.45 71.7961C287.558 70.6878 288.418 69.5342 289.051 68.2902H289.029ZM287.423 64.3545L288.983 64.8747C288.35 66.0057 287.581 67.0914 286.631 68.1319C285.704 69.1723 284.663 70.145 283.51 71.0271C282.356 71.9092 281.135 72.6556 279.845 73.2664C279.777 73.1533 279.687 73.0176 279.574 72.8366C279.461 72.6783 279.37 72.5199 279.235 72.3842C279.121 72.2485 279.008 72.1128 278.873 71.9997C280.094 71.4342 281.27 70.733 282.379 69.9187C283.487 69.1045 284.46 68.2223 285.319 67.2497C286.179 66.2771 286.857 65.3045 287.377 64.3092L287.423 64.3545ZM278.963 60.9616H291.2V62.4771H278.963V60.9616ZM279.8 68.4259C279.777 68.2902 279.732 68.1092 279.687 67.9283C279.642 67.7473 279.574 67.5438 279.506 67.3402C279.438 67.1366 279.37 66.9783 279.325 66.8426C279.551 66.7973 279.8 66.7295 280.071 66.639C280.343 66.5485 280.569 66.4128 280.75 66.2318C280.886 66.0961 281.067 65.8247 281.338 65.4402C281.587 65.0557 281.858 64.6485 282.152 64.1735C282.446 63.6985 282.718 63.2461 282.989 62.8164C283.261 62.3866 283.442 62.0247 283.577 61.7759H285.387C285.161 62.1378 284.912 62.5676 284.595 63.0652C284.279 63.5628 283.962 64.083 283.623 64.6259C283.283 65.1688 282.967 65.6664 282.65 66.164C282.333 66.639 282.062 67.0688 281.836 67.3854C281.564 67.4533 281.316 67.5211 281.112 67.6116C280.908 67.6795 280.727 67.7699 280.524 67.8604C280.32 67.9509 280.162 68.0414 280.026 68.1319C279.891 68.2223 279.823 68.3128 279.823 68.4259H279.8ZM279.8 68.4259V67.2045L280.682 66.7295L286.857 66.3902C286.767 66.5938 286.676 66.8426 286.563 67.114C286.45 67.3854 286.382 67.6116 286.337 67.7699C285.002 67.8604 283.939 67.9283 283.125 67.9962C282.311 68.064 281.677 68.1092 281.248 68.1545C280.818 68.1997 280.479 68.2449 280.275 68.2902C280.071 68.3354 279.913 68.3806 279.8 68.4259ZM283.645 58.3378L285.183 57.8628C285.455 58.3152 285.726 58.8354 285.975 59.4009C286.224 59.9664 286.405 60.464 286.473 60.8711L284.844 61.4366C284.754 61.0295 284.595 60.5318 284.392 59.9437C284.166 59.3556 283.917 58.8354 283.645 58.3378ZM285.432 73.7188L286.631 72.7461C287.174 73.1533 287.739 73.6057 288.327 74.1033C288.916 74.6009 289.481 75.0759 290.024 75.5509C290.567 76.0259 290.996 76.4556 291.336 76.8402L290.092 77.9711C289.775 77.564 289.345 77.1342 288.825 76.6366C288.305 76.139 287.739 75.6414 287.151 75.1211C286.563 74.6009 285.998 74.1259 285.455 73.7188H285.432Z" fill="#333333"/>
<path d="M295.792 65.7342L297.375 66.0509C297.262 66.9104 297.126 67.883 296.945 68.9235C296.764 69.9866 296.538 71.0271 296.289 72.0449C296.041 73.0628 295.769 73.9675 295.475 74.7592L293.801 74.058C294.118 73.3116 294.412 72.4521 294.683 71.5021C294.955 70.5521 295.181 69.5569 295.362 68.5616C295.543 67.5664 295.701 66.6164 295.792 65.7568V65.7342ZM299.298 64.083H301.017V75.008C301.017 75.5283 301.107 75.8449 301.288 76.0033C301.469 76.1616 301.876 76.2295 302.51 76.2295H306.762C307.214 76.2295 307.554 76.1164 307.78 75.8676C308.006 75.6187 308.164 75.1664 308.255 74.5104C308.345 73.8544 308.413 72.8819 308.458 71.6378C308.594 71.7509 308.775 71.8414 308.956 71.9545C309.137 72.0676 309.341 72.1354 309.521 72.2259C309.725 72.2937 309.883 72.3616 310.042 72.4068C309.974 73.8092 309.838 74.8949 309.635 75.664C309.454 76.4557 309.137 76.9985 308.707 77.3152C308.277 77.6318 307.644 77.7902 306.807 77.7902H302.351C301.56 77.7902 300.949 77.6997 300.496 77.5413C300.044 77.383 299.727 77.089 299.546 76.6818C299.366 76.2747 299.275 75.7092 299.275 74.9854V64.0604L299.298 64.083ZM300.338 59.7854L301.469 58.6997C302.17 59.1747 302.894 59.6949 303.641 60.283C304.41 60.8711 305.111 61.4366 305.789 62.0247C306.468 62.6128 307.011 63.1104 307.441 63.5854L306.242 64.8295C305.835 64.3545 305.292 63.8342 304.636 63.2461C303.98 62.658 303.279 62.0473 302.51 61.4366C301.763 60.8259 301.017 60.2604 300.316 59.7854H300.338ZM309.567 65.7568L311.105 65.1688C311.535 66.0509 311.942 66.9783 312.326 67.9735C312.733 68.9687 313.073 69.9414 313.389 70.8914C313.706 71.8414 313.932 72.7009 314.068 73.4699L312.439 74.1259C312.304 73.3568 312.077 72.4973 311.783 71.5247C311.489 70.5521 311.15 69.5795 310.766 68.5616C310.381 67.5664 309.974 66.6164 309.544 65.7568H309.567Z" fill="#333333"/>
<path d="M322.663 71.253C322.188 70.6876 321.668 70.0995 321.125 69.5114C320.56 68.9233 319.994 68.3578 319.429 67.815C318.863 67.2721 318.32 66.7971 317.8 66.3673L319.225 65.1233C319.745 65.5531 320.311 66.028 320.899 66.5935C321.487 67.1364 322.052 67.7245 322.618 68.3126C323.183 68.9007 323.704 69.4662 324.156 70.009L322.663 71.253Z" fill="#333333"/>
<path d="M328.024 63.7438H334.742V65.2819H328.024V63.7438ZM330.738 57.9534H332.367V78.1748H330.738V57.9534ZM334.176 71.7284H348.268V73.0855H334.176V71.7284ZM334.855 60.351H347.996V61.6855H334.855V60.351ZM335.85 62.7938H346.277V63.9927H337.252V70.4843H335.85V62.7938ZM336.393 73.945L337.411 72.9498C337.773 73.1986 338.18 73.47 338.587 73.7641C338.994 74.0581 339.401 74.3748 339.808 74.6688C340.193 74.9855 340.532 75.2343 340.781 75.4605L339.718 76.5914C339.492 76.3653 339.175 76.0938 338.791 75.7772C338.406 75.4605 337.999 75.1438 337.569 74.8272C337.162 74.4879 336.755 74.1938 336.393 73.945ZM336.755 65.1915H346.21V66.2546H336.755V65.1915ZM336.755 67.3855H346.21V68.426H336.755V67.3855ZM343.541 70.5748H345.033V76.4557C345.033 76.8629 344.988 77.1795 344.875 77.4057C344.762 77.6319 344.558 77.8129 344.219 77.9486C343.902 78.0617 343.473 78.1069 342.952 78.1296C342.432 78.1522 341.754 78.1522 340.939 78.1522C340.917 77.9486 340.849 77.7224 340.758 77.451C340.668 77.1795 340.555 76.9534 340.464 76.7498C341.098 76.7498 341.663 76.7498 342.138 76.7498C342.613 76.7498 342.952 76.7498 343.111 76.7498C343.292 76.7498 343.405 76.7272 343.45 76.6819C343.495 76.6367 343.518 76.5462 343.518 76.4331V70.5748H343.541ZM340.645 57.9534H342.183V70.1224H340.645V57.9534ZM343.224 58.8807L343.993 57.9534C344.355 58.0891 344.739 58.27 345.146 58.4736C345.576 58.6772 345.961 58.8807 346.345 59.0617C346.73 59.2426 347.046 59.4236 347.318 59.5367L346.549 60.6224C346.277 60.4867 345.961 60.3057 345.576 60.1022C345.192 59.8986 344.807 59.6724 344.377 59.4688C343.97 59.2427 343.586 59.0617 343.201 58.8807H343.224ZM345.621 62.7938H347.114V69.1724C347.114 69.5117 347.069 69.7605 346.979 69.9188C346.888 70.0772 346.707 70.2129 346.481 70.326C346.232 70.4165 345.915 70.4617 345.531 70.4843C345.146 70.4843 344.671 70.5069 344.129 70.5069C344.106 70.326 344.038 70.145 343.948 69.9415C343.857 69.7379 343.767 69.5569 343.676 69.4212C344.083 69.4212 344.423 69.4212 344.739 69.4212C345.056 69.4212 345.26 69.4212 345.35 69.4212C345.463 69.4212 345.554 69.4212 345.576 69.376C345.621 69.3308 345.621 69.2629 345.621 69.1724V62.8165V62.7938Z" fill="#333333"/>
<path d="M365.119 71.0271H365.481L365.775 70.9593L366.838 71.6604C366.137 72.6783 365.255 73.5604 364.192 74.3069C363.129 75.0533 361.952 75.6866 360.618 76.2069C359.283 76.7271 357.881 77.1342 356.411 77.4735C354.941 77.8128 353.425 78.0616 351.91 78.2652C351.864 78.1295 351.796 77.9712 351.683 77.8128C351.57 77.6319 351.48 77.4735 351.344 77.3152C351.231 77.1569 351.118 77.0211 351.005 76.908C352.52 76.7723 353.991 76.5688 355.438 76.2974C356.886 76.0259 358.22 75.6414 359.487 75.189C360.731 74.7366 361.862 74.1938 362.812 73.5604C363.785 72.9271 364.554 72.1807 365.142 71.3211V71.0724L365.119 71.0271ZM358.379 69.195L359.826 69.6926C359.216 70.439 358.514 71.1402 357.7 71.7962C356.886 72.4521 356.026 73.0628 355.121 73.583C354.217 74.1259 353.312 74.5783 352.43 74.9854C352.362 74.8723 352.249 74.7592 352.113 74.6235C351.977 74.4878 351.819 74.3521 351.683 74.2164C351.525 74.0807 351.389 73.9676 351.276 73.8771C352.204 73.5152 353.108 73.108 353.991 72.633C354.873 72.158 355.71 71.6152 356.456 71.0271C357.202 70.439 357.858 69.8057 358.379 69.1723V69.195ZM351.548 63.0652H370.095V67.0688H368.444V64.3997H353.108V66.9104H351.548V63.0652ZM354.805 65.7343L356.071 66.2545C355.823 66.9557 355.483 67.6569 355.031 68.3354C354.579 69.014 353.991 69.5795 353.267 70.0093L352.113 69.0592C352.769 68.6973 353.335 68.1997 353.764 67.589C354.217 66.9783 354.556 66.345 354.782 65.7116L354.805 65.7343ZM367.833 57.9307L368.942 59.1069C367.924 59.3104 366.748 59.4914 365.436 59.6723C364.124 59.8307 362.744 59.989 361.274 60.1021C359.804 60.2152 358.356 60.3057 356.863 60.3962C355.37 60.4866 353.968 60.5319 352.611 60.5545C352.611 60.3735 352.543 60.1474 352.475 59.8985C352.407 59.6497 352.339 59.4462 352.249 59.2878C353.606 59.2652 355.008 59.1973 356.456 59.1295C357.904 59.0616 359.329 58.9712 360.731 58.8354C362.133 58.7224 363.445 58.5866 364.667 58.4509C365.888 58.3152 366.951 58.1569 367.833 57.9533V57.9307ZM354.239 60.7354L355.551 60.1926C355.913 60.5771 356.23 61.0069 356.524 61.4819C356.818 61.9569 357.044 62.3866 357.157 62.7711L355.755 63.3819C355.642 63.02 355.461 62.5902 355.167 62.0926C354.873 61.595 354.556 61.1426 354.239 60.758V60.7354ZM356.886 71.8866C357.542 72.5878 358.333 73.2211 359.283 73.764C360.233 74.3069 361.319 74.7819 362.518 75.189C363.739 75.5962 365.029 75.9128 366.408 76.1616C367.788 76.4105 369.236 76.5914 370.729 76.7271C370.615 76.8402 370.502 76.9759 370.367 77.1569C370.254 77.3378 370.14 77.5188 370.027 77.6997C369.914 77.8807 369.824 78.039 369.756 78.1747C368.263 78.039 366.816 77.8128 365.413 77.4962C364.011 77.2021 362.699 76.8176 361.477 76.32C360.256 75.8223 359.125 75.2795 358.13 74.6461C357.135 74.0128 356.275 73.2438 355.574 72.4069L356.863 71.864L356.886 71.8866ZM357.406 71.0271H365.504V72.2485H356.185L357.406 71.0271ZM356.954 65.689H358.492V67.7926C358.492 68.0188 358.56 68.1545 358.695 68.2223C358.831 68.2902 359.125 68.3128 359.577 68.3128H362.812C363.038 68.3128 363.219 68.2902 363.332 68.2223C363.445 68.1545 363.536 68.0188 363.581 67.8152C363.626 67.6116 363.671 67.295 363.694 66.8652C363.852 66.9783 364.056 67.0688 364.305 67.1366C364.554 67.2271 364.78 67.2724 364.983 67.3176C364.938 67.9283 364.848 68.3807 364.712 68.6974C364.576 69.014 364.373 69.2402 364.101 69.3533C363.83 69.489 363.445 69.5342 362.948 69.5342H359.374C358.718 69.5342 358.198 69.489 357.836 69.3985C357.474 69.3081 357.225 69.1271 357.089 68.8783C356.954 68.6295 356.886 68.2676 356.886 67.7926V65.689H356.954ZM358.741 65.1235L359.6 64.2188C360.165 64.4449 360.776 64.739 361.41 65.0783C362.043 65.4176 362.541 65.7342 362.902 66.0283L362.043 67.0461C361.681 66.7295 361.183 66.3902 360.55 66.0283C359.917 65.6664 359.329 65.3497 358.741 65.1009V65.1235ZM359.035 60.3283L360.392 59.8533C360.708 60.2604 361.002 60.7354 361.251 61.2557C361.5 61.7759 361.681 62.2283 361.794 62.6128L360.346 63.1331C360.279 62.7485 360.12 62.2962 359.871 61.7759C359.623 61.2557 359.351 60.7807 359.035 60.3509V60.3283ZM366.408 59.808L368.014 60.3962C367.607 60.9843 367.2 61.5724 366.748 62.1604C366.295 62.7485 365.888 63.2688 365.526 63.6985L364.305 63.1783C364.531 62.8616 364.78 62.5223 365.051 62.1378C365.323 61.7533 365.571 61.3462 365.82 60.9164C366.069 60.4866 366.273 60.1247 366.408 59.808ZM364.938 66.2319L366.069 65.4402C366.499 65.7569 366.929 66.1188 367.381 66.5259C367.833 66.9331 368.241 67.3402 368.625 67.7247C369.01 68.1319 369.326 68.4938 369.53 68.8331L368.331 69.7152C368.105 69.3985 367.811 69.014 367.449 68.6069C367.064 68.1997 366.68 67.7699 366.227 67.3628C365.798 66.9557 365.368 66.5711 364.938 66.2319Z" fill="#333333"/>
<path d="M373.805 60.3281H393.144V61.7531H373.805V60.3281ZM375.071 64.9198H391.289V66.3221H376.655V78.1293H375.071V64.8971V64.9198ZM380.568 65.6209H382.016C381.948 66.5257 381.767 67.2948 381.473 67.9507C381.179 68.6067 380.726 69.1043 380.116 69.534C379.482 69.9412 378.623 70.2805 377.492 70.5293C377.446 70.3483 377.356 70.1447 377.175 69.9186C376.994 69.6924 376.858 69.5114 376.723 69.3757C377.695 69.1948 378.442 68.946 378.985 68.6293C379.527 68.3352 379.912 67.9281 380.138 67.4305C380.364 66.9329 380.523 66.3448 380.568 65.6209ZM378.532 62.2733L379.912 61.7983C380.183 62.2055 380.432 62.6126 380.704 63.0876C380.975 63.54 381.179 63.9471 381.314 64.2638L379.889 64.8519C379.731 64.5126 379.527 64.1055 379.279 63.6079C379.03 63.1102 378.781 62.6804 378.532 62.2733ZM379.392 70.3257H380.794V76.4102H379.392V70.3257ZM380.229 70.3257H387.489V75.3471H380.229V74.1483H386.11V71.5697H380.229V70.3483V70.3257ZM382.196 58.2245L383.735 57.8174C383.938 58.2698 384.142 58.7674 384.345 59.2876C384.549 59.8078 384.707 60.2602 384.82 60.6448L383.192 61.0971C383.101 60.7126 382.965 60.2602 382.785 59.6947C382.604 59.1519 382.4 58.6316 382.219 58.1793L382.196 58.2245ZM384.458 65.6662H385.929V67.7245C385.929 67.9733 385.951 68.1543 385.996 68.2448C386.042 68.3352 386.177 68.3805 386.358 68.3805H388.349C388.507 68.3805 388.711 68.3805 388.96 68.3805C389.208 68.3805 389.412 68.3579 389.548 68.3126C389.57 68.4936 389.593 68.6971 389.616 68.9233C389.616 69.1269 389.661 69.3305 389.683 69.5114C389.548 69.5567 389.367 69.5793 389.118 69.6019C388.869 69.6019 388.62 69.6019 388.394 69.6019H386.064C385.635 69.6019 385.295 69.534 385.046 69.3983C384.82 69.2626 384.662 69.059 384.571 68.7876C384.481 68.5162 384.458 68.1543 384.458 67.7019V65.6662ZM386.969 61.9114L388.643 62.3186C388.281 62.9066 387.919 63.5174 387.512 64.1281C387.105 64.7388 386.743 65.259 386.404 65.6662L385.114 65.2816C385.34 64.965 385.567 64.6257 385.793 64.2185C386.019 63.8114 386.245 63.4269 386.449 62.9971C386.652 62.5674 386.833 62.2281 386.969 61.8888V61.9114ZM390.43 64.9198H391.945V76.365C391.945 76.7948 391.877 77.1114 391.764 77.3376C391.629 77.5638 391.425 77.7221 391.086 77.8352C390.746 77.9483 390.317 78.0162 389.729 78.0388C389.141 78.0388 388.371 78.0388 387.444 78.0388C387.399 77.8578 387.331 77.6316 387.24 77.4055C387.15 77.1793 387.06 76.9531 386.924 76.7721C387.376 76.7721 387.806 76.7721 388.236 76.7721C388.666 76.7721 389.005 76.7721 389.321 76.7721C389.615 76.7721 389.819 76.7721 389.932 76.7721C390.113 76.7721 390.249 76.7495 390.339 76.6817C390.407 76.6138 390.452 76.5007 390.452 76.3424V64.9198H390.43Z" fill="#333333"/>
<path d="M396.944 58.8352H415.379V78.1519H413.773V60.2602H398.505V78.1519H396.944V58.8352ZM397.917 75.89H414.61V77.2924H397.917V75.89ZM405.585 60.7804L406.987 60.9614C406.467 63.4721 405.607 65.5531 404.408 67.2042C403.21 68.8554 401.671 70.19 399.749 71.2078C399.681 71.1174 399.613 71.0042 399.5 70.8459C399.387 70.6876 399.274 70.5519 399.138 70.4161C399.002 70.2804 398.912 70.1674 398.821 70.0769C400.676 69.2174 402.146 68.0185 403.277 66.4804C404.408 64.9423 405.155 63.065 405.585 60.7804ZM399.477 66.2769H412.913V67.3852H399.477V66.2769ZM400.495 63.7435H412.099V64.8292H400.495V63.7435ZM401.219 61.6626L402.305 61.2328C402.554 61.5269 402.802 61.8662 403.051 62.2281C403.3 62.59 403.458 62.9066 403.549 63.2007L402.441 63.6757C402.35 63.359 402.192 63.0197 401.966 62.6578C401.739 62.2733 401.491 61.9566 401.219 61.6852V61.6626ZM402.441 68.9233H403.798V73.2435C403.798 73.515 403.888 73.6959 404.046 73.7864C404.205 73.8769 404.544 73.9221 405.064 73.9221H408.955C409.226 73.9221 409.43 73.8769 409.566 73.809C409.701 73.7185 409.792 73.5602 409.86 73.3114C409.927 73.0626 409.95 72.678 409.995 72.1804C410.131 72.2709 410.335 72.3614 410.561 72.4292C410.787 72.5197 410.991 72.565 411.171 72.6102C411.126 73.2662 411.036 73.7638 410.9 74.1031C410.764 74.465 410.561 74.6911 410.289 74.8269C410.018 74.9626 409.633 75.0305 409.113 75.0305H404.996C404.341 75.0305 403.82 74.9852 403.458 74.8947C403.096 74.8042 402.825 74.6233 402.667 74.3745C402.508 74.1257 402.441 73.7638 402.441 73.2888V68.9459V68.9233ZM403.051 68.9233H408.321V70.009H403.051V68.9233ZM407.869 68.9233H409.068V69.3983C409.023 70.2352 408.977 70.8685 408.91 71.2757C408.842 71.6828 408.751 71.9769 408.615 72.1578C408.389 72.384 408.05 72.4971 407.598 72.5197C407.439 72.5197 407.19 72.5197 406.851 72.5197C406.512 72.5197 406.173 72.5197 405.833 72.4745C405.833 72.3388 405.788 72.1578 405.72 71.9769C405.652 71.7959 405.585 71.6376 405.517 71.4792C405.879 71.5019 406.195 71.5245 406.489 71.5245C406.783 71.5245 406.987 71.5245 407.077 71.5245C407.304 71.5245 407.485 71.5019 407.552 71.3888C407.62 71.2983 407.688 71.0947 407.733 70.7554C407.779 70.4161 407.824 69.8507 407.846 69.059V68.8781L407.869 68.9233ZM407.326 67.2721L408.231 66.5483C408.796 66.9102 409.362 67.2947 409.95 67.7471C410.538 68.1769 411.081 68.6292 411.601 69.059C412.121 69.4888 412.529 69.8959 412.845 70.2804L411.873 71.1173C411.556 70.7554 411.149 70.3483 410.651 69.8959C410.154 69.4435 409.611 68.9911 409.023 68.5388C408.435 68.0864 407.869 67.6793 407.326 67.3173V67.2721ZM409.679 61.1876L410.968 61.5721C410.696 62.0697 410.448 62.5673 410.176 63.0423C409.905 63.5173 409.656 63.9471 409.407 64.309L408.344 63.9471C408.548 63.5626 408.774 63.1102 409.045 62.5673C409.317 62.0245 409.52 61.5721 409.656 61.165L409.679 61.1876Z" fill="#333333"/>
<path d="M84.6203 129.836C118.874 129.836 146.642 102.068 146.642 67.8149C146.642 33.5614 118.874 5.79346 84.6203 5.79346C50.3668 5.79346 22.5989 33.5614 22.5989 67.8149C22.5989 102.068 50.3668 129.836 84.6203 129.836Z" fill="#796955"/>
<path d="M140.987 67.8149C140.987 36.6845 115.751 11.4478 84.6204 11.4478C53.4899 11.4478 28.2532 36.6845 28.2532 67.8149C28.2532 98.9454 53.4899 124.181 84.6204 124.181C115.751 124.181 140.987 98.9453 140.987 67.8149ZM152.296 67.8149C152.296 105.191 121.997 135.491 84.6204 135.491C47.2439 135.491 16.9446 105.191 16.9446 67.8149C16.9446 30.4384 47.2438 0.13916 84.6204 0.13916C121.997 0.139193 152.296 30.4384 152.296 67.8149Z" fill="#F5F1EE"/>
<path d="M87.0405 71.4563H61.2774V66.2765L89.1667 24.7932H95.7036V65.0099H105.475V71.4789H95.7036V87.3801H87.0405V71.4789V71.4563ZM87.0405 64.9872V32.5063L76.0702 48.9051L65.3488 64.9646H87.0178L87.0405 64.9872Z" fill="white"/>
<path d="M71.5917 97.3327C70.1441 100.228 67.4298 103.598 63.562 105.476L63.3584 105.227C66.3667 102.829 68.5608 98.9387 69.4882 95.8399L72.4286 96.9934C72.3156 97.2423 72.112 97.378 71.5917 97.3327ZM77.6084 103.915L78.7846 102.739L80.8429 104.503C80.6846 104.684 80.4358 104.82 79.9382 104.865C79.6894 110.09 79.1917 113.302 78.0834 114.274C77.4048 114.862 76.5227 115.134 75.256 115.134C75.256 114.546 75.1429 113.98 74.781 113.686C74.3739 113.324 73.4013 113.053 72.406 112.872V112.533C73.4917 112.646 75.256 112.759 75.7763 112.759C76.1834 112.759 76.3644 112.714 76.5906 112.533C77.2239 111.967 77.631 108.914 77.8572 104.571H73.2429C72.7906 108.077 71.4334 112.239 64.5346 115.27L64.2632 114.93C69.8953 111.492 70.687 107.602 70.8906 104.548H67.181L66.9775 103.915H77.631H77.6084ZM76.2513 94.7542L78.3322 96.1339C78.0834 96.4506 77.4275 96.5863 76.6358 96.6315C77.7894 99.0744 80.6394 101.427 84.1906 102.558L84.1453 102.829C83.2632 103.101 82.5394 103.87 82.2906 104.684C79.2596 102.829 77.0203 99.9792 76.0477 96.5637H73.6048L73.4013 95.9304H75.4822L76.2286 94.7542H76.2513Z" fill="white"/>
<path d="M93.5096 101.314C93.4418 101.562 93.2156 101.676 92.9215 101.676H90.5465V104.571H91.2703L92.3108 103.123C92.3108 103.123 93.487 104.141 94.1656 104.865C94.0977 105.114 93.8715 105.227 93.6001 105.227H90.5691V111.741L94.143 110.904L94.2108 111.198C92.718 112.035 90.5013 113.166 87.3572 114.591C87.2668 114.885 87.0632 115.066 86.8596 115.134L85.5251 112.804C86.2263 112.668 87.4251 112.42 88.8275 112.126V105.227H85.9322L85.7513 104.593H88.8049V101.698H87.2215L87.131 101.382C86.7013 101.857 86.2037 102.309 85.7287 102.671L85.4572 102.49C86.8822 100.499 88.1715 97.0387 88.5787 94.8446L91.3156 95.6815C91.2477 95.9303 91.0441 96.1113 90.4787 96.1339C95.9299 98.1018 93.7811 101.087 92.3108 99.9113C91.9941 99.0291 91.2703 97.7625 90.2525 96.6315C89.6418 98.0565 88.6239 99.6625 87.4251 101.02H90.637L91.6549 99.6399C91.6549 99.6399 92.8311 100.612 93.5322 101.314H93.5096ZM86.5203 110.768C86.7013 109.389 86.4072 107.624 86.068 106.403L86.3846 106.312C89.6418 109.298 87.787 112.284 86.543 110.768H86.5203ZM93.2156 107.24C92.718 108.393 92.0394 109.705 91.3834 110.61L90.9989 110.474C91.2477 109.321 91.4965 107.579 91.6549 106.086L93.9846 106.788C93.8942 107.036 93.6453 107.217 93.193 107.217L93.2156 107.24ZM96.6084 102.671H102.399L103.304 101.585L105.204 103.033C105.068 103.214 104.842 103.349 104.389 103.44V108.71C104.389 108.71 103.756 109.162 102.783 109.162H102.444V108.371H100.341V110.723H102.15L103.258 109.411C103.258 109.411 104.525 110.339 105.317 111.017C105.249 111.266 105.023 111.379 104.729 111.379H100.363V113.799H102.783L103.937 112.329C103.937 112.329 105.226 113.347 106.018 114.093C105.95 114.342 105.747 114.455 105.452 114.455H93.2382L93.0572 113.822H98.4858V111.402H94.4596L94.2787 110.768H98.4858V108.416H96.4275V109.072C96.4275 109.208 95.8394 109.547 94.8668 109.547H94.5501V101.857L96.6311 102.693L96.6084 102.671ZM105.814 101.087C105.769 101.336 105.543 101.449 105.249 101.449H93.8941L93.7132 100.816H100.295L100.997 97.8756L103.666 98.4863C103.598 98.7803 103.326 98.9387 102.851 98.9387C102.376 99.4815 101.652 100.183 100.974 100.816H102.58L103.733 99.4363C103.733 99.4363 105 100.409 105.814 101.11V101.087ZM100.047 97.2196H102.263L103.417 95.7268C103.417 95.7268 104.729 96.7672 105.52 97.5137C105.452 97.7625 105.226 97.8756 104.932 97.8756H94.2787L94.0977 97.2423H98.7572L98.5763 97.1292C98.5311 96.3149 98.0108 95.4101 97.4227 94.9125L97.6263 94.7542C100.77 94.9803 100.861 96.6768 100.024 97.2423L100.047 97.2196ZM96.6763 100.318C96.7215 99.5042 96.3822 98.5541 96.1108 97.9661L96.337 97.8529C100.431 99.097 98.1465 101.789 96.6989 100.318H96.6763ZM98.4406 103.304H96.3822V105.249H98.4406V103.304ZM96.4049 105.883V107.737H98.4632V105.883H96.4049ZM102.444 105.249V103.304H100.341V105.249H102.444ZM100.341 107.737H102.444V105.883H100.341V107.737Z" fill="white"/>
</svg>
