<?xml version="1.0" encoding="UTF-8"?>
<svg id="_圖層_1" data-name="圖層_1" xmlns="http://www.w3.org/2000/svg" version="1.1" viewBox="0 0 500 45">
  <!-- Generator: Adobe Illustrator 29.4.0, SVG Export Plug-In . SVG Version: 2.1.0 Build 152)  -->
  <defs>
    <style>
      .st0 {
        fill: #333;
      }
    </style>
  </defs>
  <path class="st0" d="M78.5,13.6v-.9c1.2-1.1,2.1-2.1,2.9-3,.8-.9,1.4-1.7,1.8-2.4.4-.7.6-1.4.6-2s0-.8-.2-1.2c-.2-.3-.4-.6-.7-.8-.3-.2-.7-.3-1.2-.3s-.9.1-1.3.4c-.4.3-.8.6-1.1,1l-.8-.8c.5-.5,1-1,1.5-1.3.5-.3,1.2-.5,1.9-.5s1.3.1,1.8.4c.5.3.9.7,1.2,1.2.3.5.4,1.1.4,1.8s-.2,1.4-.6,2.2c-.4.7-1,1.5-1.7,2.3-.7.8-1.5,1.7-2.4,2.6.3,0,.6,0,1,0,.3,0,.7,0,1,0h3.3v1.3h-7.4,0Z"/>
  <path class="st0" d="M91.5,13.9c-.6,0-1.1-.1-1.6-.3-.5-.2-.9-.6-1.2-1-.3-.5-.6-1-.8-1.7-.2-.7-.3-1.5-.3-2.4s.1-2.1.4-2.9c.2-.8.5-1.5,1-2s.9-.9,1.4-1.1c.5-.2,1.1-.3,1.6-.3s1.2.1,1.6.3c.4.2.8.5,1.2.9l-.8.9c-.2-.3-.5-.5-.8-.7-.3-.2-.7-.2-1-.2-.5,0-1,.2-1.5.5-.5.3-.8.9-1.1,1.6-.3.8-.4,1.8-.4,3s.1,1.7.3,2.4.5,1.1.9,1.5.8.5,1.4.5.7-.1,1-.3.5-.5.7-.9c.2-.4.3-.8.3-1.3s0-.9-.2-1.3c-.2-.4-.4-.6-.7-.8-.3-.2-.7-.3-1.2-.3s-.8.1-1.2.4c-.4.2-.9.7-1.2,1.2v-1.1c.2-.3.5-.6.8-.8s.6-.4.9-.5c.3-.1.7-.2,1-.2.7,0,1.2.1,1.7.4.5.3.9.7,1.1,1.2.3.5.4,1.2.4,1.9s-.1,1.4-.5,1.9c-.3.6-.7,1-1.2,1.3s-1.1.5-1.7.5h0Z"/>
  <path class="st0" d="M96.3,9.7v-1h7.1v1h-7.1Z"/>
  <path class="st0" d="M108.3,13.9c-.6,0-1.1,0-1.6-.2-.5-.2-.9-.4-1.2-.6-.3-.2-.7-.5-.9-.8l.8-.9c.3.3.7.7,1.2.9.5.3,1,.4,1.7.4s.9,0,1.2-.3.6-.4.8-.7c.2-.3.3-.7.3-1.1s-.1-.9-.3-1.2c-.2-.3-.6-.6-1.1-.8-.5-.2-1.2-.3-2.2-.3v-1.1c.8,0,1.4,0,1.9-.3.5-.2.8-.4,1-.8.2-.3.3-.7.3-1.1s-.2-1-.5-1.3c-.4-.3-.8-.5-1.5-.5s-.9.1-1.3.3-.8.5-1.1.8l-.8-.9c.5-.4.9-.7,1.5-1,.5-.3,1.1-.4,1.8-.4s1.2.1,1.8.3c.5.2.9.5,1.2,1,.3.4.4.9.4,1.6s-.2,1.3-.6,1.7c-.4.4-.9.8-1.5,1h0c.5.2.9.4,1.2.6.4.3.7.6.9,1,.2.4.3.8.3,1.4s-.2,1.3-.5,1.7c-.3.5-.8.9-1.4,1.1-.6.3-1.2.4-1.9.4h0Z"/>
  <path class="st0" d="M117.5,13.9c-.7,0-1.4-.1-1.9-.4-.6-.3-1-.6-1.3-1.1-.3-.5-.5-1-.5-1.6s.1-.9.3-1.3c.2-.4.5-.7.8-1,.3-.3.7-.5,1-.7h0c-.4-.4-.8-.7-1.1-1.2-.3-.4-.5-1-.5-1.5s.1-1.1.4-1.5c.3-.4.7-.8,1.2-1s1-.4,1.6-.4,1.2.1,1.7.4c.5.3.9.6,1.1,1.1.3.5.4,1,.4,1.6s0,.8-.2,1.1c-.2.3-.4.7-.6.9-.2.3-.5.5-.7.7h0c.3.3.6.5.9.8.3.3.6.6.7.9.2.4.3.8.3,1.3s-.1,1.1-.5,1.5c-.3.5-.7.8-1.3,1.1-.5.3-1.2.4-1.9.4h0ZM117.5,12.8c.5,0,.9,0,1.2-.3.3-.2.6-.4.8-.7s.3-.6.3-1,0-.7-.3-1c-.2-.3-.4-.5-.7-.7-.3-.2-.6-.4-1-.5-.4-.2-.8-.3-1.2-.5-.5.3-.9.7-1.2,1.1-.3.4-.5.9-.5,1.4s.1.8.3,1.1c.2.3.5.6.9.8.4.2.8.3,1.3.3h0ZM118.3,7.4c.4-.3.7-.7.9-1.1.2-.4.3-.8.3-1.2s0-.7-.2-1c-.2-.3-.4-.5-.7-.7-.3-.2-.7-.3-1.1-.3s-1,.2-1.3.5c-.3.3-.5.8-.5,1.3s.1.8.4,1.1c.2.3.6.6,1,.8.4.2.8.4,1.3.6h0Z"/>
  <path class="st0" d="M122.4,11.2c.4-.1.9-.3,1.4-.5.5-.2,1.1-.4,1.7-.6.6-.2,1.2-.4,1.8-.7l.2,1.1c-.8.3-1.6.7-2.4,1-.8.3-1.5.6-2.2.9l-.4-1.2ZM122.7,4.1h4.4v1.1h-4.4v-1.1ZM124.5.4h1.1v10.4h-1.1V.4ZM127.3,8.1h10v1.1h-10v-1.1ZM127.7,1h9.1v1.1h-9.1v-1.1ZM128.4,3.3l1-.3c.2.4.3.9.4,1.3.1.5.2.9.3,1.4,0,.5.2.9.2,1.2l-1,.3c0-.4,0-.8-.2-1.2s-.2-.9-.3-1.4c-.1-.5-.3-.9-.4-1.3h0ZM131.6,1.3h1.2v13.6h-1.2V1.3ZM135.2,3l1.2.3c-.1.5-.3.9-.4,1.4-.1.5-.3,1-.5,1.4-.1.5-.3.9-.5,1.2l-.9-.3c.1-.4.3-.8.4-1.3s.3-1,.4-1.5c.1-.5.2-.9.3-1.3h0Z"/>
  <path class="st0" d="M138.6,13.6v-.9c1.2-1.1,2.1-2.1,2.9-3,.8-.9,1.4-1.7,1.8-2.4.4-.7.6-1.4.6-2s0-.8-.2-1.2c-.2-.3-.4-.6-.7-.8-.3-.2-.7-.3-1.2-.3s-.9.1-1.3.4-.8.6-1.1,1l-.9-.8c.5-.5,1-1,1.5-1.3.5-.3,1.2-.5,1.9-.5s1.3.1,1.8.4c.5.3.9.7,1.2,1.2.3.5.4,1.1.4,1.8s-.2,1.4-.6,2.2c-.4.7-1,1.5-1.7,2.3-.7.8-1.5,1.7-2.4,2.6.3,0,.6,0,1,0,.3,0,.7,0,1,0h3.3v1.3h-7.4,0Z"/>
  <path class="st0" d="M147.5,9.7v-1h7.1v1h-7.1Z"/>
  <path class="st0" d="M159.6,13.9c-.6,0-1.1,0-1.6-.2-.5-.2-.9-.4-1.2-.6-.3-.2-.7-.5-.9-.8l.8-.9c.3.3.7.7,1.2.9.5.3,1,.4,1.7.4s.9,0,1.2-.3c.4-.2.6-.4.8-.7.2-.3.3-.7.3-1.1s-.1-.9-.3-1.2c-.2-.3-.6-.6-1.1-.8-.5-.2-1.2-.3-2.2-.3v-1.1c.8,0,1.4,0,1.9-.3s.8-.4,1-.8.3-.7.3-1.1-.2-1-.5-1.3c-.3-.3-.8-.5-1.5-.5s-.9.1-1.3.3c-.4.2-.8.5-1.1.8l-.8-.9c.5-.4.9-.7,1.5-1,.5-.3,1.1-.4,1.8-.4s1.2.1,1.8.3c.5.2.9.5,1.2,1,.3.4.4.9.4,1.6s-.2,1.3-.6,1.7c-.4.4-.9.8-1.5,1h0c.5.2.9.4,1.2.6.4.3.7.6.9,1,.2.4.3.8.3,1.4s-.2,1.3-.5,1.7c-.3.5-.8.9-1.4,1.1s-1.2.4-1.9.4h0Z"/>
  <path class="st0" d="M166.4,1.8h1.2v3.8c0,.7,0,1.4,0,2.2s-.1,1.6-.2,2.4c-.1.8-.3,1.6-.5,2.4-.2.8-.5,1.5-.9,2.2,0,0-.2-.1-.3-.2-.1,0-.3-.1-.4-.2-.1,0-.3-.1-.4-.1.4-.6.7-1.3.9-2.1s.4-1.5.5-2.3c.1-.8.2-1.5.2-2.3,0-.7,0-1.4,0-2.1V1.8h0ZM167,1.8h11.4v3.7h-11.4v-1h10.2v-1.7h-10.2v-1ZM171.2,8.3h1.2c0,.8-.2,1.5-.3,2.2-.2.7-.4,1.3-.7,1.8-.3.6-.7,1.1-1.2,1.5-.5.4-1.2.8-2,1.1,0-.1-.2-.3-.3-.5-.1-.2-.3-.3-.4-.4.8-.3,1.4-.6,1.8-.9s.8-.8,1.1-1.3.5-1,.6-1.6c.1-.6.2-1.2.3-1.9h0ZM168.1,7.7h10.8v1h-10.8v-1ZM171.3.5l1.2-.3c.2.3.3.7.5,1,.2.4.3.7.4,1l-1.2.4c0-.3-.2-.6-.3-1-.2-.4-.3-.7-.5-1.1h0ZM171.6,10.2h5.4v1h-5.4v-1ZM172.3,6l1-.4c.2.3.4.6.6.9.2.3.4.6.5.8l-1.1.4c-.1-.2-.2-.5-.4-.9-.2-.3-.4-.6-.6-.9ZM176.7,10.2h1.2c0,.2,0,.4,0,.5,0,.8-.1,1.4-.2,1.9,0,.5-.2.9-.3,1.2s-.2.5-.4.6c-.1.1-.3.2-.5.3-.2,0-.4,0-.6,0-.2,0-.5,0-.9,0-.4,0-.8,0-1.3,0,0-.2,0-.3,0-.5,0-.2-.1-.4-.2-.5.4,0,.9,0,1.3,0,.4,0,.7,0,.8,0s.3,0,.4,0c0,0,.2,0,.2-.1.1-.1.2-.3.3-.5,0-.2.2-.6.2-1.1s.1-1.1.2-1.8v-.2h0Z"/>
  <path class="st0" d="M183.4,4.4l.8.3c-.1.6-.3,1.3-.5,2-.2.7-.4,1.4-.7,2-.2.7-.5,1.3-.8,1.8-.3.6-.6,1-.9,1.5,0-.2-.2-.3-.3-.5-.1-.2-.2-.4-.3-.5.3-.4.6-.8.8-1.3.3-.5.5-1.1.8-1.6.2-.6.5-1.2.7-1.8.2-.6.4-1.2.5-1.8h0ZM181.1,3.6h5.6v1.1h-5.6v-1.1ZM183.4.2h1.1v14.7h-1.1V.2ZM184.5,5.4c.1.1.2.3.4.5.2.2.4.5.6.8.2.3.4.5.6.8.2.2.3.4.4.5l-.7.9c0-.2-.2-.4-.4-.7-.2-.3-.4-.6-.6-.8s-.4-.6-.6-.8c-.2-.3-.3-.4-.4-.6l.6-.5h0ZM193.3,1.9h.4s.8.3.8.3c-.3,1-.8,1.9-1.4,2.7s-1.2,1.5-1.9,2.2c-.7.6-1.5,1.2-2.3,1.7-.8.5-1.7.9-2.5,1.2,0-.1-.2-.3-.3-.5-.1-.2-.3-.4-.4-.5.8-.2,1.6-.6,2.4-1,.8-.4,1.5-.9,2.2-1.5s1.3-1.2,1.8-2c.5-.7.9-1.5,1.2-2.4v-.2h0ZM189.5.2l1.2.3c-.3.7-.6,1.4-1,2.1-.4.7-.8,1.3-1.3,1.9-.5.6-.9,1.1-1.4,1.5,0,0-.2-.2-.3-.3-.1,0-.2-.2-.4-.3-.1-.1-.2-.2-.3-.2.7-.6,1.4-1.3,2-2.2.6-.9,1.1-1.8,1.5-2.7ZM187.6,9.1h6.8v5.8h-1.2v-4.8h-4.5v4.9h-1.1v-5.9ZM188.1,13.2h5.7v1.1h-5.7v-1.1ZM189,2.8c.3.8.8,1.5,1.4,2.3.6.8,1.4,1.5,2.3,2.1.9.6,2,1.1,3.1,1.5,0,0-.2.2-.3.3,0,.1-.2.2-.3.4s-.2.2-.2.3c-1.2-.4-2.2-1-3.2-1.6-.9-.7-1.7-1.4-2.3-2.2s-1.1-1.6-1.5-2.4l.9-.6h0ZM189.1,1.9h4.5v1h-4.5v-1Z"/>
  <path class="st0" d="M198.7,1h1.2v3.8c0,.7,0,1.4,0,2.3,0,.8-.2,1.7-.3,2.5-.2.9-.4,1.7-.7,2.5-.3.8-.7,1.6-1.2,2.3,0,0-.1-.2-.3-.3-.1,0-.2-.2-.4-.3-.1,0-.2-.2-.3-.2.5-.6.8-1.3,1.1-2.1.3-.8.5-1.5.6-2.3.1-.8.2-1.6.3-2.3,0-.8,0-1.5,0-2.1V1h0ZM199.4,1h10.3v4.1h-10.3v-1h9.1v-2.1h-9.1v-1ZM199.4,6.5h10.6v1.1h-10.6v-1.1ZM201.2,8.9h1.1v5.1h-1.1v-5.1ZM201.8,8.9h5.5v4.1h-5.5v-1h4.3v-2.2h-4.3v-1ZM209.6,6.5h1.2v.3c0,0,0,.2,0,.2,0,1.2-.1,2.3-.2,3.1,0,.9-.1,1.6-.2,2.1,0,.6-.1,1-.2,1.3,0,.3-.2.5-.3.7-.1.2-.3.3-.5.4-.2,0-.4.1-.6.1-.2,0-.5,0-.9,0s-.8,0-1.2,0c0-.2,0-.3-.1-.6s-.1-.4-.2-.6c.4,0,.8,0,1.2,0,.4,0,.6,0,.8,0s.3,0,.3,0c0,0,.2,0,.2-.2.1-.1.2-.4.3-.9s.2-1.2.2-2.1c0-.9.1-2.2.2-3.8v-.2h0Z"/>
  <path class="st0" d="M214.9,10.6l-.4-.9c.7-.3,1.2-.6,1.5-1,.4-.4.5-.9.5-1.5l-.3-1.3.9,1.2c-.1.1-.2.2-.4.3-.1,0-.3,0-.4,0-.3,0-.6,0-.9-.3-.2-.2-.3-.5-.3-.8s.1-.7.4-.9c.2-.2.5-.3.9-.3s.8.2,1,.5c.2.3.3.8.3,1.3,0,.9-.2,1.6-.8,2.2s-1.2,1.1-2,1.4Z"/>
  <path class="st0" d="M224.4,11.9c.5-.2,1.2-.5,1.9-.8s1.5-.6,2.3-1c.8-.3,1.6-.7,2.4-1l.3,1.2c-.7.3-1.5.7-2.3,1-.8.3-1.5.7-2.2,1-.7.3-1.4.6-1.9.9l-.4-1.2h0ZM226.3,1.1h1.2s.3,10.5.3,10.5h-1.2c0,0-.3-10.5-.3-10.5ZM236.2,1h1.3c-.2,2-.5,3.6-.9,5.1-.4,1.5-.9,2.7-1.5,3.8-.6,1.1-1.4,2.1-2.4,2.9-1,.8-2.1,1.5-3.5,2.1,0,0-.1-.2-.3-.3-.1-.1-.2-.3-.4-.4-.1-.1-.2-.2-.3-.3,1.4-.5,2.6-1.1,3.5-1.9.9-.8,1.7-1.6,2.3-2.7.6-1.1,1.1-2.3,1.4-3.6.3-1.4.6-2.9.8-4.7ZM229.6,2.7l1.1-.5c.3.4.7.8,1,1.3.3.5.6.9.9,1.4.3.4.5.8.6,1.2l-1.1.6c-.1-.4-.3-.8-.6-1.2-.3-.5-.5-.9-.9-1.4-.3-.5-.7-.9-1-1.3h0ZM234,9.8l.9-.8c.4.4.8.8,1.2,1.2.4.4.8.9,1.2,1.3.4.4.8.9,1.1,1.3.4.4.6.8.9,1.1l-1,.9c-.2-.3-.5-.7-.8-1.1s-.7-.9-1.1-1.3-.8-.9-1.2-1.4-.8-.9-1.2-1.3h0Z"/>
  <path class="st0" d="M240.3,11.5c.5-.1,1.2-.2,1.9-.4.7-.1,1.5-.3,2.3-.5v1c-.6.2-1.3.3-2,.5-.7.2-1.3.3-1.9.5l-.2-1.1h0ZM240.5.9h5.2v1.1h-5.2V.9ZM241.3,1.4h.9v10.2h-.9V1.4ZM241.9,4.3h2.6v1h-2.6v-1ZM241.9,7.6h2.6v1h-2.6v-1ZM243.9,1.4h1v13.5h-1V1.4ZM245.4,5h9.7v1.1h-9.7v-1.1ZM245.7,1.9h4.8v1h-4.8v-1ZM246.1,7h1v6.7h-1v-6.7ZM246.2,3.2h.9c.1.2.2.6.3,1,0,.4.1.8.2,1l-.9.2c0-.3,0-.6-.2-1.1,0-.4-.2-.8-.3-1.1h0ZM246.5,7h3.8v6.1h-.9v-5.2h-2.9v-.9ZM246.5,9.4h3.3v.9h-3.3v-.9ZM246.5,11.7h3.3v.9h-3.3v-.9ZM247.1.5l1-.2c.1.3.3.6.4,1,.1.4.3.7.3.9l-1,.3c0-.3-.2-.6-.3-.9s-.3-.7-.4-1h0ZM249.1,3l1,.2c-.1.4-.2.8-.4,1.2-.1.4-.2.7-.3,1l-.8-.2c.1-.3.2-.7.3-1.1.1-.4.2-.8.2-1.1h0ZM254,7l.9.5c-.3,1.1-.8,2.1-1.3,3-.6.9-1.2,1.8-1.9,2.5-.7.7-1.4,1.4-2.1,1.9,0-.1-.2-.2-.3-.3-.1-.1-.3-.2-.4-.3.8-.5,1.4-1.1,2.1-1.8.7-.7,1.2-1.5,1.8-2.4.5-.9.9-1.9,1.2-2.9h0ZM251,.2h1c0,1.4,0,2.8.1,4.1,0,1.3.1,2.5.2,3.7s.2,2.1.4,2.9.3,1.5.5,1.9c.2.5.4.7.6.7.1,0,.2-.2.3-.6,0-.4.2-1,.2-1.7,0,0,.2.1.2.2.1,0,.2.2.3.2.1,0,.2.1.2.2-.1.8-.2,1.4-.4,1.9-.1.4-.3.8-.5.9-.2.2-.4.3-.5.3-.4,0-.8-.3-1.1-.7-.3-.5-.6-1.2-.8-2.1-.2-.9-.4-2-.5-3.2-.1-1.2-.2-2.6-.3-4,0-1.5-.1-3-.1-4.7h0ZM252.5,1.5l.9-.3c.2.3.4.6.5.9.2.3.3.7.5,1,.1.3.2.6.3.8l-.9.4c0-.2-.2-.5-.3-.8-.1-.3-.3-.7-.4-1-.2-.3-.3-.7-.5-1h0Z"/>
  <path class="st0" d="M263.1.3h1.3c0,.5,0,1.1,0,1.8,0,.7-.1,1.5-.3,2.4-.1.9-.3,1.8-.6,2.8-.3,1-.7,1.9-1.2,2.8-.5.9-1.2,1.8-1.9,2.6-.8.8-1.7,1.5-2.9,2.1-.1-.1-.2-.3-.4-.5-.2-.2-.4-.3-.5-.5,1.1-.6,2-1.2,2.8-2,.8-.8,1.4-1.6,1.9-2.5s.9-1.8,1.1-2.7c.3-.9.5-1.8.6-2.6s.2-1.6.2-2.3c0-.7,0-1.2,0-1.6h0ZM264.3,2.2c0,.2,0,.5.1,1s.2,1.1.3,1.8c.2.7.4,1.5.7,2.3.3.8.7,1.6,1.2,2.4s1.1,1.6,1.9,2.2c.7.7,1.6,1.3,2.6,1.7-.2.1-.3.3-.5.5-.2.2-.3.4-.4.5-1-.5-2-1.1-2.7-1.8-.8-.7-1.4-1.5-1.9-2.4-.5-.9-.9-1.7-1.3-2.6-.3-.9-.6-1.7-.7-2.5-.2-.8-.3-1.4-.4-2,0-.6-.1-1-.2-1.2h1.1c0-.1,0-.1,0-.1Z"/>
  <path class="st0" d="M274.3,9.7l1.1.4c-.1.4-.3.9-.4,1.4-.2.5-.4,1-.6,1.4s-.5.9-.7,1.2l-1.1-.6c.3-.3.5-.7.7-1.2s.4-.9.6-1.4c.2-.5.3-.9.4-1.3h0ZM274.1.9h11.2v7.2h-11.2V.9ZM275.3,2v2h8.9V2h-8.9ZM275.3,5v2.1h8.9v-2.1h-8.9ZM276.4,9.8h1.2v3.2c0,.2,0,.4.2.4.1,0,.4.1.9.1h3.1c.3,0,.5,0,.6-.1.1,0,.2-.3.3-.6,0-.3.1-.8.1-1.3.1,0,.2.1.3.2.1,0,.3.1.4.2s.3,0,.4.1c0,.7-.1,1.3-.3,1.7-.1.4-.3.7-.6.8-.3.1-.7.2-1.1.2h-3.2c-.6,0-1,0-1.3-.1-.3-.1-.5-.3-.7-.5-.1-.2-.2-.6-.2-1v-3.2h0ZM277.9,9.2l.8-.7c.4.2.8.4,1.2.7.4.3.8.5,1.2.8.4.3.7.5.9.8l-.9.8c-.2-.2-.5-.5-.9-.8-.4-.3-.8-.6-1.2-.8-.4-.3-.8-.5-1.2-.8ZM279.2,1.4h1.2v6.3h-1.2V1.4ZM283.7,10l1.1-.4c.3.4.6.8.9,1.3.3.5.6.9.8,1.4s.4.9.5,1.2l-1.2.5c-.1-.4-.3-.8-.5-1.2s-.5-.9-.8-1.4c-.3-.5-.6-.9-.9-1.4h0Z"/>
  <path class="st0" d="M289.2,10.5l1,.2c0,.7-.2,1.4-.3,2.1-.1.7-.3,1.3-.5,1.8-.1,0-.3-.1-.5-.2-.2,0-.3-.1-.5-.2.2-.5.4-1.1.5-1.7.1-.7.2-1.3.3-2h0ZM288.8,6.2c0,0,0-.2,0-.3,0-.1,0-.3-.1-.4,0-.1,0-.2-.1-.3.1,0,.3-.1.4-.3.1-.2.3-.4.5-.6.1-.2.3-.5.6-.9.2-.4.5-.9.8-1.5.3-.6.5-1.1.7-1.7l1,.4c-.4.9-.9,1.8-1.4,2.7s-1,1.6-1.6,2.3h0c-.1,0-.3.2-.4.2,0,0-.2.1-.3.2,0,0-.1.1-.1.2h0ZM288.9,9.8c0,0,0-.2,0-.3,0-.1,0-.3-.1-.4,0-.1,0-.2-.1-.3.2,0,.4-.1.5-.3.2-.2.4-.4.6-.7.1-.1.3-.4.6-.7.2-.3.5-.7.8-1.2s.6-1,.9-1.5c.3-.5.6-1.1.9-1.7l1,.6c-.4.7-.8,1.5-1.3,2.2-.5.7-1,1.4-1.5,2.1-.5.7-1,1.3-1.5,1.8h0c-.1.1-.3.2-.4.2,0,0-.2.1-.3.2,0,0-.1.1-.1.2h0ZM288.8,6.2v-.8s.5-.3.5-.3l2.8-.2c0,.2,0,.3,0,.5,0,.2,0,.3,0,.4-.6,0-1.2.1-1.5.2-.4,0-.7,0-.9.1-.2,0-.4,0-.5.1-.1,0-.2,0-.3,0ZM288.9,9.8v-.8s.5-.4.5-.4l4.3-.6c0,.1,0,.3,0,.5v.4c-1,.2-1.8.3-2.4.4-.6,0-1.1.2-1.4.2-.3,0-.6.1-.7.1s-.2,0-.3.1ZM290.9,10.6l.9-.2c.1.5.2,1.1.3,1.8,0,.6.1,1.2.2,1.6l-.9.2c0-.5,0-1-.1-1.7,0-.6-.2-1.2-.3-1.8h0ZM292.5,6.5l.8-.3c.2.3.4.7.5,1.1.2.4.3.8.4,1.1.1.4.2.7.3,1l-.9.4c0-.3-.1-.6-.2-1-.1-.4-.2-.8-.4-1.2-.2-.4-.3-.8-.5-1.1h0ZM292.7,10.3l.8-.3c.2.5.4,1,.6,1.6.2.6.3,1.1.4,1.5l-.9.3c0-.4-.2-.9-.4-1.5-.2-.6-.4-1.1-.5-1.6h0ZM296.8.3l1.2.3c-.2.7-.5,1.5-.9,2.2-.3.8-.7,1.5-1.1,2.2-.4.7-.9,1.4-1.4,1.9,0-.1,0-.2-.2-.4,0-.1-.1-.3-.2-.4,0-.1-.1-.2-.2-.3.4-.5.8-1.1,1.2-1.7.4-.6.7-1.3,1-2,.3-.7.5-1.3.7-1.9h0ZM296.6,3.1h6.2v1.1h-6.2v10.8h-1.1V3.9l.7-.8h.4ZM296,12.7h7.1v1.1h-7.1v-1.1ZM296.1,6.2h6.5v1.1h-6.5v-1.1ZM296.1,9.4h6.5v1.1h-6.5v-1.1ZM298.4.7l1-.4c.2.4.4.7.6,1.2.2.4.4.8.5,1.1l-1.1.5c-.1-.3-.3-.7-.5-1.1s-.4-.8-.6-1.2ZM299,3.5h1.1v9.8h-1.1V3.5Z"/>
  <path class="st0" d="M307.1.4h1.1v5.5c0,.7,0,1.4,0,2.3,0,.8-.2,1.6-.4,2.4-.2.8-.5,1.6-.9,2.3-.4.7-1,1.4-1.7,1.9,0-.1-.1-.2-.2-.3-.1-.1-.2-.2-.3-.3-.1-.1-.2-.2-.3-.3.7-.5,1.2-1.1,1.5-1.7.4-.7.6-1.3.8-2.1.2-.7.3-1.4.3-2.2,0-.7,0-1.4,0-2V.4h0ZM304.5,6.6h6.3v1.1h-6.3v-1.1ZM304.8,2.9h5.7v1.1h-5.7v-1.1ZM308,8.5c.1.1.3.3.5.5.2.2.4.4.7.7.2.3.5.5.7.8.2.3.5.5.6.7.2.2.3.4.4.5l-.8.9c-.1-.2-.3-.5-.6-.8s-.5-.6-.8-1-.5-.7-.8-1c-.3-.3-.5-.5-.6-.7l.7-.6h0ZM312.8,9.5h1.1c0,.6-.2,1.2-.3,1.8-.1.6-.4,1.1-.7,1.5-.3.5-.7.9-1.1,1.2s-1.1.7-1.8.9c0-.1-.1-.3-.3-.5-.1-.2-.3-.3-.4-.4.8-.3,1.5-.6,2-1.1s.8-.9,1-1.5c.2-.6.3-1.2.4-1.9h0ZM311.4.8h6.9v8.9h-6.9V.8ZM312.6,1.9v1.6h4.6v-1.6h-4.6ZM312.6,4.5v1.6h4.6v-1.6h-4.6ZM312.6,7.1v1.6h4.6v-1.6h-4.6ZM315.3,9.3h1.1v3.9c0,.2,0,.3,0,.4,0,0,.1,0,.3,0h1c.1,0,.2,0,.3-.1s.1-.3.1-.6c0-.3,0-.8,0-1.4,0,0,.2.1.3.2.1,0,.2.1.4.2.1,0,.2,0,.3.1,0,.7,0,1.3-.2,1.7,0,.4-.2.7-.4.8-.2.1-.4.2-.8.2h-1.3c-.4,0-.6,0-.8-.1-.2,0-.3-.2-.4-.5,0-.2-.1-.5-.1-.9v-3.9Z"/>
  <path class="st0" d="M320.4,13.6c.8,0,1.6,0,2.6-.1s2.1,0,3.2-.1c1.1,0,2.3-.1,3.4-.2v.9c-1.1,0-2.2.1-3.3.2-1.1,0-2.2.1-3.2.2-1,0-1.9,0-2.6.1v-1ZM320.5,2.8h9.2v.8h-9.2v-.8ZM320.6,7.5h9v.8h-9v-.8ZM321.3,6h7.6v.8h-7.6v-.8ZM321.5,1.3h7.2v4h-7.3v-.8h6.2v-2.5h-6.2v-.8ZM321.5,9h7.2v3.6h-7.2v-3.6ZM322.5,9.7v.8h5.2v-.8h-5.2ZM322.5,11.1v.8h5.2v-.8h-5.2ZM324.5.2h1.1v7.8h-1.1V.2ZM324.6,9.3h1v3h-1v-3ZM330.3,2.1h1.1v8.9h-1.1V2.1ZM333.4.5h1.2v12.9c0,.4,0,.7-.2.9,0,.2-.3.3-.5.4-.2.1-.5.2-.9.2-.4,0-.9,0-1.6,0,0-.2,0-.3-.1-.6,0-.2-.1-.4-.2-.6.5,0,.9,0,1.3,0h.8c.1,0,.2,0,.3,0s0-.1,0-.3V.5h0Z"/>
  <path class="st0" d="M340.1.1l1.2.4c-.3.7-.7,1.4-1.1,2.1s-.9,1.4-1.3,2c-.5.6-.9,1.2-1.4,1.6,0,0-.2-.1-.3-.2-.1,0-.3-.2-.4-.3-.1,0-.2-.2-.4-.2.5-.4,1-.9,1.4-1.5.5-.6.9-1.2,1.3-1.9.4-.7.7-1.3,1-2h0ZM336.5,8.1h3s8.8,0,8.8,0h0s2.8,0,2.8,0v1.1h-2.8s-8.8,0-8.8,0h0s-3,0-3,0v-1.1ZM339.4,4.5h1.2c0,.7-.2,1.4-.3,2.1,0,.8-.2,1.5-.3,2.3-.1.8-.2,1.5-.3,2.1-.1.7-.2,1.3-.3,1.8h-1.2c.1-.5.2-1.1.3-1.8.1-.7.2-1.4.3-2.1.1-.8.2-1.5.3-2.3s.2-1.4.2-2.1h0ZM338.8,11.8h11.8v1.1h-11.8v-1.1ZM339.5,1.8h11.1v1.1h-11.1v-1.1ZM340,4.5h8.4v1.1h-8.4v-1.1ZM341.6,9.8l.7-.7c.4.2.8.4,1.1.6.4.2.8.5,1.1.7.3.2.6.5.8.7l-.7.8c-.2-.2-.5-.4-.8-.7-.3-.3-.7-.5-1.1-.7-.4-.2-.8-.4-1.1-.6h0ZM342.1,6.3l.7-.7c.3.1.7.3,1.1.5s.7.4,1,.6c.3.2.6.4.8.6l-.7.8c-.2-.2-.5-.4-.8-.6-.3-.2-.7-.4-1-.7-.4-.2-.7-.4-1.1-.6h0ZM347.8,4.5h1.2v.6c0,1.6-.1,3-.2,4.1,0,1.1-.1,2-.2,2.7,0,.7-.2,1.2-.3,1.6-.1.4-.2.7-.3.8-.1.2-.3.3-.5.4s-.4.1-.6.2c-.2,0-.5,0-.9,0-.4,0-.8,0-1.1,0,0-.1,0-.3-.1-.5,0-.2-.1-.3-.2-.5.4,0,.8,0,1.1,0,.3,0,.6,0,.7,0s.2,0,.3,0c0,0,.2,0,.2-.2.1-.1.2-.4.3-.7,0-.4.1-.9.2-1.6,0-.7.1-1.6.2-2.7,0-1.1.1-2.4.2-4v-.3h0Z"/>
  <path class="st0" d="M352.5,6.7h14.7v1.3h-14.7v-1.3Z"/>
  <path class="st0" d="M368.6,3.6h14.3v1.2h-14.3v-1.2ZM370.5,7l1-.6c.4.4.8.8,1.2,1.3.4.5.8,1,1.1,1.4.3.5.6.9.7,1.3l-1.1.7c-.2-.4-.4-.8-.7-1.3-.3-.5-.7-1-1-1.5-.4-.5-.8-.9-1.2-1.3h0ZM378,.2h1.3v12.9c0,.5,0,.9-.2,1.1-.1.2-.4.4-.7.5-.3.1-.8.2-1.4.2-.6,0-1.3,0-2.2,0,0-.1,0-.3-.1-.4,0-.2-.1-.3-.2-.5,0-.2-.1-.3-.2-.4.5,0,1,0,1.4,0h1.9c.2,0,.3,0,.4-.1,0,0,.1-.2.1-.4V.2h0Z"/>
  <path class="st0" d="M386.7,1.2h1.3v4.4c0,.7,0,1.4,0,2.3,0,.8-.2,1.6-.4,2.5-.2.8-.4,1.7-.8,2.4s-.8,1.5-1.4,2.1c0,0-.2-.2-.3-.3-.1-.1-.2-.2-.4-.3-.1-.1-.2-.2-.3-.2.5-.6,1-1.3,1.3-2,.3-.7.5-1.4.7-2.2.2-.8.2-1.5.3-2.2,0-.7,0-1.4,0-2.1V1.2h0ZM388.4,6.7c.6,1.2,1.4,2.3,2.5,3.3,1,.9,2.3,1.7,3.7,2.4,1.4.6,3,1.1,4.7,1.4,0,0-.2.2-.3.3-.1.1-.2.3-.3.4,0,.1-.2.3-.2.4-1.8-.3-3.4-.8-4.8-1.5-1.4-.7-2.7-1.6-3.7-2.6-1.1-1-1.9-2.2-2.6-3.6l1.1-.4h0ZM387.4,1.2h10.1v6h-10.1v-1.2h8.8v-3.7h-8.8v-1.2h0Z"/>
  <path class="st0" d="M401.8,1.8h1.2v4.4c0,.6,0,1.3,0,2.1,0,.8-.1,1.5-.2,2.3-.1.8-.3,1.6-.5,2.3-.2.8-.5,1.4-.8,2.1,0,0-.2-.1-.3-.2-.1,0-.3-.1-.4-.2-.1,0-.3-.1-.3-.1.3-.6.6-1.3.8-2,.2-.7.3-1.4.4-2.2.1-.7.2-1.4.2-2.1,0-.7,0-1.4,0-1.9V1.8h0ZM402.4,1.8h12.6v1.1h-12.6v-1.1ZM412.5,9.4h.4c0,0,.8.3.8.3-.4.8-1,1.5-1.7,2.1-.7.6-1.5,1.1-2.5,1.5-.9.4-1.9.7-2.9.9-1,.2-2.1.4-3.2.6,0-.1-.1-.3-.2-.5-.1-.2-.2-.4-.3-.5,1,0,2-.2,3-.4s1.9-.5,2.8-.8c.9-.3,1.6-.8,2.3-1.2.7-.5,1.2-1.1,1.5-1.7v-.2h0ZM403.4,4.7h11.4v1h-11.4v-1ZM403.6,9.4h9.2v1h-9.2v-1ZM406.2,10.2c.5.7,1.2,1.3,2.1,1.8s1.9.9,3.1,1.2c1.2.3,2.4.5,3.8.6,0,0-.2.2-.3.3s-.2.2-.2.4c0,.1-.1.2-.2.4-1.4-.2-2.6-.4-3.8-.8-1.2-.4-2.2-.8-3.2-1.4s-1.7-1.3-2.3-2.1l1-.4h0ZM406,3.4h1.1v4.1h3.9V3.4h1.2v5h-6.2V3.4ZM407.4.4l1.2-.3c.2.3.4.7.5,1.1.2.4.3.7.4,1l-1.2.3c0-.3-.2-.6-.4-1-.2-.4-.3-.8-.5-1.1h0Z"/>
  <path class="st0" d="M418.5,10.6l-.3-.9c.6-.3,1.1-.6,1.5-1,.3-.4.5-.9.5-1.5l-.3-1.3.9,1.2c-.1.1-.2.2-.4.3-.1,0-.3,0-.4,0-.3,0-.6,0-.9-.3s-.4-.5-.4-.8.1-.7.4-.9c.2-.2.5-.3.9-.3s.8.2,1,.5c.2.3.3.8.3,1.3,0,.9-.2,1.6-.8,2.2s-1.2,1.1-2,1.4Z"/>
  <path class="st0" d="M99.4,32.9h5.1v1h-5.1v-1ZM100,39.4h.9v5.4h-.9v-5.4ZM100.1,35.1h4v.9h-4v-.9ZM100.1,37.2h4v1h-4v-1ZM100.8,39.4h3.3v4.7h-3.3v-1h2.4v-2.7h-2.4v-1ZM101,30.6l.9-.3c.2.3.4.7.6,1.1.2.4.3.7.4,1l-.9.4c0-.3-.2-.6-.3-1.1-.2-.4-.4-.8-.6-1.1h0ZM108.6,40.1l.9.3c-.3.4-.8.8-1.3,1.1s-1,.6-1.6.9c-.6.3-1.1.5-1.7.7,0,0,0-.1-.2-.2,0,0-.2-.2-.2-.3s-.1-.2-.2-.2c.5-.2,1.1-.3,1.6-.5.6-.2,1.1-.5,1.5-.7.5-.3.8-.6,1.1-.9ZM104.6,39.9h9.5v.9h-9.5v-.9ZM104.8,31.4h9.2v.9h-9.2v-.9ZM105.1,36.6h8.7v.8h-8.7v-.8ZM105.4,38.2h8.1v.8h-8.1v-.8ZM105.4,33h3.6v2.7h-3.6v-2.7ZM106.6,44.9c0-.1-.1-.3-.2-.4s-.2-.3-.3-.4c.1,0,.2-.2.4-.4.1-.2.2-.5.2-.8v-1.2h1v2.1c-.2.2-.4.3-.5.5s-.3.3-.4.4c-.1.1-.2.2-.2.4h0ZM106.3,33.7v1.2h1.7v-1.2h-1.7ZM106.6,44.9v-.9s.5-.4.5-.4l3-.6c0,.1,0,.3,0,.5,0,.2,0,.3,0,.4-.7.2-1.3.3-1.7.4-.4,0-.8.2-1,.2-.2,0-.4.1-.5.2s-.2,0-.3.1ZM107,35.5h1.1v4.6h-1.1v-4.6ZM108.4,30.4l1-.3c.2.3.3.5.5.8.1.3.3.6.3.8l-1.1.4c0-.2-.1-.5-.3-.8-.1-.3-.3-.6-.4-.9h0ZM110.2,40.3c.3.9.9,1.7,1.6,2.3.7.7,1.6,1.1,2.6,1.4-.1.1-.2.2-.4.4-.1.2-.2.3-.3.5-1.1-.3-2-.9-2.7-1.7-.7-.8-1.3-1.7-1.7-2.7l.9-.2ZM109.8,33h3.6v2.7h-3.6v-2.7ZM110.5,35.5h1.1v4.6h-1.1v-4.6ZM110.8,33.7v1.2h1.7v-1.2h-1.7ZM113.2,41l.7.6c-.4.3-.8.5-1.2.7s-.9.4-1.2.6l-.6-.6c.2-.1.5-.3.8-.4.3-.2.6-.3.8-.5.3-.2.5-.3.7-.5h0Z"/>
  <path class="st0" d="M116,43.4h13.7v1.2h-13.7v-1.2ZM116,32.1h13.5v3.2h-1.2v-2.1h-11.1v2.5h-1.2v-3.6h0ZM120.7,32.9h1.2c0,.8-.2,1.4-.3,2-.2.6-.4,1-.8,1.5-.4.4-.9.8-1.5,1-.7.3-1.5.5-2.5.7,0,0,0-.2-.1-.3s-.1-.2-.2-.3c0-.1-.2-.2-.2-.3.9-.1,1.7-.3,2.2-.5.6-.2,1-.5,1.3-.8.3-.3.5-.7.7-1.2s.2-1,.2-1.6ZM117.4,38.9h10.8v1.1h-10.8v-1.1ZM121.5,30.5l1.2-.4c.2.4.4.7.7,1.2.2.4.4.8.5,1.1l-1.3.4c-.1-.3-.2-.7-.5-1.1-.2-.4-.4-.9-.6-1.2h0ZM122.2,39.4h1.2v4.5h-1.2v-4.5ZM124,32.9h1.2v2.9c0,.2,0,.4.1.5,0,0,.2.1.4.1h2.8c.2,0,.4,0,.7,0s.5,0,.6,0c0,.2,0,.4,0,.6s0,.4,0,.5c-.1,0-.3,0-.6,0-.3,0-.5,0-.8,0h-2.8c-.5,0-.8,0-1-.2s-.4-.3-.5-.5-.1-.6-.1-1v-2.8h0Z"/>
  <path class="st0" d="M132.2,30.9h1.2v14h-1.2v-14ZM132.8,33.2h4.4v.9h-4.4v-.9ZM132.9,30.9h5.1v5.5h-5.1v-.9h4v-3.6h-4v-.9ZM135.8,37.6h1.1v6.7h-1.1v-6.7ZM136.3,37.6h5.5v5.8h-5.5v-.9h4.3v-3.9h-4.3v-.9h0ZM136.4,40h4.8v.9h-4.8v-.9ZM144.8,30.9v.9h-4.2v3.7h4.2v.9h-5.3v-5.5h5.3ZM140.2,33.2h4.5v.9h-4.5v-.9ZM144.2,30.9h1.2v12.5c0,.4,0,.7-.2.9,0,.2-.3.4-.5.5-.3.1-.6.2-1.1.2s-1,0-1.7,0c0-.1,0-.2-.1-.4,0-.2,0-.3-.2-.5,0-.2-.1-.3-.2-.4.3,0,.6,0,.9,0h1.3c.1,0,.2,0,.3-.1,0,0,0-.1,0-.3v-12.4Z"/>
  <path class="st0" d="M148.3,37.4h1.1c0,1.1,0,2-.1,3,0,.9-.2,1.8-.4,2.5-.2.8-.4,1.5-.7,2,0,0-.2-.1-.3-.2-.1,0-.2-.2-.4-.2-.1,0-.2-.1-.3-.2.3-.5.5-1.2.7-1.9.2-.7.3-1.5.3-2.4,0-.9,0-1.8,0-2.7h0ZM147.6,35.2h6.9v1.1h-6.9v-1.1ZM148,32.1h6.2v1.1h-6.2v-1.1ZM149.2,39.3c.2.8.5,1.5.8,2.1.3.5.8.9,1.3,1.2.5.3,1.1.5,1.8.6.7.1,1.5.2,2.5.2h5.9c.4,0,.6,0,.8,0,0,0-.1.2-.2.3,0,.1-.1.3-.2.4,0,.1,0,.3-.1.4h-6.2c-1.1,0-2.1,0-2.8-.2-.8-.1-1.5-.4-2.1-.7-.6-.3-1-.8-1.4-1.5s-.7-1.5-1-2.5l.9-.3h0ZM150.5,30.2h1.1v5.5h-1.1v-5.5ZM150.7,35.9h1.1v7.3h-1.1v-7.3ZM151.3,38.6h3.1v1.1h-3.1v-1.1ZM157,31.3h1.1c-.1,1.4-.4,2.6-.9,3.4s-1.2,1.6-2.2,2.1c0,0-.1-.2-.3-.3s-.2-.2-.3-.3c-.1,0-.2-.1-.3-.2.9-.5,1.6-1.1,2.1-1.8.4-.8.7-1.8.8-3h0ZM154.6,30.9h6.5v1h-6.5v-1ZM155.2,37.1h6.2v5h-6.2v-5ZM156.3,38.1v2.9h3.8v-2.9h-3.8ZM160.5,30.9h1.2c0,.2,0,.4,0,.5,0,1,0,1.7-.1,2.3,0,.6-.1,1.1-.2,1.4,0,.3-.2.6-.3.7-.1.1-.2.2-.4.3s-.3,0-.5.1c-.2,0-.4,0-.7,0-.3,0-.7,0-1,0,0-.2,0-.3,0-.5s-.1-.4-.2-.5c.3,0,.7,0,.9,0h.6c.2,0,.4,0,.5-.1,0,0,.2-.3.2-.6,0-.3.1-.7.2-1.2,0-.5,0-1.3.1-2.2v-.2Z"/>
  <path class="st0" d="M164.4,37.4h1c0,.8,0,1.7,0,2.5s-.2,1.7-.4,2.6c-.2.8-.5,1.6-.9,2.3,0,0-.1-.2-.2-.3,0,0-.2-.2-.3-.3,0,0-.2-.1-.3-.2.4-.6.7-1.4.8-2.1.2-.8.3-1.6.3-2.3,0-.8,0-1.6,0-2.3h0ZM163.5,35.3h6.9v1.1h-6.9v-1.1ZM164.1,32.2h6v1.1h-6v-1.1ZM165.3,39.3c.2.8.6,1.5.9,2.1.4.5.8.9,1.3,1.2.5.3,1.2.5,1.9.6.7.1,1.5.2,2.5.2h5.7c.3,0,.6,0,.7,0,0,0-.1.2-.2.3,0,.1-.1.3-.2.4,0,.1-.1.3-.1.4h-5.9c-1.1,0-2,0-2.8-.2-.8-.1-1.5-.4-2.1-.7-.6-.4-1.1-.8-1.5-1.5-.4-.6-.8-1.5-1.1-2.5l.9-.3h0ZM166.6,30.2h1.1v5.7h-1.1v-5.7ZM166.8,36h1.1v7.2h-1.1v-7.2ZM167.2,38.6h2.9v1.1h-2.9v-1.1ZM170.6,41.4c0-.1,0-.2-.1-.3,0-.1-.1-.3-.2-.4,0-.1-.1-.2-.2-.3.1,0,.3-.2.5-.4.2-.2.3-.4.3-.7v-5.7h1.1v6.8c-.3.2-.5.3-.7.4-.2.1-.3.2-.4.4s-.2.2-.2.3h0ZM170.6,41.4l-.2-1,.4-.5,2.9-1.6c0,.2,0,.3.1.5,0,.2.1.3.2.4-.7.4-1.2.7-1.7,1-.4.2-.8.5-1,.6-.2.1-.4.3-.5.3-.1,0-.2.2-.2.2h0ZM170.8,33h7.3v1h-7.3v-1ZM176.9,35l.9.2c-.3,1.1-.7,2.2-1.2,3.2s-1.1,1.9-1.8,2.6c-.7.8-1.4,1.4-2.2,1.9,0-.1-.2-.3-.3-.5-.1-.2-.3-.3-.4-.4.8-.4,1.5-1,2.2-1.7.7-.7,1.2-1.5,1.7-2.5s.9-1.9,1.2-2.9h0ZM173.8,30.2h1.1c0,1.3,0,2.5,0,3.6,0,1.1.2,2.2.3,3.1.1.9.3,1.7.4,2.4.2.7.3,1.2.5,1.6.2.4.4.5.6.5s.2-.2.3-.6.1-1,.1-1.8c.1.1.3.2.4.3.2,0,.3.2.4.2,0,.7-.1,1.3-.2,1.7s-.2.7-.4.9c-.2.2-.4.3-.7.3s-.8-.2-1.1-.6c-.3-.4-.6-1-.8-1.8-.2-.8-.4-1.7-.6-2.7-.1-1-.2-2.2-.3-3.4,0-1.2-.1-2.5-.1-3.9h0ZM175.4,30.8l.8-.4c.3.3.6.6.9,1,.3.4.5.7.7.9l-.9.5c-.2-.3-.4-.6-.7-1-.3-.4-.6-.7-.8-1Z"/>
  <path class="st0" d="M179.3,41.2c.4-.1.9-.3,1.4-.5.5-.2,1.1-.4,1.7-.6.6-.2,1.2-.4,1.8-.7l.2,1.1c-.8.3-1.6.7-2.4,1-.8.3-1.5.6-2.2.9l-.4-1.2ZM179.6,34.1h4.4v1.1h-4.4v-1.1ZM181.4,30.4h1.1v10.4h-1.1v-10.4ZM184.2,38.1h10v1.1h-10v-1.1ZM184.7,31h9.1v1.1h-9.1v-1.1ZM185.3,33.3l1-.3c.2.4.3.9.4,1.3.1.5.2.9.3,1.4,0,.4.2.9.2,1.2l-1,.3c0-.4,0-.8-.2-1.2,0-.5-.2-.9-.3-1.4-.1-.5-.3-.9-.4-1.3h0ZM188.6,31.3h1.2v13.6h-1.2v-13.6ZM192.1,33l1.2.3c-.1.5-.3.9-.4,1.4-.1.5-.3,1-.5,1.4s-.3.9-.5,1.2l-.9-.3c.1-.4.3-.8.4-1.3s.3-1,.4-1.5.2-.9.3-1.3h0Z"/>
  <path class="st0" d="M201.3,39.4h1v.4c0,.3,0,.7-.1,1,0,.4-.2.7-.5,1.1-.2.4-.6.8-1.1,1.1-.5.4-1.1.7-1.9,1-.8.3-1.8.6-2.9.9,0-.1-.1-.2-.2-.4s-.2-.3-.3-.4c1.1-.2,2-.5,2.8-.8.7-.3,1.3-.6,1.7-.9.4-.3.8-.6,1-1,.2-.3.4-.6.4-.9,0-.3,0-.6,0-.8v-.3h0ZM195.4,32.9h1.5s5.5,0,5.5,0h0s1.6,0,1.6,0v.9h-1.6s-5.5,0-5.5,0h0s-1.5,0-1.5,0v-.9ZM195.5,40h8.3v.9h-8.3v-.9ZM196.2,36.3h7.1v2.6h-7.1v-2.6ZM196.6,31.3h6.4v4.4h-6.4v-4.4ZM196.6,42.3c.3-.4.6-1,.9-1.6.3-.6.6-1.2.7-1.7l1,.2c-.2.4-.3.8-.5,1.1-.2.4-.4.8-.6,1.2-.2.4-.4.7-.6,1l-1-.2h0ZM196.6,42.3l.8-.7c.6.2,1.3.4,2,.6.7.2,1.3.5,2,.7.6.3,1.2.5,1.6.8l-.8.8c-.4-.3-.9-.5-1.6-.8-.6-.3-1.3-.5-2-.8-.7-.2-1.4-.4-2-.6ZM197.3,37.1v1.1h5v-1.1h-5ZM197.6,32.1v2.7h4.5v-2.7h-4.5ZM199.2,30.2h1v9.4h-1v-9.4ZM207.9,34h1.1c-.2,1.9-.5,3.5-1,4.9-.4,1.4-1,2.5-1.8,3.5-.8,1-1.8,1.8-3.1,2.5,0,0,0-.2-.2-.3,0-.1-.2-.2-.2-.3s-.2-.2-.2-.3c1.2-.6,2.2-1.3,2.9-2.2.7-.9,1.3-2,1.7-3.3.4-1.3.7-2.8.8-4.5ZM205.5,30.2l1.1.2c-.2,1-.4,1.9-.7,2.9-.2.9-.5,1.8-.9,2.6-.3.8-.7,1.6-1,2.2,0,0-.2-.1-.2-.2-.1,0-.2-.2-.3-.3s-.2-.2-.3-.2c.4-.6.7-1.3,1-2s.6-1.6.8-2.5c.2-.9.4-1.8.6-2.7ZM205.5,34.6c.2,1.4.5,2.8.9,4,.4,1.2.9,2.3,1.6,3.3s1.4,1.7,2.4,2.2c0,0-.2.1-.3.3-.1.1-.2.2-.3.3,0,.1-.2.2-.2.3-1-.6-1.8-1.4-2.4-2.4-.7-1-1.2-2.2-1.6-3.5-.4-1.3-.7-2.8-.9-4.3h.9c0-.1,0-.1,0-.1ZM205,33.4h5.1v1.1h-5.1v-1.1Z"/>
  <path class="st0" d="M213.5,40.6l-.3-.9c.6-.3,1.1-.6,1.5-1,.3-.4.5-.9.5-1.5l-.3-1.3.9,1.2c-.1.1-.2.2-.4.3-.2,0-.3,0-.5,0-.3,0-.6-.1-.8-.3-.2-.2-.4-.5-.4-.8s.1-.7.4-.9c.2-.2.5-.3.9-.3s.8.2,1,.5c.2.3.3.8.3,1.3,0,.9-.2,1.6-.8,2.2-.5.6-1.2,1.1-2,1.4Z"/>
  <path class="st0" d="M223.8,30.5l1.2.4c-.4.9-.9,1.8-1.4,2.7-.5.9-1.1,1.7-1.8,2.5-.6.8-1.3,1.5-1.9,2.1,0-.1,0-.2-.2-.4,0-.2-.2-.3-.3-.5,0-.2-.2-.3-.3-.4.6-.5,1.2-1.1,1.8-1.8.6-.7,1.1-1.4,1.6-2.2.5-.8.9-1.6,1.3-2.5h0ZM222,34.6l1.2-1.2h0v11.4h-1.2v-10.3ZM226.6,30.6h1.2v11.9c0,.3,0,.5,0,.7,0,.2.2.3.3.3.2,0,.4,0,.7,0h3.1c.3,0,.5,0,.7-.2.1-.2.2-.5.3-.9,0-.4.1-1,.2-1.8.1.1.3.2.5.3.2,0,.4.2.6.2,0,.9-.1,1.6-.3,2.1-.1.5-.3.9-.6,1.1-.3.2-.7.3-1.3.3h-3.3c-.6,0-1,0-1.3-.2-.3-.1-.6-.4-.7-.7-.1-.3-.2-.8-.2-1.4v-11.9h0ZM232.6,33.3l.9,1c-.5.5-1.1.9-1.8,1.3s-1.4.9-2.1,1.3c-.7.4-1.4.8-2.1,1.1,0-.1-.1-.3-.2-.5-.1-.2-.2-.3-.3-.5.7-.4,1.4-.8,2.1-1.2.7-.4,1.4-.9,2-1.3s1.2-.9,1.6-1.3h0Z"/>
  <path class="st0" d="M239.4,30.3l1.1.3c-.3.9-.8,1.8-1.2,2.7-.5.9-1,1.7-1.5,2.5-.5.8-1.1,1.5-1.7,2.1,0-.1-.1-.2-.2-.4,0-.2-.2-.3-.3-.5s-.2-.3-.2-.4c.5-.5,1-1.1,1.5-1.8.5-.7,1-1.4,1.4-2.2.4-.8.8-1.6,1.1-2.4h0ZM237.7,34.4l1.2-1.2h0v11.7h-1.2v-10.5ZM243.2,30.4l1.1.3c-.3.8-.6,1.7-1.1,2.5-.4.8-.8,1.6-1.3,2.3-.5.7-.9,1.3-1.4,1.9,0,0-.2-.1-.3-.3s-.2-.2-.3-.3c-.1-.1-.2-.2-.3-.2.5-.5.9-1.1,1.4-1.7.4-.7.8-1.4,1.2-2.1.4-.8.7-1.5.9-2.3h0ZM242.6,32.9h7.6v1.1h-8.2l.6-1.1ZM244,33.3h1.2v11.6h-1.2v-11.6ZM244.6,36.4h5.2v1.1h-5.2v-1.1ZM244.6,39.9h5.4v1.1h-5.4v-1.1Z"/>
  <path class="st0" d="M252.1,33.3h.8c0,.6,0,1.1-.1,1.6,0,.5-.2,1.1-.3,1.5-.1.5-.3.9-.5,1.3l-.8-.4c.2-.3.3-.7.5-1.2.1-.5.2-1,.3-1.5,0-.5,0-1,.1-1.5h0ZM253.5,30.2h1.1v14.7h-1.1v-14.7ZM254.8,33.1l.8-.3c.2.3.3.7.5,1.1.1.4.3.7.4,1.1.1.3.2.6.2.9l-.8.4c0-.3-.1-.6-.2-.9-.1-.4-.2-.7-.4-1.1-.1-.4-.3-.7-.4-1.1h0ZM255.7,43.3h10.5v1.1h-10.5v-1.1ZM256.2,31.2h9.7v1.1h-9.7v-1.1ZM258.8,31.9h1.2c-.1.9-.3,1.7-.4,2.6-.2.9-.3,1.7-.5,2.6-.2.9-.4,1.7-.5,2.5-.2.8-.3,1.5-.5,2.1h-1.2c.2-.7.3-1.4.5-2.2.2-.8.4-1.6.5-2.5.2-.9.3-1.8.5-2.6s.3-1.7.4-2.4ZM258,39.6l.6-.7c.4.2.8.4,1.3.7s.9.5,1.3.8c.4.3.7.5,1,.7l-.7.8c-.2-.2-.6-.5-.9-.7-.4-.3-.8-.5-1.2-.8-.4-.3-.9-.5-1.3-.7ZM258.6,37l.6-.8c.4.2.8.4,1.3.6.4.2.9.5,1.3.7.4.2.7.5,1,.6l-.6.9c-.2-.2-.6-.4-.9-.7-.4-.2-.8-.5-1.2-.7-.4-.2-.8-.4-1.3-.6h0ZM258.9,34.5h5.1v1.1h-5.3l.2-1.1ZM263.5,34.5h1.2c0,.8-.2,1.5-.3,2.4,0,.8-.2,1.7-.3,2.5s-.2,1.6-.3,2.4c-.1.8-.2,1.4-.3,2h-1.3c.1-.6.2-1.3.4-2,.1-.8.2-1.6.4-2.4.1-.9.2-1.7.3-2.5.1-.8.2-1.6.2-2.3h0Z"/>
  <path class="st0" d="M272.2,30.2l1.3.3c-.4,1.1-.8,2.2-1.3,3.2-.5,1-1.1,2-1.7,2.8s-1.3,1.6-2,2.2c0,0-.2-.2-.3-.3-.1-.1-.3-.2-.4-.3s-.3-.2-.4-.3c.7-.6,1.4-1.3,2-2.1s1.2-1.7,1.6-2.6c.5-1,.9-1.9,1.2-3h0ZM276.4,32.8h.5c0,0,.9.3.9.3-.5,2-1.2,3.8-2.1,5.3-.9,1.5-2,2.8-3.2,3.9-1.2,1.1-2.5,1.9-3.9,2.6,0-.1-.2-.2-.3-.4-.1-.1-.2-.3-.3-.4-.1-.1-.2-.2-.3-.3,1.4-.6,2.7-1.4,3.9-2.4,1.2-1,2.2-2.2,3.1-3.6.9-1.4,1.5-3,1.9-4.9v-.3h0ZM271.7,32.8h5.2v1.2h-5.7l.6-1.2h0ZM276.1,36.9c.4,1,.8,2,1.4,2.9.6.9,1.3,1.7,2.1,2.4.8.7,1.7,1.2,2.6,1.6-.1,0-.2.2-.3.3s-.2.3-.3.4c0,.1-.2.2-.3.4-1-.5-1.9-1.1-2.7-1.8-.8-.8-1.5-1.6-2.1-2.6-.6-1-1.1-2-1.5-3.2l1.1-.3h0Z"/>
  <path class="st0" d="M287,30.1l1,.4c-.3.6-.7,1.1-1.1,1.7-.4.5-.9,1-1.4,1.5s-1,.9-1.5,1.2c0,0,0-.2-.1-.3,0-.1-.1-.3-.2-.4,0-.1-.2-.3-.2-.3.7-.4,1.4-1,2.1-1.6.7-.6,1.2-1.3,1.6-2.1h0ZM284,36.8h6.5v1h-6.5v-1ZM284.4,39.5h5.7v4.9h-1.1v-3.9h-3.5v4.2h-1.1v-5.2h0ZM284.9,42.9h4.4v1h-4.4v-1ZM285,34.2h4.4v1h-4.4v-1ZM286.7,34.6h1.1v5.4h-1.1v-5.4ZM286.8,31.7l.6-.8c.4.3.8.6,1.3.9.4.3.8.7,1.2,1,.4.3.7.6.9.9l-.7.9c-.2-.3-.5-.6-.9-.9s-.8-.7-1.2-1.1c-.4-.4-.8-.7-1.2-.9h0ZM290.7,36h6.6v1.1h-6.6v-1.1ZM291.2,30.9h5.3v1.1h-5.3v-1.1ZM291.6,33.5l.8-.7c.4.2.9.5,1.3.9s.9.6,1.3,1c.4.3.7.6.9.9l-.9.7c-.2-.3-.5-.6-.9-.9-.4-.3-.8-.7-1.2-1-.4-.3-.9-.6-1.3-.9h0ZM293.7,36.6h1.1v7c0,.3,0,.6-.1.7,0,.2-.2.3-.4.4-.2.1-.5.2-.8.2-.3,0-.8,0-1.3,0,0-.2,0-.3-.1-.6,0-.2-.1-.4-.2-.6.4,0,.7,0,1,0h.6c.1,0,.2,0,.2,0,0,0,0,0,0-.2v-7h0ZM296.3,30.9h.5c0,0,.8.5.8.5-.3.4-.6.8-.9,1.2-.4.4-.7.8-1.1,1.2-.4.4-.8.7-1.1,1,0,0-.2-.2-.3-.3s-.2-.2-.3-.3c.3-.2.6-.5,1-.9.3-.3.6-.7.9-1.1.3-.4.5-.7.7-1v-.2h0ZM296.9,36h.4s.8.2.8.2c-.2.6-.4,1.2-.7,1.8-.2.6-.5,1.1-.7,1.5l-1-.3c.1-.3.3-.5.4-.9s.3-.7.4-1.1c.1-.4.2-.7.3-1.1v-.2h0Z"/>
  <path class="st0" d="M302.6,37.9h.5s.6.2.6.2c-.3,1.7-.7,3.1-1.4,4.2s-1.4,2-2.3,2.6c0,0-.1-.2-.2-.3-.1-.1-.2-.2-.3-.3s-.2-.2-.3-.2c.9-.5,1.6-1.3,2.2-2.3.6-1,1-2.2,1.2-3.7v-.2h0ZM299.8,39.1c0,0,0-.2-.1-.3,0-.1-.1-.3-.2-.4s-.1-.2-.2-.3c.1,0,.3,0,.4-.2.1,0,.3-.2.4-.3.1-.1.3-.3.5-.6.2-.3.5-.6.8-1,.3-.4.5-.7.8-1.1.2-.3.4-.6.6-.8h0s.4-.2.4-.2l.8.4c-.2.3-.4.6-.7,1-.3.4-.5.8-.8,1.1s-.6.8-.9,1.1c-.3.4-.6.7-.8.9-.2,0-.3.2-.5.3-.1,0-.2.2-.3.2,0,0-.1.2-.1.2h0ZM299.6,33.9h3.5v1h-3.5v-1ZM299.8,39.1v-.9l.6-.3h2.7v1h-2.3c-.2,0-.4,0-.6,0-.2,0-.3,0-.4.2ZM300.1,30.8l.9-.5c.2.3.5.5.8.8.3.3.5.6.7.9s.4.5.6.7l-.9.7c-.1-.2-.3-.5-.6-.8-.2-.3-.5-.6-.7-.9-.3-.3-.5-.6-.8-.9ZM302.4,41.2c.3.7.8,1.2,1.3,1.6.6.3,1.3.6,2.1.7.8,0,1.8.2,2.8.2.6,0,1.2,0,1.9,0,.7,0,1.3,0,2,0,.7,0,1.3,0,1.8-.1,0,0-.1.2-.2.3,0,.1-.1.3-.1.4,0,.1,0,.3-.1.4-.5,0-1,0-1.6,0-.6,0-1.2,0-1.8,0h-1.8c-.9,0-1.8,0-2.5-.1s-1.4-.2-2-.4c-.6-.2-1.1-.5-1.5-.9-.4-.4-.8-.9-1.1-1.6l.8-.4h0ZM303.8,31.6h10.1v1h-10.1v-1ZM304.6,34.2h8.2v1h-7.1v7.4h-1.1v-8.4ZM306,32.7l1-.3c.2.2.3.5.4.8s.2.6.3.8l-1,.3c0-.2-.1-.5-.3-.8-.1-.3-.3-.6-.4-.8h0ZM306.2,36.2h5.7v.8h-5.7v-.8ZM306.9,38.2h.9v3.4h-.9v-3.4ZM307.4,38.2h3.8v2.7h-3.8v-.8h2.9v-1.2h-2.9v-.8ZM307.6,30.5l.9-.4c.2.3.5.6.7.9.2.3.4.6.5.9l-1,.4c0-.3-.2-.6-.4-.9-.2-.4-.4-.7-.6-1ZM308.6,35.1h.9v3.4h-.9v-3.4ZM310.7,32.3l1.1.3c-.2.3-.4.7-.5,1-.2.3-.4.6-.5.9l-1-.3c.2-.3.3-.6.5-1s.3-.7.4-1ZM312.3,34.2h1.1v7.1c0,.3,0,.5,0,.7,0,.2-.2.3-.4.4-.2,0-.5.1-.8.2-.3,0-.7,0-1.2,0,0-.1,0-.3-.1-.5,0-.2-.1-.4-.2-.5.4,0,.7,0,1,0h.6c0,0,.2,0,.2,0,0,0,0-.1,0-.2v-7.1h0Z"/>
  <path class="st0" d="M316.2,32.8h1.1v11.7h-1.1v-11.7ZM316.8,37.2h4.4v1.1h-4.4v-1.1ZM316.9,32.8h4.9v10.5h-4.9v-1.1h3.8v-8.3h-3.8v-1.1ZM318.6,30.2l1.3.2c-.2.5-.3,1-.5,1.5-.2.5-.4.9-.5,1.3l-1-.2c.1-.3.2-.6.3-.9,0-.3.2-.7.3-1,0-.3.1-.6.2-.9h0ZM324.4,30.2l1.1.3c-.2.8-.4,1.6-.7,2.3-.3.8-.6,1.5-.9,2.2-.3.7-.7,1.3-1,1.8,0,0-.2-.1-.3-.2-.1,0-.2-.2-.4-.3-.1,0-.2-.2-.3-.2.4-.5.7-1,1-1.7.3-.6.6-1.3.8-2,.2-.7.4-1.4.6-2.2h0ZM323.6,36.9l.9-.5c.3.4.6.8.9,1.2s.6.9.9,1.3c.3.4.5.8.7,1.1l-1,.6c-.2-.3-.4-.7-.7-1.1-.3-.4-.6-.9-.9-1.3s-.6-.9-.9-1.3ZM324,32.7h4.9v1.1h-4.9v-1.1ZM328.5,32.7h1.1v.4c0,.1,0,.2,0,.2,0,1.8-.1,3.4-.2,4.7,0,1.3-.1,2.3-.2,3.1,0,.8-.2,1.4-.3,1.9-.1.5-.2.8-.4,1-.2.2-.4.4-.6.5-.2,0-.4.2-.7.2-.3,0-.6,0-1.1,0-.4,0-.9,0-1.3,0,0-.2,0-.4-.1-.6,0-.2-.2-.4-.3-.6.5,0,1,0,1.4,0,.4,0,.7,0,.9,0s.3,0,.4,0c.1,0,.2-.1.3-.2.1-.1.2-.4.3-.9.1-.4.2-1,.3-1.9,0-.8.1-1.8.2-3.1,0-1.2.1-2.7.2-4.5v-.3h0Z"/>
  <path class="st0" d="M334.6,30.5l1.2.3c-.2.8-.5,1.6-.8,2.4-.3.8-.7,1.5-1.1,2.2-.4.7-.8,1.3-1.2,1.8,0,0-.2-.2-.3-.2s-.3-.2-.4-.3c-.1,0-.2-.2-.4-.2.4-.5.8-1,1.2-1.7.4-.6.7-1.3,1-2,.3-.7.6-1.5.8-2.2h0ZM331.7,43.3h14.3v1.2h-14.3v-1.2ZM333.4,38h11.2v1.2h-11.2v-1.2ZM334.1,33.3h11.1v1.2h-11.1v-1.2ZM338.2,30.2h1.2v13.6h-1.2v-13.6Z"/>
  <path class="st0" d="M347.5,35.7l.7-.9c.3.1.7.3,1,.5.4.2.7.4,1.1.6s.6.4.9.5l-.7,1c-.2-.2-.5-.3-.8-.5-.3-.2-.7-.4-1.1-.6s-.7-.4-1.1-.6h0ZM347.8,43.9c.3-.4.6-.9,1-1.5.4-.6.7-1.2,1.1-1.8.4-.6.7-1.3,1-1.9l.9.8c-.3.6-.6,1.2-.9,1.8-.3.6-.7,1.2-1,1.8-.3.6-.7,1.1-1,1.6l-1-.8ZM348.2,31.3l.7-.9c.3.1.7.3,1.1.5.4.2.7.4,1.1.6.4.2.6.4.9.5l-.7,1c-.2-.2-.5-.4-.9-.6-.4-.2-.7-.4-1.1-.6-.4-.2-.7-.4-1.1-.6h0ZM351.9,34.9h10.2v1.1h-10.2v-1.1ZM360.5,30.3l1,.9c-.7.3-1.6.5-2.5.7-.9.2-1.9.4-2.9.5-1,.1-2,.3-2.9.3,0-.1,0-.3-.1-.5,0-.2-.1-.4-.2-.5.7,0,1.4-.2,2.1-.3.7-.1,1.5-.2,2.1-.3.7-.1,1.3-.2,1.9-.4.6-.1,1.1-.3,1.6-.4ZM353.1,38.7h8v6.1h-1.1v-5h-5.7v5.1h-1.1v-6.2ZM353.8,43.1h6.6v1.1h-6.6v-1.1ZM356.5,31.6h1.1v7.7h-1.1v-7.7Z"/>
  <path class="st0" d="M363.5,42h14.4v1h-14.4v-1ZM363.6,34.2h14.4v1h-14.4v-1ZM364.6,31.5h12.4v1h-12.4v-1ZM365.4,36h10.8v4.9h-10.8v-4.9ZM366.6,36.9v1.1h8.4v-1.1h-8.4ZM366.6,38.8v1.1h8.4v-1.1h-8.4ZM367,32.8l1.1-.3c.2.3.4.6.5.9.2.3.3.6.4.9l-1.2.3c0-.3-.2-.5-.4-.9-.2-.3-.3-.6-.5-.9h0ZM369.7,30.3l1.2-.3c.2.3.4.6.5.9.2.3.3.6.4.9l-1.2.3c0-.3-.2-.6-.4-.9-.2-.4-.3-.7-.5-1h0ZM370.1,40.5h1.2v4.4h-1.2v-4.4ZM373.4,32.5l1.2.3c-.2.3-.4.7-.6,1-.2.3-.4.6-.6.9l-1.1-.3c.1-.2.2-.4.4-.6s.2-.5.4-.7.2-.4.3-.6Z"/>
  <path class="st0" d="M379.5,35.6l.7-.9c.3.1.7.3,1.1.5.4.2.7.4,1.1.6.3.2.6.4.8.6l-.7,1c-.2-.2-.5-.4-.8-.6-.3-.2-.7-.4-1.1-.6-.4-.2-.7-.4-1.1-.5h0ZM380,43.9c.3-.4.6-.9,1-1.5s.7-1.2,1.1-1.8c.4-.6.7-1.3,1-1.9l.9.8c-.3.6-.6,1.1-.9,1.8s-.7,1.2-1,1.8c-.3.6-.7,1.1-1,1.6l-1-.8ZM380.3,31.3l.7-.9c.3.1.7.3,1.1.5.4.2.8.4,1.1.6s.6.4.9.6l-.7,1c-.2-.2-.5-.4-.8-.6-.3-.2-.7-.4-1.1-.6s-.8-.4-1.1-.5h0ZM384.2,37h9.6v1.1h-9.6v-1.1ZM385,44.4c0,0,0-.2-.1-.4,0-.1-.1-.3-.2-.5s-.1-.3-.1-.4c.2,0,.3-.1.5-.3.2-.2.3-.4.5-.7.1-.1.3-.4.5-.7.2-.3.4-.7.7-1.2s.5-.9.8-1.5.5-1,.7-1.6l1.3.4c-.3.7-.7,1.5-1.1,2.2-.4.7-.8,1.4-1.2,2.1-.4.7-.9,1.2-1.3,1.8h0c-.2.1-.3.2-.4.3-.1,0-.2.1-.3.2,0,0-.1.2-.1.2h0ZM384.9,33h8.2v1.1h-8.2v-1.1ZM385,44.4v-.9s.6-.4.6-.4l6.5-.7c0,.2,0,.3,0,.5,0,.2,0,.4,0,.5-1.2.2-2.2.3-3.1.4-.8,0-1.5.2-2,.3-.5,0-.9.1-1.2.2-.3,0-.5,0-.6.1-.1,0-.3,0-.3,0h0ZM388.4,30.2h1.2v7.5h-1.2v-7.5ZM390.1,40.3l1-.5c.4.5.8,1,1.1,1.5.4.5.7,1.1,1,1.6.3.5.5,1,.7,1.4l-1.1.5c-.1-.4-.3-.9-.6-1.4-.3-.5-.6-1.1-1-1.7-.4-.6-.7-1.1-1.1-1.6h0Z"/>
  <path class="st0" d="M398.8,35.2c.5,0,.9.1,1.2.3.4.2.6.5.9.9.2.4.3.8.3,1.2s-.1.9-.3,1.2c-.2.4-.5.7-.9.9-.4.2-.8.3-1.2.3s-.9-.1-1.2-.3c-.4-.2-.7-.5-.9-.9s-.3-.8-.3-1.2.1-.9.3-1.2c.2-.4.5-.7.9-.9s.8-.3,1.2-.3h0ZM398.8,39.2c.5,0,.8-.2,1.1-.5.3-.3.5-.7.5-1.1s0-.6-.2-.8c-.1-.2-.3-.4-.6-.6-.2-.1-.5-.2-.8-.2s-.5,0-.8.2c-.2.1-.4.3-.6.6-.1.2-.2.5-.2.8s0,.6.2.8c.1.2.3.4.6.6.2.1.5.2.8.2h0Z"/>
</svg>