<svg width="265" height="12" viewBox="0 0 265 12" fill="none" xmlns="http://www.w3.org/2000/svg">
<g clip-path="url(#clip0_4_553)">
<path d="M0 0.600098H10.06V11.1401H9.18V1.3601H0.85V11.1401H0V0.600098ZM0.53 9.8901H9.64V10.6601H0.53V9.8901ZM1.42 4.3401H8.64V4.9001H1.42V4.3401ZM2.23 5.4401H7.79V9.2401H2.23V5.4401ZM2.62 1.9301H7.41V3.7901H2.62V1.9301ZM2.95 6.0001V8.6801H7.03V6.0001H2.95ZM3.36 2.4601V3.2501H6.62V2.4601H3.36ZM3.72 6.5001H6.28V8.1601H3.72V6.5001ZM4.28 6.9801V7.6901H5.67V6.9801H4.28ZM4.58 3.4301H5.36V4.6101H4.58V3.4301Z" fill="#766B52"/>
<path d="M13.18 0.420117H14.12V4.42012C14.12 5.02012 14.1 5.62012 14.05 6.22012C14.01 6.82012 13.92 7.41012 13.79 7.98012C13.66 8.55012 13.47 9.11012 13.21 9.65012C12.95 10.1901 12.61 10.6901 12.18 11.1701C12.13 11.0901 12.07 11.0101 11.98 10.9201C11.89 10.8301 11.81 10.7501 11.72 10.6701C11.63 10.5901 11.55 10.5201 11.47 10.4601C11.98 9.89012 12.36 9.28012 12.6 8.61012C12.84 7.95012 13 7.26012 13.07 6.55012C13.14 5.84012 13.18 5.13012 13.18 4.41012V0.420117ZM13.61 6.06012H20.01V11.1501H19.04V6.99012H13.62V6.07012L13.61 6.06012ZM13.64 3.22012H21.85V4.14012H13.64V3.22012ZM17.52 0.120117H18.47V3.64012H17.52V0.120117Z" fill="#766B52"/>
<path d="M26.18 0.159863L27.03 0.409863C26.77 1.08986 26.47 1.75986 26.12 2.41986C25.77 3.07986 25.39 3.69986 24.9799 4.28986C24.5699 4.86986 24.1499 5.38986 23.7099 5.83986C23.6899 5.76986 23.64 5.67986 23.58 5.55986C23.52 5.44986 23.4599 5.32986 23.3899 5.21986C23.3199 5.09986 23.26 5.00986 23.2 4.94986C23.6 4.55986 23.98 4.10986 24.35 3.58986C24.71 3.07986 25.05 2.52986 25.37 1.93986C25.69 1.34986 25.96 0.759863 26.18 0.159863ZM24.94 3.23986L25.79 2.38986H25.7999V11.1299H24.94V3.23986ZM26.76 10.2399H34.5499V10.9399H26.76V10.2399ZM26.9 1.21986H34.5V1.89986H26.9V1.21986ZM27.24 7.11986H34.1399V7.81986H27.24V7.11986ZM27.4599 3.97986H33.9799V6.38986H27.4599V3.97986ZM27.5 8.62986H33.8699V9.32986H27.5V8.62986ZM28.2999 4.62986V5.74986H33.0999V4.62986H28.2999ZM28.54 0.109863H29.3799V2.75986H31.9799V0.109863H32.86V3.38986H28.54V0.109863ZM30.2299 3.05986H31.11V10.6099H30.2299V3.05986Z" fill="#766B52"/>
<path d="M41.11 0.100098L42.02 0.330098C41.76 1.1701 41.43 1.9901 41.05 2.8001C40.67 3.6001 40.23 4.3701 39.73 5.1001C39.23 5.8301 38.66 6.5001 38.01 7.1201C37.37 7.7401 36.65 8.2801 35.86 8.7501C35.83 8.6801 35.78 8.6001 35.72 8.5001C35.66 8.4101 35.6 8.3201 35.54 8.2201C35.48 8.1301 35.42 8.0501 35.37 7.9901C36.11 7.5701 36.79 7.0601 37.4 6.4801C38.01 5.9001 38.55 5.2601 39.02 4.5701C39.49 3.8801 39.9 3.1601 40.25 2.4001C40.6 1.6401 40.88 0.880098 41.11 0.100098ZM36 2.1601H43.84V2.9901H36V2.1601ZM37.57 7.9701L38.33 8.2101C38.24 8.5501 38.13 8.8901 38.01 9.2401C37.89 9.5901 37.73 9.9201 37.55 10.2401C37.37 10.5601 37.16 10.8401 36.92 11.0801L36.22 10.6001C36.44 10.3801 36.64 10.1301 36.82 9.8401C37 9.5501 37.15 9.2401 37.27 8.9201C37.39 8.6001 37.5 8.2801 37.58 7.9801L37.57 7.9701ZM37.48 0.470098L38.27 0.150098C38.5 0.380098 38.73 0.650098 38.97 0.950098C39.2 1.2501 39.38 1.5201 39.5 1.7501L38.67 2.1301C38.57 1.9001 38.4 1.6201 38.17 1.3101C37.94 0.990098 37.71 0.710098 37.48 0.460098V0.470098ZM37.55 6.5001H45.72V7.2901H37.55V6.5001ZM39.11 8.2301L39.85 8.1301C39.97 8.5101 40.06 8.9301 40.12 9.3801C40.18 9.8301 40.21 10.2101 40.21 10.5301L39.42 10.6501C39.44 10.4301 39.42 10.1901 39.4 9.9101C39.37 9.6301 39.34 9.3501 39.29 9.0601C39.24 8.7701 39.18 8.4901 39.1 8.2301H39.11ZM39.37 4.3301H44.88V5.1201H39.37V4.3301ZM40.88 8.1201L41.58 7.9601C41.74 8.2901 41.89 8.6401 42.02 9.0301C42.15 9.4101 42.25 9.7501 42.3 10.0301L41.54 10.2301C41.5 9.9401 41.42 9.6001 41.29 9.2001C41.16 8.8001 41.03 8.4401 40.88 8.1101V8.1201ZM42.67 7.9401L43.29 7.7001C43.48 7.9401 43.66 8.2101 43.84 8.5201C44.02 8.8301 44.13 9.0801 44.21 9.3001L43.55 9.5801C43.48 9.3601 43.36 9.0901 43.19 8.7801C43.02 8.4701 42.85 8.1901 42.67 7.9501V7.9401ZM45.34 6.5001H46.24C46.24 6.6001 46.23 6.6701 46.22 6.7301C46.22 6.7901 46.22 6.8401 46.2 6.8801C46.13 7.7201 46.05 8.4101 45.97 8.9401C45.89 9.4701 45.8 9.8801 45.71 10.1801C45.62 10.4801 45.5 10.6801 45.37 10.8101C45.26 10.9301 45.14 11.0101 45.01 11.0601C44.88 11.1101 44.73 11.1301 44.55 11.1501C44.4 11.1701 44.18 11.1701 43.91 11.1701C43.63 11.1701 43.34 11.1601 43.03 11.1401C43.03 11.0201 43 10.8801 42.95 10.7301C42.9 10.5801 42.84 10.4401 42.76 10.3201C43.06 10.3501 43.35 10.3701 43.61 10.3801C43.87 10.3801 44.06 10.3801 44.17 10.3801C44.28 10.3801 44.37 10.3801 44.44 10.3601C44.51 10.3401 44.57 10.3101 44.61 10.2601C44.71 10.1701 44.79 10.0001 44.87 9.7301C44.95 9.4701 45.03 9.0801 45.1 8.5801C45.17 8.0801 45.25 7.4301 45.31 6.6401V6.5101L45.34 6.5001ZM43.64 2.1601H44.48C44.4 2.5801 44.31 3.0101 44.21 3.4701C44.11 3.9301 44.02 4.3201 43.93 4.6501L43.13 4.5301C43.22 4.2101 43.31 3.8301 43.41 3.4001C43.51 2.9601 43.59 2.5501 43.65 2.1701L43.64 2.1601ZM44.54 4.3301H45.38C45.3 4.7501 45.21 5.1801 45.12 5.6401C45.02 6.1001 44.93 6.4801 44.84 6.8001L44.02 6.7201C44.12 6.3901 44.21 6.0101 44.31 5.5701C44.41 5.1301 44.48 4.7201 44.54 4.3301Z" fill="#766B52"/>
<path d="M50.17 10.3402C49.71 10.3402 49.31 10.2802 48.96 10.1702C48.61 10.0602 48.31 9.91021 48.04 9.73021C47.78 9.55021 47.55 9.35021 47.36 9.13021L47.92 8.42021C48.18 8.68021 48.48 8.92021 48.83 9.12021C49.18 9.32021 49.6 9.43021 50.1 9.43021C50.45 9.43021 50.76 9.37021 51.03 9.24021C51.3 9.11021 51.51 8.93021 51.66 8.69021C51.81 8.45021 51.89 8.18022 51.89 7.86022C51.89 7.52022 51.8 7.22021 51.63 6.97021C51.46 6.72021 51.17 6.52021 50.77 6.38021C50.37 6.24021 49.83 6.17021 49.15 6.17021V5.32021C49.76 5.32021 50.24 5.25022 50.59 5.11021C50.94 4.97021 51.2 4.78022 51.35 4.53022C51.51 4.29022 51.58 4.02021 51.58 3.72021C51.58 3.30021 51.45 2.97021 51.18 2.73021C50.92 2.49021 50.55 2.36021 50.09 2.36021C49.74 2.36021 49.41 2.44021 49.1 2.61021C48.79 2.77021 48.51 2.98021 48.27 3.24021L47.68 2.54021C48.02 2.24021 48.38 1.98021 48.78 1.78021C49.18 1.58021 49.63 1.47021 50.13 1.47021C50.63 1.47021 51.07 1.55021 51.46 1.72021C51.85 1.89021 52.15 2.13021 52.37 2.46021C52.59 2.78021 52.7 3.17021 52.7 3.63021C52.7 4.15021 52.56 4.58021 52.27 4.91021C51.98 5.24021 51.61 5.50021 51.14 5.67021V5.72021C51.48 5.81021 51.8 5.95021 52.08 6.14021C52.36 6.33021 52.58 6.57021 52.75 6.87021C52.92 7.16021 53 7.51021 53 7.91021C53 8.42021 52.87 8.86021 52.62 9.22021C52.36 9.58021 52.02 9.86022 51.6 10.0502C51.18 10.2502 50.7 10.3402 50.17 10.3402Z" fill="#766B52"/>
<path d="M54.89 10.1901V1.39014H57.09C57.99 1.39014 58.75 1.56014 59.37 1.90014C59.99 2.24014 60.45 2.73014 60.76 3.38014C61.07 4.03014 61.23 4.82014 61.23 5.76014C61.23 6.70014 61.07 7.48014 60.76 8.15014C60.45 8.81014 59.99 9.32014 59.38 9.67014C58.77 10.0201 58.02 10.1901 57.14 10.1901H54.9H54.89ZM55.99 9.28014H56.99C57.68 9.28014 58.25 9.14014 58.71 8.87014C59.17 8.59014 59.51 8.19014 59.74 7.66014C59.97 7.13014 60.08 6.50014 60.08 5.76014C60.08 5.02014 59.97 4.38014 59.74 3.86014C59.51 3.35014 59.17 2.96014 58.71 2.69014C58.25 2.42014 57.68 2.29014 56.99 2.29014H55.99V9.27014V9.28014Z" fill="#766B52"/>
<path d="M68.14 0.0698242L68.93 0.479824C68.48 1.13982 67.95 1.76982 67.33 2.36982C66.71 2.96982 66.04 3.50982 65.31 3.98982C64.58 4.46982 63.83 4.88982 63.05 5.22982C62.98 5.09982 62.88 4.95982 62.76 4.81982C62.64 4.66982 62.52 4.54982 62.4 4.43982C63.16 4.13982 63.9 3.75982 64.62 3.31982C65.34 2.87982 66 2.37982 66.61 1.82982C67.21 1.27982 67.72 0.689824 68.13 0.0698242H68.14ZM64.28 6.29982H71.73V11.0798H70.78V7.11982H65.19V11.1298H64.28V6.30982V6.29982ZM64.69 9.60982H71.12V10.4498H64.69V9.60982ZM64.91 4.02982H70.97V4.85982H64.91V4.02982ZM68.32 0.779824C69.05 1.58982 69.85 2.26982 70.73 2.82982C71.61 3.38982 72.55 3.87982 73.56 4.30982C73.44 4.40982 73.32 4.52982 73.21 4.67982C73.1 4.82982 73 4.97982 72.93 5.11982C72.25 4.78982 71.6 4.43982 70.98 4.05982C70.36 3.67982 69.77 3.24982 69.2 2.77982C68.63 2.30982 68.08 1.76982 67.56 1.15982L68.33 0.779824H68.32Z" fill="#766B52"/>
<path d="M75.47 2.1501H76.41V5.5301C76.41 5.9501 76.39 6.4101 76.36 6.9101C76.33 7.4101 76.27 7.9101 76.18 8.4201C76.09 8.9301 75.96 9.4301 75.8 9.9101C75.63 10.3901 75.41 10.8301 75.13 11.2201C75.08 11.1601 75.01 11.0801 74.92 11.0001C74.83 10.9201 74.73 10.8401 74.63 10.7701C74.53 10.7001 74.44 10.6501 74.37 10.6101C74.71 10.1101 74.95 9.5701 75.11 8.9801C75.27 8.3901 75.37 7.7901 75.41 7.1901C75.45 6.5901 75.48 6.0201 75.48 5.5001V2.1301L75.47 2.1501ZM75.98 4.6101H78.96V5.4501H75.98V4.6101ZM76.06 2.1501H85.35V3.0301H76.06V2.1501ZM78.61 4.6101H79.49C79.49 4.7001 79.49 4.7701 79.49 4.8401C79.49 4.9001 79.49 4.9601 79.49 5.0001C79.47 5.9001 79.45 6.6201 79.42 7.1801C79.39 7.7401 79.36 8.1601 79.31 8.4501C79.26 8.7401 79.2 8.9401 79.11 9.0501C79.01 9.1601 78.91 9.2401 78.8 9.2901C78.69 9.3401 78.55 9.3701 78.39 9.4001C78.23 9.4201 78.02 9.4201 77.77 9.4201C77.51 9.4201 77.24 9.4101 76.94 9.3901C76.94 9.2601 76.91 9.1201 76.86 8.9601C76.81 8.8001 76.76 8.6701 76.69 8.5501C76.96 8.5801 77.22 8.6001 77.46 8.6001C77.7 8.6001 77.87 8.6001 77.96 8.6001C78.05 8.6001 78.12 8.6001 78.18 8.5801C78.24 8.5601 78.29 8.5301 78.34 8.4701C78.4 8.4001 78.44 8.2401 78.48 7.9801C78.52 7.7201 78.54 7.3401 78.56 6.8301C78.58 6.3101 78.6 5.6201 78.61 4.7601V4.6201V4.6101ZM83.71 3.9601L84.61 4.1901C84.1 5.7601 83.4 7.1201 82.51 8.2701C81.62 9.4201 80.57 10.3601 79.34 11.0901C79.29 11.0301 79.23 10.9501 79.15 10.8601C79.07 10.7701 78.99 10.6801 78.9 10.5801C78.81 10.4801 78.74 10.4101 78.68 10.3501C79.9 9.7101 80.92 8.8501 81.76 7.7601C82.6 6.6701 83.25 5.4101 83.7 3.9601H83.71ZM80.46 0.120098H81.4C81.4 1.2301 81.43 2.2901 81.52 3.2901C81.61 4.2901 81.73 5.2101 81.89 6.0401C82.05 6.8801 82.24 7.6001 82.47 8.2101C82.7 8.8201 82.95 9.3001 83.23 9.6301C83.51 9.9701 83.8 10.1301 84.1 10.1301C84.28 10.1301 84.41 9.9601 84.49 9.6201C84.57 9.2801 84.63 8.7101 84.66 7.9101C84.76 8.0101 84.89 8.1001 85.04 8.2001C85.19 8.3001 85.32 8.3601 85.44 8.4001C85.38 9.0901 85.31 9.6201 85.21 10.0101C85.11 10.3901 84.97 10.6601 84.78 10.8201C84.59 10.9801 84.34 11.0501 84.03 11.0501C83.63 11.0501 83.26 10.9101 82.93 10.6401C82.59 10.3701 82.3 9.9801 82.04 9.4901C81.78 9.0001 81.55 8.4101 81.36 7.7301C81.17 7.0501 81.01 6.3101 80.87 5.4901C80.74 4.6701 80.64 3.8101 80.58 2.9001C80.52 1.9901 80.48 1.0601 80.47 0.100098L80.46 0.120098ZM81.98 0.710098L82.52 0.160098C82.78 0.280098 83.04 0.420098 83.32 0.590098C83.6 0.750098 83.85 0.920098 84.09 1.0801C84.33 1.2401 84.53 1.3901 84.69 1.5301L84.13 2.1501C83.98 2.0101 83.78 1.8501 83.54 1.6801C83.3 1.5101 83.04 1.3401 82.77 1.1701C82.5 1.0001 82.23 0.850098 81.98 0.710098Z" fill="#766B52"/>
<path d="M88.74 5.98L89.66 6.23C89.47 6.72 89.24 7.2 88.97 7.67C88.7 8.14 88.41 8.58 88.11 8.99C87.81 9.4 87.49 9.75 87.18 10.06C87.12 10 87.04 9.94 86.94 9.87C86.84 9.8 86.73 9.73 86.62 9.67C86.51 9.6 86.42 9.55 86.35 9.52C86.84 9.1 87.29 8.57 87.71 7.94C88.13 7.31 88.47 6.66 88.74 5.98ZM86.65 3.91H97.22V4.8H86.65V3.91ZM87.72 1H96.17V1.89H87.72V1ZM91.46 4.38H92.43V9.97C92.43 10.26 92.39 10.48 92.3 10.63C92.22 10.78 92.07 10.9 91.85 10.98C91.63 11.05 91.35 11.1 90.99 11.11C90.63 11.13 90.19 11.13 89.65 11.13C89.63 10.99 89.59 10.84 89.53 10.66C89.47 10.48 89.4 10.32 89.33 10.19C89.6 10.19 89.86 10.21 90.12 10.21C90.37 10.21 90.59 10.21 90.78 10.21C90.97 10.21 91.1 10.21 91.17 10.21C91.28 10.21 91.36 10.18 91.4 10.15C91.44 10.12 91.46 10.05 91.46 9.96V4.38ZM94.14 6.35L94.97 6C95.27 6.37 95.56 6.77 95.84 7.21C96.12 7.65 96.38 8.08 96.61 8.51C96.84 8.94 97.02 9.32 97.14 9.66L96.24 10.07C96.14 9.73 95.97 9.35 95.75 8.92C95.53 8.49 95.27 8.05 94.99 7.59C94.71 7.13 94.43 6.72 94.14 6.35Z" fill="#766B52"/>
<path d="M100.1 8.3L100.86 8.64C100.68 9 100.48 9.38 100.24 9.79C100 10.2 99.72 10.55 99.41 10.83L98.67 10.39C98.97 10.13 99.25 9.8 99.5 9.41C99.75 9.02 99.95 8.65 100.11 8.3H100.1ZM98.81 2.93H109.13V3.66H98.81V2.93ZM99.35 1H108.51V1.73H99.35V1ZM100.21 4.27H107.73V7.77H100.21V4.27ZM101.06 4.9V5.72H106.83V4.9H101.06ZM101.06 6.31V7.15H106.83V6.31H101.06ZM101.16 1.9L101.98 1.71C102.1 1.9 102.21 2.11 102.31 2.35C102.41 2.58 102.48 2.78 102.52 2.95L101.66 3.17C101.63 2.99 101.57 2.79 101.47 2.55C101.38 2.31 101.28 2.1 101.16 1.91V1.9ZM101.51 8.4H102.39V9.95C102.39 10.09 102.43 10.19 102.52 10.23C102.61 10.27 102.81 10.29 103.12 10.29H105.24C105.41 10.29 105.53 10.26 105.62 10.21C105.7 10.16 105.76 10.05 105.8 9.87C105.84 9.7 105.86 9.43 105.88 9.07C105.98 9.13 106.11 9.19 106.26 9.25C106.41 9.31 106.55 9.35 106.67 9.37C106.64 9.83 106.58 10.17 106.49 10.41C106.4 10.65 106.27 10.81 106.08 10.9C105.9 10.99 105.64 11.04 105.31 11.04H103.04C102.63 11.04 102.32 11.01 102.09 10.95C101.87 10.89 101.71 10.78 101.63 10.62C101.55 10.46 101.5 10.24 101.5 9.95V8.4H101.51ZM102.83 8.17L103.36 7.67C103.58 7.78 103.82 7.91 104.06 8.07C104.3 8.22 104.53 8.38 104.74 8.53C104.95 8.68 105.13 8.83 105.27 8.96L104.71 9.52C104.58 9.38 104.41 9.24 104.2 9.08C103.99 8.92 103.76 8.76 103.53 8.6C103.29 8.44 103.06 8.3 102.84 8.18L102.83 8.17ZM103.25 0.2L104.11 0C104.24 0.19 104.37 0.41 104.49 0.65C104.61 0.89 104.71 1.1 104.77 1.28L103.86 1.51C103.8 1.33 103.72 1.12 103.6 0.87C103.48 0.62 103.37 0.4 103.25 0.2ZM105.89 1.68L106.8 1.88C106.66 2.14 106.53 2.4 106.4 2.64C106.27 2.88 106.14 3.1 106.01 3.29L105.23 3.07C105.34 2.87 105.46 2.64 105.58 2.37C105.7 2.1 105.81 1.87 105.89 1.67V1.68ZM106.82 8.51L107.53 8.19C107.74 8.4 107.95 8.62 108.15 8.87C108.36 9.11 108.55 9.36 108.72 9.6C108.89 9.84 109.02 10.07 109.11 10.27L108.35 10.64C108.26 10.44 108.14 10.22 107.97 9.97C107.81 9.73 107.62 9.48 107.42 9.22C107.22 8.96 107.02 8.73 106.81 8.51H106.82Z" fill="#766B52"/>
<path d="M110.92 0.600098H120.98V11.1401H120.1V1.3601H111.77V11.1401H110.92V0.600098ZM111.44 9.8901H120.55V10.6601H111.44V9.8901ZM112.33 4.3401H119.55V4.9001H112.33V4.3401ZM113.15 5.4401H118.71V9.2401H113.15V5.4401ZM113.53 1.9301H118.32V3.7901H113.53V1.9301ZM113.87 6.0001V8.6801H117.95V6.0001H113.87ZM114.28 2.4601V3.2501H117.54V2.4601H114.28ZM114.64 6.5001H117.2V8.1601H114.64V6.5001ZM115.2 6.9801V7.6901H116.59V6.9801H115.2ZM115.5 3.4301H116.28V4.6101H115.5V3.4301Z" fill="#766B52"/>
<path d="M123.95 7.9298L123.69 7.2898C124.18 7.0798 124.55 6.8198 124.81 6.5198C125.07 6.2098 125.2 5.8298 125.2 5.3698L124.98 4.3598L125.63 5.2698C125.54 5.3698 125.44 5.4398 125.33 5.4798C125.22 5.5198 125.11 5.5298 124.99 5.5298C124.74 5.5298 124.53 5.4598 124.35 5.3098C124.17 5.1698 124.09 4.9498 124.09 4.6698C124.09 4.3898 124.18 4.1698 124.36 4.0198C124.54 3.8798 124.75 3.7998 125 3.7998C125.34 3.7998 125.59 3.9298 125.76 4.1798C125.93 4.4298 126.02 4.7698 126.02 5.1798C126.02 5.8298 125.83 6.3898 125.46 6.8598C125.09 7.3298 124.58 7.67981 123.95 7.89981V7.9298Z" fill="#766B52"/>
<path d="M128.51 3.46977H131.09V3.53977H136.74V3.46977H139.39V4.16977H136.74V4.08977H131.09V4.16977H128.51V3.46977ZM132.46 9.47976L133.22 9.95977C132.89 10.1398 132.5 10.2998 132.06 10.4598C131.61 10.6198 131.15 10.7598 130.67 10.8798C130.19 10.9998 129.73 11.0998 129.28 11.1698C129.22 11.0798 129.15 10.9798 129.05 10.8498C128.95 10.7298 128.87 10.6198 128.79 10.5398C129.22 10.4698 129.67 10.3798 130.15 10.2598C130.62 10.1498 131.07 10.0198 131.48 9.87977C131.89 9.73977 132.23 9.59977 132.48 9.46977L132.46 9.47976ZM128.9 1.15977H138.98V3.07977H138.12V1.88977H129.73V3.07977H128.9V1.15977ZM130.14 5.70977H137.81V9.48977H130.14V5.70977ZM130.66 2.45977H137.51L137.27 5.21977H130.3L130.66 2.45977ZM131.02 6.25977V6.78977H136.9V6.25977H131.02ZM131.02 7.30977V7.86977H136.9V7.30977H131.02ZM131.02 8.38977V8.94977H136.9V8.38977H131.02ZM131.4 2.98977L131.18 4.66977H136.48L136.61 2.98977H131.39H131.4ZM133.03 0.259766L133.81 0.00976562C133.97 0.219766 134.12 0.449766 134.27 0.709766C134.42 0.969766 134.53 1.18977 134.6 1.37977L133.77 1.65977C133.71 1.46977 133.61 1.23977 133.47 0.979766C133.33 0.719766 133.18 0.479766 133.03 0.269766V0.259766ZM133.63 2.70977H134.4C134.38 3.08977 134.34 3.48977 134.3 3.90977C134.26 4.32977 134.22 4.68976 134.17 4.98977H133.39C133.45 4.67977 133.49 4.30977 133.53 3.88977C133.57 3.46977 133.6 3.07977 133.63 2.70977ZM134.7 10.0098L135.17 9.47976C135.64 9.58976 136.11 9.70977 136.57 9.84977C137.03 9.98977 137.47 10.1098 137.89 10.2398C138.31 10.3698 138.67 10.4898 138.98 10.6098L138.38 11.1898C138.09 11.0798 137.75 10.9598 137.35 10.8198C136.95 10.6898 136.53 10.5498 136.07 10.4098C135.61 10.2698 135.15 10.1398 134.69 10.0098H134.7Z" fill="#766B52"/>
<path d="M140.88 0.619883H143.28V1.43988H141.68V11.1499H140.88V0.619883ZM143.03 0.619883H143.16L143.28 0.579883L143.84 0.899883C143.74 1.23988 143.64 1.58988 143.54 1.96988C143.44 2.34988 143.33 2.72988 143.22 3.10988C143.11 3.48988 143 3.83988 142.88 4.16988C143.22 4.67988 143.45 5.15988 143.56 5.60988C143.67 6.05988 143.72 6.46988 143.72 6.85988C143.72 7.17988 143.69 7.45988 143.62 7.70988C143.56 7.95988 143.46 8.13988 143.32 8.24988C143.25 8.30988 143.17 8.35988 143.07 8.38988C142.98 8.41988 142.88 8.44988 142.76 8.45988C142.67 8.45988 142.57 8.46988 142.46 8.47988C142.35 8.47988 142.24 8.47988 142.12 8.47988C142.12 8.36988 142.11 8.23988 142.08 8.09988C142.05 7.95988 142.01 7.82988 141.94 7.71988C142.04 7.71988 142.13 7.72988 142.22 7.73988C142.31 7.74988 142.39 7.73988 142.46 7.73988C142.58 7.73988 142.68 7.69988 142.76 7.62988C142.83 7.56988 142.88 7.44988 142.91 7.28988C142.94 7.12988 142.95 6.94988 142.95 6.76988C142.95 6.42988 142.9 6.04988 142.79 5.62988C142.69 5.20988 142.46 4.74988 142.12 4.25988C142.21 3.97988 142.3 3.67988 142.38 3.36988C142.47 3.05988 142.55 2.74988 142.63 2.44988C142.71 2.14988 142.78 1.85988 142.84 1.57988C142.9 1.29988 142.96 1.06988 143.01 0.869883V0.619883H143.03ZM145.21 0.129883L145.94 0.289883C145.71 0.999883 145.4 1.66988 145.02 2.27988C144.64 2.88988 144.22 3.41988 143.76 3.83988C143.72 3.79988 143.66 3.74988 143.59 3.68988C143.52 3.62988 143.44 3.56988 143.36 3.50988C143.28 3.44988 143.21 3.39988 143.16 3.36988C143.62 2.97988 144.03 2.49988 144.38 1.93988C144.73 1.37988 145.01 0.769883 145.21 0.129883ZM145.03 8.14988L145.82 8.36988C145.64 8.79988 145.4 9.22988 145.11 9.64988C144.82 10.0699 144.52 10.4199 144.23 10.7099C144.18 10.6599 144.11 10.6099 144.03 10.5499C143.94 10.4899 143.85 10.4399 143.77 10.3799C143.68 10.3199 143.61 10.2699 143.54 10.2399C143.84 9.97988 144.13 9.65988 144.39 9.28988C144.65 8.91988 144.87 8.53988 145.04 8.14988H145.03ZM146.74 1.09988H146.88L147.02 1.05988L147.52 1.24988C147.34 2.05988 147.08 2.78988 146.74 3.44988C146.4 4.10988 146 4.66988 145.55 5.14988C145.1 5.62988 144.62 6.01988 144.11 6.32988C144.05 6.23988 143.98 6.13988 143.88 6.00988C143.78 5.88988 143.69 5.78988 143.6 5.72988C144.07 5.46988 144.52 5.10988 144.93 4.66988C145.35 4.22988 145.71 3.71988 146.02 3.12988C146.33 2.54988 146.56 1.90988 146.72 1.22988V1.08988L146.74 1.09988ZM143.94 3.34988L144.31 2.94988C144.57 3.11988 144.83 3.30988 145.1 3.51988C145.37 3.72988 145.58 3.91988 145.71 4.07988L145.34 4.51988C145.19 4.34988 144.98 4.15988 144.72 3.92988C144.46 3.70988 144.2 3.50988 143.94 3.33988V3.34988ZM144.4 6.81988H150.71V7.58988H144.4V6.81988ZM144.65 2.41988L144.99 1.99988C145.25 2.12988 145.51 2.27988 145.78 2.45988C146.05 2.63988 146.26 2.80988 146.4 2.95988L146.06 3.43988C145.9 3.28988 145.69 3.10988 145.42 2.91988C145.15 2.71988 144.89 2.55988 144.65 2.41988ZM144.98 1.09988H147V1.74988H144.98V1.09988ZM145.48 5.03988H149.54V5.79988H145.48V5.03988ZM147.1 7.15988H147.95V10.1999C147.95 10.4199 147.92 10.5999 147.87 10.7199C147.82 10.8399 147.71 10.9399 147.55 11.0099C147.39 11.0699 147.18 11.1099 146.92 11.1199C146.66 11.1299 146.33 11.1299 145.94 11.1199C145.92 11.0099 145.88 10.8799 145.82 10.7399C145.76 10.5999 145.71 10.4699 145.65 10.3699C145.95 10.3699 146.21 10.3799 146.44 10.3799C146.67 10.3799 146.83 10.3799 146.91 10.3699C146.98 10.3699 147.03 10.3599 147.06 10.3299C147.09 10.2999 147.1 10.2599 147.1 10.1999V7.15988ZM148.06 0.349883C148.24 1.13988 148.49 1.87988 148.8 2.56988C149.11 3.25988 149.5 3.85988 149.96 4.37988C150.42 4.89988 150.96 5.29988 151.57 5.58988C151.48 5.66988 151.38 5.77988 151.28 5.90988C151.18 6.03988 151.09 6.15988 151.03 6.27988C150.38 5.93988 149.82 5.47988 149.34 4.91988C148.86 4.35988 148.46 3.70988 148.13 2.95988C147.8 2.20988 147.54 1.38988 147.34 0.509883L148.06 0.369883V0.349883ZM148.7 1.05988H150.79V1.73988H148.7V1.05988ZM148.98 8.47988L149.66 8.10988C149.87 8.32988 150.08 8.55988 150.28 8.81988C150.49 9.07988 150.68 9.33988 150.85 9.58988C151.02 9.83988 151.16 10.0699 151.25 10.2699L150.53 10.6799C150.43 10.4799 150.3 10.2499 150.13 9.98988C149.96 9.72988 149.78 9.46988 149.58 9.19988C149.38 8.93988 149.18 8.68988 148.97 8.46988L148.98 8.47988ZM150.48 1.05988H150.66L150.8 1.00988L151.32 1.30988C151.13 1.85988 150.88 2.40988 150.59 2.94988C150.29 3.48988 149.99 3.94988 149.67 4.31988C149.61 4.23988 149.52 4.14988 149.42 4.04988C149.32 3.94988 149.23 3.86988 149.15 3.81988C149.33 3.59988 149.51 3.33988 149.68 3.03988C149.85 2.73988 150.01 2.43988 150.15 2.11988C150.29 1.79988 150.4 1.49988 150.48 1.22988V1.05988Z" fill="#766B52"/>
<path d="M155.12 0.120117L155.98 0.380117C155.73 1.05012 155.44 1.72012 155.11 2.38012C154.78 3.04012 154.42 3.66012 154.03 4.25012C153.64 4.83012 153.24 5.35012 152.82 5.81012C152.8 5.74012 152.75 5.65012 152.69 5.53012C152.63 5.42012 152.56 5.30012 152.49 5.19012C152.42 5.07012 152.36 4.98012 152.3 4.91012C152.68 4.52012 153.04 4.07012 153.39 3.55012C153.74 3.03012 154.06 2.49012 154.36 1.91012C154.66 1.33012 154.91 0.730117 155.12 0.120117ZM153.85 3.28012L154.7 2.43012H154.71V11.1701H153.85V3.28012ZM158.81 2.64012L159.65 2.95012C159.31 3.56012 158.9 4.14012 158.44 4.70012C157.98 5.26012 157.49 5.78012 156.98 6.25012C156.46 6.73012 155.94 7.14012 155.41 7.50012C155.37 7.44012 155.31 7.36012 155.24 7.27012C155.16 7.18012 155.08 7.08012 155 6.99012C154.92 6.89012 154.84 6.82012 154.78 6.77012C155.31 6.45012 155.82 6.07012 156.32 5.64012C156.82 5.21012 157.28 4.74012 157.71 4.22012C158.14 3.71012 158.5 3.18012 158.81 2.62012V2.64012ZM155.5 2.35012H163.26V3.20012H155.5V2.35012ZM156.74 11.1801C156.72 11.1201 156.67 11.0401 156.61 10.9601C156.55 10.8801 156.49 10.7901 156.43 10.7101C156.37 10.6301 156.31 10.5601 156.26 10.5001C156.37 10.4301 156.5 10.3101 156.64 10.1401C156.78 9.97012 156.86 9.75012 156.86 9.47012V5.35012H157.74V10.1401C157.6 10.2401 157.49 10.3401 157.39 10.4201C157.29 10.5001 157.19 10.5901 157.09 10.6801C156.99 10.7701 156.91 10.8601 156.84 10.9601C156.78 11.0501 156.74 11.1301 156.74 11.1901V11.1801ZM156.74 11.1801L156.66 10.3901L157.06 10.0501L159.89 9.05012C159.91 9.16012 159.93 9.30012 159.96 9.45012C159.99 9.61012 160.01 9.73012 160.04 9.83012C159.38 10.0801 158.84 10.2801 158.43 10.4301C158.02 10.5801 157.71 10.7001 157.49 10.8001C157.27 10.9001 157.11 10.9601 157 11.0201C156.89 11.0701 156.81 11.1301 156.75 11.1801H156.74ZM158.48 0.420117L159.28 0.160117C159.46 0.450117 159.63 0.770117 159.8 1.12012C159.97 1.47012 160.09 1.77012 160.17 2.01012L159.32 2.33012C159.26 2.08012 159.14 1.78012 158.98 1.41012C158.82 1.05012 158.65 0.720117 158.48 0.420117ZM159.46 3.18012C159.63 3.92012 159.84 4.63012 160.1 5.32012C160.36 6.01012 160.66 6.66012 161.01 7.27012C161.35 7.88012 161.74 8.42012 162.17 8.90012C162.6 9.38012 163.07 9.77012 163.59 10.0601C163.53 10.1201 163.45 10.1901 163.37 10.2801C163.29 10.3701 163.2 10.4601 163.12 10.5501C163.04 10.6401 162.98 10.7301 162.93 10.8101C162.23 10.3501 161.6 9.74012 161.05 8.98012C160.5 8.22012 160.03 7.37012 159.65 6.41012C159.26 5.45012 158.94 4.44012 158.7 3.37012L159.47 3.18012H159.46ZM162.7 4.37012L163.37 4.99012C163.09 5.23012 162.79 5.48012 162.46 5.75012C162.13 6.02012 161.81 6.27012 161.48 6.51012C161.15 6.75012 160.85 6.96012 160.56 7.13012L160.06 6.61012C160.33 6.42012 160.63 6.19012 160.96 5.93012C161.29 5.67012 161.6 5.40012 161.91 5.12012C162.22 4.84012 162.48 4.58012 162.7 4.35012V4.37012Z" fill="#766B52"/>
<path d="M166.02 8.34008L166.88 8.59008C166.66 9.04008 166.42 9.50008 166.14 9.98008C165.86 10.4601 165.58 10.8701 165.31 11.2101L164.45 10.8301C164.63 10.6301 164.82 10.3901 165.01 10.1201C165.2 9.84008 165.39 9.55008 165.56 9.25008C165.74 8.95008 165.89 8.65008 166.02 8.35008V8.34008ZM165.05 0.620078H165.9V8.11008H165.05V0.620078ZM165.49 3.54008H168.13V4.33008H165.49V3.54008ZM165.5 0.620078H168.54V7.50008H165.5V6.68008H167.7V1.43008H165.5V0.630078V0.620078ZM168.01 8.69008L168.84 8.61008C168.92 8.99008 168.99 9.41008 169.04 9.86008C169.1 10.3101 169.13 10.6801 169.14 10.9801L168.26 11.1101C168.26 10.9101 168.25 10.6701 168.22 10.4001C168.2 10.1201 168.17 9.84008 168.14 9.54008C168.11 9.24008 168.06 8.96008 168.01 8.70008V8.69008ZM171.16 0.850078H172.05C172 1.29008 171.92 1.69008 171.8 2.06008C171.68 2.42008 171.52 2.75008 171.31 3.04008C171.1 3.33008 170.82 3.59008 170.48 3.81008C170.14 4.03008 169.71 4.23008 169.2 4.39008C169.15 4.29008 169.08 4.17008 168.98 4.03008C168.88 3.89008 168.79 3.79008 168.7 3.72008C169.16 3.58008 169.54 3.43008 169.84 3.25008C170.14 3.07008 170.38 2.87008 170.56 2.63008C170.74 2.39008 170.87 2.13008 170.97 1.83008C171.07 1.53008 171.13 1.21008 171.17 0.850078H171.16ZM169.07 0.600078H174.45V1.40008H169.07V0.600078ZM169.43 4.55008H174.67V7.89008H169.43V4.55008ZM170.27 5.30008V7.12008H173.79V5.30008H170.27ZM170.58 8.65008L171.42 8.49008C171.53 8.75008 171.64 9.02008 171.74 9.30008C171.84 9.58008 171.94 9.86008 172.02 10.1401C172.1 10.4201 172.16 10.6601 172.2 10.8801L171.31 11.0701C171.27 10.8601 171.21 10.6201 171.14 10.3401C171.07 10.0601 170.98 9.77008 170.89 9.48008C170.79 9.18008 170.69 8.91008 170.58 8.65008ZM174.16 0.600078H175.02C175.02 0.780078 175 0.890078 175 0.950078C174.97 1.53008 174.93 2.00008 174.89 2.37008C174.85 2.74008 174.79 3.03008 174.73 3.23008C174.67 3.43008 174.6 3.58008 174.52 3.68008C174.42 3.78008 174.32 3.84008 174.21 3.88008C174.1 3.92008 173.97 3.95008 173.81 3.96008C173.67 3.96008 173.48 3.97008 173.23 3.97008C172.98 3.97008 172.72 3.97008 172.44 3.95008C172.44 3.84008 172.41 3.71008 172.37 3.57008C172.33 3.43008 172.28 3.31008 172.21 3.20008C172.47 3.22008 172.72 3.24008 172.94 3.24008C173.16 3.24008 173.32 3.24008 173.42 3.24008C173.5 3.24008 173.57 3.24008 173.63 3.22008C173.69 3.21008 173.74 3.18008 173.78 3.14008C173.84 3.08008 173.9 2.96008 173.94 2.79008C173.98 2.62008 174.02 2.36008 174.05 2.03008C174.08 1.70008 174.12 1.25008 174.15 0.710078V0.580078L174.16 0.600078ZM173.03 8.59008L173.85 8.25008C174.04 8.51008 174.24 8.79008 174.44 9.10008C174.64 9.41008 174.83 9.71008 175 10.0001C175.17 10.2901 175.31 10.5501 175.4 10.7901L174.55 11.1701C174.45 10.9401 174.32 10.6701 174.16 10.3701C174 10.0701 173.81 9.76008 173.61 9.45008C173.41 9.14008 173.21 8.85008 173.02 8.59008H173.03Z" fill="#766B52"/>
<path d="M177.52 8.38012L178.34 8.56012C178.2 9.06012 178.02 9.53012 177.78 9.99012C177.54 10.4501 177.28 10.8401 177.01 11.1601C176.96 11.1101 176.89 11.0601 176.81 11.0001C176.72 10.9401 176.64 10.8801 176.55 10.8201C176.47 10.7601 176.39 10.7101 176.32 10.6801C176.59 10.3901 176.83 10.0401 177.05 9.64012C177.27 9.24012 177.42 8.81012 177.54 8.38012H177.52ZM176.93 0.560117H180.33V8.12012H176.93V0.560117ZM177.72 1.31012V2.85012H179.52V1.31012H177.72ZM177.72 3.55012V5.10012H179.52V3.55012H177.72ZM177.72 5.81012V7.38012H179.52V5.81012H177.72ZM179.03 8.66012L179.71 8.36012C179.9 8.65012 180.09 8.97012 180.29 9.31012C180.48 9.66012 180.62 9.96012 180.71 10.2201L180 10.5701C179.94 10.4001 179.86 10.2101 179.75 9.98012C179.64 9.76012 179.53 9.53012 179.4 9.30012C179.28 9.07012 179.15 8.86012 179.02 8.66012H179.03ZM180.5 8.47012H187.46V9.15012H180.5V8.47012ZM180.55 4.02012H187.41V4.70012H180.55V4.02012ZM180.83 1.15012H187.15V1.83012H180.83V1.15012ZM181.14 2.56012H186.96V3.22012H181.14V2.56012ZM181.27 5.40012H186.26V6.08012H182.08V11.1601H181.26V5.40012H181.27ZM181.7 6.95012H186.25V7.57012H181.7V6.95012ZM182.28 0.120117H183.08V4.30012H182.28V0.120117ZM183.56 4.31012H184.35V8.69012H183.56V4.31012ZM185.92 5.40012H186.75V10.2101C186.75 10.4301 186.72 10.6101 186.66 10.7301C186.6 10.8501 186.49 10.9501 186.33 11.0201C186.17 11.0801 185.95 11.1201 185.66 11.1301C185.38 11.1301 185.02 11.1401 184.59 11.1401C184.57 11.0401 184.53 10.9101 184.48 10.7701C184.43 10.6301 184.38 10.5101 184.32 10.4001C184.64 10.4001 184.93 10.4101 185.19 10.4101H185.69C185.77 10.4101 185.83 10.3801 185.86 10.3601C185.89 10.3401 185.91 10.2801 185.91 10.2101V5.40012H185.92ZM184.87 0.120117H185.69V4.30012H184.87V0.120117Z" fill="#766B52"/>
<path d="M189.62 0.719961H190.52V4.06996C190.52 4.58996 190.51 5.14996 190.48 5.75996C190.45 6.36996 190.39 6.98996 190.29 7.62996C190.19 8.26996 190.05 8.88996 189.87 9.48996C189.69 10.09 189.44 10.65 189.14 11.15C189.08 11.09 189.01 11.04 188.91 10.98C188.81 10.92 188.71 10.86 188.61 10.81C188.51 10.76 188.42 10.72 188.34 10.7C188.64 10.21 188.87 9.68996 189.04 9.11996C189.21 8.55996 189.34 7.97996 189.42 7.38996C189.5 6.79996 189.56 6.21996 189.58 5.65996C189.6 5.08996 189.62 4.55996 189.62 4.07996V0.719961ZM190.16 0.719961H198.55V3.41996H190.16V2.65996H197.65V1.46996H190.16V0.709961V0.719961ZM190.24 10.07H199.3V10.8H190.24V10.07ZM190.6 4.26996H198.94V5.00996H190.6V4.26996ZM191.33 7.25996C191.31 7.19996 191.29 7.10996 191.26 7.00996C191.23 6.90996 191.19 6.80996 191.16 6.69996C191.12 6.58996 191.09 6.49996 191.06 6.42996C191.16 6.40996 191.26 6.37996 191.37 6.31996C191.48 6.25996 191.6 6.17996 191.73 6.06996C191.82 6.00996 191.96 5.88996 192.16 5.71996C192.36 5.54996 192.58 5.34996 192.81 5.10996C193.05 4.86996 193.26 4.61996 193.45 4.36996L194.21 4.83996C193.86 5.21996 193.48 5.58996 193.08 5.92996C192.68 6.26996 192.27 6.56996 191.87 6.81996V6.83996C191.76 6.88996 191.67 6.92996 191.6 6.96996C191.53 7.00996 191.47 7.05996 191.41 7.10996C191.35 7.15996 191.33 7.20996 191.33 7.25996ZM191.15 8.01996H198.37V8.75996H191.15V8.01996ZM191.33 7.25996V6.63996L191.86 6.34996L197.56 6.04996C197.58 6.15996 197.6 6.27996 197.63 6.41996C197.66 6.54996 197.69 6.65996 197.73 6.74996C196.63 6.80996 195.72 6.86996 194.99 6.91996C194.26 6.96996 193.67 7.00996 193.21 7.03996C192.76 7.06996 192.41 7.09996 192.16 7.11996C191.91 7.13996 191.73 7.16996 191.61 7.18996C191.49 7.20996 191.4 7.23996 191.33 7.26996V7.25996ZM194.27 6.78996H195.15V10.52H194.27V6.78996ZM195.72 5.40996L196.38 4.99996C196.67 5.18996 196.97 5.40996 197.28 5.65996C197.59 5.90996 197.89 6.14996 198.16 6.39996C198.44 6.63996 198.66 6.86996 198.84 7.06996L198.13 7.54996C197.96 7.34996 197.74 7.11996 197.48 6.86996C197.21 6.61996 196.92 6.35996 196.62 6.09996C196.32 5.83996 196.01 5.60996 195.73 5.40996H195.72Z" fill="#766B52"/>
<path d="M206.14 0.0698242L206.93 0.479824C206.48 1.13982 205.95 1.76982 205.33 2.36982C204.71 2.96982 204.04 3.50982 203.31 3.98982C202.58 4.46982 201.83 4.88982 201.05 5.22982C200.98 5.09982 200.88 4.95982 200.76 4.81982C200.64 4.66982 200.52 4.54982 200.4 4.43982C201.16 4.13982 201.9 3.75982 202.62 3.31982C203.34 2.87982 204 2.37982 204.61 1.82982C205.21 1.27982 205.72 0.689824 206.13 0.0698242H206.14ZM202.28 6.29982H209.73V11.0798H208.78V7.11982H203.19V11.1298H202.28V6.30982V6.29982ZM202.69 9.60982H209.12V10.4498H202.69V9.60982ZM202.91 4.02982H208.97V4.85982H202.91V4.02982ZM206.32 0.779824C207.05 1.58982 207.85 2.26982 208.73 2.82982C209.61 3.38982 210.55 3.87982 211.56 4.30982C211.44 4.40982 211.32 4.52982 211.21 4.67982C211.1 4.82982 211 4.97982 210.93 5.11982C210.25 4.78982 209.6 4.43982 208.98 4.05982C208.36 3.67982 207.77 3.24982 207.2 2.77982C206.63 2.30982 206.08 1.76982 205.56 1.15982L206.33 0.779824H206.32Z" fill="#766B52"/>
<path d="M213.2 7.81984L214 7.98984C213.9 8.49984 213.78 9.01984 213.63 9.53984C213.48 10.0598 213.33 10.5098 213.18 10.8898C213.12 10.8498 213.05 10.8098 212.95 10.7798C212.85 10.7498 212.76 10.7098 212.66 10.6798C212.56 10.6398 212.48 10.6198 212.4 10.5998C212.57 10.2298 212.72 9.79984 212.86 9.29984C213 8.79984 213.11 8.30984 213.2 7.81984ZM212.72 4.59984C212.7 4.53984 212.68 4.45984 212.65 4.35984C212.62 4.25984 212.58 4.14984 212.54 4.03984C212.5 3.92984 212.46 3.83984 212.43 3.76984C212.54 3.74984 212.66 3.67984 212.78 3.55984C212.9 3.43984 213.03 3.28984 213.18 3.10984C213.25 3.01984 213.36 2.87984 213.51 2.67984C213.66 2.47984 213.82 2.23984 214 1.95984C214.18 1.67984 214.36 1.37984 214.55 1.05984C214.74 0.739844 214.91 0.419844 215.06 0.0898438L215.9 0.449844C215.52 1.12984 215.11 1.78984 214.66 2.43984C214.21 3.08984 213.75 3.64984 213.3 4.11984V4.13984C213.18 4.19984 213.08 4.25984 213.01 4.29984C212.94 4.33984 212.87 4.38984 212.81 4.43984C212.75 4.48984 212.72 4.53984 212.72 4.58984V4.59984ZM212.78 7.30984C212.76 7.24984 212.74 7.15984 212.7 7.05984C212.66 6.95984 212.63 6.84984 212.59 6.73984C212.55 6.62984 212.52 6.52984 212.48 6.43984C212.62 6.41984 212.77 6.33984 212.92 6.20984C213.07 6.07984 213.25 5.89984 213.46 5.68984C213.57 5.58984 213.73 5.40984 213.95 5.16984C214.16 4.92984 214.4 4.63984 214.67 4.29984C214.94 3.95984 215.21 3.59984 215.49 3.20984C215.77 2.81984 216.02 2.41984 216.26 2.00984L217.03 2.49984C216.49 3.30984 215.91 4.08984 215.28 4.84984C214.65 5.60984 214.02 6.26984 213.4 6.83984V6.85984C213.27 6.91984 213.17 6.96984 213.09 7.01984C213.01 7.06984 212.94 7.11984 212.88 7.16984C212.82 7.21984 212.79 7.26984 212.79 7.31984L212.78 7.30984ZM212.72 4.59984L212.7 3.94984L213.13 3.66984L215.52 3.44984C215.5 3.56984 215.48 3.69984 215.47 3.83984C215.46 3.97984 215.45 4.08984 215.45 4.17984C214.91 4.23984 214.47 4.28984 214.13 4.32984C213.79 4.36984 213.53 4.40984 213.35 4.43984C213.17 4.46984 213.03 4.48984 212.94 4.51984C212.85 4.54984 212.78 4.56984 212.73 4.58984L212.72 4.59984ZM212.78 7.30984L212.73 6.62984L213.19 6.31984L216.85 5.79984C216.85 5.91984 216.83 6.04984 216.83 6.19984C216.83 6.33984 216.83 6.45984 216.83 6.55984C215.99 6.68984 215.32 6.78984 214.81 6.87984C214.3 6.95984 213.91 7.02984 213.65 7.07984C213.38 7.12984 213.19 7.17984 213.07 7.20984C212.95 7.24984 212.86 7.27984 212.79 7.30984H212.78ZM214.64 7.91984L215.37 7.73984C215.46 8.16984 215.54 8.62984 215.62 9.11984C215.7 9.60984 215.75 10.0398 215.78 10.3998L215.01 10.5898C214.99 10.3398 214.97 10.0698 214.93 9.75984C214.89 9.44984 214.85 9.13984 214.8 8.81984C214.75 8.49984 214.69 8.18984 214.64 7.90984V7.91984ZM215.93 4.74984L216.66 4.55984C216.77 4.81984 216.88 5.10984 217 5.40984C217.12 5.70984 217.21 5.99984 217.3 6.27984C217.39 6.55984 217.45 6.80984 217.49 7.01984L216.71 7.25984C216.68 7.03984 216.62 6.78984 216.53 6.49984C216.44 6.20984 216.35 5.90984 216.24 5.60984C216.14 5.29984 216.03 5.01984 215.93 4.74984ZM216.12 7.71984L216.79 7.48984C216.95 7.84984 217.1 8.23984 217.25 8.66984C217.4 9.09984 217.51 9.46984 217.58 9.77984L216.87 10.0398C216.82 9.82984 216.76 9.58984 216.67 9.32984C216.59 9.05984 216.5 8.78984 216.4 8.49984C216.3 8.21984 216.21 7.94984 216.11 7.70984L216.12 7.71984ZM218.79 0.109844L219.68 0.289844C219.54 0.879844 219.36 1.45984 219.15 2.02984C218.94 2.59984 218.72 3.12984 218.47 3.61984C218.23 4.10984 217.96 4.54984 217.68 4.92984C217.62 4.87984 217.55 4.82984 217.45 4.75984C217.35 4.69984 217.26 4.62984 217.16 4.56984C217.06 4.50984 216.98 4.44984 216.9 4.40984C217.19 4.06984 217.45 3.65984 217.69 3.19984C217.93 2.73984 218.14 2.23984 218.32 1.70984C218.5 1.17984 218.66 0.649844 218.79 0.0998437V0.109844ZM218.28 2.33984H222.52V3.18984H218.28V2.33984ZM218.28 5.25984L218.92 4.79984C219.19 5.05984 219.47 5.33984 219.74 5.64984C220.01 5.95984 220.27 6.25984 220.5 6.56984C220.73 6.86984 220.91 7.14984 221.04 7.39984L220.37 7.92984C220.24 7.67984 220.07 7.39984 219.85 7.08984C219.63 6.77984 219.38 6.45984 219.11 6.13984C218.83 5.81984 218.56 5.52984 218.29 5.25984H218.28ZM222.16 2.33984H223.07C223.07 2.45984 223.07 2.55984 223.07 2.62984C223.07 2.69984 223.07 2.75984 223.07 2.79984C223.03 4.13984 222.99 5.27984 222.94 6.20984C222.9 7.13984 222.85 7.89984 222.8 8.47984C222.75 9.05984 222.68 9.52984 222.6 9.84984C222.52 10.1798 222.42 10.4098 222.31 10.5498C222.17 10.7298 222.03 10.8498 221.88 10.9198C221.73 10.9898 221.55 11.0298 221.33 11.0598C221.13 11.0798 220.87 11.0898 220.54 11.0798C220.22 11.0798 219.89 11.0598 219.55 11.0398C219.55 10.9098 219.51 10.7598 219.46 10.5898C219.41 10.4198 219.34 10.2698 219.25 10.1398C219.63 10.1698 219.98 10.1898 220.3 10.1898C220.62 10.1898 220.84 10.1898 220.98 10.1898C221.09 10.1898 221.19 10.1898 221.26 10.1698C221.34 10.1498 221.41 10.0898 221.47 10.0098C221.56 9.90984 221.64 9.69984 221.71 9.38984C221.78 9.07984 221.84 8.62984 221.9 8.03984C221.96 7.44984 222 6.70984 222.04 5.79984C222.08 4.89984 222.12 3.79984 222.16 2.50984V2.31984V2.33984Z" fill="#766B52"/>
<path d="M224.59 6.18008H235.27V6.86008H224.59V6.18008ZM224.62 2.21008H235.28V2.88008H224.62V2.21008ZM225.41 4.87008H234.47V5.47008H225.41V4.87008ZM225.88 0.910078H233.8V4.20008H225.75V3.60008H232.91V1.52008H225.88V0.910078ZM226.09 7.43008H233.9V11.1501H232.99V8.05008H226.97V11.1701H226.09V7.43008ZM226.58 8.80008H232.34V9.39008H226.58V8.80008ZM226.58 10.1501H233.3V10.7901H226.58V10.1501ZM229.44 0.0800781H230.34V6.61008H229.44V0.0800781Z" fill="#766B52"/>
<path d="M242.03 0.100098L242.94 0.330098C242.68 1.1701 242.35 1.9901 241.97 2.8001C241.59 3.6001 241.15 4.3701 240.65 5.1001C240.15 5.8301 239.58 6.5001 238.93 7.1201C238.29 7.7401 237.57 8.2801 236.78 8.7501C236.75 8.6801 236.7 8.6001 236.64 8.5001C236.58 8.4101 236.52 8.3201 236.46 8.2201C236.4 8.1301 236.34 8.0501 236.29 7.9901C237.03 7.5701 237.71 7.0601 238.32 6.4801C238.93 5.9001 239.47 5.2601 239.94 4.5701C240.41 3.8801 240.82 3.1601 241.17 2.4001C241.52 1.6401 241.8 0.880098 242.03 0.100098ZM236.92 2.1601H244.76V2.9901H236.92V2.1601ZM238.49 7.9701L239.25 8.2101C239.16 8.5501 239.05 8.8901 238.93 9.2401C238.81 9.5901 238.65 9.9201 238.47 10.2401C238.29 10.5601 238.08 10.8401 237.84 11.0801L237.14 10.6001C237.36 10.3801 237.56 10.1301 237.74 9.8401C237.92 9.5501 238.07 9.2401 238.19 8.9201C238.31 8.6001 238.42 8.2801 238.5 7.9801L238.49 7.9701ZM238.39 0.470098L239.18 0.150098C239.41 0.380098 239.64 0.650098 239.88 0.950098C240.11 1.2501 240.29 1.5201 240.41 1.7501L239.58 2.1301C239.48 1.9001 239.31 1.6201 239.08 1.3101C238.85 0.990098 238.62 0.710098 238.39 0.460098V0.470098ZM238.46 6.5001H246.63V7.2901H238.46V6.5001ZM240.02 8.2301L240.76 8.1301C240.88 8.5101 240.97 8.9301 241.03 9.3801C241.09 9.8301 241.12 10.2101 241.12 10.5301L240.33 10.6501C240.35 10.4301 240.34 10.1901 240.31 9.9101C240.28 9.6301 240.25 9.3501 240.2 9.0601C240.15 8.7701 240.09 8.4901 240.01 8.2301H240.02ZM240.29 4.3301H245.8V5.1201H240.29V4.3301ZM241.8 8.1201L242.5 7.9601C242.66 8.2901 242.81 8.6401 242.94 9.0301C243.07 9.4101 243.17 9.7501 243.22 10.0301L242.46 10.2301C242.42 9.9401 242.34 9.6001 242.21 9.2001C242.08 8.8001 241.95 8.4401 241.8 8.1101V8.1201ZM243.59 7.9401L244.21 7.7001C244.4 7.9401 244.58 8.2101 244.76 8.5201C244.93 8.8201 245.05 9.0801 245.13 9.3001L244.47 9.5801C244.4 9.3601 244.28 9.0901 244.11 8.7801C243.94 8.4701 243.77 8.1901 243.59 7.9501V7.9401ZM246.25 6.5001H247.15C247.15 6.6001 247.14 6.6701 247.13 6.7301C247.13 6.7901 247.12 6.8401 247.11 6.8801C247.04 7.7201 246.96 8.4101 246.88 8.9401C246.8 9.4701 246.71 9.8801 246.62 10.1801C246.52 10.4701 246.41 10.6801 246.28 10.8101C246.17 10.9301 246.05 11.0101 245.92 11.0601C245.79 11.1101 245.64 11.1301 245.46 11.1501C245.31 11.1701 245.09 11.1701 244.82 11.1701C244.54 11.1701 244.25 11.1601 243.94 11.1401C243.94 11.0201 243.91 10.8801 243.86 10.7301C243.81 10.5801 243.75 10.4401 243.67 10.3201C243.97 10.3501 244.26 10.3701 244.52 10.3801C244.78 10.3801 244.97 10.3801 245.08 10.3801C245.19 10.3801 245.28 10.3801 245.35 10.3601C245.42 10.3401 245.48 10.3101 245.52 10.2601C245.62 10.1701 245.7 10.0001 245.78 9.7301C245.86 9.4701 245.94 9.0801 246.01 8.5801C246.08 8.0801 246.16 7.4301 246.22 6.6401V6.5101L246.25 6.5001ZM244.56 2.1601H245.4C245.32 2.5801 245.23 3.0101 245.13 3.4701C245.03 3.9301 244.94 4.3201 244.85 4.6501L244.05 4.5301C244.14 4.2101 244.23 3.8301 244.33 3.4001C244.43 2.9601 244.51 2.5501 244.57 2.1701L244.56 2.1601ZM245.46 4.3301H246.3C246.22 4.7501 246.13 5.1801 246.04 5.6401C245.94 6.1001 245.85 6.4801 245.76 6.8001L244.94 6.7201C245.04 6.3901 245.13 6.0101 245.23 5.5701C245.33 5.1301 245.4 4.7201 245.46 4.3301Z" fill="#766B52"/>
<path d="M248.6 9.86016H259.3V10.7402H248.6V9.86016ZM249.17 2.51016H258.7V3.39016H249.17V2.51016ZM249.72 6.02016H258.2V6.90016H249.72V6.02016ZM252.42 0.650156L253.15 0.160156C253.41 0.340156 253.68 0.540156 253.96 0.770156C254.24 1.00016 254.51 1.23016 254.76 1.46016C255.01 1.69016 255.21 1.90016 255.37 2.09016L254.59 2.65016C254.45 2.47016 254.25 2.26016 254.01 2.02016C253.77 1.78016 253.51 1.54016 253.23 1.30016C252.95 1.06016 252.68 0.840156 252.42 0.650156ZM253.44 3.22016H254.41V10.3202H253.44V3.22016Z" fill="#766B52"/>
<path d="M262.97 3.81982C263.31 3.81982 263.62 3.89982 263.89 4.06982C264.16 4.22982 264.38 4.44982 264.54 4.72982C264.7 5.00982 264.79 5.30982 264.79 5.64982C264.79 5.98982 264.71 6.28982 264.54 6.56982C264.37 6.84982 264.16 7.06982 263.89 7.22982C263.62 7.38982 263.31 7.47982 262.97 7.47982C262.63 7.47982 262.33 7.39982 262.05 7.22982C261.77 7.06982 261.55 6.84982 261.39 6.56982C261.23 6.28982 261.14 5.98982 261.14 5.64982C261.14 5.30982 261.22 5.00982 261.39 4.72982C261.55 4.44982 261.78 4.22982 262.06 4.06982C262.34 3.90982 262.64 3.81982 262.97 3.81982ZM262.97 6.84982C263.31 6.84982 263.59 6.72982 263.83 6.49982C264.07 6.25982 264.18 5.97982 264.18 5.63982C264.18 5.41982 264.13 5.20982 264.02 5.02982C263.91 4.84982 263.77 4.69982 263.58 4.58982C263.4 4.47982 263.19 4.42982 262.97 4.42982C262.75 4.42982 262.55 4.47982 262.37 4.58982C262.19 4.69982 262.04 4.83982 261.93 5.02982C261.82 5.20982 261.76 5.41982 261.76 5.63982C261.76 5.85982 261.82 6.06982 261.93 6.24982C262.04 6.42982 262.19 6.57982 262.37 6.68982C262.55 6.79982 262.75 6.84982 262.98 6.84982H262.97Z" fill="#766B52"/>
</g>
<defs>
<clipPath id="clip0_4_553">
<rect width="264.79" height="11.23" fill="white"/>
</clipPath>
</defs>
</svg>
