<?xml version="1.0" encoding="UTF-8"?>
<svg id="_圖層_1" data-name="圖層_1" xmlns="http://www.w3.org/2000/svg" version="1.1" viewBox="0 0 422 16">
  <!-- Generator: Adobe Illustrator 29.4.0, SVG Export Plug-In . SVG Version: 2.1.0 Build 152)  -->
  <defs>
    <style>
      .st0 {
        fill: #333;
      }
    </style>
  </defs>
  <path class="st0" d="M2.5.6l1.1.3c-.3.7-.7,1.4-1.2,2.1-.5.7-1,1.2-1.5,1.7,0,0-.1-.2-.2-.2s-.2-.2-.3-.3c-.1-.1-.2-.2-.3-.2.5-.4,1-.9,1.4-1.5.4-.6.8-1.2,1.1-1.8h0ZM.9,4.8h1.1v10.6H.9V4.8ZM1.5,4.8h5.1v4.1H1.5v-.8h4v-2.5H1.5v-.8h0ZM1.6,6.5h4.3v.7H1.6v-.7ZM2.2,1.8h5.1v1H2.2v-1ZM3.3,3.3l.8-.6c.2.2.5.5.8.7s.5.5.7.7l-.8.7c-.1-.2-.4-.5-.6-.7-.3-.3-.5-.5-.8-.8ZM4.4,9.8h1.1v5h-1.1v-5ZM4.9,9.8h5.5v4.4h-5.5v-.8h4.4v-2.9h-4.4v-.8ZM4.9,11.6h4.9v.8h-4.9v-.8ZM9.1.7l1.1.3c-.2.7-.6,1.4-1,2.1-.4.7-.9,1.2-1.3,1.6,0,0-.2-.1-.3-.2-.1,0-.2-.2-.3-.3-.1,0-.2-.2-.3-.2.5-.4.9-.9,1.3-1.5.4-.6.7-1.2.9-1.8h0ZM12.9,4.8v.8h-3.9v2.5h3.9v.8h-5v-4.1h5ZM8.6,6.5h4.5v.7h-4.5v-.7ZM8.8,1.8h5.9v1h-5.9v-1ZM10.2,3.4l.8-.6c.3.2.6.4.9.7.3.3.5.5.7.7l-.8.7c-.2-.2-.4-.5-.7-.7-.3-.3-.6-.5-.9-.8h0ZM12.6,4.8h1.1v9.2c0,.3,0,.6-.1.8s-.2.3-.5.4c-.2,0-.5.1-1,.2-.4,0-.9,0-1.5,0,0-.2,0-.3-.1-.5,0-.2-.1-.4-.2-.5.4,0,.9,0,1.2,0h.8c.2,0,.3-.1.3-.3V4.8h0Z"/>
  <path class="st0" d="M16.7,11.1l1,.2c-.1.7-.2,1.5-.4,2.2-.1.7-.3,1.4-.5,1.9-.1,0-.3-.1-.5-.2-.2,0-.4-.1-.5-.2.2-.5.4-1.1.5-1.8.1-.7.2-1.4.3-2.1h0ZM16.3,6.8c0,0,0-.2,0-.3,0-.1,0-.3-.1-.4,0-.1,0-.3-.1-.4.1,0,.3-.1.4-.3.1-.2.3-.4.5-.6,0-.1.2-.3.4-.6.2-.3.4-.6.6-1,.2-.4.4-.8.6-1.2.2-.4.4-.9.6-1.3l1.1.4c-.3.6-.6,1.2-.9,1.8-.3.6-.7,1.2-1,1.7-.4.5-.7,1-1.1,1.5h0c-.1,0-.3.2-.4.2,0,0-.2.1-.3.2,0,0,0,.1,0,.2h0ZM16.4,10.4c0,0,0-.2-.1-.3,0-.1,0-.3-.1-.4,0-.1-.1-.3-.1-.4.2,0,.4-.2.5-.3.2-.2.4-.4.6-.7.1-.1.3-.4.6-.7.2-.3.5-.7.8-1.2.3-.5.6-1,.9-1.5.3-.5.6-1.1.9-1.6l1,.6c-.4.7-.9,1.5-1.3,2.2-.5.7-1,1.4-1.5,2.1-.5.7-1,1.2-1.5,1.8h0c-.1.1-.3.2-.4.2-.1,0-.2.1-.3.2,0,0-.1.1-.1.2ZM16.3,6.8v-.9s.6-.4.6-.4l2.8-.2c0,.2,0,.3,0,.5,0,.2,0,.3,0,.5-.6,0-1.2.1-1.6.2-.4,0-.7,0-.9.1s-.4,0-.5,0c-.1,0-.2,0-.3,0h0ZM16.4,10.4v-.9s.5-.4.5-.4l4.2-.6c0,.1,0,.3,0,.5,0,.2,0,.3,0,.5-1,.2-1.8.3-2.3.4-.6,0-1,.2-1.4.2s-.6.1-.7.1c-.1,0-.2,0-.3.1h0ZM18.4,11.2h.9c.1.4.2,1.1.3,1.8,0,.7.1,1.3.2,1.8l-.9.2c0-.3,0-.7,0-1.1,0-.4,0-.8-.1-1.3,0-.5-.1-.9-.2-1.3h0ZM20,10.9l.8-.2c.2.5.3,1,.5,1.6.2.6.3,1.1.3,1.5l-.9.3c0-.4-.2-.9-.3-1.5s-.3-1.1-.5-1.6h0ZM20,7.1l.9-.2c.1.4.3.8.4,1.2.1.4.2.8.3,1.2,0,.4.2.7.2,1l-.9.3c0-.3,0-.6-.2-1,0-.4-.2-.8-.3-1.2-.1-.4-.2-.8-.4-1.2h0ZM25.2,9.4l.9.5c-.3.6-.6,1.2-1,1.8-.4.6-.8,1.2-1.3,1.7-.5.5-1,1-1.5,1.3,0-.1-.2-.3-.3-.5-.1-.2-.3-.3-.4-.5.5-.3,1-.7,1.5-1.1.5-.5.9-1,1.3-1.5.4-.6.7-1.1.9-1.7h0ZM21.8,2.5h8.7v1.1h-8.7v-1.1ZM22.2,4.8h7.9v5.2h-7.9v-5.2ZM23.2,5.8v3.2h5.9v-3.2h-5.9ZM23.8,6.4l.7-.2c.2.3.4.7.5,1.1.1.4.3.8.3,1.1l-.7.2c0-.3-.1-.7-.3-1.1-.1-.4-.3-.8-.5-1.1h0ZM25.6.8h1.1v4.4h0v4.5h-1v-4.5h0V.8h0ZM25.6,9.6h1.1v5.9h-1.1v-5.9ZM27.1,9.5c.3.5.6,1,1,1.6.4.5.9,1,1.3,1.5.5.5.9.8,1.3,1.1-.1.1-.3.2-.4.4-.1.2-.3.3-.4.5-.4-.4-.8-.8-1.3-1.3-.5-.5-.9-1.1-1.3-1.7-.4-.6-.8-1.2-1-1.8l.8-.3h0ZM28.1,6.2l.8.2c-.2.4-.3.8-.5,1.2-.2.4-.3.8-.5,1.1l-.6-.2c.1-.2.2-.4.3-.7.1-.3.2-.5.3-.8.1-.3.2-.5.2-.7h0Z"/>
  <path class="st0" d="M32.3,6.7c0,0,0-.2,0-.3,0-.1,0-.3-.1-.4,0-.1-.1-.3-.1-.4.1,0,.3-.1.4-.3s.3-.3.4-.6c.1-.2.3-.4.5-.9s.5-.9.8-1.5c.3-.6.5-1.1.7-1.7l1.1.5c-.3.6-.6,1.2-.9,1.8s-.7,1.1-1,1.7c-.3.5-.7,1-1,1.5h0c-.2.1-.3.2-.4.2s-.2.1-.3.2c0,0-.1.1-.1.2h0ZM32.7,11l1,.2c0,.7-.2,1.4-.3,2.1-.1.7-.3,1.3-.5,1.8,0,0-.2,0-.3-.1-.1,0-.2,0-.4-.1s-.2,0-.3,0c.2-.5.3-1.1.5-1.8.1-.7.2-1.3.3-2h0ZM32.4,10.4c0,0,0-.2,0-.3,0-.1-.1-.3-.2-.4s0-.3-.1-.4c.2,0,.4-.2.5-.3.2-.2.4-.4.6-.7.1-.2.3-.4.6-.7.2-.3.5-.7.8-1.2.3-.5.6-1,.9-1.5.3-.5.6-1.1.9-1.6l1,.6c-.4.7-.8,1.4-1.3,2.2-.5.7-1,1.4-1.5,2-.5.7-1,1.2-1.5,1.8h0c-.1.1-.3.2-.4.2-.1,0-.2.1-.3.2,0,0-.1.1-.1.2h0ZM32.3,6.7v-.9s.5-.3.5-.3l2.8-.2c0,.1,0,.3,0,.5,0,.2,0,.3,0,.5-.6,0-1.1.1-1.5.2-.4,0-.7,0-.9.1-.2,0-.4,0-.5,0-.1,0-.2,0-.3,0h0ZM32.4,10.4v-.9s.5-.4.5-.4l3.9-.5c0,.1,0,.3,0,.5,0,.2,0,.3,0,.5-.9.1-1.6.3-2.1.3s-1,.2-1.3.2c-.3,0-.5.1-.7.1-.1,0-.2,0-.3.1ZM34.3,11.2h.9c.1.4.2,1,.3,1.6,0,.6.1,1.2.1,1.7l-.9.2c0-.5,0-1-.1-1.7,0-.6-.1-1.2-.2-1.8h0ZM35.7,7.1l.9-.2c.1.4.3.7.4,1.2.1.4.2.8.3,1.2s.2.7.2,1l-1,.3c0-.3,0-.7-.2-1,0-.4-.2-.8-.3-1.2-.1-.4-.2-.8-.4-1.2h0ZM35.8,10.9l.8-.2c.2.4.3.8.5,1.3.1.5.3.9.3,1.3l-.9.3c0-.4-.2-.8-.3-1.3-.1-.5-.3-.9-.4-1.4ZM40.3,9.4h.4s.7.2.7.2c-.2.8-.5,1.5-.8,2.2-.4.6-.8,1.2-1.2,1.7-.5.5-1,.9-1.5,1.2,0-.1-.2-.3-.3-.4s-.2-.3-.4-.4c.5-.2.9-.6,1.4-1s.8-.9,1.1-1.5c.3-.6.6-1.2.7-1.8v-.2h0ZM38,9.4h2.6v1h-2.6v-1ZM38.6,2.5h7.3v5.6h-7.3V2.5ZM39.7,3.4v1.4h5v-1.4h-5ZM39.7,5.7v1.4h5v-1.4h-5ZM41.8,7.7h1.1v6.4c0,.3,0,.6-.1.7,0,.2-.2.3-.4.4-.2,0-.5.1-.8.2-.4,0-.8,0-1.3,0,0-.2,0-.3-.1-.6s-.1-.4-.2-.6c.4,0,.7,0,1,0s.5,0,.6,0c.1,0,.2,0,.2,0,0,0,0-.1,0-.2v-6.4ZM41.6.7l1.3.3c-.2.4-.3.7-.5,1.1-.2.4-.3.7-.5.9l-1-.3c.1-.3.3-.6.4-1,.1-.4.2-.7.3-1h0ZM42.9,8.5c.2.8.5,1.5.9,2.2.4.7.8,1.3,1.3,1.9.5.5,1.1,1,1.7,1.3,0,0-.2.2-.3.3-.1,0-.2.2-.3.3,0,.1-.2.2-.2.3-.6-.4-1.2-.9-1.7-1.5-.5-.6-1-1.3-1.3-2.1-.4-.8-.7-1.6-.9-2.5l.8-.2h0ZM45.5,8.7l.9.7c-.4.4-.8.8-1.3,1.1s-.9.7-1.3,1l-.7-.6c.2-.2.5-.4.8-.7.3-.3.6-.5.8-.8.3-.3.5-.5.7-.8h0Z"/>
  <path class="st0" d="M51.1.8l1.1.3c-.3.9-.6,1.8-1,2.7-.4.9-.8,1.8-1.3,2.6-.5.8-.9,1.5-1.4,2.1,0,0,0-.2-.2-.4,0-.1-.2-.3-.2-.5,0-.2-.2-.3-.2-.4.5-.5.9-1.2,1.3-1.9.4-.7.8-1.4,1.1-2.2.3-.8.6-1.6.9-2.4h0ZM49.8,5l1.1-1.1h0v11.6h-1.1V5h0ZM52.3,2.8h1.1v10h-1.1V2.8ZM57.4,9.9l1,.4c-.4.6-.8,1.2-1.3,1.8-.5.6-1,1.1-1.6,1.6-.6.5-1.1.9-1.7,1.2,0,0-.1-.1-.2-.2-.1,0-.2-.2-.3-.3-.1,0-.2-.2-.3-.2.6-.3,1.2-.7,1.7-1.1.6-.4,1.1-.9,1.5-1.4.5-.5.9-1.1,1.2-1.6ZM60.5,2.6l1.1.3c-.5,1-1.1,1.8-1.8,2.6-.8.7-1.6,1.3-2.6,1.9-1,.5-2,.9-3.1,1.3,0,0-.1-.2-.2-.3,0-.1-.2-.2-.2-.4,0-.1-.2-.2-.2-.3,1.1-.3,2.1-.6,3-1.1.9-.4,1.8-1,2.5-1.7.7-.7,1.2-1.4,1.7-2.3h0ZM56.6.8l1,.3c-.4.9-.9,1.7-1.5,2.5-.6.8-1.3,1.4-2,2,0,0-.1-.2-.2-.3,0-.1-.2-.2-.3-.3s-.2-.2-.3-.2c.7-.5,1.3-1,1.8-1.7.6-.7,1-1.4,1.4-2.2ZM54,9.4h8.5v1h-8.5v-1ZM56.2,3c.3.6.8,1.2,1.4,1.9.6.6,1.3,1.1,2.2,1.6.9.5,1.9.8,3.1,1.1-.1.1-.2.3-.4.5-.1.2-.2.4-.3.5-1.2-.3-2.2-.7-3.1-1.2-.9-.5-1.7-1.1-2.3-1.8-.6-.7-1.1-1.3-1.4-1.9l.8-.6h0ZM56.4,2.3h6.2v1h-6.8l.6-1ZM57.6,7.8h1.1v7.7h-1.1v-7.7ZM57.8,10.8l.7-.7c.5.4,1.1.8,1.7,1.2.6.4,1.1.9,1.6,1.3.5.4.9.8,1.2,1.1l-.8.9c-.3-.3-.7-.7-1.2-1.2s-1-.9-1.6-1.3c-.6-.4-1.1-.9-1.6-1.2h0Z"/>
  <path class="st0" d="M67.1,12.1c.3,0,.5,0,.7.3.2.2.6.4,1,.7.5.3,1.1.5,1.8.6.7,0,1.4.1,2.3.1s1.3,0,2,0c.7,0,1.4,0,2.1-.1s1.2-.1,1.8-.1c0,.1,0,.2-.1.4,0,.2-.1.3-.1.5,0,.2,0,.3,0,.4-.3,0-.7,0-1.1,0-.5,0-.9,0-1.5,0-.5,0-1,0-1.5,0s-1,0-1.3,0c-1,0-1.8,0-2.5-.2s-1.3-.4-1.8-.7c-.3-.2-.6-.4-.9-.6-.2-.2-.5-.3-.7-.3s-.4,0-.6.3c-.2.2-.4.4-.7.7-.2.3-.5.6-.8,1l-.9-1.1c.5-.6,1.1-1.1,1.6-1.5.5-.4,1-.6,1.4-.6h0ZM64.9,3.9h11.4v1.2h-11.4v-1.2ZM75.8,3.9h.5c0,0,.9.5.9.5-.5.8-1.2,1.6-1.9,2.4-.7.8-1.5,1.6-2.4,2.4-.8.8-1.7,1.5-2.6,2.2-.9.7-1.8,1.2-2.7,1.8-.1-.1-.2-.3-.4-.5-.2-.2-.3-.3-.4-.4.8-.5,1.7-1,2.6-1.7.9-.6,1.7-1.3,2.5-2.1.8-.8,1.5-1.5,2.2-2.3.7-.8,1.2-1.5,1.6-2.1v-.3h0ZM70,1.2l1.1-.6c.2.3.4.6.7.9.2.3.4.6.6.9.2.3.3.6.5.8l-1.1.6c0-.2-.2-.5-.4-.8-.2-.3-.4-.6-.6-1-.2-.3-.4-.6-.6-.9Z"/>
  <path class="st0" d="M80.8,1.5h1.2v14.1h-1.2V1.5ZM81.4,3.7h4.4v.9h-4.4v-.9ZM81.5,1.5h5.1v5.5h-5.1v-.9h4v-3.7h-4v-.9ZM84.3,8.2h1.1v6.7h-1.1v-6.7ZM84.9,8.2h5.5v5.8h-5.5v-.9h4.3v-3.9h-4.3v-.9h0ZM84.9,10.6h4.8v.9h-4.8v-.9ZM93.4,1.5v.9h-4.2v3.7h4.2v.9h-5.3V1.5h5.3ZM88.8,3.7h4.5v.9h-4.5v-.9ZM92.8,1.5h1.2v12.4c0,.4,0,.7-.2.9s-.3.4-.6.5c-.3.1-.6.2-1,.2-.4,0-1,0-1.7,0,0-.1,0-.2,0-.4,0-.2,0-.3-.2-.4,0-.2-.1-.3-.2-.4.3,0,.6,0,.9,0h1.3c.1,0,.2,0,.3,0,0,0,0-.2,0-.3V1.5Z"/>
  <path class="st0" d="M98,11.2l-.3-.8c.6-.3,1.1-.6,1.5-1,.3-.4.5-.9.5-1.5l-.3-1.3.9,1.2c-.1.1-.2.2-.4.3-.1,0-.3,0-.4,0-.3,0-.6-.1-.8-.3-.2-.2-.3-.5-.3-.8s.1-.7.4-.9c.2-.2.5-.3.9-.3s.8.2,1,.5c.2.3.3.8.3,1.3,0,.9-.2,1.6-.8,2.2-.5.6-1.2,1.1-2,1.4Z"/>
  <path class="st0" d="M103.9,12.5c.5-.2,1.2-.5,1.9-.8.7-.3,1.5-.6,2.3-1,.8-.4,1.6-.7,2.4-1l.3,1.2c-.7.3-1.5.7-2.3,1-.8.3-1.5.7-2.2,1-.7.3-1.4.6-1.9.9l-.4-1.2h0ZM105.9,1.6h1.2s.3,10.5.3,10.5h-1.2c0,0-.3-10.5-.3-10.5ZM115.7,1.6h1.3c-.2,2-.5,3.6-.9,5.1-.4,1.5-.9,2.7-1.5,3.9-.6,1.1-1.4,2.1-2.4,2.9-1,.8-2.1,1.5-3.5,2.1,0,0-.1-.2-.3-.3-.1-.1-.2-.3-.4-.4-.1-.1-.2-.2-.3-.3,1.4-.5,2.5-1.1,3.5-1.9.9-.8,1.7-1.7,2.3-2.7.6-1.1,1.1-2.3,1.4-3.6.3-1.4.6-2.9.8-4.7ZM109.2,3.3l1.1-.5c.3.4.7.8,1,1.3.3.5.6.9.9,1.4.3.4.5.8.6,1.2l-1.2.6c-.1-.4-.3-.8-.6-1.2-.3-.5-.5-.9-.9-1.4-.3-.5-.7-.9-1-1.3h0ZM113.5,10.4l.9-.8c.4.4.8.8,1.2,1.2s.8.9,1.2,1.3c.4.4.8.9,1.1,1.3.3.4.6.8.9,1.1l-1,.9c-.2-.3-.5-.7-.8-1.1s-.7-.8-1.1-1.3c-.4-.5-.8-.9-1.2-1.4-.4-.4-.8-.9-1.2-1.3h0Z"/>
  <path class="st0" d="M122.2,1.9h10.5v13.4h-1.3V3.1h-8v12.3h-1.2V1.9h0ZM123,13.1h9v1.2h-9v-1.2ZM123,7.4h8.9v1.2h-8.9v-1.2Z"/>
  <path class="st0" d="M139.9,11l1.2.4c-.3.4-.7.8-1.1,1.3-.4.4-.8.8-1.2,1.2-.4.4-.9.7-1.3,1,0,0-.2-.2-.3-.3-.1-.1-.3-.2-.4-.3-.1-.1-.2-.2-.3-.2.6-.4,1.3-.8,1.9-1.4s1.1-1.1,1.5-1.7h0ZM146.8.8l.9,1c-.7.3-1.4.6-2.3.9s-1.7.5-2.6.8-1.9.4-2.8.6c-1,.2-1.9.4-2.8.5,0-.2,0-.3-.1-.5,0-.2-.1-.4-.2-.5.9-.2,1.8-.3,2.8-.5.9-.2,1.9-.4,2.7-.7s1.7-.5,2.5-.7c.8-.3,1.5-.5,2-.8ZM137.4,10.8c0,0,0-.2,0-.3,0-.1,0-.3-.1-.4,0-.2,0-.3-.1-.4.3,0,.6-.1.9-.2s.8-.3,1.3-.5c.3-.1.7-.3,1.2-.6s1.1-.6,1.8-1,1.4-.8,2.1-1.2c.7-.5,1.4-.9,2.1-1.4l.9.8c-1.5,1-3,1.9-4.5,2.7-1.5.8-3.1,1.5-4.5,2.1h0c-.2,0-.3.1-.4.2-.1,0-.2.1-.3.2,0,0-.1.1-.1.2h0ZM137.4,10.8v-.9s.8-.4.8-.4l10.4-.7c0,.2,0,.3,0,.5s0,.4,0,.5c-1.6.1-3,.2-4.1.3s-2.1.2-2.9.2c-.8,0-1.4.1-1.9.2-.5,0-.9,0-1.2.1-.3,0-.5,0-.6,0-.2,0-.3,0-.4.1h0ZM138.3,7.4c0,0,0-.2,0-.3,0-.1,0-.3-.1-.4s0-.3-.1-.4c.2,0,.4,0,.6-.2.2,0,.4-.2.7-.3.2,0,.5-.3.9-.5s.9-.5,1.4-.9,1-.7,1.4-1.1l1.1.7c-.8.6-1.6,1.2-2.4,1.7-.8.5-1.7.9-2.5,1.3h0c-.2,0-.3.2-.4.2-.1,0-.2.1-.3.2,0,0-.1.1-.1.2h0ZM138.3,7.4v-.9l.7-.4,6-.3c0,.1,0,.3,0,.5s0,.3,0,.5c-1.1,0-2,.1-2.8.2-.7,0-1.3,0-1.8.1-.5,0-.8,0-1.1.1-.3,0-.4,0-.6,0s-.2,0-.3,0h0ZM142.9,9.5h1.2v4.5c0,.3,0,.6-.1.8,0,.2-.3.3-.5.4-.3.1-.6.1-1,.2-.4,0-.9,0-1.5,0,0-.2,0-.4-.2-.6,0-.2-.2-.4-.3-.6.3,0,.6,0,.9,0h.7c.2,0,.3,0,.4,0,.1,0,.2,0,.3,0,0,0,0,0,0-.2v-4.5h0ZM145.6,11.5l.9-.6c.4.3.9.7,1.3,1,.5.4.9.8,1.3,1.1.4.4.8.7,1,1l-1,.7c-.3-.3-.6-.6-1-1-.4-.4-.8-.8-1.3-1.2-.5-.4-.9-.8-1.3-1.1ZM146,7.2l1-.5c.4.4.8.8,1.2,1.2s.8.9,1.2,1.3.6.8.9,1.1l-1,.6c-.2-.3-.5-.7-.9-1.1-.4-.4-.8-.9-1.2-1.3-.4-.4-.8-.9-1.2-1.2h0Z"/>
  <path class="st0" d="M156.5,7.8h1.3c0,.9-.2,1.7-.3,2.5-.2.8-.4,1.5-.8,2.2-.4.6-.9,1.2-1.5,1.7-.7.5-1.5.9-2.5,1.3,0-.1-.1-.2-.2-.3s-.2-.2-.3-.4c0-.1-.2-.2-.3-.3,1-.3,1.7-.6,2.3-1.1.6-.4,1-.9,1.3-1.5.3-.6.5-1.2.7-1.9.1-.7.2-1.4.3-2.2h0ZM152.2,6.9h14.3v1.1h-14.3v-1.1ZM153.6,2l1.1-.4c.3.4.5.8.8,1.3s.5.9.7,1.4c.2.5.4.9.5,1.2l-1.2.5c0-.4-.2-.8-.4-1.2-.2-.5-.4-.9-.7-1.4s-.5-.9-.8-1.3h0ZM158.7.8h1.2v6.6h-1.2V.8ZM160.8,7.7h1.2v6c0,.3,0,.4.1.5s.3.1.6.1h2.1c.2,0,.4,0,.5-.2s.2-.4.2-.8c0-.4,0-1,.1-1.7,0,0,.2.1.3.2.1,0,.3.1.4.2.1,0,.3.1.4.1,0,.9-.1,1.5-.2,2-.1.5-.3.8-.5,1-.2.2-.6.3-1.1.3h-2.3c-.5,0-.8,0-1.1-.2-.3,0-.4-.3-.6-.5,0-.3-.1-.6-.1-1.1v-6h0ZM164.1,1.4l1.2.5c-.2.5-.5.9-.7,1.4-.3.5-.5,1-.8,1.4-.3.5-.5.9-.7,1.2l-1-.4c.2-.4.5-.8.7-1.3s.5-1,.7-1.5c.2-.5.4-1,.6-1.4h0Z"/>
  <path class="st0" d="M169.8,11.9l1,.3c-.2.5-.5.9-.8,1.4-.3.5-.6.9-1,1.2,0,0-.2-.1-.2-.2-.1,0-.2-.2-.3-.2,0,0-.2-.1-.3-.2.3-.3.6-.7.9-1.1.3-.4.5-.8.7-1.2ZM168.3,6.7h8.5v1h-8.5v-1ZM169.1,1.3h7.2v4.4h-7.2V1.3ZM169.2,8.5h6.9v3.1h-6.9v-3.1ZM170.2,2.1v1h4.9v-1h-4.9ZM170.2,3.9v1h4.9v-1h-4.9ZM170.3,9.4v1.3h4.6v-1.3h-4.6ZM172,11.1h1.2v3.1c0,.3,0,.5-.1.6,0,.2-.2.3-.4.4-.2,0-.4.1-.8.1-.3,0-.7,0-1.1,0,0-.2,0-.3-.1-.5,0-.2-.2-.3-.2-.5.3,0,.6,0,.9,0s.4,0,.5,0c0,0,.2,0,.2,0,0,0,0,0,0-.1v-3.1h0ZM171.7,6l1.1-.3c.1.2.2.4.4.7.1.2.2.5.3.7l-1.2.3c0-.2-.1-.4-.3-.7-.1-.3-.2-.5-.4-.7ZM174,12.3l.9-.4c.3.4.6.8.9,1.2.3.4.5.8.6,1.1l-.9.5c-.1-.3-.3-.7-.6-1.2s-.6-.9-.8-1.2ZM181.6,10l1.1.4c-.4.7-.9,1.3-1.5,1.9s-1.2,1.2-1.9,1.7c-.7.5-1.4.9-2.1,1.3-.1-.1-.2-.3-.4-.5s-.3-.3-.4-.4c.7-.3,1.4-.7,2.1-1.2s1.3-1,1.8-1.5c.6-.6,1-1.1,1.4-1.8ZM180.8,1.1l1.1.5c-.4.5-.8,1-1.2,1.4-.5.5-1,.9-1.5,1.3-.5.4-1,.8-1.5,1.1-.1-.1-.2-.3-.4-.4-.2-.2-.3-.3-.5-.4.5-.3.9-.6,1.4-1,.5-.4,1-.8,1.4-1.2.4-.4.8-.9,1.1-1.3h0ZM181.3,5.4l1.1.5c-.4.5-.8,1-1.4,1.5-.5.5-1.1.9-1.7,1.4s-1.2.8-1.7,1.1c-.1-.1-.2-.3-.4-.4s-.3-.3-.5-.4c.5-.3,1.1-.6,1.6-1,.6-.4,1.1-.8,1.6-1.3.5-.4.9-.9,1.2-1.4h0Z"/>
  <path class="st0" d="M191.5.7l1.2.3c-.3,1.1-.8,2.2-1.3,3.3-.5,1.1-1.1,2.1-1.8,3.1-.7,1-1.4,1.9-2.3,2.7-.9.8-1.8,1.5-2.9,2.2,0-.1-.1-.2-.2-.3,0-.1-.2-.2-.2-.4,0-.1-.2-.2-.2-.3,1-.6,1.9-1.2,2.7-2,.8-.8,1.5-1.6,2.2-2.5.6-.9,1.2-1.9,1.6-2.9.5-1,.8-2,1.1-3.1ZM184.7,3.5h10.4v1.1h-10.4v-1.1ZM186.8,11.2l1,.3c-.1.4-.3.9-.4,1.4-.2.5-.4.9-.6,1.3-.2.4-.5.8-.8,1.1l-.9-.6c.3-.3.6-.6.8-1,.2-.4.4-.8.6-1.2.2-.4.3-.9.4-1.3ZM186.6,1.2l1.1-.4c.3.3.6.7.9,1.1.3.4.5.8.7,1.1l-1.1.5c-.1-.3-.4-.7-.7-1.1-.3-.4-.6-.8-.9-1.1h0ZM186.7,9.3h10.9v1.1h-10.9v-1.1ZM188.8,11.6h1c.2.4.3.9.4,1.5,0,.6.1,1.1.1,1.5l-1.1.2c0-.3,0-.6,0-1,0-.4,0-.8-.1-1.1s-.1-.8-.2-1.1ZM189.2,6.4h7.3v1.1h-7.3v-1.1ZM191.2,11.4l.9-.2c.2.4.4.9.6,1.4s.3,1,.4,1.3l-1,.3c0-.4-.2-.8-.3-1.4-.2-.5-.4-1-.5-1.5h0ZM193.6,11.2l.8-.3c.3.3.5.7.7,1.1.2.4.4.8.5,1l-.9.4c0-.3-.3-.7-.5-1.1s-.4-.8-.7-1.1h0ZM197.1,9.3h1.2c0,.1,0,.2,0,.3s0,.1,0,.2c-.1,1.1-.2,2-.3,2.7-.1.7-.2,1.3-.4,1.6-.1.4-.3.7-.4.8-.1.2-.3.3-.5.3-.2,0-.4.1-.6.1-.2,0-.5,0-.9,0-.4,0-.8,0-1.2,0,0-.2,0-.3,0-.6s-.1-.4-.2-.6c.4,0,.8,0,1.1,0,.3,0,.6,0,.8,0,.1,0,.3,0,.4,0,0,0,.2,0,.2-.1.1-.1.2-.3.4-.7.1-.4.2-.9.3-1.5,0-.7.2-1.5.3-2.6v-.2ZM194.9,3.5h1.1c-.1.6-.2,1.1-.4,1.7-.1.6-.3,1.1-.4,1.6l-1.1-.2c.1-.4.2-.9.4-1.5.1-.6.2-1.1.3-1.6ZM196.1,6.4h1.1c-.1.5-.2,1.1-.3,1.7-.1.6-.2,1.1-.4,1.5h-1.1c.1-.5.3-1.1.4-1.7.1-.6.2-1.1.3-1.6h0Z"/>
  <path class="st0" d="M202.5.6l1.1.3c-.3.7-.7,1.3-1.2,1.9-.5.6-1,1.1-1.5,1.6,0,0-.1-.2-.2-.3,0-.1-.2-.2-.3-.3-.1-.1-.2-.2-.3-.2.5-.4.9-.8,1.4-1.3.4-.5.8-1.1,1.1-1.7ZM200.1,7.1h14.4v.9h-14.4v-.9ZM200.4,12.8h13.9v.9h-13.9v-.9ZM201.4,10.9h11.8v.9h-11.8v-.9ZM202.1,5.2h10.8v4.7h-10.9v-.9h9.7v-2.9h-9.6v-.9ZM202.2,1.7h5.1v1h-5.1v-1ZM203.3,3.2l.8-.6c.2.2.5.5.8.8.3.3.5.5.6.7l-.8.7c-.1-.2-.3-.5-.6-.8-.3-.3-.5-.6-.8-.8h0ZM206.7,4.3h1.2v11.1h-1.2V4.3ZM208.9.7l1.1.3c-.3.6-.6,1.2-1,1.8s-.9,1-1.3,1.4c0,0-.1-.1-.3-.2s-.2-.2-.3-.3c-.1,0-.2-.2-.3-.2.5-.3.9-.8,1.3-1.2s.7-1,.9-1.5h0ZM208.7,1.7h6v1h-6v-1ZM210.3,3.2l.8-.6c.2.2.5.5.8.7s.5.5.7.7l-.9.6c-.1-.2-.3-.5-.6-.8-.3-.3-.5-.6-.8-.8Z"/>
  <path class="st0" d="M218,11.2l-.3-.8c.6-.3,1.1-.6,1.5-1,.3-.4.5-.9.5-1.5l-.3-1.3.9,1.2c-.1.1-.2.2-.4.3-.2,0-.3,0-.5,0-.3,0-.6-.1-.8-.3s-.4-.5-.4-.8.1-.7.4-.9c.2-.2.5-.3.9-.3s.8.2,1,.5c.2.3.3.8.3,1.3,0,.9-.2,1.6-.8,2.2-.5.6-1.2,1.1-2,1.4Z"/>
  <path class="st0" d="M228,.8l1.2.4c-.4.9-.8,1.8-1.2,2.7-.4.9-.9,1.7-1.4,2.5-.5.8-1,1.5-1.5,2.1,0,0-.2-.1-.3-.2-.1,0-.3-.2-.4-.3-.1-.1-.3-.2-.4-.2.5-.6,1-1.2,1.5-2s.9-1.5,1.4-2.4c.4-.8.8-1.7,1.1-2.6ZM226,12.5c0-.1,0-.2,0-.4,0-.1-.1-.3-.2-.5s-.1-.3-.2-.4c.2,0,.3-.1.5-.3.2-.2.4-.4.6-.7.1-.1.3-.4.5-.7.2-.3.5-.7.7-1.2.3-.5.5-.9.8-1.5s.5-1,.7-1.6l1.3.5c-.4.7-.8,1.5-1.2,2.2s-.9,1.4-1.3,2.1c-.4.7-.9,1.2-1.3,1.8h0c-.2.1-.3.2-.4.3s-.2.1-.3.2c0,0-.1.1-.1.2h0ZM226,12.5v-1s.8-.4.8-.4l7.1-.7c0,.2,0,.4,0,.6s0,.4,0,.5c-1.3.1-2.4.3-3.3.4-.9.1-1.6.2-2.2.2-.6,0-1,.1-1.3.2-.3,0-.5,0-.7.1-.2,0-.3,0-.4.1h0ZM227.5,3.2h9.9v1.2h-9.9v-1.2ZM231.4,7.9l1-.5c.3.5.7,1,1,1.6s.7,1.1,1,1.7c.3.5.6,1,.8,1.4l-1,.6c-.2-.4-.4-.9-.7-1.5-.3-.6-.6-1.1-1-1.7-.3-.6-.7-1.1-1-1.7h0ZM236.9,3.2h1.3v.4c0,0,0,.2,0,.2,0,1.8-.1,3.4-.2,4.7,0,1.3-.2,2.3-.2,3.1,0,.8-.2,1.5-.3,1.9-.1.5-.3.8-.5,1-.2.3-.4.4-.7.5-.2.1-.5.2-.9.2-.3,0-.8,0-1.4,0-.6,0-1.1,0-1.7,0,0-.1,0-.2,0-.4,0-.2,0-.3-.2-.5,0-.2-.1-.3-.2-.4.7,0,1.3.1,1.9.1.6,0,1,0,1.3,0s.3,0,.5,0c.1,0,.2,0,.3-.2.2-.2.3-.5.4-.9.1-.5.2-1.1.3-1.9s.2-1.9.2-3.1c0-1.3.1-2.8.2-4.5v-.2h0Z"/>
  <path class="st0" d="M240,11.6h7.9v1h-7.9v-1ZM240.1,2.3h7.7v1h-7.7v-1ZM240.6,6.6h6.9v3.7h-6.9v-3.7ZM241.7,7.6v1.8h4.8v-1.8h-4.8ZM241.8.8h1v3.8h2.4V.8h1.1v4.8h-4.5V.8h0ZM243.5,5h1.1v2h-1.1v-2ZM243.5,6.9h1.1v3.2h0v5.3h-1.1v-5.3h0v-3.2ZM249.8.8h1.1c0,1.2,0,2.5,0,3.6,0,1.2-.1,2.3-.2,3.4-.1,1.1-.3,2.1-.6,3-.3.9-.6,1.8-1.1,2.6-.5.8-1,1.5-1.8,2,0-.1-.1-.2-.2-.3-.1,0-.2-.2-.3-.3-.1-.1-.2-.2-.3-.2.7-.5,1.3-1.2,1.7-1.9.4-.7.8-1.5,1-2.4.2-.9.4-1.8.5-2.9,0-1,.1-2.1.2-3.2,0-1.1,0-2.3,0-3.4h0ZM247.5,4.5h6.1v1.1h-6.1v-1.1ZM253.1,4.5h1.1v.6c0,1.7,0,3.1-.1,4.3,0,1.2,0,2.1-.1,2.9,0,.7-.1,1.3-.2,1.7,0,.4-.2.7-.3.9-.1.2-.3.4-.5.4-.2,0-.4.1-.6.2-.2,0-.5,0-.9,0s-.8,0-1.1,0c0-.2,0-.4-.1-.6,0-.2-.1-.4-.2-.6.4,0,.8,0,1.1,0h.8c.1,0,.2,0,.3,0s.2-.1.2-.2c.1-.1.2-.4.3-.7,0-.4.1-.9.2-1.7,0-.7.1-1.6.1-2.8,0-1.1,0-2.5.1-4.1v-.3h0Z"/>
  <path class="st0" d="M256.3,6.7c0,0,0-.2,0-.3,0-.1,0-.3-.1-.4,0-.1,0-.3-.1-.3.1,0,.3-.1.4-.3.1-.2.3-.4.5-.6.1-.1.2-.3.4-.6.2-.3.4-.6.6-1,.2-.4.4-.8.7-1.2.2-.4.4-.9.6-1.3l1.1.5c-.4.9-.9,1.8-1.4,2.7-.5.9-1.1,1.6-1.6,2.3h0c-.1.1-.3.2-.4.2s-.2.1-.3.2c0,0-.1.1-.1.2h0ZM256.7,11l1.1.2c0,.7-.2,1.4-.4,2.1s-.3,1.3-.5,1.8c0,0-.2-.1-.3-.1-.1,0-.2,0-.4-.1s-.2,0-.3,0c.2-.5.4-1.1.5-1.7s.2-1.3.3-2ZM256.4,10.4c0,0,0-.2-.1-.3,0-.1,0-.3-.1-.4,0-.1-.1-.3-.1-.4.2,0,.4-.2.5-.3.2-.2.4-.4.7-.7.1-.1.3-.4.6-.7s.5-.7.9-1.2c.3-.5.6-.9,1-1.5.3-.5.6-1,.9-1.6l1,.6c-.4.7-.9,1.4-1.3,2.1-.5.7-1,1.4-1.5,2-.5.6-1,1.2-1.5,1.7h0c-.2,0-.3.2-.4.2-.1,0-.2.1-.3.2,0,0-.1.1-.1.2h0ZM256.3,6.7v-.9s.6-.3.6-.3l2.8-.2c0,.2,0,.3,0,.5,0,.2,0,.3,0,.5-.6,0-1.2.1-1.6.2-.4,0-.7,0-.9.1s-.4,0-.5,0c-.1,0-.2,0-.3,0h0ZM256.4,10.4v-.9c0,0,.5-.4.5-.4l4.3-.6c0,.1,0,.3,0,.5,0,.2,0,.3,0,.4-1,.2-1.8.3-2.3.4-.6,0-1,.2-1.4.2-.3,0-.5.1-.7.2-.1,0-.2,0-.3.1h0ZM258.5,11.2l1-.2c.1.6.2,1.2.3,1.8s.2,1.2.2,1.7l-1,.2c0-.3,0-.7,0-1.1,0-.4,0-.8-.1-1.3,0-.4-.1-.8-.2-1.2h0ZM260,7.1l.9-.3c.2.3.3.7.5,1.1.1.4.3.8.4,1.2.1.4.2.7.3,1l-1,.4c0-.3-.1-.6-.3-1-.1-.4-.2-.8-.4-1.2-.1-.4-.3-.8-.4-1.2h0ZM260.2,10.8l.9-.3c.2.5.4,1,.5,1.5.2.6.3,1,.4,1.4l-1,.3c0-.4-.2-.9-.3-1.5-.2-.6-.3-1.1-.5-1.6h0ZM262.4,2.9h8.3v1.1h-8.3v-1.1ZM262.7,5.5h1.1v4.3h5.9v1.1h-6.9v-5.4h0ZM265.7.8h1.1v12.4c0,.2,0,.4,0,.6,0,.2.1.3.2.3.2,0,.3.1.5.1h1c.1,0,.3,0,.4,0,.1,0,.2,0,.3,0,0,0,.1,0,.2-.1,0,0,.1-.1.1-.2,0-.1,0-.3,0-.5,0-.2,0-.5,0-.9.1.1.3.2.5.3.2,0,.4.2.5.2,0,.3,0,.6,0,.9,0,.3-.1.6-.2.7-.1.3-.3.5-.6.6-.1,0-.3,0-.5.1-.2,0-.4,0-.6,0h-1.3c-.2,0-.4,0-.6,0s-.4-.1-.6-.2c-.1,0-.2-.2-.3-.3,0-.1-.1-.3-.2-.5,0-.2,0-.6,0-1.1V.8h0ZM268.9,5.5h1.1v6.3h-1.1v-6.3Z"/>
  <path class="st0" d="M271.9,6.2l.6-.9c.3.1.7.3,1,.5.4.2.7.4,1,.6.3.2.6.4.8.6l-.6,1c-.2-.2-.5-.4-.8-.6-.3-.2-.7-.4-1-.6-.4-.2-.7-.4-1-.5h0ZM272.2,14.5c.3-.4.6-.9.9-1.4.3-.6.7-1.1,1-1.8.3-.6.6-1.2.9-1.8l.8.8c-.3.5-.5,1.1-.8,1.7-.3.6-.6,1.2-.9,1.7-.3.6-.6,1.1-.9,1.6l-.9-.8h0ZM272.7,1.8l.6-.9c.3.1.7.3,1,.5.4.2.7.4,1,.6s.6.4.8.6l-.6,1c-.2-.2-.5-.4-.8-.7-.3-.2-.6-.5-1-.7s-.7-.4-1-.6ZM275.9,8.2h10.8v1.1h-10.8v-1.1ZM284.6.8l.8.9c-.6.2-1.2.3-1.9.4-.7.1-1.4.3-2.2.4-.8.1-1.6.2-2.4.3-.8,0-1.6.2-2.3.2,0-.1,0-.3-.1-.5s-.1-.3-.2-.5c.7,0,1.5-.1,2.3-.2.8,0,1.5-.2,2.3-.3.7-.1,1.4-.2,2.1-.3.6-.1,1.2-.2,1.7-.4h0ZM276.9,5.8h8.5v5.9h-8.6v-1h7.5v-3.9h-7.4v-1h0ZM277,3.6l.8-.4c.2.3.4.6.6,1,.2.4.3.7.4,1l-.9.4c0-.3-.2-.6-.3-1-.2-.4-.3-.7-.5-1h0ZM280.5,6.3h1.1v7.6c0,.4,0,.6-.1.8,0,.2-.3.3-.5.4-.2,0-.5.1-1,.2-.4,0-.9,0-1.5,0,0-.2,0-.4-.2-.6,0-.2-.1-.4-.2-.6.5,0,.9,0,1.3,0h.8c.1,0,.2,0,.3,0,0,0,0-.1,0-.2v-7.6h0ZM280.1,3.2l.9-.3c.2.3.4.7.5,1.1.1.4.3.8.3,1.1l-.9.3c0-.3-.2-.7-.3-1.1-.1-.4-.3-.8-.5-1.1h0ZM284.4,2.6l1.1.3c-.2.5-.5.9-.7,1.3-.2.4-.5.8-.7,1.2l-1-.3c.1-.2.3-.5.5-.8.2-.3.3-.6.5-.9.1-.3.3-.6.4-.8h0Z"/>
  <path class="st0" d="M288.2,1.6h14.4v1.2h-14.4v-1.2ZM289,5.1h12v1.1h-10.8v9.2h-1.2V5.1h0ZM292.8,5.7h1.2v9.3h-1.2V5.7ZM294.6,2.2h1.5c-.2.7-.4,1.4-.5,2-.2.6-.4,1.2-.6,1.7l-1.2-.2c.1-.3.2-.7.3-1.1.1-.4.2-.8.3-1.3,0-.4.2-.8.2-1.2h0ZM296.6,5.7h1.2v9.3h-1.2V5.7ZM300.5,5.1h1.2v8.9c0,.3,0,.6-.1.8,0,.2-.2.3-.5.4-.3.1-.6.2-1,.2-.4,0-.9,0-1.5,0,0-.2,0-.4-.2-.6,0-.2-.2-.4-.2-.6.5,0,.9,0,1.2,0s.6,0,.7,0c.1,0,.2,0,.2,0s0-.1,0-.2V5.1h0Z"/>
  <path class="st0" d="M304,6.1l.7-.9c.3.1.7.3,1.1.5s.8.4,1.1.6c.4.2.6.4.9.5l-.7,1c-.2-.1-.5-.3-.9-.5-.4-.2-.7-.4-1.1-.6-.4-.2-.8-.4-1.1-.6h0ZM304.4,14.5c.3-.4.6-.9,1-1.5.4-.6.7-1.2,1.1-1.9s.7-1.3,1-1.9l.9.8c-.3.6-.6,1.2-.9,1.8-.3.6-.7,1.2-1,1.9-.4.6-.7,1.2-1,1.7l-1-.8h0ZM304.8,1.8l.7-.8c.3.2.7.4,1,.6.4.2.7.4,1,.6.3.2.6.4.8.6l-.8.9c-.2-.2-.5-.4-.8-.6-.3-.2-.7-.5-1-.7-.4-.2-.7-.4-1-.6h0ZM310.7,5.7h1.2v3.4c0,.5,0,1.1-.1,1.6s-.2,1.1-.5,1.7c-.2.6-.6,1.1-1,1.6-.4.5-1,1-1.7,1.4,0,0-.1-.2-.2-.3-.1-.1-.2-.2-.3-.3-.1-.1-.2-.2-.3-.2.6-.4,1.1-.8,1.5-1.2.4-.4.6-.9.8-1.4.2-.5.3-1,.4-1.5,0-.5.1-1,.1-1.4v-3.4ZM308.9,1.8h9.5v3.2h-1.2v-2.1h-7.2v2.1h-1.1V1.8ZM311.4,5.7h4.3v1.1h-4.3v-1.1ZM315,5.7h1.2v7.8c0,.2,0,.4,0,.5,0,0,.1.1.3.1h.9c.1,0,.2,0,.3-.2,0-.1,0-.4.1-.8,0-.4,0-1,0-1.8,0,0,.2.1.3.2.1,0,.3.1.4.2.1,0,.3,0,.4.1,0,.9,0,1.6-.2,2.1s-.2.8-.4,1c-.2.2-.5.3-.8.3h-1.2c-.3,0-.6,0-.8-.1-.2-.1-.3-.3-.4-.5,0-.2-.1-.6-.1-1v-7.8h0Z"/>
  <path class="st0" d="M322.3,5.8l.7.3c-.2.8-.4,1.5-.7,2.4-.3.8-.6,1.6-.9,2.4-.3.7-.7,1.4-1,1.9,0-.2-.1-.4-.3-.6s-.2-.4-.3-.6c.3-.4.7-1,1-1.6.3-.7.6-1.3.9-2.1.3-.7.5-1.4.6-2.1h0ZM320.1,5.4h5v1.1h-5v-1.1ZM324.3.9l.6,1c-.4.2-.8.4-1.3.5-.5.2-1,.3-1.6.4-.5.1-1,.2-1.5.3,0-.1,0-.3-.1-.5,0-.2-.1-.3-.2-.5.5,0,1-.2,1.5-.3.5-.1,1-.3,1.5-.4.5-.2.9-.3,1.2-.5h0ZM322.3,2h1v13.5h-1V2ZM323.2,7.4c0,0,.2.2.4.4.2.2.4.4.6.7s.4.5.6.7c.2.2.3.4.4.5l-.6,1c0-.2-.2-.4-.4-.6-.1-.3-.3-.5-.5-.8-.2-.3-.3-.5-.5-.8-.2-.2-.3-.4-.4-.6l.5-.5h0ZM325.8,12.2l.9.4c-.1.4-.3.9-.5,1.4-.2.5-.5.9-.7,1.3l-.9-.4c.3-.3.5-.8.8-1.3s.4-1,.5-1.4ZM325.3,9h9.4v.7h-9.4v-.7ZM325.5,5.9h9.1v.8h-9.1v-.8ZM333.7.8l.7.8c-.7.2-1.6.3-2.5.5-1,.1-2,.2-3,.3-1.1,0-2.1.1-3,.2,0-.1,0-.3-.1-.4,0-.2-.1-.3-.2-.4.7,0,1.4,0,2.2-.1.8,0,1.5-.1,2.2-.2.7,0,1.4-.2,2.1-.3.6,0,1.2-.2,1.7-.3h0ZM325.8,7.4h8.1v4h-8.1v-.8h7.1v-2.4h-7v-.8ZM326,4.1h8v.8h-8v-.8ZM326.2,2.9l.9-.3c.1.2.3.4.4.6s.3.4.4.6l-.9.4c0-.2-.2-.4-.3-.6-.1-.2-.3-.5-.4-.7h0ZM327.1,12.1h1.1v2c0,.1,0,.2.1.3,0,0,.3,0,.6,0h2.1c.2,0,.4,0,.5-.2,0-.1.1-.4.1-.8.1,0,.3.1.5.2.2,0,.4.1.5.1,0,.6-.2,1-.4,1.2-.2.2-.5.3-1,.3h-2.4c-.5,0-.8,0-1-.1-.2,0-.4-.2-.5-.4-.1-.2-.1-.5-.1-.8v-2h0ZM328.5,11.8l.7-.5c.3.3.7.6,1.1.9.4.3.7.6.9.8l-.7.6c-.1-.2-.3-.3-.6-.6-.2-.2-.5-.4-.7-.7-.2-.2-.5-.4-.7-.6h0ZM328.9,2.6l.9-.3c.1.2.3.5.4.7.1.3.2.5.3.7l-.9.4c0-.2-.2-.5-.3-.7-.1-.3-.3-.5-.4-.8ZM329.3,4.5h1.1v1.8h-1.1v-1.8ZM332.7,2.1l.9.3c-.2.4-.4.8-.6,1.2-.2.4-.5.8-.7,1.1,0,0-.2-.1-.4-.2-.2,0-.3-.1-.5-.2.2-.3.5-.6.7-1,.2-.4.4-.7.6-1.1ZM332.2,12.5l.9-.4c.3.4.6.9.9,1.3.3.5.5.9.7,1.2l-1,.4c-.1-.2-.2-.5-.4-.8-.2-.3-.4-.6-.6-.9-.2-.3-.4-.6-.6-.9Z"/>
  <path class="st0" d="M336.8,3.3h1.1v11.7h-1.1V3.3ZM337.4,7.8h4.4v1.1h-4.4v-1.1ZM337.5,3.3h4.9v10.5h-4.9v-1.1h3.8V4.4h-3.8v-1.1ZM339.2.7l1.3.2c-.2.5-.3,1-.5,1.5s-.4,1-.5,1.3l-1-.2c.1-.3.2-.6.3-.9s.2-.7.3-1c0-.3.1-.7.2-.9h0ZM344.9.7l1.1.3c-.2.8-.4,1.6-.7,2.3-.3.8-.6,1.5-.9,2.2-.3.7-.7,1.3-1,1.8,0,0-.2-.1-.3-.2-.1,0-.2-.2-.4-.3-.1,0-.2-.2-.3-.2.4-.5.7-1,1-1.7.3-.6.6-1.3.8-2,.2-.7.5-1.4.6-2.2h0ZM344.2,7.4l.9-.5c.3.4.6.8.9,1.2.3.4.6.9.9,1.3.3.4.5.8.7,1.1l-1,.6c-.2-.3-.4-.7-.7-1.1-.3-.4-.6-.9-.9-1.3-.3-.5-.6-.9-.9-1.3ZM344.6,3.3h4.9v1.1h-4.9v-1.1ZM349.1,3.3h1.1v.4c0,0,0,.2,0,.2,0,1.8-.1,3.4-.2,4.7,0,1.3-.1,2.3-.2,3.1,0,.8-.2,1.4-.3,1.9-.1.4-.2.8-.4,1-.2.2-.4.4-.6.5-.2,0-.4.2-.7.2-.3,0-.6,0-1.1,0-.4,0-.9,0-1.3,0,0-.2,0-.4-.1-.6s-.2-.4-.3-.6c.5,0,1,0,1.5,0,.4,0,.7,0,.9,0s.3,0,.4,0,.2-.1.3-.2c.1-.1.2-.4.3-.9,0-.4.2-1,.3-1.8,0-.8.1-1.8.2-3.1,0-1.2.1-2.7.2-4.5v-.3h0Z"/>
  <path class="st0" d="M355.6,6.3h.4s.7.1.7.1c-.2,2.3-.7,4.2-1.4,5.6-.7,1.5-1.5,2.6-2.5,3.4,0,0-.1-.2-.2-.3-.1-.1-.2-.2-.3-.3s-.2-.2-.3-.2c1-.7,1.8-1.7,2.4-3.1s1-3,1.2-5v-.2h0ZM352.4,1.8h3.6v1.1h-3.6v-1.1ZM352.9,7.9c0,0,0-.2-.1-.3,0-.1-.1-.2-.2-.4s-.1-.2-.2-.3c.1,0,.3-.1.5-.3s.4-.4.5-.7c.1-.2.3-.5.5-.9s.5-.9.8-1.5c.3-.6.5-1.1.8-1.7h0c0,0,.5-.3.5-.3l.8.5c-.5,1-1,1.9-1.5,2.9-.5.9-1,1.7-1.5,2.3h0c-.2.1-.3.2-.4.2s-.2.1-.3.2c0,0-.1.1-.1.2h0ZM353.5,8.7c.3,1.1.8,2,1.3,2.7s1.1,1.2,1.8,1.6c.7.4,1.5.6,2.4.8s1.8.2,2.8.2h4.2c.3,0,.6,0,.8,0,0,0-.1.2-.2.3,0,.1-.1.3-.2.4,0,.1,0,.3-.1.4h-4.5c-1.2,0-2.2,0-3.2-.2s-1.8-.4-2.6-.9c-.8-.4-1.4-1-2-1.8s-1-1.8-1.4-3.1l.9-.3h0ZM353.5,6.3h2.5v1.1h-2.6v-1.1ZM356.6,4.3h9.8v.9h-9.8v-.9ZM356.8,10.9h9.6v1h-9.6v-1ZM357.4,8.7h8.3v.9h-8.3v-.9ZM357.7,2.1h7.7v5.3h-7.8v-1h6.8v-3.4h-6.6v-1ZM360.6.8h1.1v12.7h-1.1V.8Z"/>
  <path class="st0" d="M374.4,11l1,.4c-.4.4-.8.9-1.3,1.3-.5.4-1.1.8-1.7,1.1-.6.4-1.2.7-1.8.9-.6.3-1.2.5-1.8.7,0,0-.1-.2-.2-.3-.1-.1-.2-.2-.3-.4s-.2-.2-.3-.3c.6-.1,1.2-.3,1.8-.6s1.2-.5,1.8-.8c.6-.3,1.1-.6,1.6-1s.9-.7,1.3-1.1h0ZM370.5.6l1.1.3c-.3.7-.8,1.3-1.3,2-.5.6-1,1.2-1.6,1.6,0,0-.1-.2-.2-.3,0,0-.2-.2-.3-.3-.1,0-.2-.2-.3-.2.5-.4,1-.8,1.5-1.4.5-.5.8-1.1,1.1-1.7h0ZM368.1,8.8c.5,0,1.1-.1,1.8-.2s1.4-.2,2.1-.3c.7-.1,1.5-.2,2.2-.3v1c-1,.2-2.1.3-3.1.5-1.1.2-2,.3-2.8.4l-.2-1.1h0ZM368.3,10.7h14.2v1h-14.2v-1ZM368.6,5h5.5v1h-5.5v-1ZM370.2,1.7h5.1v1h-5.1v-1ZM370.9,5.3h1.1v3.5h-1.1v-3.5ZM371.2,3.2l.8-.6c.3.3.6.5.9.9.3.3.6.6.8.8l-.8.7c-.2-.2-.4-.5-.8-.9-.3-.3-.6-.6-.9-.9h0ZM374.5,7.3l.4-.8c.5.2,1.1.3,1.7.6.6.2,1.2.4,1.8.7.6.2,1,.4,1.4.6l-.4.9c-.4-.2-.8-.4-1.4-.6-.6-.2-1.2-.5-1.8-.7-.6-.2-1.2-.5-1.7-.6h0ZM376.9.7l1.1.3c-.3.7-.6,1.3-1.1,1.9-.4.6-.9,1.1-1.4,1.6,0,0-.1-.2-.3-.2-.1,0-.2-.2-.3-.3-.1,0-.2-.2-.3-.2.5-.4.9-.8,1.3-1.4.4-.5.7-1.1.9-1.7ZM374.7,4.9h5.5v.9h-5.5v-.9ZM374.8,9.7h1.2v5.8h-1.2v-5.8ZM376.1,10.9c.4.4.8.7,1.3,1.1.5.3,1.1.6,1.7.9.6.3,1.2.6,1.9.8.6.2,1.3.4,1.9.6-.1.1-.3.3-.4.5s-.3.4-.4.5c-.6-.2-1.2-.4-1.9-.7-.6-.3-1.3-.6-1.9-.9-.6-.3-1.2-.7-1.7-1.1-.5-.4-1-.8-1.4-1.2l.9-.4h0ZM376.6,5.3h1.1v4.4h-1.1v-4.4ZM376.6,1.7h6v1h-6v-1ZM378.2,3.2l.8-.6c.3.3.6.5.9.9.3.3.6.6.8.8l-.9.7c-.2-.2-.4-.5-.7-.8s-.6-.6-.9-.9ZM379.7,4.9h1.1c0,.5,0,.9,0,1.4s0,.8.2,1.2.2.6.3.8.2.3.4.3.2-.1.2-.3c0-.2,0-.6,0-1.1.1.1.2.2.4.3.1,0,.3.2.4.2,0,.8-.2,1.4-.4,1.7-.2.3-.4.5-.7.5-.4,0-.7-.1-.9-.4s-.4-.7-.6-1.2-.3-1-.3-1.6-.1-1.2-.1-1.8h0Z"/>
  <path class="st0" d="M384.1,3.5h5.9v1h-5.9v-1ZM384.7,5.6h4.7v1h-4.7v-1ZM384.7,7.7h4.7v.9h-4.7v-.9ZM384.7,9.8h1.1v5.4h-1.1v-5.4ZM385.2,9.8h4.3v4.7h-4.3v-1h3.2v-2.7h-3.2v-1h0ZM385.9,1.2l.9-.5c.2.3.5.7.7,1.1.2.4.4.7.5,1l-1,.6c-.1-.3-.3-.6-.5-1-.2-.4-.5-.8-.7-1.1ZM389.8,7.5h9v1h-9v-1ZM390.2,1.4h8.2v1h-8.2v-1ZM390.6,4.1h6.6v3.9h-1.1v-2.8h-5.5v-1ZM390.7,9.7h7.1v5.7h-1.2v-4.7h-4.8v4.7h-1.1v-5.8ZM391.3,13.7h5.9v1.1h-5.9v-1.1ZM393,1.8h1.2c-.1.8-.2,1.5-.4,2.2-.1.7-.3,1.5-.4,2.1-.1.7-.3,1.3-.4,1.8h-1.2c.1-.4.2-.8.3-1.3s.2-1,.3-1.6.2-1.1.3-1.7c0-.5.2-1.1.2-1.5Z"/>
  <path class="st0" d="M406.3,12.3l.8.4c-.4.3-.8.6-1.3.9s-1,.6-1.6.8c-.6.2-1.2.4-1.8.6-.6.2-1.2.3-1.8.4,0-.1-.2-.3-.3-.4-.1-.2-.2-.3-.4-.4.8-.1,1.6-.3,2.4-.5.8-.2,1.5-.5,2.2-.8.7-.3,1.3-.6,1.7-1h0ZM400.2,4.4h14.4v.9h-14.4v-.9ZM400.3,11.9h14.2v.9h-14.2v-.9ZM400.6,6h13.5v2.3h-1.1v-1.5h-11.4v1.5h-1.1v-2.3ZM402.5,7.6h9.6v3.7h-9.6v-3.7ZM403.8.8l1.2.2c-.1.5-.3,1-.5,1.5s-.3,1-.5,1.3h-1.2c.2-.4.4-.9.6-1.5.2-.6.4-1.1.5-1.6h0ZM403.6,3h7.3v.8h-7.3v-.8ZM403.6,8.3v.8h7.4v-.8h-7.4ZM403.6,9.7v.8h7.4v-.8h-7.4ZM403.9,1.5h7.1v.8h-7.1v-.8ZM406.7,7.8h1.2v7.7h-1.2v-7.7ZM408.4,12.3c.4.4,1,.7,1.6,1,.7.3,1.4.5,2.2.7.8.2,1.7.4,2.5.5-.1.1-.2.2-.4.4-.1.2-.2.3-.3.5-.8-.1-1.7-.3-2.5-.6-.8-.3-1.6-.6-2.3-.9-.7-.4-1.3-.8-1.7-1.3l.8-.3h0ZM410.6,1.5h.4c0,0,.9.1.9.1-.1.5-.3,1.1-.4,1.7-.2.6-.3,1.1-.5,1.6l-1.1-.2c.1-.3.2-.7.3-1.1.1-.4.2-.7.3-1.1.1-.4.2-.7.2-.9h0c0-.1,0-.1,0-.1Z"/>
  <path class="st0" d="M419.4,5.7c.5,0,.9.1,1.2.3.4.2.6.5.9.9s.3.8.3,1.2-.1.9-.3,1.2c-.2.4-.5.7-.9.9-.4.2-.8.3-1.2.3s-.9-.1-1.2-.3c-.4-.2-.7-.5-.9-.9s-.3-.8-.3-1.2.1-.9.3-1.2c.2-.4.5-.7.9-.9.4-.2.8-.3,1.2-.3h0ZM419.4,9.8c.5,0,.8-.2,1.1-.5.3-.3.5-.7.5-1.1s0-.6-.2-.8c-.1-.2-.3-.4-.6-.6-.2-.1-.5-.2-.8-.2s-.6,0-.8.2c-.2.1-.4.3-.6.6-.1.2-.2.5-.2.8s0,.6.2.8.3.4.6.6c.2.1.5.2.8.2h0Z"/>
</svg>