<svg width="35" height="196" viewBox="0 0 35 196" fill="none" xmlns="http://www.w3.org/2000/svg">
<path d="M2.10999 195.19H1.69V173.75H7.34998V174.09C4.31998 174.09 2.81 176.11 2.81 180.14V187.64H19.14V181.05C19.14 179.75 18.93 178.58 18.51 177.56C18.09 176.53 17.12 175.95 15.6 175.8V175.43H23.75V175.8C22.82 175.95 22.11 176.22 21.61 176.63C21.11 177.04 20.78 177.44 20.62 177.84C20.46 178.24 20.38 178.59 20.38 178.9C20.28 179.49 20.23 180.1 20.23 180.73V187.64H33C33.96 187.64 34.79 187.46 35.49 187.09C36.19 186.72 36.54 185.87 36.54 184.54V179.19C36.54 177.9 36.35 176.85 35.98 176.02C35.61 175.19 35.09 174.54 34.42 174.06C33.75 173.58 32.95 173.18 32 172.85V172.51L37.64 173.76V195.2H37.25V194.71C37.25 193.95 36.94 193.2 36.32 192.46C35.7 191.73 34.69 191.36 33.29 191.36H6.19C5.08 191.36 4.12 191.61 3.31 192.11C2.5 192.61 2.09003 193.47 2.09003 194.71V195.2L2.10999 195.19Z" fill="black"/>
<path d="M8.59998 151.17V151.56C6.85998 151.79 5.33002 152.55 4.02002 153.84C2.71002 155.13 2.06 156.84 2.06 158.95C2.06 160.33 2.38998 161.56 3.03998 162.64C3.68998 163.71 4.58001 164.54 5.70001 165.13C6.82001 165.72 8.11 166.01 9.56 166.01C10.68 166.01 11.68 165.84 12.55 165.49C13.42 165.14 14.19 164.62 14.86 163.94C15.53 163.26 16.15 162.45 16.73 161.52C17.31 160.59 18.04 159.34 18.92 157.76C20.37 155.12 21.81 153.07 23.25 151.61C24.69 150.15 26.66 149.41 29.17 149.41C30.7 149.41 32.18 149.81 33.6 150.59C35.02 151.38 36.19 152.57 37.1 154.17C38.01 155.77 38.47 157.74 38.47 160.1C38.47 161.58 38.31 162.89 37.99 164.03C37.67 165.17 37.23 166.32 36.66 167.5C36.5 167.99 36.42 168.32 36.42 168.5C36.42 168.84 36.54 169.07 36.79 169.17C37.04 169.27 37.56 169.42 38.38 169.6V170.02H29.37V169.6C32.01 169.01 34 167.88 35.35 166.18C36.7 164.49 37.38 162.43 37.38 160C37.38 158.18 37.04 156.72 36.35 155.62C35.66 154.52 34.84 153.76 33.86 153.34C32.88 152.92 31.91 152.71 30.93 152.71C28.91 152.71 27.26 153.33 25.99 154.55C24.71 155.78 23.41 157.65 22.07 160.15C21.13 161.88 20.39 163.15 19.87 163.98C19.35 164.81 18.67 165.65 17.84 166.51C17.01 167.37 16.03 168.04 14.9 168.55C13.77 169.05 12.47 169.31 11.01 169.31C9.32001 169.31 7.70002 168.86 6.15002 167.97C4.60002 167.08 3.35999 165.81 2.42999 164.16C1.48999 162.52 1.03003 160.65 1.03003 158.57C1.03003 156.99 1.30003 155.37 1.84003 153.71C1.97003 153.45 2.03998 153.1 2.03998 152.66C2.03998 152.12 1.67 151.76 0.940002 151.56V151.17H8.63H8.59998Z" fill="black"/>
<path d="M8.59998 127.71V128.1C6.85998 128.33 5.33002 129.09 4.02002 130.38C2.71002 131.67 2.06 133.38 2.06 135.49C2.06 136.87 2.38998 138.1 3.03998 139.18C3.68998 140.25 4.58001 141.08 5.70001 141.67C6.82001 142.26 8.11 142.55 9.56 142.55C10.68 142.55 11.68 142.38 12.55 142.03C13.42 141.68 14.19 141.16 14.86 140.48C15.53 139.8 16.15 138.99 16.73 138.06C17.31 137.13 18.04 135.88 18.92 134.3C20.37 131.66 21.81 129.61 23.25 128.15C24.69 126.69 26.66 125.95 29.17 125.95C30.7 125.95 32.18 126.35 33.6 127.13C35.02 127.92 36.19 129.11 37.1 130.71C38.01 132.31 38.47 134.28 38.47 136.64C38.47 138.12 38.31 139.43 37.99 140.57C37.67 141.71 37.23 142.86 36.66 144.04C36.5 144.53 36.42 144.86 36.42 145.04C36.42 145.38 36.54 145.61 36.79 145.71C37.04 145.81 37.56 145.96 38.38 146.14V146.56H29.37V146.14C32.01 145.55 34 144.42 35.35 142.72C36.7 141.03 37.38 138.97 37.38 136.54C37.38 134.72 37.04 133.26 36.35 132.16C35.66 131.06 34.84 130.3 33.86 129.88C32.88 129.46 31.91 129.25 30.93 129.25C28.91 129.25 27.26 129.87 25.99 131.09C24.71 132.32 23.41 134.19 22.07 136.69C21.13 138.42 20.39 139.69 19.87 140.52C19.35 141.35 18.67 142.19 17.84 143.05C17.01 143.91 16.03 144.58 14.9 145.09C13.77 145.59 12.47 145.85 11.01 145.85C9.32001 145.85 7.70002 145.4 6.15002 144.51C4.60002 143.62 3.35999 142.35 2.42999 140.7C1.48999 139.06 1.03003 137.19 1.03003 135.11C1.03003 133.53 1.30003 131.91 1.84003 130.25C1.97003 129.99 2.03998 129.64 2.03998 129.2C2.03998 128.66 1.67 128.3 0.940002 128.1V127.71H8.63H8.59998Z" fill="black"/>
<path d="M2.10999 122.78H1.69V101.34H7.34998V101.68C4.31998 101.68 2.81 103.7 2.81 107.73V115.23H19.14V108.64C19.14 107.34 18.93 106.17 18.51 105.15C18.09 104.12 17.12 103.54 15.6 103.39V103.02H23.75V103.39C22.82 103.54 22.11 103.81 21.61 104.22C21.11 104.63 20.78 105.03 20.62 105.43C20.46 105.83 20.38 106.18 20.38 106.49C20.28 107.08 20.23 107.69 20.23 108.32V115.23H33C33.96 115.23 34.79 115.05 35.49 114.68C36.19 114.31 36.54 113.46 36.54 112.13V106.78C36.54 105.49 36.35 104.44 35.98 103.61C35.61 102.78 35.09 102.13 34.42 101.65C33.75 101.17 32.95 100.77 32 100.44V100.1L37.64 101.35V122.79H37.25V122.3C37.25 121.54 36.94 120.79 36.32 120.05C35.7 119.32 34.69 118.95 33.29 118.95H6.19C5.08 118.95 4.12 119.2 3.31 119.7C2.5 120.2 2.09003 121.06 2.09003 122.3V122.79L2.10999 122.78Z" fill="black"/>
<path d="M1.69 60.01H2.10999C2.21999 60.92 2.40001 61.64 2.64001 62.17C2.88001 62.7 3.34003 63.11 4.03003 63.4C4.72003 63.69 5.72002 63.84 7.02002 63.84H38.56V64.08L7.75 91.69H29.87C31.71 91.69 33.08 91.62 33.97 91.47C34.87 91.32 35.51 91.11 35.9 90.84C36.75 90.24 37.2 89.19 37.27 87.69H37.66V96.7H37.27C37.22 95.69 37.01 94.91 36.62 94.34C36.24 93.78 35.54 93.38 34.52 93.14C33.5 92.9 31.97 92.79 29.92 92.79H6.46002L5.12 93.99C3.92 95.05 3.15003 95.89 2.84003 96.53C2.52003 97.16 2.28 97.95 2.12 98.9H1.70001V92.14L32.17 64.94H8.95001C7.21001 64.94 5.90998 65.01 5.03998 65.15C4.17998 65.29 3.49002 65.65 2.96002 66.25C2.44002 66.84 2.14999 67.78 2.10999 69.04H1.69V60.01Z" fill="black"/>
<path d="M9.75 24.1501V24.5701C7.99 24.8801 6.50003 25.7101 5.28003 27.0501C4.06003 28.3901 3.16999 29.9301 2.60999 31.6801C2.04999 33.4201 1.77002 35.0501 1.77002 36.5601C1.77002 38.6301 2.21002 40.5701 3.08002 42.3801C3.95002 44.1901 5.18002 45.7601 6.77002 47.0801C8.36002 48.4001 10.26 49.4201 12.48 50.1601C14.7 50.8901 17.12 51.2601 19.72 51.2601C22.32 51.2601 24.58 50.9101 26.74 50.2001C28.9 49.4901 30.77 48.4601 32.36 47.1001C33.95 45.7401 35.15 44.1701 35.96 42.3801C36.77 40.5901 37.18 38.6001 37.18 36.4201C37.18 34.6001 36.81 32.6001 36.07 30.4101C35.33 28.2301 34.1 26.2601 32.37 24.5001H33.76C35.44 26.6701 36.67 28.6501 37.45 30.4501C38.23 32.2501 38.62 34.4901 38.62 37.1801C38.62 40.0101 38.1 42.6001 37.07 44.9301C36.04 47.2701 34.64 49.2401 32.88 50.8501C31.12 52.4601 29.14 53.6801 26.95 54.5101C24.76 55.3401 22.49 55.7601 20.16 55.7601C16.66 55.7601 13.41 54.9001 10.41 53.1701C7.40997 51.4501 5.03003 49.1101 3.28003 46.1601C1.53003 43.2101 0.659973 40.0201 0.659973 36.5701C0.659973 34.4401 0.979985 32.1701 1.60999 29.7601L2.32001 27.2201C2.42001 26.7301 2.46997 26.3201 2.46997 25.9701C2.46997 25.3401 2.38 24.9101 2.19 24.7001C2 24.4901 1.66999 24.3301 1.17999 24.2101V23.8201L9.77002 24.1601L9.75 24.1501Z" fill="black"/>
<path d="M2.10999 20.68H1.69V-0.74999H7.34998V-0.40999C4.31998 -0.40999 2.81 1.61001 2.81 5.64001V13.14H19.14V6.55001C19.14 5.25001 18.93 4.08001 18.51 3.06001C18.09 2.03001 17.12 1.45001 15.6 1.30001V0.93001H23.75V1.30001C22.82 1.45001 22.11 1.72001 21.61 2.13001C21.11 2.54001 20.78 2.94001 20.62 3.34001C20.46 3.74001 20.38 4.09001 20.38 4.40001C20.28 4.99001 20.23 5.60001 20.23 6.23001V13.14H33C33.96 13.14 34.79 12.96 35.49 12.59C36.19 12.22 36.54 11.37 36.54 10.04V4.69001C36.54 3.40001 36.35 2.35001 35.98 1.52001C35.61 0.69001 35.09 0.0400097 34.42 -0.43999C33.75 -0.91999 32.95 -1.31999 32 -1.64999V-1.98999L37.64 -0.73999V20.7H37.25V20.21C37.25 19.45 36.94 18.7 36.32 17.96C35.7 17.23 34.69 16.86 33.29 16.86H6.19C5.08 16.86 4.12 17.11 3.31 17.61C2.5 18.11 2.09003 18.97 2.09003 20.21V20.7L2.10999 20.68Z" fill="black"/>
</svg>
