<svg width="437" height="243" viewBox="0 0 437 243" fill="none" xmlns="http://www.w3.org/2000/svg">
<path d="M281.21 61.3099C277.48 64.5999 273.81 67.95 270.02 71.16C267.31 73.45 265.59 75.4099 267.96 79.3299C273.15 87.9099 272.29 89.0099 262.15 89.7799C251.3 90.6099 241.18 94.1399 231.33 98.5299C225.62 101.08 221.79 98.92 222.06 93.46C230.88 96.52 237.95 90.9799 245.6 88.5399C246.59 88.2199 246.86 85.7099 247.92 83.1099C243.31 83.5799 239.76 83.6499 236.35 84.3599C233.06 85.0499 229.9 86.3999 227.48 87.1999C224.07 80.4199 220.76 73.84 217.53 67.41C225.23 65.65 230.71 70.2999 231.95 80.7499C235.28 81.1099 238.67 81.84 238.19 77.52C235.71 76.23 233.89 75.27 232.06 74.32C233.25 72.9 234.54 71.5499 235.59 70.0299C236.35 68.9299 236.79 67.6199 237.35 66.4399C233.47 65.6499 230.32 64.9999 227.16 64.3599C227.21 63.8799 227.25 63.39 227.3 62.91C228.26 62.74 229.22 62.4899 230.18 62.4299C234.59 62.1399 235.7 59.94 234.42 55.91C232.8 50.83 231.39 45.6799 229.96 40.5299C229.6 39.2399 229.55 37.87 229.2 35.46C235.94 41.46 241.2 46.7599 239.09 55.7199C238.89 56.5699 241.05 58.8599 242.21 58.9299C244.38 59.0699 246.62 58.0699 248.82 57.5499C248.03 46.4999 252.2 35.6499 245.68 25.8599C255.43 23.9899 261.53 32.1899 258.78 43.6199C257.84 47.5199 257.34 51.5299 256.52 56.1399C265.55 54.2399 273.75 49.2699 281.24 56.9299V61.2999L281.21 61.3099ZM262.43 68.2299C263.57 66.0599 264.88 63.5399 266.39 60.6499C255.57 59.6599 254.37 60.4099 255.42 66.2899C257.71 66.9299 259.87 67.5199 262.44 68.2299H262.43ZM247.51 62.32C245.11 62.89 242.88 63.41 240.1 64.07C240.71 66.17 241.26 68.1 241.81 69.99C246.12 69.13 249.55 68.08 247.51 62.32ZM260.46 82.8399C260.28 82.3099 260.1 81.7899 259.92 81.2599H252.78C252.57 82.9499 252.37 84.59 252.11 86.74C255.22 85.29 257.83 84.0599 260.45 82.8399H260.46Z" fill="black"/>
<path d="M165.34 70.9899C174.97 72.0199 183.35 68.4899 191.55 64.1099C196.46 61.4899 201.42 58.8799 206.59 56.8399C208.57 56.0599 211.42 56.3599 213.4 57.2299C214.2 57.5799 213.77 60.8099 213.74 62.7199C213.73 63.5399 212.87 64.5299 213.13 65.1399C214.78 68.9999 213.89 72.3199 211.71 75.7199C210.75 77.2199 210.73 79.3099 210.03 82.1899C212.41 80.5199 213.77 79.5599 215.13 78.5999C215.34 78.7899 215.55 78.9699 215.77 79.1599C214.79 80.9099 213.86 82.6999 212.81 84.4099C206.75 94.2999 210.33 105.09 209.79 115.51C209.47 121.82 208.86 128.11 208.39 134.41H203.98C201.08 126.34 198.18 118.27 195.28 110.2C195.81 109.98 196.34 109.76 196.87 109.54C198.53 111.86 200.18 114.18 201.84 116.51C202.26 116.38 202.67 116.26 203.09 116.13V98.5199C199.43 103.28 196.08 107.5 192.88 111.84C189.65 116.23 185.82 118.68 180.32 116.02C178.58 115.18 175.7 113.93 175.68 112.83C175.63 109.84 176.07 106.32 177.7 103.94C180.34 100.06 184.48 97.2099 187.27 93.4099C191.83 87.2099 195.83 80.5899 200.06 74.1499C183.04 81.8899 173.69 78.9599 165.36 73.1799V70.9899H165.34Z" fill="black"/>
<path d="M257.67 101.66C252.53 102.19 248.49 102.6 244.45 103.01C244.3 102.62 244.16 102.23 244.01 101.84C245.5 101.1 246.95 100.25 248.5 99.65C252.47 98.1 256.39 96.16 260.52 95.35C263.34 94.8 266.49 95.88 269.5 96.24C268.69 98.57 268.54 101.57 266.94 103.09C262.78 107.07 262.5 112.19 261.3 117.16C260.44 120.72 259.05 124.16 257.8 127.95C259.23 127.66 261.79 126.71 264.34 126.74C268.32 126.79 272.34 127.25 276.22 128.1C277.3 128.34 277.93 130.57 278.76 131.89C277.11 132.78 275.07 134.8 273.86 134.39C259.2 129.49 245.33 135.99 231.1 136.97C227.31 137.23 223.52 137.78 219.72 137.81C215.36 137.85 214.23 135.44 215.61 130.85C222.64 137.86 229.46 132.19 236.23 131.89C235.24 128.51 234.36 125.49 233.27 121.74C236.99 122.73 239.05 123.28 241.38 123.91C241.38 123.87 241.35 124.44 241.5 124.95C242.11 127.03 242.78 129.1 243.43 131.17C245.43 129.55 247.95 128.27 249.3 126.23C251.22 123.32 252.29 119.85 253.97 116.03C247.47 116.85 241.5 117.1 235.8 118.49C232.14 119.38 231.12 117.94 230.49 115.26C229.52 111.12 228.78 106.94 227.94 102.77C228.51 102.45 229.07 102.13 229.64 101.81C232.12 105.43 235.07 108.83 236.91 112.75C238.05 115.19 238.22 116.21 241.32 115.12C248.05 112.77 253.33 108.99 257.68 101.68L257.67 101.66Z" fill="black"/>
<path d="M193.78 33.9602C200.58 32.6702 206.18 34.8002 211 38.4102C212.28 39.3602 211.84 42.5702 212.19 44.7402C210.38 44.7402 208.04 45.4602 206.86 44.6102C202.3 41.3402 198.11 37.5602 193.79 33.9702L193.78 33.9602Z" fill="black"/>
<path d="M340.37 13.25C342.8 14.07 345.27 13.21 348.12 13.88C348.75 13.48 349.45 13.09 350.39 13.17C350.79 12.19 351.92 12.58 352.66 12.07C353.56 12.73 354.38 11.13 355.32 10.9L355.79 8.93999C355.71 7.83999 355.95 6.97999 355.87 6.11999C355.32 4.58999 354.07 3.37999 352.97 2.90999C351.72 3.80999 351.02 1.76999 349.92 2.43999C349.73 1.25999 348.4 1.49998 347.88 1.73998C347.1 1.53998 347.69 1.92999 347.41 2.36999C346.91 2.05999 347.26 1.77998 347.25 1.73998C345.65 1.85998 343.97 1.34999 342.55 1.89999C341.3 1.61999 340.25 2.08998 339.26 1.73998C338.09 1.96998 337.19 0.879986 336.13 1.49999C335.55 1.06999 335.28 0.399988 334.64 0.719988C334.22 0.719988 334.45 1.10998 334.72 1.34998C334.46 2.08998 335.32 2.36999 335.35 3.38999C335.75 3.81999 335.79 4.71999 336.52 5.49999C337.55 7.76999 334.3 8.03999 333.62 9.88999C332.61 9.99999 332.02 10.63 331.43 11.53L333.86 11.61C335.98 11.88 337.98 12.78 340.36 13.25H340.37Z" fill="black"/>
<path d="M313.98 83.4101C314.39 82.7201 313.84 81.8601 314.45 81.4501C314.86 80.0101 314.62 78.4501 315.39 77.4601C314.97 74.9301 316.58 73.0501 316.33 70.8801C316.31 69.9901 316.42 69.0901 316.25 68.6101C316.3 67.0201 315.56 66.1601 315.86 65.0101C315.17 64.1301 315.99 62.8301 315.16 62.4301C314.94 62.3701 314.78 62.4901 314.85 62.8201C314.24 62.3701 314.44 61.7001 314.62 61.4901C313.73 60.6901 314.75 59.8301 314.07 59.4501C312.79 58.7201 313.11 57.5901 312.43 56.9501C312.49 54.6601 310.25 53.2101 310.71 51.1601C311 50.0801 311.23 49.0301 312.35 48.8101C312.84 47.2301 314.71 46.9901 315.8 45.9901C317.11 44.3301 318.99 43.0801 321.05 42.6201C322.82 42.5301 323.84 41.1201 325.67 41.0601C326.35 40.5401 327.36 40.7301 328.25 40.5101C329.75 40.1001 331.51 39.6001 333.18 39.4101C334.05 39.2801 334.68 37.9101 335.76 38.5501C337.96 36.8501 340.86 36.8501 343.67 36.4401C345.59 35.4101 347.86 35.1801 349.93 34.2501C351.22 33.8801 352.24 32.6301 354 33.1501C354.82 31.8901 356.23 33.2601 357.13 31.9801L357.37 32.2101C358.9 31.9201 360.82 31.4101 362.62 31.1101C363.4 30.8601 364.65 30.5501 365.59 30.9501C368.17 29.5301 371.3 29.8801 373.89 28.2101C374.24 26.7901 374.9 25.0701 374.2 24.0601C373.18 22.8001 373.1 21.0001 371.85 20.6101C370.2 18.8401 368.13 18.1401 366.13 17.8701C365.15 17.5101 364.01 17.3901 363.23 17.9501C362.41 17.2801 361.82 17.9001 361.58 18.5801C360.37 17.8301 359.43 18.9701 358.37 19.2901C357.24 20.4201 355.47 20.0301 354.61 21.4001C353.16 21.8201 351.64 22.1401 350.54 23.0501C350.03 23.2001 348.98 23.5101 348.35 23.9901C346.83 24.5301 344.87 24.2601 343.96 25.7101L343.65 25.4001C342.76 25.7001 341.74 25.5901 341.14 26.3401C338.41 26.7601 336.14 28.1701 333.55 28.6901C332.78 29.2301 331.72 29.0701 330.89 29.7101C329.41 30.2901 326.95 29.7401 326.74 31.9001C326.56 31.6501 326.44 31.5801 326.58 31.5901C326.44 30.9101 326 31.1101 325.8 31.1201C323.81 31.4201 321.74 31.8901 319.85 32.5301C318.45 32.3201 317.44 33.5801 316.4 33.3901C315.67 33.8101 314.85 33.3801 314.29 33.7801C312.7 33.5701 311.45 33.9601 310.06 34.3301C309.53 33.8501 309.02 34.4701 308.81 34.0201C307.14 34.7101 305.11 33.1501 303.72 34.1801C303.62 34.9501 304.83 34.7901 304.82 35.9801C305.19 36.0801 305.31 37.1801 306.15 37.0801C306.29 37.3801 306.76 37.7301 306.85 38.4901C308.12 39.0301 308.83 40.2001 310.37 40.8401C311.29 41.7601 312.93 41.0201 314.05 42.4001C314.03 42.4201 314.14 42.7801 313.97 43.1101C312.54 44.8901 310.66 46.3001 308.96 47.9601C307.22 49.8201 306.08 51.6601 305.12 54.1501C305.06 54.2901 305.37 54.6401 305.12 55.0901C304.9 54.8001 304.75 54.6801 304.81 54.7001V55.1701C303.73 55.9701 304.36 57.0301 303.95 58.3801C303.85 59.4901 303.23 60.9801 303.56 62.6101C303.11 63.7201 302.44 65.4501 303.09 67.0001C302.13 69.5601 302.37 72.6901 302.31 75.6101C301.86 76.1701 302.29 77.0701 301.92 77.8801C301.98 79.1401 301.55 80.4001 301.45 81.7901C300.96 83.9901 301.2 86.2201 300.75 88.8401C301.01 90.3401 299.71 91.3901 299.97 93.0701C299.36 95.6201 298.31 98.1601 298.48 101.21L298.09 101.68C297.95 104.89 296.35 107.71 295.82 111.08C294.79 111.59 295.65 113 294.8 113.9C295.21 115.39 293.49 116.48 293.86 118.21C292.79 118.68 293.1 120.28 291.9 120.79C290.44 120.04 290.01 118.44 290.1 117.35C288.52 115.08 289.42 112.03 288.14 110.07L287.83 110.38C287.27 111.87 286.68 113.36 287.13 115.47C286.14 116.33 287.31 117.74 286.58 118.91C286.68 120 286.1 121.06 286.42 122.43C285.66 122.86 286.25 123.91 286.5 124.86C286.37 126.34 288.21 127.05 288.77 128.7C289.11 129.52 289.93 130.42 290.26 131.75C289.23 132.84 290.87 133.66 290.96 135.04C290.98 136.28 291.84 137.61 292.06 139.35C292.75 139.5 292.24 140.59 293.16 140.92C293.81 142.48 295.73 141.58 297.08 142.02C297.77 140.8 299.25 141.54 300.05 140.53C300.58 138.21 301.56 136.45 301.77 134.34C302.18 132.84 302.22 130.77 302.94 129.41C302.53 127.8 303.74 126.59 303.41 125.42C303.66 123.93 303.9 122.4 304.27 121.19C304.25 119.62 305.27 118.45 305.21 117.35C305.46 116.68 305.39 115.86 305.52 115.63C306.36 113.44 306.28 111.64 307.48 109.91C307.38 108.93 308.05 108.23 307.79 107.72C308.51 106.04 308.32 104.4 308.89 102.94C310.04 101.02 310.2 98.7201 310.85 96.9901C311.49 95.1901 311.14 93.4701 312.34 92.2101C312.94 90.3001 312.36 88.3001 313.51 86.8901C313.1 85.4501 314.31 84.5501 313.98 83.4401V83.4101Z" fill="black"/>
<path d="M381.16 91.16C381.54 86.9 379.16 82.87 375.91 81.14C375.24 80.72 374.61 80.49 374.27 80.43C369.57 79.58 364.68 79.78 360.25 80.59C359.43 81.07 358.45 81.03 357.74 81.53C357.31 80.99 356.84 81.31 356.8 81.84C355.86 81.07 354.92 82.16 354.29 81.53C354.25 79.62 355.74 78.29 355.78 76.6C355.78 74.97 353.71 74.46 354.37 72.92C353.67 72.23 352.77 72.07 352.57 71.43C351.99 70.11 350.93 69.37 350.53 68.53C351.32 66.67 353.23 65.85 353.98 64.15C355.39 63.58 355.27 61.94 355.86 61.02C355.86 60.06 354.92 60.18 355.08 59.61C353.67 58.69 353.91 57.01 352.57 56.63C351.71 56.65 352.03 55.48 351.4 55.93C350.86 55.01 349.99 55.32 349.6 54.68C347.49 53.72 345.65 52.63 343.65 52.33C342.83 52.19 342.76 50.79 342.08 51.7C340.76 50.47 339.46 51.92 338.32 51.62C336.25 51.76 334.3 52.31 332.6 53.11C331.04 53.6 329.56 53.64 328.29 54.44C328.26 54.46 328.38 54.62 328.29 54.99C328.1 54.7 327.87 54.62 328.05 54.6C327.79 54.46 327.59 54.35 327.58 54.68C327.2 54.93 326.73 54.74 326.48 55.07L326.95 55.46C328.76 55.91 330.64 56.5 332.35 58.04C333.18 58.1 333.81 58.96 334.86 59.14C335.77 59.78 337.33 59.71 338.07 61.33C338.27 61.78 337.49 62.33 337.6 63.21C335.1 66.95 331.07 68.82 327.58 71.43C327.4 71.8 327.36 72.34 327.03 72.92C327.24 74.23 325.59 75.59 326.95 76.99C327 77.51 327.16 77.94 327.5 78.79C327.86 80.72 330.72 82.68 329.22 85.06C327.43 85.7 326.49 87.57 324.83 88.58C324.72 88.98 324.18 89.33 323.97 89.99C321.99 91.01 319.09 92.23 319.59 95.24C318.59 96.5 319.84 97.83 319.75 99.55C320.66 101.04 321.21 102.92 321.94 104.95C322.38 105.97 323.79 105.77 325.07 105.97C325.51 106.48 326.34 105.82 326.87 105.66C328.09 105.9 328.49 104.53 329.61 104.17C330.21 103.82 330.25 102.76 331.18 102.92C332.91 100.61 335.96 99.95 337.76 97.59C338.86 97.01 339.88 95.33 341.36 95.79C342.11 95.09 343.67 95.21 343.87 93.99C344.93 93.76 344.97 92.39 346.22 92.42C348.22 92.74 349.2 90.51 351.15 90.38C351.47 89.92 352.17 90.58 352.56 89.99C354.13 89.18 355.77 89.61 357.57 89.44C358 88.82 358.94 88.9 359.92 88.97C361.17 88.12 360.82 90.27 362.11 89.99C362.27 90.39 363.05 90.82 362.97 91.79C361.36 93.52 359.21 94.54 357.65 96.33C356.4 97.24 354.64 97.2 353.97 98.83C353.11 97.58 352.13 99.03 351.46 98.52C350.92 99.03 350.21 98.29 349.74 98.83C348.14 98.25 346.65 97.86 345.28 97.66C343.92 98.37 342.74 98.02 341.76 99.46C341.02 98.88 340.83 99.93 340.27 100.09C339.85 100.41 339.14 101.07 339.56 101.73L339.33 101.97C339.02 101.86 338.95 101.62 338.94 101.73C338.32 102.79 337.77 104.47 338.78 105.72C338.44 106.54 339.22 106.86 339.8 107.76C340.12 107.84 340.43 108.31 341.13 108.39C342 108.7 342.62 109.17 343.95 109.02C344.31 109.22 345.01 109.1 345.28 110.04C345.6 109.81 346.03 110.39 346.45 110.04C346.38 110.35 346.81 110.47 347.23 111.06C347.35 111.37 347.63 111.57 347.62 112.39C348.17 112.55 347.78 113.49 348.56 114.11C348.6 117.28 348.09 120.8 347.93 124.45C348.29 125.89 346.96 127.15 347.54 128.99C346.68 130.51 347.31 132.9 346.44 134.63C346.41 135.6 345.98 136.78 345.58 138C344.45 138.66 344.25 140.34 343.78 141.84C342.3 143.47 341.2 145.86 339.16 147.17C338.11 148.29 336.82 149.23 335.48 150.22C334.59 150.83 333.26 150.83 332.58 151.86C330.16 153.53 327.19 153.73 324.67 154.99C320.81 156.31 316.78 156.58 312.77 157.5C313.49 158.31 315.06 158.19 316.37 158.83C317.25 158.74 317.95 159.68 319.11 159.54C319.98 160.31 321.55 159.6 322.63 161.03C322.88 160.82 323.23 160.86 323.57 160.8C325.54 161.1 327.53 160.86 329.76 161.74C332.16 161.45 334.86 161.8 337.43 161.11C338.26 161.09 339.55 161.56 340.56 160.95C340.8 159.6 342.45 160.11 342.91 159.54C344.4 159.05 345.34 157.65 347.06 157.35C348.08 156.71 348.67 155.3 349.88 155.24C350.16 154.64 351.02 154.17 351.13 153.67C352.07 153.19 351.68 151.82 352.77 151.95C353.36 151.39 353.36 150.25 354.34 150.39C354.73 148.93 355.36 147.6 356.38 146.87C357.99 145.76 357.05 143.49 358.49 142.49C357.94 141.62 359.04 141.46 359.2 141C358.97 139.93 359.79 139.47 360.06 138.81C360.18 137.9 360.49 137.04 360.37 136.54C361.15 135.44 360.41 133.83 361.31 133.1C361.11 131.6 360.96 130.08 361.47 129.11C361.04 126.83 361 124.64 360.92 122.69C361.35 119.44 360.14 117.05 360.29 114.23C359.66 113.45 359.74 112.62 359.74 112.04C358.92 110.79 358.57 109.61 358.17 108.67C358.17 107.65 359.19 107.85 359.58 107.26C360.87 106.83 362.2 105.93 363.65 106.24C364.35 105.42 365.06 104.75 366.16 104.52C368.04 103.97 369.41 102.45 370.78 101.23C371.68 100.8 373.16 100.57 373.76 99.59C374.85 99.13 375.71 97.68 377.28 98.42C378.49 97.29 380.29 96.82 380.65 95.13C380.17 93.53 381.47 92.4 381.12 91.21L381.16 91.16Z" fill="black"/>
<path d="M101.3 68.31C103.81 67.59 106.69 66.87 107.76 64C107.4 62.2 106.32 62.2 105.25 61.13C103.81 61.13 104.53 58.98 102.74 59.69C100.58 56.46 98.07 59.69 95.2 58.97C88.74 58.61 84.07 63.64 78.68 65.07L73.65 65.79C72.93 64.35 74.01 63.28 74.73 62.2C75.09 55.38 77.96 49.27 80.47 43.53C81.19 41.73 82.98 40.66 83.34 38.86C82.26 36.71 80.47 35.27 78.67 33.83C77.59 33.83 76.52 30.96 75.44 33.11C73.64 32.75 72.57 34.55 70.77 34.91C67.54 35.99 64.66 38.5 61.07 39.22C60.35 39.94 58.91 40.66 59.99 41.73C63.22 43.17 62.5 47.48 62.86 50.35C62.5 53.22 63.58 56.45 62.14 58.97C61.78 65.43 57.83 71.54 59.63 78C60.35 80.15 62.5 81.23 64.3 80.51C67.17 79.07 70.05 78.36 72.92 77.64C77.23 76.92 81.18 73.33 84.77 75.13C83.69 78.72 82.97 82.67 80.1 85.54C79.38 89.13 75.79 90.57 73.28 92.72C71.84 94.88 67.54 92.72 67.54 95.95C69.34 99.18 67.18 103.13 69.69 105.29C72.2 107.8 76.16 105.29 78.31 104.57C78.67 106.37 76.51 107.08 75.44 108.88C76.16 111.75 72.21 112.47 71.85 115.34C68.26 120.73 62.87 123.6 57.84 126.47C57.12 128.27 56.04 130.06 56.4 131.86C57.84 134.74 60.35 134.38 62.5 135.45C63.58 135.45 65.01 135.45 66.09 134.73C68.6 135.45 70.04 132.93 72.2 132.22C74.71 129.71 76.51 126.11 79.74 124.32L91.23 130.79L93.38 131.15C96.25 129.35 98.41 126.84 98.77 123.61C96.97 119.3 91.59 120.73 88.36 120.02C86.2 120.74 84.05 119.66 82.25 121.09C81.53 121.09 81.17 120.37 80.81 119.66C85.12 114.63 85.48 107.81 87.99 102.07C89.43 99.91 92.66 99.91 94.81 100.27C97.68 98.83 100.56 98.47 103.43 97.04C105.23 96.32 107.74 95.24 107.02 92.73C107.02 90.22 103.79 89.5 101.99 88.42C100.91 88.06 99.84 90.22 98.76 88.42C95.53 88.78 93.01 90.93 90.14 91.65C89.78 87.34 92.65 84.11 92.29 79.8C93.01 75.13 98.04 71.9 101.27 68.31H101.3Z" fill="black"/>
<path d="M156.24 101.34C153.01 103.14 149.06 99.9099 145.83 99.1899C145.47 99.1899 144.4 99.9099 144.03 99.1899C147.26 94.1599 155.88 95.9599 157.68 88.7699C158.76 83.7399 161.63 77.6399 158.76 72.6099C156.6 70.8099 153.37 69.3799 150.86 71.1699C148.35 73.3199 145.83 71.5299 143.32 71.5299C137.58 73.3299 131.83 75.1199 127.16 79.0699C125.01 77.9899 126.44 75.1199 125.01 74.0399C123.21 73.6799 122.5 75.4799 121.06 76.5499C118.55 76.5499 118.19 79.0599 116.03 79.4199C116.03 80.4999 114.59 81.5699 115.67 83.0099C116.39 83.7299 117.47 82.6499 117.47 81.9299C118.55 81.5699 119.63 80.8499 120.34 81.9299C121.78 87.3199 116.39 88.7499 114.95 93.0599C112.8 94.4899 114.23 98.4499 113.87 101.32C117.1 103.48 117.46 111.02 122.49 108.5C127.88 107.43 125.72 102.04 127.16 98.4499C126.08 95.9299 126.8 93.4199 126.08 91.2699C128.59 88.7499 124.64 86.2399 126.8 83.3699C132.9 77.9799 141.88 74.0299 150.14 75.1099C153.37 76.1899 151.58 79.4199 151.58 81.9299C153.38 84.0799 150.5 86.9599 151.58 89.1099C151.22 90.1899 150.14 90.9099 149.42 91.2699C145.83 89.8299 146.91 94.4999 144.03 94.4999C141.52 97.3699 136.85 97.7299 134.69 100.61C133.62 102.76 134.33 104.56 135.41 106.35C137.92 105.63 137.92 108.86 140.44 107.79C143.31 110.3 147.62 108.51 150.14 111.74C153.01 111.74 154.81 109.94 157.32 108.87C156.6 106.36 158.4 105.28 158.76 103.12C158.4 101.69 156.96 102.4 156.24 101.32V101.34Z" fill="black"/>
<path d="M122.36 141.27H123.59V145.62C123.59 147.47 122.69 148.09 121.36 148.09C121.02 148.09 120.59 148.03 120.33 147.93L120.48 146.94C120.68 147.01 120.94 147.06 121.24 147.06C121.94 147.06 122.36 146.74 122.36 145.58V141.27Z" fill="#3D3A39"/>
<path d="M128.15 141.27V143.96H130.99V141.27H132.22V147.98H130.99V145.02H128.15V147.98H126.92V141.27H128.15Z" fill="#3D3A39"/>
<path d="M136.84 141.27V147.98H135.61V141.27H136.84Z" fill="#3D3A39"/>
<path d="M141.47 141.27V143.96H144.31V141.27H145.54V147.98H144.31V145.02H141.47V147.98H140.24V141.27H141.47Z" fill="#3D3A39"/>
<path d="M152.99 141.27H154.22V146.95H156.98V147.98H152.99V141.27Z" fill="#3D3A39"/>
<path d="M161.12 141.27V147.98H159.89V141.27H161.12Z" fill="#3D3A39"/>
<path d="M168.55 146.65C168.95 146.88 169.55 147.08 170.17 147.08C170.95 147.08 171.39 146.71 171.39 146.16C171.39 145.65 171.05 145.35 170.2 145.05C169.09 144.66 168.38 144.06 168.38 143.1C168.38 142 169.3 141.17 170.76 141.17C171.49 141.17 172.02 141.32 172.37 141.5L172.08 142.49C171.84 142.36 171.37 142.17 170.74 142.17C169.96 142.17 169.63 142.58 169.63 142.98C169.63 143.49 170.02 143.74 170.91 144.08C172.08 144.53 172.64 145.11 172.64 146.07C172.64 147.15 171.83 148.09 170.09 148.09C169.38 148.09 168.64 147.89 168.28 147.66L168.55 146.65Z" fill="#3D3A39"/>
<path d="M177.27 147.99V145.2L175.15 141.28H176.55L177.35 143C177.58 143.49 177.75 143.87 177.94 144.33H177.96C178.13 143.9 178.32 143.49 178.54 143L179.35 141.28H180.73L178.5 145.16V147.99H177.27Z" fill="#3D3A39"/>
<path d="M184.68 141.27V145.18C184.68 146.49 185.22 147.1 186.06 147.1C186.94 147.1 187.47 146.49 187.47 145.18V141.27H188.7V145.1C188.7 147.17 187.64 148.09 186.01 148.09C184.38 148.09 183.45 147.22 183.45 145.11V141.27H184.68Z" fill="#3D3A39"/>
<path d="M113.92 139.6H107.31V149.51H113.92V139.6Z" fill="#801B1F"/>
<path d="M8.08 180.44C7.98 180.75 7.72 180.97 7.16 180.95C6.65 182.52 6.05 184 5.37 185.33H8.74001L10.02 183.61C10.02 183.61 11.5 184.8 12.34 185.64C12.27 185.91 12.03 186.03 11.71 186.03H8.2V201.36C8.2 201.51 7.46999 202.01 6.25999 202.01H5.85001V186.03H5C3.86 188.11 2.47999 189.86 0.929993 191.19L0.619995 190.97C2.39 188.18 4.02999 183.9 4.78999 179.54L8.08 180.44ZM17.79 180.53C17.72 180.82 17.4 181.04 16.85 181.01C16.29 182.58 15.64 184.01 14.91 185.32H19.75L21.11 183.55C21.11 183.55 22.61 184.74 23.51 185.63C23.46 185.9 23.22 186.02 22.88 186.02H19.32V198.93C19.32 200.58 18.91 201.79 16.07 202.03C16.05 201.28 15.88 200.67 15.54 200.31C15.15 199.92 14.57 199.66 13.34 199.49V199.15C13.34 199.15 15.91 199.32 16.44 199.32C16.85 199.32 16.97 199.17 16.97 198.84V186.03H14.48C13.27 188.02 11.82 189.66 10.17 190.92L9.88 190.7C11.77 188.01 13.54 183.85 14.36 179.51L17.8 180.53H17.79Z" fill="#3D3A39"/>
<path d="M37.4 180.44V182.98H43.14L44.64 181.12C44.64 181.12 46.31 182.4 47.38 183.3C47.31 183.57 47.04 183.69 46.7 183.69H37.4V186.86H42.97L44.08 185.58L46.57 187.49C46.4 187.66 46.04 187.88 45.55 187.95V199.21C45.55 200.83 45.16 201.83 42.26 202.12C42.19 201.37 42.04 200.81 41.65 200.47C41.24 200.13 40.68 199.84 39.45 199.67V199.31C39.45 199.31 42.02 199.5 42.65 199.5C43.09 199.5 43.21 199.31 43.21 198.97V187.56H29.63V201.24C29.63 201.51 28.66 202.06 27.67 202.06H27.28V185.79L29.82 186.86H35.07V183.69H25.48L25.26 182.99H35.07V179.5L38.29 179.79C38.24 180.13 38.02 180.35 37.39 180.44H37.4ZM42.22 192.33C42.17 192.6 41.93 192.72 41.59 192.72H37.33V195.7H39.07L40.28 194.22C40.28 194.22 41.66 195.24 42.51 196.01C42.44 196.28 42.2 196.4 41.86 196.4H37.33V200.9C37.31 201 36.63 201.43 35.47 201.43H35.08V196.39H30.53L30.34 195.69H35.09V192.71H31.12L30.93 192.01H36.96C37.4 190.78 37.9 189.08 38.22 187.87L41.05 188.72C40.95 188.99 40.66 189.18 40.13 189.16C39.5 189.98 38.53 191.12 37.61 192.02H39.09L40.2 190.71C40.2 190.71 41.43 191.63 42.23 192.33H42.22ZM33.16 191.48C33.11 190.34 32.48 188.99 31.85 188.14L32.12 187.99C37.04 189.44 34.95 193.03 33.16 191.48Z" fill="#3D3A39"/>
<path d="M71.78 184.53C71.71 184.8 71.49 184.92 71.13 184.92H49.41L49.22 184.22H62.15C62.9 182.82 63.68 180.95 64.14 179.57L67.55 180.47C67.45 180.76 67.16 180.95 66.61 180.95C65.71 181.92 64.29 183.2 62.93 184.22H67.68L69.16 182.38C69.16 182.38 70.81 183.64 71.8 184.54L71.78 184.53ZM51.29 186.39L53.86 187.38H57.13L58.2 186.14L60.6 187.98C60.45 188.15 60.07 188.37 59.58 188.44V199.26C59.58 200.81 59.27 201.71 56.84 201.92C56.79 201.24 56.72 200.76 56.45 200.42C56.21 200.11 55.8 199.84 54.95 199.72V199.36C54.95 199.36 56.52 199.48 56.94 199.48C57.3 199.48 57.38 199.33 57.38 199.04V195.58H53.41C53.14 197.93 52.3 200.33 49.61 202.05L49.32 201.81C51.18 199.44 51.31 196.34 51.31 193.19V186.39H51.29ZM57.37 194.89V191.72H53.5V193.2C53.5 193.76 53.5 194.31 53.45 194.9H57.37V194.89ZM53.5 191.02H57.37V188.09H53.5V191.02ZM56.35 183.61C56.11 182.28 55.09 180.75 54.15 179.83L54.37 179.66C60.52 180.63 58.63 185.18 56.36 183.61H56.35ZM64.37 187.99V197.22C64.37 197.41 63.45 197.8 62.63 197.8H62.24V187.05L65.27 187.34C65.22 187.68 65 187.92 64.37 187.99ZM69.43 187.26V199.25C69.43 200.87 69.07 201.79 66.31 202.03C66.24 201.38 66.09 200.87 65.73 200.5C65.34 200.19 64.76 199.92 63.57 199.75V199.41C63.57 199.41 66.16 199.58 66.67 199.58C67.11 199.58 67.23 199.46 67.23 199.12V186.31L70.31 186.62C70.24 186.96 70.02 187.18 69.44 187.25L69.43 187.26Z" fill="#3D3A39"/>
<path d="M78.5801 197C79.1101 193.8 79.7201 189.74 80.0601 186.81L83.1801 187.68C83.0801 187.95 82.8201 188.19 82.2401 188.16C81.6101 190.48 80.4701 193.92 79.3101 196.83L83.1101 195.91L83.1801 196.2C81.4101 197.17 78.8001 198.52 75.1201 200.17C75.0201 200.48 74.8101 200.73 74.5401 200.8L73.3101 198.14C74.3501 197.97 76.2901 197.53 78.5901 197H78.5801ZM84.2401 185.57C84.1701 185.84 83.9301 185.96 83.5901 185.96H73.5401L73.3501 185.26H80.6901L81.9701 183.4C81.9701 183.4 83.4201 184.68 84.2501 185.58L84.2401 185.57ZM75.6501 195.3C75.6701 193.36 75.5001 189.78 74.4201 187.26L74.7601 187.11C80.0901 192.87 77.0101 197.55 75.6601 195.3H75.6501ZM77.5801 184.29C77.4601 182.79 76.7101 180.97 76.0301 179.74L76.3001 179.62C81.8901 181.97 79.6201 186.11 77.5801 184.29ZM89.8901 180.51V185.4H92.2601L93.5201 183.7C93.5201 183.7 94.9701 184.86 95.8401 185.71C95.7901 185.98 95.5501 186.1 95.1901 186.1H89.8901V191.14H91.6601L92.7701 189.83L95.0001 191.55C94.8301 191.77 94.6101 191.91 94.0601 192.01V201.21C94.0601 201.36 93.2901 201.82 92.1501 201.82H91.7601V200.12H85.7301V201.43C85.7301 201.6 85.0501 202.04 83.8901 202.04H83.5001V190.15L85.9901 191.14H87.6401V179.54L90.7601 179.85C90.7101 180.19 90.5201 180.41 89.8901 180.5V180.51ZM91.7501 199.42V191.84H85.7201V199.42H91.7501Z" fill="#3D3A39"/>
<path d="M107.02 185.59C106.95 185.86 106.73 185.98 106.39 185.98H103.36V188.4C108.35 190.77 106.46 194.36 104.76 192.81C104.69 191.62 104.03 190.12 103.36 189.03V201.33C103.36 201.57 102.44 202.08 101.64 202.08H101.2V191.64C100.26 193.5 99.04 195.18 97.57 196.63L97.26 196.34C99.1 193.51 100.24 189.71 100.87 185.98H97.84L97.65 185.28H101.21V179.47L104.24 179.78C104.19 180.14 104.02 180.36 103.37 180.46V185.28H103.83L104.97 183.78C104.97 183.78 106.23 184.82 107.03 185.6L107.02 185.59ZM119.13 192.13C117.94 193.75 116.66 195.16 115.28 196.34C122.13 198.62 120.41 203.17 117.97 201.55C117.44 200.02 116.01 198.18 114.72 196.8C111.72 199.25 108.28 200.84 104.33 202.01L104.16 201.62C109.49 199.27 114.06 196 117.31 190.29L120.19 191.89C120 192.18 119.73 192.25 119.12 192.13H119.13ZM120.27 184.12C120.2 184.39 119.96 184.51 119.62 184.51H112.19L114.08 185.19C113.98 185.41 113.72 185.63 113.23 185.58C112.14 186.86 110.35 188.49 108.73 189.65L113.6 189.43C114.33 188.41 115 187.32 115.63 186.16L118.41 187.64C118.24 187.88 117.97 187.98 117.39 187.86C114.19 192.48 110.1 195.46 104.99 197.42L104.8 197.03C107.9 195.31 110.64 193.16 112.94 190.3C111.63 190.66 110.03 191.12 108.34 191.53C108.15 191.84 107.93 192.01 107.69 192.09L106.82 189.62C106.82 189.62 107.28 189.52 107.47 189.4C108.7 188.48 110.25 186.03 110.96 184.51H106.04L105.85 183.81H116.63L117.91 182.04C117.91 182.04 119.41 183.28 120.28 184.12H120.27ZM112.33 183.22C112.11 181.98 111.22 180.51 110.44 179.59L110.66 179.44C116.52 180.67 114.46 184.79 112.33 183.22Z" fill="#3D3A39"/>
<path d="M124.7 195.74C124.02 196.78 122.81 197.07 122.18 196.42C121.67 195.89 121.84 195.09 122.35 194.48C123.61 193.27 124.8 190.19 124.75 186.9L125.11 186.88C126.56 191.21 125.74 194.24 124.7 195.74ZM130.27 184.89V197.82C130.27 198.42 130.54 198.64 131.72 198.64H134.89C136.17 198.64 137.17 198.62 137.65 198.57C138.06 198.55 138.23 198.42 138.4 198.16C138.67 197.65 139.08 196.15 139.54 194.24H139.83L139.9 198.33C140.67 198.6 140.87 198.86 140.87 199.35C140.87 200.49 139.76 200.95 134.72 200.95H131.43C128.79 200.95 127.97 200.49 127.97 198.48V183.93L131.12 184.24C131.07 184.55 130.85 184.82 130.27 184.89ZM134.89 186.51C134.41 184.35 132.73 181.72 131.28 179.97L131.55 179.8C139.25 183 137.41 188.42 134.89 186.51ZM142.13 195.98C141.86 193.73 141.11 190.05 139.08 187.53L139.32 187.34C147.12 192.4 144.14 198.48 142.13 195.99V195.98Z" fill="#3D3A39"/>
<path d="M152.96 179.76H153.66V203.82H152.96V179.76Z" fill="#3D3A39"/>
<path d="M166.07 180.97L168.64 182.06H178.52L179.75 180.68L182.22 182.67C182.05 182.89 181.74 183.08 181.25 183.18V200.91C181.2 201.13 180.04 201.73 179.14 201.73H178.75V199.6H168.46V200.98C168.46 201.29 167.52 201.9 166.47 201.9H166.06V180.98L166.07 180.97ZM178.76 182.76H168.47V190.32H178.76V182.76ZM168.47 191.02V198.91H178.76V191.02H168.47Z" fill="#3D3A39"/>
<path d="M195.12 196.85C193.28 198.42 190.16 200.19 186.98 201.14L186.79 200.83C189.38 199.33 192.04 196.86 193.33 194.97L196.04 196.66C195.87 196.9 195.65 197 195.12 196.85ZM205.68 194.87C205.49 194.12 205.05 193.27 204.52 192.47C203.19 192.74 201.59 193.03 199.73 193.37V199.25C199.73 200.82 199.32 201.82 196.51 202.06C196.46 201.38 196.34 200.85 196 200.53C195.64 200.22 195.1 199.95 193.92 199.8V199.46C193.92 199.46 196.34 199.61 196.85 199.61C197.24 199.61 197.36 199.49 197.36 199.2V193.75C195.42 194.09 193.29 194.43 191.02 194.77C190.85 195.08 190.63 195.28 190.41 195.38L189.18 192.76C189.18 192.76 189.86 192.69 190.2 192.57C192.5 191.72 195.36 190.15 197.85 188.5C196.16 188.91 194.02 189.4 191.7 189.86C191.55 190.1 191.39 190.27 191.22 190.34L190.03 187.87C190.03 187.87 190.54 187.82 190.78 187.7C193.01 186.83 195.91 184.55 197.37 183.08C194.49 183.83 191.24 184.48 188.22 184.85L188.1 184.46C192.92 183.35 198.75 181.12 201.66 179.4L204.08 181.39C203.86 181.63 203.4 181.66 202.7 181.44C201.42 181.92 199.84 182.41 198.12 182.89L200.32 184.17C200.17 184.41 199.84 184.58 199.3 184.44C197.75 185.53 195.01 186.98 192.5 187.95C194.29 187.88 196.74 187.71 199.28 187.54C200.78 186.47 202.04 185.46 202.86 184.63L205.4 186.59C205.23 186.81 204.84 186.95 204.29 186.74C201.75 188.56 196.64 191.07 192.16 192.75C195.11 192.6 199.55 192.31 204.22 192C203.54 191.03 202.74 190.11 202.02 189.43L202.29 189.26C209.43 191.56 207.98 196.38 205.7 194.88L205.68 194.87ZM206.5 200.87C205.41 198.96 202.77 196.61 200.76 195.25L200.98 195.01C210.01 196.85 209.17 202.08 206.5 200.87Z" fill="#3D3A39"/>
<path d="M223.96 179.85C223.91 180.19 223.69 180.43 223.06 180.53V189.01H229.09L230.57 187.19C230.57 187.19 232.22 188.42 233.21 189.32C233.16 189.59 232.9 189.71 232.56 189.71H225.54V198.6C225.54 199.04 225.66 199.16 226.48 199.16H228.64C229.54 199.16 230.26 199.16 230.6 199.11C230.92 199.09 231.01 199.01 231.13 198.75C231.4 198.24 231.76 196.67 232.17 194.92H232.46L232.53 198.92C233.21 199.19 233.35 199.45 233.35 199.94C233.35 200.93 232.43 201.37 228.46 201.37H225.97C223.69 201.37 223.16 200.91 223.16 199.21V189.72H220.3C219.79 195.94 217.71 199.94 210.66 202.05L210.54 201.74C215.99 199 217.42 195.18 217.63 189.73H210.87L210.65 189.03H220.68V179.59L223.95 179.88L223.96 179.85ZM215.65 187.29C215.43 185.28 214.12 182.86 212.89 181.24L213.16 181.07C220.21 184.1 218.05 189.33 215.65 187.29ZM231.73 182.37C231.61 182.64 231.27 182.83 230.74 182.73C229.14 184.72 227.2 186.63 225.44 187.91L225.15 187.67C226.17 186.07 227.5 183.31 228.47 180.89L231.74 182.37H231.73Z" fill="#3D3A39"/>
<path d="M249.16 189.3C249.11 189.57 248.87 189.69 248.53 189.69H235.11L234.92 188.99H241.55C241.33 188.92 241.14 188.8 240.94 188.6C241.04 187.9 240.77 187.1 240.43 186.66L240.65 186.51C243.87 186.97 243.56 188.57 242.51 188.98H245.76L246.95 187.48C246.95 187.48 248.33 188.52 249.15 189.3H249.16ZM240.25 202.01C240.23 201.45 240.15 200.92 239.94 200.61C239.7 200.34 239.31 200.1 238.49 199.98V199.64C238.49 199.64 240.02 199.74 240.35 199.74C240.68 199.74 240.76 199.62 240.76 199.35V194.85H238.7V195.48C238.7 195.58 238.39 195.77 237.95 195.92L240.32 196.96C240.2 197.2 240.01 197.35 239.45 197.27C238.58 198.65 236.98 200.22 235.16 201.17L234.92 200.86C236.13 199.6 237.12 197.52 237.58 196.02C237.39 196.07 237.17 196.09 236.97 196.09H236.7V190.28L238.81 191.15H244.48L245.45 190.11L247.58 191.71C247.44 191.86 247.1 192.05 246.68 192.12V195.32C246.66 195.47 245.66 195.85 245.03 195.85H244.69V194.86H242.78V199.41C242.78 200.86 242.46 201.83 240.24 202.03L240.25 202.01ZM236.98 187.89H236.69V179.85L238.85 180.77H244.59L245.61 179.63L247.86 181.32C247.71 181.51 247.33 181.71 246.84 181.8V186.93C246.82 187.08 245.8 187.49 245.17 187.49H244.83V186.5H238.73V187.23C238.73 187.45 237.86 187.88 236.99 187.88L236.98 187.89ZM238.7 191.84V194.14H244.71V191.84H238.7ZM238.72 181.48V183.27H244.82V181.48H238.72ZM244.83 185.81V183.97H238.73V185.81H244.83ZM245.24 199.71C245.05 198.5 244.05 197.07 243.21 196.22L243.45 196.05C248.92 197.24 247.18 201.14 245.24 199.71ZM256.71 194.63C253.8 198.17 250.15 200.56 245.84 202.09L245.65 201.73C249.33 199.67 252.43 196.79 254.73 192.79L257.68 194.41C257.51 194.68 257.27 194.75 256.71 194.63ZM256.18 188.04C253.88 190.32 250.85 192.42 247.85 193.85L247.61 193.51C250.1 191.57 252.45 188.91 254.27 186.1L257.13 187.84C256.96 188.08 256.72 188.15 256.19 188.03L256.18 188.04ZM255.79 181.84C253.61 183.9 250.73 185.84 247.9 187.12L247.66 186.78C250.01 184.99 252.24 182.52 253.93 179.9L256.74 181.62C256.57 181.89 256.33 181.93 255.8 181.84H255.79Z" fill="#3D3A39"/>
<path d="M263.1 196.08C263.88 194.12 264.29 191.96 264.51 189.74H262.52L261.75 190.47L259.76 189.09C259.95 188.92 260.29 188.75 260.61 188.63C261.51 187.03 262.77 184.37 263.47 182.65H259.3L259.08 181.95H263.44L264.53 180.86L266.71 182.82C266.49 183.04 266.08 183.13 265.57 183.18C264.89 184.71 263.61 187.32 262.74 189.04H264.34L265.48 187.83L267.59 189.65C267.44 189.89 267.23 189.96 266.69 190.01C266.33 192.55 265.7 195 264.44 197.15C267.06 198.84 270.69 199.21 275.8 199.21C277.13 199.21 280.09 199.21 281.64 199.19V199.48C280.7 199.67 280.26 200.45 280.19 201.39H275.64C270.05 201.39 266.27 200.81 263.63 198.36C262.54 199.79 261.09 201.02 259.1 202.02L258.88 201.71C260.58 200.5 261.76 198.97 262.61 197.23C261.5 195.8 260.62 193.91 259.92 191.39L260.24 191.22C260.99 193.35 261.93 194.93 263.12 196.09L263.1 196.08ZM281.99 185.67C281.92 185.94 281.7 186.06 281.36 186.06H278.67V189.45C278.65 189.62 277.58 190.06 276.88 190.06H276.54V189.26H273.78V191.73H276.54L277.75 190.13C277.75 190.13 279.16 191.24 280 192.04C279.93 192.31 279.68 192.43 279.35 192.43H273.78V194.97H277.34L278.7 193.25C278.7 193.25 280.25 194.44 281.22 195.28C281.15 195.55 280.88 195.67 280.54 195.67H273.78V198.07C273.78 198.31 272.86 198.75 272.01 198.75H271.57V195.67H266.19L266 194.97H271.57V192.43H267.4L267.21 191.73H271.57V189.26H267.7L267.48 188.56H271.57V186.07H265.81L265.62 185.37H271.58V182.92H267.56L267.34 182.22H271.58V179.58L274.68 179.89C274.61 180.25 274.44 180.47 273.78 180.57V182.22H276.3L277.37 181.06L279.67 182.8C279.53 182.97 279.16 183.16 278.68 183.26V185.37H278.99L280.08 183.72C280.08 183.72 281.32 184.88 281.99 185.68V185.67ZM276.54 182.91H273.78V185.36H276.54V182.91ZM273.78 186.05V188.54H276.54V186.05H273.78Z" fill="#3D3A39"/>
<path d="M289.2 180.87L288.64 181.69H291.96L293.07 180.24C293.07 180.24 294.33 181.26 295.08 182.01C295.01 182.28 294.79 182.4 294.45 182.4H288.11C286.8 184 285.23 185.21 283.68 185.98L283.41 185.71C284.81 184.28 286.27 181.91 287.12 179.34L290.15 180.43C290.05 180.7 289.74 180.91 289.21 180.87H289.2ZM291.48 197.85C289.76 199.33 286.73 200.83 283.66 201.56L283.44 201.25C285.96 199.97 288.5 197.76 289.71 196.02L292.4 197.67C292.25 197.89 292.01 197.98 291.48 197.86V197.85ZM305.71 195.21C305.64 195.48 305.4 195.6 305.03 195.6H295.8V201.39C295.8 201.58 294.76 202.02 293.79 202.02H293.35V195.6H284.27L284.08 194.9H293.36V192.94L296.7 193.25C296.65 193.59 296.43 193.83 295.8 193.9V194.89H301.71L303.11 193.05C303.11 193.05 304.71 194.31 305.7 195.2L305.71 195.21ZM291.6 184.96C291.7 185.03 292.84 185.9 293.54 186.58C293.47 186.85 293.25 186.97 292.91 186.97H290.05V190.92L293.76 190.36L293.81 190.72C292.09 191.37 289.57 192.32 286.06 193.43C285.94 193.74 285.72 193.94 285.45 193.99L284.38 191.64C285.15 191.57 286.41 191.42 287.94 191.2V186.96H285.08L284.89 186.26H290.39L291.31 185.12C291.02 185.24 290.68 185.24 290.29 185.02C290.1 184.27 289.39 183.4 288.76 182.99L288.98 182.8C292.01 182.73 292.3 184.33 291.6 184.96ZM295.79 188.72C295.86 188.36 295.89 188.02 295.89 187.7V186.83H294.03L293.81 186.13H300.42L301.44 185.06L303.35 186.71C303.2 186.86 302.96 186.98 302.55 187.05V190.54C302.55 190.78 302.6 190.83 302.86 190.83H303.9C304.02 190.83 304.14 190.81 304.24 190.66C304.36 190.44 304.63 189.67 304.85 188.89H305.14L305.21 190.68C305.69 190.9 305.82 191.09 305.82 191.48C305.82 192.23 305.12 192.67 303.23 192.67H302.24C300.84 192.67 300.64 192.23 300.64 191.02V186.83H297.93V187.7C297.93 188.16 297.88 188.67 297.69 189.23C300.28 190.3 299.99 192.26 298.51 191.99C298.12 191.55 297.52 191.09 296.84 190.66C295.99 191.6 294.49 192.52 291.85 193.15L291.66 192.84C293.82 191.94 294.91 190.88 295.41 189.81C294.71 189.42 293.98 189.11 293.35 188.87L293.52 188.56C294.37 188.56 295.14 188.63 295.8 188.73L295.79 188.72ZM298.4 180.87L297.89 181.69H301.96L303.17 180.14C303.17 180.14 304.58 181.21 305.42 182C305.35 182.27 305.13 182.39 304.77 182.39H297.41C296.42 183.7 295.23 184.79 294.02 185.49L293.71 185.27C294.73 183.84 295.74 181.61 296.33 179.34L299.36 180.45C299.24 180.72 298.95 180.91 298.42 180.86L298.4 180.87ZM302.86 201.26C301.7 199.71 299.06 197.8 297.07 196.8L297.26 196.53C305.81 197.01 305.52 202.05 302.85 201.25L302.86 201.26ZM299.49 185.04C299.37 184.31 298.76 183.49 298.21 183.08L298.43 182.91C302.84 183.03 301.19 186.2 299.5 185.04H299.49Z" fill="#3D3A39"/>
<path d="M314.44 179.76H315.14V203.82H314.44V179.76Z" fill="#3D3A39"/>
<path d="M324.33 195.28C324.65 194.31 325.41 193.93 326.18 193.93C327.35 193.93 328.09 194.52 328.35 196.48L328.79 199.35C329.11 199.44 329.46 199.47 329.87 199.47C332.92 199.47 334.59 197.83 334.59 194.55C334.59 191.27 332.95 189.65 329.99 189.65H328.85V188.51H329.85C332.46 188.51 334.16 187.04 334.16 183.79C334.16 180.95 332.87 179.48 330.61 179.48C330.29 179.48 329.97 179.51 329.61 179.57L329.11 182.41C328.88 183.88 327.97 184.37 326.91 184.37C326.21 184.37 325.59 184.05 325.3 183.49C325.3 180 328.38 178.48 331.95 178.48C336.61 178.48 338.84 180.62 338.84 183.67C338.84 186.13 337.32 188.13 333.27 188.92C337.84 189.59 339.45 191.65 339.45 194.49C339.45 198.04 336.4 200.5 331.39 200.5C326.9 200.5 324.56 198.56 324.33 195.28Z" fill="#731620"/>
<path d="M345.26 183.54H360.49L361.82 182.21L364.17 184.44C363.98 184.61 363.71 184.66 363.23 184.68C362.43 185.53 361 186.67 359.94 187.34L359.67 187.17C359.98 186.37 360.37 185.16 360.59 184.22H345.36C345.48 185.94 344.85 187.1 344.05 187.63C343.32 188.14 342.14 187.97 341.8 187.1C341.56 186.3 342.02 185.62 342.75 185.26C343.62 184.8 344.64 183.57 344.54 182.18L344.9 182.16C345.07 182.64 345.19 183.1 345.26 183.54ZM364.03 193.44C363.98 193.71 363.72 193.83 363.38 193.83H354.06V199.13C354.06 200.82 353.62 201.82 350.57 202.08C350.45 201.35 350.3 200.82 349.87 200.43C349.39 200.07 348.73 199.8 347.35 199.61V199.27C347.35 199.27 350.5 199.49 351.1 199.49C351.54 199.49 351.66 199.34 351.66 198.98V193.82H342.07L341.85 193.12H351.66V190.09L353.79 190.31C354.69 189.53 355.58 188.57 356.21 187.77H346.23L346.01 187.07H356.45L357.81 185.71L360.14 187.77C359.95 187.96 359.66 188.01 359.17 188.06C357.93 188.83 356.36 189.73 354.79 190.41H354.91C354.84 190.75 354.59 190.94 354.06 191.02V193.13H360.11L361.51 191.34C361.51 191.34 363.08 192.55 364.03 193.45V193.44ZM352.52 183.05C352.42 181.84 351.7 180.48 350.8 179.71L350.99 179.56C357.12 180.07 354.87 184.77 352.52 183.05Z" fill="#3D3A39"/>
<path d="M371.33 197.65C371.79 196.1 372.25 194.07 372.49 192.59L375.47 193.34C375.4 193.61 375.08 193.85 374.57 193.82C373.99 194.86 373.07 196.27 372.15 197.48L376.48 196.63L376.53 196.97C374.59 197.89 371.76 199.15 367.72 200.7C367.6 201.01 367.36 201.26 367.11 201.31L365.75 198.62C366.86 198.47 368.9 198.11 371.32 197.65H371.33ZM377.24 184L379.59 184.99H380.46C380.58 184.17 380.68 183 380.78 182.06H376.59L376.66 182.13C376.59 182.4 376.35 182.52 376.01 182.52H366.06L365.87 181.82H372.99L374.3 180.13C374.3 180.13 375.46 181.05 376.33 181.85L376.21 181.39H384.69L386.07 179.6C386.07 179.6 387.64 180.84 388.59 181.71C388.52 181.95 388.28 182.07 387.94 182.07H383.39C382.76 183.09 382.01 184.2 381.33 185H384.53L385.62 183.84L387.87 185.58C387.72 185.75 387.41 185.92 387 185.99V196.67C386.98 196.84 385.89 197.35 385.11 197.35H384.75V196.33H379.5V196.96C379.5 197.2 378.58 197.71 377.61 197.71H377.27V184H377.24ZM367.05 184.62L369.11 185.49H372.89L373.91 184.38L376.09 186.05C375.94 186.22 375.63 186.41 375.17 186.51V191.6C375.15 191.79 374.15 192.28 373.45 192.28H373.11V191.29H368.99V191.8C368.99 191.99 368.14 192.43 367.34 192.43H367.05V184.63V184.62ZM368.4 196.88C368.5 195.55 368.09 193.95 367.6 192.86L367.89 192.74C372.44 195.21 370.05 198.65 368.4 196.88ZM373.1 190.58V186.2H368.98V190.58H373.1ZM382.25 198.74C382.1 198.96 381.84 198.98 381.43 198.86C379.66 200.24 376.15 201.55 373.2 202.06L373.03 201.7C375.5 200.71 378.33 198.82 379.69 197.15L382.26 198.75L382.25 198.74ZM384.72 188.5V185.69H379.47V188.5H384.72ZM379.47 192.06H384.72V189.2H379.47V192.06ZM379.47 195.62H384.72V192.76H379.47V195.62ZM386.52 201.87C385.79 200.42 383.95 198.62 382.55 197.61L382.74 197.39C389.86 198.29 388.89 202.96 386.52 201.87Z" fill="#3D3A39"/>
<path d="M400.97 179.98L404 182.18C403.56 182.71 402.55 183 401.17 183.12V184.09C401.94 191.57 405.72 196.8 412.7 199.66L412.6 199.93C411.41 200.05 410.69 200.78 410.23 202.06C406.65 200.03 402.75 195.47 401.58 189.98C399.88 195.4 395.82 199.71 390.27 202.04L390.05 201.75C395.4 198.82 399.74 192.23 400.41 184.07V182.45H394.82L394.65 181.75H399.83L400.97 179.98Z" fill="#3D3A39"/>
<path d="M424.21 200.24V193H417.12L416.93 192.32H424.22V186.1H416.11L415.92 185.4H431.51L433.01 183.51C433.01 183.51 434.73 184.79 435.75 185.71C435.68 185.98 435.43 186.1 435.1 186.1H426.75V192.32H430.65L432.1 190.48C432.1 190.48 433.75 191.71 434.76 192.61C434.71 192.88 434.45 193 434.08 193H426.74V200.24H432.48L434.01 198.33C434.01 198.33 435.73 199.61 436.82 200.56C436.75 200.83 436.48 200.95 436.14 200.95H414.49L414.3 200.25H424.23L424.21 200.24ZM425.64 184.41C424.94 182.79 423.05 180.9 421.47 179.86L421.66 179.64C429.55 180.51 428.29 185.79 425.63 184.41H425.64Z" fill="#3D3A39"/>
<path d="M102.06 238.28C103.97 236.19 105.91 234.09 107.41 232.46C110.64 229.01 112.15 226.61 112.15 223.69C112.15 220.77 110.58 219.04 108 219.04C107.35 219.04 106.74 219.13 106.09 219.38L105.38 222.24C105.07 223.78 104.4 224.21 103.56 224.21C102.88 224.21 102.3 223.81 102.05 223.1C102.42 219.81 105.59 218.05 109.1 218.05C113.5 218.05 115.69 220.33 115.69 223.81C115.69 226.76 113.63 229.29 108.43 233.57C107.45 234.4 105.69 235.97 103.97 237.57H116.47V240.34H102.07V238.28H102.06Z" fill="#731620"/>
<path d="M119.3 231.78C119.3 224.89 124.78 218.98 133.18 218.05L133.37 218.79C127.34 220.14 123.83 224.05 123.03 229.1C124.45 227.65 126.17 226.91 128.17 226.91C132.02 226.91 134.2 229.62 134.2 233.68C134.2 237.74 131.21 240.82 127 240.82C122.2 240.82 119.31 237.43 119.31 231.77L119.3 231.78ZM122.84 231.44C122.84 237.23 124.53 239.81 127.03 239.81C129.15 239.81 130.72 237.9 130.72 233.81C130.72 230.3 129.34 228.39 126.9 228.39C125.48 228.39 124.16 228.88 122.9 230.18L122.84 231.44Z" fill="#731620"/>
<path d="M136.97 230.95H145.31V232.77H136.97V230.95Z" fill="#731620"/>
<path d="M148.18 236.03C148.43 235.23 149.04 234.89 149.72 234.89C150.64 234.89 151.2 235.38 151.47 236.89L152.05 239.54C152.6 239.72 153.22 239.82 153.93 239.82C157.28 239.82 159.13 237.94 159.13 234.65C159.13 231.36 157.31 229.54 153.84 229.54H152.52V228.43H153.69C156.58 228.43 158.58 226.77 158.58 223.51C158.58 220.68 157.13 219.05 154.55 219.05C153.97 219.05 153.38 219.14 152.8 219.3L152.18 221.92C151.96 223.12 151.29 223.55 150.39 223.55C149.81 223.55 149.25 223.3 149.04 222.75C149.29 219.49 152.21 218.07 155.44 218.07C159.75 218.07 162.06 220.29 162.06 223.43C162.06 225.95 160.4 228.08 156.7 228.88C160.95 229.5 162.7 231.59 162.7 234.64C162.7 238.33 159.65 240.86 154.94 240.86C151 240.86 148.6 239.14 148.17 236.06L148.18 236.03Z" fill="#731620"/>
<path d="M165.91 235.75C165.91 233.23 167.79 231.44 171.23 230.03C167.97 228.52 166.49 226.43 166.49 223.81C166.49 220.3 169.41 218.05 173.2 218.05C177.26 218.05 179.42 220.17 179.42 222.97C179.42 224.85 178.19 226.69 174.68 228.23C178.62 230.02 180.34 232.08 180.34 234.97C180.34 238.51 177.45 240.82 172.83 240.82C168.21 240.82 165.91 238.79 165.91 235.74V235.75ZM168.87 235.57C168.87 238.06 170.5 239.82 173.09 239.82C175.68 239.82 177.21 238.1 177.21 235.91C177.21 233.72 175.92 232.16 171.98 230.37C169.7 231.94 168.87 233.45 168.87 235.57ZM176.71 222.92C176.71 220.83 175.42 219.07 173.14 219.07C171.2 219.07 169.45 220.49 169.45 222.76C169.45 224.61 170.37 226.24 173.88 227.9C175.97 226.24 176.71 224.88 176.71 222.91V222.92Z" fill="#731620"/>
<path d="M185.75 235.95V227.86H182.99L182.8 227.16H185.75V220.79L188.9 221.08C188.83 221.42 188.63 221.69 188 221.76V227.16H188.41L189.55 225.39C189.55 225.39 190.86 226.65 191.56 227.47C191.49 227.74 191.25 227.86 190.93 227.86H188V235.2L191.41 234.04L191.51 234.33C189.94 235.42 187.59 237.04 184.34 239C184.27 239.29 184.05 239.56 183.78 239.65L182.52 236.94C183.2 236.77 184.34 236.41 185.74 235.95H185.75ZM196.24 232.35V222.76H190.45L190.26 222.06H201.35L202.71 220.29C202.71 220.29 204.24 221.5 205.16 222.37C205.09 222.64 204.85 222.76 204.48 222.76H198.55V232.35H201.75L203.15 230.51C203.15 230.51 204.77 231.77 205.69 232.67C205.64 232.94 205.38 233.06 205.04 233.06H198.55V241.87C198.55 242.02 197.82 242.55 196.64 242.55H196.25V233.06H189.66L189.49 232.36H196.25L196.24 232.35ZM192.75 230.55C192.77 228.54 192.1 226.07 191.42 224.3L191.76 224.18C196.92 228.13 194.71 232.58 192.75 230.55ZM204.57 225.11C204.47 225.4 204.18 225.62 203.65 225.59C202.58 227.65 201.23 229.76 199.87 231.21L199.51 231.04C200.14 229.25 200.84 226.46 201.35 224.07L204.57 225.11Z" fill="#3D3A39"/>
<path d="M210.5 231.09C210.5 230.15 211.23 229.32 212.22 229.32C213.21 229.32 213.94 230.14 213.94 231.09C213.94 232.04 213.21 232.79 212.22 232.79C211.23 232.79 210.5 232.02 210.5 231.09Z" fill="#3D3A39"/>
<path d="M226.84 226.1C226.77 226.37 226.55 226.49 226.21 226.49H224.01V228.09C228.1 230.34 226.5 233.3 225.05 232.01C224.98 231.07 224.52 229.9 224.01 228.96V241.58C224.01 241.85 223.11 242.38 222.34 242.38H221.93V232.35C221.2 233.92 220.28 235.38 219.19 236.68L218.85 236.39C220.3 233.61 221.13 230 221.59 226.49H219.34L219.15 225.79H221.93V219.83L224.89 220.12C224.84 220.48 224.65 220.7 224.02 220.8V225.64L224.99 224.28C224.99 224.28 226.15 225.35 226.85 226.1H226.84ZM241.7 233.05C241.65 233.32 241.41 233.44 241.07 233.44H235.36C235.63 234.72 235.97 235.84 236.45 236.81C237.1 235.94 237.69 234.97 238.19 233.9L240.61 235.3C240.46 235.57 240.22 235.66 239.66 235.52C239.01 236.59 238.26 237.51 237.43 238.3C237.91 238.88 238.5 239.32 239.17 239.66C239.58 239.9 239.7 239.85 239.92 239.44C240.21 238.79 240.65 237.58 240.96 236.51L241.25 236.56L240.94 240.22C241.67 241.07 241.76 241.45 241.57 241.82C241.01 242.79 239.58 242.3 238.42 241.72C237.4 241.21 236.55 240.51 235.85 239.64C234.18 240.83 232.29 241.65 230.28 242.13L230.11 241.77C231.85 241 233.57 239.88 235.05 238.38C234.28 237.02 233.77 235.35 233.4 233.44H230.93C230.88 234.07 230.81 234.72 230.66 235.38C234.83 236.37 233.3 239.55 231.53 238.33C231.39 237.65 230.97 236.9 230.44 236.27C229.83 238.45 228.5 240.56 225.57 242.18L225.26 241.84C228.19 239.22 228.55 236.15 228.65 233.44H226.42L226.23 232.74H233.28C232.94 230.46 232.77 227.87 232.72 225.01C232.57 225.08 232.38 225.11 232.16 225.06C231.24 226.39 229.71 228.21 228.26 229.52L230.97 229.25C230.82 228.64 230.61 228.06 230.39 227.6L230.7 227.48C234.14 229.66 232.37 232.27 231.16 230.94C231.18 230.6 231.14 230.21 231.09 229.85C230.32 230.21 229.18 230.7 228.09 231.13C227.97 231.4 227.82 231.54 227.65 231.61L226.58 229.58C226.58 229.58 226.99 229.46 227.16 229.36C227.94 228.66 228.83 227.3 229.56 225.99L228.03 226.69C227.88 226.98 227.71 227.17 227.52 227.27L226.41 225.07C226.41 225.07 226.82 224.97 226.97 224.88C227.89 223.98 228.96 221.51 229.32 220.28L231.84 221.42C231.72 221.64 231.45 221.83 230.97 221.78C230.22 222.85 229.01 224.2 227.92 225.17L230.05 225.02C230.34 224.44 230.58 223.91 230.75 223.47L232.69 224.54L232.67 220.01L235.62 220.35C235.57 220.66 235.35 220.93 234.75 221.03C234.68 225.53 234.68 229.55 235.21 232.73H238.65L239.72 231.42C239.72 231.42 240.93 232.34 241.68 233.04L241.7 233.05ZM239.77 230.53C239.79 230.12 239.72 229.66 239.62 229.2L236.98 230.29C240.01 231.04 238.63 233.29 237.39 232.32C237.37 231.72 237 230.99 236.61 230.53C236.49 230.77 236.32 230.92 236.17 230.99L235.15 228.91C235.15 228.91 235.56 228.81 235.71 228.72C236.34 228.11 237.04 227.02 237.65 225.91L236.39 226.52C236.24 226.86 236.03 227.08 235.83 227.17L234.81 225.04C234.81 225.04 235.17 224.94 235.32 224.85C236.09 223.98 236.94 221.56 237.18 220.35L239.8 221.49C239.7 221.68 239.44 221.9 238.98 221.85C238.33 222.84 237.33 224.05 236.41 224.97L238.15 224.87C238.46 224.24 238.71 223.68 238.85 223.22L241.18 224.62C241.08 224.81 240.77 224.96 240.33 224.86C239.48 226.07 238.13 227.67 236.84 228.81L239.41 228.59C239.24 228.11 239.02 227.65 238.81 227.28L239.12 227.13C242.83 229.04 241.06 231.85 239.75 230.52L239.77 230.53Z" fill="#3D3A39"/>
<path d="M252.59 227.65C252.54 227.14 252.37 226.61 252.15 226.05C250.43 226.53 248.03 227.14 245.37 227.7L245.1 227.97L247.3 228.84H251.13L252.15 227.63L254.5 229.42C254.35 229.61 253.97 229.81 253.48 229.9V239.59C253.48 241.14 253.19 242.06 250.79 242.28C250.77 241.6 250.67 241.07 250.43 240.73C250.14 240.42 249.73 240.17 248.9 240.03V239.67C248.9 239.67 250.5 239.79 250.93 239.79C251.27 239.79 251.37 239.64 251.37 239.35V235.4C250.43 236.13 249.29 236.93 247.93 237.7C247.83 238.01 247.62 238.23 247.37 238.33L246.69 236.85C246.38 238.86 245.55 240.92 243.54 242.47L243.27 242.2C244.77 239.68 244.84 236.49 244.84 233.51V228.13L244.79 228.15L243.72 225.58C243.72 225.58 244.18 225.46 244.4 225.36C245.8 224.32 247.64 221.36 248.25 219.81L251.33 221C251.23 221.24 250.94 221.44 250.46 221.39C249.32 222.72 247.41 224.42 245.67 225.6C247.27 225.55 249.47 225.48 251.82 225.36C251.36 224.51 250.75 223.71 250.2 223.08L250.44 222.91C256.57 224.8 254.65 229.3 252.57 227.63L252.59 227.65ZM251.38 234.7V229.54H246.92V231.6C251.18 230.29 252.13 234.02 250.12 233.78C249.37 233.2 248.28 232.64 246.92 232.38V233.52C246.92 234.25 246.9 235.02 246.85 235.82C248.13 235.6 249.83 235.21 251.38 234.71V234.7ZM257.92 221.06V223.72H261.63L262.79 222.17C262.79 222.17 264.12 223.26 264.9 224.03C264.85 224.3 264.61 224.42 264.29 224.42H257.92V227.64C257.92 228 258.02 228.1 258.82 228.1H260.95C261.75 228.1 262.55 228.1 262.86 228.08C263.08 228.06 263.34 228.06 263.49 228.03C263.66 228.01 263.93 227.96 264.12 227.88H264.36L264.48 227.93C265.13 228.17 265.38 228.39 265.38 228.8C265.38 229.74 264.46 230.08 260.71 230.08H258.31C256.15 230.08 255.72 229.64 255.72 228.09V220.17L258.67 220.46C258.65 220.77 258.4 220.99 257.92 221.04V221.06ZM258 231.77V234.36H261.63L262.87 232.74C262.87 232.74 264.25 233.88 265.07 234.68C265 234.95 264.76 235.07 264.42 235.07H258V239.16C258 239.55 258.12 239.67 258.94 239.67H261.14C262.04 239.67 262.81 239.65 263.13 239.62C263.4 239.6 263.57 239.55 263.69 239.35C263.91 239.04 264.25 237.99 264.59 236.83H264.86L264.93 239.45C265.61 239.69 265.78 239.93 265.78 240.37C265.78 241.34 264.84 241.7 260.96 241.7H258.47C256.24 241.7 255.76 241.26 255.76 239.64V230.87L258.79 231.16C258.74 231.45 258.5 231.69 258.02 231.77H258Z" fill="#3D3A39"/>
<path d="M268.41 238.28C270.32 236.19 272.26 234.09 273.77 232.46C277 229.01 278.51 226.61 278.51 223.69C278.51 220.77 276.94 219.04 274.35 219.04C273.7 219.04 273.09 219.13 272.44 219.38L271.73 222.24C271.42 223.78 270.74 224.21 269.91 224.21C269.23 224.21 268.65 223.81 268.4 223.1C268.77 219.81 271.94 218.05 275.45 218.05C279.85 218.05 282.04 220.33 282.04 223.81C282.04 226.76 279.98 229.29 274.78 233.57C273.79 234.4 272.04 235.97 270.32 237.57H282.82V240.34H268.42V238.28H268.41Z" fill="#731620"/>
<path d="M285.68 230.95H294.02V232.77H285.68V230.95Z" fill="#731620"/>
<path d="M296.88 236.03C297.13 235.23 297.74 234.89 298.42 234.89C299.34 234.89 299.9 235.38 300.17 236.89L300.75 239.54C301.3 239.72 301.92 239.82 302.63 239.82C305.98 239.82 307.83 237.94 307.83 234.65C307.83 231.36 306.01 229.54 302.54 229.54H301.22V228.43H302.39C305.28 228.43 307.28 226.77 307.28 223.51C307.28 220.68 305.83 219.05 303.25 219.05C302.67 219.05 302.08 219.14 301.5 219.3L300.88 221.92C300.67 223.12 299.99 223.55 299.09 223.55C298.51 223.55 297.95 223.3 297.74 222.75C297.99 219.49 300.91 218.07 304.14 218.07C308.45 218.07 310.76 220.29 310.76 223.43C310.76 225.95 309.1 228.08 305.4 228.88C309.65 229.5 311.4 231.59 311.4 234.64C311.4 238.33 308.35 240.86 303.64 240.86C299.7 240.86 297.3 239.14 296.87 236.06L296.88 236.03Z" fill="#731620"/>
<path d="M316.28 221.5L318.53 222.37C323.23 221.84 329.02 220.77 332.11 219.88L334.39 222.2C334.12 222.42 333.61 222.42 332.94 222.13C329.16 222.57 323.47 222.9 318.56 222.83V224.52H331.52L332.63 223.31L335.03 225.1C334.89 225.29 334.55 225.49 334.09 225.56V229C334.07 229.17 332.93 229.63 332.15 229.63H331.76V228.69H318.56C318.56 232.95 318.29 238.55 314.1 242.3L313.78 242.08C316.08 238.16 316.28 233.22 316.28 228.74V221.5ZM335.73 232.37C335.66 232.64 335.39 232.76 335.08 232.76H325.51C325.46 233.56 325.34 234.38 325.15 235.16H330.82L332.01 234L334.24 235.82C334.09 236.01 333.78 236.13 333.3 236.21C333.03 239.04 332.48 240.88 331.44 241.56C330.79 242 329.87 242.21 328.75 242.21C328.75 241.58 328.65 241.02 328.29 240.68C327.93 240.34 327.05 240.07 326.11 239.93V239.57C327.05 239.64 328.7 239.76 329.19 239.76C329.6 239.76 329.79 239.71 329.99 239.59C330.43 239.25 330.79 237.87 331.01 235.86H324.98C324.16 238.35 322.29 240.63 317.62 242.35L317.38 242.01C322.37 239.2 322.83 235.93 322.95 232.76H319.56L319.37 232.06H332.16L333.42 230.46C333.42 230.46 334.87 231.55 335.77 232.37H335.73ZM331.75 227.99V225.23H318.55V227.99H331.75ZM326.52 231.79C326.3 230.92 325.58 229.85 325.02 229.27L325.24 229.1C330.25 229.41 328.49 233.02 326.52 231.79Z" fill="#3D3A39"/>
</svg>
